<?xml version="1.0" encoding="UTF-8"?>
<svg xmlns="http://www.w3.org/2000/svg" xmlns:xlink="http://www.w3.org/1999/xlink" width="250px" height="250px" viewBox="0 0 250 250" version="1.1">
<g id="surface1">
<rect x="0" y="0" width="250" height="250" style="fill:rgb(100%,100%,100%);fill-opacity:1;stroke:none;"/>
<path style=" stroke:none;fill-rule:evenodd;fill:rgb(100%,100%,100%);fill-opacity:1;" d="M 125 246.324219 C 192.003906 246.324219 246.324219 192.003906 246.324219 125 C 246.324219 57.996094 192 3.675781 125 3.675781 C 57.996094 3.675781 3.675781 57.996094 3.675781 125 C 3.675781 192.003906 57.996094 246.324219 125 246.324219 Z M 125 246.324219 "/>
<path style=" stroke:none;fill-rule:nonzero;fill:rgb(72.941176%,14.901961%,17.254902%);fill-opacity:1;" d="M 225.445312 145.3125 C 226.796875 138.625 227.46875 131.820312 227.460938 125 C 227.460938 96.707031 215.988281 71.09375 197.449219 52.550781 C 178.910156 34.011719 153.292969 22.542969 125 22.542969 C 124.59375 22.542969 124.175781 22.542969 123.753906 22.550781 L 123.707031 18.554688 C 124.128906 18.550781 124.558594 18.546875 125 18.546875 C 154.394531 18.546875 181.007812 30.464844 200.269531 49.726562 C 219.535156 68.992188 231.453125 95.605469 231.453125 125 C 231.449219 132.082031 230.75 139.144531 229.363281 146.089844 Z M 225.445312 145.3125 "/>
<path style=" stroke:none;fill-rule:nonzero;fill:rgb(72.941176%,14.901961%,17.254902%);fill-opacity:1;" d="M 221.789062 144.589844 C 222.4375 141.375 222.925781 138.128906 223.246094 134.863281 C 223.570312 131.632812 223.734375 128.339844 223.734375 125 C 223.734375 97.734375 212.683594 73.054688 194.816406 55.183594 C 176.949219 37.316406 152.265625 26.265625 125 26.265625 L 124.335938 26.269531 C 124.121094 26.269531 123.898438 26.273438 123.675781 26.277344 L 123.664062 25.277344 C 124.109375 25.269531 124.554688 25.269531 125 25.269531 C 152.539062 25.269531 177.472656 36.429688 195.519531 54.476562 C 213.570312 72.527344 224.730469 97.457031 224.730469 125 C 224.730469 131.640625 224.074219 138.269531 222.769531 144.785156 Z M 221.789062 144.589844 "/>
<path style=" stroke:none;fill-rule:nonzero;fill:rgb(72.941176%,14.901961%,17.254902%);fill-opacity:1;" d="M 232.015625 146.722656 C 232.738281 143.160156 233.28125 139.558594 233.636719 135.941406 C 233.996094 132.351562 234.179688 128.703125 234.179688 125 C 234.179688 94.851562 221.957031 67.558594 202.203125 47.796875 C 182.445312 28.042969 155.148438 15.820312 125 15.820312 L 124.335938 15.824219 C 124.121094 15.824219 123.898438 15.824219 123.675781 15.828125 L 123.664062 14.832031 L 124.332031 14.824219 L 125 14.824219 C 155.425781 14.824219 182.972656 27.15625 202.90625 47.09375 C 222.84375 67.03125 235.179688 94.578125 235.179688 125 C 235.175781 132.359375 234.445312 139.703125 232.996094 146.921875 Z M 22.703125 119.222656 C 22.597656 121.148438 22.542969 123.074219 22.542969 125 C 22.542969 153.292969 34.007812 178.910156 52.550781 197.449219 C 71.09375 215.992188 96.707031 227.460938 125 227.460938 C 127.488281 227.460938 129.996094 227.367188 132.53125 227.179688 C 135.023438 227.003906 137.507812 226.734375 139.984375 226.371094 L 140.558594 230.320312 C 137.941406 230.703125 135.355469 230.992188 132.808594 231.175781 C 130.210938 231.363281 127.605469 231.453125 125 231.453125 C 95.605469 231.453125 68.992188 219.535156 49.726562 200.269531 C 30.464844 181.007812 18.546875 154.394531 18.546875 125 C 18.546875 123 18.601562 121 18.710938 119.003906 Z M 22.703125 119.222656 "/>
<path style=" stroke:none;fill-rule:nonzero;fill:rgb(72.941176%,14.901961%,17.254902%);fill-opacity:1;" d="M 26.410156 119.644531 C 26.3125 121.425781 26.265625 123.214844 26.265625 125 C 26.265625 152.265625 37.316406 176.949219 55.183594 194.816406 C 73.050781 212.679688 97.734375 223.734375 125 223.734375 C 129.878906 223.734375 134.75 223.375 139.574219 222.667969 L 139.71875 223.652344 C 137.285156 224.011719 134.84375 224.28125 132.394531 224.464844 C 129.933594 224.644531 127.464844 224.734375 125 224.730469 C 97.460938 224.730469 72.527344 213.570312 54.480469 195.519531 C 36.429688 177.472656 25.269531 152.539062 25.269531 125 C 25.265625 123.199219 25.316406 121.394531 25.414062 119.59375 Z M 26.410156 119.644531 "/>
<path style=" stroke:none;fill-rule:nonzero;fill:rgb(72.941176%,14.901961%,17.254902%);fill-opacity:1;" d="M 16.003906 118.648438 C 15.882812 120.765625 15.824219 122.882812 15.820312 125 C 15.820312 155.148438 28.042969 182.441406 47.800781 202.203125 C 67.558594 221.957031 94.851562 234.179688 125 234.179688 C 127.660156 234.179688 130.3125 234.082031 132.945312 233.894531 C 135.578125 233.703125 138.203125 233.421875 140.816406 233.042969 L 140.957031 234.027344 C 138.320312 234.410156 135.671875 234.703125 133.011719 234.890625 C 130.347656 235.082031 127.671875 235.179688 125 235.179688 C 94.574219 235.179688 67.03125 222.84375 47.09375 202.90625 C 27.15625 182.96875 14.820312 155.425781 14.820312 125 C 14.820312 123.921875 14.839844 122.855469 14.867188 121.792969 C 14.898438 120.710938 14.945312 119.640625 15.003906 118.59375 Z M 16.003906 118.648438 "/>
<path style=" stroke:none;fill-rule:evenodd;fill:rgb(0%,0%,0%);fill-opacity:1;" d="M 153.222656 226.800781 L 150.625 227.484375 L 150.785156 223.066406 Z M 151.304688 220.238281 L 148.871094 220.878906 L 148.25 232.308594 L 150.472656 231.722656 L 150.554688 229.46875 L 154.320312 228.476562 L 155.5625 230.378906 L 157.824219 229.785156 Z M 165.703125 215.089844 L 167.445312 214.363281 L 171.632812 224.417969 L 169.628906 225.253906 L 167.011719 218.972656 L 166.15625 223.03125 L 165.851562 223.160156 L 162.367188 220.910156 L 164.980469 227.1875 L 162.976562 228.023438 L 158.792969 217.96875 L 160.535156 217.242188 L 164.671875 219.894531 Z M 178.277344 211.621094 C 176.828125 211.644531 176.042969 211.785156 175.398438 212.152344 C 174.722656 212.542969 174.464844 213.097656 174.738281 213.566406 C 175.558594 214.996094 179.167969 212.382812 181.0625 215.675781 C 182.109375 217.488281 181.496094 219.242188 179.808594 220.210938 C 178.492188 220.96875 177.589844 220.914062 176.558594 220.863281 L 175.390625 218.828125 C 176.992188 219.105469 177.839844 219.039062 178.671875 218.5625 C 179.394531 218.148438 179.59375 217.609375 179.277344 217.054688 C 178.386719 215.503906 174.867188 218.28125 172.917969 214.890625 C 171.976562 213.257812 172.488281 211.527344 174.238281 210.519531 C 175.078125 210.039062 175.972656 209.820312 177.21875 209.785156 Z M 188.488281 203.433594 L 185.953125 205.316406 L 191.257812 212.453125 L 189.515625 213.75 L 184.207031 206.609375 L 181.679688 208.492188 L 180.484375 206.886719 L 187.296875 201.828125 Z M 202.742188 202.46875 L 198.074219 206.886719 L 190.589844 198.972656 L 195.195312 194.617188 L 196.566406 196.070312 L 193.539062 198.929688 L 195.109375 200.589844 L 197.996094 197.859375 L 199.367188 199.3125 L 196.480469 202.039062 L 198.28125 203.945312 L 201.371094 201.019531 Z M 201.402344 190.757812 L 202.109375 189.917969 C 202.636719 189.292969 203.222656 189.234375 203.847656 189.757812 C 204.558594 190.355469 204.425781 191.011719 204.039062 191.46875 L 203.300781 192.351562 Z M 198.476562 191.140625 L 206.824219 198.140625 L 208.21875 196.476562 L 204.832031 193.632812 L 205.230469 193.152344 C 205.988281 192.253906 207.8125 193.332031 210.195312 194.117188 L 211.734375 192.289062 C 208.5 191.175781 207.300781 190.519531 206.296875 190.84375 C 206.496094 189.710938 206.132812 188.753906 205.214844 187.984375 C 203.964844 186.9375 202.136719 186.785156 200.984375 188.15625 Z M 208.613281 181.324219 L 209.367188 180.152344 C 210.484375 178.421875 212.25 178.605469 213.816406 179.621094 C 215.160156 180.484375 216.363281 182.035156 215.179688 183.871094 L 214.410156 185.0625 Z M 205.757812 182.066406 L 214.910156 187.972656 L 216.863281 184.945312 C 218.746094 182.023438 217.675781 179.445312 215.042969 177.75 C 212.535156 176.128906 209.570312 176.160156 207.84375 178.832031 Z M 220.78125 169.578125 L 219.617188 171.996094 L 216.359375 169.011719 Z M 214.542969 166.777344 L 213.453125 169.046875 L 221.746094 176.933594 L 222.742188 174.859375 L 221.082031 173.339844 L 222.769531 169.828125 L 225.023438 170.117188 L 226.035156 168.007812 Z M 219.964844 152.46875 L 220.542969 150.667969 L 230.914062 154 L 230.25 156.066406 L 223.769531 153.988281 L 226.304688 157.269531 L 226.203125 157.585938 L 222.230469 158.777344 L 228.707031 160.859375 L 228.042969 162.925781 L 217.675781 159.597656 L 218.253906 157.796875 L 222.957031 156.367188 Z M 18.347656 95.289062 L 29.941406 94.285156 L 27.71875 102.449219 Z M 36.679688 109.410156 L 31.917969 105.738281 L 35.164062 93.816406 L 41.066406 93.304688 L 43.066406 85.96875 L 12.496094 89.214844 L 10.320312 97.199219 L 34.671875 116.785156 Z M 49.652344 81.460938 C 50.621094 79.992188 51 78.820312 50.789062 77.933594 C 50.578125 77.050781 49.523438 75.941406 47.628906 74.601562 L 26.632812 59.753906 L 30.78125 53.890625 L 51.980469 68.882812 C 55.261719 71.203125 57.171875 73.382812 57.707031 75.417969 C 58.246094 77.457031 57.585938 79.867188 55.730469 82.65625 Z M 59.605469 35.605469 L 69.324219 42.019531 L 62.539062 47.039062 Z M 65.257812 58.046875 L 63.78125 52.195312 L 73.695312 44.867188 L 78.65625 48.144531 L 84.753906 43.636719 L 58.78125 27.238281 L 52.140625 32.148438 L 59.117188 62.585938 Z M 89.105469 41.476562 L 97.625 24.351562 L 83.515625 13.375 L 92.304688 11.402344 L 100.816406 18.09375 L 105.6875 8.398438 L 114.4375 6.433594 L 106.277344 22.324219 L 121.730469 34.152344 L 112.742188 36.171875 L 103.203125 28.722656 L 97.804688 39.523438 Z M 89.105469 41.476562 "/>
<path style=" stroke:none;fill-rule:nonzero;fill:rgb(0%,0%,0%);fill-opacity:1;" d="M 92.722656 193.734375 C 92.757812 193.742188 104.714844 195.644531 106.1875 211.65625 C 106.277344 212.652344 106.367188 213.644531 104.386719 213.824219 C 102.40625 214.003906 102.316406 213.011719 102.226562 212.015625 C 101.035156 199.085938 92.09375 197.667969 92.066406 197.664062 C 91.082031 197.496094 90.097656 197.328125 90.425781 195.367188 C 90.753906 193.402344 91.738281 193.570312 92.722656 193.734375 Z M 51.550781 169.796875 C 51.585938 169.789062 63.953125 166.832031 91.445312 178.867188 C 91.90625 179.035156 96.851562 180.769531 100.453125 181.289062 C 100.375 181.046875 100.097656 180.605469 99.300781 179.808594 C 98.597656 179.105469 97.890625 178.398438 99.300781 176.988281 C 100.710938 175.578125 101.417969 176.28125 102.125 176.988281 C 107.867188 182.730469 102.023438 185.207031 102.007812 185.214844 L 101.046875 185.386719 C 96.839844 185.035156 90.074219 182.605469 90.050781 182.601562 L 89.933594 182.550781 C 63.589844 171.007812 52.421875 173.6875 52.390625 173.695312 C 51.417969 173.910156 50.441406 174.121094 50.019531 172.171875 C 49.601562 170.222656 50.574219 170.011719 51.550781 169.796875 Z M 125.761719 159.277344 C 125.753906 159.304688 123.359375 168.363281 121.058594 172.261719 L 120.949219 172.425781 C 120.941406 172.441406 116.976562 177.824219 121.554688 175.324219 L 121.796875 175.207031 C 121.816406 175.199219 128.324219 172.625 132.578125 172.097656 C 133.570312 171.972656 134.554688 171.847656 134.800781 173.828125 C 135.042969 175.808594 134.050781 175.929688 133.0625 176.054688 C 129.585938 176.492188 124.066406 178.605469 123.304688 178.898438 C 103.949219 189.417969 116.609375 171.628906 117.667969 170.164062 C 119.679688 166.703125 121.902344 158.289062 121.910156 158.265625 C 122.167969 157.300781 122.425781 156.335938 124.351562 156.839844 C 126.273438 157.347656 126.019531 158.3125 125.761719 159.277344 Z M 167.425781 164.257812 C 167.410156 164.257812 162.632812 164.621094 162.597656 168.871094 C 162.617188 169.171875 162.910156 172.410156 167.253906 172.410156 L 167.808594 172.496094 C 167.816406 172.496094 170.703125 173.445312 172.710938 168.058594 C 173.058594 167.121094 173.40625 166.1875 175.269531 166.878906 C 177.132812 167.574219 176.785156 168.511719 176.4375 169.445312 C 173.574219 177.140625 168.417969 176.675781 167.042969 176.398438 C 158.828125 176.277344 158.601562 169.007812 158.601562 168.988281 L 158.601562 168.917969 C 158.601562 160.898438 167.058594 160.265625 167.082031 160.265625 C 168.074219 160.179688 169.070312 160.085938 169.242188 162.085938 C 169.414062 164.082031 168.417969 164.171875 167.425781 164.257812 Z M 132.257812 215.054688 C 132.273438 214.992188 138.875 194.179688 150.808594 181.050781 L 150.894531 180.964844 C 150.921875 180.9375 161.429688 170.453125 161.429688 189.046875 C 161.429688 190.042969 161.429688 191.042969 159.433594 191.042969 C 157.4375 191.042969 157.4375 190.042969 157.4375 189.046875 C 157.4375 180.71875 154.234375 183.300781 153.734375 183.757812 C 142.394531 196.25 136.066406 216.210938 136.042969 216.269531 C 135.742188 217.21875 135.433594 218.171875 133.539062 217.5625 C 131.644531 216.953125 131.949219 216.003906 132.257812 215.054688 Z M 153.695312 183.789062 L 153.667969 183.816406 Z M 153.695312 183.789062 "/>
<path style=" stroke:none;fill-rule:nonzero;fill:rgb(0%,0%,0%);fill-opacity:1;" d="M 161.429688 189.046875 L 161.429688 200.027344 C 161.429688 201.023438 161.429688 202.023438 159.433594 202.023438 C 157.4375 202.023438 157.4375 201.023438 157.4375 200.027344 L 157.4375 189.046875 C 157.4375 188.046875 157.4375 187.050781 159.433594 187.050781 C 161.429688 187.050781 161.429688 188.046875 161.429688 189.046875 Z M 161.429688 189.046875 "/>
<path style=" stroke:none;fill-rule:nonzero;fill:rgb(0%,0%,0%);fill-opacity:1;" d="M 161.429688 199.960938 C 161.429688 199.96875 161.480469 201.476562 161.59375 201.371094 L 161.640625 201.332031 C 161.652344 201.324219 164.855469 198.683594 166.105469 186.679688 L 166.144531 186.441406 C 166.152344 186.40625 168.871094 174.324219 178.226562 185.894531 C 178.839844 186.523438 184.242188 191.921875 184.539062 187.316406 C 183.894531 185.390625 180.890625 176.386719 180.269531 174.640625 C 179.644531 173.550781 175.917969 166.304688 187.515625 166.089844 L 187.65625 166.089844 C 187.675781 166.09375 194.902344 166.433594 202.53125 169.207031 C 203.46875 169.550781 204.410156 169.890625 203.730469 171.761719 C 203.050781 173.632812 202.113281 173.292969 201.175781 172.953125 C 194.503906 170.527344 188.109375 170.121094 187.488281 170.085938 C 182.15625 170.210938 183.761719 172.699219 183.765625 172.707031 L 183.921875 173.046875 C 184.484375 174.550781 188.425781 186.382812 188.4375 186.417969 L 188.546875 187.082031 C 188.300781 202.285156 175.335938 188.636719 175.300781 188.597656 L 175.179688 188.464844 C 171.308594 183.648438 170.207031 186.679688 170.046875 187.246094 C 168.613281 200.726562 164.222656 204.363281 164.210938 204.375 L 164.257812 204.335938 C 157.71875 210.222656 157.4375 200.117188 157.433594 200.089844 C 157.402344 199.09375 157.367188 198.09375 159.363281 198.035156 C 161.363281 197.96875 161.398438 198.964844 161.429688 199.960938 Z M 170.027344 187.320312 L 170.027344 187.328125 Z M 78.585938 136.808594 L 84.410156 136.808594 C 85.410156 136.808594 86.40625 136.808594 86.40625 138.804688 C 86.40625 140.800781 85.410156 140.800781 84.410156 140.800781 L 78.585938 140.800781 C 77.589844 140.800781 76.589844 140.800781 76.589844 138.804688 C 76.589844 136.808594 77.589844 136.808594 78.585938 136.808594 Z M 78.585938 136.808594 "/>
<path style=" stroke:none;fill-rule:nonzero;fill:rgb(0%,0%,0%);fill-opacity:1;" d="M 82.917969 139.890625 C 82.90625 139.90625 79.367188 145.375 78.117188 146.75 C 77.707031 147.371094 75.816406 150.6875 79.496094 153.90625 C 80.648438 154.453125 83.757812 156.328125 85.652344 161.238281 C 85.953125 161.523438 86.949219 162.265625 89.625 162.800781 L 90.207031 163.019531 C 90.214844 163.023438 93.160156 164.6875 97.890625 162.609375 C 98.5625 162.269531 101.253906 161.023438 106.65625 159.972656 L 107.15625 159.933594 C 107.167969 159.9375 111.375 160.285156 112.054688 156.429688 L 112.179688 156.019531 C 112.191406 155.996094 115.46875 148.0625 117.664062 145.5 L 117.929688 145.234375 C 117.9375 145.230469 120.496094 143.296875 118.878906 134.015625 C 118.789062 133.636719 118.21875 131.445312 116.726562 130.183594 L 116.742188 130.195312 C 115.8125 129.457031 112.851562 126.351562 116.742188 118.925781 C 117.207031 118.042969 117.667969 117.160156 119.4375 118.078125 C 121.207031 118.996094 120.746094 119.882812 120.28125 120.765625 C 117.5 126.074219 119.023438 126.945312 119.027344 126.945312 L 119.300781 127.140625 C 121.988281 129.417969 122.789062 133.222656 122.789062 133.230469 L 122.804688 133.308594 C 124.597656 143.570312 121.402344 147.417969 120.601562 148.199219 C 118.972656 150.203125 116.433594 156.164062 115.945312 157.332031 C 114.667969 163.804688 108.460938 163.976562 107.152344 163.941406 C 101.6875 165.027344 99.71875 166.148438 99.714844 166.152344 L 99.519531 166.253906 C 93.992188 168.691406 89.804688 167.207031 88.609375 166.667969 C 83.855469 165.65625 82.285156 163.417969 82.28125 163.410156 L 82.039062 162.945312 C 80.375 158.367188 77.804688 157.511719 77.796875 157.507812 L 77.152344 157.148438 C 69.867188 151.113281 74.976562 144.300781 74.992188 144.28125 L 75.179688 144.054688 C 76.042969 143.1875 79.570312 137.742188 79.578125 137.726562 C 80.125 136.890625 80.667969 136.050781 82.335938 137.136719 C 84.003906 138.21875 83.460938 139.054688 82.917969 139.890625 Z M 118.886719 134.046875 L 118.890625 134.074219 Z M 116.996094 130.371094 L 117 130.375 Z M 116.996094 130.371094 "/>
<path style=" stroke:none;fill-rule:nonzero;fill:rgb(0%,0%,0%);fill-opacity:1;" d="M 117.34375 121.457031 L 110.246094 116.296875 L 111.492188 124.195312 C 111.648438 125.179688 111.804688 126.167969 109.839844 126.472656 C 107.875 126.777344 107.71875 125.792969 107.566406 124.804688 L 105.570312 112.160156 L 108.703125 110.242188 L 119.683594 118.226562 C 120.492188 118.816406 121.296875 119.402344 120.128906 121.015625 C 118.957031 122.632812 118.148438 122.042969 117.34375 121.457031 Z M 117.34375 121.457031 "/>
<path style=" stroke:none;fill-rule:nonzero;fill:rgb(0%,0%,0%);fill-opacity:1;" d="M 110.753906 126.070312 C 110.746094 126.074219 107.402344 128.71875 107.011719 131.585938 L 106.875 132.597656 L 105.984375 133.078125 C 105.96875 133.082031 101.699219 135.394531 96.382812 136.28125 C 95.398438 136.441406 94.414062 136.609375 94.085938 134.644531 C 93.757812 132.679688 94.742188 132.511719 95.726562 132.347656 C 99.097656 131.789062 101.964844 130.585938 103.296875 129.960938 C 104.410156 126.019531 108.292969 122.941406 108.304688 122.933594 C 109.089844 122.316406 109.878906 121.703125 111.101562 123.269531 C 112.328125 124.839844 111.539062 125.457031 110.753906 126.070312 Z M 81.292969 109.894531 C 81.277344 109.921875 75.542969 119.425781 74.945312 120.917969 L 74.664062 121.410156 C 74.660156 121.414062 73.035156 123.484375 75.128906 123.875 L 75.648438 124.046875 C 75.652344 124.046875 76.558594 124.5 78.085938 124.5 C 79.085938 124.5 80.082031 124.5 80.082031 126.496094 C 80.082031 128.492188 79.085938 128.492188 78.085938 128.492188 C 76.738281 128.496094 75.402344 128.238281 74.148438 127.738281 C 66.796875 126.214844 70.515625 120.367188 71.367188 119.164062 C 72.46875 116.796875 77.859375 107.859375 77.878906 107.835938 C 78.390625 106.980469 78.90625 106.125 80.613281 107.152344 C 82.320312 108.183594 81.808594 109.039062 81.292969 109.894531 Z M 73.875 127.617188 L 73.871094 127.617188 Z M 89.558594 101.699219 C 89.550781 101.707031 87.125 104.4375 88.332031 104.535156 C 89.539062 104.417969 96.71875 103.953125 96.71875 109.863281 L 96.71875 109.699219 C 96.722656 109.71875 97.507812 117.148438 89.417969 115.125 L 88.753906 114.828125 C 88.753906 114.824219 88.128906 114.371094 88.402344 119.410156 C 88.457031 120.40625 88.511719 121.402344 86.515625 121.503906 C 84.515625 121.605469 84.464844 120.609375 84.410156 119.613281 C 83.785156 108.15625 89.175781 110.46875 90.667969 111.320312 C 92.917969 111.75 92.726562 110.03125 92.726562 110.027344 L 92.726562 109.863281 C 92.726562 107.988281 88.652344 108.515625 88.644531 108.515625 L 88.402344 108.53125 C 78.128906 108.53125 86.554688 99.089844 86.578125 99.0625 C 87.242188 98.316406 87.902344 97.570312 89.394531 98.886719 C 90.882812 100.203125 90.21875 100.953125 89.558594 101.699219 Z M 89.558594 101.699219 "/>
<path style=" stroke:none;fill-rule:nonzero;fill:rgb(0%,0%,0%);fill-opacity:1;" d="M 88.402344 119.511719 L 88.402344 127.828125 C 88.402344 128.828125 88.402344 129.824219 86.40625 129.824219 C 84.410156 129.824219 84.410156 128.824219 84.410156 127.828125 L 84.410156 119.511719 C 84.410156 118.511719 84.410156 117.515625 86.40625 117.515625 C 88.402344 117.515625 88.402344 118.511719 88.402344 119.511719 Z M 88.402344 119.511719 "/>
<path style=" stroke:none;fill-rule:nonzero;fill:rgb(0%,0%,0%);fill-opacity:1;" d="M 87.902344 126.519531 C 87.925781 126.542969 96 135.695312 83.992188 135.148438 C 82.992188 135.101562 81.996094 135.058594 82.082031 133.0625 C 82.167969 131.066406 83.164062 131.109375 84.160156 131.152344 C 86.792969 131.273438 84.914062 129.140625 84.90625 129.136719 C 84.25 128.386719 83.589844 127.636719 85.089844 126.328125 C 86.585938 125.019531 87.246094 125.769531 87.902344 126.519531 Z M 87.902344 126.519531 "/>
<path style=" stroke:none;fill-rule:nonzero;fill:rgb(0%,0%,0%);fill-opacity:1;" d="M 83.8125 135.125 L 78.988281 134.460938 C 78 134.324219 77.011719 134.1875 77.277344 132.214844 C 77.542969 130.242188 78.53125 130.378906 79.519531 130.511719 L 84.34375 131.179688 C 85.332031 131.316406 86.320312 131.449219 86.054688 133.425781 C 85.789062 135.398438 84.800781 135.261719 83.8125 135.125 Z M 77.96875 99.914062 C 77.960938 99.90625 74.613281 96.394531 74.140625 95.445312 C 74.007812 95.1875 73.894531 94.917969 73.796875 94.640625 C 72.828125 93.210938 69.199219 86.957031 80.9375 88.085938 L 81.316406 88.15625 C 81.40625 88.183594 112.0625 96.941406 159.839844 144.21875 L 159.824219 144.199219 C 159.84375 144.222656 166.765625 150.890625 157.332031 153.695312 L 157.179688 153.730469 C 157.164062 153.734375 153.183594 154.488281 153.53125 158.660156 C 154.582031 160.167969 156.460938 164.183594 148.613281 166.191406 L 148.449219 166.222656 C 148.433594 166.226562 143.359375 167.023438 141.144531 168.058594 L 140.648438 168.222656 C 140.628906 168.222656 134.808594 169.355469 135.480469 159.300781 L 135.582031 158.8125 C 135.582031 158.800781 136.914062 154.8125 134.894531 152.160156 C 134.300781 151.378906 133.394531 151.1875 132.585938 151.019531 C 129.855469 150.445312 127.644531 149.976562 128.160156 144.117188 C 128.160156 143.941406 128.191406 141.683594 128.972656 139.730469 C 129.34375 138.804688 129.714844 137.875 131.5625 138.617188 C 133.410156 139.359375 133.042969 140.285156 132.671875 141.210938 C 132.15625 142.503906 132.152344 144.125 132.152344 144.132812 L 132.136719 144.320312 C 131.902344 146.808594 132.570312 146.945312 133.398438 147.121094 C 134.894531 147.433594 136.574219 147.792969 138.0625 149.742188 C 140.929688 153.507812 139.8125 158.496094 139.460938 159.757812 C 139.226562 163.523438 139.683594 164.167969 139.878906 164.273438 C 142.507812 163.179688 146.9375 162.433594 147.6875 162.3125 C 150.832031 161.496094 150.167969 160.800781 150.167969 160.800781 L 149.644531 159.730469 C 148.4375 151.875 155.378906 150.054688 156.273438 149.855469 C 159.058594 148.988281 157.058594 147.058594 157.050781 147.054688 L 157.035156 147.039062 C 111.933594 102.414062 82.757812 92.769531 80.347656 92.027344 C 76.503906 91.6875 77.183594 92.523438 77.183594 92.523438 L 77.589844 93.726562 C 77.589844 93.726562 77.589844 93.425781 77.710938 93.667969 C 77.902344 94.050781 80.859375 97.175781 80.867188 97.183594 C 81.550781 97.914062 82.238281 98.640625 80.789062 100.003906 C 79.335938 101.367188 78.652344 100.640625 77.96875 99.914062 Z M 73.597656 93.726562 Z M 89.335938 82.746094 C 89.355469 82.746094 96.382812 82.75 112.976562 71.96875 L 112.917969 72.007812 C 112.972656 71.96875 132.515625 58.171875 148.109375 58.042969 L 148.175781 58.042969 C 148.210938 58.042969 159.234375 58.304688 166.59375 63.390625 C 167.417969 63.960938 168.238281 64.527344 167.109375 66.164062 C 165.976562 67.800781 165.15625 67.234375 164.335938 66.667969 C 158.125 62.375 148.5625 62.050781 148.089844 62.035156 C 133.742188 62.183594 115.261719 75.230469 115.210938 75.265625 L 115.148438 75.304688 C 97.558594 86.734375 89.40625 86.738281 89.382812 86.738281 C 88.386719 86.75 87.386719 86.765625 87.363281 84.765625 C 87.339844 82.773438 88.339844 82.757812 89.335938 82.746094 Z M 185.179688 86.957031 C 185.179688 86.9375 184.964844 79.824219 175.445312 73.285156 C 174.621094 72.722656 173.800781 72.15625 174.925781 70.511719 C 176.046875 68.867188 176.871094 69.429688 177.695312 69.996094 C 188.886719 77.683594 189.171875 86.742188 189.171875 86.769531 C 189.21875 87.765625 189.269531 88.765625 187.273438 88.855469 C 185.277344 88.949219 185.226562 87.953125 185.179688 86.957031 Z M 185.179688 86.957031 "/>
<path style=" stroke:none;fill-rule:nonzero;fill:rgb(0%,0%,0%);fill-opacity:1;" d="M 174.574219 71.640625 L 174.574219 55.921875 C 174.574219 54.921875 174.574219 53.925781 176.570312 53.925781 C 178.566406 53.925781 178.566406 54.925781 178.566406 55.921875 L 178.566406 71.640625 C 178.566406 72.640625 178.566406 73.636719 176.570312 73.636719 C 174.574219 73.636719 174.574219 72.640625 174.574219 71.640625 Z M 174.574219 71.640625 "/>
<path style=" stroke:none;fill-rule:nonzero;fill:rgb(0%,0%,0%);fill-opacity:1;" d="M 176.964844 53.972656 C 177.039062 53.988281 201.644531 58.648438 201.644531 90.230469 L 201.644531 90.207031 C 201.648438 90.328125 202.699219 132.277344 163.46875 132.277344 L 163.613281 132.277344 C 163.5625 132.28125 145.613281 133.898438 136.683594 113.101562 L 136.617188 112.921875 C 136.605469 112.882812 132.0625 98.484375 124.441406 98.589844 L 123.996094 98.542969 C 123.988281 98.542969 121.789062 98.007812 118.558594 100.632812 C 117.785156 101.261719 117.011719 101.890625 115.753906 100.347656 C 114.5 98.804688 115.273438 98.175781 116.050781 97.546875 C 120.09375 94.257812 123.613281 94.464844 124.578125 94.601562 C 134.480469 94.652344 139.800781 109.871094 140.359375 111.554688 C 148.152344 129.65625 163.277344 128.289062 163.320312 128.285156 L 163.46875 128.285156 C 198.601562 128.285156 197.65625 90.363281 197.652344 90.253906 L 197.652344 90.230469 C 197.652344 61.929688 176.230469 57.882812 176.167969 57.871094 C 175.191406 57.671875 174.214844 57.46875 174.613281 55.519531 C 175.011719 53.570312 175.988281 53.769531 176.964844 53.972656 Z M 140.40625 111.6875 L 140.410156 111.707031 Z M 140.40625 111.6875 "/>
</g>
</svg>
