<?xml version="1.0" encoding="UTF-8"?>
<svg xmlns="http://www.w3.org/2000/svg" xmlns:xlink="http://www.w3.org/1999/xlink" width="357px" height="420px" viewBox="0 0 357 420" version="1.1">
<g id="surface1">
<path style="fill-rule:nonzero;fill:rgb(61.176471%,50.980392%,29.019608%);fill-opacity:1;stroke-width:0.793;stroke-linecap:butt;stroke-linejoin:miter;stroke:rgb(61.176471%,50.980392%,29.019608%);stroke-opacity:1;stroke-miterlimit:282;" d="M 161.3965 0.397435 C 122.96061 0.397435 52.088104 10.339935 15.995351 31.326843 C -31.526 199.804725 33.102362 314.369347 161.3965 379.394565 C 289.690638 314.369347 354.319 199.234773 306.797649 31.331065 C 270.666899 10.339935 199.83239 0.397435 161.3965 0.397435 Z M 161.3965 0.397435 " transform="matrix(0.925242,0,0,0.925242,29.169179,34.300245)"/>
<path style="fill-rule:nonzero;fill:rgb(0.784314%,20.392157%,45.490196%);fill-opacity:1;stroke-width:0.793;stroke-linecap:butt;stroke-linejoin:miter;stroke:rgb(0.784314%,20.392157%,45.490196%);stroke-opacity:1;stroke-miterlimit:282;" d="M 161.3965 11.226528 C 123.636109 11.226528 81.117672 16.056345 25.435449 38.786885 C -16.019077 185.847228 32.072226 303.717573 161.3965 367.961745 C 290.720774 303.717573 338.77408 185.847228 297.323776 38.786885 C 241.637331 16.056345 199.156891 11.226528 161.3965 11.226528 Z M 161.3965 11.226528 " transform="matrix(0.925242,0,0,0.925242,29.169179,34.300245)"/>
<path style="fill-rule:nonzero;fill:rgb(100%,100%,100%);fill-opacity:1;stroke-width:0.793;stroke-linecap:butt;stroke-linejoin:miter;stroke:rgb(100%,100%,100%);stroke-opacity:1;stroke-miterlimit:282;" d="M 161.219182 11.087206 C 123.636109 11.087206 83.28349 16.660073 46.869875 30.440251 C 9.109484 181.017411 36.969593 290.96753 161.430275 367.851976 Z M 161.430275 367.851976 C 285.895178 290.96753 313.717291 181.017411 275.9569 30.440251 C 239.543285 16.660073 199.228663 11.087206 161.64559 11.087206 Z M 161.430275 367.851976 " transform="matrix(0.925242,0,0,0.925242,29.169179,34.300245)"/>
<path style="fill-rule:nonzero;fill:rgb(93.72549%,0.392157%,2.745098%);fill-opacity:1;stroke-width:0.793;stroke-linecap:butt;stroke-linejoin:miter;stroke:rgb(93.72549%,0.392157%,2.745098%);stroke-opacity:1;stroke-miterlimit:282;" d="M 161.430275 11.049209 C 123.636109 11.049209 85.377537 16.769841 54.287698 27.598934 C 15.176309 185.420819 46.58701 291.997666 161.468272 364.83334 Z M 161.430275 11.049209 " transform="matrix(0.925242,0,0,0.925242,29.169179,34.300245)"/>
<path style="fill-rule:nonzero;fill:rgb(85.882353%,0%,2.745098%);fill-opacity:1;stroke-width:0.793;stroke-linecap:butt;stroke-linejoin:miter;stroke:rgb(85.882353%,0%,2.745098%);stroke-opacity:1;stroke-miterlimit:282;" d="M 161.502047 11.049209 C 199.300435 11.049209 237.559007 16.769841 268.682621 27.598934 C 307.79401 185.420819 276.383309 291.997666 161.468272 364.83334 Z M 161.502047 11.049209 " transform="matrix(0.925242,0,0,0.925242,29.169179,34.300245)"/>
<path style=" stroke:none;fill-rule:nonzero;fill:rgb(100%,100%,100%);fill-opacity:1;" d="M 133.347656 264.875 C 117.917969 275.457031 105.636719 279.265625 91.382812 283.046875 L 82.78125 269.671875 C 95.882812 263.035156 109.445312 253.800781 123.105469 240.429688 C 124.253906 253.40625 130.296875 262.605469 133.347656 264.875 Z M 133.347656 264.875 "/>
<path style=" stroke:none;fill-rule:nonzero;fill:rgb(61.176471%,50.980392%,29.019608%);fill-opacity:1;" d="M 131.246094 264.316406 C 116.601562 274.367188 96.210938 281.367188 72.863281 284.785156 L 68.101562 277.558594 C 88.101562 270.0625 107.40625 258.894531 122.382812 243.1875 C 124.648438 253.242188 128.09375 259.914062 131.246094 264.316406 Z M 131.246094 264.316406 "/>
<path style=" stroke:none;fill-rule:nonzero;fill:rgb(100%,100%,100%);fill-opacity:1;" d="M 92.238281 202.902344 C 92.238281 208.519531 87.707031 213.054688 82.09375 213.054688 C 76.476562 213.054688 71.914062 208.519531 71.914062 202.902344 C 71.914062 197.285156 76.476562 192.75 82.09375 192.75 C 87.707031 192.75 92.238281 197.285156 92.238281 202.902344 Z M 92.238281 202.902344 "/>
<path style=" stroke:none;fill-rule:nonzero;fill:rgb(100%,100%,100%);fill-opacity:1;" d="M 91.152344 182.890625 L 91.152344 221.203125 L 121.332031 221.203125 C 123.300781 208.355469 130.589844 194.71875 147.105469 182.890625 Z M 91.152344 182.890625 "/>
<path style=" stroke:none;fill-rule:nonzero;fill:rgb(100%,100%,100%);fill-opacity:1;" d="M 92.371094 221.203125 C 85.636719 221.304688 80.089844 212.859375 79.988281 202.277344 C 79.925781 191.695312 85.308594 183.023438 92.074219 182.890625 L 92.304688 182.890625 "/>
<path style=" stroke:none;fill-rule:nonzero;fill:rgb(61.176471%,50.980392%,29.019608%);fill-opacity:1;" d="M 87.96875 202.902344 C 87.96875 207.238281 84.816406 210.722656 80.941406 210.722656 C 77.066406 210.722656 73.914062 207.242188 73.914062 202.902344 C 73.914062 198.566406 77.066406 195.082031 80.941406 195.082031 C 84.816406 195.082031 87.96875 198.566406 87.96875 202.902344 Z M 91.976562 184.894531 L 91.976562 219.332031 L 121.921875 219.332031 C 124.285156 207.898438 130.097656 195.738281 144.613281 184.894531 Z M 91.976562 184.894531 "/>
<path style=" stroke:none;fill-rule:nonzero;fill:rgb(61.176471%,50.980392%,29.019608%);fill-opacity:1;" d="M 93.089844 219.332031 C 86.753906 219.464844 81.566406 211.839844 81.46875 202.34375 C 81.402344 192.847656 86.492188 185.027344 92.828125 184.894531 L 93.027344 184.894531 "/>
<path style=" stroke:none;fill-rule:nonzero;fill:rgb(100%,100%,100%);fill-opacity:1;" d="M 235.800781 230.175781 C 235.800781 262.148438 209.925781 288.039062 177.972656 288.039062 C 146.058594 288.039062 120.148438 262.148438 120.148438 230.175781 C 120.148438 198.203125 146.058594 172.3125 177.972656 172.3125 C 209.925781 172.3125 235.800781 198.203125 235.800781 230.175781 Z M 235.800781 230.175781 "/>
<path style=" stroke:none;fill-rule:nonzero;fill:rgb(61.176471%,50.980392%,29.019608%);fill-opacity:1;" d="M 232.78125 230.175781 C 232.78125 260.472656 208.25 285.015625 177.976562 285.015625 C 147.734375 285.015625 123.203125 260.472656 123.203125 230.175781 C 123.203125 199.914062 147.734375 175.335938 177.976562 175.335938 C 208.25 175.332031 232.78125 199.878906 232.78125 230.175781 Z M 232.78125 230.175781 "/>
<path style=" stroke:none;fill-rule:nonzero;fill:rgb(100%,100%,100%);fill-opacity:1;" d="M 223.683594 230.175781 C 223.683594 255.441406 203.226562 275.914062 177.972656 275.914062 C 152.753906 275.914062 132.296875 255.441406 132.296875 230.175781 C 132.296875 204.90625 152.753906 184.4375 177.972656 184.4375 C 203.226562 184.4375 223.683594 204.90625 223.683594 230.175781 Z M 223.683594 230.175781 "/>
<path style=" stroke:none;fill-rule:nonzero;fill:rgb(61.176471%,50.980392%,29.019608%);fill-opacity:1;" d="M 220.664062 230.175781 C 220.664062 253.765625 201.550781 272.859375 177.972656 272.859375 C 154.429688 272.859375 135.320312 253.765625 135.320312 230.175781 C 135.320312 206.582031 154.429688 187.492188 177.972656 187.492188 C 201.550781 187.492188 220.664062 206.582031 220.664062 230.175781 Z M 220.664062 230.175781 "/>
<path style=" stroke:none;fill-rule:nonzero;fill:rgb(100%,100%,100%);fill-opacity:1;" d="M 195.769531 230.175781 C 195.804688 240 187.824219 247.984375 178.007812 248.015625 C 168.15625 248.015625 160.175781 240.035156 160.175781 230.207031 L 160.175781 230.175781 C 160.175781 220.351562 168.121094 212.367188 177.972656 212.367188 C 187.789062 212.332031 195.769531 220.316406 195.769531 230.140625 Z M 195.769531 230.175781 "/>
<path style=" stroke:none;fill-rule:nonzero;fill:rgb(61.176471%,50.980392%,29.019608%);fill-opacity:1;" d="M 193.671875 230.175781 C 193.671875 238.851562 186.675781 245.882812 178.007812 245.882812 C 169.339844 245.882812 162.3125 238.882812 162.277344 230.210938 L 162.277344 230.175781 C 162.277344 221.5 169.304688 214.46875 177.972656 214.46875 C 186.644531 214.46875 193.671875 221.46875 193.671875 230.140625 Z M 193.671875 230.175781 "/>
<path style=" stroke:none;fill-rule:nonzero;fill:rgb(100%,100%,100%);fill-opacity:1;" d="M 186.050781 230.175781 C 186.050781 234.609375 182.441406 238.222656 177.976562 238.257812 C 173.542969 238.257812 169.929688 234.644531 169.929688 230.175781 C 169.929688 225.707031 173.542969 222.125 177.976562 222.09375 C 180.117188 222.09375 182.175781 222.945312 183.6875 224.460938 C 185.203125 225.976562 186.054688 228.03125 186.050781 230.175781 Z M 186.050781 230.175781 "/>
<path style=" stroke:none;fill-rule:nonzero;fill:rgb(61.176471%,50.980392%,29.019608%);fill-opacity:1;" d="M 183.820312 230.175781 C 183.824219 231.726562 183.207031 233.214844 182.109375 234.3125 C 181.015625 235.410156 179.527344 236.023438 177.976562 236.023438 C 176.421875 236.023438 174.933594 235.410156 173.839844 234.3125 C 172.742188 233.214844 172.128906 231.726562 172.128906 230.175781 C 172.128906 226.957031 174.757812 224.328125 177.976562 224.328125 C 179.527344 224.324219 181.015625 224.941406 182.109375 226.039062 C 183.207031 227.136719 183.824219 228.625 183.820312 230.175781 Z M 183.820312 230.175781 "/>
<path style=" stroke:none;fill-rule:nonzero;fill:rgb(100%,100%,100%);fill-opacity:1;" d="M 171.835938 186.507812 L 183.984375 186.507812 L 183.984375 214.863281 L 171.835938 214.863281 Z M 171.835938 186.507812 "/>
<path style=" stroke:none;fill-rule:nonzero;fill:rgb(61.176471%,50.980392%,29.019608%);fill-opacity:1;" d="M 173.738281 182.429688 L 182.109375 182.429688 L 182.109375 218.476562 L 173.738281 218.476562 Z M 173.738281 182.429688 "/>
<path style=" stroke:none;fill-rule:nonzero;fill:rgb(100%,100%,100%);fill-opacity:1;" d="M 211.828125 202.507812 L 218.460938 212.695312 L 194.6875 228.136719 L 188.089844 217.953125 Z M 211.828125 202.507812 "/>
<path style=" stroke:none;fill-rule:nonzero;fill:rgb(61.176471%,50.980392%,29.019608%);fill-opacity:1;" d="M 216.261719 201.882812 L 220.828125 208.914062 L 190.617188 228.566406 L 186.050781 221.5 Z M 216.261719 201.882812 "/>
<path style=" stroke:none;fill-rule:nonzero;fill:rgb(100%,100%,100%);fill-opacity:1;" d="M 160.933594 232.476562 L 167.433594 242.726562 L 143.496094 257.90625 L 136.992188 247.625 Z M 160.933594 232.476562 "/>
<path style=" stroke:none;fill-rule:nonzero;fill:rgb(61.176471%,50.980392%,29.019608%);fill-opacity:1;" d="M 165.003906 231.882812 L 169.503906 238.980469 L 139.097656 258.269531 L 134.597656 251.171875 Z M 165.003906 231.882812 "/>
<path style=" stroke:none;fill-rule:nonzero;fill:rgb(100%,100%,100%);fill-opacity:1;" d="M 171.835938 246.441406 L 183.984375 246.441406 L 183.984375 274.796875 L 171.835938 274.796875 Z M 171.835938 246.441406 "/>
<path style=" stroke:none;fill-rule:nonzero;fill:rgb(61.176471%,50.980392%,29.019608%);fill-opacity:1;" d="M 173.738281 242.398438 L 182.109375 242.398438 L 182.109375 278.410156 L 173.738281 278.410156 Z M 173.738281 242.398438 "/>
<path style="fill-rule:nonzero;fill:rgb(93.72549%,0.392157%,2.745098%);fill-opacity:1;stroke-width:0.311;stroke-linecap:butt;stroke-linejoin:miter;stroke:rgb(93.72549%,0.392157%,2.745098%);stroke-opacity:1;stroke-miterlimit:282;" d="M 148.017399 226.014084 C 149.790584 227.504404 151.741087 228.855402 154.193992 229.885538 L 154.122221 257.23058 C 141.735259 255.630492 132.366933 249.521448 125.269972 240.824399 L 148.051174 226.014084 " transform="matrix(0.925242,0,0,0.925242,29.169179,34.300245)"/>
<path style="fill-rule:nonzero;fill:rgb(85.882353%,0%,2.745098%);fill-opacity:1;stroke-width:0.311;stroke-linecap:butt;stroke-linejoin:miter;stroke:rgb(85.882353%,0%,2.745098%);stroke-opacity:1;stroke-miterlimit:282;" d="M 173.601922 226.119631 C 171.794962 227.576176 169.878234 228.960949 167.42955 229.953088 L 167.463325 257.302351 C 179.850287 255.702263 189.218613 249.59322 196.319796 240.891949 L 173.568147 226.119631 " transform="matrix(0.925242,0,0,0.925242,29.169179,34.300245)"/>
<path style=" stroke:none;fill-rule:nonzero;fill:rgb(85.882353%,0%,2.745098%);fill-opacity:1;" d="M 195.542969 232.902344 L 220.628906 229.878906 C 220.824219 236.152344 219.316406 241.675781 217.179688 246.964844 L 195.476562 232.902344 "/>
<path style="fill-rule:nonzero;fill:rgb(100%,100%,100%);fill-opacity:1;stroke-width:0.311;stroke-linecap:butt;stroke-linejoin:miter;stroke:rgb(100%,100%,100%);stroke-opacity:1;stroke-miterlimit:282;" d="M 179.850287 214.543268 C 179.955834 214.116859 179.922059 213.724225 180.099377 212.482996 L 206.861801 209.004177 C 206.967348 210.245406 206.895576 210.70559 206.861801 211.275542 Z M 179.850287 214.543268 " transform="matrix(0.925242,0,0,0.925242,29.169179,34.300245)"/>
<path style=" stroke:none;fill-rule:nonzero;fill:rgb(100%,100%,100%);fill-opacity:1;" d="M 232.222656 211.9375 L 264.695312 211.9375 C 263.679688 215.78125 262.691406 219.691406 258.03125 221.433594 C 250.574219 224.230469 235.109375 226.921875 235.109375 226.921875 C 234.8125 222.683594 233.863281 216.933594 232.222656 211.9375 Z M 232.222656 211.9375 "/>
<path style=" stroke:none;fill-rule:nonzero;fill:rgb(100%,100%,100%);fill-opacity:1;" d="M 209.597656 182.332031 L 294.445312 182.429688 L 291.457031 213.449219 L 233.5 216.472656 C 230.382812 202.605469 219.839844 189.367188 209.597656 182.332031 Z M 209.597656 182.332031 "/>
<path style=" stroke:none;fill-rule:nonzero;fill:rgb(61.176471%,50.980392%,29.019608%);fill-opacity:1;" d="M 212.617188 184.535156 L 320.945312 184.632812 L 316.808594 209.902344 L 232.746094 214.042969 C 229.429688 201.488281 221.84375 192.324219 212.617188 184.535156 Z M 212.617188 184.535156 "/>
<path style=" stroke:none;fill-rule:nonzero;fill:rgb(61.176471%,50.980392%,29.019608%);fill-opacity:1;" d="M 232.222656 211.9375 L 262.132812 211.9375 C 261.148438 215.355469 260.460938 218.476562 256.058594 220.019531 C 249.066406 222.519531 234.980469 224.488281 234.980469 224.488281 C 234.386719 220.382812 233.535156 216.210938 232.222656 211.9375 Z M 199.382812 137.285156 C 199.382812 138.664062 199.089844 142.445312 198.925781 143.496094 L 215.738281 143.496094 C 214.71875 139.023438 214.257812 132.816406 214.128906 128.019531 C 214.128906 128.347656 213.832031 118.390625 213.832031 118.390625 C 213.832031 117.699219 214.128906 116.648438 214.554688 116.320312 C 215.148438 115.628906 215.738281 115.628906 216.460938 115.628906 C 217.183594 115.300781 218.496094 115.300781 218.660156 118.027344 L 219.085938 128.347656 C 219.25 133.175781 219.25 139.714844 218.660156 143.496094 L 234.847656 143.496094 C 234.714844 142.113281 234.257812 138.664062 234.125 137.644531 C 236.160156 142.113281 240.5625 144.511719 246.40625 144.511719 C 249.886719 144.511719 252.546875 143.164062 254.582031 141.785156 C 254.582031 142.113281 255.4375 143.496094 255.4375 143.496094 L 285.515625 143.496094 C 284.203125 139.023438 283.347656 132.816406 282.890625 128.019531 L 278.652344 94.304688 L 263.1875 91.546875 C 264.5 96.015625 265.386719 102.550781 265.945312 107.023438 L 268.308594 128.707031 C 268.734375 132.488281 269.03125 136.628906 269.03125 141.09375 L 269.03125 141.425781 L 268.441406 140.042969 C 267.257812 137.285156 266.699219 133.867188 266.238281 128.707031 L 265.679688 121.808594 C 264.796875 110.800781 258.820312 106 245.652344 106 C 243.484375 106 237.933594 106.328125 234.550781 107.382812 L 235.4375 119.734375 L 238.953125 117.699219 C 241.875 115.957031 244.042969 115.265625 246.667969 115.265625 C 248.738281 115.265625 250.050781 115.957031 250.640625 117.339844 C 248.148438 117.699219 245.386719 118.390625 242.300781 119.734375 C 237.640625 121.804688 234.714844 124.925781 233.402344 128.34375 L 233.402344 128.015625 L 232.945312 116.648438 C 232.683594 109.417969 227.984375 104.621094 220.828125 104.621094 C 217.640625 104.621094 214.71875 105.640625 212.09375 107.378906 C 211.929688 107.019531 211.796875 106.6875 211.632812 106.328125 L 211.042969 104.949219 L 197.609375 104.257812 C 198.203125 106.6875 199.089844 113.558594 199.21875 115.957031 C 198.496094 112.539062 196.59375 108.761719 193.078125 106 C 190.320312 104.257812 186.808594 103.238281 183.164062 103.238281 C 178.203125 103.238281 173.082031 105.308594 169.730469 108.761719 C 166.21875 112.175781 164.476562 117.007812 164.3125 122.496094 C 163 121.113281 161.261719 119.769531 159.222656 119.078125 L 153.082031 115.957031 L 152.789062 115.957031 C 151.34375 115.265625 151.179688 114.9375 151.179688 114.609375 C 151.34375 113.917969 152.789062 113.226562 154.691406 113.226562 C 157.320312 113.226562 160.964844 114.609375 163.886719 116.316406 L 164.183594 105.308594 C 161.980469 104.257812 158.929688 103.601562 154.527344 103.601562 C 152.195312 103.601562 147.828125 103.929688 144.019531 106 C 143.070312 106.648438 142.152344 107.339844 141.261719 108.070312 L 141.394531 104.945312 C 137.878906 104.289062 134.105469 104.289062 129.441406 108.757812 C 129.277344 108.398438 128.980469 106.6875 128.683594 106 L 114.238281 106.6875 C 115.253906 110.796875 115.417969 116.644531 115.125 121.804688 L 114.828125 127.324219 L 114.828125 128.015625 C 114.664062 130.773438 114.535156 133.863281 114.238281 136.625 C 113.054688 132.8125 111.773438 127.652344 110.722656 123.546875 L 103.566406 91.214844 L 83.140625 94.300781 C 83.273438 94.628906 83.566406 95.683594 83.734375 96.699219 C 83.863281 98.082031 83.863281 100.839844 81.960938 106.6875 C 78.609375 115.957031 73.945312 130.085938 69.417969 140.039062 C 68.824219 141.421875 67.644531 143.492188 67.644531 143.492188 L 83.570312 143.492188 C 83.863281 141.089844 84.882812 136.953125 85.902344 133.863281 C 88.101562 133.863281 93.78125 133.863281 96.40625 133.5 C 97 135.933594 97.589844 139.019531 97.753906 141.089844 L 98.015625 143.488281 L 129.867188 143.488281 C 129.144531 138.332031 129.441406 131.460938 129.703125 127.652344 C 130 123.183594 130.886719 120.09375 132.792969 118.386719 C 134.234375 116.644531 135.84375 116.316406 137.027344 116.316406 C 136.863281 122.492188 140.804688 125.253906 144.316406 126.960938 L 150.589844 130.082031 C 152.789062 131.460938 152.789062 131.792969 152.789062 132.480469 C 152.65625 133.5 150.882812 133.863281 149.277344 133.863281 C 145.925781 133.863281 141.394531 131.792969 136.4375 126.304688 L 136.140625 140.730469 C 140.082031 142.796875 145.039062 143.816406 149.441406 143.816406 C 156.730469 143.816406 164.480469 140.398438 166.515625 133.859375 C 170.160156 140.726562 177.320312 143.816406 184.347656 143.816406 C 190.617188 143.824219 195.277344 141.785156 199.382812 137.285156 Z M 89.710938 123.1875 C 90.597656 120.789062 91.316406 118.71875 92.632812 114.941406 C 93.519531 118.71875 93.945312 121.117188 94.371094 122.859375 C 92.632812 123.1875 91.746094 123.1875 89.710938 123.1875 Z M 179.089844 119.410156 C 179.089844 114.609375 180.832031 112.542969 182.574219 112.542969 C 183.164062 112.542969 184.476562 112.179688 185.066406 114.609375 C 185.363281 115.628906 185.492188 116.320312 185.492188 116.648438 C 185.492188 118.027344 184.773438 118.390625 183.886719 118.390625 L 183.886719 118.71875 C 183.886719 118.71875 181.421875 119.410156 179.089844 120.460938 Z M 195.738281 129.398438 C 192.652344 132.125 190.453125 133.867188 186.808594 133.867188 C 183.886719 133.503906 182.144531 131.796875 181.125 129.398438 C 184.179688 128.347656 196 123.878906 199.382812 122.496094 C 199.382812 125.257812 199.515625 128.34375 199.515625 128.34375 L 199.515625 134.195312 Z M 250.183594 134.195312 C 247.425781 134.195312 246.832031 132.125 246.699219 130.777344 C 246.832031 129.398438 247.257812 127.328125 251.660156 125.949219 C 251.738281 126.980469 251.835938 128.007812 251.953125 129.035156 L 251.953125 130.417969 C 252.085938 131.46875 252.085938 132.484375 252.214844 133.503906 C 251.660156 133.867188 250.9375 133.867188 250.183594 134.195312 "/>
<path style=" stroke:none;fill-rule:nonzero;fill:rgb(100%,100%,100%);fill-opacity:1;" d="M 161.6875 107.023438 C 160.242188 106.691406 158.042969 106.003906 154.527344 106.003906 C 151.769531 106.003906 148.125 106.691406 145.335938 108.074219 C 142.117188 110.144531 139.785156 112.871094 139.652344 115.992188 C 139.359375 120.789062 141.851562 122.859375 145.496094 124.570312 C 147.960938 125.949219 150.324219 127.328125 151.769531 128.019531 C 153.675781 129.039062 155.414062 130.089844 155.285156 132.488281 C 155.121094 134.886719 152.917969 136.628906 149.273438 136.628906 C 146.21875 136.628906 141.851562 134.558594 138.765625 131.796875 L 138.636719 139.027344 C 141.261719 140.40625 145.496094 141.097656 149.4375 141.097656 C 156.136719 141.097656 164.476562 138.007812 164.609375 130.417969 C 164.773438 124.570312 160.667969 122.496094 158.207031 121.152344 C 155.710938 120.101562 153.214844 118.71875 152.066406 118.390625 C 150.882812 117.699219 148.550781 117.011719 148.71875 114.25 C 148.980469 111.851562 151.769531 110.800781 154.691406 110.800781 C 157.15625 110.800781 159.652344 111.492188 161.554688 112.542969 M 101.695312 94.304688 L 86.195312 96.375 C 86.492188 98.445312 85.902344 102.550781 84.292969 107.382812 C 81.105469 116.648438 75.851562 132.125 71.746094 141.09375 L 81.402344 141.09375 C 81.960938 137.972656 82.683594 135.246094 84.160156 131.46875 L 98.476562 131.105469 C 99.035156 133.867188 100.085938 138.335938 100.21875 141.09375 L 113.222656 141.09375 C 111.613281 137.285156 109.578125 129.398438 108.261719 123.875 Z M 86.195312 125.585938 L 93.222656 105.3125 L 97.460938 125.257812 M 138.769531 107.023438 L 138.472656 113.921875 C 136.140625 113.5625 133.21875 114.25 130.886719 116.648438 C 128.851562 118.71875 127.539062 121.808594 127.242188 127.328125 C 126.945312 131.796875 126.816406 136.957031 127.078125 141.097656 L 116.144531 141.097656 C 116.867188 136.957031 117.160156 132.160156 117.292969 127.65625 L 117.585938 122.171875 C 117.882812 117.703125 117.882812 113.234375 117.160156 109.09375 L 126.816406 108.765625 C 127.242188 110.144531 127.539062 112.542969 127.375 114.941406 C 131.609375 108.402344 135.714844 107.023438 138.769531 107.023438 M 276.484375 96.375 L 266.535156 94.632812 C 267.554688 99.136719 267.847656 102.222656 268.441406 106.691406 L 270.773438 128.347656 C 271.230469 132.816406 271.660156 136.957031 271.527344 141.09375 L 282.332031 141.09375 C 281.277344 136.957031 280.851562 132.816406 280.425781 128.347656 M 231.925781 141.09375 C 231.367188 136.957031 231.070312 132.816406 230.90625 128.347656 L 230.480469 117.011719 C 230.183594 110.800781 226.671875 107.382812 220.824219 107.382812 C 217.640625 107.382812 213.832031 108.402344 210.613281 112.542969 C 210.480469 111.492188 210.023438 108.761719 209.433594 107.382812 L 200.699219 107.023438 C 201.417969 111.160156 201.714844 115.269531 201.847656 119.738281 L 202.011719 128.347656 C 202.140625 132.816406 202.011719 136.957031 201.714844 141.09375 L 212.648438 141.09375 C 212.089844 136.957031 211.796875 132.816406 211.632812 128.347656 L 211.335938 118.71875 C 211.203125 115.269531 213.832031 112.871094 216.460938 112.871094 C 219.511719 112.871094 220.992188 114.941406 221.121094 118.027344 L 221.582031 128.347656 C 221.714844 132.816406 221.714844 136.957031 221.417969 141.09375 M 266.109375 141.09375 C 264.796875 137.644531 264.074219 133.503906 263.777344 129.035156 L 263.183594 122.167969 C 262.59375 113.921875 259.113281 108.402344 245.648438 108.402344 C 243.316406 108.402344 239.96875 108.761719 237.210938 109.417969 L 237.636719 115.628906 C 240.394531 113.921875 243.1875 112.542969 246.699219 112.542969 C 250.34375 112.542969 253.398438 114.25 253.695312 119.410156 C 250.183594 119.769531 246.964844 120.425781 243.320312 122.167969 C 239.25 123.878906 235.011719 127.328125 235.4375 132.816406 C 235.863281 139.023438 240.558594 141.785156 246.40625 141.785156 C 250.9375 141.785156 253.992188 139.714844 255.730469 137.644531 C 256.027344 139.023438 256.488281 140.042969 256.914062 141.09375 Z M 250.183594 136.625 C 246.960938 136.625 244.339844 134.886719 244.207031 131.105469 C 244.207031 127.328125 246.539062 124.238281 253.992188 123.1875 L 254.417969 129.035156 C 254.582031 131.105469 254.582031 132.488281 254.878906 134.195312 C 253.828125 135.574219 252.085938 136.265625 250.183594 136.625 M 191.632812 108.074219 C 189.140625 106.332031 186.21875 105.640625 183.164062 105.640625 C 176.003906 105.640625 166.515625 110.800781 166.808594 123.878906 C 166.941406 137.285156 177.1875 141.425781 184.34375 141.425781 C 190.617188 141.425781 194.425781 139.023438 197.480469 135.9375 L 195.277344 132.816406 C 193.671875 134.195312 191.042969 136.265625 186.808594 136.265625 C 182.277344 135.9375 179.386719 132.816406 177.777344 128.015625 L 197.609375 120.789062 C 197.019531 114.25 194.6875 110.472656 191.632812 108.074219 Z M 184.773438 120.789062 L 176.890625 123.878906 C 176.726562 122.496094 176.59375 121.117188 176.59375 119.410156 C 176.59375 111.488281 180.960938 110.109375 182.4375 110.109375 C 184.773438 109.78125 186.808594 111.160156 187.5625 113.921875 C 188.417969 117.011719 188.121094 119.769531 184.773438 120.789062 M 138.046875 210.363281 L 144.710938 200.207031 L 168.417969 215.71875 L 161.753906 225.902344 Z M 138.046875 210.363281 "/>
<path style=" stroke:none;fill-rule:nonzero;fill:rgb(61.176471%,50.980392%,29.019608%);fill-opacity:1;" d="M 135.84375 206.878906 L 140.441406 199.847656 L 170.554688 219.59375 L 165.957031 226.625 Z M 135.84375 206.878906 "/>
<path style=" stroke:none;fill-rule:nonzero;fill:rgb(100%,100%,100%);fill-opacity:1;" d="M 188.648438 242.695312 L 195.3125 232.507812 L 219.019531 248.050781 L 212.355469 258.238281 Z M 188.648438 242.695312 "/>
<path style=" stroke:none;fill-rule:nonzero;fill:rgb(61.176471%,50.980392%,29.019608%);fill-opacity:1;" d="M 186.445312 239.210938 L 191.042969 232.179688 L 221.15625 251.925781 L 216.558594 258.925781 Z M 186.445312 239.210938 "/>
</g>
</svg>
