<?xml version="1.0" encoding="UTF-8"?>
<svg xmlns="http://www.w3.org/2000/svg" xmlns:xlink="http://www.w3.org/1999/xlink" viewBox="0 0 415 420" version="1.1">
<g id="surface1">
<path style=" stroke:none;fill-rule:nonzero;fill:rgb(0%,0%,0%);fill-opacity:1;" d="M 266.191406 3.53125 C 246.847656 16.953125 228.199219 23.207031 207.503906 23.207031 C 186.808594 23.207031 168.160156 16.953125 148.8125 3.53125 L 143.773438 0.0351562 L 138.660156 3.421875 C 116.796875 17.890625 99.03125 20.539062 71.925781 20.539062 C 62.578125 20.539062 52.53125 18.777344 42.867188 15.441406 L 36.429688 13.21875 L 32.515625 18.785156 C 30.429688 21.746094 28.882812 23.628906 27.386719 25.445312 C 25.542969 27.6875 23.804688 29.804688 21.757812 33.089844 L 18.484375 38.351562 L 22.210938 43.300781 C 38.777344 65.304688 45.027344 87.945312 45.027344 109.253906 C 45.027344 148.992188 23.289062 184.105469 6.167969 201.859375 L 0 208.257812 L 6.292969 214.535156 C 9.667969 217.902344 15.679688 224.136719 20.652344 229.359375 L 20.453125 232.097656 L 20.40625 232.597656 C 20.203125 236.394531 20.101562 240.195312 20.097656 244 C 20.097656 284.355469 32.03125 317.90625 55.652344 343.859375 C 82.992188 373.902344 125.75 391.839844 176.277344 394.632812 C 188.824219 406.054688 201.578125 415.535156 202.148438 415.957031 L 207.550781 419.964844 L 212.945312 415.945312 C 213.511719 415.523438 226.195312 406.046875 238.726562 394.632812 C 289.257812 391.839844 332.007812 373.902344 359.351562 343.855469 C 382.96875 317.90625 394.90625 284.355469 394.90625 244 C 394.90625 240.257812 394.800781 236.457031 394.597656 232.597656 L 394.589844 232.507812 L 394.542969 232.011719 C 394.542969 232.011719 394.367188 229.5625 394.351562 229.359375 C 398.957031 224.523438 405.164062 218.074219 408.710938 214.535156 L 415 208.257812 L 408.832031 201.859375 C 391.714844 184.101562 369.976562 148.984375 369.976562 109.246094 C 369.976562 87.9375 376.226562 65.300781 392.789062 43.300781 L 396.515625 38.351562 L 393.246094 33.089844 C 391.199219 29.800781 389.457031 27.683594 387.617188 25.445312 C 386.121094 23.625 384.574219 21.746094 382.492188 18.785156 L 378.578125 13.214844 L 372.140625 15.4375 C 362.472656 18.773438 352.425781 20.535156 343.082031 20.535156 C 315.972656 20.535156 298.207031 17.890625 276.34375 3.417969 L 271.230469 0.0351562 Z M 266.191406 3.53125 "/>
<path style=" stroke:none;fill-rule:nonzero;fill:rgb(88.627451%,72.54902%,0%);fill-opacity:1;" d="M 207.539062 408.695312 C 207.539062 408.695312 193.09375 397.988281 180.046875 385.804688 C 94.683594 382.265625 24.046875 334.421875 29.441406 233.078125 C 29.761719 230.402344 29.492188 230.582031 29.953125 226.023438 C 25.058594 220.84375 16.960938 212.398438 12.683594 208.132812 C 43.300781 176.375 79.03125 103.734375 29.4375 37.863281 C 32.699219 32.621094 35.058594 30.886719 39.914062 23.984375 C 49.824219 27.40625 60.847656 29.578125 71.921875 29.578125 C 100.363281 29.578125 119.78125 26.757812 143.652344 10.957031 C 162.527344 24.054688 182.992188 32.246094 207.503906 32.246094 C 232.011719 32.246094 252.476562 24.054688 271.351562 10.957031 C 295.222656 26.757812 314.640625 29.578125 343.082031 29.578125 C 354.152344 29.578125 365.179688 27.40625 375.089844 23.984375 C 379.945312 30.882812 382.304688 32.621094 385.5625 37.863281 C 335.972656 103.734375 371.703125 176.375 402.320312 208.132812 C 398.042969 212.398438 389.941406 220.84375 385.050781 226.023438 C 385.511719 230.582031 385.242188 230.402344 385.5625 233.078125 C 390.957031 334.421875 320.316406 382.265625 234.960938 385.804688 C 221.910156 397.988281 207.539062 408.695312 207.539062 408.695312 Z M 207.539062 408.695312 "/>
<path style=" stroke:none;fill-rule:nonzero;fill:rgb(0%,0%,0%);fill-opacity:1;" d="M 45.632812 227.03125 L 44.429688 227.03125 L 43.917969 231.394531 L 43.546875 234.199219 C 41.554688 273.238281 51.292969 304.777344 72.484375 328.007812 C 96.789062 354.65625 136.171875 369.839844 186.367188 371.917969 C 186.414062 371.921875 187.210938 371.925781 187.210938 371.925781 C 202.269531 372.007812 216.496094 372.085938 228.597656 371.921875 C 278.832031 369.84375 318.210938 354.65625 342.519531 328.007812 C 363.710938 304.777344 373.449219 273.242188 371.460938 234.273438 C 371.457031 234.203125 371.085938 231.382812 371.085938 231.382812 L 370.574219 227.085938 L 369.367188 227.035156 L 45.632812 227.035156 Z M 45.632812 227.03125 "/>
<path style=" stroke:none;fill-rule:nonzero;fill:rgb(0%,29.411765%,58.431373%);fill-opacity:1;" d="M 46.839844 229.742188 L 46.59375 231.8125 C 46.59375 231.8125 46.25 234.414062 46.246094 234.414062 C 46.082031 237.609375 46 240.808594 46 244.011719 C 46 277.824219 55.5625 305.433594 74.488281 326.183594 C 79.011719 331.140625 84.074219 335.691406 89.644531 339.828125 L 89.644531 229.742188 Z M 368.757812 234.480469 L 368.40625 231.796875 L 368.160156 229.742188 L 325.355469 229.742188 L 325.355469 339.832031 C 330.929688 335.695312 335.992188 331.140625 340.515625 326.183594 C 359.441406 305.429688 369.007812 277.816406 369.007812 244.046875 C 369.007812 240.914062 368.925781 237.722656 368.757812 234.480469 Z M 368.757812 234.480469 "/>
<path style=" stroke:none;fill-rule:nonzero;fill:rgb(64.313725%,13.72549%,29.411765%);fill-opacity:1;" d="M 136.789062 229.742188 L 89.648438 229.742188 L 89.648438 339.832031 C 102.691406 349.519531 118.53125 356.921875 136.789062 361.90625 Z M 278.214844 229.742188 L 278.214844 361.902344 C 296.476562 356.917969 312.3125 349.515625 325.355469 339.832031 L 325.355469 229.742188 Z M 278.214844 229.742188 "/>
<path style=" stroke:none;fill-rule:nonzero;fill:rgb(0%,29.411765%,58.431373%);fill-opacity:1;" d="M 162.3125 297.550781 C 162.3125 281.238281 170.964844 266.953125 183.929688 259.011719 L 183.929688 229.742188 L 136.789062 229.742188 L 136.789062 361.90625 C 151.078125 365.808594 166.851562 368.222656 183.929688 369.085938 L 183.929688 336.089844 C 170.964844 328.148438 162.3125 313.859375 162.3125 297.550781 Z M 231.074219 229.742188 L 231.074219 259.011719 C 244.039062 266.949219 252.6875 281.238281 252.6875 297.550781 C 252.6875 313.859375 244.039062 328.148438 231.074219 336.085938 L 231.074219 369.085938 C 248.152344 368.21875 263.925781 365.800781 278.214844 361.902344 L 278.214844 229.742188 Z M 231.074219 229.742188 "/>
<path style=" stroke:none;fill-rule:nonzero;fill:rgb(64.313725%,13.72549%,29.411765%);fill-opacity:1;" d="M 231.074219 259.011719 L 231.074219 229.742188 L 183.929688 229.742188 L 183.929688 259.011719 C 190.792969 254.808594 198.863281 252.382812 207.5 252.382812 C 216.140625 252.382812 224.210938 254.808594 231.074219 259.011719 Z M 183.929688 336.089844 L 183.929688 369.085938 C 184.761719 369.128906 185.589844 369.175781 186.429688 369.210938 L 187.222656 369.214844 C 202.273438 369.296875 216.484375 369.375 228.523438 369.210938 C 229.378906 369.175781 230.222656 369.128906 231.074219 369.085938 L 231.074219 336.089844 C 224.210938 340.289062 216.136719 342.714844 207.5 342.714844 C 198.863281 342.714844 190.792969 340.289062 183.929688 336.089844 Z M 183.929688 336.089844 "/>
<path style=" stroke:none;fill-rule:nonzero;fill:rgb(88.627451%,72.54902%,0%);fill-opacity:1;" d="M 184.441406 305.746094 C 176.265625 298.304688 176.238281 283.179688 178.433594 273.132812 C 179.046875 270.332031 179.8125 267.59375 180.605469 264.464844 C 170.992188 272.28125 164.851562 284.199219 164.851562 297.550781 C 164.84375 303.027344 165.898438 308.453125 167.949219 313.53125 C 168.675781 313.625 169.414062 313.675781 170.164062 313.675781 C 176.480469 313.675781 181.636719 310.761719 184.441406 305.746094 Z M 228.347656 309.007812 C 226.949219 316.152344 219.304688 321.503906 212.101562 325.796875 C 204.679688 330.222656 192.707031 332.511719 183.699219 332.925781 C 190.496094 337.503906 198.6875 340.175781 207.5 340.175781 C 223.585938 340.175781 237.589844 331.277344 244.851562 318.136719 C 243.578125 307.621094 233.578125 306.386719 228.347656 309.007812 Z M 228.347656 309.007812 "/>
<path style=" stroke:none;fill-rule:nonzero;fill:rgb(88.627451%,72.54902%,0%);fill-opacity:1;" d="M 180.394531 330.457031 C 189.289062 330.527344 202.964844 328.289062 210.800781 323.617188 C 220.933594 317.578125 228.804688 311.128906 225.0625 302.191406 C 223.171875 297.675781 216.890625 292.449219 208.746094 298.214844 C 208.226562 304.886719 199.984375 310.769531 194.070312 310.011719 C 191.074219 309.628906 188.558594 308.683594 186.46875 307.3125 C 183.144531 312.992188 177.191406 316.214844 170.167969 316.214844 C 169.820312 316.214844 169.476562 316.207031 169.136719 316.1875 C 171.820312 321.695312 175.660156 326.5625 180.394531 330.457031 Z M 207.390625 270.984375 C 214.445312 268.0625 224.222656 271.863281 231.671875 276.019531 C 238.707031 279.945312 246.046875 287.277344 250.074219 294.972656 C 248.746094 272.746094 230.390625 255.113281 207.867188 254.921875 C 201.140625 259.339844 202.058594 267.667969 207.390625 270.984375 Z M 207.390625 270.984375 "/>
<path style=" stroke:none;fill-rule:nonzero;fill:rgb(88.627451%,72.54902%,0%);fill-opacity:1;" d="M 206.199219 298.183594 C 197.464844 291.816406 198 281.800781 201.757812 275.847656 C 202.679688 274.386719 203.753906 273.242188 204.945312 272.363281 C 199.871094 268.3125 198.851562 260.453125 203.769531 255.082031 C 196.625 255.699219 189.75 258.117188 183.792969 262.109375 C 181.929688 270.117188 179.558594 277.425781 179.679688 285.789062 C 179.835938 297.058594 184.503906 306.230469 194.390625 307.496094 C 199.007812 308.089844 205.664062 303.179688 206.199219 298.183594 Z M 206.199219 298.183594 "/>
<path style=" stroke:none;fill-rule:nonzero;fill:rgb(88.627451%,72.54902%,0%);fill-opacity:1;" d="M 249.972656 301.46875 C 247.539062 292.652344 238.789062 282.902344 230.433594 278.234375 C 220.132812 272.484375 208.863281 269.355469 203.90625 277.207031 C 200.726562 282.242188 200.28125 290.566406 207.5 295.988281 C 217.308594 289.214844 225.140625 295.800781 227.40625 301.214844 C 228.132812 302.949219 228.5 304.597656 228.5625 306.167969 C 234.351562 304.132812 243.761719 305.441406 246.660156 314.472656 C 248.449219 310.34375 249.566406 305.953125 249.972656 301.46875 Z M 249.972656 301.46875 "/>
<path style=" stroke:none;fill-rule:nonzero;fill:rgb(0%,0%,0%);fill-opacity:1;" d="M 168.625 177.890625 L 138.8125 177.890625 L 138.8125 219.785156 L 147.894531 219.785156 L 147.894531 202.5 L 160.265625 202.5 L 160.265625 193.65625 L 147.894531 193.65625 L 147.894531 186.792969 L 169.058594 186.792969 L 169.058594 177.890625 Z M 185.960938 198.835938 C 185.960938 211.953125 193.171875 220.429688 204.335938 220.429688 C 211.617188 220.429688 216.859375 217.230469 219.917969 210.925781 L 220.09375 210.5625 L 212.453125 206.035156 L 212.230469 206.40625 C 210.050781 210.054688 207.976562 211.410156 204.574219 211.410156 C 199.015625 211.410156 195.277344 206.355469 195.277344 198.835938 C 195.277344 191.082031 198.816406 186.265625 204.515625 186.265625 C 207.824219 186.265625 210.152344 187.644531 211.628906 190.484375 L 211.824219 190.855469 L 220.230469 186.976562 L 220.035156 186.578125 C 217.082031 180.472656 211.757812 177.246094 204.632812 177.246094 C 193.636719 177.246094 185.960938 186.125 185.960938 198.835938 Z M 270.757812 197.09375 C 273.296875 195.296875 274.785156 192.472656 274.785156 189.167969 C 274.785156 182.105469 269.757812 177.890625 261.332031 177.890625 L 242.074219 177.890625 L 242.074219 219.785156 L 261.15625 219.785156 C 270.570312 219.785156 276.191406 214.671875 276.191406 206.105469 C 276.191406 202.09375 274.1875 198.878906 270.757812 197.09375 Z M 250.980469 186.324219 L 260.980469 186.324219 C 265.058594 186.324219 265.582031 188.1875 265.582031 189.8125 C 265.582031 192.121094 264.210938 193.246094 261.390625 193.246094 L 250.980469 193.246094 Z M 261.449219 211.117188 L 250.980469 211.117188 L 250.980469 201.386719 L 261.449219 201.386719 C 265.148438 201.386719 266.875 202.921875 266.875 206.222656 C 266.875 209.425781 265 211.117188 261.449219 211.117188 Z M 270.882812 28.113281 C 250.574219 40.390625 229.839844 46.367188 207.5 46.382812 C 185.160156 46.367188 164.429688 40.390625 144.121094 28.113281 L 143.441406 27.703125 L 142.75 28.09375 C 119.617188 41.160156 99.261719 43.714844 71.917969 43.714844 C 65.347656 43.714844 58.570312 43.054688 51.769531 41.753906 L 48.839844 41.195312 L 50.34375 43.769531 C 78.433594 91.8125 68.460938 138.265625 55.152344 168.773438 L 54.324219 170.667969 L 360.679688 170.667969 L 359.851562 168.773438 C 346.539062 138.265625 336.566406 91.8125 364.65625 43.769531 L 366.160156 41.195312 L 363.234375 41.753906 C 356.433594 43.054688 349.652344 43.714844 343.082031 43.714844 C 315.742188 43.714844 295.382812 41.160156 272.25 28.09375 L 271.558594 27.703125 Z M 270.882812 28.113281 "/>
<path style=" stroke:none;fill-rule:nonzero;fill:rgb(100%,100%,100%);fill-opacity:1;" d="M 113.539062 42.558594 C 100.707031 45.601562 87.410156 46.425781 71.921875 46.425781 C 66.0625 46.425781 60.035156 45.820312 53.988281 44.808594 C 61.164062 57.636719 65.730469 70.328125 68.320312 82.632812 L 113.539062 82.632812 Z M 206.144531 82.632812 L 206.144531 49.070312 C 189.921875 48.886719 174.527344 45.59375 159.523438 39.101562 L 159.523438 82.632812 Z M 69.605469 128.59375 C 67.46875 143.304688 63.207031 156.640625 58.421875 167.957031 L 113.539062 167.957031 L 113.539062 128.59375 Z M 159.523438 167.957031 L 206.144531 167.957031 L 206.144531 128.59375 L 159.523438 128.59375 Z M 159.523438 167.957031 "/>
<path style=" stroke:none;fill-rule:nonzero;fill:rgb(85.882353%,18.431373%,21.176471%);fill-opacity:1;" d="M 159.523438 82.632812 L 159.523438 39.101562 C 154.101562 36.753906 148.730469 34 143.390625 30.808594 C 133.179688 36.5 123.5 40.195312 113.539062 42.558594 L 113.539062 82.632812 L 68.320312 82.632812 C 70.140625 91.269531 71.054688 100.070312 71.054688 108.894531 C 71.054688 115.683594 70.523438 122.265625 69.605469 128.59375 L 113.539062 128.59375 L 113.539062 167.957031 L 159.523438 167.957031 L 159.523438 128.59375 L 206.148438 128.59375 L 206.148438 82.632812 Z M 159.523438 82.632812 "/>
<path style=" stroke:none;fill-rule:nonzero;fill:rgb(100%,87.45098%,0%);fill-opacity:1;" d="M 271.609375 30.808594 L 271.542969 30.847656 L 271.542969 167.957031 L 287.710938 167.957031 L 287.710938 38.328125 C 282.414062 36.324219 277.089844 33.863281 271.609375 30.808594 Z M 239.214844 44.832031 L 239.214844 167.957031 L 255.378906 167.957031 L 255.378906 39.140625 C 250.128906 41.414062 244.726562 43.316406 239.214844 44.832031 Z M 208.855469 49.070312 L 208.855469 167.957031 L 223.046875 167.957031 L 223.046875 48.074219 C 218.339844 48.679688 213.601562 49.015625 208.855469 49.070312 Z M 303.878906 43.085938 L 303.878906 167.957031 L 320.042969 167.957031 L 320.042969 45.511719 C 314.480469 44.996094 309.128906 44.214844 303.878906 43.085938 Z M 343.945312 108.894531 C 343.945312 88.835938 348.585938 67.019531 361.015625 44.808594 C 354.964844 45.820312 348.941406 46.425781 343.082031 46.425781 C 340.738281 46.425781 338.457031 46.398438 336.207031 46.355469 L 336.207031 167.957031 L 356.582031 167.957031 C 349.734375 151.769531 343.945312 131.46875 343.945312 108.894531 Z M 343.945312 108.894531 "/>
<path style=" stroke:none;fill-rule:nonzero;fill:rgb(85.882353%,18.431373%,21.176471%);fill-opacity:1;" d="M 320.042969 45.511719 L 320.042969 167.957031 L 336.207031 167.957031 L 336.207031 46.355469 C 330.574219 46.25 325.214844 45.992188 320.042969 45.511719 Z M 223.046875 48.074219 L 223.046875 167.957031 L 239.214844 167.957031 L 239.214844 44.832031 C 233.90625 46.289062 228.507812 47.371094 223.046875 48.074219 Z M 255.378906 39.140625 L 255.378906 167.957031 L 271.542969 167.957031 L 271.542969 30.847656 C 266.195312 34.042969 260.8125 36.796875 255.378906 39.140625 Z M 287.710938 38.328125 L 287.710938 167.957031 L 303.875 167.957031 L 303.875 43.085938 C 298.375 41.910156 292.972656 40.320312 287.710938 38.328125 Z M 287.710938 38.328125 "/>
</g>
</svg>
