<?xml version="1.0" encoding="UTF-8"?>
<svg xmlns="http://www.w3.org/2000/svg" xmlns:xlink="http://www.w3.org/1999/xlink" width="250px" height="250px" viewBox="0 0 250 250" version="1.1">
<g id="surface1">
<path style=" stroke:none;fill-rule:nonzero;fill:rgb(0%,0%,0%);fill-opacity:1;" d="M 160.355469 2.101562 C 148.703125 10.089844 137.46875 13.8125 125.003906 13.8125 C 112.535156 13.8125 101.300781 10.089844 89.644531 2.101562 L 86.609375 0.0195312 L 83.53125 2.035156 C 70.359375 10.648438 59.65625 12.226562 43.328125 12.226562 C 37.699219 12.226562 31.644531 11.175781 25.824219 9.191406 L 21.945312 7.867188 L 19.585938 11.179688 C 18.332031 12.945312 17.398438 14.066406 16.496094 15.144531 C 15.386719 16.480469 14.339844 17.742188 13.105469 19.695312 L 11.136719 22.828125 L 13.378906 25.773438 C 23.359375 38.871094 27.125 52.347656 27.125 65.03125 C 27.125 88.6875 14.03125 109.585938 3.714844 120.15625 L 0 123.964844 L 3.789062 127.699219 C 5.824219 129.703125 9.445312 133.414062 12.441406 136.523438 L 12.320312 138.152344 L 12.292969 138.449219 C 12.171875 140.710938 12.109375 142.972656 12.105469 145.238281 C 12.105469 169.257812 19.296875 189.230469 33.527344 204.679688 C 49.996094 222.5625 75.753906 233.238281 106.191406 234.902344 C 113.75 241.699219 121.433594 247.34375 121.777344 247.59375 L 125.03125 249.980469 L 128.28125 247.585938 C 128.621094 247.335938 136.261719 241.695312 143.8125 234.902344 C 174.25 233.238281 200.003906 222.5625 216.476562 204.675781 C 230.703125 189.230469 237.894531 169.257812 237.894531 145.238281 C 237.894531 143.011719 237.832031 140.75 237.710938 138.449219 L 237.703125 138.398438 L 237.675781 138.101562 C 237.675781 138.101562 237.570312 136.644531 237.5625 136.523438 C 240.335938 133.644531 244.074219 129.804688 246.210938 127.699219 L 250 123.964844 L 246.285156 120.15625 C 235.972656 109.585938 222.878906 88.679688 222.878906 65.027344 C 222.878906 52.34375 226.640625 38.871094 236.621094 25.773438 L 238.863281 22.828125 L 236.894531 19.695312 C 235.664062 17.738281 234.613281 16.476562 233.503906 15.144531 C 232.601562 14.0625 231.671875 12.945312 230.417969 11.179688 L 228.058594 7.867188 L 224.179688 9.1875 C 218.355469 11.175781 212.304688 12.222656 206.675781 12.222656 C 190.34375 12.222656 179.644531 10.648438 166.472656 2.035156 L 163.390625 0.0195312 Z M 160.355469 2.101562 "/>
<path style=" stroke:none;fill-rule:nonzero;fill:rgb(88.627451%,72.54902%,0%);fill-opacity:1;" d="M 125.023438 243.269531 C 125.023438 243.269531 116.320312 236.898438 108.460938 229.644531 C 57.039062 227.539062 14.484375 199.0625 17.734375 138.738281 C 17.929688 137.144531 17.765625 137.25 18.042969 134.539062 C 15.09375 131.453125 10.21875 126.425781 7.640625 123.886719 C 26.085938 104.984375 47.609375 61.746094 17.734375 22.539062 C 19.699219 19.417969 21.121094 18.386719 24.042969 14.277344 C 30.015625 16.3125 36.65625 17.605469 43.328125 17.605469 C 60.460938 17.605469 72.15625 15.925781 86.539062 6.523438 C 97.90625 14.316406 110.234375 19.195312 125.003906 19.195312 C 139.765625 19.195312 152.09375 14.316406 163.464844 6.523438 C 177.84375 15.925781 189.542969 17.605469 206.675781 17.605469 C 213.34375 17.605469 219.988281 16.3125 225.957031 14.277344 C 228.882812 18.382812 230.304688 19.417969 232.265625 22.539062 C 202.394531 61.746094 223.917969 104.984375 242.363281 123.886719 C 239.785156 126.425781 234.90625 131.453125 231.957031 134.539062 C 232.234375 137.25 232.074219 137.144531 232.265625 138.738281 C 235.515625 199.0625 192.960938 227.539062 141.542969 229.644531 C 133.679688 236.898438 125.023438 243.269531 125.023438 243.269531 Z M 125.023438 243.269531 "/>
<path style=" stroke:none;fill-rule:nonzero;fill:rgb(0%,0%,0%);fill-opacity:1;" d="M 27.488281 135.136719 L 26.765625 135.136719 L 26.457031 137.734375 L 26.234375 139.40625 C 25.03125 162.640625 30.898438 181.414062 43.664062 195.242188 C 58.308594 211.105469 82.03125 220.144531 112.269531 221.378906 C 112.296875 221.382812 112.777344 221.382812 112.777344 221.382812 C 121.847656 221.433594 130.417969 221.480469 137.710938 221.382812 C 167.972656 220.144531 191.691406 211.105469 206.335938 195.242188 C 219.101562 181.414062 224.96875 162.644531 223.773438 139.449219 C 223.769531 139.40625 223.546875 137.726562 223.546875 137.726562 L 223.238281 135.171875 L 222.511719 135.140625 L 27.488281 135.140625 Z M 27.488281 135.136719 "/>
<path style=" stroke:none;fill-rule:nonzero;fill:rgb(0%,29.411765%,58.431373%);fill-opacity:1;" d="M 28.214844 136.75 L 28.070312 137.984375 C 28.070312 137.984375 27.863281 139.53125 27.859375 139.53125 C 27.761719 141.433594 27.710938 143.339844 27.710938 145.246094 C 27.710938 165.371094 33.472656 181.804688 44.871094 194.15625 C 47.597656 197.109375 50.648438 199.816406 54.003906 202.277344 L 54.003906 136.75 Z M 222.144531 139.570312 L 221.929688 137.972656 L 221.785156 136.75 L 195.996094 136.75 L 195.996094 202.28125 C 199.355469 199.820312 202.40625 197.109375 205.128906 194.15625 C 216.53125 181.804688 222.292969 165.367188 222.292969 145.265625 C 222.292969 143.402344 222.246094 141.5 222.144531 139.570312 Z M 222.144531 139.570312 "/>
<path style=" stroke:none;fill-rule:nonzero;fill:rgb(64.313725%,13.72549%,29.411765%);fill-opacity:1;" d="M 82.402344 136.75 L 54.003906 136.75 L 54.003906 202.28125 C 61.863281 208.046875 71.40625 212.453125 82.402344 215.421875 Z M 167.597656 136.75 L 167.597656 215.417969 C 178.601562 212.453125 188.140625 208.046875 195.996094 202.28125 L 195.996094 136.75 Z M 167.597656 136.75 "/>
<path style=" stroke:none;fill-rule:nonzero;fill:rgb(0%,29.411765%,58.431373%);fill-opacity:1;" d="M 97.777344 177.113281 C 97.777344 167.402344 102.992188 158.902344 110.800781 154.171875 L 110.800781 136.75 L 82.402344 136.75 L 82.402344 215.421875 C 91.011719 217.742188 100.511719 219.179688 110.800781 219.695312 L 110.800781 200.054688 C 102.992188 195.328125 97.777344 186.820312 97.777344 177.113281 Z M 139.203125 136.75 L 139.203125 154.171875 C 147.011719 158.898438 152.222656 167.402344 152.222656 177.113281 C 152.222656 186.820312 147.011719 195.328125 139.203125 200.050781 L 139.203125 219.695312 C 149.488281 219.179688 158.992188 217.738281 167.597656 215.417969 L 167.597656 136.75 Z M 139.203125 136.75 "/>
<path style=" stroke:none;fill-rule:nonzero;fill:rgb(64.313725%,13.72549%,29.411765%);fill-opacity:1;" d="M 139.203125 154.171875 L 139.203125 136.75 L 110.800781 136.75 L 110.800781 154.171875 C 114.933594 151.671875 119.796875 150.226562 125 150.226562 C 130.207031 150.226562 135.066406 151.671875 139.203125 154.171875 Z M 110.800781 200.054688 L 110.800781 219.695312 C 111.300781 219.71875 111.800781 219.746094 112.308594 219.769531 L 112.785156 219.769531 C 121.851562 219.820312 130.414062 219.867188 137.664062 219.769531 C 138.179688 219.746094 138.6875 219.71875 139.203125 219.695312 L 139.203125 200.054688 C 135.066406 202.554688 130.203125 203.996094 125 203.996094 C 119.796875 203.996094 114.933594 202.554688 110.800781 200.054688 Z M 110.800781 200.054688 "/>
<path style=" stroke:none;fill-rule:nonzero;fill:rgb(88.627451%,72.54902%,0%);fill-opacity:1;" d="M 111.109375 181.992188 C 106.183594 177.5625 106.167969 168.558594 107.488281 162.578125 C 107.859375 160.910156 108.320312 159.28125 108.796875 157.417969 C 103.007812 162.070312 99.308594 169.167969 99.308594 177.113281 C 99.304688 180.375 99.9375 183.601562 101.175781 186.625 C 101.613281 186.679688 102.058594 186.710938 102.507812 186.710938 C 106.3125 186.710938 109.417969 184.976562 111.109375 181.992188 Z M 137.558594 183.933594 C 136.714844 188.1875 132.109375 191.371094 127.773438 193.925781 C 123.300781 196.5625 116.089844 197.921875 110.664062 198.171875 C 114.757812 200.894531 119.691406 202.484375 125 202.484375 C 134.691406 202.484375 143.125 197.1875 147.5 189.367188 C 146.734375 183.109375 140.710938 182.375 137.558594 183.933594 Z M 137.558594 183.933594 "/>
<path style=" stroke:none;fill-rule:nonzero;fill:rgb(88.627451%,72.54902%,0%);fill-opacity:1;" d="M 108.671875 196.699219 C 114.03125 196.742188 122.269531 195.410156 126.988281 192.628906 C 133.09375 189.035156 137.835938 185.195312 135.578125 179.875 C 134.441406 177.1875 130.65625 174.078125 125.75 177.507812 C 125.4375 181.480469 120.472656 184.980469 116.910156 184.53125 C 115.105469 184.304688 113.589844 183.742188 112.332031 182.925781 C 110.328125 186.304688 106.742188 188.222656 102.511719 188.222656 C 102.300781 188.222656 102.09375 188.21875 101.890625 188.207031 C 103.507812 191.484375 105.820312 194.382812 108.671875 196.699219 Z M 124.933594 161.300781 C 129.183594 159.5625 135.074219 161.824219 139.5625 164.296875 C 143.800781 166.632812 148.222656 171 150.648438 175.578125 C 149.847656 162.347656 138.789062 151.851562 125.222656 151.738281 C 121.167969 154.367188 121.722656 159.328125 124.933594 161.300781 Z M 124.933594 161.300781 "/>
<path style=" stroke:none;fill-rule:nonzero;fill:rgb(88.627451%,72.54902%,0%);fill-opacity:1;" d="M 124.214844 177.492188 C 118.953125 173.699219 119.277344 167.738281 121.539062 164.195312 C 122.097656 163.324219 122.742188 162.644531 123.460938 162.121094 C 120.402344 159.710938 119.789062 155.03125 122.753906 151.835938 C 118.449219 152.203125 114.308594 153.640625 110.71875 156.015625 C 109.597656 160.785156 108.167969 165.132812 108.242188 170.113281 C 108.335938 176.820312 111.148438 182.28125 117.101562 183.035156 C 119.882812 183.386719 123.894531 180.464844 124.214844 177.492188 Z M 124.214844 177.492188 "/>
<path style=" stroke:none;fill-rule:nonzero;fill:rgb(88.627451%,72.54902%,0%);fill-opacity:1;" d="M 150.585938 179.445312 C 149.121094 174.199219 143.847656 168.394531 138.816406 165.617188 C 132.609375 162.191406 125.820312 160.332031 122.835938 165.003906 C 120.917969 168 120.652344 172.957031 125 176.183594 C 130.910156 172.152344 135.625 176.070312 136.992188 179.292969 C 137.429688 180.328125 137.652344 181.308594 137.6875 182.242188 C 141.175781 181.03125 146.84375 181.808594 148.589844 187.1875 C 149.667969 184.726562 150.339844 182.113281 150.585938 179.445312 Z M 150.585938 179.445312 "/>
<path style=" stroke:none;fill-rule:nonzero;fill:rgb(0%,0%,0%);fill-opacity:1;" d="M 101.582031 105.886719 L 83.621094 105.886719 L 83.621094 130.824219 L 89.09375 130.824219 L 89.09375 120.535156 L 96.546875 120.535156 L 96.546875 115.273438 L 89.09375 115.273438 L 89.09375 111.1875 L 101.84375 111.1875 L 101.84375 105.886719 Z M 112.023438 118.355469 C 112.023438 126.164062 116.367188 131.207031 123.09375 131.207031 C 127.480469 131.207031 130.636719 129.304688 132.480469 125.550781 L 132.585938 125.335938 L 127.984375 122.640625 L 127.851562 122.859375 C 126.535156 125.03125 125.285156 125.839844 123.238281 125.839844 C 119.890625 125.839844 117.636719 122.832031 117.636719 118.355469 C 117.636719 113.738281 119.769531 110.871094 123.203125 110.871094 C 125.195312 110.871094 126.597656 111.691406 127.488281 113.382812 L 127.605469 113.605469 L 132.667969 111.296875 L 132.550781 111.058594 C 130.773438 107.425781 127.566406 105.503906 123.273438 105.503906 C 116.648438 105.503906 112.023438 110.789062 112.023438 118.355469 Z M 163.105469 117.316406 C 164.636719 116.25 165.535156 114.566406 165.535156 112.601562 C 165.535156 108.394531 162.503906 105.886719 157.429688 105.886719 L 145.828125 105.886719 L 145.828125 130.824219 L 157.324219 130.824219 C 162.996094 130.824219 166.378906 127.78125 166.378906 122.683594 C 166.378906 120.292969 165.171875 118.378906 163.105469 117.316406 Z M 151.191406 110.90625 L 157.21875 110.90625 C 159.675781 110.90625 159.988281 112.015625 159.988281 112.984375 C 159.988281 114.359375 159.164062 115.027344 157.464844 115.027344 L 151.191406 115.027344 Z M 157.5 125.664062 L 151.191406 125.664062 L 151.191406 119.875 L 157.5 119.875 C 159.726562 119.875 160.769531 120.785156 160.769531 122.75 C 160.769531 124.65625 159.636719 125.664062 157.5 125.664062 Z M 163.183594 16.734375 C 150.949219 24.042969 138.457031 27.597656 125 27.609375 C 111.542969 27.597656 99.054688 24.042969 86.820312 16.734375 L 86.410156 16.488281 L 85.992188 16.722656 C 72.058594 24.5 59.796875 26.019531 43.324219 26.019531 C 39.367188 26.019531 35.285156 25.628906 31.1875 24.851562 L 29.421875 24.519531 L 30.328125 26.054688 C 47.25 54.648438 41.242188 82.300781 33.222656 100.460938 L 32.726562 101.589844 L 217.277344 101.589844 L 216.777344 100.460938 C 208.757812 82.300781 202.75 54.648438 219.671875 26.054688 L 220.578125 24.519531 L 218.816406 24.851562 C 214.71875 25.628906 210.632812 26.019531 206.675781 26.019531 C 190.207031 26.019531 177.941406 24.5 164.007812 16.722656 L 163.589844 16.488281 Z M 163.183594 16.734375 "/>
<path style=" stroke:none;fill-rule:nonzero;fill:rgb(100%,100%,100%);fill-opacity:1;" d="M 68.398438 25.332031 C 60.667969 27.144531 52.65625 27.632812 43.328125 27.632812 C 39.796875 27.632812 36.164062 27.273438 32.523438 26.671875 C 36.847656 34.308594 39.597656 41.863281 41.15625 49.1875 L 68.398438 49.1875 Z M 124.183594 49.1875 L 124.183594 29.207031 C 114.410156 29.097656 105.136719 27.140625 96.097656 23.273438 L 96.097656 49.1875 Z M 41.929688 76.542969 C 40.644531 85.300781 38.078125 93.238281 35.195312 99.972656 L 68.398438 99.972656 L 68.398438 76.542969 Z M 96.097656 99.972656 L 124.183594 99.972656 L 124.183594 76.542969 L 96.097656 76.542969 Z M 96.097656 99.972656 "/>
<path style=" stroke:none;fill-rule:nonzero;fill:rgb(85.882353%,18.431373%,21.176471%);fill-opacity:1;" d="M 96.097656 49.1875 L 96.097656 23.273438 C 92.832031 21.878906 89.597656 20.238281 86.378906 18.339844 C 80.230469 21.726562 74.398438 23.925781 68.398438 25.332031 L 68.398438 49.1875 L 41.15625 49.1875 C 42.253906 54.328125 42.804688 59.566406 42.804688 64.816406 C 42.804688 68.859375 42.484375 72.777344 41.929688 76.542969 L 68.398438 76.542969 L 68.398438 99.972656 L 96.097656 99.972656 L 96.097656 76.542969 L 124.1875 76.542969 L 124.1875 49.1875 Z M 96.097656 49.1875 "/>
<path style=" stroke:none;fill-rule:nonzero;fill:rgb(100%,87.45098%,0%);fill-opacity:1;" d="M 163.621094 18.339844 L 163.582031 18.363281 L 163.582031 99.972656 L 173.320312 99.972656 L 173.320312 22.8125 C 170.128906 21.621094 166.921875 20.15625 163.621094 18.339844 Z M 144.105469 26.6875 L 144.105469 99.972656 L 153.84375 99.972656 L 153.84375 23.296875 C 150.679688 24.652344 147.425781 25.785156 144.105469 26.6875 Z M 125.816406 29.207031 L 125.816406 99.972656 L 134.367188 99.972656 L 134.367188 28.617188 C 131.53125 28.976562 128.675781 29.175781 125.816406 29.207031 Z M 183.058594 25.644531 L 183.058594 99.972656 L 192.796875 99.972656 L 192.796875 27.089844 C 189.445312 26.785156 186.222656 26.320312 183.058594 25.644531 Z M 207.195312 64.816406 C 207.195312 52.878906 209.992188 39.890625 217.480469 26.671875 C 213.835938 27.273438 210.207031 27.632812 206.675781 27.632812 C 205.265625 27.632812 203.890625 27.617188 202.535156 27.59375 L 202.535156 99.972656 L 214.808594 99.972656 C 210.683594 90.339844 207.195312 78.253906 207.195312 64.816406 Z M 207.195312 64.816406 "/>
<path style=" stroke:none;fill-rule:nonzero;fill:rgb(85.882353%,18.431373%,21.176471%);fill-opacity:1;" d="M 192.796875 27.089844 L 192.796875 99.972656 L 202.535156 99.972656 L 202.535156 27.59375 C 199.140625 27.53125 195.914062 27.375 192.796875 27.089844 Z M 134.367188 28.617188 L 134.367188 99.972656 L 144.105469 99.972656 L 144.105469 26.6875 C 140.90625 27.554688 137.65625 28.195312 134.367188 28.617188 Z M 153.84375 23.296875 L 153.84375 99.972656 L 163.582031 99.972656 L 163.582031 18.363281 C 160.359375 20.265625 157.117188 21.902344 153.84375 23.296875 Z M 173.320312 22.8125 L 173.320312 99.972656 L 183.058594 99.972656 L 183.058594 25.644531 C 179.742188 24.945312 176.488281 24 173.320312 22.8125 Z M 173.320312 22.8125 "/>
</g>
</svg>
