<?xml version="1.0" encoding="UTF-8"?>
<svg xmlns="http://www.w3.org/2000/svg" xmlns:xlink="http://www.w3.org/1999/xlink" width="250px" height="250px" viewBox="0 0 250 249" version="1.1">
<g id="surface1">
<path style=" stroke:none;fill-rule:nonzero;fill:rgb(0%,36.470588%,66.27451%);fill-opacity:1;" d="M 1.386719 124.496094 C 1.386719 56.5 56.726562 1.378906 124.996094 1.378906 C 193.265625 1.378906 248.605469 56.5 248.605469 124.496094 C 248.605469 192.492188 193.265625 247.613281 124.996094 247.613281 C 56.726562 247.613281 1.386719 192.492188 1.386719 124.496094 "/>
<path style=" stroke:none;fill-rule:nonzero;fill:rgb(0%,36.470588%,66.27451%);fill-opacity:1;" d="M 124.996094 248.957031 C 56.070312 248.957031 0.0351562 193.078125 0.0351562 124.496094 C 0.0351562 55.914062 56.140625 0.0351562 124.996094 0.0351562 C 193.851562 0.0351562 249.957031 55.914062 249.957031 124.496094 C 249.957031 193.078125 193.851562 248.957031 124.996094 248.957031 M 124.996094 2.726562 C 57.601562 2.726562 2.769531 57.335938 2.769531 124.460938 C 2.769531 191.585938 57.601562 246.230469 124.996094 246.230469 C 192.390625 246.230469 247.21875 191.621094 247.21875 124.496094 C 247.21875 57.371094 192.390625 2.761719 124.996094 2.761719 "/>
<path style=" stroke:none;fill-rule:nonzero;fill:rgb(100%,100%,100%);fill-opacity:1;" d="M 6.773438 124.359375 C 6.773438 59.363281 59.675781 6.671875 124.9375 6.671875 C 190.195312 6.671875 243.097656 59.363281 243.097656 124.359375 C 243.097656 189.359375 190.195312 242.046875 124.9375 242.046875 C 59.675781 242.046875 6.773438 189.359375 6.773438 124.359375 "/>
<path style=" stroke:none;fill-rule:nonzero;fill:rgb(100%,100%,100%);fill-opacity:1;" d="M 124.996094 243.183594 C 59.214844 243.183594 5.703125 189.84375 5.703125 124.367188 C 5.703125 58.894531 59.257812 5.554688 124.996094 5.554688 C 190.734375 5.554688 244.289062 58.894531 244.289062 124.367188 C 244.289062 189.84375 190.742188 243.183594 124.996094 243.183594 M 124.996094 7.753906 C 60.441406 7.753906 7.921875 60.0625 7.921875 124.359375 C 7.921875 188.65625 60.390625 240.964844 124.996094 240.964844 C 189.601562 240.964844 242.070312 188.65625 242.070312 124.359375 C 242.070312 60.0625 189.515625 7.753906 124.996094 7.753906 "/>
<path style=" stroke:none;fill-rule:nonzero;fill:rgb(81.568627%,1.568627%,23.529412%);fill-opacity:1;" d="M 11.542969 124.351562 C 11.542969 61.972656 62.308594 11.402344 124.9375 11.394531 C 187.566406 11.386719 238.347656 61.945312 238.363281 124.324219 C 238.378906 186.703125 187.625 237.285156 124.996094 237.308594 C 62.34375 237.332031 11.542969 186.753906 11.542969 124.351562 "/>
<path style=" stroke:none;fill-rule:nonzero;fill:rgb(100%,100%,100%);fill-opacity:1;" d="M 21.574219 99.652344 L 28.15625 81.398438 L 33.535156 83.320312 L 29.558594 94.378906 L 35.089844 96.359375 L 38.949219 85.632812 L 44.332031 87.554688 L 40.472656 98.28125 L 50.425781 101.839844 L 47.835938 109.035156 Z M 21.574219 99.652344 "/>
<path style=" stroke:none;fill-rule:nonzero;fill:rgb(100%,100%,100%);fill-opacity:1;" d="M 61.664062 62.773438 C 65.710938 67.074219 66.382812 71.554688 63.035156 76.835938 C 59.242188 82.8125 52.40625 86.445312 43.292969 80.714844 C 34.183594 74.980469 34.792969 66.871094 38.320312 61.292969 C 42.148438 55.253906 47.671875 55.109375 51.371094 56.574219 L 48.820312 63.214844 C 47.503906 62.664062 44.808594 61.800781 42.964844 64.703125 C 41.847656 66.449219 41.261719 69.917969 47.433594 73.796875 C 51.3125 76.234375 55.664062 77.859375 58 74.160156 C 59.699219 71.519531 57.875 69.324219 56.632812 67.851562 Z M 61.664062 62.773438 "/>
<path style=" stroke:none;fill-rule:nonzero;fill:rgb(100%,100%,100%);fill-opacity:1;" d="M 66.5625 35.78125 L 76.855469 30.039062 C 78.972656 28.863281 85.46875 25.238281 88.875 31.300781 C 91.425781 35.832031 88.59375 38.398438 87.53125 39.378906 L 87.632812 39.546875 C 89.800781 38.703125 93.585938 38.066406 96.136719 42.597656 C 99.789062 49.097656 92.777344 53.011719 90.253906 54.449219 L 80.195312 60.054688 Z M 81.804688 39.71875 C 83.503906 38.785156 84.074219 37.515625 83.15625 35.882812 C 82.101562 34.011719 81.011719 33.996094 79.160156 35.035156 L 75.675781 36.984375 L 78.316406 41.683594 Z M 87.839844 49.503906 C 89.539062 48.558594 90.109375 46.898438 89.207031 45.273438 C 88.035156 43.1875 86.605469 43.273438 84.617188 44.382812 L 80.988281 46.40625 L 83.9375 51.648438 Z M 87.839844 49.503906 "/>
<path style=" stroke:none;fill-rule:nonzero;fill:rgb(100%,100%,100%);fill-opacity:1;" d="M 130.699219 45.839844 L 122.675781 46.761719 L 120.347656 41.292969 L 110.027344 42.476562 L 108.84375 48.355469 L 101.195312 49.199219 L 108.15625 20.414062 L 117.777344 19.304688 Z M 118.007812 36.058594 L 115.152344 29.828125 C 114.5 28.460938 113.953125 27.042969 113.511719 25.59375 L 113.359375 25.59375 C 113.226562 27.117188 112.992188 28.625 112.660156 30.117188 L 111.222656 36.839844 Z M 118.007812 36.058594 "/>
<path style=" stroke:none;fill-rule:nonzero;fill:rgb(100%,100%,100%);fill-opacity:1;" d="M 139.863281 37.550781 L 132.644531 18.660156 L 141.308594 20.039062 L 143.910156 27.804688 C 144.339844 29.148438 144.625 30.535156 144.761719 31.9375 L 144.945312 31.9375 C 145.636719 30.585938 146.417969 29.285156 147.285156 28.042969 L 151.875 21.699219 L 160.230469 23.03125 L 147.429688 38.691406 L 145.789062 48.851562 L 138.207031 47.644531 Z M 139.863281 37.550781 "/>
<path style=" stroke:none;fill-rule:nonzero;fill:rgb(100%,100%,100%);fill-opacity:1;" d="M 167.089844 26.085938 L 184.261719 35.070312 L 181.601562 40.117188 L 171.09375 34.613281 L 168.691406 39.175781 L 178.566406 44.347656 L 175.914062 49.394531 L 166.027344 44.222656 L 163.4375 49.125 L 174.324219 54.824219 L 171.664062 59.867188 L 154.109375 50.691406 Z M 167.089844 26.085938 "/>
<path style=" stroke:none;fill-rule:nonzero;fill:rgb(100%,100%,100%);fill-opacity:1;" d="M 196.300781 43.59375 L 204.953125 52.960938 C 206.390625 54.507812 211.246094 59.734375 205.421875 65.109375 C 202.871094 67.464844 199.988281 68.386719 196.699219 66.90625 L 191.8125 79.773438 L 186.074219 73.578125 L 190.808594 62.96875 L 188.84375 60.84375 L 180.972656 68.066406 L 175.78125 62.441406 Z M 192.898438 56.9375 L 195.550781 59.808594 C 196.214844 60.527344 197.839844 62.28125 200.167969 60.140625 C 201.351562 59.0625 201.773438 57.558594 200.082031 55.71875 L 197.398438 52.816406 Z M 192.898438 56.9375 "/>
<path style=" stroke:none;fill-rule:nonzero;fill:rgb(100%,100%,100%);fill-opacity:1;" d="M 220.289062 75.058594 L 223.238281 84.160156 L 212.410156 94.863281 C 210.878906 96.382812 209.222656 97.765625 207.453125 99.003906 L 207.5625 99.332031 C 209.339844 98.46875 211.1875 97.753906 213.082031 97.191406 L 226.097656 93 L 228.289062 99.773438 L 201.734375 108.316406 L 198.765625 99.09375 L 210.0625 87.953125 C 211.421875 86.589844 212.941406 85.398438 214.59375 84.40625 L 214.507812 84.152344 C 213.15625 84.667969 212.035156 85.152344 210.472656 85.660156 L 195.917969 90.339844 L 193.734375 83.566406 Z M 220.289062 75.058594 "/>
<path style=" stroke:none;fill-rule:nonzero;fill:rgb(100%,100%,100%);fill-opacity:1;" d="M 124.996094 53.703125 C 85.820312 53.703125 54.066406 85.335938 54.066406 124.351562 C 54.066406 163.367188 85.820312 195 124.996094 195 C 164.167969 195 195.925781 163.367188 195.925781 124.351562 C 195.925781 85.335938 164.167969 53.703125 124.996094 53.703125 "/>
<path style=" stroke:none;fill-rule:nonzero;fill:rgb(100%,100%,100%);fill-opacity:1;" d="M 124.945312 58.574219 C 88.476562 58.574219 58.910156 88.019531 58.910156 124.34375 C 58.910156 160.667969 88.476562 190.113281 124.945312 190.113281 C 161.414062 190.113281 190.980469 160.667969 190.980469 124.34375 C 190.972656 88.023438 161.414062 58.578125 124.945312 58.574219 "/>
<path style=" stroke:none;fill-rule:nonzero;fill:rgb(100%,100%,100%);fill-opacity:1;" d="M 124.945312 59.234375 C 88.835938 59.234375 59.566406 88.386719 59.566406 124.351562 C 59.566406 160.316406 88.835938 189.46875 124.945312 189.46875 C 161.054688 189.46875 190.324219 160.316406 190.324219 124.351562 C 190.324219 88.386719 161.054688 59.234375 124.945312 59.234375 "/>
<path style=" stroke:none;fill-rule:nonzero;fill:rgb(0%,36.470588%,66.27451%);fill-opacity:1;" d="M 144.480469 89.808594 L 141.914062 120.125 L 156.363281 144.816406 L 158.9375 114.496094 Z M 144.480469 89.808594 "/>
<path style=" stroke:none;fill-rule:nonzero;fill:rgb(0%,36.470588%,66.27451%);fill-opacity:1;" d="M 127.417969 95.402344 L 124.84375 125.722656 L 139.292969 150.421875 L 141.871094 120.09375 Z M 127.417969 95.402344 "/>
<path style=" stroke:none;fill-rule:nonzero;fill:rgb(0%,36.470588%,66.27451%);fill-opacity:1;" d="M 161.582031 84.261719 L 159 114.582031 L 173.457031 139.269531 L 176.035156 108.949219 Z M 161.582031 84.261719 "/>
<path style=" stroke:none;fill-rule:nonzero;fill:rgb(0%,36.470588%,66.27451%);fill-opacity:1;" d="M 176.101562 109.027344 L 189.703125 132.25 C 191.742188 116.066406 187.570312 99.710938 178.023438 86.453125 Z M 176.101562 109.027344 "/>
<path style=" stroke:none;fill-rule:nonzero;fill:rgb(0%,36.470588%,66.27451%);fill-opacity:1;" d="M 173.449219 139.347656 L 170.898438 169.691406 L 156.449219 144.941406 L 153.898438 175.296875 L 139.328125 150.488281 L 136.777344 180.84375 L 122.222656 155.984375 L 124.773438 125.628906 L 110.324219 100.890625 L 112.875 70.519531 L 127.324219 95.269531 L 129.875 64.914062 L 144.394531 89.714844 L 146.671875 62.917969 C 115.558594 51.941406 81.105469 65.777344 66.339844 95.183594 L 76.058594 111.796875 L 78.605469 81.449219 L 93.058594 106.207031 L 95.609375 75.929688 L 110.246094 100.789062 L 107.695312 131.167969 L 93.203125 106.417969 L 90.652344 136.695312 L 76.199219 111.941406 L 73.652344 142.257812 L 88.101562 166.949219 L 90.652344 136.703125 L 105.105469 161.453125 L 107.652344 131.109375 L 122.207031 155.957031 L 119.65625 186.328125 L 105.207031 161.582031 L 103.0625 185.710938 C 133.578125 196.425781 167.375 183.300781 182.554688 154.839844 Z M 173.449219 139.347656 "/>
<path style=" stroke:none;fill-rule:nonzero;fill:rgb(0%,36.470588%,66.27451%);fill-opacity:1;" d="M 149.792969 64.09375 L 161.550781 84.175781 L 162.644531 71.15625 C 158.644531 68.3125 154.332031 65.933594 149.792969 64.058594 "/>
<path style=" stroke:none;fill-rule:nonzero;fill:rgb(0%,36.470588%,66.27451%);fill-opacity:1;" d="M 97.597656 183.5 L 88.015625 167.152344 L 87.167969 177.515625 C 90.460938 179.828125 93.960938 181.835938 97.625 183.507812 "/>
<path style=" stroke:none;fill-rule:nonzero;fill:rgb(0%,36.470588%,66.27451%);fill-opacity:1;" d="M 73.472656 142.183594 L 59.675781 118.628906 C 59.515625 120.492188 59.410156 122.386719 59.410156 124.292969 C 59.386719 137.972656 63.707031 151.308594 71.753906 162.394531 Z M 73.472656 142.183594 "/>
<path style=" stroke:none;fill-rule:nonzero;fill:rgb(100%,100%,100%);fill-opacity:1;" d="M 48.855469 146.730469 L 54.199219 156.933594 L 43.6875 167.09375 C 42.578125 168.09375 41.417969 169.035156 40.207031 169.910156 L 40.335938 170.15625 C 41.890625 169.644531 43.480469 169.230469 45.089844 168.921875 L 59.175781 166.441406 L 64.375 176.371094 L 39.640625 189.222656 L 36.238281 182.722656 L 50.460938 175.296875 C 52.304688 174.339844 55.066406 173.035156 56.113281 172.671875 L 55.894531 172.257812 C 54.832031 172.585938 51.4375 173.382812 49.382812 173.746094 L 33.117188 176.785156 L 30.507812 171.800781 L 43.378906 159.097656 C 44.636719 157.871094 46.414062 156.382812 47.214844 155.710938 L 47.027344 155.367188 C 46.125 155.917969 42.996094 157.804688 40.992188 158.855469 L 27.390625 165.90625 L 24.089844 159.617188 Z M 48.855469 146.730469 "/>
<path style=" stroke:none;fill-rule:nonzero;fill:rgb(100%,100%,100%);fill-opacity:1;" d="M 91.894531 196.523438 L 101.058594 199.375 L 103.539062 214.335938 C 103.902344 216.457031 104.078125 218.605469 104.066406 220.753906 L 104.40625 220.855469 C 104.726562 218.910156 105.203125 216.992188 105.835938 215.125 L 109.914062 202.128906 L 116.714844 204.246094 L 108.386719 230.761719 L 99.1875 227.902344 L 96.578125 212.289062 C 96.242188 210.398438 96.144531 208.472656 96.289062 206.554688 L 96.023438 206.472656 C 95.667969 207.875 95.421875 209.0625 94.929688 210.628906 L 90.371094 225.15625 L 83.570312 223.039062 Z M 91.894531 196.523438 "/>
<path style=" stroke:none;fill-rule:nonzero;fill:rgb(100%,100%,100%);fill-opacity:1;" d="M 146.605469 219.855469 C 146.46875 225.785156 143.792969 229.417969 137.6875 230.863281 C 130.777344 232.480469 123.347656 230.296875 120.871094 219.855469 C 118.398438 209.417969 124.546875 204.042969 130.988281 202.535156 C 137.96875 200.898438 142.039062 204.675781 143.613281 208.273438 L 137.101562 211.203125 C 136.546875 209.890625 135.238281 207.386719 131.882812 208.179688 C 129.859375 208.65625 127 210.722656 128.675781 217.792969 C 129.722656 222.238281 131.675781 226.425781 135.953125 225.410156 C 139.003906 224.691406 139.261719 221.863281 139.414062 219.949219 Z M 146.605469 219.855469 "/>
<path style=" stroke:none;fill-rule:nonzero;fill:rgb(100%,100%,100%);fill-opacity:1;" d="M 145.863281 201.382812 L 152.640625 197.765625 L 157.554688 206.921875 L 165.679688 202.59375 L 160.757812 193.441406 L 167.523438 189.835938 L 180.703125 214.328125 L 173.925781 217.945312 L 168.375 207.613281 L 160.257812 211.941406 L 165.808594 222.261719 L 159.042969 225.878906 Z M 145.863281 201.382812 "/>
<path style=" stroke:none;fill-rule:nonzero;fill:rgb(100%,100%,100%);fill-opacity:1;" d="M 172.414062 187.242188 L 186.652344 174.128906 L 190.535156 178.300781 L 181.824219 186.335938 L 185.324219 190.113281 L 193.527344 182.5625 L 197.414062 186.742188 L 189.21875 194.304688 L 193.003906 198.367188 L 202.03125 190.046875 L 205.914062 194.226562 L 191.363281 207.640625 Z M 172.414062 187.242188 "/>
<path style=" stroke:none;fill-rule:nonzero;fill:rgb(100%,100%,100%);fill-opacity:1;" d="M 189.917969 169.742188 L 194.5 161.34375 L 209.722656 161.808594 C 211.882812 161.867188 214.03125 162.109375 216.148438 162.535156 L 216.320312 162.222656 C 214.464844 161.523438 212.671875 160.671875 210.957031 159.683594 L 198.953125 153.214844 L 202.351562 146.976562 L 226.871094 160.242188 L 222.269531 168.710938 L 206.382812 168.234375 C 204.453125 168.191406 202.535156 167.910156 200.679688 167.386719 L 200.542969 167.632812 C 201.859375 168.253906 202.980469 168.726562 204.425781 169.503906 L 217.859375 176.769531 L 214.457031 183.011719 Z M 189.917969 169.742188 "/>
<path style=" stroke:none;fill-rule:nonzero;fill:rgb(100%,100%,100%);fill-opacity:1;" d="M 67.546875 179.605469 L 73.609375 184.304688 L 62.839844 198.113281 C 61.035156 200.425781 60.457031 202.949219 62.992188 204.886719 C 65.71875 206.996094 68.089844 205.734375 69.792969 203.472656 L 80.578125 189.691406 L 86.394531 194.195312 L 75.625 208.003906 C 71.371094 213.480469 65.523438 214.074219 59.472656 209.402344 C 54.371094 205.472656 51.683594 199.917969 56.761719 193.40625 Z M 67.546875 179.605469 "/>
<path style=" stroke:none;fill-rule:nonzero;fill:rgb(100%,100%,100%);fill-opacity:1;" d="M 79.152344 188.453125 L 72.273438 193.203125 L 75.25 185.421875 Z M 79.152344 188.453125 "/>
</g>
</svg>
