<?xml version="1.0" encoding="UTF-8"?>
<svg xmlns="http://www.w3.org/2000/svg" xmlns:xlink="http://www.w3.org/1999/xlink" width="420px" height="420px" viewBox="0 0 420 420" version="1.1">
<g id="surface1">
<path style=" stroke:none;fill-rule:nonzero;fill:rgb(99.215686%,88.235294%,0%);fill-opacity:1;" d="M -0.1875 210.035156 C -0.1875 94.027344 93.804688 -0.0351562 209.8125 -0.0351562 C 325.816406 -0.0351562 419.742188 94.027344 419.742188 210.035156 C 419.742188 326.039062 325.75 420.035156 209.742188 420.035156 C 93.738281 420.035156 -0.1875 325.972656 -0.1875 210.035156 "/>
<path style=" stroke:none;fill-rule:nonzero;fill:rgb(13.72549%,12.156863%,12.54902%);fill-opacity:1;" d="M 209.78125 9.957031 C 99.382812 9.957031 9.96875 99.644531 9.96875 210.046875 C 9.96875 320.445312 99.382812 409.859375 209.78125 409.859375 C 320.183594 409.859375 409.597656 320.445312 409.597656 210.046875 C 409.597656 99.644531 320.25 9.957031 209.78125 9.957031 Z M 209.78125 21.167969 C 314.03125 21.167969 398.453125 105.796875 398.453125 210.046875 C 398.453125 314.292969 314.097656 398.71875 209.78125 398.71875 C 105.535156 398.71875 20.90625 314.363281 20.90625 210.046875 C 20.90625 105.730469 105.535156 21.167969 209.78125 21.167969 Z M 147.234375 51.65625 L 198.640625 210.59375 L 220.789062 210.59375 L 271.441406 51.65625 L 240.542969 51.65625 L 209.644531 157.75 L 178.953125 51.65625 Z M 67.800781 129.859375 L 67.800781 286.609375 L 117.019531 286.609375 C 156.871094 286.609375 177.105469 238.347656 149.351562 208.609375 L 149.351562 208.40625 C 149.351562 208.269531 149.558594 208.199219 149.558594 208.199219 C 172.59375 182.222656 162.886719 136.355469 120.027344 129.929688 L 67.800781 129.929688 Z M 271.441406 129.859375 L 271.441406 286.609375 L 320.933594 286.609375 C 360.789062 286.609375 381.023438 238.347656 353.269531 208.609375 L 353.269531 208.40625 C 353.269531 208.269531 353.472656 208.199219 353.472656 208.199219 C 376.511719 182.222656 366.804688 136.355469 323.941406 129.929688 L 271.441406 129.929688 Z M 96.578125 159.1875 L 120.847656 159.1875 C 136.570312 159.1875 139.78125 189.332031 121.804688 194.1875 L 96.578125 194.1875 Z M 300.699219 159.1875 L 324.695312 159.1875 C 340.417969 159.1875 343.699219 189.332031 325.652344 194.1875 L 300.699219 194.1875 Z M 96.578125 222.214844 L 117.976562 222.214844 C 135.75 222.214844 142.242188 254.546875 119.136719 259.058594 L 96.511719 259.058594 L 96.511719 222.214844 Z M 300.699219 222.214844 L 321.890625 222.214844 C 339.664062 222.214844 346.160156 254.546875 323.054688 259.058594 L 300.699219 259.058594 Z M 178.882812 290.027344 C 166.167969 290.027344 155.777344 300.417969 155.777344 313.132812 L 155.777344 347.859375 C 155.777344 360.574219 166.167969 370.964844 178.882812 370.964844 L 179.363281 370.964844 C 192.078125 370.964844 202.46875 360.574219 202.46875 347.859375 L 202.46875 313.132812 C 202.46875 300.417969 192.078125 290.027344 179.363281 290.027344 Z M 239.996094 290.027344 C 227.28125 290.027344 216.414062 299.9375 216.414062 312.652344 L 216.414062 318.394531 C 216.414062 331.109375 228.035156 341.363281 239.996094 341.707031 C 239.996094 341.707031 244.851562 341.636719 247.378906 340.269531 L 247.585938 348.132812 C 247.585938 352.097656 244.371094 355.582031 240.476562 355.515625 C 237.261719 355.445312 232.886719 353.804688 232.886719 349.773438 C 232.886719 349.773438 233.570312 344.507812 229.8125 344.507812 L 216.480469 344.507812 C 216.414062 345.808594 216.480469 346.558594 216.480469 348.335938 C 216.480469 360.367188 226.804688 370.964844 240.75 370.964844 C 253.941406 370.828125 263.101562 360.710938 263.101562 347.652344 L 263.101562 312.925781 C 263.101562 300.210938 253.191406 290.09375 240.476562 290.09375 L 239.996094 290.09375 Z M 240.269531 306.433594 C 244.441406 306.433594 247.652344 309.578125 247.652344 313.542969 L 247.652344 318.054688 C 247.652344 322.019531 244.507812 325.164062 240.542969 325.164062 C 236.375 325.164062 232.957031 322.019531 232.957031 318.054688 L 232.957031 313.542969 C 232.886719 309.578125 236.304688 306.433594 240.269531 306.433594 Z M 178.882812 306.636719 C 183.121094 306.636719 186.472656 309.78125 186.472656 313.746094 L 186.472656 348.269531 C 186.472656 352.234375 183.054688 355.378906 179.089844 355.378906 C 174.917969 355.378906 171.707031 352.234375 171.707031 348.269531 L 171.707031 313.746094 C 171.773438 309.78125 174.917969 306.636719 178.882812 306.636719 Z M 178.882812 306.636719 "/>
</g>
</svg>
