<?xml version="1.0" encoding="UTF-8"?>
<svg xmlns="http://www.w3.org/2000/svg" xmlns:xlink="http://www.w3.org/1999/xlink" width="250px" height="250px" viewBox="0 0 250 250" version="1.1">
<g id="surface1">
<path style=" stroke:none;fill-rule:nonzero;fill:rgb(99.215686%,88.235294%,0%);fill-opacity:1;" d="M -0.113281 125.019531 C -0.113281 55.96875 55.835938 -0.0195312 124.886719 -0.0195312 C 193.9375 -0.0195312 249.847656 55.96875 249.847656 125.019531 C 249.847656 194.070312 193.898438 250.019531 124.847656 250.019531 C 55.796875 250.019531 -0.113281 194.03125 -0.113281 125.019531 "/>
<path style=" stroke:none;fill-rule:nonzero;fill:rgb(13.72549%,12.156863%,12.54902%);fill-opacity:1;" d="M 124.871094 5.925781 C 59.15625 5.925781 5.933594 59.3125 5.933594 125.027344 C 5.933594 190.742188 59.15625 243.964844 124.871094 243.964844 C 190.585938 243.964844 243.808594 190.742188 243.808594 125.027344 C 243.808594 59.3125 190.625 5.925781 124.871094 5.925781 Z M 124.871094 12.601562 C 186.921875 12.601562 237.175781 62.972656 237.175781 125.027344 C 237.175781 187.078125 186.960938 237.332031 124.871094 237.332031 C 62.820312 237.332031 12.445312 187.121094 12.445312 125.027344 C 12.445312 62.933594 62.820312 12.601562 124.871094 12.601562 Z M 87.640625 30.746094 L 118.238281 125.351562 L 131.421875 125.351562 L 161.570312 30.746094 L 143.179688 30.746094 L 124.789062 93.898438 L 106.519531 30.746094 Z M 40.359375 77.296875 L 40.359375 170.601562 L 69.65625 170.601562 C 93.375 170.601562 105.421875 141.875 88.898438 124.171875 L 88.898438 124.050781 C 88.898438 123.96875 89.023438 123.929688 89.023438 123.929688 C 102.734375 108.464844 96.957031 81.164062 71.445312 77.339844 L 40.359375 77.339844 Z M 161.570312 77.296875 L 161.570312 170.601562 L 191.03125 170.601562 C 214.753906 170.601562 226.800781 141.875 210.28125 124.171875 L 210.28125 124.050781 C 210.28125 123.96875 210.398438 123.929688 210.398438 123.929688 C 224.113281 108.464844 218.335938 81.164062 192.820312 77.339844 L 161.570312 77.339844 Z M 57.488281 94.753906 L 71.933594 94.753906 C 81.292969 94.753906 83.203125 112.699219 72.503906 115.585938 L 57.488281 115.585938 Z M 178.988281 94.753906 L 193.269531 94.753906 C 202.628906 94.753906 204.582031 112.699219 193.839844 115.585938 L 178.988281 115.585938 Z M 57.488281 132.269531 L 70.222656 132.269531 C 80.804688 132.269531 84.667969 151.515625 70.914062 154.203125 L 57.449219 154.203125 L 57.449219 132.269531 Z M 178.988281 132.269531 L 191.601562 132.269531 C 202.179688 132.269531 206.046875 151.515625 192.292969 154.203125 L 178.988281 154.203125 Z M 106.476562 172.636719 C 98.910156 172.636719 92.726562 178.820312 92.726562 186.386719 L 92.726562 207.058594 C 92.726562 214.628906 98.910156 220.8125 106.476562 220.8125 L 106.765625 220.8125 C 114.332031 220.8125 120.515625 214.628906 120.515625 207.058594 L 120.515625 186.386719 C 120.515625 178.820312 114.332031 172.636719 106.765625 172.636719 Z M 142.855469 172.636719 C 135.285156 172.636719 128.816406 178.535156 128.816406 186.101562 L 128.816406 189.519531 C 128.816406 197.089844 135.734375 203.191406 142.855469 203.398438 C 142.855469 203.398438 145.746094 203.355469 147.25 202.542969 L 147.371094 207.222656 C 147.371094 209.582031 145.460938 211.65625 143.140625 211.617188 C 141.226562 211.574219 138.625 210.597656 138.625 208.199219 C 138.625 208.199219 139.03125 205.0625 136.792969 205.0625 L 128.859375 205.0625 C 128.816406 205.839844 128.859375 206.285156 128.859375 207.34375 C 128.859375 214.503906 135.003906 220.8125 143.304688 220.8125 C 151.15625 220.730469 156.609375 214.707031 156.609375 206.9375 L 156.609375 186.265625 C 156.609375 178.695312 150.710938 172.675781 143.140625 172.675781 L 142.855469 172.675781 Z M 143.015625 182.402344 C 145.5 182.402344 147.414062 184.273438 147.414062 186.632812 L 147.414062 189.316406 C 147.414062 191.679688 145.539062 193.550781 143.179688 193.550781 C 140.699219 193.550781 138.664062 191.679688 138.664062 189.316406 L 138.664062 186.632812 C 138.625 184.273438 140.65625 182.402344 143.015625 182.402344 Z M 106.476562 182.523438 C 109 182.523438 110.996094 184.394531 110.996094 186.753906 L 110.996094 207.304688 C 110.996094 209.664062 108.960938 211.535156 106.601562 211.535156 C 104.117188 211.535156 102.207031 209.664062 102.207031 207.304688 L 102.207031 186.753906 C 102.246094 184.394531 104.117188 182.523438 106.476562 182.523438 Z M 106.476562 182.523438 "/>
</g>
</svg>
