<?xml version="1.0" encoding="UTF-8"?>
<svg xmlns="http://www.w3.org/2000/svg" xmlns:xlink="http://www.w3.org/1999/xlink" width="250px" height="250px" viewBox="0 0 250 250" version="1.1">
<g id="surface1">
<path style=" stroke:none;fill-rule:nonzero;fill:rgb(85.882353%,63.137255%,6.666667%);fill-opacity:1;" d="M 250 125 C 250 194.042969 194.035156 250 125 250 C 55.964844 250 0 194.039062 0 125 C 0 55.96875 55.964844 0 125 0 C 194.035156 0 250 55.96875 250 125 "/>
<path style=" stroke:none;fill-rule:nonzero;fill:rgb(1.176471%,27.45098%,58.039216%);fill-opacity:1;" d="M 245.828125 125 C 245.828125 191.734375 191.734375 245.828125 125 245.828125 C 58.261719 245.828125 4.167969 191.734375 4.167969 125 C 4.167969 58.265625 58.265625 4.167969 125 4.167969 C 191.730469 4.167969 245.828125 58.265625 245.828125 125 "/>
<path style=" stroke:none;fill-rule:nonzero;fill:rgb(85.882353%,63.137255%,6.666667%);fill-opacity:1;" d="M 211.109375 125 C 211.109375 172.558594 172.554688 211.101562 125 211.101562 C 77.441406 211.101562 38.886719 172.554688 38.886719 125 C 38.886719 77.4375 77.441406 38.890625 125 38.890625 C 172.554688 38.886719 211.109375 77.441406 211.109375 125 "/>
<path style=" stroke:none;fill-rule:nonzero;fill:rgb(100%,100%,100%);fill-opacity:1;" d="M 208.5 125 C 208.5 171.121094 171.109375 208.503906 125 208.503906 C 78.878906 208.503906 41.496094 171.117188 41.496094 125 C 41.496094 78.882812 78.882812 41.496094 125 41.496094 C 171.113281 41.496094 208.5 78.882812 208.5 125 "/>
<path style=" stroke:none;fill-rule:nonzero;fill:rgb(85.882353%,63.137255%,6.666667%);fill-opacity:1;" d="M 53.449219 197.039062 C 54.375 197.921875 56.648438 200.085938 56.648438 200.085938 L 58.828125 197.792969 L 52.328125 191.597656 L 51.492188 192.472656 L 42.765625 201.621094 L 46.078125 204.777344 C 46.078125 204.777344 48.875 201.84375 49.898438 200.773438 L 52.808594 203.542969 L 54.988281 201.253906 L 52.082031 198.480469 C 52.625 197.90625 52.902344 197.617188 53.449219 197.039062 M 69.125 207.488281 C 68.832031 205.730469 67.84375 204.183594 66.355469 203.125 C 64.90625 202.078125 63.101562 201.65625 61.335938 201.941406 C 59.445312 202.265625 57.75 203.363281 56.554688 205.039062 C 55.359375 206.722656 54.878906 208.6875 55.199219 210.585938 C 55.496094 212.335938 56.472656 213.875 57.960938 214.933594 C 59.445312 215.992188 61.242188 216.414062 62.992188 216.117188 C 64.882812 215.796875 66.582031 214.699219 67.773438 213.015625 C 68.726562 211.6875 69.222656 210.160156 69.222656 208.636719 C 69.222656 208.257812 69.191406 207.867188 69.125 207.488281 M 59.792969 212.347656 C 58.273438 211.273438 59.527344 209.027344 60.414062 207.792969 C 61.292969 206.546875 63.007812 204.625 64.523438 205.695312 C 66.109375 206.828125 64.628906 209.277344 63.917969 210.273438 C 63.203125 211.277344 61.378906 213.480469 59.792969 212.347656 Z M 79.339844 210.957031 C 75.84375 209.1875 71.800781 210.636719 69.941406 214.320312 C 69.011719 216.160156 68.828125 218.179688 69.425781 220 C 69.980469 221.6875 71.179688 223.066406 72.808594 223.886719 C 74.402344 224.710938 76.257812 224.859375 77.960938 224.304688 C 79.777344 223.714844 81.292969 222.371094 82.21875 220.53125 C 84.085938 216.839844 82.84375 212.726562 79.339844 210.957031 M 75.472656 221.191406 C 75.0625 221.324219 74.671875 221.28125 74.234375 221.0625 C 73.539062 220.710938 73.292969 220.078125 73.292969 219.375 C 73.292969 218.398438 73.765625 217.246094 74.160156 216.460938 C 74.851562 215.097656 76.253906 212.945312 77.917969 213.78125 C 78.355469 214.007812 78.617188 214.296875 78.75 214.703125 C 79.027344 215.542969 78.75 216.921875 78 218.398438 C 77.25 219.871094 76.308594 220.914062 75.472656 221.191406 Z M 86.5625 216.019531 L 85.917969 217.867188 C 85.917969 217.867188 87.566406 218.445312 88.066406 218.609375 L 84.53125 228.699219 L 88.839844 230.210938 C 88.839844 230.210938 91.75 221.933594 92.378906 220.128906 L 94.53125 220.875 L 95.574219 217.902344 L 86.964844 214.878906 L 86.5625 216.019531 M 104.46875 220.019531 L 98.636719 218.792969 L 98.390625 219.976562 L 95.785156 232.34375 L 101.714844 233.601562 C 103.609375 233.992188 104.859375 233.527344 105.570312 233.066406 C 106.472656 232.480469 107.105469 231.511719 107.351562 230.355469 C 107.417969 230.042969 107.449219 229.738281 107.449219 229.4375 C 107.449219 228.601562 107.183594 227.851562 106.707031 227.203125 C 107.375 226.671875 107.851562 225.925781 108.050781 224.992188 C 108.097656 224.75 108.128906 224.476562 108.128906 224.191406 C 108.132812 222.605469 107.226562 220.597656 104.46875 220.019531 M 102.863281 229.464844 C 102.800781 229.746094 102.6875 230.121094 102.472656 230.261719 C 102.273438 230.386719 101.898438 230.402344 101.402344 230.296875 C 101.402344 230.296875 101.179688 230.246094 100.914062 230.195312 C 101.101562 229.304688 101.230469 228.710938 101.414062 227.816406 C 101.667969 227.875 101.992188 227.941406 101.992188 227.941406 C 102.757812 228.101562 102.902344 228.667969 102.902344 229.078125 C 102.902344 229.242188 102.882812 229.382812 102.863281 229.464844 Z M 102.464844 222.84375 C 102.976562 222.960938 103.351562 223.148438 103.496094 223.367188 C 103.566406 223.492188 103.601562 223.632812 103.597656 223.777344 C 103.597656 223.875 103.582031 223.992188 103.558594 224.132812 C 103.480469 224.496094 103.371094 224.996094 102.363281 224.792969 C 102.363281 224.792969 102.238281 224.757812 102.066406 224.722656 C 102.226562 223.96875 102.300781 223.597656 102.464844 222.84375 Z M 115.226562 222.035156 L 108.894531 234.996094 L 112.507812 235.273438 L 113.878906 232.386719 C 114.644531 232.449219 115.410156 232.503906 116.160156 232.5625 L 117.144531 235.625 L 121.953125 235.996094 L 116.578125 219.339844 L 115.226562 222.035156 M 129.496094 232.382812 L 129.054688 221.863281 L 124.484375 222.058594 L 125.0625 235.898438 L 134.214844 235.519531 L 134.078125 232.195312 C 134.078125 232.195312 130.808594 232.332031 129.496094 232.382812 M 142.023438 231.058594 C 141.730469 229.183594 140.394531 220.660156 140.394531 220.660156 L 139.195312 220.847656 L 135.875 221.367188 L 138.019531 235.058594 L 147.070312 233.636719 L 146.554688 230.351562 C 146.554688 230.351562 143.324219 230.859375 142.023438 231.058594 M 168.234375 221.847656 C 168.199219 223.035156 167.5 224.058594 166.40625 224.488281 C 165.800781 224.730469 165.226562 224.730469 164.644531 224.484375 C 163.757812 224.105469 162.933594 223.144531 162.441406 221.90625 C 161.863281 220.449219 161.742188 219.210938 162.121094 218.34375 C 162.382812 217.734375 162.894531 217.277344 163.683594 216.964844 C 164.535156 216.628906 165.339844 216.941406 166.445312 217.589844 L 167.460938 218.1875 L 169.148438 215.527344 L 168.144531 214.871094 C 166.308594 213.660156 164.03125 213.417969 162.0625 214.203125 C 160.234375 214.929688 158.816406 216.292969 158.066406 218.035156 C 157.308594 219.804688 157.308594 221.828125 158.082031 223.746094 C 159.535156 227.382812 163.644531 229.171875 167.238281 227.734375 C 169.835938 226.699219 171.304688 224.722656 171.492188 222.027344 L 171.578125 220.824219 L 168.269531 220.582031 L 168.234375 221.847656 M 178.894531 218.070312 C 177.960938 216.40625 173.753906 208.867188 173.753906 208.867188 L 172.703125 209.460938 L 169.761719 211.101562 L 176.523438 223.195312 L 184.511719 218.730469 L 182.894531 215.828125 C 182.894531 215.828125 180.035156 217.421875 178.894531 218.070312 M 187.785156 199.417969 L 186.804688 200.132812 L 185.089844 201.398438 L 190.699219 209.046875 C 190.957031 209.390625 190.957031 209.621094 190.929688 209.757812 C 190.878906 210.152344 190.46875 210.578125 190.105469 210.839844 C 189.816406 211.027344 189.472656 211.109375 189.132812 211.0625 C 188.84375 211.023438 188.613281 210.863281 188.410156 210.589844 L 182.867188 203.03125 L 179.171875 205.734375 L 184.6875 213.257812 C 185.507812 214.375 186.523438 215.03125 187.710938 215.210938 C 189.039062 215.421875 190.554688 214.96875 191.960938 213.929688 C 194.851562 211.816406 194.804688 209.003906 193.542969 207.285156 L 187.785156 199.417969 M 204.617188 196.636719 C 203.761719 195.757812 202.714844 195.359375 201.613281 195.417969 C 201.554688 194.53125 201.175781 193.695312 200.554688 193.058594 C 199.398438 191.867188 196.816406 190.9375 194.4375 193.253906 L 190.160156 197.390625 L 199.800781 207.34375 L 204.152344 203.125 C 205.542969 201.777344 205.847656 200.472656 205.863281 199.628906 C 205.886719 198.546875 205.445312 197.488281 204.617188 196.636719 M 197.332031 196.300781 C 197.476562 196.457031 197.652344 196.632812 197.652344 196.882812 C 197.652344 197.085938 197.542969 197.339844 197.210938 197.65625 L 196.996094 197.871094 C 196.457031 197.3125 196.199219 197.050781 195.652344 196.484375 C 196.617188 195.601562 197.015625 195.980469 197.332031 196.300781 Z M 199.617188 199.730469 C 200.398438 198.976562 201.148438 199.636719 201.363281 199.863281 C 201.570312 200.070312 201.808594 200.363281 201.808594 200.621094 L 201.808594 200.628906 C 201.800781 200.863281 201.605469 201.191406 201.246094 201.539062 C 201.246094 201.539062 201.078125 201.699219 200.878906 201.886719 C 200.253906 201.234375 199.824219 200.796875 199.195312 200.148438 C 199.378906 199.960938 199.617188 199.730469 199.617188 199.730469 Z M 199.617188 199.730469 "/>
<path style=" stroke:none;fill-rule:nonzero;fill:rgb(100%,100%,100%);fill-opacity:1;" d="M 53.421875 195.757812 C 53.796875 196.117188 56.613281 198.804688 56.613281 198.804688 L 57.539062 197.824219 L 52.355469 192.878906 L 52.144531 193.097656 L 44.050781 201.589844 L 46.042969 203.496094 C 46.042969 203.496094 49.492188 199.878906 49.863281 199.484375 L 52.777344 202.257812 L 53.707031 201.285156 L 50.792969 198.511719 C 51.132812 198.15625 53.085938 196.101562 53.421875 195.757812 M 65.824219 203.863281 C 64.539062 202.945312 63.003906 202.582031 61.492188 202.835938 C 59.832031 203.121094 58.347656 204.089844 57.292969 205.570312 C 56.238281 207.054688 55.816406 208.777344 56.097656 210.425781 C 56.351562 211.941406 57.199219 213.28125 58.488281 214.1875 C 59.742188 215.097656 61.3125 215.46875 62.84375 215.214844 C 64.492188 214.9375 65.980469 213.964844 67.03125 212.496094 C 67.871094 211.308594 68.3125 209.964844 68.3125 208.632812 C 68.3125 208.304688 68.285156 207.964844 68.230469 207.632812 C 67.976562 206.125 67.121094 204.785156 65.824219 203.863281 M 64.65625 210.804688 C 63.785156 212.019531 61.519531 214.695312 59.269531 213.089844 C 57.019531 211.496094 58.804688 208.484375 59.671875 207.257812 C 60.539062 206.035156 62.804688 203.363281 65.046875 204.957031 C 67.300781 206.566406 65.523438 209.582031 64.65625 210.804688 Z M 78.929688 211.769531 C 75.894531 210.238281 72.378906 211.511719 70.75 214.738281 C 69.929688 216.355469 69.769531 218.121094 70.289062 219.722656 C 70.765625 221.175781 71.804688 222.363281 73.21875 223.074219 C 74.632812 223.792969 76.21875 223.925781 77.679688 223.445312 C 79.265625 222.921875 80.589844 221.742188 81.414062 220.125 C 83.039062 216.898438 81.972656 213.304688 78.929688 211.769531 M 73.820312 221.871094 C 71.363281 220.632812 72.671875 217.382812 73.351562 216.046875 C 74.027344 214.703125 75.863281 211.726562 78.320312 212.972656 C 78.972656 213.296875 79.410156 213.785156 79.617188 214.421875 C 80.097656 215.890625 79.316406 217.796875 78.804688 218.808594 C 78.296875 219.808594 77.226562 221.566406 75.75 222.050781 C 75.125 222.265625 74.472656 222.203125 73.820312 221.871094 Z M 87.421875 216.316406 L 87.074219 217.304688 L 89.222656 218.058594 C 89.03125 218.597656 85.683594 228.140625 85.683594 228.140625 L 88.285156 229.058594 C 88.285156 229.058594 91.636719 219.511719 91.824219 218.972656 L 93.96875 219.722656 L 94.417969 218.453125 L 87.519531 216.03125 L 87.421875 216.316406 M 104.285156 220.90625 L 99.34375 219.867188 L 99.277344 220.164062 L 96.863281 231.648438 L 101.902344 232.707031 C 103.1875 232.976562 104.25 232.84375 105.074219 232.304688 C 105.789062 231.835938 106.269531 231.09375 106.464844 230.171875 C 106.515625 229.917969 106.542969 229.679688 106.542969 229.445312 C 106.542969 228.4375 106.046875 227.585938 105.15625 226.980469 C 106.183594 226.683594 106.921875 225.925781 107.160156 224.800781 C 107.203125 224.625 107.226562 224.417969 107.226562 224.183594 C 107.222656 223.03125 106.617188 221.398438 104.285156 220.90625 M 102.554688 221.921875 C 103.386719 222.097656 103.960938 222.417969 104.253906 222.867188 C 104.421875 223.125 104.503906 223.425781 104.503906 223.773438 C 104.503906 223.945312 104.484375 224.121094 104.445312 224.3125 C 104.121094 225.839844 102.886719 225.828125 102.179688 225.671875 C 102.179688 225.671875 101.425781 225.515625 100.992188 225.425781 C 101.09375 224.953125 101.664062 222.226562 101.761719 221.757812 C 102.078125 221.820312 102.554688 221.921875 102.554688 221.921875 Z M 102.175781 227.050781 C 103.582031 227.34375 103.800781 228.453125 103.800781 229.125 C 103.800781 229.410156 103.753906 229.617188 103.75 229.652344 C 103.609375 230.316406 103.355469 230.765625 102.96875 231.015625 C 102.554688 231.289062 101.964844 231.34375 101.214844 231.191406 C 101.214844 231.191406 100.316406 230.996094 99.835938 230.902344 L 100.714844 226.742188 C 101.125 226.828125 102.175781 227.050781 102.175781 227.050781 Z M 116.042969 222.433594 L 110.300781 234.195312 L 111.953125 234.320312 C 111.953125 234.320312 113.171875 231.761719 113.332031 231.433594 L 116.839844 231.707031 C 116.949219 232.046875 117.824219 234.769531 117.824219 234.769531 L 120.675781 234.992188 L 116.410156 221.761719 L 116.042969 222.433594 M 115.414062 227.164062 C 115.6875 228.050781 116.226562 229.761719 116.402344 230.320312 C 115.832031 230.28125 114.527344 230.179688 113.964844 230.136719 Z M 128.625 233.328125 L 128.179688 222.8125 L 127.886719 222.824219 L 125.425781 222.925781 L 125.929688 234.957031 L 133.269531 234.640625 L 133.203125 233.140625 C 133.207031 233.140625 129.15625 233.3125 128.625 233.328125 M 141.269531 232.105469 C 141.179688 231.535156 139.632812 221.691406 139.632812 221.691406 L 139.339844 221.742188 L 136.914062 222.125 L 138.777344 234.015625 L 146.03125 232.871094 L 145.800781 231.386719 C 145.800781 231.386719 141.789062 232.015625 141.269531 232.105469 M 169.140625 221.871094 C 169.097656 223.4375 168.175781 224.761719 166.742188 225.339844 C 165.910156 225.667969 165.085938 225.660156 164.289062 225.316406 C 163.167969 224.84375 162.1875 223.71875 161.589844 222.242188 C 160.921875 220.558594 160.816406 219.085938 161.28125 217.980469 C 161.644531 217.148438 162.335938 216.523438 163.347656 216.121094 C 164.664062 215.59375 165.878906 216.195312 166.902344 216.804688 L 167.160156 216.953125 L 167.898438 215.792969 L 167.652344 215.625 C 166.058594 214.582031 164.09375 214.363281 162.398438 215.042969 C 160.792969 215.6875 159.546875 216.871094 158.902344 218.394531 C 158.238281 219.933594 158.242188 221.71875 158.925781 223.398438 C 160.191406 226.578125 163.765625 228.140625 166.90625 226.886719 C 169.183594 225.972656 170.417969 224.324219 170.585938 221.960938 L 170.609375 221.660156 L 169.152344 221.558594 L 169.140625 221.871094 M 178.542969 219.304688 C 178.261719 218.808594 173.40625 210.105469 173.40625 210.105469 L 173.136719 210.257812 L 170.996094 211.453125 L 176.863281 221.957031 L 183.273438 218.375 L 182.546875 217.0625 C 182.546875 217.0625 178.996094 219.039062 178.542969 219.304688 M 187.585938 200.683594 L 187.339844 200.867188 L 186.355469 201.585938 L 191.429688 208.5 C 191.769531 208.96875 191.902344 209.429688 191.832031 209.886719 C 191.710938 210.707031 190.960938 211.34375 190.644531 211.5625 C 190.167969 211.902344 189.578125 212.042969 188.996094 211.957031 C 188.460938 211.878906 188.023438 211.597656 187.671875 211.125 L 182.664062 204.292969 L 180.445312 205.929688 L 185.421875 212.714844 C 186.09375 213.628906 186.910156 214.167969 187.847656 214.308594 C 189.328125 214.53125 190.722656 213.707031 191.421875 213.195312 C 193.820312 211.429688 193.855469 209.222656 192.816406 207.816406 L 187.585938 200.683594 M 203.960938 197.269531 C 203.03125 196.304688 201.839844 196.085938 200.605469 196.5625 C 200.707031 196.28125 200.757812 195.984375 200.761719 195.6875 C 200.761719 194.96875 200.476562 194.273438 199.902344 193.683594 C 199.128906 192.886719 197.125 191.902344 195.070312 193.898438 L 191.445312 197.410156 L 199.816406 206.054688 L 203.523438 202.457031 C 204.457031 201.5625 204.945312 200.59375 204.957031 199.613281 C 204.972656 198.761719 204.625 197.953125 203.960938 197.269531 M 198.554688 196.894531 C 198.554688 197.5 198.164062 197.996094 197.84375 198.308594 C 197.84375 198.308594 197.285156 198.847656 196.972656 199.160156 C 196.636719 198.8125 194.695312 196.8125 194.363281 196.457031 C 194.585938 196.238281 194.941406 195.902344 194.941406 195.902344 C 196.074219 194.796875 197.066406 194.726562 197.980469 195.671875 C 198.402344 196.101562 198.554688 196.515625 198.554688 196.894531 Z M 200.863281 203.167969 C 200.519531 202.8125 198.257812 200.472656 197.910156 200.117188 C 198.210938 199.832031 198.984375 199.074219 198.984375 199.074219 C 200.457031 197.65625 201.957031 199.160156 202.019531 199.230469 C 202.488281 199.710938 202.714844 200.167969 202.714844 200.621094 L 202.714844 200.636719 C 202.707031 201.136719 202.421875 201.65625 201.875 202.195312 C 201.875 202.195312 201.15625 202.886719 200.863281 203.167969 Z M 200.863281 203.167969 "/>
<path style=" stroke:none;fill-rule:nonzero;fill:rgb(85.882353%,63.137255%,6.666667%);fill-opacity:1;" d="M 69.464844 42.65625 L 64.414062 44.015625 L 64.992188 45.828125 C 65.691406 48.019531 65.058594 50.320312 63.347656 51.820312 C 62.398438 52.652344 61.296875 53.035156 60.085938 52.953125 C 58.246094 52.828125 56.167969 51.636719 54.53125 49.761719 C 52.601562 47.550781 51.636719 45.421875 51.761719 43.621094 C 51.84375 42.304688 52.484375 41.152344 53.710938 40.074219 C 55.066406 38.886719 56.785156 38.933594 59.117188 39.398438 L 60.84375 39.738281 L 61.964844 34.898438 L 60.226562 34.476562 C 56.480469 33.550781 52.578125 34.460938 49.792969 36.898438 C 44.339844 41.667969 43.894531 49.460938 48.757812 55.023438 C 53.277344 60.191406 61.121094 60.757812 66.234375 56.285156 C 69.917969 53.070312 71.199219 48.953125 69.949219 44.398438 L 69.464844 42.65625 M 83.183594 17.3125 L 78.023438 19.742188 C 78.023438 19.742188 80.90625 25.847656 81.894531 27.949219 C 80.425781 28.644531 78.996094 29.316406 77.523438 30.011719 L 73.648438 21.800781 L 66.851562 25.011719 L 77.199219 46.960938 L 84.003906 43.757812 C 84.003906 43.757812 80.796875 36.964844 79.765625 34.765625 C 81.234375 34.074219 82.660156 33.402344 84.136719 32.703125 L 88.375 41.691406 L 95.175781 38.484375 L 84.828125 16.535156 L 83.183594 17.3125 M 106.195312 30.910156 C 105.863281 29.277344 105.527344 27.613281 105.199219 25.980469 L 112.878906 24.433594 L 111.898438 19.554688 L 104.214844 21.109375 C 103.914062 19.613281 103.660156 18.359375 103.355469 16.867188 L 111.507812 15.21875 L 110.523438 10.347656 L 108.734375 10.707031 L 95.003906 13.484375 L 99.804688 37.273438 L 115.449219 34.113281 L 114.46875 29.238281 C 114.46875 29.238281 108.390625 30.464844 106.195312 30.910156 M 128.382812 9.78125 L 120.859375 9.625 L 120.824219 11.441406 L 120.351562 33.890625 L 136.144531 34.222656 L 136.257812 28.964844 C 136.257812 28.964844 130.195312 28.835938 127.980469 28.792969 L 128.382812 9.78125 M 152.765625 22.023438 C 150.8125 20.589844 150.242188 20.011719 150.441406 19.230469 C 150.539062 18.824219 150.980469 17.527344 152.382812 17.875 C 153.226562 18.09375 154.066406 18.539062 154.441406 20.351562 L 154.851562 22.367188 L 159.820312 20.6875 L 159.507812 19.121094 C 158.898438 16.050781 156.300781 13.433594 153.035156 12.621094 C 150.703125 12.039062 148.359375 12.347656 146.441406 13.503906 C 144.691406 14.539062 143.433594 16.230469 142.945312 18.203125 C 141.695312 23.179688 145.054688 25.574219 147.269531 27.160156 C 149.539062 28.785156 150.121094 29.421875 149.773438 30.78125 C 149.667969 31.199219 149.398438 31.558594 149.023438 31.777344 C 148.566406 32.042969 148 32.140625 147.53125 32.019531 C 146.339844 31.726562 145.820312 31.160156 145.320312 29.617188 L 144.710938 27.765625 L 139.722656 29.804688 L 140.207031 31.386719 C 141.140625 34.460938 143.371094 36.398438 147.023438 37.3125 C 151.125 38.339844 156.101562 36.453125 157.34375 31.527344 C 158.636719 26.339844 155.101562 23.738281 152.765625 22.023438 M 170.714844 34.964844 L 177.703125 38.5 L 179.949219 34.0625 C 179.949219 34.0625 174.867188 31.496094 172.960938 30.53125 C 173.644531 29.167969 174.226562 28.023438 174.90625 26.667969 L 182.332031 30.417969 L 184.570312 25.980469 L 170.441406 18.84375 L 169.625 20.460938 L 159.492188 40.503906 L 173.738281 47.695312 L 175.984375 43.261719 L 168.453125 39.457031 C 169.195312 37.96875 169.964844 36.457031 170.714844 34.964844 M 198.851562 37.234375 L 176.210938 48.945312 L 180.542969 52.710938 C 180.542969 52.710938 184.28125 50.722656 185.636719 50.011719 L 189.128906 53.050781 C 188.644531 54.492188 187.261719 58.554688 187.261719 58.554688 L 193.226562 63.746094 L 202.902344 35.207031 L 198.851562 37.234375 "/>
<path style=" stroke:none;fill-rule:nonzero;fill:rgb(100%,100%,100%);fill-opacity:1;" d="M 68.617188 44.128906 L 65.949219 44.855469 L 66.144531 45.460938 C 66.992188 48.121094 66.226562 50.910156 64.140625 52.730469 C 62.945312 53.78125 61.546875 54.265625 60.003906 54.164062 C 57.816406 54.019531 55.492188 52.707031 53.613281 50.558594 C 51.46875 48.101562 50.402344 45.671875 50.542969 43.53125 C 50.65625 41.910156 51.449219 40.4375 52.910156 39.160156 C 54.824219 37.484375 57.242188 37.792969 59.347656 38.207031 L 59.929688 38.320312 L 60.511719 35.792969 L 59.929688 35.648438 C 56.566406 34.820312 53.078125 35.628906 50.585938 37.808594 C 45.65625 42.128906 45.257812 49.179688 49.667969 54.226562 C 53.746094 58.890625 60.820312 59.402344 65.4375 55.371094 C 68.785156 52.433594 69.910156 48.855469 68.773438 44.71875 L 68.617188 44.128906 M 83.699219 18.402344 L 79.640625 20.320312 L 83.507812 28.523438 C 82.640625 28.9375 77.816406 31.210938 76.941406 31.621094 C 76.492188 30.667969 73.078125 23.414062 73.078125 23.414062 L 68.464844 25.589844 L 77.78125 45.34375 L 82.390625 43.175781 L 78.152344 34.1875 C 79.027344 33.773438 83.847656 31.503906 84.71875 31.089844 C 85.175781 32.058594 88.957031 40.082031 88.957031 40.082031 L 93.5625 37.90625 L 84.246094 18.148438 L 83.699219 18.402344 M 105.242188 32.339844 C 105.054688 31.390625 103.960938 25.984375 103.773438 25.035156 L 111.453125 23.484375 L 110.949219 20.988281 L 103.265625 22.535156 C 103.082031 21.605469 102.117188 16.847656 101.9375 15.917969 C 102.953125 15.710938 110.082031 14.277344 110.082031 14.277344 L 109.574219 11.777344 L 96.429688 14.429688 L 100.753906 35.84375 L 114.023438 33.164062 L 113.519531 30.667969 L 105.242188 32.339844 M 127.144531 10.96875 L 122.050781 10.859375 L 122.039062 11.460938 L 121.589844 32.699219 L 134.964844 32.984375 L 135.027344 30.148438 L 126.746094 29.976562 C 126.773438 28.84375 127.144531 10.972656 127.144531 10.96875 M 152.675781 16.703125 C 154.296875 17.109375 155.230469 18.191406 155.628906 20.109375 L 155.765625 20.78125 L 158.425781 19.882812 L 158.324219 19.359375 C 157.800781 16.742188 155.5625 14.503906 152.746094 13.796875 C 150.726562 13.292969 148.710938 13.558594 147.066406 14.542969 C 145.597656 15.414062 144.535156 16.839844 144.121094 18.5 C 143.074219 22.675781 145.792969 24.617188 147.976562 26.175781 C 150.183594 27.757812 151.515625 28.835938 150.945312 31.074219 C 150.769531 31.8125 150.296875 32.441406 149.640625 32.820312 C 148.917969 33.253906 148.054688 33.386719 147.234375 33.199219 C 145.625 32.796875 144.796875 31.929688 144.167969 29.996094 L 143.960938 29.378906 L 141.203125 30.503906 L 141.363281 31.03125 C 142.164062 33.667969 144.113281 35.335938 147.320312 36.140625 C 150.84375 37.019531 155.109375 35.425781 156.164062 31.230469 C 157.257812 26.832031 154.371094 24.703125 152.035156 22.996094 C 150.050781 21.53125 148.855469 20.554688 149.261719 18.9375 C 149.621094 17.492188 150.820312 16.238281 152.675781 16.703125 M 174.371094 25.042969 L 181.789062 28.789062 L 182.945312 26.515625 L 170.980469 20.46875 L 170.707031 21.011719 L 161.128906 39.972656 L 173.203125 46.074219 L 174.355469 43.800781 L 166.828125 39.992188 C 167.261719 39.128906 169.75 34.210938 170.183594 33.34375 C 171.101562 33.8125 177.167969 36.878906 177.167969 36.878906 L 178.328125 34.601562 C 178.328125 34.601562 172.25 31.539062 171.332031 31.070312 L 174.371094 25.042969 M 199.40625 38.3125 L 178.355469 49.207031 L 180.710938 51.25 L 185.804688 48.550781 L 190.542969 52.671875 C 190.320312 53.339844 188.667969 58.171875 188.667969 58.171875 L 192.664062 61.644531 L 200.796875 37.660156 L 199.40625 38.3125 M 188.242188 47.296875 C 189.238281 46.78125 191.78125 45.460938 193.335938 44.652344 C 192.757812 46.300781 191.804688 49.019531 191.441406 50.074219 C 190.375 49.144531 189.308594 48.21875 188.242188 47.296875 Z M 188.242188 47.296875 "/>
<path style=" stroke:none;fill-rule:nonzero;fill:rgb(81.960784%,82.745098%,83.137255%);fill-opacity:1;" d="M 184.71875 121.71875 C 182.992188 117.148438 177.046875 115.160156 171.425781 117.28125 C 169.085938 118.164062 167.164062 119.636719 165.855469 121.375 C 169.566406 110.785156 184.679688 108.539062 184.679688 98.6875 C 184.679688 82.171875 161.230469 86.796875 164.640625 98.6875 C 164.640625 93.292969 173.226562 92.304688 173.226562 98.6875 C 173.226562 105.074219 158.253906 109.257812 158.253906 120.046875 C 158.253906 131.9375 170.148438 133.039062 168.941406 143.910156 C 168.738281 145.789062 166.722656 148.253906 163.800781 148.253906 C 145.585938 148.253906 152.089844 125.828125 145.726562 119.003906 L 146.058594 114.398438 C 149.738281 116.65625 159.5 111.367188 153.074219 103.3125 C 153.074219 107.273438 144.824219 107.054688 144.824219 99.566406 C 144.824219 89.4375 154.292969 94.722656 154.753906 96.960938 C 154.296875 93.269531 154.125 90.929688 154.734375 88.804688 C 149.628906 90.449219 149.152344 87.5 149.796875 86.355469 C 150.535156 85.039062 151.523438 83.496094 153.515625 83.496094 C 154.589844 83.496094 155.234375 83.644531 155.613281 83.90625 C 156.25 84.34375 156.714844 83.347656 156.625 84.273438 C 157.171875 83.441406 156.953125 84.480469 157.480469 83.648438 C 158.015625 82.820312 158.742188 81.882812 160.011719 80.632812 L 159.957031 78.765625 L 161.445312 79.3125 L 162.871094 77 C 161.328125 73.808594 159.238281 75.34375 157.699219 71.382812 C 156.410156 71.050781 136.351562 73.230469 136.933594 65.230469 C 135.300781 65.230469 131.425781 66.128906 133.824219 69.382812 C 131.957031 69.609375 130.613281 67.492188 127.804688 73.21875 C 131.324219 72.558594 129.503906 76.492188 129.503906 77.613281 C 129.503906 84.867188 119.84375 84.746094 119.84375 81.347656 C 117.515625 83.609375 118.835938 88.558594 122.355469 89.773438 C 122.355469 89.773438 121.015625 95.066406 117.710938 98.421875 C 112.804688 98.226562 104.933594 97.371094 100.40625 93.09375 C 98.453125 91.25 96.90625 90.242188 95.582031 89.726562 L 95.582031 87.328125 C 97.515625 86.382812 99.636719 84.710938 101.839844 81.910156 C 103.558594 79.8125 104.488281 77.121094 104.238281 74.261719 C 104.207031 73.925781 104.15625 73.589844 104.09375 73.253906 C 104.074219 73.148438 104.050781 73.046875 104.027344 72.945312 C 103.976562 72.714844 103.921875 72.488281 103.855469 72.265625 C 103.824219 72.15625 103.792969 72.039062 103.757812 71.933594 C 103.683594 71.710938 103.601562 71.488281 103.511719 71.269531 C 103.472656 71.179688 103.445312 71.082031 103.402344 70.996094 C 103.28125 70.710938 103.144531 70.429688 102.996094 70.152344 C 102.933594 70.042969 102.867188 69.9375 102.804688 69.835938 C 102.703125 69.667969 102.605469 69.5 102.5 69.339844 C 102.414062 69.210938 102.324219 69.082031 102.230469 68.953125 C 102.140625 68.832031 102.039062 68.707031 101.941406 68.582031 C 101.835938 68.453125 101.730469 68.3125 101.617188 68.183594 C 101.542969 68.097656 101.464844 68.011719 101.382812 67.933594 C 100.902344 67.414062 100.375 66.9375 99.804688 66.523438 L 99.652344 66.410156 C 99.449219 66.269531 99.242188 66.128906 99.023438 65.996094 C 99.011719 65.988281 99 65.980469 98.992188 65.96875 C 96.835938 64.652344 94.320312 64.050781 91.804688 64.253906 C 85.472656 64.757812 80.761719 70.050781 81.289062 76.078125 C 81.703125 80.773438 85.164062 84.523438 89.667969 85.71875 C 88.089844 86.597656 86.753906 87.109375 86.453125 87.109375 C 86.503906 87.140625 86.566406 87.179688 86.636719 87.226562 L 86.699219 87.257812 C 86.761719 87.296875 86.835938 87.335938 86.90625 87.378906 L 86.96875 87.410156 L 87.292969 87.570312 L 87.351562 87.59375 C 87.488281 87.664062 87.632812 87.722656 87.777344 87.777344 C 88.050781 87.890625 88.363281 87.996094 88.699219 88.089844 C 88.75 88.105469 88.800781 88.117188 88.839844 88.128906 C 88.976562 88.164062 89.117188 88.195312 89.261719 88.230469 L 89.410156 88.257812 C 89.589844 88.289062 89.78125 88.324219 89.972656 88.34375 C 89.988281 88.34375 90.003906 88.355469 90.019531 88.355469 L 90.019531 89.71875 C 89.949219 89.734375 89.882812 89.742188 89.816406 89.753906 C 87.757812 90.089844 86.417969 90.722656 85.8125 92.5625 C 85.210938 94.402344 85.832031 95.070312 86.792969 96.359375 C 85.980469 97.816406 83.84375 98.363281 86.632812 101.582031 C 86.429688 102.796875 86.683594 104.734375 88.453125 105.324219 C 89.03125 105.519531 89.511719 105.621094 90.019531 105.710938 L 90.019531 129.847656 C 88.253906 130.78125 87.382812 131.949219 86.902344 133.035156 C 86.902344 133.035156 85.484375 129.890625 85.578125 136.121094 C 87.191406 134.875 86.554688 137.570312 86.554688 137.570312 C 84.363281 140.410156 87.148438 140.253906 87.148438 140.253906 C 89.035156 138.367188 88.648438 141.109375 88.648438 141.109375 C 88.648438 144.453125 90.007812 145.757812 90.019531 145.765625 L 90.019531 164.152344 L 88.414062 164.160156 L 88.429688 169.234375 L 91.238281 169.226562 C 89.664062 169.882812 88.625 171.4375 88.777344 173.152344 C 88.96875 175.316406 90.964844 176.925781 93.242188 176.75 C 95.519531 176.570312 97.210938 174.671875 97.015625 172.5 C 96.886719 171.003906 95.894531 169.78125 94.546875 169.21875 L 97.132812 169.210938 L 97.121094 164.136719 L 95.578125 164.144531 L 95.582031 147.828125 C 95.902344 148.003906 96.246094 148.125 96.617188 148.207031 C 96.765625 148.234375 96.914062 148.253906 97.066406 148.265625 C 97.132812 148.273438 97.199219 148.273438 97.269531 148.277344 C 96.851562 146.132812 98.136719 144.710938 98.136719 144.710938 C 98.792969 143.71875 99.746094 142.945312 100.828125 142.402344 C 104.066406 140.78125 108.484375 141.1875 109.804688 143.832031 C 118.171875 141.628906 125.363281 133.214844 125.363281 133.214844 L 129.480469 140.226562 C 120.75 143.144531 101.726562 159.683594 114.929688 165.410156 C 114.925781 167.078125 114.703125 179.449219 106.769531 178.46875 C 95.34375 177.058594 92.492188 181.785156 94.6875 187.101562 C 93.65625 191.582031 97.105469 193.140625 97.105469 193.140625 C 96.589844 190.550781 97.832031 188.40625 102.554688 188.433594 C 102.53125 193.15625 105.582031 194.007812 105.582031 194.007812 C 105.601562 189.964844 108.414062 188.464844 110.910156 188.476562 C 110.890625 191.808594 114.761719 193.074219 114.761719 193.074219 C 114.761719 193.074219 113.78125 189.234375 118.15625 188.476562 C 129.234375 186.546875 118.828125 175.152344 135.675781 172.011719 C 135.675781 172.011719 127.289062 170.746094 127.289062 166.160156 C 127.289062 161.988281 134.882812 159.132812 137.496094 159.132812 C 142.859375 169.378906 148.6875 169.457031 150.210938 169.53125 C 152.582031 172.183594 151.789062 181.125 148.359375 180.949219 C 135.8125 180.273438 136.269531 187.90625 137.675781 189.46875 C 137.515625 192.433594 139.824219 194.144531 139.824219 194.144531 C 139.824219 190.96875 142.84375 190.074219 146.71875 190.285156 C 146.515625 194.164062 148.988281 194.742188 148.988281 194.742188 C 149.054688 190.839844 151.945312 190.175781 153.996094 190.285156 C 153.84375 193.019531 156.558594 193.828125 156.558594 193.828125 C 156.558594 193.828125 156.292969 190.355469 159.949219 190.355469 C 166.886719 190.351562 156.8125 175.488281 170.347656 160.785156 C 158.457031 166.289062 152.132812 152.53125 152.132812 149.890625 C 158.242188 157.042969 178.058594 158.46875 178.058594 146.253906 C 178.058594 134.582031 165.234375 130.234375 171.230469 125.769531 C 174.722656 123.171875 181.589844 128.417969 177.660156 133.832031 C 183.292969 131.746094 186.433594 126.292969 184.707031 121.722656 M 108.710938 122.089844 C 104.226562 124.722656 101.222656 128.058594 97.136719 129.515625 C 96.515625 129.738281 96.019531 129.796875 95.589844 129.769531 L 95.589844 106.988281 C 96.671875 107.089844 99.480469 107.472656 102.769531 108.832031 C 106.023438 110.609375 106.023438 114.277344 101.914062 115.148438 C 104.511719 120.117188 113.5 117.683594 115.460938 113.636719 C 116.421875 113.550781 117.269531 115.265625 118.070312 116.886719 C 116.804688 117.539062 114.222656 118.84375 108.710938 122.089844 Z M 158.886719 84.324219 C 158.394531 84.992188 157.910156 85.65625 157.484375 86.226562 C 158.652344 88.179688 160.835938 89.292969 163.101562 89.082031 C 166.34375 88.773438 168.722656 85.902344 168.429688 82.660156 C 168.40625 82.542969 168.394531 82.4375 168.378906 82.320312 C 168.03125 84 166.054688 85.421875 163.535156 85.652344 C 161.632812 85.832031 159.90625 85.285156 158.886719 84.324219 Z M 158.886719 84.324219 "/>
<path style=" stroke:none;fill-rule:nonzero;fill:rgb(1.176471%,27.45098%,58.039216%);fill-opacity:1;" d="M 86.457031 70.613281 C 86.457031 70.617188 86.449219 70.625 86.449219 70.632812 L 86.445312 70.632812 C 86.449219 70.625 86.453125 70.621094 86.457031 70.613281 M 86.664062 166.164062 C 86.667969 166.160156 86.675781 166.160156 86.679688 166.152344 L 86.675781 166.152344 C 86.671875 166.160156 86.667969 166.160156 86.664062 166.164062 Z M 86.519531 60.886719 L 86.527344 60.886719 Z M 84.804688 165.601562 L 87.613281 165.601562 C 87.277344 165.742188 86.960938 165.925781 86.679688 166.15625 C 86.957031 166.046875 87.25 165.984375 87.566406 165.984375 C 88.972656 165.984375 90.113281 167.121094 90.113281 168.527344 C 90.113281 169.933594 88.972656 171.074219 87.566406 171.074219 C 86.457031 171.074219 85.480469 170.351562 85.152344 169.292969 L 85.152344 169.523438 C 85.347656 171.691406 87.339844 173.304688 89.621094 173.117188 C 91.894531 172.941406 93.585938 171.039062 93.398438 168.871094 C 93.265625 167.378906 92.277344 166.15625 90.925781 165.59375 L 93.511719 165.582031 L 93.5 160.507812 L 91.957031 160.515625 L 91.957031 144.199219 C 90.414062 143.394531 89.582031 141.671875 89.914062 139.960938 C 90.882812 139.960938 91.746094 140.210938 92.324219 140.605469 C 91.429688 142.570312 93.648438 144.648438 93.648438 144.648438 C 93.234375 142.5 94.511719 141.085938 94.511719 141.085938 C 95.175781 140.09375 96.128906 139.320312 97.207031 138.773438 C 100.449219 137.148438 104.863281 137.558594 106.183594 140.203125 C 114.550781 138 121.742188 129.585938 121.742188 129.585938 L 125.863281 136.59375 C 135.523438 136.59375 132.160156 129.355469 131.53125 128.726562 C 133.753906 128.726562 136.878906 130.363281 136.878906 133.984375 C 136.878906 142.882812 111.019531 144.148438 111.019531 154.945312 C 111.019531 159.480469 115.515625 161.207031 115.515625 161.207031 C 115.515625 171.050781 108.753906 176.898438 104.128906 176.898438 C 96.734375 176.898438 91.070312 175.402344 91.070312 183.464844 L 93.648438 183.464844 C 91.199219 185.914062 93.484375 189.503906 93.484375 189.503906 C 92.96875 186.917969 94.214844 184.777344 98.9375 184.800781 L 101.882812 184.800781 C 100.011719 186.671875 101.105469 189.511719 101.96875 190.378906 C 101.984375 186.332031 104.789062 184.835938 107.289062 184.847656 L 109.429688 184.847656 C 108.847656 185.421875 109.78125 188.082031 111.144531 189.441406 C 111.144531 189.441406 110.160156 185.605469 114.539062 184.847656 C 125.613281 182.917969 115.210938 171.523438 132.054688 168.378906 C 132.054688 168.378906 123.671875 167.117188 123.671875 162.527344 C 123.671875 158.359375 131.261719 155.5 133.871094 155.5 C 135.929688 155.203125 137.890625 155.277344 139.566406 155.636719 C 140.25 162.253906 147.84375 161.929688 149.496094 161.929688 C 155.9375 168.371094 147.859375 178.714844 147.859375 178.714844 C 137.972656 178.714844 134.058594 180.078125 134.058594 185.835938 L 135.929688 185.835938 C 134.882812 186.890625 135.476562 189.789062 136.199219 190.507812 C 136.199219 187.332031 139.226562 186.445312 143.101562 186.648438 L 145.140625 186.648438 C 144.144531 187.644531 144.320312 190.058594 145.371094 191.109375 C 145.429688 187.203125 148.324219 186.539062 150.375 186.648438 L 152.078125 186.648438 C 151.441406 187.289062 152.078125 189.328125 152.949219 190.203125 C 152.949219 190.203125 152.679688 186.726562 156.332031 186.722656 C 163.269531 186.722656 153.191406 171.851562 166.738281 157.152344 C 154.847656 162.660156 148.515625 148.894531 148.515625 146.253906 C 154.625 153.410156 174.445312 154.835938 174.445312 142.621094 C 174.445312 132.765625 165.304688 128.136719 166.0625 124.246094 C 166.332031 121.238281 168.851562 118.933594 171.875 118.933594 C 175.09375 118.9375 177.707031 121.550781 177.703125 124.769531 C 177.707031 127.152344 176.261719 129.296875 174.050781 130.183594 C 174.054688 130.183594 174.054688 130.179688 174.054688 130.179688 C 174.050781 130.183594 174.042969 130.191406 174.042969 130.199219 C 179.671875 128.113281 182.8125 122.660156 181.097656 118.089844 C 179.363281 113.519531 173.417969 111.527344 167.800781 113.648438 C 165.449219 114.535156 163.539062 116.003906 162.230469 117.746094 C 165.933594 107.15625 181.050781 104.914062 181.050781 95.054688 C 181.050781 78.542969 157.601562 83.167969 161.011719 95.058594 C 161.011719 94.882812 161.023438 94.703125 161.042969 94.535156 C 161.640625 87.8125 173.65625 86.4375 173.65625 95.199219 C 173.65625 102.6875 158.265625 106.835938 158.265625 116.90625 C 158.265625 127.25 169.632812 129.835938 169.632812 140.722656 C 169.632812 142.019531 168.945312 147.601562 161.394531 147.601562 C 154.109375 147.601562 150.609375 143.527344 148.617188 138.210938 C 144.910156 131.042969 146.269531 119.851562 142.089844 115.375 L 142.421875 110.773438 C 146.101562 113.03125 155.871094 107.742188 149.453125 99.683594 C 149.453125 103.652344 141.195312 103.425781 141.195312 95.941406 C 141.195312 85.8125 150.664062 91.097656 151.121094 93.332031 C 150.664062 89.644531 150.488281 87.296875 151.109375 85.179688 C 146 86.820312 145.527344 83.871094 146.164062 82.726562 C 146.910156 81.40625 147.898438 79.867188 149.886719 79.867188 C 152.753906 79.867188 152.574219 80.921875 152.421875 82.402344 C 153.519531 80.746094 153.828125 79.5 156.378906 77.003906 L 156.324219 75.132812 L 157.804688 75.683594 L 159.242188 73.371094 C 157.703125 70.175781 155.613281 71.71875 154.066406 67.753906 C 152.78125 67.417969 135.917969 65.863281 136.5 57.859375 C 135.007812 57.859375 130.945312 63.003906 133.691406 65.757812 L 130.191406 65.757812 C 128.320312 65.980469 123.949219 64.671875 121.140625 70.398438 C 128.046875 63.492188 132.53125 79.964844 119.8125 79.964844 L 119.8125 79.960938 C 117.933594 79.964844 116.324219 79.183594 116.214844 77.859375 C 114.949219 83.417969 122.960938 85.148438 122.960938 85.148438 C 122.960938 86.800781 118.949219 95.742188 116.996094 97.691406 C 118.3125 99.007812 118.71875 106.949219 112.640625 106.949219 C 114.832031 101.019531 108.386719 95.996094 102.125 92.675781 L 102.132812 92.675781 C 100.996094 92.246094 99.917969 91.71875 98.917969 91.089844 C 95.074219 89.332031 91.949219 88.34375 91.949219 88.34375 L 91.949219 83.695312 C 93.882812 82.75 96 81.074219 98.203125 78.277344 C 99.925781 76.179688 100.851562 73.488281 100.597656 70.628906 C 100.574219 70.289062 100.523438 69.953125 100.453125 69.621094 C 100.4375 69.515625 100.414062 69.417969 100.394531 69.3125 C 100.34375 69.085938 100.285156 68.859375 100.21875 68.632812 C 100.121094 68.296875 100.003906 67.960938 99.875 67.632812 C 99.839844 67.542969 99.808594 67.453125 99.769531 67.363281 C 99.644531 67.078125 99.507812 66.800781 99.359375 66.527344 C 99.300781 66.410156 99.230469 66.304688 99.171875 66.199219 C 99.070312 66.03125 98.972656 65.871094 98.867188 65.707031 C 98.777344 65.582031 98.691406 65.449219 98.59375 65.320312 C 98.503906 65.199219 98.40625 65.070312 98.308594 64.953125 C 98.203125 64.816406 98.09375 64.679688 97.980469 64.546875 C 97.90625 64.460938 97.828125 64.378906 97.746094 64.296875 C 97.457031 63.984375 97.152344 63.691406 96.828125 63.414062 C 96.792969 63.390625 96.765625 63.351562 96.734375 63.328125 C 96.550781 63.175781 96.363281 63.03125 96.167969 62.890625 C 96.117188 62.859375 96.070312 62.816406 96.019531 62.777344 C 95.8125 62.632812 95.601562 62.496094 95.390625 62.363281 C 95.375 62.355469 95.363281 62.34375 95.351562 62.339844 C 93.199219 61.019531 90.683594 60.417969 88.167969 60.621094 C 87.601562 60.667969 87.050781 60.769531 86.511719 60.886719 C 82.863281 62.28125 80.210938 66.554688 80.210938 71.605469 C 80.210938 76.367188 82.570312 80.429688 85.890625 82.050781 C 85.9375 82.0625 85.984375 82.078125 86.03125 82.09375 C 84.449219 82.972656 83.117188 83.480469 82.8125 83.480469 C 82.863281 83.511719 82.929688 83.550781 83.003906 83.601562 C 83.023438 83.609375 83.042969 83.621094 83.0625 83.628906 C 83.125 83.667969 83.191406 83.703125 83.273438 83.746094 C 83.292969 83.757812 83.308594 83.769531 83.332031 83.777344 C 83.425781 83.824219 83.539062 83.886719 83.652344 83.941406 C 83.671875 83.945312 83.691406 83.957031 83.710938 83.96875 C 83.8125 84.015625 83.921875 84.058594 84.035156 84.105469 C 84.371094 84.246094 84.714844 84.363281 85.066406 84.460938 L 85.207031 84.5 C 85.339844 84.535156 85.480469 84.566406 85.625 84.597656 C 85.671875 84.609375 85.722656 84.617188 85.773438 84.628906 C 85.957031 84.664062 86.144531 84.695312 86.339844 84.71875 C 86.355469 84.71875 86.367188 84.722656 86.382812 84.730469 C 87.589844 84.832031 89.019531 84.53125 89.019531 84.53125 L 89.019531 87.226562 C 88.800781 87.226562 86.90625 86.613281 86.382812 86.09375 C 86.316406 86.105469 86.25 86.117188 86.179688 86.128906 C 84.121094 86.464844 82.78125 87.097656 82.179688 88.9375 C 81.574219 90.777344 82.195312 91.445312 83.160156 92.734375 C 82.335938 94.1875 80.207031 94.738281 82.988281 97.957031 C 82.792969 99.171875 83.046875 101.113281 84.8125 101.699219 C 85.390625 101.894531 85.875 101.996094 86.378906 102.085938 C 87.425781 102.085938 89.015625 102.957031 89.015625 105.132812 L 89.015625 125.878906 C 89.96875 125.933594 91.003906 126.0625 91.945312 126.144531 L 91.945312 103.359375 C 93.03125 103.464844 95.839844 103.847656 99.121094 105.203125 C 99.15625 105.21875 99.191406 105.242188 99.222656 105.265625 C 99.21875 105.261719 99.214844 105.261719 99.214844 105.257812 C 99.515625 105.296875 99.820312 105.359375 100.121094 105.449219 C 102.304688 106.121094 103.667969 108.015625 103.15625 109.699219 C 102.644531 111.371094 100.453125 112.191406 98.269531 111.519531 C 100.859375 116.492188 109.855469 114.058594 111.816406 110.011719 C 112.773438 109.925781 113.621094 111.640625 114.421875 113.257812 C 114.421875 113.257812 116.675781 114.121094 122.253906 114.121094 C 122.253906 114.121094 99.664062 128.542969 93.128906 128.542969 C 90.339844 128.542969 84.148438 128.542969 84.148438 130.65625 C 82.445312 130.65625 79.996094 133.546875 79.996094 135.203125 C 81.601562 133.945312 82.914062 133.945312 82.914062 133.945312 C 84.285156 133.945312 85.054688 134.355469 85.054688 134.355469 C 84.554688 134.851562 82.300781 137.398438 82.300781 139.371094 C 84.1875 137.480469 85.011719 137.488281 85.011719 137.488281 C 85.011719 137.488281 86.980469 137.234375 87.683594 137.941406 C 87.210938 138.414062 86.378906 140.125 86.378906 142.144531 C 86.378906 142.144531 87.550781 139.882812 89.011719 139.882812 L 89.011719 161.570312 C 89.011719 162.230469 86.019531 162.867188 84.789062 162.867188 M 85.726562 100 C 85.167969 100.023438 84.90625 99.296875 84.902344 99.035156 C 84.886719 98.769531 85.097656 98.03125 85.652344 98.011719 C 86.976562 97.96875 89.621094 98.601562 89.632812 98.863281 C 89.640625 99.121094 87.050781 99.953125 85.726562 100 Z M 84.875 96.421875 C 84.105469 96.367188 83.851562 95.328125 83.878906 94.964844 C 83.902344 94.609375 84.304688 93.617188 85.074219 93.671875 C 86.90625 93.808594 90.457031 95.085938 90.425781 95.445312 C 90.402344 95.8125 86.703125 96.554688 84.875 96.421875 Z M 84.558594 91.835938 C 83.746094 91.621094 83.679688 90.460938 83.777344 90.074219 C 83.878906 89.691406 84.507812 88.710938 85.324219 88.921875 C 87.261719 89.429688 90.816406 91.511719 90.71875 91.894531 C 90.617188 92.277344 86.496094 92.34375 84.558594 91.835938 Z M 90.558594 78.917969 C 90.894531 78.113281 90.824219 77.015625 90.613281 75.984375 L 90.511719 75.988281 C 88.179688 75.988281 86.292969 74.101562 86.292969 71.773438 C 86.257812 71.386719 86.308594 70.996094 86.445312 70.632812 L 86.449219 70.632812 C 86.449219 70.625 86.453125 70.617188 86.457031 70.613281 C 86.972656 68.804688 88.625 67.554688 90.511719 67.550781 C 92.839844 67.554688 94.726562 69.445312 94.726562 71.773438 C 94.726562 74.460938 92.832031 76.9375 90.558594 78.917969 Z M 90.558594 78.917969 "/>
<path style=" stroke:none;fill-rule:nonzero;fill:rgb(92.941176%,10.980392%,14.117647%);fill-opacity:1;" d="M 153.855469 82.597656 C 155.023438 84.554688 157.207031 85.664062 159.472656 85.453125 C 162.714844 85.144531 165.097656 82.269531 164.796875 79.027344 C 164.785156 78.914062 164.765625 78.800781 164.75 78.6875 C 164.40625 80.363281 162.417969 81.789062 159.902344 82.023438 C 157.992188 82.199219 156.269531 81.652344 155.253906 80.691406 C 154.765625 81.363281 154.273438 82.027344 153.855469 82.597656 "/>
<path style=" stroke:none;fill-rule:nonzero;fill:rgb(100%,100%,100%);fill-opacity:1;" d="M 145.980469 71.660156 L 148.015625 71.769531 L 147 73.167969 C 147 73.167969 145.636719 73.597656 145.980469 71.660156 M 141.121094 71.660156 L 144.054688 71.660156 C 144.054688 71.660156 143.949219 74.027344 146.09375 74.242188 L 145.636719 74.996094 C 145.636719 74.996094 139.878906 73.492188 141.121094 71.660156 Z M 141.121094 71.660156 "/>
<path style=" stroke:none;fill-rule:nonzero;fill:rgb(41.568627%,47.843137%,70.980392%);fill-opacity:1;" d="M 90.71875 91.894531 C 90.820312 91.511719 87.261719 89.429688 85.324219 88.921875 C 84.503906 88.710938 83.878906 89.691406 83.777344 90.074219 C 83.679688 90.460938 83.746094 91.625 84.558594 91.839844 C 86.496094 92.34375 90.621094 92.277344 90.71875 91.894531 M 90.425781 95.449219 C 90.457031 95.085938 86.90625 93.808594 85.074219 93.675781 C 84.304688 93.617188 83.902344 94.609375 83.878906 94.964844 C 83.855469 95.332031 84.105469 96.367188 84.875 96.421875 C 86.703125 96.554688 90.402344 95.8125 90.425781 95.449219 Z M 86.394531 84.734375 L 86.394531 86.09375 C 86.917969 86.617188 88.8125 87.226562 89.03125 87.226562 L 89.03125 84.53125 C 89.03125 84.53125 87.605469 84.832031 86.394531 84.734375 Z M 85.652344 98.011719 C 85.097656 98.035156 84.886719 98.769531 84.902344 99.035156 C 84.90625 99.296875 85.171875 100.019531 85.726562 100 C 87.050781 99.953125 89.640625 99.121094 89.632812 98.859375 C 89.621094 98.601562 86.976562 97.964844 85.652344 98.011719 Z M 82.929688 133.941406 C 80.738281 136.777344 82.316406 139.367188 82.316406 139.367188 C 82.316406 137.394531 84.570312 134.847656 85.074219 134.351562 C 85.070312 134.351562 84.300781 133.941406 82.929688 133.941406 Z M 89.914062 139.960938 C 89.5 142.082031 90.875 144.136719 92.988281 144.570312 C 93.144531 144.605469 93.292969 144.625 93.445312 144.644531 L 93.644531 144.648438 C 93.644531 144.648438 91.429688 142.574219 92.320312 140.609375 C 91.742188 140.210938 90.878906 139.960938 89.914062 139.960938 Z M 85.90625 82.050781 C 82.585938 80.433594 80.226562 76.371094 80.226562 71.609375 C 80.226562 66.554688 82.878906 62.285156 86.527344 60.886719 C 81.050781 62.101562 77.1875 66.96875 77.671875 72.453125 C 78.082031 77.101562 81.476562 80.816406 85.90625 82.050781 Z M 121.15625 70.398438 C 124.679688 69.734375 125.875 72.867188 125.875 73.988281 C 125.875 78.238281 122.566406 79.949219 119.824219 79.964844 C 132.546875 79.964844 128.0625 63.492188 121.15625 70.398438 Z M 112.652344 106.953125 C 118.734375 106.953125 118.324219 99.011719 117.007812 97.695312 C 118.960938 95.746094 122.972656 86.800781 122.972656 85.152344 C 122.972656 85.152344 114.949219 83.421875 116.230469 77.851562 C 116.230469 77.847656 116.230469 77.847656 116.230469 77.84375 L 116.121094 77.824219 C 113.933594 80.128906 115.265625 84.941406 118.734375 86.140625 C 118.734375 86.140625 117.394531 91.433594 114.089844 94.789062 C 110.800781 94.660156 106.1875 94.226562 102.136719 92.679688 C 108.398438 96 114.84375 101.023438 112.652344 106.953125 Z M 88.90625 68.828125 C 90.476562 68.703125 91.863281 69.816406 91.996094 71.320312 C 92.125 72.8125 90.957031 74.132812 89.382812 74.257812 C 87.804688 74.386719 86.417969 73.269531 86.292969 71.769531 C 86.292969 74.101562 88.179688 75.988281 90.511719 75.984375 L 90.613281 75.984375 C 90.824219 77.015625 90.894531 78.113281 90.558594 78.914062 C 92.835938 76.933594 94.726562 74.460938 94.726562 71.769531 C 95.167969 70.1875 94.652344 68.492188 93.398438 67.425781 C 92.148438 66.359375 90.390625 66.117188 88.898438 66.804688 C 87.40625 67.496094 86.449219 68.988281 86.449219 70.632812 C 86.816406 69.65625 87.746094 68.921875 88.90625 68.828125 Z M 133.707031 65.757812 C 130.953125 63.007812 135.019531 57.859375 136.511719 57.859375 C 134.878906 57.859375 127.800781 62.492188 130.203125 65.757812 Z M 98.285156 111.519531 C 100.46875 112.1875 102.660156 111.371094 103.171875 109.695312 C 103.683594 108.015625 102.320312 106.121094 100.136719 105.449219 C 99.839844 105.359375 99.535156 105.296875 99.230469 105.257812 C 102.382812 107.054688 102.347656 110.664062 98.285156 111.519531 Z M 91.960938 88.347656 C 91.960938 88.347656 95.085938 89.335938 98.929688 91.09375 C 98.164062 90.621094 97.445312 90.074219 96.785156 89.460938 C 94.832031 87.617188 93.28125 86.613281 91.960938 86.101562 Z M 93.144531 128.542969 C 99.679688 128.542969 122.269531 114.121094 122.269531 114.121094 C 116.6875 114.121094 114.4375 113.253906 114.4375 113.253906 C 113.175781 113.914062 110.59375 115.210938 105.082031 118.453125 C 100.597656 121.09375 97.59375 124.429688 93.507812 125.886719 C 92.886719 126.113281 92.386719 126.164062 91.960938 126.140625 C 91.023438 126.0625 89.984375 125.933594 89.03125 125.875 L 89.03125 105.132812 C 89.03125 102.957031 87.445312 102.082031 86.398438 102.082031 L 86.398438 126.222656 C 84.632812 127.160156 83.761719 128.324219 83.285156 129.414062 C 83.285156 129.414062 79.914062 128.964844 80.011719 135.199219 C 80.011719 133.542969 82.464844 130.652344 84.164062 130.652344 C 84.164062 128.542969 90.355469 128.542969 93.144531 128.542969 Z M 149.496094 161.9375 C 147.839844 161.9375 140.246094 162.257812 139.566406 155.644531 C 137.890625 155.285156 135.929688 155.214844 133.871094 155.503906 C 139.242188 165.75 145.070312 165.832031 146.59375 165.910156 C 148.964844 168.558594 148.167969 177.496094 144.742188 177.320312 C 132.191406 176.648438 132.652344 184.285156 134.058594 185.847656 C 134.058594 180.089844 137.972656 178.726562 147.859375 178.726562 C 147.859375 178.71875 155.9375 168.378906 149.496094 161.9375 Z M 152.078125 186.65625 L 150.375 186.65625 C 150.234375 189.398438 152.949219 190.207031 152.949219 190.207031 C 152.078125 189.335938 151.441406 187.296875 152.078125 186.65625 Z M 136.195312 190.519531 C 135.472656 189.792969 134.878906 186.898438 135.925781 185.84375 L 134.054688 185.84375 C 133.898438 188.808594 136.195312 190.519531 136.195312 190.519531 Z M 173.65625 95.203125 C 173.65625 86.4375 161.636719 87.816406 161.042969 94.542969 C 161.574219 89.613281 169.605469 88.882812 169.605469 95.0625 C 169.605469 101.449219 154.628906 105.628906 154.628906 116.421875 C 154.628906 128.3125 166.515625 129.414062 165.3125 140.28125 C 165.109375 142.164062 163.097656 144.625 160.175781 144.625 C 153.914062 144.625 150.566406 141.964844 148.617188 138.210938 C 150.609375 143.527344 154.109375 147.601562 161.398438 147.601562 C 168.949219 147.601562 169.632812 142.019531 169.632812 140.722656 C 169.632812 129.839844 158.265625 127.25 158.265625 116.90625 C 158.269531 106.835938 173.65625 102.6875 173.65625 95.203125 Z M 85.027344 137.484375 C 85.027344 140.839844 86.394531 142.140625 86.394531 142.140625 C 86.394531 140.117188 87.226562 138.40625 87.699219 137.9375 C 87 137.230469 85.027344 137.484375 85.027344 137.484375 Z M 171.875 118.9375 C 168.855469 118.933594 166.332031 121.238281 166.0625 124.25 C 166.203125 123.535156 166.679688 122.839844 167.609375 122.144531 C 171.105469 119.542969 177.957031 124.777344 174.050781 130.183594 C 176.257812 129.296875 177.707031 127.152344 177.703125 124.773438 C 177.707031 121.550781 175.097656 118.9375 171.875 118.9375 Z M 145.136719 186.65625 L 143.097656 186.65625 C 142.890625 190.53125 145.371094 191.113281 145.371094 191.113281 C 144.320312 190.066406 144.140625 187.648438 145.136719 186.65625 Z M 87.566406 165.984375 C 87.25 165.984375 86.957031 166.046875 86.675781 166.15625 C 85.6875 166.894531 85.121094 168.0625 85.152344 169.292969 C 85.480469 170.351562 86.457031 171.074219 87.566406 171.074219 C 88.972656 171.074219 90.109375 169.933594 90.109375 168.527344 C 90.109375 167.121094 88.972656 165.984375 87.566406 165.984375 Z M 101.882812 184.804688 L 98.9375 184.804688 C 98.910156 189.527344 101.964844 190.382812 101.964844 190.382812 C 101.101562 189.515625 100.011719 186.675781 101.882812 184.804688 Z M 111.015625 154.949219 C 111.015625 144.152344 136.878906 142.882812 136.878906 133.988281 C 136.878906 130.363281 133.753906 128.726562 131.53125 128.726562 C 132.15625 129.359375 135.523438 136.59375 125.863281 136.59375 C 117.128906 139.515625 98.105469 156.050781 111.3125 161.78125 C 111.304688 163.445312 111.082031 175.816406 103.152344 174.84375 C 91.726562 173.429688 88.878906 178.152344 91.070312 183.46875 C 91.070312 175.40625 96.734375 176.902344 104.128906 176.902344 C 108.75 176.902344 115.511719 171.058594 115.511719 161.210938 C 115.511719 161.207031 111.015625 159.484375 111.015625 154.949219 Z M 89.03125 161.570312 L 89.03125 139.882812 C 87.566406 139.882812 86.394531 142.144531 86.394531 142.144531 L 86.394531 160.644531 L 86.394531 160.523438 L 84.792969 160.53125 L 84.808594 162.867188 C 86.039062 162.867188 89.03125 162.230469 89.03125 161.570312 Z M 93.484375 189.507812 C 93.484375 189.507812 91.195312 185.917969 93.644531 183.46875 L 91.070312 183.46875 C 90.03125 187.953125 93.484375 189.507812 93.484375 189.507812 Z M 109.425781 184.851562 L 107.289062 184.851562 C 107.269531 188.1875 111.140625 189.449219 111.140625 189.449219 C 109.78125 188.089844 108.84375 185.425781 109.425781 184.851562 Z M 109.425781 184.851562 "/>
<path style=" stroke:none;fill-rule:nonzero;fill:rgb(100%,100%,100%);fill-opacity:1;" d="M 37.511719 148.851562 L 37.371094 148.414062 L 37.308594 147.960938 C 37.097656 146.402344 36.722656 143.496094 34.480469 142.976562 C 33.878906 142.835938 33.261719 142.90625 32.597656 143.179688 C 32.777344 142.488281 32.757812 141.863281 32.542969 141.292969 C 31.714844 139.140625 28.789062 139.171875 27.214844 139.191406 L 26.753906 139.191406 L 26.296875 139.105469 C 24.753906 138.824219 21.871094 138.285156 20.691406 140.257812 C 20.371094 140.785156 20.246094 141.394531 20.300781 142.105469 C 19.703125 141.71875 19.097656 141.546875 18.488281 141.578125 C 16.1875 141.699219 15.308594 144.488281 14.835938 145.996094 L 14.691406 146.429688 L 14.476562 146.835938 C 13.722656 148.222656 12.324219 150.789062 13.835938 152.527344 C 14.238281 152.992188 14.78125 153.304688 15.476562 153.46875 C 14.925781 153.921875 14.574219 154.4375 14.417969 155.035156 C 13.816406 157.253906 16.203125 158.953125 17.480469 159.863281 L 17.855469 160.140625 L 18.179688 160.464844 C 19.261719 161.613281 21.277344 163.730469 23.394531 162.832031 C 23.957031 162.589844 24.417969 162.171875 24.792969 161.566406 C 25.058594 162.226562 25.4375 162.71875 25.953125 163.058594 C 27.882812 164.308594 30.234375 162.566406 31.496094 161.636719 L 31.871094 161.363281 L 32.285156 161.15625 C 33.707031 160.480469 36.351562 159.222656 36.152344 156.929688 C 36.097656 156.3125 35.839844 155.75 35.382812 155.207031 C 36.089844 155.167969 36.675781 154.949219 37.152344 154.566406 C 38.945312 153.117188 38.011719 150.34375 37.511719 148.851562 "/>
<path style=" stroke:none;fill-rule:nonzero;fill:rgb(92.941176%,10.980392%,14.117647%);fill-opacity:1;" d="M 27.429688 150.710938 C 40.304688 158.324219 36.339844 149.953125 36.054688 148.714844 C 35.769531 147.484375 35.664062 138.226562 27.429688 150.710938 M 26.621094 152.617188 C 23.363281 167.210938 30.09375 160.855469 31.179688 160.210938 C 32.265625 159.554688 41.035156 156.589844 26.621094 152.617188 M 24.554688 152.441406 C 9.660156 153.847656 17.789062 158.289062 18.746094 159.121094 C 19.703125 159.949219 25.226562 167.375 24.554688 152.441406 M 24.085938 150.414062 C 18.144531 136.691406 16.429688 145.792969 15.933594 146.957031 C 15.4375 148.117188 10.082031 155.675781 24.085938 150.414062 "/>
<path style=" stroke:none;fill-rule:nonzero;fill:rgb(100%,100%,100%);fill-opacity:1;" d="M 236.765625 146.835938 L 236.550781 146.429688 L 236.40625 145.992188 C 235.933594 144.488281 235.054688 141.695312 232.761719 141.574219 C 232.144531 141.546875 231.542969 141.71875 230.945312 142.097656 C 231 141.390625 230.871094 140.78125 230.558594 140.253906 C 229.371094 138.28125 226.496094 138.820312 224.949219 139.105469 L 224.488281 139.1875 L 224.027344 139.1875 C 222.460938 139.167969 219.53125 139.140625 218.707031 141.289062 C 218.484375 141.863281 218.46875 142.488281 218.644531 143.175781 C 217.992188 142.90625 217.371094 142.835938 216.769531 142.972656 C 214.527344 143.492188 214.144531 146.398438 213.945312 147.957031 L 213.875 148.414062 L 213.738281 148.851562 C 213.234375 150.34375 212.304688 153.117188 214.097656 154.566406 C 214.570312 154.949219 215.152344 155.164062 215.867188 155.207031 C 215.40625 155.75 215.148438 156.316406 215.09375 156.929688 C 214.898438 159.222656 217.539062 160.480469 218.960938 161.15625 L 219.371094 161.363281 L 219.746094 161.636719 C 221.011719 162.566406 223.367188 164.304688 225.289062 163.058594 C 225.8125 162.71875 226.1875 162.226562 226.453125 161.5625 C 226.824219 162.171875 227.285156 162.585938 227.851562 162.832031 C 229.96875 163.730469 231.984375 161.609375 233.066406 160.464844 L 233.390625 160.140625 L 233.761719 159.863281 C 235.042969 158.953125 237.425781 157.253906 236.828125 155.035156 C 236.667969 154.441406 236.320312 153.917969 235.769531 153.46875 C 236.460938 153.304688 237.003906 152.992188 237.40625 152.527344 C 238.921875 150.789062 237.523438 148.222656 236.765625 146.835938 "/>
<path style=" stroke:none;fill-rule:nonzero;fill:rgb(92.941176%,10.980392%,14.117647%);fill-opacity:1;" d="M 225.382812 149.351562 C 214.171875 139.457031 223.351562 140.640625 224.613281 140.527344 C 225.871094 140.421875 234.710938 137.660156 225.382812 149.351562 M 223.820312 150.710938 C 210.945312 158.324219 214.902344 149.953125 215.191406 148.714844 C 215.476562 147.484375 215.582031 138.226562 223.820312 150.710938 M 224.628906 152.617188 C 227.886719 167.210938 221.15625 160.855469 220.066406 160.210938 C 218.980469 159.554688 210.214844 156.589844 224.628906 152.617188 M 226.691406 152.441406 C 241.582031 153.847656 233.460938 158.289062 232.503906 159.121094 C 231.554688 159.949219 226.019531 167.375 226.691406 152.441406 M 227.15625 150.414062 C 233.101562 136.691406 234.8125 145.792969 235.308594 146.957031 C 235.804688 148.117188 241.160156 155.675781 227.15625 150.414062 "/>
<path style=" stroke:none;fill-rule:nonzero;fill:rgb(100%,100%,100%);fill-opacity:1;" d="M 230.050781 150.84375 C 230.035156 150.722656 229.996094 150.617188 229.980469 150.5 C 231.175781 149.625 232.46875 148.683594 232.46875 148.683594 L 232.34375 148.40625 L 229.390625 148.921875 C 228.664062 147.71875 227.414062 146.929688 226.015625 146.789062 C 225.710938 145.882812 225.414062 144.972656 225.113281 144.0625 L 224.8125 144.085938 C 224.8125 144.085938 224.609375 145.519531 224.402344 146.925781 C 223.523438 147.164062 222.742188 147.664062 222.15625 148.359375 C 221.851562 148.738281 221.605469 149.160156 221.429688 149.617188 C 219.972656 149.617188 218.4375 149.625 218.4375 149.625 L 218.371094 149.925781 C 218.371094 149.925781 219.804688 150.621094 221.128906 151.269531 C 221.136719 151.394531 221.117188 151.511719 221.128906 151.632812 C 221.230469 152.789062 221.777344 153.855469 222.65625 154.613281 L 221.667969 157.691406 L 221.925781 157.847656 C 221.925781 157.847656 223.136719 156.597656 224.210938 155.492188 C 224.773438 155.675781 225.371094 155.75 225.976562 155.695312 C 226.585938 155.648438 227.164062 155.46875 227.6875 155.195312 C 228.933594 156.089844 230.339844 157.109375 230.339844 157.109375 L 230.570312 156.910156 C 230.570312 156.910156 229.773438 155.402344 229.0625 154.054688 C 229.796875 153.152344 230.148438 152 230.050781 150.84375 "/>
<path style=" stroke:none;fill-rule:nonzero;fill:rgb(92.941176%,10.980392%,14.117647%);fill-opacity:1;" d="M 225.359375 148.601562 C 224.660156 148.65625 224.011719 148.992188 223.5625 149.535156 C 222.792969 150.453125 222.738281 151.773438 223.425781 152.753906 C 224.109375 153.734375 225.371094 154.128906 226.496094 153.71875 C 227.621094 153.308594 228.328125 152.195312 228.222656 151.003906 C 228.164062 150.304688 227.828125 149.660156 227.289062 149.207031 C 226.753906 148.757812 226.058594 148.539062 225.359375 148.601562 M 25.863281 149.351562 C 37.078125 139.457031 27.894531 140.640625 26.636719 140.527344 C 25.375 140.421875 16.53125 137.660156 25.863281 149.351562 "/>
<path style=" stroke:none;fill-rule:nonzero;fill:rgb(100%,100%,100%);fill-opacity:1;" d="M 30.109375 151.265625 C 31.445312 150.617188 32.871094 149.917969 32.871094 149.917969 L 32.804688 149.617188 C 32.804688 149.617188 31.269531 149.609375 29.808594 149.609375 C 29.636719 149.15625 29.394531 148.730469 29.085938 148.351562 C 28.503906 147.65625 27.71875 147.15625 26.839844 146.921875 L 26.4375 144.082031 L 26.128906 144.054688 C 26.128906 144.054688 25.683594 145.429688 25.238281 146.785156 C 23.835938 146.921875 22.582031 147.710938 21.851562 148.914062 L 18.898438 148.398438 L 18.777344 148.679688 C 18.777344 148.679688 20.066406 149.617188 21.261719 150.496094 C 21.242188 150.613281 21.207031 150.71875 21.195312 150.835938 C 21.097656 151.992188 21.453125 153.144531 22.1875 154.042969 C 21.472656 155.390625 20.675781 156.898438 20.675781 156.898438 L 20.910156 157.097656 C 20.910156 157.097656 22.3125 156.078125 23.558594 155.183594 C 24.082031 155.457031 24.660156 155.632812 25.269531 155.683594 C 25.863281 155.738281 26.464844 155.667969 27.035156 155.480469 L 29.3125 157.835938 L 29.578125 157.679688 L 28.585938 154.605469 C 29.464844 153.847656 30.011719 152.777344 30.113281 151.621094 C 30.128906 151.503906 30.109375 151.386719 30.109375 151.265625 "/>
<path style=" stroke:none;fill-rule:nonzero;fill:rgb(92.941176%,10.980392%,14.117647%);fill-opacity:1;" d="M 27.683594 149.535156 C 27.238281 148.992188 26.589844 148.65625 25.886719 148.601562 C 25.1875 148.539062 24.496094 148.757812 23.957031 149.210938 C 23.421875 149.660156 23.085938 150.304688 23.023438 151.003906 C 22.964844 151.710938 23.183594 152.390625 23.632812 152.933594 C 24.324219 153.75 25.433594 154.074219 26.453125 153.75 C 27.472656 153.429688 28.199219 152.527344 28.292969 151.460938 C 28.351562 150.765625 28.132812 150.074219 27.683594 149.535156 "/>
<path style=" stroke:none;fill-rule:nonzero;fill:rgb(100%,100%,100%);fill-opacity:1;" d="M 27.503906 87.125 C 21.234375 86.019531 15.234375 90.226562 14.125 96.496094 C 13.019531 102.769531 17.222656 108.769531 23.492188 109.875 C 29.765625 110.984375 35.769531 106.777344 36.875 100.503906 C 37.984375 94.238281 33.78125 88.234375 27.503906 87.125 "/>
<path style=" stroke:none;fill-rule:nonzero;fill:rgb(92.941176%,10.980392%,14.117647%);fill-opacity:1;" d="M 30.117188 95.863281 C 29.953125 95.757812 29.789062 95.652344 29.628906 95.542969 C 28.679688 94.914062 26.820312 93.6875 26.769531 93.648438 C 26.511719 93.472656 26.261719 93.304688 26.015625 93.136719 C 25.277344 92.636719 24.527344 92.15625 23.757812 91.703125 C 23.5 91.554688 23.238281 91.414062 22.972656 91.28125 C 21.867188 90.722656 20.808594 90.386719 19.5625 90.277344 C 18.59375 90.976562 17.753906 91.839844 17.085938 92.828125 C 19.957031 93.867188 22.761719 95.527344 28.601562 99.152344 C 28.933594 98.386719 30.050781 96.007812 30.117188 95.863281 M 27.425781 102.054688 C 27.542969 101.761719 28.058594 100.464844 28.265625 99.964844 C 22.28125 96.246094 19.503906 94.601562 16.628906 93.585938 C 16.175781 94.402344 15.839844 95.28125 15.628906 96.191406 C 17.269531 98.449219 21.671875 100.664062 27.425781 102.054688 M 26.777344 92.609375 C 29.019531 91.285156 31.566406 91.644531 33.53125 92.316406 C 32.796875 91.359375 31.898438 90.539062 30.878906 89.898438 C 29.019531 89.527344 26.457031 89.472656 24.417969 91.09375 C 25.160156 91.527344 25.925781 92.035156 26.777344 92.609375 "/>
<path style=" stroke:none;fill-rule:nonzero;fill:rgb(92.941176%,10.980392%,14.117647%);fill-opacity:1;" d="M 17.839844 103.3125 C 18.140625 103.519531 18.445312 103.714844 18.773438 103.898438 C 19.433594 104.261719 20.144531 104.578125 20.886719 104.847656 C 21.199219 104.964844 21.515625 105.074219 21.835938 105.179688 C 22.957031 105.546875 25.535156 106.214844 25.726562 106.261719 L 27.097656 102.867188 C 22.636719 101.761719 17.75 99.824219 15.429688 97.308594 C 15.289062 98.441406 15.34375 99.59375 15.589844 100.710938 C 16.082031 101.777344 16.867188 102.628906 17.839844 103.3125 M 25.875 107.195312 L 24.945312 106.953125 C 24.023438 106.722656 23.105469 106.472656 22.195312 106.195312 C 22.660156 107.1875 23.390625 107.957031 24.167969 108.554688 C 25.183594 108.691406 26.214844 108.671875 27.226562 108.496094 C 26.515625 107.9375 25.875 107.195312 25.875 107.195312 M 35.207031 95.554688 C 34.996094 94.863281 34.714844 94.199219 34.367188 93.566406 C 32.605469 92.78125 29.929688 92.015625 27.589844 93.160156 L 30.816406 95.289062 C 31.488281 95.230469 32.105469 95.210938 32.675781 95.226562 C 32.984375 95.230469 33.269531 95.246094 33.542969 95.273438 C 34.179688 95.332031 34.714844 95.433594 35.207031 95.554688 M 33.554688 96.144531 C 33.460938 101.449219 30.960938 105.539062 28.804688 108.097656 C 32.179688 106.925781 34.835938 104.019531 35.5 100.265625 C 35.714844 99.027344 35.699219 97.757812 35.449219 96.523438 C 34.832031 96.332031 34.199219 96.207031 33.554688 96.144531 M 23.613281 90.644531 C 25.121094 89.3125 26.90625 88.863281 28.550781 88.824219 C 28.128906 88.6875 27.699219 88.578125 27.265625 88.503906 C 25.011719 88.101562 22.6875 88.484375 20.675781 89.578125 C 21.714844 89.78125 22.652344 90.148438 23.613281 90.644531 "/>
<path style=" stroke:none;fill-rule:nonzero;fill:rgb(92.941176%,10.980392%,14.117647%);fill-opacity:1;" d="M 30.941406 96.152344 C 30.171875 97.75 29.722656 98.726562 29.347656 99.617188 C 29.230469 99.886719 29.121094 100.148438 29.007812 100.421875 C 28.828125 100.867188 28.277344 102.257812 28.277344 102.257812 L 27.949219 103.074219 L 26.523438 106.601562 C 26.917969 107.125 27.394531 107.546875 27.863281 107.878906 C 29.976562 105.464844 32.613281 101.40625 32.691406 96.09375 C 32.160156 96.074219 31.574219 96.097656 30.941406 96.152344 M 21.128906 105.847656 C 20.414062 105.605469 19.714844 105.320312 19.039062 104.996094 C 19.289062 105.769531 19.648438 106.457031 20.011719 107.042969 C 20.769531 107.53125 21.605469 107.914062 22.496094 108.191406 C 21.921875 107.542969 21.421875 106.773438 21.128906 105.847656 M 17.992188 104.425781 C 17.519531 104.140625 17.070312 103.820312 16.648438 103.460938 C 17.117188 104.300781 17.707031 105.070312 18.394531 105.746094 C 18.222656 105.320312 18.089844 104.875 17.992188 104.425781 "/>
<path style=" stroke:none;fill-rule:nonzero;fill:rgb(100%,100%,100%);fill-opacity:1;" d="M 213.121094 100.503906 C 214.230469 106.777344 220.226562 110.984375 226.5 109.875 C 232.769531 108.769531 236.972656 102.765625 235.871094 96.496094 C 234.765625 90.226562 228.761719 86.019531 222.488281 87.125 C 216.21875 88.234375 212.015625 94.238281 213.121094 100.503906 "/>
<path style=" stroke:none;fill-rule:nonzero;fill:rgb(92.941176%,10.980392%,14.117647%);fill-opacity:1;" d="M 219.875 95.863281 L 220.371094 95.542969 C 221.578125 94.746094 222.78125 93.945312 223.980469 93.136719 C 224.71875 92.632812 225.46875 92.15625 226.238281 91.703125 C 226.507812 91.550781 226.769531 91.40625 227.023438 91.28125 C 228.125 90.722656 229.1875 90.386719 230.433594 90.277344 C 231.402344 90.972656 232.238281 91.839844 232.902344 92.828125 C 230.035156 93.867188 227.238281 95.527344 221.390625 99.152344 C 221.054688 98.386719 219.945312 96.007812 219.875 95.863281 M 222.570312 102.054688 C 222.449219 101.761719 221.933594 100.464844 221.734375 99.964844 C 227.707031 96.246094 230.496094 94.601562 233.371094 93.585938 C 233.8125 94.386719 234.152344 95.261719 234.371094 96.191406 C 232.726562 98.449219 228.320312 100.664062 222.570312 102.054688 M 223.214844 92.609375 C 220.972656 91.285156 218.429688 91.644531 216.464844 92.316406 C 217.199219 91.359375 218.101562 90.539062 219.121094 89.898438 C 220.976562 89.527344 223.535156 89.472656 225.574219 91.09375 C 224.773438 91.574219 223.988281 92.082031 223.214844 92.609375 "/>
<path style=" stroke:none;fill-rule:nonzero;fill:rgb(92.941176%,10.980392%,14.117647%);fill-opacity:1;" d="M 232.152344 103.3125 C 231.851562 103.523438 231.539062 103.71875 231.222656 103.898438 C 230.5625 104.261719 229.851562 104.578125 229.113281 104.847656 C 228.796875 104.964844 228.476562 105.074219 228.15625 105.179688 C 227.039062 105.546875 224.460938 106.214844 224.269531 106.261719 C 224.226562 106.160156 223.257812 103.773438 222.898438 102.867188 C 227.359375 101.761719 232.238281 99.824219 234.566406 97.308594 C 234.703125 98.441406 234.648438 99.59375 234.402344 100.710938 C 233.914062 101.777344 233.128906 102.628906 232.152344 103.3125 M 224.121094 107.195312 L 225.046875 106.953125 C 225.96875 106.722656 226.890625 106.472656 227.804688 106.195312 C 227.332031 107.1875 226.605469 107.957031 225.832031 108.554688 C 224.8125 108.691406 223.78125 108.671875 222.773438 108.496094 C 223.480469 107.9375 224.121094 107.195312 224.121094 107.195312 M 214.789062 95.554688 C 214.996094 94.863281 215.28125 94.195312 215.632812 93.566406 C 217.390625 92.78125 220.0625 92.015625 222.402344 93.160156 L 219.179688 95.289062 C 218.5625 95.234375 217.941406 95.210938 217.320312 95.226562 C 217.027344 95.230469 216.734375 95.246094 216.445312 95.273438 C 215.886719 95.324219 215.332031 95.417969 214.789062 95.554688 M 216.441406 96.144531 C 216.535156 101.449219 219.039062 105.539062 221.195312 108.097656 C 217.8125 106.925781 215.152344 104.019531 214.496094 100.265625 C 214.277344 99.027344 214.296875 97.753906 214.546875 96.523438 C 215.164062 96.332031 215.800781 96.207031 216.441406 96.144531 M 226.386719 90.644531 C 224.875 89.3125 223.085938 88.863281 221.445312 88.824219 C 221.867188 88.6875 222.296875 88.578125 222.734375 88.503906 C 224.988281 88.101562 227.308594 88.484375 229.316406 89.578125 C 228.285156 89.78125 227.34375 90.148438 226.386719 90.644531 "/>
<path style=" stroke:none;fill-rule:nonzero;fill:rgb(92.941176%,10.980392%,14.117647%);fill-opacity:1;" d="M 219.058594 96.152344 C 219.613281 97.296875 220.148438 98.453125 220.65625 99.617188 L 220.988281 100.421875 C 221.167969 100.867188 221.71875 102.257812 221.71875 102.257812 L 222.042969 103.074219 L 223.472656 106.601562 C 223.09375 107.09375 222.644531 107.523438 222.136719 107.878906 C 220.019531 105.464844 217.378906 101.40625 217.304688 96.09375 C 217.835938 96.074219 218.425781 96.097656 219.058594 96.152344 M 228.867188 105.847656 C 229.582031 105.605469 230.28125 105.320312 230.960938 104.996094 C 230.714844 105.714844 230.386719 106.402344 229.980469 107.042969 C 229.210938 107.535156 228.375 107.921875 227.503906 108.191406 C 228.078125 107.542969 228.574219 106.773438 228.867188 105.847656 M 232.007812 104.425781 C 232.476562 104.140625 232.925781 103.816406 233.347656 103.460938 C 232.878906 104.304688 232.289062 105.074219 231.601562 105.746094 C 231.769531 105.316406 231.90625 104.875 232.007812 104.425781 "/>
</g>
</svg>
