<?xml version="1.0" encoding="UTF-8"?>
<svg xmlns="http://www.w3.org/2000/svg" xmlns:xlink="http://www.w3.org/1999/xlink" width="400px" height="400px" viewBox="0 0 400 400" version="1.1">
<g id="surface1">
<rect x="0" y="0" width="400" height="400" style="fill:rgb(100%,100%,100%);fill-opacity:1;stroke:none;"/>
<path style=" stroke:none;fill-rule:evenodd;fill:rgb(0%,0%,0%);fill-opacity:1;" d="M 35.90625 35.425781 C 35.90625 35.425781 44.703125 141.792969 83.890625 223.367188 C 83.890625 223.367188 55.101562 215.371094 19.910156 195.378906 L 85.492188 363.328125 C 85.492188 363.328125 119.078125 342.53125 149.472656 340.132812 C 149.472656 340.132812 182.261719 383.320312 198.257812 393.714844 C 214.253906 383.320312 244.644531 339.332031 244.644531 339.332031 C 275.035156 341.730469 306.226562 361.726562 306.226562 361.726562 L 374.203125 195.375 C 339.015625 215.367188 315.824219 223.367188 315.824219 223.367188 C 351.011719 141.792969 363.007812 34.625 363.007812 34.625 L 292.632812 55.417969 L 103.882812 55.417969 Z M 35.90625 35.425781 "/>
<path style=" stroke:none;fill-rule:evenodd;fill:rgb(100%,100%,100%);fill-opacity:1;" d="M 103.882812 60.339844 L 293.339844 60.339844 C 293.339844 60.339844 345.546875 44.914062 357.179688 41.476562 C 353.75 67.003906 340.53125 153.679688 311.308594 221.425781 L 305.425781 235.367188 C 305.425781 235.367188 365.921875 215.25 394.117188 200.179688 C 385.460938 221.359375 332.34375 345.40625 328.617188 354.53125 C 318.222656 351.332031 269.304688 336.347656 245.03125 334.429688 L 242.207031 334.210938 L 240.601562 336.539062 C 232.851562 347.75 211.210938 377.171875 198.234375 387.636719 C 182.328125 375.160156 153.695312 337.566406 153.390625 337.164062 L 151.765625 335.023438 L 149.089844 335.234375 C 126.28125 335.34375 69.5 350.535156 63.097656 357.734375 C 56.328125 340.394531 10.871094 214.542969 5.886719 201.78125 C 35.515625 217.132812 92.742188 233.363281 92.742188 233.363281 L 87.769531 221.207031 C 55.222656 153.449219 44.3125 67.320312 41.535156 42.207031 L 103.175781 60.335938 L 103.882812 60.335938 Z M 103.882812 60.339844 "/>
<path style=" stroke:none;fill-rule:evenodd;fill:rgb(51.764706%,54.901961%,60%);fill-opacity:1;" d="M 47.902344 50.621094 L 95.886719 65.015625 L 300.625 65.015625 L 347.8125 49.820312 C 347.8125 49.820312 343.8125 122.597656 304.625 218.570312 C 265.433594 314.539062 197.457031 377.722656 197.457031 377.722656 C 197.457031 377.722656 118.28125 291.347656 87.089844 204.175781 C 55.902344 117 47.902344 50.621094 47.902344 50.621094 Z M 47.902344 50.621094 "/>
<path style=" stroke:none;fill-rule:evenodd;fill:rgb(23.529412%,31.764706%,58.431373%);fill-opacity:1;" d="M 17.511719 212.972656 C 17.511719 212.972656 83.890625 242.5625 147.871094 249.761719 C 211.851562 256.960938 252.636719 250.5625 252.636719 250.5625 C 252.636719 250.5625 317.417969 241.765625 378.199219 212.972656 L 321.417969 345.738281 C 321.417969 345.738281 279.828125 332.941406 248.640625 329.738281 C 217.449219 326.542969 167.867188 326.542969 143.875 329.738281 C 119.878906 332.941406 67.894531 347.335938 67.894531 347.335938 Z M 17.511719 212.972656 "/>
<path style=" stroke:none;fill-rule:evenodd;fill:rgb(100%,100%,100%);fill-opacity:1;" d="M 314.765625 121.375 C 314.765625 59.625 262.796875 9.5625 198.6875 9.5625 C 134.582031 9.5625 82.613281 59.625 82.613281 121.375 C 82.613281 183.132812 134.582031 233.191406 198.6875 233.191406 C 262.796875 233.191406 314.765625 183.132812 314.765625 121.375 Z M 314.765625 121.375 "/>
<path style=" stroke:none;fill-rule:evenodd;fill:rgb(0%,0%,0%);fill-opacity:1;" d="M 79.332031 121.375 C 79.332031 184.839844 132.875 236.46875 198.6875 236.46875 C 264.5 236.46875 318.042969 184.839844 318.042969 121.375 C 318.042969 57.914062 264.503906 6.285156 198.6875 6.285156 C 132.875 6.285156 79.332031 57.914062 79.332031 121.375 Z M 85.890625 121.375 C 85.890625 61.53125 136.492188 12.839844 198.6875 12.839844 C 260.886719 12.839844 311.484375 61.527344 311.484375 121.375 C 311.484375 181.222656 260.886719 229.914062 198.6875 229.914062 C 136.492188 229.914062 85.890625 181.222656 85.890625 121.375 Z M 85.890625 121.375 "/>
<path style=" stroke:none;fill-rule:evenodd;fill:rgb(23.529412%,31.764706%,58.431373%);fill-opacity:1;" d="M 307.226562 153.261719 C 307.226562 211.621094 259.914062 258.929688 201.558594 258.929688 C 143.199219 258.929688 95.890625 211.621094 95.890625 153.261719 C 95.890625 94.90625 143.199219 47.597656 201.558594 47.597656 C 259.914062 47.597656 307.226562 94.90625 307.226562 153.261719 Z M 307.226562 153.261719 "/>
<path style=" stroke:none;fill-rule:nonzero;fill:rgb(0%,0%,0%);fill-opacity:1;" d="M 311.160156 153.261719 C 311.160156 213.792969 262.089844 262.863281 201.558594 262.863281 C 171.292969 262.863281 143.890625 250.59375 124.058594 230.761719 C 104.226562 210.925781 91.957031 183.527344 91.957031 153.261719 C 91.957031 122.996094 104.226562 95.597656 124.058594 75.761719 C 143.894531 55.925781 171.292969 43.660156 201.558594 43.660156 C 231.824219 43.660156 259.226562 55.929688 279.058594 75.761719 C 298.890625 95.597656 311.160156 123 311.160156 153.261719 Z M 303.289062 153.261719 C 303.289062 125.167969 291.902344 99.738281 273.492188 81.328125 C 255.082031 62.917969 229.648438 51.53125 201.558594 51.53125 C 173.464844 51.53125 148.03125 62.917969 129.621094 81.328125 C 111.210938 99.738281 99.828125 125.167969 99.828125 153.261719 C 99.828125 181.355469 111.214844 206.789062 129.621094 225.199219 C 148.03125 243.609375 173.464844 254.992188 201.558594 254.992188 C 257.742188 254.992188 303.289062 209.449219 303.289062 153.261719 Z M 303.289062 153.261719 "/>
<path style=" stroke:none;fill-rule:evenodd;fill:rgb(0%,0%,0%);fill-opacity:1;" d="M 192.457031 37.773438 C 192.457031 37.773438 187.574219 42.652344 187.574219 46.035156 C 187.574219 46.035156 208.230469 56.921875 212.734375 64.808594 C 212.734375 64.808594 220.996094 62.179688 226.625 62.554688 C 232.261719 62.929688 241.269531 66.683594 241.269531 66.683594 C 241.269531 66.683594 232.261719 71.566406 230.382812 73.445312 C 228.503906 75.320312 224 81.707031 224 81.707031 C 224 81.707031 238.269531 91.46875 255.167969 92.96875 C 272.0625 94.46875 281.449219 89.214844 281.449219 89.214844 L 284.832031 90.714844 L 283.703125 92.96875 C 283.703125 92.96875 277.320312 95.597656 271.691406 96.722656 C 266.054688 97.851562 260.050781 98.976562 255.167969 98.976562 C 250.285156 98.976562 236.769531 96.347656 232.640625 94.847656 L 233.765625 100.480469 C 233.765625 100.480469 228.507812 94.847656 222.5 94.847656 L 222.5 97.472656 C 222.5 97.472656 237.144531 103.480469 250.289062 113.621094 C 263.429688 123.761719 275.066406 137.652344 275.066406 137.652344 C 275.066406 137.652344 283.582031 145.921875 289.335938 163.1875 C 292.71875 173.324219 293.089844 186.09375 293.089844 186.09375 L 296.472656 187.96875 L 289.335938 203.367188 L 288.207031 197.734375 C 288.207031 197.734375 287.835938 183.839844 283.703125 171.074219 C 279.570312 158.308594 272.0625 150.046875 265.304688 141.785156 C 258.542969 133.523438 237.515625 119.632812 233.011719 117.378906 C 233.011719 117.378906 240.144531 131.269531 240.523438 136.152344 C 240.523438 136.152344 234.515625 130.144531 228.882812 129.015625 C 228.882812 129.015625 234.136719 133.148438 245.402344 151.921875 C 256.671875 170.695312 255.542969 195.855469 255.542969 195.855469 C 255.542969 195.855469 254.417969 215.382812 252.542969 223.640625 C 250.664062 231.902344 248.410156 233.78125 248.410156 233.78125 L 246.53125 224.394531 C 246.53125 224.394531 250.664062 209.375 248.410156 191.351562 C 246.15625 173.324219 242.027344 154.175781 228.507812 142.160156 C 228.507812 142.160156 231.507812 153.050781 230.761719 160.558594 C 230.011719 168.070312 224.753906 177.832031 224.753906 177.832031 C 224.753906 177.832031 222.875 160.1875 217.617188 159.808594 C 217.617188 159.808594 217.617188 164.691406 217.242188 168.070312 C 216.863281 171.449219 213.488281 177.832031 215.738281 183.089844 C 217.992188 188.347656 221.371094 202.242188 221.746094 203.746094 C 222.121094 205.246094 222.875 209.375 222.875 209.375 C 222.875 209.375 223.625 210.878906 221.371094 212.757812 C 219.117188 214.632812 211.234375 221.394531 211.234375 221.394531 C 211.234375 221.394531 205.226562 224.773438 208.980469 225.898438 C 212.734375 227.027344 234.136719 227.027344 234.136719 227.027344 C 234.136719 227.027344 258.171875 225.148438 272.816406 213.503906 C 287.460938 201.863281 299.097656 184.59375 299.097656 184.59375 L 294.214844 206 C 294.214844 206 286.703125 227.777344 266.429688 240.542969 C 246.152344 253.308594 207.851562 275.839844 154.15625 252.554688 C 100.460938 229.273438 90.320312 178.585938 90.320312 178.585938 C 90.320312 178.585938 85.816406 163.1875 86.566406 156.429688 C 87.316406 149.671875 83.5625 141.410156 90.695312 141.410156 C 90.695312 141.410156 90.695312 130.144531 94.453125 126.390625 L 96.332031 118.503906 C 96.332031 118.503906 98.957031 99.351562 112.101562 88.464844 C 112.101562 88.464844 119.238281 79.828125 120.738281 78.699219 C 122.242188 77.574219 122.992188 73.445312 122.992188 73.445312 L 132.003906 64.808594 L 136.886719 64.058594 C 136.886719 64.058594 150.03125 55.421875 152.660156 55.046875 C 155.285156 54.671875 163.167969 37.019531 192.457031 37.773438 Z M 192.457031 37.773438 "/>
<path style=" stroke:none;fill-rule:evenodd;fill:rgb(100%,100%,100%);fill-opacity:1;" d="M 202.21875 234.15625 C 187.953125 231.902344 185.324219 230.398438 176.308594 224.394531 C 167.296875 218.386719 163.542969 210.875 163.542969 210.875 C 171.054688 214.628906 180.066406 212.375 181.570312 212.003906 C 183.070312 211.625 192.082031 206.367188 194.335938 204.113281 C 196.589844 201.863281 196.210938 199.984375 195.835938 197.730469 C 195.460938 195.476562 194.710938 187.59375 194.710938 183.464844 C 194.710938 179.332031 193.207031 173.699219 193.207031 173.699219 L 189.828125 181.210938 L 188.703125 178.582031 C 187.578125 175.953125 186.828125 171.820312 186.453125 168.820312 C 186.074219 165.8125 184.199219 159.429688 183.445312 155.675781 C 182.695312 151.921875 181.195312 142.535156 181.195312 142.535156 C 181.195312 142.535156 176.3125 124.132812 175.9375 123.007812 C 175.5625 121.882812 176.691406 119.628906 176.691406 119.628906 C 176.691406 119.628906 178.566406 124.886719 183.074219 127.886719 C 187.578125 130.890625 192.460938 131.269531 192.460938 131.269531 C 192.460938 131.269531 180.820312 119.628906 177.066406 113.242188 C 173.308594 106.859375 171.058594 95.21875 169.929688 91.089844 C 168.804688 86.960938 170.683594 85.457031 170.683594 85.457031 L 172.9375 89.589844 L 179.320312 90.714844 C 171.808594 65.933594 175.1875 57.671875 175.941406 54.667969 C 176.691406 51.664062 184.199219 42.277344 184.199219 42.277344 L 180.820312 42.652344 C 173.6875 44.15625 164.300781 51.664062 164.300781 51.664062 C 164.300781 51.664062 155.660156 57.675781 155.289062 64.808594 C 154.914062 71.941406 148.90625 76.074219 145.902344 79.828125 C 142.894531 83.582031 137.640625 93.71875 134.636719 101.230469 C 131.632812 108.742188 131.257812 121.882812 133.507812 129.769531 C 135.761719 137.652344 141.769531 145.539062 144.398438 148.167969 C 147.027344 150.792969 145.523438 151.167969 142.148438 150.042969 C 138.765625 148.917969 132.757812 145.914062 129.753906 142.53125 C 126.75 139.152344 126.75 141.40625 126.75 143.285156 C 126.75 145.160156 133.507812 159.429688 135.011719 162.058594 C 136.511719 164.6875 133.882812 163.558594 131.253906 161.304688 C 128.625 159.054688 123.367188 152.667969 123.367188 152.667969 C 123.367188 152.667969 124.496094 156.425781 127.5 163.183594 C 130.503906 169.941406 145.148438 189.46875 145.148438 189.46875 C 145.148438 189.46875 159.039062 198.109375 144.773438 194.351562 C 130.503906 190.59375 122.992188 185.339844 122.992188 185.339844 L 127.875 194.351562 C 127.875 194.351562 149.277344 223.640625 168.800781 232.277344 C 188.328125 240.910156 207.105469 240.160156 215.363281 240.160156 C 223.625 240.160156 239.394531 236.03125 239.394531 236.03125 C 239.394531 236.03125 216.488281 236.410156 202.21875 234.15625 Z M 177.8125 188.347656 C 181.191406 181.585938 185.324219 186.46875 186.074219 192.101562 C 186.859375 197.984375 187.199219 202.613281 187.199219 202.613281 C 180.066406 183.839844 180.816406 199.234375 180.816406 199.234375 C 171.808594 197.734375 177.8125 188.347656 177.8125 188.347656 Z M 165.046875 57.300781 C 165.421875 55.796875 170.304688 50.539062 170.304688 50.539062 C 170.304688 50.539062 178.191406 45.28125 177.0625 46.785156 C 175.9375 48.285156 169.554688 61.804688 169.554688 61.804688 L 167.675781 61.804688 L 161.667969 67.4375 C 161.667969 67.4375 164.671875 58.800781 165.046875 57.300781 Z M 160.914062 90.34375 C 161.664062 88.089844 163.917969 86.210938 163.917969 86.210938 C 163.917969 86.210938 163.167969 91.84375 164.671875 98.601562 C 166.171875 105.363281 171.429688 113.246094 171.429688 113.246094 C 171.429688 113.246094 168.425781 114 165.046875 111.746094 C 161.667969 109.492188 159.039062 105.738281 159.039062 102.359375 C 159.039062 98.980469 160.164062 92.597656 160.914062 90.34375 Z M 150.027344 100.480469 C 150.402344 95.597656 154.15625 90.339844 154.15625 90.339844 C 154.15625 90.339844 151.152344 97.851562 153.027344 104.234375 C 154.90625 110.617188 160.164062 118.878906 161.289062 119.253906 C 162.417969 119.628906 163.917969 118.878906 163.917969 118.878906 L 168.050781 122.257812 L 171.429688 134.648438 C 171.429688 134.648438 163.171875 130.144531 157.160156 122.632812 C 151.152344 115.125 149.652344 105.363281 150.027344 100.480469 Z M 150.777344 174.828125 C 146.273438 167.320312 140.265625 156.429688 140.265625 156.429688 L 151.902344 159.058594 C 151.902344 159.058594 166.171875 191.351562 167.300781 192.101562 C 168.425781 192.851562 167.671875 195.480469 167.671875 195.480469 L 165.421875 193.976562 C 165.421875 193.976562 155.285156 182.339844 150.777344 174.828125 Z M 150.777344 174.828125 "/>
<path style=" stroke:none;fill-rule:evenodd;fill:rgb(51.764706%,54.901961%,60%);fill-opacity:1;" d="M 132.003906 75.320312 C 132.003906 75.320312 128.621094 80.953125 130.5 83.207031 C 130.5 83.207031 141.765625 69.691406 148.523438 67.4375 C 148.523438 67.4375 133.878906 82.082031 128.246094 97.101562 C 122.613281 112.121094 121.113281 131.644531 122.238281 144.039062 C 122.238281 144.039062 114.351562 123.386719 118.859375 108.367188 C 118.859375 108.367188 109.09375 117.378906 112.101562 140.285156 C 115.101562 163.191406 132.753906 183.84375 132.753906 183.84375 C 132.753906 183.84375 122.613281 178.585938 118.109375 174.078125 C 113.601562 169.570312 109.847656 161.6875 109.847656 161.6875 C 109.847656 161.6875 110.972656 189.097656 132.003906 214.257812 C 153.03125 239.414062 178.1875 246.550781 195.835938 249.179688 C 213.488281 251.804688 243.523438 247.675781 270.1875 230.027344 C 270.1875 230.027344 242.773438 253.683594 206.351562 254.4375 C 169.929688 255.183594 139.511719 236.410156 125.996094 221.015625 C 112.476562 205.621094 93.328125 174.078125 97.082031 148.546875 C 97.082031 148.546875 98.585938 168.445312 106.847656 177.460938 C 106.847656 177.460938 98.960938 144.042969 99.710938 130.523438 C 100.460938 117.003906 107.222656 103.109375 111.351562 100.109375 C 111.351562 100.109375 104.96875 114 107.59375 120.382812 C 107.59375 120.382812 113.976562 100.855469 118.859375 96.726562 C 123.742188 92.597656 123.363281 89.59375 124.117188 87.339844 C 124.867188 85.082031 126.367188 79.453125 132.003906 75.320312 Z M 132.003906 75.320312 "/>
<path style=" stroke:none;fill-rule:evenodd;fill:rgb(51.764706%,54.901961%,60%);fill-opacity:1;" d="M 173.683594 175.957031 L 172.929688 157.929688 C 172.929688 157.929688 173.308594 152.675781 172.179688 148.917969 C 171.054688 145.164062 172.179688 138.03125 172.179688 138.03125 L 174.433594 143.660156 C 174.433594 143.660156 175.183594 147.042969 175.183594 148.542969 C 175.183594 150.046875 175.933594 154.554688 177.8125 158.308594 C 179.691406 162.0625 183.070312 177.832031 183.070312 177.832031 C 183.070312 177.832031 178.1875 173.703125 173.683594 175.957031 Z M 175.5625 192.476562 C 175.5625 192.476562 176.3125 184.964844 177.4375 183.839844 C 178.566406 182.710938 183.070312 178.957031 185.699219 184.214844 C 188.328125 189.472656 189.078125 194.726562 187.574219 201.113281 C 187.574219 201.113281 186.074219 175.203125 175.5625 192.476562 Z M 214.234375 68.1875 L 218.363281 74.570312 C 218.363281 74.570312 218.742188 70.441406 224 68.1875 C 229.253906 65.933594 236.011719 66.3125 236.011719 66.3125 C 236.011719 66.3125 228.503906 64.058594 224 64.808594 C 219.492188 65.558594 214.234375 68.1875 214.234375 68.1875 Z M 205.976562 92.21875 C 205.976562 92.21875 211.605469 83.582031 211.605469 80.953125 L 213.488281 75.320312 L 214.234375 80.582031 C 215.363281 86.589844 214.984375 99.730469 214.984375 99.730469 C 214.984375 99.730469 214.609375 112.121094 212.359375 118.503906 C 210.105469 124.886719 206.347656 129.394531 206.347656 129.394531 C 206.347656 129.394531 208.980469 124.136719 210.855469 107.992188 C 212.730469 91.84375 211.605469 91.84375 211.605469 91.84375 C 211.605469 91.84375 207.851562 101.609375 204.847656 104.609375 C 204.847656 104.609375 203.722656 97.476562 201.46875 92.597656 C 199.214844 87.714844 193.957031 83.960938 193.957031 83.960938 C 193.957031 83.960938 196.960938 92.597656 199.214844 101.984375 C 201.464844 111.371094 200.714844 128.269531 200.714844 128.269531 C 200.714844 128.269531 196.960938 113.25 192.078125 95.601562 C 187.199219 77.953125 180.441406 66.3125 180.441406 66.3125 C 180.441406 66.3125 192.457031 74.574219 196.210938 78.703125 C 199.96875 82.832031 205.976562 92.21875 205.976562 92.21875 Z M 171.054688 86.585938 C 171.054688 86.585938 179.691406 100.480469 176.308594 70.816406 C 176.308594 70.816406 183.820312 97.851562 184.195312 98.601562 C 184.570312 99.351562 185.699219 103.859375 182.691406 101.230469 C 179.691406 98.601562 171.054688 86.585938 171.054688 86.585938 Z M 220.617188 109.117188 C 220.617188 109.117188 219.871094 103.109375 220.996094 105.738281 C 222.121094 108.367188 223.246094 117.378906 222.121094 122.636719 C 220.996094 127.890625 213.109375 135.027344 213.109375 135.027344 C 213.109375 135.027344 212.730469 135.402344 214.234375 132.023438 C 215.738281 128.644531 216.867188 126.015625 217.992188 121.132812 C 218.898438 117.136719 219.773438 113.128906 220.617188 109.117188 Z M 201.46875 222.894531 L 217.617188 210.5 C 217.617188 210.5 218.363281 208.992188 217.992188 206.746094 C 217.617188 204.492188 210.480469 180.082031 210.480469 180.082031 C 210.480469 180.082031 208.980469 177.453125 210.105469 176.328125 C 211.234375 175.203125 211.605469 171.070312 211.234375 169.191406 C 210.855469 167.316406 211.609375 163.183594 212.359375 162.058594 C 213.109375 160.933594 214.234375 156.050781 214.234375 152.292969 C 214.234375 148.539062 213.488281 142.15625 213.488281 142.15625 C 213.488281 142.15625 211.234375 150.792969 210.855469 154.171875 C 210.476562 157.550781 208.601562 159.804688 208.980469 165.4375 C 209.355469 171.066406 207.101562 173.699219 207.101562 173.699219 C 207.101562 173.699219 205.226562 177.074219 206.726562 179.703125 C 208.230469 182.335938 213.859375 204.867188 213.859375 204.867188 C 213.859375 204.867188 215.363281 207.492188 213.109375 209.746094 C 210.855469 212 201.46875 222.894531 201.46875 222.894531 Z M 201.46875 222.894531 "/>
<path style=" stroke:none;fill-rule:evenodd;fill:rgb(0%,0%,0%);fill-opacity:1;" d="M 127.769531 48.828125 L 132.265625 45.140625 C 133.15625 44.414062 133.933594 43.902344 134.613281 43.617188 C 135.289062 43.328125 135.929688 43.191406 136.535156 43.199219 C 137.136719 43.207031 137.683594 43.34375 138.171875 43.613281 C 138.65625 43.878906 139.082031 44.234375 139.449219 44.679688 C 140.019531 45.375 140.34375 46.015625 140.421875 46.59375 C 140.496094 47.171875 140.429688 47.769531 140.222656 48.375 C 140.019531 48.976562 139.699219 49.53125 139.285156 50.011719 C 138.777344 50.613281 138.222656 51.164062 137.621094 51.667969 L 133.125 55.355469 Z M 132.019531 47.835938 L 134.945312 51.398438 L 135.683594 50.792969 C 136.316406 50.273438 136.726562 49.859375 136.917969 49.542969 C 137.109375 49.230469 137.183594 48.898438 137.144531 48.539062 C 137.105469 48.179688 136.871094 47.742188 136.445312 47.21875 C 135.875 46.527344 135.316406 46.191406 134.769531 46.214844 C 134.222656 46.242188 133.558594 46.574219 132.773438 47.214844 Z M 162.335938 35.71875 L 158.246094 37.414062 L 158.195312 38.945312 L 154.5 40.476562 L 155.660156 30.851562 L 159.632812 29.207031 L 167.242188 35.195312 L 163.453125 36.765625 Z M 160.871094 34.351562 L 158.4375 32.078125 L 158.316406 35.410156 Z M 181.566406 23.1875 L 185.457031 22.734375 L 186.191406 29.066406 L 192.257812 28.359375 L 192.5 30.414062 L 182.542969 31.574219 Z M 210.054688 22.375 L 213.929688 22.933594 L 213.019531 29.238281 L 219.066406 30.109375 L 218.773438 32.160156 L 208.851562 30.734375 Z M 242.101562 38.554688 L 238.0625 36.742188 L 236.910156 37.753906 L 233.261719 36.117188 L 241.054688 30.359375 L 244.980469 32.117188 L 245.847656 41.757812 L 242.105469 40.082031 Z M 242.089844 36.550781 L 242.070312 33.222656 L 239.566406 35.421875 Z M 260.1875 47.820312 L 263.089844 50.164062 C 262.898438 50.46875 262.8125 50.828125 262.851562 51.183594 C 262.929688 51.703125 263.25 52.210938 263.8125 52.703125 C 264.230469 53.070312 264.613281 53.289062 264.953125 53.355469 C 265.292969 53.425781 265.539062 53.375 265.6875 53.199219 C 265.835938 53.035156 265.855469 52.792969 265.753906 52.476562 C 265.652344 52.160156 265.257812 51.59375 264.570312 50.789062 C 263.453125 49.460938 262.753906 48.394531 262.488281 47.589844 C 262.210938 46.785156 262.292969 46.132812 262.726562 45.640625 C 263.015625 45.308594 263.425781 45.125 263.96875 45.082031 C 264.507812 45.042969 265.132812 45.1875 265.847656 45.523438 C 266.5625 45.855469 267.414062 46.460938 268.40625 47.332031 C 269.628906 48.402344 270.421875 49.363281 270.796875 50.226562 C 271.175781 51.089844 271.132812 51.902344 270.675781 52.667969 L 267.804688 50.347656 C 267.980469 50.03125 268.007812 49.65625 267.886719 49.316406 C 267.761719 48.976562 267.496094 48.628906 267.074219 48.261719 C 266.730469 47.960938 266.429688 47.78125 266.175781 47.726562 C 265.914062 47.671875 265.730469 47.710938 265.609375 47.847656 C 265.515625 47.953125 265.507812 48.105469 265.578125 48.308594 C 265.644531 48.515625 265.902344 48.882812 266.363281 49.410156 C 267.488281 50.722656 268.246094 51.71875 268.636719 52.398438 C 269.027344 53.074219 269.226562 53.664062 269.234375 54.167969 C 269.253906 54.636719 269.09375 55.09375 268.789062 55.445312 C 268.429688 55.851562 267.933594 56.082031 267.292969 56.125 C 266.652344 56.171875 265.953125 56.019531 265.191406 55.660156 C 264.433594 55.304688 263.59375 54.722656 262.667969 53.914062 C 261.046875 52.492188 260.105469 51.300781 259.847656 50.339844 C 259.589844 49.375 259.703125 48.539062 260.1875 47.820312 Z M 260.1875 47.820312 "/>
<path style=" stroke:none;fill-rule:evenodd;fill:rgb(100%,100%,100%);fill-opacity:1;" d="M 38.058594 238.304688 L 74.046875 335.046875 L 88.519531 330.777344 L 88.523438 330.789062 L 102.550781 327.011719 L 102.648438 327.351562 L 119.949219 323.773438 L 119.011719 320.394531 C 118.507812 318.5625 106.5625 275.511719 103.195312 265.410156 C 99.386719 253.992188 86.863281 248.625 86.332031 248.402344 L 86.167969 248.335938 L 85.996094 248.285156 C 82.132812 247.140625 75.53125 245.136719 74.265625 244.628906 C 71.996094 243.722656 70.164062 244.027344 68.945312 244.738281 C 67.378906 243.738281 65.792969 242.773438 64.1875 241.839844 L 63.917969 241.683594 L 35.621094 231.757812 Z M 38.058594 238.304688 "/>
<path style=" stroke:none;fill-rule:evenodd;fill:rgb(100%,100%,100%);fill-opacity:1;" d="M 101.035156 256.355469 L 117.910156 323.859375 L 131.941406 321.613281 L 132.019531 321.945312 L 146.371094 319.414062 L 145.738281 316.140625 C 145.445312 314.636719 138.574219 279.203125 136.710938 270.632812 C 134.457031 260.269531 122.621094 256.351562 122.117188 256.191406 L 121.972656 256.144531 L 99.75 251.207031 Z M 108.683594 259.910156 L 120.21875 262.476562 C 121.269531 262.847656 128.949219 265.804688 130.300781 272.027344 C 131.820312 279.015625 136.875 304.921875 138.664062 314.117188 L 137.054688 314.398438 L 132.039062 291.871094 L 119.027344 291.054688 L 125.648438 315.980469 L 122.8125 316.429688 Z M 108.683594 259.910156 "/>
<path style=" stroke:none;fill-rule:evenodd;fill:rgb(100%,100%,100%);fill-opacity:1;" d="M 117.113281 260.945312 C 113.390625 262.125 113.628906 266.917969 113.707031 268.492188 L 113.726562 268.800781 L 119.671875 293.007812 L 131.996094 293.007812 L 131.5 289.292969 C 131.109375 286.355469 129.007812 271.453125 126.132812 266.941406 C 123.992188 263.578125 120.6875 259.804688 117.113281 260.945312 Z M 121.195312 271.726562 C 122 273.847656 122.863281 277.605469 123.601562 281.527344 C 122.511719 277.089844 121.949219 274.8125 121.195312 271.726562 Z M 133.773438 262.984375 L 133.761719 262.941406 C 134.480469 265.382812 142.1875 306.476562 143.023438 312.347656 C 143.457031 315.394531 144.632812 317.5 146.515625 318.617188 C 147.871094 319.417969 149.304688 319.507812 150.414062 319.292969 C 152.3125 319.277344 160.847656 319.121094 165.632812 317.648438 C 170.714844 316.082031 172.160156 310.539062 172.160156 305.851562 C 172.160156 303.976562 171.929688 302.238281 171.605469 300.953125 L 171.617188 300.992188 C 171.160156 298.679688 170.953125 278.523438 170.953125 264.949219 L 170.953125 261.773438 L 153.042969 261.214844 C 153.035156 261.121094 153.023438 261.027344 153.015625 260.9375 L 132.167969 257.957031 Z M 149.515625 311.417969 C 149.015625 307.898438 143.550781 277.988281 141.089844 265.855469 L 147.039062 266.707031 C 147.976562 275.441406 151.019531 303.65625 151.664062 307.878906 C 152.019531 310.175781 152.988281 311.683594 154.152344 312.613281 C 152.777344 312.6875 151.402344 312.726562 150.023438 312.734375 L 149.828125 312.734375 C 149.675781 312.308594 149.570312 311.867188 149.515625 311.417969 Z M 156.644531 294.257812 C 156.960938 296.785156 157.21875 299.027344 157.402344 300.875 C 157.175781 298.945312 156.917969 296.6875 156.644531 294.257812 Z M 164.148438 307.164062 C 164.210938 306.808594 164.238281 306.296875 164.238281 305.664062 C 164.238281 299.035156 161.171875 278.554688 159.519531 267.972656 L 164.402344 268.125 C 164.417969 278.375 164.542969 299.726562 165.246094 302.539062 C 165.464844 303.410156 165.589844 304.59375 165.589844 305.808594 C 165.589844 308.3125 165.058594 310.960938 163.707031 311.378906 C 163.1875 311.539062 162.578125 311.675781 161.921875 311.800781 C 163.027344 310.625 163.839844 309.023438 164.148438 307.164062 Z M 164.148438 307.164062 "/>
<path style=" stroke:none;fill-rule:evenodd;fill:rgb(100%,100%,100%);fill-opacity:1;" d="M 169.652344 275.460938 L 169.652344 275.554688 L 170.867188 318.167969 L 174.054688 318.167969 C 174.445312 318.167969 183.621094 318.160156 188.933594 317.78125 C 195.984375 317.28125 199.925781 308.539062 200.351562 307.539062 L 200.578125 307.003906 L 201.167969 295.832031 L 200.242188 295.832031 L 200.242188 288.871094 L 200.925781 288.871094 L 201.433594 263.308594 L 198.230469 263.171875 C 198.144531 263.164062 189.429688 262.792969 181.191406 262.792969 C 172.726562 262.796875 169.652344 270.371094 169.652344 275.460938 Z M 181.191406 269.355469 L 182.402344 269.355469 C 181.949219 269.585938 181.519531 269.867188 181.121094 270.1875 C 180 271.128906 178.660156 272.871094 178.660156 275.835938 L 178.660156 290.207031 L 178.285156 290.207031 L 178.285156 311.578125 L 177.242188 311.59375 L 176.207031 275.453125 C 176.226562 274.386719 176.554688 269.355469 181.191406 269.355469 Z M 191.605469 271.707031 L 191.605469 269.511719 C 192.773438 269.542969 193.84375 269.574219 194.746094 269.605469 L 194.5 282.320312 L 191.605469 282.320312 Z M 186.429688 296.765625 L 185.445312 305.117188 C 185.359375 305.855469 185.152344 306.394531 184.898438 306.554688 C 184.882812 306.5625 184.859375 306.566406 184.847656 306.578125 L 184.847656 296.761719 Z M 194.257812 302.398438 L 194.097656 305.425781 C 193.234375 307.222656 191.703125 309.457031 190.117188 310.566406 C 190.96875 309.515625 191.707031 308.023438 191.957031 305.886719 L 192.371094 302.398438 Z M 194.257812 302.398438 "/>
<path style=" stroke:none;fill-rule:evenodd;fill:rgb(100%,100%,100%);fill-opacity:1;" d="M 222.746094 262.046875 L 199.789062 262.914062 L 198.089844 316.554688 L 211.769531 317 L 211.765625 317.042969 L 212.996094 317.042969 L 213.195312 317.046875 L 213.195312 317.042969 L 226.253906 317.042969 L 226.824219 314.472656 C 226.917969 314.042969 229.15625 303.910156 229.15625 297.617188 C 229.15625 294.734375 228.621094 292.683594 227.902344 291.222656 C 230.152344 288.535156 231.160156 285.089844 231.296875 284.566406 L 231.359375 284.351562 L 231.382812 284.128906 C 231.425781 283.804688 232.238281 277.257812 232.238281 272.351562 C 232.238281 271.480469 232.207031 270.65625 232.148438 269.933594 C 231.667969 264.144531 226.015625 262.246094 223.09375 262.050781 L 222.925781 262.039062 Z M 222.769531 268.605469 C 223.335938 268.675781 225.492188 269.03125 225.613281 270.472656 C 225.65625 271.019531 225.679688 271.652344 225.679688 272.347656 C 225.679688 275.867188 225.171875 280.863281 224.90625 283.042969 C 224.398438 284.78125 223.125 287.320312 221.917969 287.855469 L 214.1875 291.292969 C 213.21875 291.066406 212.226562 290.953125 211.234375 290.953125 L 208.136719 290.953125 L 207.019531 310.28125 L 204.851562 310.207031 C 205.019531 304.929688 205.992188 274.183594 206.152344 269.230469 C 210.472656 269.074219 222.390625 268.621094 222.769531 268.605469 Z M 220.128906 297.917969 L 220.144531 297.769531 L 220.144531 297.617188 C 220.144531 296.203125 219.425781 294.035156 217.277344 292.558594 C 219.503906 293.199219 221.382812 293.734375 221.867188 293.871094 C 222.121094 294.199219 222.597656 295.273438 222.597656 297.617188 C 222.597656 301.421875 221.59375 307.179688 220.949219 310.484375 L 218.960938 310.484375 C 219.363281 306.140625 220.128906 297.917969 220.128906 297.917969 Z M 220.128906 297.917969 "/>
<path style=" stroke:none;fill-rule:evenodd;fill:rgb(100%,100%,100%);fill-opacity:1;" d="M 211.265625 267.488281 L 209.179688 268.226562 L 208.199219 291.179688 L 211.28125 291.488281 C 214.117188 291.773438 218.117188 291.828125 220.101562 289.09375 C 220.765625 288.167969 221.011719 287.160156 221.011719 286.242188 C 221.011719 285.988281 220.96875 285.757812 220.9375 285.527344 C 221.203125 283.667969 222.019531 277.546875 222.019531 273.203125 C 222.019531 270.1875 220.453125 268.632812 219.527344 267.972656 C 216.46875 265.816406 212.109375 267.191406 211.265625 267.488281 Z M 246.324219 260.921875 L 231.582031 261.84375 L 224.824219 317.890625 L 240.636719 318.683594 L 250.449219 260.664062 Z M 242.601562 267.726562 C 241.507812 274.210938 235.9375 307.15625 235.144531 311.84375 C 233.878906 311.777344 233.566406 311.765625 232.175781 311.695312 L 237.4375 268.050781 Z M 242.601562 267.726562 "/>
<path style=" stroke:none;fill-rule:evenodd;fill:rgb(100%,100%,100%);fill-opacity:1;" d="M 280.828125 254.96875 L 259.164062 259.148438 L 258.914062 259.242188 C 258.558594 259.375 250.152344 262.5625 247.867188 271.246094 C 245.976562 278.417969 240.171875 309.585938 239.925781 310.910156 C 239.285156 314.101562 240.324219 318.078125 244.125 319.167969 C 246.984375 319.984375 254.960938 320.347656 256.53125 320.417969 L 256.675781 320.421875 L 256.820312 320.417969 C 257.234375 320.398438 266.957031 319.828125 270.277344 310.339844 C 271.980469 305.433594 273.507812 300.464844 274.855469 295.449219 L 275.816406 291.984375 C 275.816406 291.984375 258.996094 292.230469 258.722656 292.25 C 259.042969 290.808594 258.554688 293.0625 258.875 291.585938 L 276.027344 291.015625 L 286.011719 253.972656 Z M 261.378906 265.402344 C 260.019531 266.757812 258.375 269.027344 256.390625 272.8125 L 256.183594 273.203125 L 256.089844 273.632812 C 253.3125 286.359375 249.035156 305.792969 248.644531 307.175781 L 248.675781 307.089844 C 248.515625 307.585938 248.4375 308.105469 248.441406 308.625 C 248.441406 310.285156 249.160156 312.109375 250.375 313.328125 C 250.425781 313.378906 250.488281 313.417969 250.542969 313.464844 C 248.773438 313.316406 247.238281 313.136719 246.347656 312.949219 C 246.339844 312.859375 246.328125 312.765625 246.328125 312.664062 C 246.328125 312.472656 246.347656 312.277344 246.375 312.113281 C 246.433594 311.78125 252.382812 279.847656 254.203125 272.914062 C 255.472656 268.097656 260.066406 265.875 260.996094 265.472656 C 261.007812 265.472656 261.351562 265.40625 261.378906 265.402344 Z M 276.890625 262.40625 L 271.792969 280.898438 C 270.285156 280.949219 269.441406 280.976562 267.3125 281.050781 L 270.027344 270.464844 L 270.054688 270.289062 C 270.101562 269.953125 270.125 269.609375 270.125 269.265625 C 270.125 267.257812 269.273438 265.25 267.507812 264.214844 C 271.585938 263.429688 273.445312 263.070312 276.890625 262.40625 Z M 267.265625 298.214844 C 266.289062 301.5625 265.226562 304.882812 264.085938 308.175781 C 262.683594 312.183594 259.15625 313.375 257.445312 313.722656 C 259.859375 311.917969 261.179688 308.457031 261.679688 306.84375 L 261.707031 306.757812 L 263.777344 298.464844 Z M 267.265625 298.214844 "/>
<path style=" stroke:none;fill-rule:evenodd;fill:rgb(100%,100%,100%);fill-opacity:1;" d="M 314.292969 247.539062 L 301.636719 251.375 C 301.640625 251.355469 301.714844 251.121094 301.714844 251.121094 L 284.101562 255.03125 L 264.753906 321.265625 L 278.019531 323.136719 L 277.960938 323.34375 L 292.589844 326.144531 L 293.542969 323.519531 C 293.792969 322.84375 299.585938 306.890625 301.457031 301.28125 C 301.976562 299.722656 302.195312 298.242188 302.195312 296.867188 C 302.195312 294.988281 301.792969 293.308594 301.234375 291.917969 C 303.789062 289.707031 306.050781 286.425781 307.128906 284.722656 L 307.335938 284.390625 L 320.386719 245.691406 Z M 291.972656 260 C 289.578125 267.457031 282.300781 290.09375 282.300781 290.09375 L 282.425781 290.101562 L 274.613281 316.03125 L 273.171875 315.828125 C 274.992188 309.609375 288.351562 263.875 289.3125 260.589844 C 290.117188 260.414062 290.65625 260.296875 291.972656 260 Z M 310.105469 255.660156 C 307.195312 264.28125 304.289062 272.902344 301.386719 281.519531 C 299.507812 284.414062 296.992188 287.308594 296 287.691406 C 295.957031 287.703125 295 287.988281 294.046875 288.265625 C 295.46875 287.25 296.578125 285.851562 297.246094 284.234375 C 298.898438 280.265625 303.933594 262.664062 305.519531 257.050781 Z M 291.609375 289.550781 C 292.179688 290.265625 294.371094 293.011719 294.371094 293.011719 C 294.4375 293.085938 295.628906 294.539062 295.628906 296.863281 C 295.628906 297.570312 295.519531 298.351562 295.234375 299.207031 C 293.839844 303.386719 290.097656 313.765625 288.328125 318.648438 L 286.253906 318.253906 L 291.617188 299.679688 C 292.125 298.777344 292.523438 297.628906 292.523438 296.394531 C 292.523438 295.671875 292.390625 294.929688 292.070312 294.203125 C 291.128906 292.070312 288.953125 290.785156 285.671875 290.320312 L 286.492188 290.371094 C 287.839844 290.460938 289.734375 290.265625 291.609375 289.550781 Z M 291.609375 289.550781 "/>
<path style=" stroke:none;fill-rule:evenodd;fill:rgb(100%,100%,100%);fill-opacity:1;" d="M 352.007812 234.847656 L 329.882812 243.234375 L 329.574219 243.445312 C 327.539062 244.800781 317.265625 251.902344 315.136719 258.277344 C 313.300781 263.785156 302.519531 292.414062 302.414062 292.703125 L 300.789062 297.011719 L 301.488281 297.03125 L 293.773438 318.246094 C 293.511719 318.863281 292.953125 320.335938 292.953125 322.042969 C 292.953125 323.058594 293.152344 324.136719 293.730469 325.132812 C 294.269531 326.058594 295.589844 327.65625 298.425781 327.917969 C 301.273438 328.160156 304.125 328.292969 306.984375 328.308594 L 307.199219 328.308594 L 307.410156 328.277344 C 307.828125 328.226562 317.707031 326.847656 322.589844 318.410156 C 326.8125 311.121094 335.953125 286.65625 336.339844 285.617188 L 338.042969 281.054688 L 337.800781 281.0625 L 359.316406 232.074219 Z M 347.023438 243.75 C 343.019531 252.867188 334.566406 272.109375 333.34375 274.886719 C 332.34375 274.929688 331.792969 274.945312 330.242188 275.003906 L 335.679688 260.988281 L 335.734375 260.707031 C 335.910156 259.828125 335.996094 259.023438 335.996094 258.292969 C 335.996094 256.609375 335.53125 255.316406 334.609375 254.4375 C 333.636719 253.519531 332.261719 253.167969 330.972656 253.507812 C 328.757812 254.058594 326.660156 256.03125 326.066406 256.621094 L 325.636719 257.054688 L 325.390625 257.609375 C 322.625 263.839844 316.136719 278.667969 315.746094 281.816406 C 315.449219 284.1875 315.953125 285.96875 317.238281 287.109375 C 318.242188 287.996094 319.617188 288.339844 320.921875 288.03125 L 320.21875 288.128906 L 328.464844 287.894531 C 325.578125 295.417969 319.816406 310.109375 316.914062 315.125 C 313.953125 320.242188 307.8125 321.550781 306.730469 321.75 C 304.351562 321.726562 301.976562 321.621094 299.605469 321.433594 C 299.664062 321.199219 299.746094 320.949219 299.835938 320.75 L 299.878906 320.648438 L 299.925781 320.519531 C 299.925781 320.519531 305.394531 305.488281 306.648438 302.023438 L 307.277344 302.023438 C 305.546875 306.117188 303.246094 311.609375 302.746094 313.101562 C 302.398438 314.140625 302.226562 315.101562 302.226562 315.976562 C 302.226562 317.164062 302.542969 318.203125 303.175781 319.078125 C 303.863281 320.035156 305.210938 321.175781 307.734375 321.175781 C 311.90625 321.175781 314.089844 316.738281 314.484375 315.847656 L 314.515625 315.78125 L 324.117188 291.089844 C 324.117188 291.089844 314.285156 290.824219 310.171875 290.710938 C 313.28125 282.40625 319.90625 264.71875 321.359375 260.359375 C 322.382812 257.28125 328.640625 252.011719 332.929688 249.097656 Z M 125.246094 281.84375 L 119.984375 281.84375 L 119.984375 270.578125 L 125.246094 270.578125 Z M 186.824219 307.753906 L 184.195312 307.753906 L 184.195312 295.363281 L 186.824219 295.363281 Z M 186.824219 307.753906 "/>
<path style=" stroke:none;fill-rule:evenodd;fill:rgb(100%,100%,100%);fill-opacity:1;" d="M 303.601562 294.613281 L 300.976562 294.613281 L 300.976562 290.105469 L 303.601562 290.105469 Z M 275.816406 293.484375 L 258.167969 293.484375 L 258.167969 290.480469 L 275.816406 290.480469 Z M 275.816406 293.484375 "/>
<path style=" stroke:none;fill-rule:evenodd;fill:rgb(0%,0%,0%);fill-opacity:1;" d="M 76.050781 331.03125 L 41.132812 237.160156 L 62.535156 244.671875 C 62.535156 244.671875 66.742188 246.609375 68.542969 248.425781 C 69.867188 249.757812 70.421875 251.054688 70.421875 251.054688 L 70.421875 247.675781 C 70.421875 247.675781 71.171875 246.925781 73.050781 247.675781 C 74.929688 248.425781 85.066406 251.433594 85.066406 251.433594 C 85.066406 251.433594 96.707031 256.3125 100.085938 266.449219 C 103.46875 276.589844 115.859375 321.269531 115.859375 321.269531 L 104.96875 323.523438 L 88.824219 267.203125 C 88.824219 267.203125 84.691406 257.816406 82.441406 258.566406 C 80.1875 259.3125 82.441406 264.949219 82.441406 264.949219 L 100.464844 324.179688 L 90.703125 326.8125 C 90.703125 326.8125 69.671875 260.820312 67.796875 258.566406 C 67.796875 258.566406 65.007812 252.429688 61.785156 252.554688 C 59.503906 252.648438 61.035156 254.429688 61.785156 257.0625 C 62.535156 259.695312 86.570312 327.933594 86.570312 327.933594 Z M 134.535156 318.171875 L 142.519531 316.765625 C 142.519531 316.765625 135.382812 279.96875 133.503906 271.328125 C 131.628906 262.691406 121.113281 259.3125 121.113281 259.3125 L 104.214844 255.558594 L 120.363281 320.144531 L 129.75 318.640625 L 123.367188 294.609375 L 129.375 294.980469 Z M 122.238281 289.726562 L 116.984375 268.328125 C 116.609375 260.820312 120.738281 264.570312 123.367188 268.703125 C 125.992188 272.835938 128.25 289.730469 128.25 289.730469 L 122.238281 289.730469 Z M 136.882812 261.945312 L 150.027344 263.820312 C 150.027344 263.820312 154.15625 302.496094 154.90625 307.378906 C 155.65625 312.261719 160.164062 311.132812 160.914062 306.625 C 161.664062 302.121094 155.65625 264.570312 155.65625 264.570312 L 167.671875 264.949219 C 167.671875 264.949219 167.671875 298.742188 168.425781 301.746094 C 169.175781 304.746094 169.550781 313.007812 164.667969 314.511719 C 159.785156 316.015625 150.023438 316.015625 150.023438 316.015625 C 150.023438 316.015625 147.019531 317.140625 146.269531 311.882812 C 145.519531 306.625 137.636719 264.195312 136.882812 261.945312 Z M 198.089844 266.445312 L 197.714844 285.597656 L 188.328125 285.597656 L 188.328125 271.707031 C 188.328125 271.707031 181.945312 270.578125 181.945312 275.835938 L 181.945312 289.726562 L 196.964844 289.726562 L 196.964844 293.484375 L 181.570312 293.484375 L 181.570312 309.632812 C 181.570312 309.632812 187.953125 311.882812 188.703125 305.5 L 189.453125 299.121094 L 197.714844 299.121094 L 197.335938 306.253906 C 197.335938 306.253906 193.960938 314.136719 188.703125 314.515625 C 183.445312 314.886719 174.054688 314.886719 174.054688 314.886719 L 172.929688 275.464844 C 172.929688 275.464844 172.929688 266.078125 181.191406 266.078125 C 189.453125 266.074219 198.089844 266.445312 198.089844 266.445312 Z M 228.132812 283.722656 C 228.132812 283.722656 229.257812 274.710938 228.878906 270.203125 C 228.503906 265.699219 222.871094 265.320312 222.871094 265.320312 L 202.972656 266.074219 L 201.46875 313.386719 L 210.105469 313.664062 L 211.230469 294.234375 C 216.859375 294.234375 216.859375 297.617188 216.859375 297.617188 L 215.359375 313.757812 L 223.621094 313.757812 C 223.621094 313.757812 225.875 303.621094 225.875 297.617188 C 225.875 291.609375 223.242188 290.855469 223.242188 290.855469 C 226.625 289.355469 228.132812 283.722656 228.132812 283.722656 Z M 211.605469 288.230469 L 212.359375 270.578125 C 212.359375 270.578125 218.742188 268.328125 218.742188 273.210938 C 218.742188 278.089844 217.617188 285.601562 217.617188 285.601562 C 217.617188 285.601562 219.117188 288.980469 211.605469 288.230469 Z M 234.515625 264.949219 L 246.527344 264.191406 L 237.894531 315.261719 L 228.503906 314.792969 Z M 263.050781 284.472656 L 274.316406 284.097656 L 281.449219 258.1875 L 260.050781 262.316406 C 260.050781 262.316406 252.914062 264.949219 251.035156 272.082031 C 249.160156 279.214844 243.152344 311.507812 243.152344 311.507812 C 243.152344 311.507812 242.398438 315.261719 245.027344 316.015625 C 247.65625 316.765625 256.667969 317.140625 256.667969 317.140625 C 256.667969 317.140625 264.550781 316.765625 267.179688 309.253906 C 269.808594 301.746094 271.6875 294.609375 271.6875 294.609375 L 261.175781 295.359375 L 258.542969 305.871094 C 258.542969 305.871094 257.039062 310.753906 254.785156 311.507812 C 252.535156 312.257812 251.410156 309.253906 251.785156 308.125 C 252.160156 307 259.292969 274.332031 259.292969 274.332031 C 259.292969 274.332031 263.421875 266.445312 265.304688 266.824219 C 267.179688 267.199219 266.804688 269.824219 266.804688 269.824219 Z M 286.703125 257.808594 L 296.847656 255.558594 L 286.703125 287.101562 C 286.703125 287.101562 292.339844 287.472656 294.214844 282.972656 C 296.09375 278.464844 302.851562 254.433594 302.851562 254.433594 L 315.242188 250.675781 L 304.355469 282.96875 C 304.355469 282.96875 299.847656 290.105469 296.847656 290.851562 C 296.847656 290.851562 300.226562 294.609375 298.347656 300.238281 C 296.46875 305.871094 290.460938 322.394531 290.460938 322.394531 L 282.105469 320.796875 L 288.585938 298.359375 C 288.585938 298.359375 291.589844 294.230469 284.828125 293.480469 L 276.945312 319.667969 L 268.964844 318.542969 Z M 325.382812 278.464844 L 335.519531 278.085938 L 353.171875 237.910156 L 331.390625 246.167969 C 331.390625 246.167969 320.128906 253.679688 318.25 259.3125 C 316.371094 264.945312 305.484375 293.855469 305.484375 293.855469 L 319.378906 294.234375 L 311.488281 314.507812 C 311.488281 314.507812 309.984375 317.890625 307.734375 317.890625 C 305.484375 317.890625 305.105469 316.386719 305.855469 314.132812 C 306.609375 311.878906 312.238281 298.738281 312.238281 298.738281 L 304.355469 298.738281 L 296.847656 319.386719 C 296.847656 319.386719 294.59375 324.269531 298.722656 324.644531 C 302.851562 325.019531 306.980469 325.023438 306.980469 325.023438 C 306.980469 325.023438 315.617188 323.894531 319.746094 316.761719 C 323.875 309.628906 333.265625 284.46875 333.265625 284.46875 L 320.125 284.847656 C 320.125 284.847656 318.621094 285.226562 319 282.214844 C 319.375 279.214844 328.382812 258.933594 328.382812 258.933594 C 328.382812 258.933594 330.261719 257.058594 331.765625 256.679688 C 333.265625 256.308594 332.511719 260.0625 332.511719 260.0625 Z M 325.382812 278.464844 "/>
<path style=" stroke:none;fill-rule:evenodd;fill:rgb(100%,100%,100%);fill-opacity:1;" d="M 197.414062 346.550781 L 184.820312 355.660156 L 190.125 342.074219 C 187.140625 337.105469 173.722656 333.789062 173.722656 333.789062 C 177.039062 332.796875 193.4375 331.144531 193.4375 331.144531 C 194.101562 328.492188 197.414062 319.382812 197.414062 319.382812 C 197.414062 319.382812 200.726562 328.492188 201.390625 331.144531 C 201.390625 331.144531 217.789062 332.796875 221.105469 333.789062 C 221.105469 333.789062 207.6875 337.105469 204.707031 342.074219 L 210.007812 355.660156 Z M 197.414062 346.550781 "/>
<path style=" stroke:none;fill-rule:evenodd;fill:rgb(0%,0%,0%);fill-opacity:1;" d="M 196.183594 318.929688 C 196.058594 319.269531 193.40625 326.574219 192.417969 329.925781 C 188.914062 330.292969 176.328125 331.640625 173.351562 332.53125 L 168.757812 333.910156 L 173.414062 335.066406 C 176.839844 335.914062 185.914062 338.789062 188.648438 342.261719 L 181.984375 359.332031 L 197.417969 348.175781 L 212.847656 359.332031 L 206.1875 342.261719 C 208.921875 338.789062 217.996094 335.914062 221.421875 335.066406 L 226.078125 333.910156 L 221.480469 332.53125 C 218.503906 331.640625 205.917969 330.292969 202.414062 329.925781 C 201.425781 326.574219 198.773438 319.269531 198.648438 318.929688 L 197.417969 315.539062 Z M 193.570312 332.445312 L 194.484375 332.355469 L 194.710938 331.457031 C 195.089844 329.933594 196.40625 326.121094 197.414062 323.269531 C 198.417969 326.121094 199.734375 329.933594 200.117188 331.457031 L 200.339844 332.355469 L 201.257812 332.445312 C 206.003906 332.925781 210.742188 333.480469 215.46875 334.117188 C 211.15625 335.625 205.546875 338.117188 203.578125 341.398438 L 203.25 341.953125 C 203.25 341.953125 205.601562 347.984375 207.164062 351.984375 L 197.414062 344.9375 L 187.667969 351.984375 L 191.582031 341.953125 L 191.25 341.398438 C 189.28125 338.117188 183.671875 335.625 179.363281 334.117188 C 184.117188 333.453125 190.5625 332.75 193.570312 332.445312 Z M 193.570312 332.445312 "/>
</g>
</svg>
