<?xml version="1.0" encoding="UTF-8"?>
<svg xmlns="http://www.w3.org/2000/svg" xmlns:xlink="http://www.w3.org/1999/xlink" width="365px" height="325px" viewBox="0 0 365 325" version="1.1">
<g id="surface1">
<path style=" stroke:none;fill-rule:nonzero;fill:rgb(0%,0%,0%);fill-opacity:1;" d="M 333.996094 144.394531 L 333.996094 159.949219 C 333.890625 160.488281 333.742188 161.019531 333.6875 161.558594 C 333.195312 166.375 332.945312 171.226562 332.191406 176 C 329.433594 193.367188 323.929688 209.816406 315.410156 225.238281 C 299.644531 253.757812 277.121094 275.253906 247.808594 289.402344 C 220.644531 302.507812 191.984375 306.835938 162.050781 303.054688 C 144.484375 300.886719 127.457031 295.5625 111.789062 287.332031 C 81.933594 271.640625 59.457031 248.605469 44.773438 218.226562 C 31.296875 190.351562 27.085938 160.910156 31.328125 130.261719 C 33.078125 117.773438 36.417969 105.558594 41.273438 93.921875 C 62.820312 41.699219 111.554688 5.757812 167.789062 0.617188 C 169.902344 0.429688 172.007812 0.207031 174.117188 0 L 189.667969 0 C 190.203125 0.105469 190.734375 0.238281 191.273438 0.3125 C 198.351562 1.226562 205.507812 1.777344 212.488281 3.113281 C 229.996094 6.457031 246.316406 13.011719 261.472656 22.390625 C 285.898438 37.492188 304.640625 57.847656 317.699219 83.453125 C 326.371094 100.488281 331.695312 119.027344 333.375 138.066406 C 333.570312 140.171875 333.785156 142.285156 333.996094 144.394531 Z M 193.226562 238.289062 L 193.226562 65.773438 C 197.679688 66.785156 202.015625 67.53125 206.195312 68.746094 C 210.375 69.964844 214.527344 71.667969 218.785156 73.1875 L 227.953125 53.539062 C 197.171875 39.902344 166.609375 39.902344 135.828125 53.539062 C 138.984375 60.300781 142.039062 66.832031 145.109375 73.402344 C 153.34375 69.609375 161.730469 67.085938 170.621094 66.046875 L 170.621094 238.289062 C 162.195312 237.3125 154.257812 234.839844 146.519531 231.441406 C 146.417969 231.890625 146.347656 232.121094 146.328125 232.320312 C 145.757812 239.046875 145.242188 245.78125 144.582031 252.5 C 144.4375 253.988281 144.726562 254.628906 146.210938 255.128906 C 156.726562 258.636719 167.695312 260.613281 178.773438 261 C 186.367188 261.292969 193.96875 260.691406 201.417969 259.210938 C 206.964844 258.101562 212.402344 256.421875 217.882812 254.992188 C 218.898438 254.726562 219.378906 254.316406 219.234375 252.992188 C 218.707031 247.957031 218.398438 242.898438 217.984375 237.855469 C 217.8125 235.765625 217.585938 233.679688 217.363281 231.375 C 209.484375 234.878906 201.605469 237.21875 193.226562 238.289062 Z M 220.445312 146.921875 L 220.753906 147.03125 C 223.757812 181.253906 226.773438 215.480469 229.796875 249.898438 C 230.445312 249.640625 231.078125 249.34375 231.6875 249.007812 C 237.507812 245.289062 243.304688 241.523438 249.144531 237.828125 C 250.441406 237.007812 250.671875 235.972656 250.539062 234.558594 C 249.796875 226.71875 249.144531 218.871094 248.433594 211.027344 C 247.484375 200.609375 246.492188 190.195312 245.5625 179.777344 C 244.71875 170.308594 243.941406 160.839844 243.117188 151.371094 C 242.554688 144.875 241.976562 138.378906 241.386719 131.882812 C 240.757812 124.992188 240.03125 118.109375 239.503906 111.214844 C 239.355469 109.253906 238.964844 107.304688 239.9375 105.269531 C 245.007812 94.613281 249.917969 83.875 254.941406 73.191406 C 255.4375 72.132812 255.207031 71.582031 254.382812 70.941406 C 250.863281 68.238281 247.410156 65.425781 243.851562 62.761719 C 241.84375 61.257812 239.683594 59.957031 237.554688 58.53125 C 237.316406 58.925781 237.183594 59.109375 237.089844 59.308594 C 225.976562 83.089844 214.871094 106.871094 203.777344 130.660156 C 203.351562 131.570312 203.121094 132.558594 203.097656 133.5625 C 203.058594 149.625 203.050781 165.683594 203.074219 181.742188 C 203.074219 182.265625 203.132812 182.785156 203.167969 183.304688 L 203.476562 183.34375 C 209.136719 171.199219 214.792969 159.0625 220.445312 146.921875 Z M 126.324219 58.53125 C 120.164062 62.292969 114.355469 66.601562 108.972656 71.40625 C 108.664062 71.679688 108.667969 72.640625 108.882812 73.117188 C 113.878906 83.9375 118.929688 94.730469 123.933594 105.550781 C 124.304688 106.296875 124.488281 107.128906 124.464844 107.964844 C 124.015625 113.964844 123.496094 119.960938 122.960938 125.957031 C 122.21875 134.308594 121.425781 142.648438 120.679688 150.980469 C 120.066406 157.871094 119.511719 164.773438 118.894531 171.664062 C 118.15625 179.953125 117.363281 188.234375 116.628906 196.535156 C 116.105469 202.417969 115.65625 208.3125 115.136719 214.195312 C 114.515625 221.257812 113.828125 228.316406 113.261719 235.378906 C 113.261719 236.125 113.582031 236.832031 114.140625 237.324219 C 116.816406 239.375 119.515625 241.425781 122.355469 243.246094 C 126.03125 245.613281 129.851562 247.742188 133.957031 250.179688 C 137 215.453125 140.023438 181.195312 143.035156 146.957031 L 143.339844 146.90625 C 148.988281 159.039062 154.640625 171.171875 160.289062 183.300781 L 160.648438 183.230469 L 160.648438 181.460938 C 160.648438 165.566406 160.648438 149.671875 160.617188 133.777344 C 160.597656 132.554688 160.328125 131.347656 159.816406 130.234375 C 152.195312 113.824219 144.542969 97.425781 136.859375 81.039062 C 133.382812 73.605469 129.902344 66.179688 126.324219 58.53125 Z M 100.472656 80.101562 C 82.296875 100.09375 69.34375 131.238281 74.074219 166.730469 C 77.164062 189.925781 86.917969 210.015625 103.285156 227.433594 C 103.621094 223.988281 103.917969 221.050781 104.183594 218.109375 C 104.738281 211.832031 105.320312 205.558594 105.789062 199.277344 C 105.949219 197.105469 106.410156 195.03125 105.222656 192.765625 C 96.5 176.074219 93.363281 158.371094 96.050781 139.671875 C 97.863281 126.761719 102.617188 114.4375 109.941406 103.65625 C 110.554688 102.75 110.664062 102.046875 110.1875 101.046875 C 108.179688 96.835938 106.261719 92.589844 104.304688 88.347656 C 103.0625 85.65625 101.808594 82.972656 100.472656 80.101562 Z M 260.425781 227.175781 C 298.117188 189.804688 302.085938 122.832031 263.34375 80.183594 C 263.039062 80.769531 262.738281 81.285156 262.488281 81.828125 C 259.574219 88.15625 256.703125 94.507812 253.703125 100.804688 C 253.136719 101.996094 253.242188 102.785156 253.957031 103.847656 C 265.496094 121.171875 270.160156 140.285156 268.242188 160.933594 C 267.160156 172.578125 263.585938 183.5625 258.101562 193.910156 C 257.765625 194.597656 257.617188 195.363281 257.671875 196.128906 C 258.144531 201.730469 258.6875 207.324219 259.199219 212.921875 C 259.625 217.558594 260.003906 222.191406 260.425781 227.175781 Z M 260.425781 227.175781 "/>
<path style=" stroke:none;fill-rule:nonzero;fill:rgb(0%,14.509804%,60.392157%);fill-opacity:1;" d="M 311.980469 152.183594 C 311.980469 224.078125 253.726562 282.355469 181.871094 282.355469 C 110.011719 282.355469 51.757812 224.078125 51.757812 152.183594 C 51.757812 80.292969 110.011719 22.015625 181.871094 22.015625 C 253.726562 22.015625 311.980469 80.292969 311.980469 152.183594 Z M 311.980469 152.183594 "/>
<path style=" stroke:none;fill-rule:nonzero;fill:rgb(100%,100%,100%);fill-opacity:1;" d="M 193.242188 238.285156 C 201.621094 237.214844 209.503906 234.871094 217.398438 231.371094 C 217.621094 233.675781 217.847656 235.769531 218.019531 237.847656 C 218.429688 242.894531 218.742188 247.957031 219.269531 252.992188 C 219.40625 254.292969 218.929688 254.722656 217.917969 254.984375 C 212.433594 256.417969 207 258.09375 201.453125 259.207031 C 194 260.6875 186.398438 261.285156 178.808594 260.992188 C 167.726562 260.605469 156.761719 258.628906 146.242188 255.125 C 144.757812 254.628906 144.46875 253.980469 144.613281 252.496094 C 145.289062 245.777344 145.789062 239.042969 146.363281 232.316406 C 146.382812 232.09375 146.453125 231.882812 146.546875 231.4375 C 154.292969 234.839844 162.226562 237.308594 170.65625 238.28125 L 170.65625 66.046875 C 161.765625 67.082031 153.378906 69.605469 145.136719 73.402344 C 142.074219 66.832031 139.015625 60.292969 135.859375 53.535156 C 166.636719 39.902344 197.191406 39.902344 227.972656 53.535156 C 224.835938 60.25 221.804688 66.757812 218.804688 73.179688 C 214.546875 71.660156 210.449219 69.972656 206.214844 68.746094 C 201.984375 67.515625 197.703125 66.769531 193.242188 65.765625 Z M 193.242188 238.285156 "/>
<path style=" stroke:none;fill-rule:nonzero;fill:rgb(100%,100%,100%);fill-opacity:1;" d="M 220.460938 146.917969 C 214.8125 159.054688 209.160156 171.195312 203.503906 183.332031 L 203.195312 183.296875 C 203.164062 182.773438 203.105469 182.253906 203.101562 181.734375 C 203.101562 165.675781 203.113281 149.617188 203.128906 133.554688 C 203.148438 132.550781 203.378906 131.5625 203.804688 130.65625 C 214.886719 106.859375 225.988281 83.074219 237.121094 59.304688 C 237.210938 59.101562 237.347656 58.925781 237.582031 58.527344 C 239.714844 59.949219 241.875 61.253906 243.878906 62.753906 C 247.4375 65.421875 250.894531 68.222656 254.410156 70.9375 C 255.238281 71.574219 255.46875 72.128906 254.972656 73.183594 C 249.949219 83.871094 245.046875 94.605469 239.964844 105.261719 C 238.996094 107.292969 239.382812 109.25 239.535156 111.210938 C 240.074219 118.105469 240.785156 124.988281 241.410156 131.878906 C 242.003906 138.371094 242.582031 144.867188 243.144531 151.367188 C 243.972656 160.835938 244.75 170.304688 245.59375 179.773438 C 246.523438 190.195312 247.515625 200.605469 248.460938 211.023438 C 249.171875 218.871094 249.816406 226.714844 250.566406 234.558594 C 250.699219 235.972656 250.46875 237.007812 249.175781 237.828125 C 243.335938 241.519531 237.539062 245.285156 231.714844 249.007812 C 231.105469 249.339844 230.472656 249.640625 229.828125 249.898438 C 226.800781 215.476562 223.78125 181.253906 220.773438 147.023438 Z M 126.34375 58.527344 C 129.921875 66.175781 133.402344 73.605469 136.875 81.03125 C 144.535156 97.433594 152.191406 113.839844 159.839844 130.246094 C 160.347656 131.359375 160.617188 132.566406 160.632812 133.789062 C 160.683594 149.683594 160.667969 165.578125 160.667969 181.46875 L 160.667969 183.246094 L 160.304688 183.3125 C 154.65625 171.183594 149.007812 159.050781 143.355469 146.921875 L 143.054688 146.96875 C 140.042969 181.214844 137.035156 215.460938 133.976562 250.195312 C 129.871094 247.753906 126.050781 245.613281 122.375 243.253906 C 119.535156 241.4375 116.835938 239.390625 114.160156 237.332031 C 113.601562 236.84375 113.28125 236.136719 113.277344 235.394531 C 113.851562 228.324219 114.535156 221.269531 115.15625 214.210938 C 115.675781 208.324219 116.125 202.433594 116.648438 196.546875 C 117.386719 188.253906 118.175781 179.976562 118.917969 171.675781 C 119.53125 164.785156 120.085938 157.886719 120.699219 150.992188 C 121.445312 142.644531 122.234375 134.304688 122.984375 125.96875 C 123.515625 119.972656 124.035156 113.972656 124.488281 107.972656 C 124.507812 107.136719 124.324219 106.308594 123.953125 105.558594 C 118.949219 94.738281 113.898438 83.945312 108.90625 73.125 C 108.683594 72.648438 108.679688 71.6875 108.988281 71.414062 C 114.375 66.605469 120.183594 62.292969 126.34375 58.527344 Z M 126.34375 58.527344 "/>
<path style=" stroke:none;fill-rule:nonzero;fill:rgb(100%,100%,100%);fill-opacity:1;" d="M 100.492188 80.097656 C 101.828125 82.972656 103.082031 85.652344 104.320312 88.339844 C 106.277344 92.574219 108.199219 96.824219 110.207031 101.039062 C 110.679688 102.035156 110.574219 102.730469 109.960938 103.648438 C 102.636719 114.429688 97.882812 126.75 96.066406 139.660156 C 93.382812 158.363281 96.515625 176.066406 105.242188 192.75 C 106.429688 195.019531 105.96875 197.097656 105.808594 199.265625 C 105.339844 205.546875 104.757812 211.820312 104.199219 218.097656 C 103.9375 221.039062 103.636719 223.976562 103.304688 227.417969 C 86.945312 209.996094 77.183594 189.921875 74.09375 166.710938 C 69.363281 131.234375 82.3125 100.09375 100.492188 80.097656 Z M 260.445312 227.167969 C 260.019531 222.1875 259.644531 217.550781 259.226562 212.921875 C 258.726562 207.320312 258.171875 201.730469 257.707031 196.125 C 257.648438 195.363281 257.796875 194.597656 258.136719 193.910156 C 263.621094 183.558594 267.199219 172.578125 268.277344 160.933594 C 270.191406 140.28125 265.527344 121.167969 253.988281 103.84375 C 253.277344 102.777344 253.171875 101.992188 253.734375 100.800781 C 256.71875 94.503906 259.589844 88.15625 262.507812 81.828125 C 262.753906 81.285156 263.054688 80.769531 263.363281 80.183594 C 302.105469 122.828125 298.140625 189.800781 260.445312 227.167969 Z M 260.445312 227.167969 "/>
</g>
</svg>
