<?xml version="1.0" encoding="UTF-8"?>
<svg xmlns="http://www.w3.org/2000/svg" xmlns:xlink="http://www.w3.org/1999/xlink" width="168px" height="150px" viewBox="0 0 168 150" version="1.1">
<g id="surface1">
<path style=" stroke:none;fill-rule:nonzero;fill:rgb(0%,0%,0%);fill-opacity:1;" d="M 153.730469 66.644531 L 153.730469 73.824219 C 153.679688 74.070312 153.613281 74.316406 153.585938 74.566406 C 153.359375 76.789062 153.246094 79.027344 152.898438 81.230469 C 151.628906 89.246094 149.097656 96.839844 145.175781 103.957031 C 137.917969 117.117188 127.550781 127.039062 114.058594 133.570312 C 101.558594 139.617188 88.367188 141.617188 74.585938 139.871094 C 66.503906 138.871094 58.664062 136.414062 51.453125 132.613281 C 37.710938 125.371094 27.367188 114.742188 20.609375 100.71875 C 14.40625 87.855469 12.46875 74.265625 14.417969 60.121094 C 15.226562 54.355469 16.761719 48.71875 18.996094 43.347656 C 28.914062 19.246094 51.347656 2.65625 77.230469 0.285156 C 78.203125 0.199219 79.171875 0.09375 80.140625 0 L 87.300781 0 C 87.546875 0.046875 87.789062 0.109375 88.039062 0.144531 C 91.296875 0.566406 94.589844 0.820312 97.804688 1.4375 C 105.859375 2.980469 113.371094 6.003906 120.347656 10.335938 C 131.589844 17.304688 140.21875 26.699219 146.230469 38.515625 C 150.21875 46.378906 152.671875 54.9375 153.445312 63.722656 C 153.535156 64.695312 153.632812 65.671875 153.730469 66.644531 Z M 88.9375 109.980469 L 88.9375 30.355469 C 90.988281 30.824219 92.984375 31.167969 94.90625 31.730469 C 96.832031 32.292969 98.742188 33.078125 100.699219 33.777344 L 104.921875 24.710938 C 90.753906 18.417969 76.6875 18.417969 62.519531 24.710938 C 63.972656 27.832031 65.375 30.84375 66.789062 33.878906 C 70.582031 32.128906 74.441406 30.960938 78.53125 30.484375 L 78.53125 109.980469 C 74.652344 109.527344 71 108.386719 67.4375 106.820312 C 67.390625 107.027344 67.359375 107.132812 67.351562 107.226562 C 67.089844 110.328125 66.851562 113.4375 66.546875 116.539062 C 66.480469 117.226562 66.613281 117.519531 67.296875 117.75 C 72.136719 119.371094 77.1875 120.28125 82.285156 120.460938 C 85.78125 120.597656 89.277344 120.320312 92.707031 119.636719 C 95.261719 119.125 97.761719 118.347656 100.285156 117.6875 C 100.753906 117.566406 100.972656 117.375 100.90625 116.765625 C 100.664062 114.441406 100.523438 112.105469 100.332031 109.78125 C 100.253906 108.816406 100.148438 107.851562 100.046875 106.789062 C 96.421875 108.40625 92.792969 109.484375 88.9375 109.980469 Z M 101.464844 67.808594 L 101.605469 67.859375 C 102.988281 83.65625 104.378906 99.453125 105.769531 115.335938 C 106.066406 115.21875 106.359375 115.082031 106.640625 114.925781 C 109.320312 113.210938 111.988281 111.472656 114.675781 109.765625 C 115.273438 109.386719 115.378906 108.910156 115.316406 108.257812 C 114.976562 104.640625 114.675781 101.015625 114.347656 97.398438 C 113.910156 92.589844 113.453125 87.78125 113.027344 82.972656 C 112.636719 78.605469 112.28125 74.234375 111.902344 69.863281 C 111.640625 66.867188 111.375 63.867188 111.105469 60.867188 C 110.816406 57.6875 110.480469 54.511719 110.238281 51.328125 C 110.167969 50.425781 109.988281 49.523438 110.4375 48.585938 C 112.769531 43.667969 115.03125 38.710938 117.34375 33.78125 C 117.570312 33.292969 117.464844 33.039062 117.085938 32.742188 C 115.464844 31.496094 113.875 30.195312 112.238281 28.96875 C 111.3125 28.273438 110.320312 27.671875 109.339844 27.015625 C 109.230469 27.195312 109.167969 27.28125 109.125 27.375 C 104.011719 38.347656 98.898438 49.324219 93.792969 60.304688 C 93.597656 60.726562 93.492188 61.179688 93.480469 61.644531 C 93.460938 69.058594 93.460938 76.46875 93.46875 83.882812 C 93.46875 84.121094 93.496094 84.363281 93.511719 84.601562 L 93.65625 84.621094 C 96.261719 79.015625 98.863281 73.414062 101.464844 67.808594 Z M 58.144531 27.015625 C 55.308594 28.75 52.636719 30.738281 50.15625 32.957031 C 50.015625 33.082031 50.015625 33.527344 50.117188 33.746094 C 52.414062 38.742188 54.742188 43.722656 57.042969 48.714844 C 57.214844 49.058594 57.296875 49.445312 57.289062 49.828125 C 57.082031 52.597656 56.84375 55.367188 56.597656 58.132812 C 56.253906 61.988281 55.890625 65.835938 55.546875 69.683594 C 55.261719 72.863281 55.007812 76.050781 54.722656 79.230469 C 54.382812 83.054688 54.019531 86.878906 53.679688 90.707031 C 53.441406 93.421875 53.234375 96.144531 52.996094 98.859375 C 52.707031 102.117188 52.390625 105.375 52.132812 108.636719 C 52.132812 108.980469 52.277344 109.308594 52.535156 109.535156 C 53.765625 110.480469 55.011719 111.425781 56.316406 112.265625 C 58.007812 113.359375 59.765625 114.34375 61.65625 115.46875 C 63.058594 99.441406 64.449219 83.628906 65.835938 67.828125 L 65.976562 67.804688 C 68.574219 73.402344 71.175781 79.003906 73.777344 84.601562 L 73.941406 84.566406 L 73.941406 83.75 C 73.941406 76.414062 73.941406 69.078125 73.929688 61.742188 C 73.917969 61.179688 73.792969 60.621094 73.558594 60.109375 C 70.050781 52.535156 66.53125 44.964844 62.992188 37.402344 C 61.394531 33.972656 59.789062 30.542969 58.144531 27.015625 Z M 46.246094 36.96875 C 37.878906 46.195312 31.917969 60.570312 34.09375 76.953125 C 35.515625 87.65625 40.007812 96.929688 47.539062 104.96875 C 47.695312 103.378906 47.832031 102.023438 47.953125 100.664062 C 48.207031 97.769531 48.476562 94.875 48.691406 91.972656 C 48.765625 90.972656 48.976562 90.015625 48.429688 88.96875 C 44.417969 81.265625 42.972656 73.09375 44.210938 64.464844 C 45.042969 58.503906 47.230469 52.816406 50.601562 47.839844 C 50.886719 47.421875 50.9375 47.097656 50.714844 46.636719 C 49.792969 44.695312 48.910156 42.734375 48.007812 40.777344 C 47.4375 39.535156 46.859375 38.296875 46.246094 36.96875 Z M 119.867188 104.851562 C 137.214844 87.601562 139.042969 56.691406 121.210938 37.007812 C 121.070312 37.277344 120.929688 37.515625 120.816406 37.765625 C 119.476562 40.6875 118.152344 43.617188 116.773438 46.523438 C 116.511719 47.074219 116.5625 47.4375 116.890625 47.929688 C 122.199219 55.925781 124.347656 64.746094 123.464844 74.277344 C 122.96875 79.652344 121.320312 84.722656 118.796875 89.496094 C 118.644531 89.8125 118.574219 90.167969 118.601562 90.519531 C 118.816406 93.105469 119.066406 95.6875 119.300781 98.273438 C 119.5 100.410156 119.671875 102.550781 119.867188 104.851562 Z M 119.867188 104.851562 "/>
<path style=" stroke:none;fill-rule:nonzero;fill:rgb(0%,14.509804%,60.392157%);fill-opacity:1;" d="M 143.597656 70.238281 C 143.597656 103.421875 116.785156 130.316406 83.710938 130.316406 C 50.636719 130.316406 23.824219 103.421875 23.824219 70.238281 C 23.824219 37.058594 50.636719 10.160156 83.710938 10.160156 C 116.785156 10.160156 143.597656 37.058594 143.597656 70.238281 Z M 143.597656 70.238281 "/>
<path style=" stroke:none;fill-rule:nonzero;fill:rgb(100%,100%,100%);fill-opacity:1;" d="M 88.945312 109.976562 C 92.800781 109.484375 96.429688 108.402344 100.0625 106.785156 C 100.164062 107.851562 100.269531 108.816406 100.347656 109.777344 C 100.539062 112.105469 100.679688 114.441406 100.925781 116.765625 C 100.988281 117.367188 100.769531 117.5625 100.300781 117.683594 C 97.777344 118.347656 95.277344 119.121094 92.722656 119.632812 C 89.292969 120.316406 85.792969 120.59375 82.300781 120.457031 C 77.199219 120.28125 72.152344 119.367188 67.3125 117.75 C 66.628906 117.519531 66.496094 117.222656 66.5625 116.535156 C 66.871094 113.4375 67.101562 110.328125 67.367188 107.222656 C 67.375 107.121094 67.410156 107.023438 67.453125 106.816406 C 71.015625 108.386719 74.667969 109.527344 78.546875 109.976562 L 78.546875 30.484375 C 74.457031 30.960938 70.597656 32.125 66.800781 33.878906 C 65.394531 30.84375 63.984375 27.828125 62.53125 24.707031 C 76.699219 18.417969 90.761719 18.417969 104.929688 24.707031 C 103.484375 27.808594 102.089844 30.8125 100.710938 33.773438 C 98.75 33.074219 96.863281 32.296875 94.914062 31.730469 C 92.96875 31.160156 90.996094 30.816406 88.945312 30.351562 Z M 88.945312 109.976562 "/>
<path style=" stroke:none;fill-rule:nonzero;fill:rgb(100%,100%,100%);fill-opacity:1;" d="M 101.472656 67.808594 C 98.871094 73.410156 96.269531 79.011719 93.667969 84.613281 L 93.527344 84.597656 C 93.511719 84.355469 93.484375 84.117188 93.480469 83.878906 C 93.480469 76.464844 93.488281 69.054688 93.496094 61.640625 C 93.503906 61.175781 93.609375 60.722656 93.804688 60.304688 C 98.90625 49.320312 104.015625 38.34375 109.140625 27.371094 C 109.183594 27.277344 109.246094 27.195312 109.351562 27.011719 C 110.335938 27.667969 111.328125 28.269531 112.25 28.964844 C 113.890625 30.195312 115.480469 31.488281 117.097656 32.742188 C 117.480469 33.035156 117.585938 33.289062 117.355469 33.777344 C 115.046875 38.710938 112.789062 43.664062 110.449219 48.582031 C 110.003906 49.519531 110.183594 50.421875 110.25 51.328125 C 110.5 54.511719 110.828125 57.6875 111.113281 60.867188 C 111.386719 63.863281 111.652344 66.863281 111.914062 69.863281 C 112.292969 74.230469 112.652344 78.601562 113.039062 82.972656 C 113.46875 87.78125 113.925781 92.585938 114.359375 97.394531 C 114.6875 101.015625 114.984375 104.636719 115.328125 108.257812 C 115.390625 108.910156 115.285156 109.386719 114.6875 109.765625 C 112 111.46875 109.332031 113.207031 106.652344 114.925781 C 106.371094 115.078125 106.082031 115.21875 105.785156 115.335938 C 104.390625 99.449219 103 83.65625 101.617188 67.855469 Z M 58.152344 27.011719 C 59.800781 30.542969 61.402344 33.972656 63 37.398438 C 66.527344 44.96875 70.050781 52.542969 73.570312 60.113281 C 73.804688 60.628906 73.929688 61.183594 73.933594 61.75 C 73.957031 69.085938 73.953125 76.421875 73.953125 83.753906 L 73.953125 84.574219 L 73.785156 84.605469 C 71.183594 79.007812 68.585938 73.40625 65.984375 67.808594 L 65.84375 67.832031 C 64.457031 83.636719 63.074219 99.445312 61.664062 115.476562 C 59.777344 114.347656 58.019531 113.359375 56.324219 112.269531 C 55.019531 111.433594 53.777344 110.488281 52.546875 109.539062 C 52.289062 109.3125 52.140625 108.984375 52.136719 108.644531 C 52.402344 105.378906 52.71875 102.125 53.003906 98.867188 C 53.242188 96.148438 53.449219 93.429688 53.691406 90.714844 C 54.03125 86.886719 54.394531 83.066406 54.734375 79.234375 C 55.015625 76.054688 55.273438 72.871094 55.554688 69.6875 C 55.898438 65.835938 56.261719 61.988281 56.605469 58.140625 C 56.851562 55.371094 57.089844 52.601562 57.296875 49.832031 C 57.308594 49.449219 57.222656 49.066406 57.050781 48.71875 C 54.75 43.726562 52.425781 38.742188 50.125 33.75 C 50.023438 33.53125 50.023438 33.085938 50.164062 32.960938 C 52.644531 30.742188 55.316406 28.75 58.152344 27.011719 Z M 58.152344 27.011719 "/>
<path style=" stroke:none;fill-rule:nonzero;fill:rgb(100%,100%,100%);fill-opacity:1;" d="M 46.253906 36.96875 C 46.867188 38.296875 47.445312 39.53125 48.015625 40.773438 C 48.917969 42.726562 49.800781 44.6875 50.726562 46.632812 C 50.941406 47.09375 50.894531 47.414062 50.613281 47.835938 C 47.242188 52.8125 45.054688 58.5 44.21875 64.457031 C 42.980469 73.089844 44.421875 81.261719 48.441406 88.960938 C 48.988281 90.007812 48.773438 90.96875 48.699219 91.96875 C 48.484375 94.867188 48.21875 97.761719 47.960938 100.660156 C 47.839844 102.019531 47.703125 103.375 47.546875 104.960938 C 40.019531 96.921875 35.527344 87.65625 34.101562 76.945312 C 31.925781 60.570312 37.886719 46.195312 46.253906 36.96875 Z M 119.875 104.847656 C 119.679688 102.546875 119.507812 100.40625 119.316406 98.273438 C 119.085938 95.6875 118.828125 93.105469 118.617188 90.519531 C 118.589844 90.167969 118.65625 89.8125 118.8125 89.496094 C 121.339844 84.71875 122.984375 79.652344 123.480469 74.277344 C 124.363281 64.746094 122.214844 55.921875 116.902344 47.929688 C 116.578125 47.4375 116.527344 47.074219 116.789062 46.523438 C 118.160156 43.617188 119.484375 40.6875 120.824219 37.765625 C 120.9375 37.515625 121.078125 37.277344 121.21875 37.007812 C 139.050781 56.691406 137.226562 87.601562 119.875 104.847656 Z M 119.875 104.847656 "/>
</g>
</svg>
