<?xml version="1.0" encoding="UTF-8"?>
<svg xmlns="http://www.w3.org/2000/svg" xmlns:xlink="http://www.w3.org/1999/xlink" width="250px" height="250px" viewBox="0 0 250 250" version="1.1">
<g id="surface1">
<rect x="0" y="0" width="250" height="250" style="fill:rgb(100%,100%,100%);fill-opacity:1;stroke:none;"/>
<path style=" stroke:none;fill-rule:evenodd;fill:rgb(94.901961%,79.215686%,18.823529%);fill-opacity:1;" d="M 125 21.085938 C 182.230469 21.085938 228.871094 67.8125 228.871094 125.042969 C 228.871094 182.1875 182.230469 228.914062 125 228.914062 C 67.769531 228.914062 21.128906 182.1875 21.128906 125.042969 C 21.128906 67.8125 67.769531 21.085938 125 21.085938 Z M 125 21.085938 "/>
<path style=" stroke:none;fill-rule:evenodd;fill:rgb(0%,0%,0%);fill-opacity:1;" d="M 125 23.933594 C 180.628906 23.933594 226.109375 69.328125 226.109375 125.042969 C 226.109375 180.675781 180.628906 226.066406 125 226.066406 C 69.28125 226.066406 23.890625 180.675781 23.890625 125.042969 C 23.890625 69.328125 69.28125 23.933594 125 23.933594 Z M 125 23.933594 "/>
<path style=" stroke:none;fill-rule:evenodd;fill:rgb(14.901961%,36.470588%,58.039216%);fill-opacity:1;" d="M 125 35.59375 C 174.21875 35.59375 214.363281 75.734375 214.363281 125.042969 C 214.363281 174.265625 174.21875 214.40625 125 214.40625 C 75.78125 214.40625 35.550781 174.265625 35.550781 125.042969 C 35.550781 75.734375 75.78125 35.59375 125 35.59375 Z M 125 35.59375 "/>
<path style=" stroke:none;fill-rule:evenodd;fill:rgb(0%,0%,0%);fill-opacity:1;" d="M 125 58.023438 C 161.847656 58.023438 191.933594 88.105469 191.933594 125.042969 C 191.933594 161.890625 161.847656 191.976562 125 191.976562 C 88.0625 191.976562 57.980469 161.890625 57.980469 125.042969 C 57.980469 88.109375 88.0625 58.023438 125 58.023438 Z M 125 58.023438 "/>
<path style=" stroke:none;fill-rule:evenodd;fill:rgb(14.901961%,36.470588%,58.039216%);fill-opacity:1;" d="M 125 66.480469 C 157.222656 66.480469 183.566406 92.738281 183.566406 125.042969 C 183.566406 157.265625 157.222656 183.519531 125 183.519531 C 92.691406 183.519531 66.433594 157.265625 66.433594 125.042969 C 66.433594 92.734375 92.691406 66.480469 125 66.480469 Z M 125 66.480469 "/>
<path style=" stroke:none;fill-rule:evenodd;fill:rgb(0%,0%,0%);fill-opacity:1;" d="M 125 71.464844 C 154.460938 71.464844 178.582031 95.496094 178.582031 125.042969 C 178.582031 154.503906 154.460938 178.625 125 178.625 C 95.449219 178.625 71.417969 154.503906 71.417969 125.042969 C 71.417969 95.496094 95.449219 71.464844 125 71.464844 Z M 125 71.464844 "/>
<path style=" stroke:none;fill-rule:evenodd;fill:rgb(94.901961%,79.215686%,18.823529%);fill-opacity:1;" d="M 166.832031 119.171875 L 175.820312 119.171875 L 168.613281 124.6875 L 171.460938 133.320312 L 164.160156 127.980469 L 156.949219 133.320312 L 159.800781 124.6875 L 152.503906 119.171875 L 161.492188 119.171875 L 164.160156 110.804688 Z M 129.007812 171.417969 C 127.671875 171.503906 126.335938 171.59375 125 171.59375 C 123.664062 171.59375 122.328125 171.507812 120.996094 171.417969 L 120.996094 117.746094 L 129.007812 117.746094 Z M 130.875 95.136719 L 143.246094 95.136719 L 145.738281 105.285156 L 144.582031 106.265625 C 143.246094 104.839844 141.464844 103.148438 139.238281 103.148438 L 130.875 103.148438 Z M 150.8125 150.234375 C 147.65625 153.488281 143.910156 156.117188 139.773438 157.976562 L 139.773438 156.910156 C 140.84375 156.109375 141.289062 154.949219 141.289062 153.617188 L 141.289062 132.34375 L 130.875 142.847656 L 130.875 131.453125 L 143.066406 119.171875 L 150.988281 119.171875 L 150.988281 120.417969 C 149.921875 120.863281 149.386719 121.484375 149.386719 122.109375 L 149.386719 147.117188 C 149.386719 148.007812 150.007812 148.542969 150.8125 148.898438 Z M 118.769531 160.558594 C 114.496094 159.847656 110.492188 158.332031 106.84375 156.199219 L 106.84375 154.949219 C 107.820312 155.039062 108.625 154.503906 108.625 153.4375 L 108.625 139.285156 L 116.632812 147.296875 L 116.632812 155.84375 C 116.632812 157.621094 117.699219 158.601562 118.769531 159.402344 Z M 105.152344 155.128906 C 100.765625 152.253906 97.058594 148.457031 94.292969 144.003906 C 95.003906 143.648438 95.539062 143.109375 95.539062 142.222656 L 95.539062 121.929688 C 95.539062 121.214844 95.003906 120.59375 94.027344 120.238281 L 94.027344 119.171875 L 102.480469 119.171875 L 119.125 135.902344 L 119.125 147.296875 L 103.636719 131.71875 L 103.636719 150.589844 C 103.636719 151.925781 104.082031 153.082031 105.152344 153.882812 Z M 119.125 95.136719 L 119.125 103.148438 L 116.632812 103.148438 L 116.632812 107.867188 L 131.496094 107.867188 C 132.300781 107.867188 132.65625 106.265625 132.65625 105.019531 L 133.453125 105.019531 L 139.507812 118.367188 L 138.441406 118.902344 C 137.460938 117.300781 136.394531 115.964844 135.058594 115.964844 L 116.632812 115.964844 L 116.632812 130.828125 L 108.625 122.730469 L 108.625 97.808594 C 108.625 97.1875 107.910156 96.652344 106.753906 96.296875 L 106.753906 95.136719 Z M 125 88.90625 C 126.960938 88.90625 128.828125 88.996094 130.695312 89.351562 L 130.695312 90.421875 C 129.539062 90.507812 129.007812 90.957031 129.007812 91.757812 L 129.007812 106.085938 L 120.996094 106.085938 L 120.996094 91.578125 C 120.996094 90.777344 120.105469 90.421875 119.304688 90.511719 L 119.304688 89.355469 C 121.171875 88.996094 123.042969 88.90625 125 88.90625 Z M 125 78.40625 C 140.753906 78.40625 154.726562 86.328125 163.183594 98.433594 C 163.894531 99.410156 165.316406 100.390625 166.296875 99.855469 L 166.921875 101.015625 L 157.042969 107.332031 L 156.417969 106.175781 C 157.132812 105.554688 157.042969 103.863281 156.507812 102.972656 C 149.5625 93.09375 137.992188 86.507812 125 86.507812 C 103.816406 86.507812 86.546875 103.773438 86.546875 125.046875 C 86.546875 144.183594 100.699219 160.203125 119.125 163.050781 L 119.125 171.238281 C 96.25 168.300781 78.449219 148.632812 78.449219 125.046875 C 78.449219 99.324219 99.367188 78.40625 125 78.40625 Z M 130.875 171.238281 C 144.136719 169.546875 155.796875 162.160156 163.183594 151.65625 C 163.894531 150.589844 165.316406 149.609375 166.296875 150.144531 L 166.921875 148.984375 L 157.042969 142.667969 L 156.421875 143.824219 C 157.132812 144.449219 157.042969 146.140625 156.507812 147.027344 C 150.632812 155.394531 141.378906 161.359375 130.875 163.050781 Z M 130.875 171.238281 "/>
<path style=" stroke:none;fill-rule:evenodd;fill:rgb(100%,100%,100%);fill-opacity:1;" d="M 93.136719 62.652344 L 86.015625 48.054688 L 90.019531 46.007812 L 97.230469 60.691406 Z M 99.722656 59.179688 L 95.449219 43.425781 L 101.679688 41.824219 L 109.691406 51.617188 L 106.664062 40.492188 L 110.402344 39.421875 L 114.585938 55.175781 L 108.625 56.777344 L 100.433594 46.632812 L 103.460938 58.203125 Z M 121.441406 54.90625 L 121.441406 41.824219 L 116.546875 41.824219 L 116.546875 38.621094 L 130.964844 38.621094 L 130.964844 41.824219 L 125.980469 41.824219 L 125.980469 54.910156 L 121.441406 54.910156 Z M 132.746094 55.265625 L 135.59375 39.15625 L 147.429688 41.289062 L 146.894531 44.316406 L 139.328125 42.980469 L 138.796875 46.273438 L 145.914062 47.519531 L 145.382812 50.636719 L 138.261719 49.390625 L 137.640625 52.773438 L 145.382812 54.105469 L 144.761719 57.3125 Z M 154.816406 51.527344 L 156.417969 52.238281 C 157.398438 52.59375 158.109375 52.773438 158.644531 52.59375 C 159.089844 52.503906 159.445312 52.058594 159.800781 51.347656 C 159.980469 50.726562 159.980469 50.191406 159.714844 49.746094 C 159.445312 49.390625 158.914062 48.945312 158.019531 48.585938 L 156.242188 47.875 Z M 147.160156 58.46875 L 153.304688 43.335938 L 160.066406 46.097656 C 161.9375 46.898438 163.273438 47.785156 163.894531 48.855469 C 164.605469 49.832031 164.695312 50.992188 164.160156 52.324219 C 163.71875 53.394531 163.09375 54.105469 162.203125 54.460938 C 161.3125 54.816406 160.335938 54.90625 159.089844 54.550781 L 159.089844 54.640625 C 159.890625 54.996094 160.515625 55.441406 160.867188 55.976562 C 161.136719 56.507812 161.3125 57.21875 161.222656 58.109375 C 161.136719 58.378906 160.957031 59.089844 160.691406 60.335938 C 160.425781 61.582031 160.15625 62.738281 160.066406 63.71875 L 155.527344 61.847656 C 155.707031 61.136719 155.972656 60.246094 156.242188 59.179688 C 156.507812 58.199219 156.6875 57.578125 156.6875 57.398438 C 156.863281 56.773438 156.773438 56.242188 156.597656 55.882812 C 156.332031 55.527344 155.886719 55.261719 155.261719 54.996094 L 153.660156 54.371094 L 151.347656 60.15625 Z M 101.414062 207.820312 L 104.347656 197.671875 C 103.835938 197.886719 103.296875 198.035156 102.746094 198.117188 C 102.125 198.207031 101.414062 198.296875 100.613281 198.386719 L 101.503906 195.359375 C 102.214844 195.359375 102.925781 195.179688 103.726562 195.003906 C 104.441406 194.917969 105.242188 194.648438 106.042969 194.292969 L 109.070312 195.183594 L 105.152344 208.886719 Z M 115.296875 207.019531 C 115.296875 207.464844 115.476562 207.820312 115.742188 208 C 116.011719 208.265625 116.457031 208.445312 116.898438 208.53125 C 117.792969 208.53125 118.414062 208.351562 118.859375 207.730469 C 119.304688 207.195312 119.570312 206.21875 119.75 204.972656 L 119.75 204.347656 C 119.273438 204.808594 118.691406 205.144531 118.058594 205.328125 C 117.433594 205.59375 116.8125 205.59375 116.011719 205.59375 C 114.675781 205.417969 113.695312 204.972656 112.894531 203.992188 C 112.09375 203.101562 111.738281 202.035156 111.917969 200.789062 C 112.003906 199.277344 112.628906 198.117188 113.785156 197.316406 C 114.855469 196.515625 116.277344 196.160156 118.058594 196.339844 C 120.105469 196.515625 121.617188 197.316406 122.597656 198.652344 C 123.488281 199.988281 123.84375 201.855469 123.664062 204.257812 C 123.398438 206.664062 122.683594 208.445312 121.527344 209.597656 C 120.371094 210.757812 118.679688 211.199219 116.546875 211.023438 C 114.855469 210.84375 113.609375 210.402344 112.71875 209.691406 C 111.917969 208.976562 111.472656 208 111.5625 206.753906 Z M 115.476562 200.878906 C 115.386719 201.5 115.566406 202.035156 115.921875 202.480469 C 116.367188 202.925781 116.8125 203.101562 117.433594 203.191406 C 118.144531 203.28125 118.679688 203.101562 119.125 202.746094 C 119.480469 202.390625 119.746094 201.855469 119.835938 201.144531 C 119.835938 200.523438 119.746094 199.988281 119.390625 199.542969 C 119.035156 199.1875 118.5 198.921875 117.878906 198.832031 C 117.167969 198.832031 116.632812 199.007812 116.1875 199.363281 C 115.742188 199.71875 115.566406 200.253906 115.476562 200.878906 Z M 129.894531 203.902344 C 129.984375 205.59375 130.25 206.753906 130.695312 207.464844 C 131.050781 208.085938 131.675781 208.445312 132.386719 208.355469 C 133.1875 208.265625 133.722656 207.910156 133.988281 207.109375 C 134.257812 206.398438 134.257812 205.238281 134.167969 203.546875 C 133.988281 201.855469 133.722656 200.699219 133.367188 200.078125 C 132.921875 199.363281 132.386719 199.097656 131.585938 199.097656 C 130.875 199.1875 130.339844 199.632812 130.074219 200.34375 C 129.804688 201.054688 129.71875 202.214844 129.894531 203.902344 Z M 125.980469 204.257812 C 125.710938 201.945312 126.066406 200.074219 127.046875 198.742188 C 127.9375 197.40625 129.449219 196.605469 131.320312 196.425781 C 133.277344 196.25 134.878906 196.78125 136.035156 197.9375 C 137.195312 199.097656 137.816406 200.878906 138.085938 203.28125 C 138.261719 205.59375 137.90625 207.464844 136.925781 208.800781 C 136.035156 210.132812 134.613281 210.933594 132.652344 211.113281 C 130.695312 211.292969 129.183594 210.757812 128.027344 209.597656 C 126.867188 208.445312 126.15625 206.664062 125.980469 204.257812 Z M 143.425781 201.589844 C 142.355469 201.679688 141.554688 201.5 140.933594 201.144531 C 140.277344 200.703125 139.804688 200.039062 139.597656 199.277344 C 139.242188 198.210938 139.507812 197.140625 140.21875 196.25 C 140.933594 195.449219 142.179688 194.738281 143.867188 194.203125 C 145.558594 193.757812 146.894531 193.667969 147.964844 194.023438 C 149.117188 194.378906 149.828125 195.183594 150.097656 196.25 C 150.363281 197.140625 150.277344 197.851562 150.007812 198.5625 C 149.652344 199.1875 149.027344 199.808594 148.140625 200.253906 L 148.140625 200.34375 C 149.210938 200.167969 150.1875 200.253906 150.988281 200.699219 C 151.699219 201.144531 152.234375 201.855469 152.503906 202.835938 C 152.855469 203.992188 152.679688 205.148438 151.789062 206.128906 C 150.988281 207.105469 149.652344 207.820312 147.875 208.351562 C 146.09375 208.886719 144.582031 208.976562 143.335938 208.53125 C 142.175781 208.175781 141.375 207.375 141.019531 206.128906 C 140.753906 205.148438 140.753906 204.257812 141.195312 203.457031 C 141.644531 202.746094 142.355469 202.121094 143.421875 201.675781 L 143.421875 201.589844 Z M 144.402344 204.703125 C 144.582031 205.238281 144.847656 205.683594 145.382812 205.863281 C 145.914062 206.128906 146.449219 206.128906 147.160156 205.949219 C 147.875 205.773438 148.40625 205.417969 148.675781 204.972656 C 149.03125 204.527344 149.03125 203.992188 148.855469 203.371094 C 148.769531 202.832031 148.394531 202.382812 147.875 202.214844 C 147.339844 201.945312 146.808594 201.945312 146.09375 202.125 C 145.492188 202.265625 144.957031 202.609375 144.582031 203.101562 C 144.316406 203.636719 144.226562 204.082031 144.402344 204.703125 Z M 144.492188 196.515625 C 143.960938 196.695312 143.511719 196.960938 143.335938 197.316406 C 143.066406 197.761719 142.980469 198.210938 143.15625 198.742188 C 143.246094 199.1875 143.511719 199.542969 143.957031 199.722656 C 144.3125 199.902344 144.847656 199.902344 145.382812 199.808594 C 146.003906 199.632812 146.449219 199.363281 146.628906 198.917969 C 146.894531 198.5625 146.984375 198.117188 146.804688 197.585938 C 146.644531 197.160156 146.367188 196.792969 146.003906 196.515625 C 145.558594 196.339844 145.023438 196.339844 144.492188 196.515625 Z M 144.492188 196.515625 "/>
</g>
</svg>
