<?xml version="1.0" encoding="UTF-8"?>
<svg xmlns="http://www.w3.org/2000/svg" xmlns:xlink="http://www.w3.org/1999/xlink" width="410px" height="365px" viewBox="0 0 410 365" version="1.1">
<g id="surface1">
<path style=" stroke:none;fill-rule:nonzero;fill:rgb(0%,0%,0%);fill-opacity:1;" d="M 375.171875 162.164062 L 375.171875 179.636719 C 375.054688 180.238281 374.886719 180.835938 374.828125 181.441406 C 374.273438 186.851562 373.996094 192.300781 373.144531 197.664062 C 370.050781 217.164062 363.867188 235.640625 354.296875 252.960938 C 336.585938 284.988281 311.289062 309.132812 278.363281 325.023438 C 247.847656 339.738281 215.65625 344.601562 182.027344 340.355469 C 162.296875 337.921875 143.171875 331.9375 125.570312 322.695312 C 92.035156 305.074219 66.789062 279.203125 50.296875 245.085938 C 35.152344 213.777344 30.425781 180.714844 35.1875 146.292969 C 37.15625 132.269531 40.910156 118.550781 46.363281 105.480469 C 70.5625 46.832031 125.308594 6.46875 188.472656 0.695312 C 190.847656 0.480469 193.210938 0.230469 195.585938 0 L 213.050781 0 C 213.652344 0.117188 214.25 0.269531 214.855469 0.347656 C 222.804688 1.378906 230.84375 1.996094 238.6875 3.496094 C 258.351562 7.25 276.683594 14.613281 293.707031 25.144531 C 321.144531 42.109375 342.195312 64.96875 356.867188 93.726562 C 366.609375 112.855469 372.585938 133.675781 374.476562 155.058594 C 374.695312 157.425781 374.9375 159.796875 375.171875 162.164062 Z M 217.046875 267.613281 L 217.046875 73.867188 C 222.054688 75.007812 226.921875 75.84375 231.617188 77.210938 C 236.3125 78.578125 240.976562 80.488281 245.761719 82.195312 L 256.054688 60.125 C 221.480469 44.8125 187.148438 44.8125 152.578125 60.125 C 156.117188 67.722656 159.550781 75.058594 163 82.4375 C 172.25 78.175781 181.671875 75.339844 191.65625 74.175781 L 191.65625 267.613281 C 182.191406 266.519531 173.277344 263.746094 164.582031 259.929688 C 164.472656 260.429688 164.390625 260.6875 164.367188 260.910156 C 163.726562 268.46875 163.148438 276.03125 162.40625 283.578125 C 162.242188 285.25 162.570312 285.96875 164.234375 286.527344 C 176.050781 290.46875 188.367188 292.6875 200.8125 293.121094 C 209.34375 293.449219 217.878906 292.777344 226.253906 291.113281 C 232.484375 289.867188 238.585938 287.984375 244.746094 286.375 C 245.886719 286.074219 246.425781 285.617188 246.265625 284.132812 C 245.671875 278.476562 245.324219 272.796875 244.859375 267.128906 C 244.667969 264.78125 244.410156 262.441406 244.160156 259.851562 C 235.3125 263.785156 226.460938 266.414062 217.046875 267.613281 Z M 247.625 165.007812 L 247.96875 165.128906 C 251.34375 203.5625 254.730469 242.003906 258.128906 280.65625 C 258.855469 280.367188 259.566406 280.03125 260.253906 279.652344 C 266.789062 275.476562 273.300781 271.25 279.863281 267.097656 C 281.316406 266.179688 281.574219 265.015625 281.425781 263.425781 C 280.59375 254.621094 279.863281 245.808594 279.0625 237 C 277.996094 225.300781 276.882812 213.601562 275.835938 201.902344 C 274.886719 191.269531 274.015625 180.632812 273.09375 170 C 272.460938 162.703125 271.808594 155.40625 271.144531 148.113281 C 270.4375 140.378906 269.625 132.644531 269.035156 124.902344 C 268.863281 122.699219 268.425781 120.511719 269.519531 118.226562 C 275.214844 106.257812 280.730469 94.195312 286.375 82.199219 C 286.933594 81.011719 286.667969 80.390625 285.742188 79.671875 C 281.789062 76.636719 277.910156 73.480469 273.917969 70.488281 C 271.660156 68.796875 269.234375 67.335938 266.84375 65.734375 C 266.574219 66.179688 266.425781 66.386719 266.320312 66.609375 C 253.835938 93.316406 241.363281 120.027344 228.898438 146.742188 C 228.421875 147.765625 228.164062 148.875 228.140625 150 C 228.09375 168.039062 228.085938 186.074219 228.113281 204.113281 C 228.113281 204.695312 228.175781 205.28125 228.214844 205.867188 L 228.5625 205.910156 C 234.921875 192.273438 241.273438 178.636719 247.625 165.007812 Z M 141.898438 65.734375 C 134.980469 69.957031 128.457031 74.796875 122.40625 80.195312 C 122.0625 80.5 122.066406 81.582031 122.308594 82.117188 C 127.921875 94.269531 133.59375 106.390625 139.210938 118.539062 C 139.628906 119.382812 139.835938 120.3125 139.8125 121.253906 C 139.304688 127.992188 138.722656 134.726562 138.121094 141.460938 C 137.285156 150.835938 136.394531 160.207031 135.558594 169.5625 C 134.867188 177.304688 134.246094 185.050781 133.554688 192.789062 C 132.722656 202.101562 131.835938 211.398438 131.007812 220.722656 C 130.417969 227.332031 129.914062 233.953125 129.332031 240.558594 C 128.632812 248.488281 127.863281 256.414062 127.226562 264.347656 C 127.226562 265.183594 127.585938 265.980469 128.210938 266.53125 C 131.21875 268.835938 134.25 271.140625 137.4375 273.183594 C 141.570312 275.839844 145.859375 278.234375 150.472656 280.972656 C 153.890625 241.96875 157.289062 203.496094 160.671875 165.042969 L 161.011719 164.988281 C 167.359375 178.613281 173.703125 192.238281 180.050781 205.863281 L 180.457031 205.78125 L 180.457031 203.792969 C 180.457031 185.945312 180.457031 168.09375 180.417969 150.246094 C 180.398438 148.871094 180.09375 147.515625 179.523438 146.265625 C 170.957031 127.835938 162.363281 109.417969 153.730469 91.015625 C 149.828125 82.667969 145.917969 74.324219 141.898438 65.734375 Z M 112.859375 89.957031 C 92.441406 112.414062 77.894531 147.390625 83.207031 187.25 C 86.675781 213.304688 97.632812 235.863281 116.015625 255.425781 C 116.398438 251.554688 116.730469 248.257812 117.027344 244.953125 C 117.648438 237.90625 118.308594 230.859375 118.832031 223.804688 C 119.011719 221.367188 119.527344 219.035156 118.195312 216.488281 C 108.398438 197.742188 104.875 177.863281 107.890625 156.863281 C 109.929688 142.363281 115.269531 128.523438 123.496094 116.414062 C 124.183594 115.394531 124.304688 114.605469 123.769531 113.480469 C 121.519531 108.753906 119.363281 103.988281 117.164062 99.222656 C 115.765625 96.199219 114.363281 93.1875 112.859375 89.957031 Z M 292.53125 255.136719 C 334.875 213.167969 339.332031 137.949219 295.8125 90.054688 C 295.46875 90.710938 295.132812 91.292969 294.851562 91.898438 C 291.574219 99.007812 288.351562 106.140625 284.980469 113.210938 C 284.347656 114.550781 284.464844 115.433594 285.265625 116.628906 C 298.226562 136.085938 303.464844 157.550781 301.3125 180.742188 C 300.097656 193.816406 296.082031 206.15625 289.921875 217.777344 C 289.542969 218.550781 289.375 219.410156 289.441406 220.269531 C 289.96875 226.558594 290.582031 232.84375 291.152344 239.128906 C 291.632812 244.335938 292.058594 249.539062 292.53125 255.136719 Z M 292.53125 255.136719 "/>
<path style=" stroke:none;fill-rule:nonzero;fill:rgb(0%,14.509804%,60.392157%);fill-opacity:1;" d="M 350.445312 170.914062 C 350.445312 251.65625 285.007812 317.109375 204.292969 317.109375 C 123.574219 317.109375 58.140625 251.65625 58.140625 170.914062 C 58.140625 90.175781 123.574219 24.722656 204.292969 24.722656 C 285.007812 24.722656 350.445312 90.175781 350.445312 170.914062 Z M 350.445312 170.914062 "/>
<path style=" stroke:none;fill-rule:nonzero;fill:rgb(100%,100%,100%);fill-opacity:1;" d="M 217.066406 267.609375 C 226.480469 266.410156 235.332031 263.777344 244.199219 259.847656 C 244.449219 262.433594 244.703125 264.785156 244.898438 267.121094 C 245.359375 272.792969 245.710938 278.472656 246.300781 284.128906 C 246.453125 285.589844 245.921875 286.070312 244.785156 286.367188 C 238.625 287.980469 232.519531 289.859375 226.289062 291.109375 C 217.917969 292.769531 209.378906 293.445312 200.851562 293.113281 C 188.40625 292.679688 176.089844 290.460938 164.273438 286.523438 C 162.601562 285.964844 162.28125 285.242188 162.445312 283.574219 C 163.203125 276.027344 163.765625 268.460938 164.40625 260.90625 C 164.429688 260.660156 164.507812 260.421875 164.617188 259.921875 C 173.3125 263.742188 182.230469 266.515625 191.695312 267.605469 L 191.695312 74.175781 C 181.707031 75.335938 172.289062 78.171875 163.03125 82.4375 C 159.589844 75.058594 156.15625 67.714844 152.609375 60.121094 C 187.179688 44.8125 221.503906 44.8125 256.078125 60.121094 C 252.554688 67.664062 249.148438 74.976562 245.78125 82.1875 C 241 80.480469 236.394531 78.582031 231.640625 77.207031 C 226.886719 75.828125 222.074219 74.988281 217.066406 73.859375 Z M 217.066406 267.609375 "/>
<path style=" stroke:none;fill-rule:nonzero;fill:rgb(100%,100%,100%);fill-opacity:1;" d="M 247.644531 165 C 241.292969 178.632812 234.945312 192.265625 228.59375 205.898438 L 228.246094 205.855469 C 228.210938 205.269531 228.148438 204.6875 228.144531 204.101562 C 228.144531 186.066406 228.152344 168.03125 228.171875 149.992188 C 228.191406 148.867188 228.453125 147.753906 228.933594 146.734375 C 241.378906 120.011719 253.851562 93.300781 266.351562 66.601562 C 266.457031 66.378906 266.609375 66.175781 266.875 65.730469 C 269.269531 67.328125 271.695312 68.792969 273.945312 70.480469 C 277.945312 73.476562 281.824219 76.621094 285.777344 79.671875 C 286.703125 80.382812 286.964844 81.007812 286.40625 82.191406 C 280.765625 94.191406 275.257812 106.25 269.550781 118.21875 C 268.460938 120.496094 268.898438 122.695312 269.066406 124.898438 C 269.671875 132.640625 270.472656 140.371094 271.175781 148.109375 C 271.839844 155.402344 272.488281 162.699219 273.121094 169.996094 C 274.050781 180.628906 274.921875 191.265625 275.871094 201.898438 C 276.914062 213.601562 278.03125 225.296875 279.09375 236.996094 C 279.890625 245.808594 280.613281 254.617188 281.457031 263.425781 C 281.609375 265.011719 281.347656 266.179688 279.894531 267.097656 C 273.335938 271.246094 266.824219 275.472656 260.28125 279.652344 C 259.597656 280.027344 258.890625 280.363281 258.164062 280.65625 C 254.761719 241.996094 251.371094 203.5625 247.992188 165.121094 Z M 141.921875 65.730469 C 145.941406 74.320312 149.851562 82.664062 153.75 91.007812 C 162.355469 109.425781 170.953125 127.847656 179.542969 146.277344 C 180.117188 147.523438 180.421875 148.882812 180.4375 150.253906 C 180.492188 168.105469 180.476562 185.953125 180.476562 203.804688 L 180.476562 205.796875 L 180.070312 205.875 C 173.726562 192.25 167.378906 178.625 161.03125 165.003906 L 160.695312 165.054688 C 157.3125 203.519531 153.929688 241.980469 150.496094 280.988281 C 145.882812 278.246094 141.59375 275.839844 137.460938 273.195312 C 134.273438 271.152344 131.242188 268.851562 128.234375 266.542969 C 127.609375 265.992188 127.25 265.199219 127.246094 264.363281 C 127.886719 256.425781 128.65625 248.503906 129.355469 240.574219 C 129.9375 233.960938 130.441406 227.347656 131.03125 220.734375 C 131.855469 211.421875 132.746094 202.125 133.578125 192.804688 C 134.269531 185.066406 134.890625 177.320312 135.582031 169.574219 C 136.417969 160.203125 137.304688 150.832031 138.144531 141.472656 C 138.746094 134.738281 139.328125 128 139.835938 121.257812 C 139.859375 120.320312 139.652344 119.390625 139.234375 118.550781 C 133.613281 106.398438 127.9375 94.277344 122.332031 82.125 C 122.085938 81.589844 122.082031 80.507812 122.425781 80.203125 C 128.476562 74.800781 135 69.957031 141.921875 65.730469 Z M 141.921875 65.730469 "/>
<path style=" stroke:none;fill-rule:nonzero;fill:rgb(100%,100%,100%);fill-opacity:1;" d="M 112.882812 89.953125 C 114.382812 93.183594 115.789062 96.195312 117.183594 99.214844 C 119.382812 103.96875 121.539062 108.742188 123.792969 113.472656 C 124.324219 114.59375 124.207031 115.371094 123.519531 116.40625 C 115.289062 128.515625 109.949219 142.351562 107.910156 156.847656 C 104.898438 177.855469 108.417969 197.734375 118.21875 216.472656 C 119.550781 219.023438 119.03125 221.355469 118.851562 223.789062 C 118.324219 230.84375 117.671875 237.890625 117.046875 244.9375 C 116.753906 248.242188 116.414062 251.542969 116.039062 255.410156 C 97.664062 235.84375 86.699219 213.296875 83.230469 187.230469 C 77.917969 147.382812 92.460938 112.414062 112.882812 89.953125 Z M 292.554688 255.128906 C 292.078125 249.535156 291.65625 244.328125 291.1875 239.128906 C 290.625 232.839844 290.003906 226.558594 289.480469 220.265625 C 289.410156 219.40625 289.578125 218.546875 289.960938 217.777344 C 296.125 206.152344 300.140625 193.816406 301.351562 180.742188 C 303.503906 157.546875 298.265625 136.082031 285.304688 116.625 C 284.5 115.425781 284.382812 114.546875 285.019531 113.207031 C 288.371094 106.136719 291.59375 99.003906 294.871094 91.898438 C 295.148438 91.292969 295.484375 90.710938 295.832031 90.054688 C 339.351562 137.941406 334.894531 213.164062 292.554688 255.128906 Z M 292.554688 255.128906 "/>
</g>
</svg>
