<?xml version="1.0" encoding="UTF-8"?>
<svg xmlns="http://www.w3.org/2000/svg" xmlns:xlink="http://www.w3.org/1999/xlink" width="250px" height="250px" viewBox="0 0 250 250" version="1.1">
<g id="surface1">
<path style=" stroke:none;fill-rule:nonzero;fill:rgb(0%,0%,0%);fill-opacity:1;" d="M 228.761719 111.070312 L 228.761719 123.039062 C 228.691406 123.449219 228.589844 123.859375 228.554688 124.273438 C 228.214844 127.980469 228.046875 131.710938 227.527344 135.386719 C 225.640625 148.742188 221.871094 161.398438 216.035156 173.261719 C 205.234375 195.199219 189.808594 211.734375 169.734375 222.617188 C 151.125 232.699219 131.496094 236.027344 110.992188 233.121094 C 98.960938 231.453125 87.300781 227.355469 76.566406 221.023438 C 56.117188 208.953125 40.726562 191.234375 30.667969 167.867188 C 21.433594 146.421875 18.550781 123.777344 21.457031 100.199219 C 22.65625 90.59375 24.945312 81.199219 28.269531 72.246094 C 43.027344 32.078125 76.40625 4.429688 114.921875 0.476562 C 116.371094 0.328125 117.8125 0.15625 119.257812 0 L 129.910156 0 C 130.277344 0.0820312 130.640625 0.183594 131.007812 0.238281 C 135.855469 0.945312 140.757812 1.367188 145.542969 2.394531 C 157.53125 4.964844 168.710938 10.007812 179.089844 17.222656 C 195.820312 28.84375 208.65625 44.5 217.601562 64.195312 C 223.542969 77.296875 227.1875 91.558594 228.339844 106.203125 C 228.472656 107.824219 228.621094 109.449219 228.761719 111.070312 Z M 132.34375 183.296875 L 132.34375 50.59375 C 135.398438 51.375 138.367188 51.949219 141.230469 52.882812 C 144.09375 53.820312 146.9375 55.128906 149.855469 56.296875 L 156.132812 41.179688 C 135.050781 30.695312 114.113281 30.695312 93.035156 41.179688 C 95.195312 46.386719 97.285156 51.410156 99.390625 56.464844 C 105.03125 53.546875 110.777344 51.601562 116.863281 50.804688 L 116.863281 183.296875 C 111.09375 182.546875 105.65625 180.648438 100.355469 178.035156 C 100.289062 178.375 100.238281 178.554688 100.222656 178.707031 C 99.832031 183.882812 99.480469 189.0625 99.027344 194.230469 C 98.929688 195.375 99.128906 195.867188 100.144531 196.25 C 107.347656 198.953125 114.859375 200.472656 122.445312 200.769531 C 127.648438 200.992188 132.851562 200.53125 137.960938 199.394531 C 141.757812 198.539062 145.480469 197.25 149.234375 196.148438 C 149.929688 195.941406 150.257812 195.628906 150.160156 194.613281 C 149.800781 190.738281 149.589844 186.847656 149.304688 182.964844 C 149.1875 181.355469 149.03125 179.753906 148.878906 177.980469 C 143.484375 180.675781 138.085938 182.476562 132.34375 183.296875 Z M 150.992188 113.019531 L 151.199219 113.101562 C 153.257812 139.425781 155.324219 165.757812 157.394531 192.230469 C 157.839844 192.03125 158.273438 191.800781 158.691406 191.542969 C 162.675781 188.683594 166.648438 185.789062 170.648438 182.945312 C 171.535156 182.316406 171.691406 181.515625 171.601562 180.429688 C 171.09375 174.398438 170.648438 168.363281 170.160156 162.328125 C 169.511719 154.316406 168.832031 146.300781 168.191406 138.289062 C 167.613281 131.007812 167.082031 123.722656 166.519531 116.4375 C 166.132812 111.441406 165.738281 106.441406 165.332031 101.449219 C 164.902344 96.148438 164.40625 90.851562 164.046875 85.550781 C 163.941406 84.039062 163.675781 82.542969 164.339844 80.976562 C 167.8125 72.78125 171.175781 64.515625 174.617188 56.300781 C 174.960938 55.488281 174.796875 55.0625 174.234375 54.570312 C 171.824219 52.492188 169.457031 50.328125 167.023438 48.28125 C 165.644531 47.121094 164.167969 46.121094 162.710938 45.023438 C 162.546875 45.328125 162.453125 45.46875 162.390625 45.621094 C 154.777344 63.914062 147.171875 82.210938 139.570312 100.507812 C 139.28125 101.210938 139.125 101.96875 139.109375 102.738281 C 139.082031 115.09375 139.078125 127.449219 139.09375 139.804688 C 139.09375 140.203125 139.132812 140.605469 139.15625 141.003906 L 139.367188 141.035156 C 143.246094 131.695312 147.117188 122.355469 150.992188 113.019531 Z M 86.523438 45.023438 C 82.304688 47.914062 78.328125 51.230469 74.636719 54.929688 C 74.429688 55.136719 74.429688 55.878906 74.578125 56.246094 C 78 64.566406 81.460938 72.871094 84.882812 81.191406 C 85.140625 81.769531 85.265625 82.40625 85.25 83.050781 C 84.941406 87.664062 84.585938 92.277344 84.21875 96.890625 C 83.710938 103.3125 83.167969 109.730469 82.65625 116.140625 C 82.234375 121.441406 81.855469 126.746094 81.4375 132.046875 C 80.929688 138.425781 80.386719 144.792969 79.882812 151.179688 C 79.523438 155.707031 79.214844 160.242188 78.859375 164.765625 C 78.433594 170.199219 77.964844 175.625 77.578125 181.058594 C 77.578125 181.632812 77.796875 182.179688 78.175781 182.554688 C 80.011719 184.132812 81.859375 185.710938 83.804688 187.113281 C 86.324219 188.929688 88.9375 190.570312 91.75 192.445312 C 93.835938 165.730469 95.90625 139.382812 97.96875 113.042969 L 98.179688 113.003906 C 102.046875 122.335938 105.917969 131.671875 109.785156 141.003906 L 110.035156 140.945312 L 110.035156 139.585938 C 110.035156 127.359375 110.035156 115.132812 110.011719 102.910156 C 110 101.964844 109.8125 101.039062 109.464844 100.183594 C 104.242188 87.558594 99.003906 74.945312 93.738281 62.339844 C 91.359375 56.621094 88.972656 50.90625 86.523438 45.023438 Z M 68.816406 61.613281 C 56.367188 76.996094 47.496094 100.953125 50.734375 128.253906 C 52.851562 146.097656 59.53125 161.550781 70.742188 174.949219 C 70.976562 172.296875 71.175781 170.039062 71.359375 167.777344 C 71.738281 162.949219 72.140625 158.121094 72.457031 153.289062 C 72.566406 151.621094 72.882812 150.023438 72.070312 148.28125 C 66.097656 135.441406 63.949219 121.824219 65.785156 107.441406 C 67.03125 97.507812 70.285156 88.03125 75.300781 79.734375 C 75.722656 79.039062 75.796875 78.496094 75.46875 77.726562 C 74.097656 74.488281 72.78125 71.226562 71.441406 67.960938 C 70.589844 65.890625 69.734375 63.828125 68.816406 61.613281 Z M 178.371094 174.75 C 204.191406 146.003906 206.910156 94.484375 180.375 61.679688 C 180.164062 62.128906 179.960938 62.53125 179.789062 62.945312 C 177.789062 67.8125 175.824219 72.699219 173.769531 77.542969 C 173.382812 78.460938 173.453125 79.0625 173.941406 79.882812 C 181.84375 93.210938 185.039062 107.910156 183.726562 123.796875 C 182.988281 132.75 180.539062 141.203125 176.78125 149.164062 C 176.550781 149.691406 176.449219 150.28125 176.488281 150.871094 C 176.808594 155.175781 177.183594 159.480469 177.53125 163.785156 C 177.824219 167.351562 178.085938 170.917969 178.371094 174.75 Z M 178.371094 174.75 "/>
<path style=" stroke:none;fill-rule:nonzero;fill:rgb(0%,14.509804%,60.392157%);fill-opacity:1;" d="M 213.6875 117.0625 C 213.6875 172.367188 173.785156 217.199219 124.570312 217.199219 C 75.351562 217.199219 35.453125 172.367188 35.453125 117.0625 C 35.453125 61.765625 75.351562 16.933594 124.570312 16.933594 C 173.785156 16.933594 213.6875 61.765625 213.6875 117.0625 Z M 213.6875 117.0625 "/>
<path style=" stroke:none;fill-rule:nonzero;fill:rgb(100%,100%,100%);fill-opacity:1;" d="M 132.359375 183.292969 C 138.097656 182.472656 143.496094 180.667969 148.902344 177.976562 C 149.054688 179.75 149.210938 181.359375 149.328125 182.960938 C 149.609375 186.84375 149.824219 190.734375 150.183594 194.609375 C 150.277344 195.609375 149.953125 195.9375 149.257812 196.140625 C 145.503906 197.246094 141.78125 198.535156 137.980469 199.390625 C 132.875 200.527344 127.671875 200.988281 122.46875 200.761719 C 114.882812 200.464844 107.371094 198.945312 100.167969 196.25 C 99.148438 195.867188 98.953125 195.371094 99.050781 194.230469 C 99.515625 189.058594 99.855469 183.878906 100.246094 178.703125 C 100.261719 178.535156 100.308594 178.371094 100.375 178.027344 C 105.679688 180.644531 111.117188 182.546875 116.886719 183.292969 L 116.886719 50.804688 C 110.796875 51.601562 105.054688 53.542969 99.410156 56.464844 C 97.3125 51.410156 95.21875 46.378906 93.054688 41.179688 C 114.132812 30.695312 135.0625 30.695312 156.144531 41.179688 C 153.996094 46.34375 151.917969 51.355469 149.867188 56.292969 C 146.953125 55.125 144.144531 53.824219 141.246094 52.882812 C 138.34375 51.9375 135.410156 51.363281 132.359375 50.589844 Z M 132.359375 183.292969 "/>
<path style=" stroke:none;fill-rule:nonzero;fill:rgb(100%,100%,100%);fill-opacity:1;" d="M 151.003906 113.015625 C 147.128906 122.351562 143.257812 131.6875 139.386719 141.027344 L 139.175781 140.996094 C 139.152344 140.59375 139.113281 140.195312 139.113281 139.796875 C 139.113281 127.441406 139.117188 115.089844 139.128906 102.734375 C 139.140625 101.964844 139.300781 101.203125 139.59375 100.503906 C 147.183594 82.199219 154.789062 63.90625 162.410156 45.617188 C 162.472656 45.464844 162.566406 45.324219 162.730469 45.019531 C 164.1875 46.113281 165.667969 47.117188 167.039062 48.273438 C 169.480469 50.328125 171.84375 52.480469 174.253906 54.570312 C 174.820312 55.058594 174.980469 55.484375 174.636719 56.296875 C 171.199219 64.515625 167.839844 72.773438 164.359375 80.972656 C 163.695312 82.53125 163.960938 84.039062 164.066406 85.546875 C 164.433594 90.851562 164.921875 96.144531 165.351562 101.445312 C 165.757812 106.441406 166.152344 111.4375 166.539062 116.4375 C 167.105469 123.71875 167.636719 131.003906 168.214844 138.285156 C 168.851562 146.300781 169.53125 154.3125 170.179688 162.324219 C 170.664062 168.363281 171.105469 174.394531 171.621094 180.429688 C 171.714844 181.515625 171.554688 182.316406 170.667969 182.945312 C 166.667969 185.785156 162.699219 188.679688 158.707031 191.542969 C 158.292969 191.800781 157.859375 192.03125 157.417969 192.230469 C 155.34375 165.75 153.273438 139.425781 151.214844 113.097656 Z M 86.539062 45.019531 C 88.988281 50.90625 91.371094 56.621094 93.75 62.335938 C 98.996094 74.949219 104.238281 87.566406 109.476562 100.191406 C 109.828125 101.042969 110.011719 101.972656 110.023438 102.914062 C 110.054688 115.140625 110.046875 127.363281 110.046875 139.59375 L 110.046875 140.957031 L 109.800781 141.011719 C 105.929688 131.679688 102.058594 122.347656 98.191406 113.015625 L 97.984375 113.050781 C 95.921875 139.398438 93.859375 165.738281 91.765625 192.457031 C 88.953125 190.578125 86.335938 188.929688 83.816406 187.121094 C 81.875 185.722656 80.027344 184.144531 78.191406 182.5625 C 77.8125 182.1875 77.589844 181.644531 77.589844 181.070312 C 77.980469 175.632812 78.449219 170.207031 78.875 164.777344 C 79.230469 160.246094 79.539062 155.71875 79.898438 151.1875 C 80.398438 144.808594 80.941406 138.441406 81.449219 132.058594 C 81.871094 126.757812 82.25 121.453125 82.671875 116.148438 C 83.183594 109.726562 83.722656 103.308594 84.234375 96.898438 C 84.601562 92.285156 84.957031 87.671875 85.265625 83.054688 C 85.28125 82.410156 85.152344 81.773438 84.898438 81.199219 C 81.472656 72.875 78.011719 64.574219 74.59375 56.25 C 74.441406 55.882812 74.441406 55.140625 74.648438 54.933594 C 78.339844 51.234375 82.316406 47.914062 86.539062 45.019531 Z M 86.539062 45.019531 "/>
<path style=" stroke:none;fill-rule:nonzero;fill:rgb(100%,100%,100%);fill-opacity:1;" d="M 68.832031 61.613281 C 69.746094 63.824219 70.601562 65.886719 71.453125 67.957031 C 72.792969 71.210938 74.109375 74.480469 75.484375 77.722656 C 75.808594 78.488281 75.734375 79.019531 75.316406 79.730469 C 70.296875 88.023438 67.042969 97.5 65.800781 107.429688 C 63.960938 121.820312 66.109375 135.433594 72.085938 148.269531 C 72.898438 150.015625 72.578125 151.613281 72.46875 153.28125 C 72.148438 158.113281 71.75 162.9375 71.371094 167.765625 C 71.191406 170.027344 70.984375 172.289062 70.753906 174.9375 C 59.550781 161.535156 52.867188 146.09375 50.75 128.238281 C 47.511719 100.945312 56.378906 76.996094 68.832031 61.613281 Z M 178.386719 174.746094 C 178.097656 170.914062 177.839844 167.347656 177.554688 163.785156 C 177.210938 159.480469 176.832031 155.175781 176.511719 150.867188 C 176.46875 150.277344 176.570312 149.691406 176.804688 149.164062 C 180.5625 141.199219 183.011719 132.75 183.75 123.796875 C 185.0625 107.910156 181.871094 93.207031 173.964844 79.878906 C 173.476562 79.058594 173.402344 78.457031 173.792969 77.539062 C 175.835938 72.695312 177.800781 67.8125 179.800781 62.945312 C 179.96875 62.53125 180.171875 62.128906 180.386719 61.679688 C 206.921875 94.480469 204.203125 146.003906 178.386719 174.746094 Z M 178.386719 174.746094 "/>
</g>
</svg>
