<?xml version="1.0" encoding="UTF-8"?>
<svg xmlns="http://www.w3.org/2000/svg" xmlns:xlink="http://www.w3.org/1999/xlink" width="250px" height="250px" viewBox="0 0 250 250" version="1.1">
<defs>
<clipPath id="clip1">
  <path d="M 101 92 L 168 92 L 168 159 L 101 159 Z M 101 92 "/>
</clipPath>
<clipPath id="clip2">
  <path d="M 118.003906 247.035156 C 159.425781 247.035156 193 192.382812 193 124.960938 C 193 57.546875 159.425781 2.886719 118.003906 2.886719 C 76.59375 2.886719 43.019531 57.546875 43.019531 124.960938 C 43.019531 192.382812 76.59375 247.035156 118.003906 247.035156 "/>
</clipPath>
<clipPath id="clip3">
  <path d="M 43 60 L 115 60 L 115 181 L 43 181 Z M 43 60 "/>
</clipPath>
<clipPath id="clip4">
  <path d="M 118.003906 247.035156 C 159.425781 247.035156 193 192.382812 193 124.960938 C 193 57.546875 159.425781 2.886719 118.003906 2.886719 C 76.59375 2.886719 43.019531 57.546875 43.019531 124.960938 C 43.019531 192.382812 76.59375 247.035156 118.003906 247.035156 "/>
</clipPath>
<clipPath id="clip5">
  <path d="M 151 90 L 193 90 L 193 192 L 151 192 Z M 151 90 "/>
</clipPath>
<clipPath id="clip6">
  <path d="M 118.003906 247.035156 C 159.425781 247.035156 193 192.382812 193 124.960938 C 193 57.546875 159.425781 2.886719 118.003906 2.886719 C 76.59375 2.886719 43.019531 57.546875 43.019531 124.960938 C 43.019531 192.382812 76.59375 247.035156 118.003906 247.035156 "/>
</clipPath>
<clipPath id="clip7">
  <path d="M 79 60 L 94 60 L 94 79 L 79 79 Z M 79 60 "/>
</clipPath>
<clipPath id="clip8">
  <path d="M 118.003906 247.035156 C 159.425781 247.035156 193 192.382812 193 124.960938 C 193 57.546875 159.425781 2.886719 118.003906 2.886719 C 76.59375 2.886719 43.019531 57.546875 43.019531 124.960938 C 43.019531 192.382812 76.59375 247.035156 118.003906 247.035156 "/>
</clipPath>
<clipPath id="clip9">
  <path d="M 110 58 L 125 58 L 125 79 L 110 79 Z M 110 58 "/>
</clipPath>
<clipPath id="clip10">
  <path d="M 118.003906 247.035156 C 159.425781 247.035156 193 192.382812 193 124.960938 C 193 57.546875 159.425781 2.886719 118.003906 2.886719 C 76.59375 2.886719 43.019531 57.546875 43.019531 124.960938 C 43.019531 192.382812 76.59375 247.035156 118.003906 247.035156 "/>
</clipPath>
<clipPath id="clip11">
  <path d="M 178 60 L 193 60 L 193 79 L 178 79 Z M 178 60 "/>
</clipPath>
<clipPath id="clip12">
  <path d="M 118.003906 247.035156 C 159.425781 247.035156 193 192.382812 193 124.960938 C 193 57.546875 159.425781 2.886719 118.003906 2.886719 C 76.59375 2.886719 43.019531 57.546875 43.019531 124.960938 C 43.019531 192.382812 76.59375 247.035156 118.003906 247.035156 "/>
</clipPath>
<clipPath id="clip13">
  <path d="M 127 59 L 166 59 L 166 79 L 127 79 Z M 127 59 "/>
</clipPath>
<clipPath id="clip14">
  <path d="M 118.003906 247.035156 C 159.425781 247.035156 193 192.382812 193 124.960938 C 193 57.546875 159.425781 2.886719 118.003906 2.886719 C 76.59375 2.886719 43.019531 57.546875 43.019531 124.960938 C 43.019531 192.382812 76.59375 247.035156 118.003906 247.035156 "/>
</clipPath>
<clipPath id="clip15">
  <path d="M 95 59 L 110 59 L 110 80 L 95 80 Z M 95 59 "/>
</clipPath>
<clipPath id="clip16">
  <path d="M 118.003906 247.035156 C 159.425781 247.035156 193 192.382812 193 124.960938 C 193 57.546875 159.425781 2.886719 118.003906 2.886719 C 76.59375 2.886719 43.019531 57.546875 43.019531 124.960938 C 43.019531 192.382812 76.59375 247.035156 118.003906 247.035156 "/>
</clipPath>
<clipPath id="clip17">
  <path d="M 164 58 L 180 58 L 180 79 L 164 79 Z M 164 58 "/>
</clipPath>
<clipPath id="clip18">
  <path d="M 118.003906 247.035156 C 159.425781 247.035156 193 192.382812 193 124.960938 C 193 57.546875 159.425781 2.886719 118.003906 2.886719 C 76.59375 2.886719 43.019531 57.546875 43.019531 124.960938 C 43.019531 192.382812 76.59375 247.035156 118.003906 247.035156 "/>
</clipPath>
</defs>
<g id="surface1">
<path style=" stroke:none;fill-rule:nonzero;fill:rgb(99.215686%,72.156863%,15.294118%);fill-opacity:1;" d="M 118.003906 247.039062 C 159.425781 247.039062 193 192.382812 193 124.960938 C 193 57.546875 159.425781 2.886719 118.003906 2.886719 C 76.59375 2.886719 43.019531 57.546875 43.019531 124.960938 C 43.019531 192.382812 76.59375 247.039062 118.003906 247.039062 "/>
<path style=" stroke:none;fill-rule:nonzero;fill:rgb(33.333333%,14.509804%,50.980392%);fill-opacity:1;" d="M 152.191406 137.449219 C 145.1875 151.078125 141.214844 155.746094 134.097656 155.746094 C 131.675781 155.746094 130.414062 154.871094 131.097656 152.992188 L 139.535156 125.773438 L 142.753906 125.773438 C 146.347656 125.773438 145.851562 130.628906 144.871094 137.199219 C 144.699219 138.121094 145.132812 138.171875 145.558594 137.371094 L 153.582031 114.761719 C 153.976562 113.335938 152.960938 113.058594 152.46875 114.136719 C 148.449219 122.882812 144.21875 122.234375 142.433594 122.234375 L 140.980469 122.234375 L 149.996094 94.648438 L 153.632812 94.648438 C 158.207031 95.101562 160.335938 101.335938 159.011719 116.359375 L 160.917969 116.359375 L 167.542969 95.410156 C 168.078125 93.644531 166.949219 92.019531 165.699219 92.019531 L 120.726562 92.042969 C 118.121094 92.042969 118.003906 95.25 120.503906 95.25 C 122.527344 95.25 122.417969 99.902344 120.601562 102.152344 L 101.507812 126.460938 L 105.367188 155.164062 C 105.648438 157.332031 106.519531 158.363281 108.011719 158.363281 L 145.199219 158.363281 C 146.730469 158.363281 147.367188 157.363281 147.859375 156.339844 L 154.59375 137.6875 C 155.523438 135.003906 153.363281 135.175781 152.191406 137.449219 M 126.285156 124.34375 L 123.011719 124.316406 C 122.902344 124.316406 122.796875 124.382812 122.71875 124.507812 C 122.640625 124.628906 122.597656 124.796875 122.597656 124.972656 C 122.597656 125.339844 122.785156 125.636719 123.011719 125.636719 L 126.328125 125.585938 C 127.453125 125.585938 128.484375 125.816406 128.195312 126.617188 L 119.597656 152.949219 C 118.53125 156.085938 116.269531 155.285156 115.910156 152.777344 L 111.652344 117.484375 L 126.628906 98.863281 C 128.113281 96.8125 130.980469 93.472656 132.441406 93.511719 L 135.703125 93.480469 C 137.691406 93.460938 138.398438 94.949219 137.925781 96.882812 L 137.351562 98.660156 C 136.976562 99.660156 135.804688 99.78125 134.804688 99.78125 L 132.921875 99.796875 C 132.8125 99.792969 132.703125 99.863281 132.625 99.988281 C 132.546875 100.113281 132.503906 100.285156 132.503906 100.464844 C 132.503906 100.835938 132.691406 101.128906 132.921875 101.128906 L 134.78125 101.128906 C 135.582031 101.128906 136.589844 101.160156 136.21875 102.128906 L 129.273438 123.363281 C 128.953125 124.195312 127.507812 124.34375 126.285156 124.34375 "/>
<path style=" stroke:none;fill-rule:nonzero;fill:rgb(33.333333%,14.509804%,50.980392%);fill-opacity:1;" d="M 95.414062 155.15625 C 94.554688 155.125 93.800781 154.230469 93.53125 152.925781 C 93.210938 151.394531 93.238281 148.667969 93.625 147.464844 L 110.976562 98.121094 C 111.257812 97.210938 111.960938 95.308594 112.824219 95.308594 C 114.355469 95.3125 115.019531 92.078125 112.421875 92.078125 L 98.523438 92.078125 C 95.925781 92.078125 95.902344 95.25 98.390625 95.25 C 99.40625 95.25 99.808594 96.847656 99.519531 97.820312 L 95.683594 108.980469 C 95.203125 110.203125 94.140625 110.296875 93.019531 110.296875 L 89.707031 110.277344 C 89.476562 110.277344 89.289062 110.578125 89.289062 110.949219 C 89.289062 111.320312 89.476562 111.625 89.707031 111.625 L 92.992188 111.625 C 93.878906 111.625 94.585938 112.054688 94.074219 113.703125 L 81.265625 151.117188 C 80.34375 153.175781 78.507812 153.632812 78.613281 149.6875 L 83.167969 94.894531 C 83.34375 93.183594 83.066406 92.023438 81.921875 92.023438 L 75.058594 92.042969 C 74.234375 92.042969 73.730469 92.683594 73.335938 93.535156 L 70.882812 98.484375 C 70.558594 98.996094 69.871094 98.992188 69.105469 98.992188 L 63.339844 98.980469 C 63.230469 98.976562 63.125 99.046875 63.046875 99.171875 C 62.96875 99.296875 62.925781 99.464844 62.925781 99.644531 C 62.925781 100.015625 63.109375 100.316406 63.339844 100.316406 L 68.046875 100.316406 C 68.882812 100.316406 69.859375 100.625 69.503906 101.257812 L 62.898438 114.585938 C 62.699219 114.949219 62.058594 115.050781 61.664062 115.050781 L 59.800781 115.046875 C 59.566406 115.046875 59.378906 115.34375 59.378906 115.710938 C 59.378906 116.074219 59.566406 116.375 59.800781 116.375 L 61.355469 116.382812 C 61.839844 116.382812 61.84375 116.761719 61.648438 117.113281 L 55.4375 129.625 C 55.117188 130.105469 54.496094 130.207031 53.894531 130.207031 L 48.40625 130.199219 C 48.179688 130.199219 47.992188 130.496094 47.992188 130.863281 C 47.992188 131.230469 48.179688 131.53125 48.40625 131.53125 L 53.113281 131.53125 C 53.828125 131.53125 54.382812 131.734375 54.003906 132.507812 L 45.175781 150.265625 C 43.519531 153.652344 35.527344 155.378906 33.972656 155.378906 L 63.824219 65.804688 C 64.109375 64.777344 65.21875 63.203125 66.363281 63.203125 L 72.703125 63.203125 C 75.695312 63.203125 75.605469 60.011719 73.007812 60.011719 L 41.140625 60.011719 C 38.546875 60.011719 38.441406 63.203125 41.425781 63.203125 L 47.332031 63.203125 C 49.003906 63.203125 49.542969 64.828125 49.113281 66.15625 L 48.265625 68.621094 C 47.988281 69.417969 47.589844 69.742188 45.972656 69.742188 L 35.542969 69.730469 C 35.316406 69.730469 35.128906 70.027344 35.128906 70.394531 C 35.128906 70.761719 35.316406 71.0625 35.542969 71.0625 L 45.945312 71.066406 C 46.511719 71.066406 47.355469 71.300781 46.824219 72.929688 L 45.363281 77.269531 C 45.117188 77.929688 44.476562 78.242188 43.742188 78.242188 L 39.019531 78.226562 C 38.789062 78.226562 38.601562 78.523438 38.601562 78.890625 C 38.601562 79.269531 38.785156 79.5625 39.019531 79.5625 L 43.722656 79.574219 C 44.394531 79.574219 44.414062 80.277344 44.023438 81.277344 L 40.664062 91.289062 C 40.378906 92.140625 39.832031 92.253906 38.765625 92.253906 L 36.882812 92.238281 C 36.773438 92.238281 36.664062 92.308594 36.585938 92.433594 C 36.507812 92.5625 36.464844 92.730469 36.464844 92.910156 C 36.464844 93.277344 36.652344 93.574219 36.882812 93.574219 L 38.738281 93.578125 C 39.445312 93.578125 39.632812 94.210938 39.316406 95.296875 L 36.558594 103.511719 C 36.148438 104.679688 35.5625 105.148438 33.730469 105.148438 L 23.304688 105.132812 C 23.078125 105.144531 22.902344 105.441406 22.902344 105.800781 C 22.902344 106.160156 23.078125 106.453125 23.304688 106.46875 L 33.703125 106.472656 C 34.875 106.503906 35.308594 107.328125 34.851562 108.679688 L 29.464844 124.898438 C 29.144531 125.617188 28.269531 125.722656 26.769531 125.722656 L 16.34375 125.707031 C 16.113281 125.707031 15.929688 126.003906 15.929688 126.371094 C 15.929688 126.738281 16.113281 127.039062 16.34375 127.039062 L 26.746094 127.042969 C 27.992188 127.042969 28.75 127.128906 28.371094 128.179688 L 25.277344 137.535156 C 24.703125 138.960938 23.105469 138.960938 22.480469 138.960938 L 19.171875 138.945312 C 18.945312 138.949219 18.757812 139.246094 18.761719 139.617188 C 18.761719 139.984375 18.945312 140.28125 19.175781 140.28125 L 22.453125 140.285156 C 23.613281 140.285156 24.226562 140.605469 23.921875 141.605469 L 19.777344 154.089844 C 19.40625 155.203125 17.785156 155.257812 16.539062 155.257812 L 0.417969 155.234375 C 0.1875 155.238281 0.00390625 155.539062 0 155.90625 C 0 156.265625 0.195312 156.574219 0.417969 156.574219 L 16.515625 156.578125 C 17.582031 156.578125 18.929688 156.785156 18.425781 158.15625 L 15.789062 166.125 C 15.539062 166.785156 14.636719 166.839844 13.335938 166.839844 L 10.03125 166.828125 C 9.804688 166.828125 9.617188 167.128906 9.617188 167.496094 C 9.617188 167.863281 9.804688 168.160156 10.03125 168.160156 L 13.3125 168.160156 C 14.109375 168.160156 15.089844 168.308594 14.746094 169.285156 L 13.09375 174.371094 C 12.558594 175.640625 12.027344 176.765625 10.75 176.765625 L 2.660156 176.765625 C -0.332031 176.765625 -0.226562 179.957031 2.371094 179.957031 L 49.871094 180.003906 C 51.257812 180.003906 51.304688 179.707031 51.957031 178.0625 L 59.003906 158.367188 L 95.007812 158.371094 C 97.605469 158.382812 96.9375 155.238281 95.414062 155.15625 M 67.171875 149.292969 C 66.820312 152.542969 64.78125 154.6875 62.214844 155.78125 L 59.574219 156.835938 L 61.746094 150.558594 C 62.316406 148.851562 61.0625 147.847656 59.695312 150.386719 C 50.503906 167.566406 47.570312 175.78125 33.390625 175.84375 L 29.578125 175.855469 C 28.425781 175.855469 27.160156 175.132812 27.945312 173.367188 L 32.957031 158.378906 L 52.015625 158.382812 C 54.613281 158.382812 53.945312 155.238281 52.417969 155.160156 C 51.410156 155.105469 50.308594 154.175781 49.53125 152.199219 C 49.308594 151.65625 48.835938 149.476562 49.578125 147.800781 L 56.875 132.246094 L 69.003906 132.246094 Z M 69.917969 129.628906 L 58.085938 129.628906 L 73.054688 97.96875 Z M 249.96875 139.417969 C 249.773438 137.855469 249.421875 138.804688 248.777344 140.777344 C 248.582031 141.371094 247.957031 141.390625 247.332031 141.390625 L 245.433594 141.402344 C 245.320312 141.402344 245.214844 141.472656 245.136719 141.597656 C 245.058594 141.726562 245.011719 141.898438 245.015625 142.078125 C 245.015625 142.433594 245.203125 142.730469 245.433594 142.730469 L 247.304688 142.730469 C 248.011719 142.730469 248.027344 143.492188 247.695312 144.636719 C 246.382812 149.113281 245.035156 152.113281 243.242188 155.710938 C 242.960938 156.273438 242.238281 156.765625 241.667969 156.765625 L 239.753906 156.785156 C 239.644531 156.785156 239.539062 156.855469 239.460938 156.980469 C 239.382812 157.105469 239.339844 157.273438 239.339844 157.453125 C 239.339844 157.816406 239.523438 158.117188 239.753906 158.117188 L 241.628906 158.117188 C 242.570312 158.117188 241.613281 159.042969 241.457031 159.382812 C 238.132812 166.492188 235.84375 169.664062 233.40625 172.847656 C 233.117188 173.21875 231.742188 173.082031 230.777344 173.074219 L 228.890625 173.082031 C 228.660156 173.082031 228.46875 173.386719 228.46875 173.757812 C 228.46875 174.128906 228.660156 174.433594 228.890625 174.433594 L 230.753906 174.433594 C 232.175781 174.433594 231.105469 175.742188 230.894531 176.019531 C 225.714844 182.941406 218.007812 185.164062 214.480469 184.457031 C 203.03125 182.15625 200.667969 168.21875 199.820312 162.648438 C 199.648438 161.480469 199.097656 159.089844 198.914062 157.617188 C 198.5625 154.707031 203.726562 153.878906 205.15625 155.410156 C 207.316406 157.730469 212.363281 160.113281 216.332031 160.132812 C 220.003906 160.15625 227.519531 155.875 229.695312 145.761719 C 231.921875 135.417969 226.332031 123.929688 223.855469 119.96875 C 220.707031 114.910156 217.722656 106.863281 218.984375 100.953125 C 219.925781 96.496094 221.507812 94.476562 224.898438 94.476562 C 229.28125 94.476562 232.464844 98.992188 232.464844 105.398438 C 232.464844 105.976562 232.25 106.652344 231.960938 106.652344 L 230.414062 106.660156 C 230.183594 106.664062 229.996094 106.964844 229.996094 107.335938 C 229.996094 107.707031 230.183594 108.007812 230.414062 108.007812 L 231.867188 108 C 232.277344 108 232.535156 108.5 232.425781 109.304688 C 232.144531 111.445312 232.050781 112.953125 231.761719 115.101562 C 231.585938 116.347656 232.726562 117.210938 233.121094 116.304688 L 240.007812 96.589844 C 240.507812 95.101562 239.398438 94.703125 238.582031 95.164062 C 236.695312 96.207031 233.632812 96.941406 232.542969 95.683594 C 229.96875 92.71875 227.621094 90.824219 224.03125 90.824219 C 217.90625 90.824219 213.621094 93.234375 210.875 101.3125 C 210.660156 101.945312 210.058594 101.9375 209.542969 101.9375 L 208.367188 101.9375 C 208.140625 101.9375 207.953125 102.234375 207.953125 102.601562 C 207.953125 102.96875 208.140625 103.265625 208.367188 103.265625 L 209.367188 103.25 C 209.796875 103.25 210.082031 103.445312 209.867188 104.242188 C 209.679688 104.972656 209.507812 105.730469 209.351562 106.523438 C 208.65625 110.023438 208.882812 114.929688 209.972656 119.300781 C 210.042969 119.59375 209.808594 119.730469 209.386719 119.730469 L 207.519531 119.730469 C 207.40625 119.730469 207.300781 119.800781 207.222656 119.929688 C 207.144531 120.054688 207.097656 120.226562 207.097656 120.40625 C 207.097656 120.773438 207.285156 121.066406 207.519531 121.066406 L 209.386719 121.066406 C 210.234375 121.074219 210.441406 121.214844 210.789062 122.007812 C 211.757812 124.1875 212.746094 125.804688 213.988281 128.347656 C 214.382812 129.136719 212.710938 129.359375 211.824219 129.351562 L 204.40625 129.347656 C 204.171875 129.347656 203.992188 129.652344 203.992188 130.019531 C 203.988281 130.195312 204.03125 130.367188 204.109375 130.492188 C 204.1875 130.617188 204.296875 130.6875 204.40625 130.683594 L 211.917969 130.667969 C 213.121094 130.667969 215.195312 130.644531 215.429688 131.066406 C 217.242188 134.433594 219.4375 139.613281 219.816406 143.96875 C 219.921875 145.230469 219.628906 145.757812 218.660156 145.757812 L 217.652344 145.757812 C 217.542969 145.757812 217.4375 145.828125 217.359375 145.953125 C 217.28125 146.078125 217.238281 146.246094 217.242188 146.425781 C 217.242188 146.792969 217.425781 147.085938 217.65625 147.085938 L 218.542969 147.085938 C 219.308594 147.085938 219.726562 147.292969 219.546875 148.210938 C 218.570312 153.199219 217.113281 156.8125 211.167969 156.761719 C 204.933594 156.703125 203.664062 146.902344 205.488281 136.679688 C 205.847656 134.652344 205.472656 133.769531 204.902344 135.375 L 200.5625 146.304688 C 200.457031 146.5625 200.039062 147.1875 199.378906 147.1875 L 198.765625 147.183594 C 198.535156 147.183594 198.347656 147.480469 198.347656 147.847656 C 198.347656 148.214844 198.535156 148.515625 198.765625 148.515625 C 199.3125 148.515625 199.527344 148.988281 199.3125 149.476562 L 197.730469 153.453125 C 195.101562 143.835938 190.710938 131.992188 188.367188 127.683594 L 188.410156 127.472656 C 194.191406 126.910156 202.71875 118.226562 204.117188 110.460938 C 206.539062 96.996094 198.382812 92.019531 193.933594 92.019531 L 174.390625 92.023438 C 171.792969 92.023438 171.605469 95.183594 174.09375 95.183594 C 175.441406 95.183594 176.617188 97.070312 176.027344 98.984375 L 171.699219 111.492188 C 171.339844 112.519531 169.992188 112.457031 168.25 112.457031 L 166.355469 112.457031 C 166.125 112.457031 165.9375 112.757812 165.9375 113.128906 C 165.9375 113.5 166.125 113.800781 166.355469 113.800781 L 168.21875 113.800781 C 169.464844 113.800781 170.839844 113.914062 170.371094 115.347656 L 165.253906 130.160156 C 165.007812 130.847656 164.34375 130.90625 162.605469 130.90625 L 160.71875 130.910156 C 160.484375 130.917969 160.296875 131.21875 160.296875 131.59375 C 160.296875 131.949219 160.484375 132.257812 160.71875 132.257812 L 162.558594 132.257812 C 163.933594 132.257812 164.445312 132.550781 164.050781 133.6875 L 157.214844 153.515625 C 156.398438 154.9375 155.425781 155.207031 153.757812 155.207031 C 151.265625 155.207031 151.289062 158.375 153.890625 158.375 L 170.625 158.375 C 173.226562 158.375 172.566406 155.152344 171.027344 155.152344 C 170.132812 155.152344 169.179688 152.496094 169.78125 150.90625 L 178.324219 124.953125 L 179.191406 124.953125 C 182.992188 124.953125 183.910156 134.949219 184.621094 145.863281 C 184.675781 146.648438 183.75 146.679688 181.855469 146.679688 L 177.105469 146.703125 C 176.996094 146.703125 176.890625 146.773438 176.8125 146.898438 C 176.734375 147.023438 176.6875 147.191406 176.6875 147.371094 C 176.691406 147.738281 176.875 148.035156 177.105469 148.039062 L 181.800781 148.039062 C 183.050781 148.039062 184.792969 148.058594 184.839844 148.691406 C 185.164062 153.488281 185.410156 157.699219 185.988281 161.542969 C 186.164062 162.738281 184.832031 162.550781 183.40625 162.550781 L 177.355469 162.558594 C 177.128906 162.5625 176.941406 162.855469 176.9375 163.222656 C 176.9375 163.601562 177.125 163.898438 177.355469 163.898438 L 183.402344 163.910156 C 185.300781 163.910156 186.28125 163.910156 186.390625 164.53125 C 188.992188 179.84375 200.15625 191.894531 211.007812 191.230469 C 220.324219 190.664062 228.199219 182.535156 232.21875 177.355469 C 237.585938 170.457031 245.453125 156.019531 248.660156 145.523438 C 249.238281 143.597656 250.1875 141.128906 249.96875 139.417969 M 187.351562 119.042969 C 186.042969 120.75 183.988281 122.738281 183.589844 122.105469 C 183.03125 121.222656 181.300781 119.308594 180.375 118.621094 L 188.132812 95.886719 C 188.453125 95.085938 188.824219 94.652344 189.675781 94.652344 C 192.695312 94.652344 193.683594 99.902344 192.265625 106.441406 C 191.269531 111.023438 189.65625 115.992188 187.351562 119.042969 "/>
<path style=" stroke:none;fill-rule:nonzero;fill:rgb(33.333333%,14.509804%,50.980392%);fill-opacity:1;" d="M 93.105469 71.820312 C 91.527344 75.078125 89.449219 75.910156 87.113281 75.910156 L 86.457031 75.910156 L 90.574219 62.835938 C 90.769531 62.238281 91.203125 61.765625 91.742188 61.765625 C 92.257812 61.765625 92.191406 60.117188 91.519531 60.117188 L 85.027344 60.117188 C 84.476562 60.117188 84.28125 61.765625 84.796875 61.765625 C 85.351562 61.765625 85.449219 62.75 85.1875 63.582031 L 81.5 75.230469 C 81.25 75.859375 80.839844 76.023438 80.390625 76.21875 C 79.84375 76.441406 79.46875 78.011719 80.085938 78.011719 L 90.445312 78.011719 C 91.25 78.011719 91.4375 77.542969 91.648438 77.082031 L 93.734375 71.90625 C 94.03125 71.285156 93.402344 71.195312 93.101562 71.824219 M 124.3125 60.578125 C 123.996094 60.863281 123.253906 61 122.929688 60.566406 C 122.105469 59.46875 120.480469 58.621094 119.628906 58.621094 C 117.1875 58.621094 115.421875 59.394531 114.355469 63.089844 C 113.453125 66.246094 114.378906 68.882812 116.53125 70.476562 C 117.464844 71.171875 118.703125 72.078125 118.230469 73.875 C 117.882812 75.195312 116.925781 75.328125 116.066406 75.324219 C 114.910156 75.300781 113.167969 73.90625 112.902344 71.289062 C 112.808594 70.433594 112.191406 70.636719 112.011719 71.089844 L 110.535156 75.800781 C 110.304688 76.425781 110.914062 77.121094 111.15625 76.710938 C 111.652344 75.859375 112.734375 75.648438 113.265625 76.222656 C 114.003906 77.007812 115.898438 78.382812 117.015625 78.367188 C 119.492188 78.335938 121.128906 77.320312 122.484375 73.910156 C 123.722656 70.804688 122.960938 67.722656 120.703125 66.011719 C 119.507812 65.121094 118.484375 63.523438 119.019531 61.765625 C 119.371094 60.625 120.425781 60.867188 120.953125 61.011719 C 121.96875 61.289062 123.257812 62.8125 123.40625 64.148438 C 123.472656 64.71875 123.921875 64.835938 124.125 64.324219 L 124.902344 61.414062 C 125.082031 60.851562 124.507812 60.414062 124.3125 60.578125 M 196.203125 65.261719 L 197.109375 62.601562 C 197.503906 61.425781 196.859375 60.09375 195.824219 60.09375 L 183.726562 60.09375 C 182.859375 60.09375 183.105469 61.546875 183.460938 61.546875 C 184.242188 61.546875 184.46875 63.070312 184 64.359375 L 180.363281 75.082031 C 179.820312 76.113281 179.472656 76.554688 178.695312 76.554688 C 178.074219 76.554688 177.847656 78.015625 178.722656 78.015625 L 190.984375 78.015625 C 191.480469 78.015625 191.703125 77.730469 191.878906 77.332031 L 193.542969 73.78125 C 193.949219 72.929688 193.074219 72.929688 192.804688 73.351562 C 190.695312 76.746094 188.429688 76.65625 186.785156 76.65625 L 185.355469 76.65625 L 187.027344 70.640625 L 187.390625 70.640625 C 188.464844 70.640625 189.707031 70.617188 190.039062 71.9375 C 190.125 72.25 190.652344 72.5 190.867188 71.9375 L 192.296875 67.339844 C 192.53125 66.660156 191.890625 66.542969 191.710938 67.03125 C 191.148438 68.648438 188.660156 68.214844 188.011719 68.214844 L 187.648438 68.214844 L 189.742188 61.601562 L 192.070312 61.601562 C 193.519531 61.601562 194.765625 63.242188 195.175781 65.035156 C 195.273438 65.460938 196.046875 65.804688 196.203125 65.261719 M 165.253906 60.09375 L 160.949219 60.09375 C 160.074219 60.09375 160.335938 61.546875 160.6875 61.546875 C 161.609375 61.546875 162.445312 63.28125 161.941406 64.882812 L 160.15625 70.113281 L 156.226562 60.882812 C 155.964844 60.316406 155.347656 60.039062 154.8125 60.039062 L 150.574219 60.039062 C 149.707031 60.039062 149.90625 61.492188 150.261719 61.492188 C 151.160156 61.492188 150.929688 62.570312 150.707031 63.339844 L 147.328125 73.761719 C 147.113281 74.59375 146.199219 74.710938 145.90625 73.652344 L 143.300781 60 C 143.195312 59.460938 141.664062 59.492188 141.273438 60 L 134.730469 68.660156 L 131.332031 68.660156 C 130.664062 68.660156 130.394531 69.113281 130.394531 69.679688 C 130.394531 70.253906 130.652344 70.78125 131.359375 70.78125 L 133.132812 70.769531 L 131.359375 73.117188 C 130.378906 74.285156 129.371094 75.914062 128.691406 75.914062 L 128.285156 75.914062 C 127.644531 75.914062 127.277344 76.082031 127.277344 76.90625 C 127.277344 77.734375 127.550781 78.015625 128.15625 78.015625 L 133.4375 78.015625 C 134.433594 78.015625 134.238281 75.933594 133.742188 75.933594 C 133.191406 75.933594 132.289062 74.820312 133.128906 73.253906 L 134.742188 70.78125 L 137.917969 70.78125 C 139.800781 70.78125 141.121094 74.28125 139.996094 75.371094 L 139.128906 76.140625 C 138.71875 76.480469 138.539062 78.019531 139.128906 78.019531 L 149.445312 78.019531 C 150.214844 78.019531 150.054688 76.402344 149.699219 76.402344 C 148.648438 76.402344 149.144531 73.960938 149.347656 73.3125 L 152.058594 65.074219 L 155.867188 76.910156 C 156.113281 77.652344 156.339844 78.019531 156.785156 78.019531 L 158.246094 78.019531 C 158.707031 78.019531 158.863281 77.589844 159.074219 77.019531 L 163.40625 64.457031 C 164.109375 62.210938 164.644531 61.570312 165.523438 61.570312 C 165.878906 61.5625 166.128906 60.09375 165.25 60.09375 M 136.390625 68.65625 L 140.429688 63.378906 L 140.445312 68.65625 Z M 104.132812 59.308594 C 100.503906 59.308594 96.765625 62.175781 96.015625 68.28125 C 95.367188 73.597656 97.660156 79.105469 101.714844 79.105469 C 105.570312 79.105469 109.132812 75.058594 109.847656 69.195312 C 110.566406 63.304688 107.832031 59.308594 104.132812 59.308594 M 105.164062 70.503906 C 104.007812 74.179688 102.082031 76.375 100.851562 75.386719 C 99.628906 74.398438 99.570312 70.613281 100.722656 66.933594 C 101.867188 63.253906 103.796875 61.058594 105.023438 62.050781 C 106.25 63.039062 106.308594 66.820312 105.164062 70.503906 M 177.519531 68.21875 L 172.863281 68.21875 C 171.992188 68.21875 172.246094 69.679688 172.597656 69.679688 C 172.964844 69.679688 173.308594 69.988281 173.308594 70.933594 C 173.308594 73.953125 172.511719 75.117188 170.890625 75.117188 C 169.117188 75.117188 168.472656 71.660156 169.671875 67.429688 C 170.433594 64.722656 172.453125 62.1875 174.84375 62.1875 C 176.320312 62.1875 177.554688 62.699219 177.734375 64.90625 C 177.78125 65.449219 178.292969 65.449219 178.464844 64.933594 L 179.574219 61.753906 C 179.699219 61.414062 179.503906 61.011719 179.167969 60.976562 C 178.882812 60.945312 178.242188 61.535156 177.828125 61.039062 C 176.894531 59.925781 174.867188 58.84375 173.332031 58.84375 C 170.824219 58.84375 167.328125 59.753906 164.96875 66.328125 C 162.835938 72.273438 165.945312 78.554688 168.828125 78.5625 C 170.429688 78.570312 172.289062 76.667969 173.355469 75.945312 L 174.546875 77.246094 C 174.71875 77.582031 175.09375 78.011719 175.449219 78.011719 L 175.890625 78.011719 C 176.304688 78.011719 176.464844 77.117188 176.625 76.546875 L 178.449219 69.441406 C 178.683594 68.730469 178.554688 68.21875 177.519531 68.21875 M 241.394531 60.578125 C 241.082031 60.863281 240.335938 61 240.015625 60.566406 C 239.191406 59.46875 237.566406 58.621094 236.714844 58.621094 C 234.277344 58.621094 232.503906 59.394531 231.441406 63.089844 C 230.53125 66.246094 231.464844 68.882812 233.617188 70.476562 C 234.554688 71.171875 235.792969 72.078125 235.320312 73.875 C 234.96875 75.195312 234.007812 75.328125 233.144531 75.324219 C 231.996094 75.300781 230.253906 73.90625 229.980469 71.289062 C 229.894531 70.433594 229.273438 70.636719 229.101562 71.089844 L 227.621094 75.800781 C 227.386719 76.425781 227.996094 77.121094 228.238281 76.710938 C 228.738281 75.859375 229.820312 75.648438 230.359375 76.222656 C 231.089844 77.007812 232.972656 78.382812 234.109375 78.367188 C 236.574219 78.335938 238.214844 77.320312 239.5625 73.910156 C 240.804688 70.804688 240.042969 67.722656 237.785156 66.011719 C 236.585938 65.121094 235.566406 63.523438 236.105469 61.765625 C 236.445312 60.625 237.515625 60.867188 238.046875 61.011719 C 239.046875 61.289062 240.347656 62.8125 240.492188 64.148438 C 240.558594 64.71875 241.007812 64.835938 241.207031 64.324219 L 241.984375 61.414062 C 242.15625 60.851562 241.589844 60.414062 241.394531 60.578125 M 208.972656 71.820312 C 207.410156 75.078125 205.320312 75.910156 202.980469 75.910156 L 202.324219 75.910156 L 206.449219 62.835938 C 206.644531 62.238281 207.074219 61.765625 207.613281 61.765625 C 208.128906 61.765625 208.066406 60.117188 207.386719 60.117188 L 200.898438 60.117188 C 200.347656 60.117188 200.152344 61.765625 200.667969 61.765625 C 201.222656 61.765625 201.324219 62.75 201.054688 63.582031 L 197.371094 75.230469 C 197.117188 75.859375 196.714844 76.023438 196.261719 76.21875 C 195.710938 76.441406 195.339844 78.011719 195.960938 78.011719 L 206.320312 78.011719 C 207.121094 78.011719 207.3125 77.542969 207.523438 77.082031 L 209.601562 71.90625 C 209.910156 71.285156 209.277344 71.195312 208.972656 71.824219 M 224.601562 61.601562 C 226.042969 61.601562 227.296875 63.238281 227.703125 65.03125 C 227.796875 65.460938 228.570312 65.804688 228.734375 65.261719 L 229.636719 62.601562 C 230.023438 61.425781 229.378906 60.09375 228.347656 60.09375 L 216.253906 60.09375 C 215.378906 60.09375 215.632812 61.546875 215.988281 61.546875 C 216.769531 61.546875 217.003906 63.070312 216.527344 64.359375 L 212.894531 75.082031 C 212.351562 76.113281 211.996094 76.554688 211.222656 76.554688 C 210.601562 76.554688 210.378906 78.015625 211.257812 78.015625 L 223.511719 78.015625 C 224.007812 78.015625 224.230469 77.730469 224.40625 77.332031 L 226.074219 73.78125 C 226.480469 72.929688 225.601562 72.929688 225.332031 73.351562 C 223.21875 76.746094 220.949219 76.65625 219.308594 76.65625 L 217.878906 76.65625 L 219.558594 70.640625 L 219.917969 70.640625 C 220.992188 70.640625 222.238281 70.617188 222.5625 71.9375 C 222.648438 72.25 223.179688 72.5 223.394531 71.9375 L 224.824219 67.339844 C 225.058594 66.660156 224.414062 66.542969 224.242188 67.03125 C 223.671875 68.648438 221.191406 68.214844 220.535156 68.214844 L 220.179688 68.214844 L 222.273438 61.601562 Z M 224.601562 61.601562 "/>
<g clip-path="url(#clip1)" clip-rule="nonzero">
<g clip-path="url(#clip2)" clip-rule="nonzero">
<path style=" stroke:none;fill-rule:nonzero;fill:rgb(33.333333%,14.509804%,50.980392%);fill-opacity:1;" d="M 152.191406 137.449219 C 145.1875 151.078125 141.214844 155.746094 134.097656 155.746094 C 131.675781 155.746094 130.414062 154.871094 131.097656 152.988281 L 139.535156 125.773438 L 142.753906 125.773438 C 146.347656 125.773438 145.851562 130.628906 144.871094 137.199219 C 144.699219 138.117188 145.132812 138.167969 145.558594 137.371094 L 153.582031 114.761719 C 153.976562 113.335938 152.960938 113.058594 152.464844 114.136719 C 148.449219 122.882812 144.21875 122.234375 142.433594 122.234375 L 140.980469 122.234375 L 149.996094 94.648438 L 153.628906 94.648438 C 158.207031 95.101562 160.335938 101.335938 159.011719 116.359375 L 160.917969 116.359375 L 167.542969 95.414062 C 168.078125 93.644531 166.949219 92.019531 165.699219 92.019531 L 120.726562 92.042969 C 118.121094 92.042969 118.003906 95.246094 120.503906 95.246094 C 122.527344 95.246094 122.417969 99.902344 120.601562 102.152344 L 101.507812 126.460938 L 105.367188 155.164062 C 105.648438 157.332031 106.519531 158.363281 108.007812 158.363281 L 145.199219 158.363281 C 146.730469 158.363281 147.367188 157.363281 147.859375 156.339844 L 154.59375 137.6875 C 155.523438 135.003906 153.363281 135.179688 152.191406 137.449219 M 126.285156 124.34375 L 123.011719 124.316406 C 122.902344 124.3125 122.796875 124.382812 122.71875 124.507812 C 122.640625 124.628906 122.597656 124.796875 122.597656 124.972656 C 122.597656 125.339844 122.785156 125.636719 123.011719 125.636719 L 126.328125 125.585938 C 127.453125 125.585938 128.484375 125.816406 128.195312 126.617188 L 119.597656 152.949219 C 118.53125 156.085938 116.269531 155.285156 115.910156 152.773438 L 111.652344 117.484375 L 126.628906 98.863281 C 128.113281 96.8125 130.980469 93.472656 132.441406 93.511719 L 135.703125 93.480469 C 137.6875 93.460938 138.398438 94.949219 137.925781 96.878906 L 137.351562 98.660156 C 136.976562 99.660156 135.804688 99.78125 134.804688 99.78125 L 132.921875 99.796875 C 132.8125 99.792969 132.703125 99.863281 132.625 99.988281 C 132.546875 100.113281 132.503906 100.285156 132.503906 100.464844 C 132.503906 100.835938 132.6875 101.128906 132.921875 101.128906 L 134.777344 101.128906 C 135.582031 101.128906 136.589844 101.160156 136.21875 102.128906 L 129.273438 123.367188 C 128.953125 124.195312 127.507812 124.34375 126.285156 124.34375 "/>
</g>
</g>
<g clip-path="url(#clip3)" clip-rule="nonzero">
<g clip-path="url(#clip4)" clip-rule="nonzero">
<path style=" stroke:none;fill-rule:nonzero;fill:rgb(33.333333%,14.509804%,50.980392%);fill-opacity:1;" d="M 95.414062 155.15625 C 94.554688 155.121094 93.800781 154.230469 93.53125 152.925781 C 93.210938 151.394531 93.238281 148.667969 93.625 147.464844 L 110.976562 98.121094 C 111.257812 97.210938 111.960938 95.308594 112.824219 95.308594 C 114.355469 95.3125 115.019531 92.078125 112.421875 92.078125 L 98.523438 92.078125 C 95.925781 92.078125 95.902344 95.25 98.390625 95.25 C 99.40625 95.25 99.808594 96.847656 99.519531 97.820312 L 95.683594 108.980469 C 95.203125 110.203125 94.140625 110.296875 93.019531 110.296875 L 89.707031 110.277344 C 89.476562 110.277344 89.289062 110.578125 89.289062 110.949219 C 89.289062 111.320312 89.476562 111.621094 89.707031 111.621094 L 92.992188 111.621094 C 93.878906 111.621094 94.585938 112.050781 94.074219 113.703125 L 81.265625 151.113281 C 80.34375 153.175781 78.507812 153.632812 78.609375 149.6875 L 83.164062 94.894531 C 83.347656 93.183594 83.066406 92.023438 81.921875 92.023438 L 75.058594 92.042969 C 74.234375 92.042969 73.730469 92.683594 73.335938 93.535156 L 70.882812 98.484375 C 70.558594 98.996094 69.871094 98.992188 69.105469 98.992188 L 63.339844 98.976562 C 63.230469 98.976562 63.125 99.046875 63.046875 99.171875 C 62.96875 99.296875 62.925781 99.464844 62.925781 99.640625 C 62.925781 100.015625 63.109375 100.316406 63.339844 100.316406 L 68.046875 100.316406 C 68.882812 100.316406 69.859375 100.625 69.503906 101.257812 L 62.898438 114.585938 C 62.699219 114.949219 62.058594 115.050781 61.664062 115.050781 L 59.796875 115.046875 C 59.566406 115.046875 59.378906 115.34375 59.378906 115.710938 C 59.378906 116.074219 59.566406 116.375 59.796875 116.375 L 61.355469 116.382812 C 61.839844 116.382812 61.839844 116.761719 61.648438 117.113281 L 55.433594 129.625 C 55.117188 130.105469 54.496094 130.207031 53.894531 130.207031 L 48.40625 130.199219 C 48.179688 130.199219 47.992188 130.496094 47.992188 130.863281 C 47.992188 131.234375 48.179688 131.53125 48.40625 131.53125 L 53.113281 131.53125 C 53.828125 131.53125 54.378906 131.734375 54.003906 132.507812 L 45.175781 150.265625 C 43.515625 153.652344 35.527344 155.378906 33.972656 155.378906 L 63.824219 65.804688 C 64.109375 64.777344 65.21875 63.203125 66.363281 63.203125 L 72.703125 63.203125 C 75.695312 63.203125 75.605469 60.011719 73.007812 60.011719 L 41.140625 60.011719 C 38.546875 60.011719 38.441406 63.203125 41.425781 63.203125 L 47.328125 63.203125 C 49.003906 63.203125 49.542969 64.828125 49.113281 66.15625 L 48.265625 68.621094 C 47.988281 69.417969 47.589844 69.738281 45.972656 69.738281 L 35.542969 69.730469 C 35.316406 69.730469 35.128906 70.027344 35.128906 70.394531 C 35.128906 70.761719 35.316406 71.058594 35.542969 71.058594 L 45.945312 71.066406 C 46.511719 71.066406 47.355469 71.300781 46.824219 72.929688 L 45.363281 77.269531 C 45.113281 77.929688 44.476562 78.242188 43.742188 78.242188 L 39.019531 78.226562 C 38.789062 78.226562 38.601562 78.527344 38.601562 78.894531 C 38.601562 79.265625 38.789062 79.5625 39.019531 79.5625 L 43.71875 79.574219 C 44.394531 79.574219 44.410156 80.277344 44.023438 81.277344 L 40.664062 91.285156 C 40.375 92.140625 39.832031 92.253906 38.765625 92.253906 L 36.882812 92.238281 C 36.664062 92.261719 36.492188 92.554688 36.492188 92.90625 C 36.492188 93.257812 36.664062 93.550781 36.882812 93.574219 L 38.738281 93.578125 C 39.445312 93.578125 39.632812 94.210938 39.316406 95.292969 L 36.558594 103.511719 C 36.148438 104.679688 35.5625 105.144531 33.730469 105.144531 L 23.300781 105.132812 C 23.082031 105.152344 22.910156 105.445312 22.910156 105.800781 C 22.910156 106.152344 23.082031 106.445312 23.300781 106.46875 L 33.699219 106.472656 C 34.875 106.503906 35.308594 107.328125 34.851562 108.679688 L 29.464844 124.898438 C 29.144531 125.617188 28.269531 125.726562 26.769531 125.726562 L 16.34375 125.707031 C 16.121094 125.722656 15.945312 126.015625 15.945312 126.371094 C 15.945312 126.726562 16.121094 127.019531 16.34375 127.035156 L 26.746094 127.042969 C 27.988281 127.042969 28.75 127.128906 28.371094 128.179688 L 25.273438 137.535156 C 24.703125 138.960938 23.105469 138.960938 22.480469 138.960938 L 19.171875 138.945312 C 18.945312 138.945312 18.757812 139.242188 18.757812 139.613281 C 18.757812 139.980469 18.945312 140.28125 19.171875 140.28125 L 22.453125 140.285156 C 23.613281 140.285156 24.222656 140.605469 23.921875 141.601562 L 19.777344 154.089844 C 19.402344 155.203125 17.785156 155.257812 16.535156 155.257812 L 0.417969 155.234375 C 0.1875 155.238281 0 155.539062 0 155.90625 C 0 156.265625 0.191406 156.574219 0.417969 156.574219 L 16.511719 156.578125 C 17.582031 156.578125 18.925781 156.789062 18.425781 158.15625 L 15.789062 166.125 C 15.539062 166.785156 14.636719 166.839844 13.335938 166.839844 L 10.03125 166.832031 C 9.800781 166.832031 9.617188 167.128906 9.617188 167.496094 C 9.617188 167.863281 9.800781 168.160156 10.03125 168.160156 L 13.3125 168.160156 C 14.109375 168.160156 15.089844 168.308594 14.746094 169.28125 L 13.089844 174.371094 C 12.558594 175.640625 12.027344 176.765625 10.746094 176.765625 L 2.660156 176.765625 C -0.332031 176.765625 -0.226562 179.957031 2.371094 179.957031 L 49.867188 180.003906 C 51.257812 180.003906 51.300781 179.707031 51.957031 178.0625 L 59 158.367188 L 95.003906 158.375 C 97.605469 158.382812 96.9375 155.238281 95.414062 155.15625 M 67.171875 149.292969 C 66.820312 152.542969 64.78125 154.6875 62.214844 155.78125 L 59.570312 156.832031 L 61.746094 150.558594 C 62.316406 148.851562 61.0625 147.847656 59.695312 150.386719 C 50.503906 167.566406 47.566406 175.78125 33.390625 175.84375 L 29.578125 175.855469 C 28.425781 175.855469 27.160156 175.132812 27.945312 173.367188 L 32.957031 158.378906 L 52.011719 158.382812 C 54.613281 158.382812 53.945312 155.238281 52.417969 155.160156 C 51.410156 155.105469 50.308594 154.175781 49.527344 152.199219 C 49.308594 151.652344 48.835938 149.476562 49.578125 147.800781 L 56.875 132.246094 L 69.003906 132.246094 Z M 69.914062 129.628906 L 58.085938 129.628906 L 73.050781 97.96875 Z M 69.914062 129.628906 "/>
</g>
</g>
<g clip-path="url(#clip5)" clip-rule="nonzero">
<g clip-path="url(#clip6)" clip-rule="nonzero">
<path style=" stroke:none;fill-rule:nonzero;fill:rgb(33.333333%,14.509804%,50.980392%);fill-opacity:1;" d="M 249.96875 139.417969 C 249.773438 137.855469 249.421875 138.804688 248.777344 140.777344 C 248.582031 141.371094 247.957031 141.390625 247.332031 141.390625 L 245.433594 141.402344 C 245.320312 141.402344 245.214844 141.472656 245.136719 141.597656 C 245.058594 141.726562 245.011719 141.898438 245.011719 142.078125 C 245.011719 142.433594 245.203125 142.730469 245.433594 142.730469 L 247.308594 142.730469 C 248.011719 142.730469 248.027344 143.492188 247.695312 144.636719 C 246.382812 149.113281 245.035156 152.113281 243.242188 155.707031 C 242.960938 156.269531 242.238281 156.765625 241.667969 156.765625 L 239.753906 156.78125 C 239.644531 156.78125 239.539062 156.855469 239.460938 156.980469 C 239.382812 157.105469 239.339844 157.273438 239.339844 157.453125 C 239.339844 157.816406 239.523438 158.117188 239.753906 158.117188 L 241.628906 158.117188 C 242.570312 158.117188 241.613281 159.042969 241.457031 159.382812 C 238.132812 166.492188 235.84375 169.664062 233.40625 172.847656 C 233.117188 173.21875 231.742188 173.082031 230.777344 173.074219 L 228.890625 173.082031 C 228.660156 173.082031 228.46875 173.386719 228.46875 173.757812 C 228.46875 174.128906 228.660156 174.433594 228.890625 174.433594 L 230.753906 174.433594 C 232.175781 174.433594 231.105469 175.742188 230.894531 176.019531 C 225.714844 182.941406 218.007812 185.164062 214.476562 184.457031 C 203.03125 182.15625 200.667969 168.21875 199.820312 162.648438 C 199.648438 161.480469 199.097656 159.089844 198.914062 157.617188 C 198.5625 154.707031 203.726562 153.878906 205.15625 155.410156 C 207.3125 157.730469 212.363281 160.113281 216.332031 160.132812 C 220.003906 160.15625 227.519531 155.875 229.695312 145.761719 C 231.921875 135.417969 226.332031 123.929688 223.855469 119.96875 C 220.707031 114.910156 217.722656 106.863281 218.984375 100.953125 C 219.925781 96.496094 221.507812 94.476562 224.898438 94.476562 C 229.28125 94.476562 232.464844 98.992188 232.464844 105.402344 C 232.464844 105.976562 232.25 106.652344 231.960938 106.652344 L 230.414062 106.664062 C 230.183594 106.664062 229.996094 106.964844 229.996094 107.335938 C 229.996094 107.707031 230.183594 108.007812 230.414062 108.007812 L 231.863281 108 C 232.277344 108 232.535156 108.5 232.425781 109.304688 C 232.144531 111.445312 232.050781 112.953125 231.761719 115.101562 C 231.585938 116.347656 232.726562 117.210938 233.121094 116.304688 L 240.007812 96.589844 C 240.507812 95.101562 239.398438 94.703125 238.582031 95.164062 C 236.695312 96.207031 233.628906 96.9375 232.542969 95.683594 C 229.96875 92.71875 227.621094 90.824219 224.03125 90.824219 C 217.90625 90.824219 213.621094 93.234375 210.871094 101.3125 C 210.660156 101.945312 210.058594 101.9375 209.542969 101.9375 L 208.367188 101.9375 C 208.140625 101.9375 207.953125 102.234375 207.953125 102.601562 C 207.953125 102.96875 208.140625 103.265625 208.367188 103.265625 L 209.367188 103.25 C 209.796875 103.25 210.082031 103.445312 209.867188 104.242188 C 209.679688 104.972656 209.507812 105.730469 209.351562 106.523438 C 208.65625 110.023438 208.882812 114.933594 209.972656 119.300781 C 210.042969 119.59375 209.808594 119.730469 209.386719 119.730469 L 207.515625 119.730469 C 207.40625 119.730469 207.300781 119.800781 207.222656 119.925781 C 207.140625 120.054688 207.097656 120.226562 207.097656 120.402344 C 207.097656 120.773438 207.285156 121.066406 207.515625 121.066406 L 209.386719 121.066406 C 210.234375 121.074219 210.441406 121.214844 210.789062 122.007812 C 211.757812 124.1875 212.746094 125.804688 213.988281 128.347656 C 214.382812 129.136719 212.710938 129.359375 211.824219 129.351562 L 204.40625 129.347656 C 204.292969 129.347656 204.1875 129.417969 204.109375 129.542969 C 204.03125 129.667969 203.988281 129.839844 203.992188 130.019531 C 203.992188 130.382812 204.167969 130.683594 204.40625 130.683594 L 211.914062 130.667969 C 213.121094 130.667969 215.195312 130.644531 215.425781 131.066406 C 217.242188 134.433594 219.4375 139.613281 219.816406 143.96875 C 219.921875 145.230469 219.628906 145.757812 218.660156 145.757812 L 217.652344 145.757812 C 217.542969 145.757812 217.4375 145.828125 217.359375 145.953125 C 217.28125 146.078125 217.238281 146.246094 217.238281 146.425781 C 217.238281 146.792969 217.425781 147.085938 217.652344 147.085938 L 218.542969 147.085938 C 219.308594 147.085938 219.726562 147.292969 219.546875 148.210938 C 218.570312 153.199219 217.113281 156.8125 211.167969 156.761719 C 204.933594 156.703125 203.664062 146.902344 205.488281 136.679688 C 205.847656 134.652344 205.472656 133.769531 204.902344 135.375 L 200.5625 146.304688 C 200.457031 146.5625 200.039062 147.1875 199.375 147.1875 L 198.765625 147.183594 C 198.535156 147.183594 198.347656 147.480469 198.347656 147.847656 C 198.347656 148.214844 198.535156 148.515625 198.765625 148.515625 C 199.3125 148.515625 199.527344 148.988281 199.3125 149.476562 L 197.730469 153.453125 C 195.101562 143.835938 190.710938 131.992188 188.367188 127.679688 L 188.410156 127.472656 C 194.191406 126.910156 202.71875 118.226562 204.117188 110.460938 C 206.539062 96.996094 198.382812 92.019531 193.933594 92.019531 L 174.390625 92.023438 C 171.792969 92.023438 171.605469 95.183594 174.09375 95.183594 C 175.441406 95.183594 176.617188 97.070312 176.027344 98.984375 L 171.699219 111.492188 C 171.339844 112.519531 169.992188 112.457031 168.25 112.457031 L 166.355469 112.457031 C 166.125 112.457031 165.9375 112.757812 165.9375 113.128906 C 165.9375 113.5 166.125 113.796875 166.355469 113.796875 L 168.21875 113.796875 C 169.464844 113.796875 170.839844 113.914062 170.371094 115.347656 L 165.253906 130.160156 C 165.007812 130.847656 164.34375 130.90625 162.605469 130.90625 L 160.71875 130.910156 C 160.484375 130.914062 160.296875 131.21875 160.296875 131.59375 C 160.296875 131.945312 160.484375 132.257812 160.71875 132.257812 L 162.558594 132.257812 C 163.933594 132.257812 164.445312 132.550781 164.050781 133.683594 L 157.214844 153.515625 C 156.398438 154.9375 155.425781 155.207031 153.757812 155.207031 C 151.265625 155.207031 151.289062 158.375 153.890625 158.375 L 170.625 158.375 C 173.226562 158.375 172.566406 155.152344 171.027344 155.152344 C 170.132812 155.152344 169.175781 152.496094 169.78125 150.90625 L 178.324219 124.953125 L 179.191406 124.953125 C 182.992188 124.953125 183.910156 134.949219 184.621094 145.863281 C 184.675781 146.648438 183.75 146.679688 181.851562 146.679688 L 177.105469 146.703125 C 176.996094 146.703125 176.890625 146.773438 176.8125 146.898438 C 176.730469 147.023438 176.6875 147.191406 176.6875 147.371094 C 176.691406 147.738281 176.875 148.035156 177.105469 148.039062 L 181.800781 148.039062 C 183.050781 148.039062 184.792969 148.058594 184.839844 148.691406 C 185.164062 153.488281 185.410156 157.699219 185.988281 161.542969 C 186.164062 162.738281 184.832031 162.550781 183.40625 162.550781 L 177.355469 162.558594 C 177.128906 162.5625 176.941406 162.855469 176.9375 163.222656 C 176.9375 163.601562 177.125 163.898438 177.355469 163.898438 L 183.402344 163.910156 C 185.300781 163.910156 186.28125 163.910156 186.390625 164.53125 C 188.988281 179.839844 200.15625 191.894531 211.007812 191.230469 C 220.324219 190.664062 228.195312 182.535156 232.21875 177.355469 C 237.585938 170.460938 245.453125 156.019531 248.660156 145.523438 C 249.238281 143.597656 250.1875 141.128906 249.96875 139.417969 M 187.351562 119.042969 C 186.042969 120.75 183.988281 122.734375 183.589844 122.105469 C 183.03125 121.222656 181.300781 119.308594 180.375 118.621094 L 188.132812 95.886719 C 188.453125 95.085938 188.824219 94.652344 189.675781 94.652344 C 192.695312 94.652344 193.683594 99.902344 192.265625 106.441406 C 191.269531 111.023438 189.65625 115.992188 187.351562 119.042969 "/>
</g>
</g>
<g clip-path="url(#clip7)" clip-rule="nonzero">
<g clip-path="url(#clip8)" clip-rule="nonzero">
<path style=" stroke:none;fill-rule:nonzero;fill:rgb(33.333333%,14.509804%,50.980392%);fill-opacity:1;" d="M 93.101562 71.820312 C 91.527344 75.078125 89.449219 75.910156 87.113281 75.910156 L 86.457031 75.910156 L 90.574219 62.835938 C 90.769531 62.234375 91.203125 61.765625 91.742188 61.765625 C 92.257812 61.765625 92.191406 60.117188 91.519531 60.117188 L 85.027344 60.117188 C 84.476562 60.117188 84.28125 61.765625 84.796875 61.765625 C 85.351562 61.765625 85.449219 62.75 85.1875 63.582031 L 81.5 75.230469 C 81.25 75.855469 80.839844 76.023438 80.390625 76.21875 C 79.84375 76.441406 79.46875 78.011719 80.085938 78.011719 L 90.449219 78.011719 C 91.25 78.011719 91.4375 77.542969 91.648438 77.082031 L 93.734375 71.90625 C 94.03125 71.285156 93.402344 71.195312 93.101562 71.820312 "/>
</g>
</g>
<g clip-path="url(#clip9)" clip-rule="nonzero">
<g clip-path="url(#clip10)" clip-rule="nonzero">
<path style=" stroke:none;fill-rule:nonzero;fill:rgb(33.333333%,14.509804%,50.980392%);fill-opacity:1;" d="M 124.3125 60.578125 C 123.996094 60.863281 123.253906 61.003906 122.929688 60.566406 C 122.105469 59.46875 120.480469 58.621094 119.628906 58.621094 C 117.1875 58.621094 115.421875 59.394531 114.355469 63.089844 C 113.453125 66.246094 114.378906 68.882812 116.53125 70.476562 C 117.464844 71.171875 118.703125 72.078125 118.230469 73.871094 C 117.882812 75.195312 116.925781 75.328125 116.066406 75.324219 C 114.910156 75.300781 113.167969 73.90625 112.902344 71.289062 C 112.808594 70.433594 112.191406 70.636719 112.011719 71.089844 L 110.535156 75.800781 C 110.304688 76.425781 110.914062 77.121094 111.15625 76.710938 C 111.652344 75.855469 112.734375 75.648438 113.265625 76.222656 C 114.003906 77.007812 115.898438 78.382812 117.015625 78.367188 C 119.492188 78.335938 121.128906 77.320312 122.484375 73.910156 C 123.722656 70.804688 122.960938 67.722656 120.699219 66.011719 C 119.507812 65.117188 118.484375 63.523438 119.015625 61.765625 C 119.371094 60.625 120.425781 60.871094 120.953125 61.011719 C 121.964844 61.289062 123.257812 62.8125 123.40625 64.148438 C 123.472656 64.71875 123.921875 64.835938 124.125 64.324219 L 124.902344 61.414062 C 125.082031 60.851562 124.507812 60.414062 124.3125 60.578125 "/>
</g>
</g>
<g clip-path="url(#clip11)" clip-rule="nonzero">
<g clip-path="url(#clip12)" clip-rule="nonzero">
<path style=" stroke:none;fill-rule:nonzero;fill:rgb(33.333333%,14.509804%,50.980392%);fill-opacity:1;" d="M 196.203125 65.261719 L 197.109375 62.597656 C 197.503906 61.425781 196.859375 60.09375 195.824219 60.09375 L 183.726562 60.09375 C 182.859375 60.09375 183.105469 61.546875 183.460938 61.546875 C 184.238281 61.546875 184.46875 63.070312 184 64.359375 L 180.363281 75.082031 C 179.820312 76.113281 179.472656 76.554688 178.695312 76.554688 C 178.074219 76.554688 177.847656 78.011719 178.722656 78.011719 L 190.984375 78.011719 C 191.480469 78.011719 191.703125 77.730469 191.878906 77.328125 L 193.542969 73.78125 C 193.949219 72.929688 193.074219 72.929688 192.804688 73.351562 C 190.695312 76.746094 188.425781 76.65625 186.785156 76.65625 L 185.355469 76.65625 L 187.027344 70.640625 L 187.390625 70.640625 C 188.464844 70.640625 189.707031 70.617188 190.039062 71.9375 C 190.125 72.25 190.652344 72.5 190.867188 71.9375 L 192.296875 67.339844 C 192.53125 66.660156 191.890625 66.542969 191.710938 67.03125 C 191.148438 68.648438 188.660156 68.214844 188.011719 68.214844 L 187.648438 68.214844 L 189.742188 61.601562 L 192.070312 61.601562 C 193.519531 61.601562 194.765625 63.242188 195.175781 65.035156 C 195.273438 65.460938 196.046875 65.804688 196.203125 65.261719 "/>
</g>
</g>
<g clip-path="url(#clip13)" clip-rule="nonzero">
<g clip-path="url(#clip14)" clip-rule="nonzero">
<path style=" stroke:none;fill-rule:nonzero;fill:rgb(33.333333%,14.509804%,50.980392%);fill-opacity:1;" d="M 165.25 60.09375 L 160.949219 60.09375 C 160.074219 60.09375 160.335938 61.546875 160.6875 61.546875 C 161.609375 61.546875 162.445312 63.28125 161.941406 64.882812 L 160.15625 70.113281 L 156.226562 60.882812 C 155.964844 60.316406 155.347656 60.039062 154.8125 60.039062 L 150.574219 60.039062 C 149.707031 60.039062 149.90625 61.492188 150.261719 61.492188 C 151.160156 61.492188 150.929688 62.570312 150.707031 63.339844 L 147.328125 73.761719 C 147.113281 74.59375 146.199219 74.707031 145.90625 73.652344 L 143.300781 60 C 143.191406 59.460938 141.664062 59.492188 141.273438 60 L 134.730469 68.660156 L 131.332031 68.660156 C 130.664062 68.660156 130.394531 69.113281 130.394531 69.679688 C 130.394531 70.253906 130.652344 70.78125 131.359375 70.78125 L 133.128906 70.769531 L 131.359375 73.117188 C 130.378906 74.285156 129.371094 75.914062 128.691406 75.914062 L 128.285156 75.914062 C 127.640625 75.914062 127.277344 76.082031 127.277344 76.90625 C 127.277344 77.734375 127.550781 78.015625 128.15625 78.015625 L 133.4375 78.015625 C 134.433594 78.015625 134.238281 75.933594 133.742188 75.933594 C 133.191406 75.933594 132.289062 74.820312 133.128906 73.253906 L 134.742188 70.78125 L 137.917969 70.78125 C 139.800781 70.78125 141.121094 74.28125 139.996094 75.371094 L 139.128906 76.140625 C 138.71875 76.480469 138.539062 78.019531 139.128906 78.019531 L 149.441406 78.019531 C 150.214844 78.019531 150.054688 76.402344 149.699219 76.402344 C 148.644531 76.402344 149.144531 73.957031 149.347656 73.308594 L 152.058594 65.074219 L 155.867188 76.910156 C 156.113281 77.652344 156.339844 78.019531 156.785156 78.019531 L 158.246094 78.019531 C 158.703125 78.019531 158.863281 77.589844 159.074219 77.019531 L 163.40625 64.457031 C 164.109375 62.210938 164.644531 61.570312 165.523438 61.570312 C 165.878906 61.5625 166.128906 60.09375 165.25 60.09375 M 136.390625 68.65625 L 140.425781 63.378906 L 140.445312 68.65625 Z M 136.390625 68.65625 "/>
</g>
</g>
<g clip-path="url(#clip15)" clip-rule="nonzero">
<g clip-path="url(#clip16)" clip-rule="nonzero">
<path style=" stroke:none;fill-rule:nonzero;fill:rgb(33.333333%,14.509804%,50.980392%);fill-opacity:1;" d="M 104.132812 59.308594 C 100.5 59.308594 96.765625 62.175781 96.015625 68.28125 C 95.367188 73.597656 97.660156 79.105469 101.714844 79.105469 C 105.570312 79.105469 109.132812 75.054688 109.847656 69.195312 C 110.566406 63.304688 107.832031 59.308594 104.132812 59.308594 M 105.160156 70.503906 C 104.007812 74.179688 102.082031 76.375 100.851562 75.386719 C 99.628906 74.398438 99.570312 70.613281 100.722656 66.933594 C 101.867188 63.253906 103.796875 61.058594 105.023438 62.050781 C 106.25 63.039062 106.308594 66.824219 105.160156 70.503906 "/>
</g>
</g>
<g clip-path="url(#clip17)" clip-rule="nonzero">
<g clip-path="url(#clip18)" clip-rule="nonzero">
<path style=" stroke:none;fill-rule:nonzero;fill:rgb(33.333333%,14.509804%,50.980392%);fill-opacity:1;" d="M 177.519531 68.21875 L 172.863281 68.21875 C 171.992188 68.21875 172.246094 69.679688 172.597656 69.679688 C 172.964844 69.679688 173.308594 69.988281 173.308594 70.933594 C 173.308594 73.953125 172.511719 75.113281 170.886719 75.113281 C 169.117188 75.113281 168.472656 71.660156 169.671875 67.425781 C 170.433594 64.71875 172.453125 62.1875 174.84375 62.1875 C 176.320312 62.1875 177.554688 62.699219 177.734375 64.90625 C 177.78125 65.449219 178.292969 65.449219 178.464844 64.933594 L 179.574219 61.753906 C 179.699219 61.414062 179.503906 61.011719 179.167969 60.976562 C 178.882812 60.945312 178.242188 61.535156 177.828125 61.039062 C 176.894531 59.925781 174.863281 58.84375 173.328125 58.84375 C 170.824219 58.84375 167.328125 59.75 164.96875 66.328125 C 162.835938 72.273438 165.945312 78.554688 168.828125 78.5625 C 170.429688 78.570312 172.289062 76.667969 173.355469 75.945312 L 174.546875 77.246094 C 174.71875 77.582031 175.09375 78.011719 175.449219 78.011719 L 175.890625 78.011719 C 176.304688 78.011719 176.464844 77.117188 176.625 76.546875 L 178.449219 69.441406 C 178.6875 68.730469 178.554688 68.21875 177.519531 68.21875 "/>
</g>
</g>
<path style=" stroke:none;fill-rule:nonzero;fill:rgb(13.72549%,12.156863%,12.54902%);fill-opacity:1;" d="M 176.957031 45.902344 C 176.023438 44.183594 174.742188 40.527344 165.519531 27.636719 C 151.945312 8.671875 133.96875 0.0195312 117.082031 0.0195312 C 104.640625 0.0195312 93.742188 4.503906 81.675781 15.152344 C 66.304688 28.722656 59.933594 44.320312 58.363281 47.496094 C 57.195312 49.828125 57.03125 51.191406 57.785156 51.894531 C 58.320312 52.382812 59.355469 50.570312 60.324219 48.523438 C 64.898438 38.839844 70.910156 29.230469 77.242188 23.582031 C 79.207031 24.039062 81.964844 28.441406 83.03125 30.769531 C 78.988281 34.308594 72.273438 42.511719 69.730469 45.671875 C 67.535156 48.394531 66.777344 49.925781 67.371094 51.035156 C 67.867188 51.953125 69.542969 50.144531 70.953125 48.300781 C 73.382812 45.097656 80.605469 36.886719 84.179688 33.800781 C 86.617188 38.367188 85.832031 46.804688 84.972656 48.640625 C 84.507812 49.621094 84.4375 50.667969 84.972656 51.152344 C 85.46875 51.605469 86.015625 50.445312 86.722656 48.804688 C 88.378906 44.964844 87.714844 35.667969 86.292969 32.316406 C 90.652344 27.972656 96.914062 25.070312 100.707031 23.699219 C 101.027344 24.671875 105.628906 46.207031 106.503906 50.117188 C 106.976562 52.257812 107.453125 54.820312 108.429688 54.339844 C 109.082031 54.027344 108.652344 51.675781 108.109375 49.324219 C 107.4375 46.402344 103.957031 28.3125 102.890625 22.957031 C 104.140625 21.867188 111.691406 19.410156 113.582031 19.535156 C 112.65625 27.40625 116.132812 30.632812 120.054688 34.769531 C 122.144531 36.96875 135.414062 49.195312 138.191406 51.941406 C 139.769531 53.515625 141 54.511719 141.335938 53.773438 C 141.726562 52.925781 140.652344 51.148438 139.191406 49.777344 C 138.023438 48.683594 125.679688 37.199219 120.519531 31.972656 C 116.828125 28.230469 114.839844 24.222656 115.722656 18.957031 C 116.941406 18.390625 120.660156 18.34375 124.527344 18.390625 C 150.847656 18.730469 171.953125 42.925781 174.3125 46.804688 C 175.507812 48.773438 177.171875 50.460938 177.816406 49.664062 C 178.222656 49.164062 177.519531 46.9375 176.957031 45.902344 M 85.183594 29.230469 C 84.476562 27.332031 81.128906 22.433594 79.320312 21.472656 C 83.542969 16.449219 93.339844 9.269531 97.058594 8.003906 C 97.699219 9.714844 99.417969 17.023438 99.988281 20.105469 C 96.703125 21.246094 87.972656 26.261719 85.183594 29.230469 M 113.933594 15.648438 C 110.507812 15.996094 104.28125 18.160156 102.0625 19.191406 C 101.492188 16.796875 99.921875 9.367188 99.417969 6.980469 C 105.730469 4.105469 113.078125 3.105469 118.730469 3.894531 C 117.15625 5.832031 114.515625 13.480469 113.933594 15.648438 M 131.03125 15.308594 C 125.324219 14.664062 120.660156 14.402344 116.582031 15.082031 C 117.765625 10.3125 120.121094 5.847656 121.953125 3.894531 C 125.839844 4.148438 129.855469 5.058594 133.039062 6.066406 C 143.21875 9.285156 159.046875 19.242188 165.875 33.917969 C 156.777344 24.1875 141.675781 16.527344 131.03125 15.308594 M 182.652344 190.414062 C 183.628906 187.542969 184.421875 185.910156 183.582031 185.164062 C 182.820312 184.488281 182.082031 187.144531 181.152344 189.726562 C 178.078125 198.296875 174.71875 205.359375 167.132812 216.4375 C 158.730469 228.714844 149.070312 235.84375 145.707031 237.667969 C 142.847656 224.769531 131.941406 169.839844 131.652344 168.269531 C 131.222656 165.925781 130.859375 165.253906 130.363281 165.527344 C 129.808594 165.847656 130.152344 167.136719 130.4375 169.183594 C 130.722656 171.234375 143.707031 236.25 144.136719 238.53125 C 141.554688 240.578125 131.097656 245.273438 123.785156 245.652344 C 117.269531 246 109.621094 245.652344 105.757812 244.226562 C 101.226562 238.363281 90.929688 215.042969 87.019531 202.621094 C 82.414062 188 79.363281 174.542969 78.578125 168.828125 C 78.199219 166.09375 77.714844 164.121094 76.855469 164.394531 C 75.9375 164.675781 76.464844 166.832031 77.003906 169.765625 C 78.386719 177.285156 80.648438 187.945312 85.445312 203.140625 C 90.53125 219.238281 99.605469 238.117188 102.253906 243.261719 C 93.957031 240.460938 83.878906 234.25 74.300781 222.78125 C 66.050781 212.929688 58.964844 200.363281 55.398438 191.214844 C 54.789062 189.640625 54.070312 187.421875 53.183594 188.363281 C 52.785156 188.78125 53.277344 190.570312 53.894531 192.355469 C 59.074219 207.269531 71.699219 228.371094 87.875 239.949219 C 106.730469 253.453125 127.285156 252.730469 145.671875 241.320312 C 161.753906 231.335938 175.742188 210.792969 182.652344 190.417969 "/>
</g>
</svg>
