<?xml version="1.0" encoding="UTF-8"?>
<svg xmlns="http://www.w3.org/2000/svg" xmlns:xlink="http://www.w3.org/1999/xlink" width="250px" height="250px" viewBox="0 0 250 250" version="1.1">
<g id="surface1">
<path style=" stroke:none;fill-rule:nonzero;fill:rgb(0%,15.686275%,36.470588%);fill-opacity:1;" d="M 125 0 C 55.964844 0 0 55.964844 0 125 C 0 194.035156 55.964844 250 125 250 C 194.035156 250 250 194.035156 250 125 C 249.925781 55.996094 194.003906 0.0742188 125 0 "/>
<path style=" stroke:none;fill-rule:nonzero;fill:rgb(100%,100%,100%);fill-opacity:1;" d="M 236.996094 125 C 236.996094 63.144531 186.855469 13.003906 125 13.003906 C 63.144531 13.003906 13.003906 63.144531 13.003906 125 C 13.003906 186.855469 63.144531 236.996094 125 236.996094 C 186.851562 236.988281 236.988281 186.851562 236.996094 125 "/>
<path style=" stroke:none;fill-rule:nonzero;fill:rgb(42.352941%,67.843137%,87.058824%);fill-opacity:1;" d="M 196.292969 125 C 196.292969 85.625 164.375 53.707031 125 53.707031 C 85.625 53.707031 53.707031 85.625 53.707031 125 C 53.707031 164.375 85.625 196.292969 125 196.292969 C 164.367188 196.273438 196.273438 164.367188 196.292969 125 "/>
<path style=" stroke:none;fill-rule:nonzero;fill:rgb(0%,15.686275%,36.470588%);fill-opacity:1;" d="M 125 201.957031 C 82.5 201.957031 48.042969 167.5 48.042969 125 C 48.042969 82.5 82.5 48.042969 125 48.042969 C 167.5 48.042969 201.957031 82.5 201.957031 125 C 201.910156 167.484375 167.484375 201.910156 125 201.957031 Z M 125 52.355469 C 84.878906 52.355469 52.355469 84.878906 52.355469 125 C 52.355469 165.121094 84.878906 197.644531 125 197.644531 C 165.121094 197.644531 197.644531 165.121094 197.644531 125 C 197.589844 84.902344 165.097656 52.410156 125 52.355469 Z M 125 52.355469 "/>
<path style=" stroke:none;fill-rule:nonzero;fill:rgb(42.352941%,67.843137%,87.058824%);fill-opacity:1;" d="M 125 244.835938 C 58.816406 244.835938 5.164062 191.183594 5.164062 125 C 5.164062 58.816406 58.816406 5.164062 125 5.164062 C 191.183594 5.164062 244.835938 58.816406 244.835938 125 C 244.714844 191.132812 191.132812 244.714844 125 244.835938 M 125 7.628906 C 60.226562 7.632812 7.710938 60.132812 7.699219 124.90625 C 7.6875 189.683594 60.179688 242.207031 124.953125 242.230469 C 189.726562 242.257812 242.261719 189.773438 242.300781 125 C 242.230469 60.246094 189.753906 7.769531 125 7.699219 "/>
<path style=" stroke:none;fill-rule:nonzero;fill:rgb(42.352941%,67.843137%,87.058824%);fill-opacity:1;" d="M 24.945312 122.246094 L 22.890625 122.742188 L 22.339844 120.648438 L 25.6875 119.640625 L 27.4375 119.640625 L 27.4375 131.335938 L 24.945312 131.335938 Z M 30.453125 128.195312 C 30.386719 126.929688 31.160156 125.769531 32.355469 125.34375 C 31.402344 124.859375 30.816406 123.863281 30.855469 122.796875 C 30.855469 120.992188 32.507812 119.601562 34.984375 119.601562 C 37.464844 119.601562 39.117188 120.976562 39.117188 122.796875 C 38.128906 123.351562 37.550781 124.425781 37.621094 125.554688 C 37.695312 126.6875 38.410156 127.675781 39.460938 128.097656 C 39.460938 130.246094 37.5625 131.5 34.957031 131.5 C 32.355469 131.5 30.398438 130.207031 30.398438 128.195312 Z M 36.957031 127.988281 C 36.957031 127.039062 36.101562 126.542969 34.957031 126.542969 C 33.816406 126.542969 32.960938 127.09375 32.960938 127.988281 C 32.960938 128.789062 33.707031 129.433594 34.957031 129.433594 C 36.210938 129.433594 36.847656 128.800781 36.847656 128.003906 Z M 36.613281 123.085938 C 36.464844 122.289062 35.769531 121.707031 34.957031 121.707031 C 34.148438 121.707031 33.453125 122.289062 33.304688 123.085938 C 33.320312 123.5 33.503906 123.894531 33.816406 124.167969 C 34.132812 124.441406 34.542969 124.574219 34.957031 124.53125 C 35.789062 124.5625 36.496094 123.929688 36.554688 123.097656 Z M 214.765625 126.585938 C 214.105469 127.128906 213.265625 127.414062 212.410156 127.382812 C 209.902344 127.382812 208.277344 126.003906 208.277344 123.636719 C 208.296875 122.496094 208.785156 121.417969 209.628906 120.652344 C 210.46875 119.882812 211.589844 119.5 212.726562 119.585938 C 213.972656 119.503906 215.191406 119.960938 216.074219 120.839844 C 217.125 122.050781 217.625 123.640625 217.453125 125.234375 C 217.453125 128.980469 215.703125 131.585938 212.398438 131.585938 C 210.996094 131.640625 209.632812 131.144531 208.59375 130.207031 L 209.972656 128.25 C 210.660156 128.902344 211.574219 129.261719 212.519531 129.257812 C 214.214844 129.257812 214.722656 127.601562 214.820312 126.613281 Z M 214.765625 123.539062 C 214.769531 123.015625 214.546875 122.515625 214.152344 122.167969 C 213.757812 121.820312 213.234375 121.664062 212.714844 121.734375 C 212.210938 121.671875 211.703125 121.828125 211.324219 122.160156 C 210.941406 122.496094 210.71875 122.976562 210.714844 123.484375 C 210.714844 124.53125 211.460938 125.234375 212.769531 125.234375 C 213.257812 125.292969 213.75 125.144531 214.125 124.824219 C 214.5 124.507812 214.730469 124.046875 214.753906 123.554688 Z M 225.507812 128.84375 L 219.808594 128.84375 L 219.40625 127.039062 L 225.757812 119.640625 L 227.90625 119.640625 L 227.90625 126.734375 L 229.460938 126.734375 L 229.460938 128.789062 L 227.90625 128.789062 L 227.90625 131.28125 L 225.550781 131.28125 Z M 225.507812 126.789062 L 225.507812 123.195312 L 222.410156 126.789062 Z M 225.507812 126.789062 "/>
<path style=" stroke:none;fill-rule:nonzero;fill:rgb(100%,100%,100%);fill-opacity:1;" d="M 125 197.644531 C 84.878906 197.644531 52.355469 165.121094 52.355469 125 C 52.355469 84.878906 84.878906 52.355469 125 52.355469 C 165.121094 52.355469 197.644531 84.878906 197.644531 125 C 197.589844 165.097656 165.097656 197.589844 125 197.644531 M 125 55.042969 C 86.378906 55.070312 55.09375 86.398438 55.109375 125.019531 C 55.128906 163.640625 86.445312 194.9375 125.0625 194.929688 C 163.683594 194.925781 194.992188 163.621094 195 125 C 194.9375 86.375 163.625 55.085938 125 55.054688 "/>
<path style=" stroke:none;fill-rule:nonzero;fill:rgb(0%,15.686275%,36.470588%);fill-opacity:1;" d="M 123.621094 62.453125 C 87.808594 62.453125 67.148438 67.148438 67.148438 67.148438 C 61.929688 90.675781 60.730469 114.914062 63.59375 138.84375 C 65.550781 155.742188 79.296875 192.09375 124.847656 204.492188 C 170.398438 192.09375 184.078125 155.742188 186.101562 138.84375 C 188.949219 114.914062 187.734375 90.671875 182.507812 67.148438 C 182.507812 67.148438 161.847656 62.453125 125.949219 62.453125 Z M 123.621094 62.453125 "/>
<path style=" stroke:none;fill-rule:nonzero;fill:rgb(58.823529%,75.686275%,90.588235%);fill-opacity:1;" d="M 179.792969 129.449219 C 179.394531 141.652344 177.492188 178.195312 124.792969 198.25 C 72.453125 178.746094 69.792969 140.949219 69.792969 129.449219 Z M 179.792969 129.449219 "/>
<path style=" stroke:none;fill-rule:nonzero;fill:rgb(100%,100%,100%);fill-opacity:1;" d="M 178.195312 127.453125 C 179.027344 109.105469 177.789062 90.726562 174.503906 72.660156 C 174.503906 72.660156 154.847656 68.910156 124.917969 68.910156 C 94.984375 68.910156 74.917969 73.042969 74.917969 73.042969 C 71.425781 90.953125 70.097656 109.214844 70.964844 127.4375 L 178.265625 127.4375 Z M 178.195312 127.453125 "/>
<path style=" stroke:none;fill-rule:nonzero;fill:rgb(42.352941%,67.843137%,87.45098%);fill-opacity:1;" d="M 126.445312 197.203125 L 70.839844 130 C 68.800781 143.855469 80.054688 184.65625 126.445312 197.203125 Z M 126.445312 197.203125 "/>
<path style=" stroke:none;fill-rule:nonzero;fill:rgb(42.352941%,67.843137%,87.058824%);fill-opacity:1;" d="M 87.398438 129.546875 L 138.84375 191.527344 C 143.371094 189.421875 147.632812 186.785156 151.542969 183.675781 L 106.597656 129.546875 Z M 123.210938 129.546875 L 161.210938 175.398438 C 164.683594 171.703125 167.746094 167.652344 170.359375 163.304688 L 142.410156 129.558594 L 123.152344 129.558594 Z M 178.910156 129.546875 L 159.917969 129.546875 L 175.867188 148.828125 C 178.554688 142.90625 178.855469 132.90625 178.855469 129.601562 Z M 178.910156 129.546875 "/>
<path style=" stroke:none;fill-rule:nonzero;fill:rgb(0%,15.686275%,36.470588%);fill-opacity:1;" d="M 147.246094 154.753906 C 147.097656 154.304688 146.742188 153.949219 146.292969 153.800781 L 143.140625 152.699219 C 142.863281 152.597656 142.5625 152.597656 142.285156 152.699219 C 142.035156 151.59375 141.394531 150.617188 140.480469 149.945312 C 140.386719 149.847656 140.234375 149.792969 140.136719 149.695312 C 139.917969 149.550781 139.683594 149.4375 139.433594 149.351562 L 138.238281 148.898438 C 137.15625 148.605469 136.136719 148.117188 135.234375 147.453125 C 134.40625 146.867188 133.707031 146.117188 133.183594 145.246094 L 132.835938 144.753906 C 132.53125 144.253906 132.121094 143.828125 131.640625 143.5 C 130.84375 142.90625 129.875 142.59375 128.882812 142.601562 C 128.664062 142.609375 128.449219 142.644531 128.238281 142.699219 C 128.289062 142.316406 128.199219 141.925781 127.988281 141.597656 L 126.03125 138.953125 C 125.765625 138.558594 125.3125 138.328125 124.835938 138.347656 C 124.375 138.351562 123.9375 138.550781 123.636719 138.898438 L 121.597656 141.527344 C 121.355469 141.859375 121.246094 142.265625 121.292969 142.671875 C 121.144531 142.671875 120.949219 142.671875 120.800781 142.671875 C 119.816406 142.671875 118.855469 142.96875 118.042969 143.527344 C 117.949219 143.621094 117.835938 143.675781 117.742188 143.773438 C 117.53125 143.933594 117.347656 144.117188 117.191406 144.324219 C 116.886719 144.667969 116.640625 145.027344 116.390625 145.332031 C 115.761719 146.25 114.984375 147.058594 114.089844 147.726562 C 113.265625 148.332031 112.328125 148.773438 111.335938 149.023438 L 110.785156 149.171875 C 109.078125 149.636719 107.78125 151.03125 107.4375 152.769531 C 107.109375 152.667969 106.761719 152.667969 106.433594 152.769531 L 103.277344 153.816406 C 102.835938 153.960938 102.488281 154.308594 102.34375 154.75 C 102.195312 155.195312 102.265625 155.679688 102.535156 156.0625 L 104.433594 158.816406 C 104.65625 159.113281 104.972656 159.328125 105.332031 159.421875 C 104.824219 160.484375 104.738281 161.699219 105.082031 162.824219 C 105.082031 162.976562 105.179688 163.070312 105.234375 163.222656 C 105.328125 163.464844 105.445312 163.703125 105.578125 163.925781 C 105.828125 164.324219 106.074219 164.628906 106.324219 164.972656 C 107.027344 165.835938 107.566406 166.820312 107.921875 167.878906 C 108.230469 168.828125 108.347656 169.832031 108.265625 170.828125 L 108.265625 171.433594 C 108.230469 172.003906 108.300781 172.578125 108.472656 173.125 C 108.832031 174.203125 109.578125 175.113281 110.566406 175.675781 C 110.441406 175.890625 110.371094 176.128906 110.359375 176.378906 L 110.359375 179.683594 C 110.382812 180.152344 110.601562 180.585938 110.964844 180.882812 C 111.339844 181.148438 111.820312 181.222656 112.257812 181.089844 L 115.453125 180.136719 C 115.726562 180.03125 115.964844 179.863281 116.15625 179.640625 C 117.128906 180.539062 118.429688 180.996094 119.753906 180.894531 C 120.019531 180.882812 120.289062 180.851562 120.550781 180.800781 C 121.003906 180.703125 121.40625 180.550781 121.804688 180.453125 C 122.863281 180.0625 123.980469 179.855469 125.109375 179.847656 C 126.117188 179.859375 127.113281 180.042969 128.058594 180.398438 C 128.265625 180.398438 128.402344 180.550781 128.609375 180.605469 C 129.148438 180.816406 129.722656 180.929688 130.304688 180.949219 C 131.496094 180.949219 132.640625 180.488281 133.5 179.65625 C 133.679688 179.863281 133.898438 180.03125 134.144531 180.152344 L 137.300781 181.15625 C 137.742188 181.292969 138.21875 181.214844 138.59375 180.949219 C 138.976562 180.695312 139.203125 180.265625 139.199219 179.808594 L 139.296875 176.5 C 139.273438 176.242188 139.207031 175.992188 139.089844 175.757812 C 140.078125 175.195312 140.824219 174.285156 141.183594 173.210938 C 141.238281 173.082031 141.273438 172.949219 141.28125 172.808594 L 141.527344 171.832031 C 141.554688 171.402344 141.554688 170.96875 141.527344 170.539062 C 141.480469 169.417969 141.636719 168.296875 141.984375 167.230469 C 142.292969 166.277344 142.785156 165.394531 143.429688 164.628906 C 143.558594 164.488281 143.675781 164.335938 143.773438 164.171875 C 144.972656 162.78125 145.191406 160.792969 144.324219 159.171875 C 144.613281 159.101562 144.863281 158.921875 145.027344 158.675781 L 146.929688 155.921875 C 147.269531 155.585938 147.386719 155.082031 147.230469 154.628906 Z M 147.246094 154.753906 "/>
<path style=" stroke:none;fill-rule:nonzero;fill:rgb(100%,78.039216%,34.509804%);fill-opacity:1;" d="M 123.042969 161.847656 C 123.058594 160.832031 123.875 160.015625 124.890625 160 C 125.910156 160 126.734375 160.828125 126.734375 161.847656 C 126.722656 162.859375 125.902344 163.675781 124.890625 163.691406 C 123.871094 163.691406 123.042969 162.863281 123.042969 161.847656 Z M 123.042969 161.847656 "/>
<path style=" stroke:none;fill-rule:nonzero;fill:rgb(92.941176%,18.823529%,14.117647%);fill-opacity:1;" d="M 124.902344 146.101562 C 124.632812 144.996094 123.925781 144.042969 122.949219 143.457031 L 124.902344 140.964844 L 126.75 143.457031 C 125.847656 144.097656 125.195312 145.03125 124.902344 146.101562 M 109.957031 157.050781 C 109.015625 156.464844 108.308594 155.5625 107.960938 154.503906 L 105.015625 155.507812 L 106.816406 158.113281 C 107.6875 157.355469 108.824219 156.980469 109.972656 157.066406 M 115.769531 174.3125 C 114.886719 175.011719 113.796875 175.398438 112.671875 175.414062 L 112.671875 178.511719 L 115.714844 177.617188 C 115.289062 176.554688 115.289062 175.371094 115.714844 174.3125 M 134.023438 174.3125 C 134.425781 175.351562 134.460938 176.5 134.117188 177.5625 L 137.066406 178.511719 L 137.164062 175.359375 C 136.023438 175.371094 134.914062 175.003906 134.007812 174.3125 M 139.65625 157.011719 C 140.777344 156.9375 141.894531 157.253906 142.808594 157.90625 L 144.613281 155.398438 L 141.613281 154.351562 C 141.339844 155.460938 140.636719 156.414062 139.65625 156.996094 M 121.0625 174.351562 C 119.679688 174.34375 118.566406 173.226562 118.566406 171.847656 C 118.578125 171.769531 118.539062 171.695312 118.46875 171.660156 C 118.402344 171.628906 118.320312 171.640625 118.265625 171.695312 C 117.371094 172.566406 116.789062 173.707031 116.613281 174.945312 C 116.597656 175.785156 116.925781 176.597656 117.519531 177.191406 C 118.113281 177.785156 118.925781 178.113281 119.765625 178.097656 L 120.109375 178.097656 C 120.292969 178.121094 120.476562 178.121094 120.660156 178.097656 C 122.070312 177.570312 123.550781 177.269531 125.054688 177.203125 C 126.289062 177.214844 127.511719 177.46875 128.648438 177.949219 C 129.027344 178.109375 129.4375 178.195312 129.847656 178.195312 C 130.691406 178.210938 131.5 177.882812 132.09375 177.289062 C 132.691406 176.695312 133.019531 175.882812 133.003906 175.042969 C 132.847656 173.796875 132.265625 172.648438 131.351562 171.789062 C 131.253906 171.695312 131.101562 171.789062 131.101562 171.941406 C 131.085938 173.320312 129.972656 174.433594 128.59375 174.449219 C 127.546875 174.449219 126.199219 173.554688 124.890625 173.554688 C 123.582031 173.554688 122.136719 174.40625 121.03125 174.40625 Z M 119.40625 170.910156 C 119.414062 172.0625 120.347656 172.996094 121.5 173.003906 C 121.632812 173.023438 121.769531 173.023438 121.902344 173.003906 C 121.902344 173.003906 121.996094 173.003906 122.050781 173.003906 L 122.246094 173.003906 C 123.089844 172.667969 123.984375 172.480469 124.890625 172.453125 C 125.785156 172.472656 126.667969 172.660156 127.492188 173.003906 C 127.730469 173.101562 127.980469 173.152344 128.238281 173.152344 C 129.390625 173.148438 130.324219 172.214844 130.332031 171.0625 C 130.339844 170.761719 130.269531 170.46875 130.125 170.207031 L 129.972656 169.902344 C 129.972656 169.902344 126.417969 165.109375 126.324219 164.957031 C 126.179688 164.808594 125.957031 164.769531 125.769531 164.863281 C 125.480469 164.949219 125.179688 165 124.875 165.015625 C 124.570312 165.015625 124.269531 164.964844 123.980469 164.863281 C 123.734375 164.765625 123.582031 164.710938 123.429688 164.957031 C 123.277344 165.207031 120.675781 168.609375 119.929688 169.710938 C 119.648438 170.085938 119.488281 170.539062 119.476562 171.003906 Z M 135.757812 169.3125 C 135.554688 169.945312 135.109375 170.472656 134.515625 170.769531 C 133.921875 171.070312 133.234375 171.121094 132.601562 170.910156 C 132.398438 170.910156 132.300781 170.910156 132.398438 171.117188 C 132.964844 172.222656 133.878906 173.117188 135 173.664062 C 136.652344 174.210938 138.4375 173.316406 138.996094 171.667969 C 138.996094 171.570312 138.996094 171.460938 139.089844 171.363281 C 139.152344 171.207031 139.183594 171.039062 139.1875 170.867188 C 139.113281 169.367188 139.28125 167.867188 139.683594 166.417969 C 140.105469 165.253906 140.730469 164.171875 141.527344 163.222656 C 141.789062 162.910156 141.992188 162.558594 142.136719 162.175781 C 142.40625 161.378906 142.339844 160.507812 141.953125 159.761719 C 141.566406 159.015625 140.890625 158.460938 140.082031 158.222656 C 138.839844 158 137.554688 158.191406 136.433594 158.773438 C 136.28125 158.773438 136.335938 158.980469 136.433594 159.023438 C 137.753906 159.445312 138.492188 160.851562 138.085938 162.175781 C 137.742188 163.183594 136.488281 164.171875 136.089844 165.425781 C 135.6875 166.679688 135.992188 168.375 135.6875 169.324219 Z M 131.902344 169.863281 C 133.011719 170.210938 134.195312 169.597656 134.546875 168.484375 C 134.605469 168.359375 134.640625 168.222656 134.640625 168.085938 L 134.640625 167.835938 C 134.5625 166.910156 134.644531 165.980469 134.890625 165.082031 C 135.199219 164.234375 135.667969 163.453125 136.265625 162.78125 C 136.410156 162.582031 136.527344 162.363281 136.613281 162.136719 C 136.945312 161.027344 136.335938 159.851562 135.234375 159.492188 C 134.957031 159.410156 134.667969 159.378906 134.378906 159.394531 C 134.285156 159.394531 134.132812 159.394531 134.035156 159.394531 C 133.9375 159.394531 128.332031 161.238281 128.140625 161.292969 C 127.957031 161.386719 127.859375 161.589844 127.890625 161.789062 C 127.878906 162.089844 127.84375 162.390625 127.796875 162.6875 C 127.703125 162.964844 127.550781 163.21875 127.339844 163.429688 C 127.191406 163.636719 127.039062 163.773438 127.246094 163.980469 C 127.453125 164.1875 129.890625 167.628906 130.742188 168.734375 C 130.960938 169.253906 131.371094 169.671875 131.886719 169.902344 Z M 135.34375 153.855469 C 135.898438 154.234375 136.269531 154.824219 136.371094 155.488281 C 136.476562 156.148438 136.304688 156.824219 135.894531 157.355469 C 135.800781 157.507812 135.894531 157.660156 136.046875 157.601562 C 137.296875 157.4375 138.445312 156.835938 139.296875 155.910156 C 139.789062 155.234375 139.992188 154.390625 139.859375 153.566406 C 139.726562 152.742188 139.273438 152.003906 138.59375 151.515625 C 138.484375 151.464844 138.378906 151.394531 138.292969 151.308594 C 138.148438 151.214844 137.996094 151.132812 137.835938 151.0625 C 136.367188 150.675781 134.972656 150.050781 133.707031 149.214844 C 132.714844 148.449219 131.867188 147.519531 131.199219 146.460938 C 131.019531 146.152344 130.785156 145.882812 130.507812 145.660156 C 129.097656 144.660156 127.144531 144.972656 126.117188 146.363281 C 125.5 147.453125 125.285156 148.726562 125.507812 149.957031 C 125.507812 150.109375 125.660156 150.109375 125.757812 149.957031 C 126.582031 148.855469 128.132812 148.609375 129.257812 149.40625 C 130.109375 150.015625 130.632812 151.5 131.75 152.3125 C 132.863281 153.125 134.601562 153.265625 135.453125 153.871094 Z M 134.640625 157.644531 C 134.980469 157.203125 135.125 156.644531 135.039062 156.09375 C 134.953125 155.542969 134.644531 155.054688 134.1875 154.738281 C 134.089844 154.640625 133.972656 154.570312 133.84375 154.53125 C 133.84375 154.53125 133.746094 154.53125 133.691406 154.53125 C 133.636719 154.53125 133.691406 154.53125 133.59375 154.53125 C 132.699219 154.324219 131.847656 153.953125 131.089844 153.429688 C 130.375 152.890625 129.765625 152.226562 129.285156 151.472656 C 129.144531 151.269531 128.976562 151.082031 128.789062 150.921875 C 127.84375 150.25 126.535156 150.449219 125.839844 151.378906 C 125.65625 151.609375 125.535156 151.882812 125.496094 152.175781 C 125.472656 152.289062 125.472656 152.40625 125.496094 152.519531 C 125.496094 152.519531 125.496094 158.472656 125.496094 158.664062 C 125.496094 158.855469 125.742188 159.007812 125.894531 159.0625 C 126.183594 159.144531 126.457031 159.28125 126.695312 159.460938 C 126.945312 159.625 127.15625 159.847656 127.300781 160.109375 C 127.398438 160.316406 127.546875 160.453125 127.796875 160.359375 C 128.042969 160.261719 132.09375 158.980469 133.445312 158.554688 C 133.925781 158.40625 134.347656 158.105469 134.640625 157.699219 Z M 120.441406 149.492188 C 121.5625 148.695312 123.117188 148.9375 123.9375 150.042969 C 124.035156 150.191406 124.242188 150.136719 124.242188 150.042969 C 124.417969 148.808594 124.207031 147.550781 123.636719 146.445312 C 122.605469 145.054688 120.65625 144.746094 119.242188 145.742188 C 119.148438 145.800781 119.066406 145.871094 118.996094 145.949219 C 118.898438 146.046875 118.746094 146.15625 118.59375 146.292969 C 117.769531 147.558594 116.742188 148.675781 115.550781 149.601562 C 114.523438 150.3125 113.367188 150.820312 112.148438 151.101562 C 111.125 151.339844 110.289062 152.078125 109.925781 153.066406 C 109.5625 154.054688 109.71875 155.160156 110.34375 156.003906 C 111.222656 156.898438 112.359375 157.488281 113.59375 157.699219 C 113.746094 157.699219 113.800781 157.601562 113.691406 157.453125 C 112.894531 156.328125 113.140625 154.777344 114.242188 153.953125 C 115.097656 153.347656 116.695312 153.304688 117.796875 152.507812 C 118.898438 151.707031 119.601562 150.152344 120.441406 149.558594 Z M 123.84375 151.292969 C 123.515625 150.839844 123.019531 150.535156 122.464844 150.449219 C 121.910156 150.367188 121.34375 150.503906 120.894531 150.839844 C 120.78125 150.90625 120.679688 150.992188 120.59375 151.089844 C 120.59375 151.089844 120.59375 151.183594 120.496094 151.238281 C 120.027344 152.015625 119.417969 152.695312 118.691406 153.238281 C 117.933594 153.726562 117.109375 154.097656 116.238281 154.339844 C 115.988281 154.394531 115.75 154.5 115.539062 154.640625 C 115.082031 154.960938 114.777344 155.449219 114.691406 156 C 114.605469 156.546875 114.746094 157.105469 115.082031 157.546875 C 115.261719 157.789062 115.480469 157.992188 115.730469 158.152344 L 116.03125 158.304688 L 121.929688 160.207031 C 122.230469 160.304688 122.328125 160.054688 122.425781 159.957031 C 122.613281 159.730469 122.8125 159.511719 123.03125 159.3125 C 123.285156 159.160156 123.554688 159.023438 123.828125 158.910156 C 124.078125 158.910156 124.285156 158.816406 124.230469 158.511719 L 124.230469 152.660156 C 124.277344 152.171875 124.15625 151.6875 123.882812 151.28125 Z M 111.695312 162.191406 C 111.269531 160.878906 111.980469 159.46875 113.292969 159.035156 C 113.5 159.035156 113.5 158.789062 113.292969 158.734375 C 112.167969 158.152344 110.886719 157.957031 109.640625 158.183594 C 108.832031 158.429688 108.160156 159 107.78125 159.757812 C 107.402344 160.515625 107.355469 161.394531 107.644531 162.191406 C 107.644531 162.285156 107.644531 162.398438 107.742188 162.492188 C 107.789062 162.652344 107.859375 162.804688 107.949219 162.949219 C 108.890625 164.125 109.648438 165.441406 110.191406 166.847656 C 110.5625 168.023438 110.699219 169.265625 110.59375 170.496094 C 110.542969 170.902344 110.597656 171.3125 110.742188 171.695312 C 111 172.492188 111.570312 173.15625 112.320312 173.53125 C 113.074219 173.90625 113.945312 173.964844 114.738281 173.691406 C 115.878906 173.175781 116.800781 172.273438 117.339844 171.144531 C 117.4375 171.046875 117.339844 170.9375 117.136719 170.992188 C 116.503906 171.203125 115.816406 171.15625 115.222656 170.855469 C 114.628906 170.554688 114.183594 170.027344 113.980469 169.394531 C 113.636719 168.386719 114.078125 166.847656 113.675781 165.59375 C 113.277344 164.339844 112.023438 163.238281 111.679688 162.246094 Z M 114.449219 159.546875 C 113.339844 159.894531 112.722656 161.078125 113.070312 162.191406 C 113.109375 162.328125 113.160156 162.460938 113.222656 162.589844 C 113.222656 162.589844 113.222656 162.6875 113.320312 162.742188 C 113.925781 163.429688 114.394531 164.230469 114.695312 165.097656 C 114.945312 165.953125 115.050781 166.847656 115 167.742188 C 114.984375 167.992188 115.015625 168.246094 115.097656 168.484375 C 115.445312 169.597656 116.628906 170.210938 117.742188 169.863281 C 118.019531 169.769531 118.277344 169.613281 118.484375 169.40625 C 118.589844 169.351562 118.675781 169.265625 118.734375 169.160156 C 118.734375 169.160156 122.230469 164.367188 122.328125 164.160156 C 122.425781 163.953125 122.328125 163.761719 122.230469 163.609375 C 122.046875 163.363281 121.894531 163.09375 121.777344 162.808594 C 121.671875 162.523438 121.640625 162.214844 121.679688 161.914062 C 121.679688 161.667969 121.679688 161.460938 121.433594 161.417969 C 121.183594 161.378906 117.136719 160.042969 115.785156 159.613281 C 115.332031 159.410156 114.816406 159.375 114.339844 159.519531 Z M 114.449219 159.546875 "/>
<path style=" stroke:none;fill-rule:nonzero;fill:rgb(100%,78.039216%,34.509804%);fill-opacity:1;" d="M 142.507812 97.300781 L 155.359375 92.851562 C 154.730469 95.980469 154.464844 99.167969 154.558594 102.355469 C 154.894531 105.753906 156.097656 109.007812 158.058594 111.804688 L 142.203125 117.3125 Z M 142.507812 97.300781 "/>
<path style=" stroke:none;fill-rule:nonzero;fill:rgb(83.137255%,63.137255%,11.764706%);fill-opacity:1;" d="M 158.058594 111.847656 C 156.328125 109.207031 155.199219 106.222656 154.753906 103.097656 C 154.484375 99.671875 154.6875 96.222656 155.359375 92.851562 C 153.882812 98.714844 150.980469 104.121094 146.914062 108.59375 C 145.175781 110.410156 143.875 112.601562 143.113281 115 L 142.863281 84.695312 C 142.863281 84.695312 139.820312 85.800781 139.519531 85.839844 C 139.269531 85.886719 139.0625 86.058594 138.96875 86.292969 C 138.96875 86.5 138.816406 86.597656 138.621094 86.640625 C 138.429688 86.679688 136.625 87.339844 135.371094 87.742188 C 135.164062 87.835938 135.21875 88.042969 135.371094 88.042969 C 136.816406 88.042969 138.925781 87.835938 139.117188 87.796875 C 139.34375 87.785156 139.535156 87.621094 139.574219 87.398438 C 139.613281 87.15625 139.828125 86.988281 140.070312 86.996094 C 140.21875 86.996094 141.363281 86.847656 142.066406 86.789062 L 141.761719 119.433594 L 143.210938 119.433594 L 143.210938 117.078125 Z M 158.058594 111.847656 "/>
<path style=" stroke:none;fill-rule:nonzero;fill:rgb(100%,78.039216%,34.509804%);fill-opacity:1;" d="M 100.949219 118.113281 C 99.386719 116.808594 98.316406 115.011719 97.90625 113.015625 C 97.464844 111.148438 97.84375 109.183594 98.953125 107.617188 L 114.558594 102.273438 C 114.011719 104.4375 114.011719 106.707031 114.558594 108.871094 C 115.242188 111.5625 116.449219 114.09375 118.113281 116.324219 C 114.394531 115.699219 110.613281 115.566406 106.859375 115.921875 C 101.554688 116.667969 101.003906 118.125 101.003906 118.125 Z M 83.042969 114.214844 C 84.847656 110.054688 87.445312 106.285156 90.6875 103.113281 C 92.738281 100.828125 95.15625 98.902344 97.835938 97.410156 C 96.039062 100.3125 94.832031 103.542969 94.285156 106.914062 C 93.910156 109.65625 93.910156 112.4375 94.285156 115.179688 C 94.285156 115.179688 91.378906 114.574219 87.988281 114.230469 C 86.328125 114.0625 84.652344 114.0625 82.988281 114.230469 Z M 83.042969 114.214844 "/>
<path style=" stroke:none;fill-rule:nonzero;fill:rgb(83.137255%,63.137255%,11.764706%);fill-opacity:1;" d="M 97.796875 97.453125 C 96.03125 100.367188 94.84375 103.59375 94.296875 106.957031 C 93.925781 109.699219 93.925781 112.476562 94.296875 115.21875 C 94.296875 115.21875 93.554688 115.070312 91.902344 114.667969 C 84.945312 113.152344 97.796875 97.453125 97.796875 97.453125 Z M 106.941406 101.75 L 106.789062 87.699219 C 106.445312 87.796875 103.746094 88.746094 103.445312 88.84375 C 103.195312 88.890625 102.988281 89.0625 102.890625 89.296875 C 102.890625 89.503906 102.742188 89.601562 102.492188 89.640625 C 102.246094 89.683594 100.496094 90.34375 99.242188 90.742188 C 99.035156 90.839844 99.089844 91.046875 99.242188 91.046875 C 100.6875 90.949219 102.742188 90.800781 102.988281 90.800781 C 103.238281 90.800781 103.445312 90.59375 103.445312 90.398438 C 103.484375 90.160156 103.695312 89.988281 103.9375 90 C 104.089844 90 105.191406 89.847656 105.894531 89.792969 L 105.800781 101.789062 L 106.941406 101.789062 Z M 125.136719 89.105469 L 126.238281 89.105469 L 126.238281 75.605469 L 122.890625 76.75 C 122.492188 76.847656 122.339844 77.09375 122.339844 77.203125 C 122.339844 77.3125 122.191406 77.507812 121.996094 77.546875 C 121.804688 77.589844 120 78.25 118.746094 78.648438 C 118.5 78.746094 118.59375 78.953125 118.746094 78.953125 C 120.191406 78.953125 122.300781 78.707031 122.492188 78.707031 C 122.71875 78.695312 122.910156 78.527344 122.949219 78.304688 C 122.988281 78.066406 123.203125 77.894531 123.445312 77.90625 C 123.59375 77.90625 124.640625 77.753906 125.34375 77.699219 L 125.136719 89.144531 Z M 125.136719 89.105469 "/>
<path style=" stroke:none;fill-rule:nonzero;fill:rgb(100%,78.039216%,34.509804%);fill-opacity:1;" d="M 122.398438 78.746094 C 122.625 78.738281 122.8125 78.570312 122.851562 78.347656 C 122.894531 78.191406 123.003906 78.066406 123.152344 78.003906 L 122.753906 76.804688 C 122.519531 76.851562 122.328125 77.027344 122.257812 77.257812 C 122.257812 77.40625 122.15625 77.507812 121.957031 77.5625 Z M 102.960938 90.855469 C 103.1875 90.84375 103.378906 90.679688 103.414062 90.453125 C 103.457031 90.300781 103.570312 90.171875 103.71875 90.109375 L 103.320312 88.910156 C 103.082031 88.957031 102.890625 89.132812 102.824219 89.367188 C 102.824219 89.511719 102.722656 89.613281 102.519531 89.667969 Z M 138.996094 87.808594 C 139.222656 87.800781 139.410156 87.632812 139.449219 87.410156 C 139.492188 87.253906 139.601562 87.128906 139.753906 87.066406 L 139.351562 85.867188 C 139.117188 85.914062 138.925781 86.089844 138.855469 86.324219 C 138.855469 86.472656 138.761719 86.570312 138.554688 86.667969 L 138.953125 87.863281 Z M 138.996094 87.808594 "/>
<path style=" stroke:none;fill-rule:nonzero;fill:rgb(83.137255%,63.137255%,11.764706%);fill-opacity:1;" d="M 118.113281 116.40625 C 116.574219 114.078125 115.394531 111.535156 114.613281 108.855469 C 114.117188 106.699219 114.117188 104.457031 114.613281 102.300781 C 114.613281 102.300781 112.921875 108.042969 108.96875 111.15625 C 106.210938 113.359375 99.460938 115.289062 101.019531 118.152344 C 101.226562 117.753906 101.914062 117.050781 104.722656 116.40625 C 105.066406 116.3125 105.417969 116.242188 105.769531 116.199219 L 105.769531 120.867188 L 107.09375 120.867188 L 107.09375 116.019531 C 110.769531 115.75 114.464844 115.878906 118.113281 116.40625 Z M 118.113281 116.40625 "/>
<path style=" stroke:none;fill-rule:nonzero;fill:rgb(100%,78.039216%,34.509804%);fill-opacity:1;" d="M 99.351562 106.75 C 99.351562 106.75 97.546875 105.648438 97.753906 102.09375 C 97.769531 100.113281 98.515625 98.210938 99.847656 96.75 L 111.996094 92.617188 C 111.421875 94.066406 111.335938 95.660156 111.75 97.164062 C 112.183594 99.148438 113.195312 100.960938 114.65625 102.371094 C 110.71875 102.5 106.820312 103.15625 103.058594 104.324219 C 101.585938 104.710938 100.28125 105.574219 99.351562 106.777344 Z M 99.351562 106.75 "/>
<path style=" stroke:none;fill-rule:nonzero;fill:rgb(83.137255%,63.137255%,11.764706%);fill-opacity:1;" d="M 106.554688 99.050781 C 108.734375 97.203125 110.5625 94.984375 111.957031 92.492188 C 111.671875 93.941406 111.636719 95.429688 111.859375 96.886719 C 112.195312 98.929688 113.15625 100.816406 114.613281 102.285156 C 111.132812 102.433594 107.679688 102.953125 104.3125 103.84375 C 100.8125 104.847656 99.65625 106.238281 99.367188 106.695312 C 98.195312 104.105469 102.960938 101.996094 106.554688 99.050781 Z M 106.554688 99.050781 "/>
<path style=" stroke:none;fill-rule:nonzero;fill:rgb(100%,78.039216%,34.509804%);fill-opacity:1;" d="M 120.398438 119.105469 C 118.226562 117.253906 116.765625 114.707031 116.265625 111.902344 C 115.929688 109.601562 116.605469 107.265625 118.113281 105.496094 L 137.109375 98.9375 C 136.492188 101.65625 136.457031 104.472656 137.011719 107.203125 C 138.113281 111.75 142.257812 117.355469 142.257812 117.355469 C 137.472656 116.0625 132.503906 115.597656 127.5625 115.976562 C 121.003906 116.832031 120.414062 119.171875 120.414062 119.171875 Z M 116.5 89.007812 C 116.492188 87.054688 117.203125 85.167969 118.5 83.707031 L 132.148438 78.953125 C 130.808594 82.140625 131.496094 85.820312 133.898438 88.304688 C 129.933594 88.242188 125.984375 88.886719 122.246094 90.207031 C 118.746094 91.40625 118.386719 93.113281 118.386719 93.113281 C 118.386719 93.113281 116.695312 92.5625 116.488281 88.980469 Z M 116.5 89.007812 "/>
<path style=" stroke:none;fill-rule:nonzero;fill:rgb(83.137255%,63.137255%,11.764706%);fill-opacity:1;" d="M 127.300781 85.304688 C 129.179688 83.414062 130.792969 81.277344 132.09375 78.953125 C 130.753906 82.140625 131.441406 85.820312 133.84375 88.304688 C 129.984375 88.359375 126.15625 89 122.492188 90.207031 C 120.097656 91.0625 118.59375 92.355469 118.359375 93.113281 C 117.507812 90.359375 123.871094 88.320312 127.257812 85.316406 Z M 127.300781 85.304688 "/>
<path style=" stroke:none;fill-rule:nonzero;fill:rgb(100%,78.039216%,34.509804%);fill-opacity:1;" d="M 118.445312 104.695312 C 117.144531 103.035156 116.332031 101.046875 116.089844 98.953125 C 115.6875 95.304688 117.890625 93.800781 118.042969 93.746094 L 133.789062 88.238281 C 133.476562 89.671875 133.476562 91.15625 133.789062 92.589844 C 134.367188 94.855469 135.367188 96.988281 136.734375 98.882812 C 136.734375 98.882812 128.332031 99.089844 123.140625 101.128906 C 121.273438 101.800781 119.648438 103.019531 118.484375 104.628906 Z M 118.445312 104.695312 "/>
<path style=" stroke:none;fill-rule:nonzero;fill:rgb(83.137255%,63.137255%,11.764706%);fill-opacity:1;" d="M 128.898438 95.605469 C 131.078125 93.578125 132.769531 91.082031 133.84375 88.304688 C 133.589844 89.777344 133.589844 91.28125 133.84375 92.753906 C 134.460938 95.050781 135.550781 97.195312 137.039062 99.050781 C 132.757812 99.136719 128.507812 99.773438 124.394531 100.949219 C 122.09375 101.632812 120.027344 102.949219 118.445312 104.753906 C 117.753906 101.804688 125.496094 98.5 128.898438 95.605469 Z M 128.898438 95.605469 "/>
<path style=" stroke:none;fill-rule:nonzero;fill:rgb(83.137255%,63.137255%,11.764706%);fill-opacity:1;" d="M 142.546875 117.601562 C 142.546875 117.601562 138.25 112.09375 137.039062 107.148438 C 136.480469 104.421875 136.480469 101.609375 137.039062 98.882812 C 135.933594 103.101562 133.722656 106.949219 130.632812 110.027344 C 126.640625 113.734375 118.675781 115.539062 120.386719 119.023438 C 120.6875 118.414062 121.585938 117.121094 124.835938 116.265625 L 124.835938 120.769531 L 126.335938 120.769531 L 126.335938 115.976562 C 133.386719 114.929688 142.589844 117.480469 142.589844 117.480469 Z M 142.546875 117.601562 "/>
<path style=" stroke:none;fill-rule:nonzero;fill:rgb(100%,78.039216%,34.509804%);fill-opacity:1;" d="M 149.792969 128.042969 C 150.800781 127.835938 151.789062 127.644531 153.238281 127.246094 C 153.140625 127.191406 153.058594 127.121094 152.988281 127.039062 C 151.390625 125.234375 151.695312 123.386719 152.644531 122.4375 C 156.199219 119.089844 156.144531 116.695312 156.144531 116.695312 C 149.558594 117.945312 142.894531 118.734375 136.199219 119.050781 C 135.453125 119.050781 132.796875 120.246094 132.066406 120.246094 C 130.507812 120.246094 128.910156 120.34375 127.273438 120.34375 C 105.867188 120.496094 99.875 119.050781 92.835938 117.699219 C 89.332031 117.152344 85.894531 116.230469 82.589844 114.945312 L 82.339844 115.6875 C 82.339844 115.6875 87.949219 117.835938 91.984375 119.820312 C 92.835938 120.21875 96.117188 125.332031 97.285156 126.96875 L 71.847656 126.96875 C 71.035156 109.179688 72.464844 91.359375 76.101562 73.925781 C 76.101562 73.925781 95.605469 69.792969 124.847656 69.792969 L 124.847656 66.695312 C 93.746094 66.695312 73.042969 71.089844 73.042969 71.089844 C 67.414062 93.902344 65.972656 117.550781 68.789062 140.882812 C 70.785156 156.679688 83.9375 186.335938 124.683594 199.984375 L 126.488281 197.492188 L 124.683594 194.984375 C 86.238281 182.078125 75.097656 156.089844 73.085938 141.183594 C 72.628906 137.878906 72.339844 134.628906 72.078125 131.390625 L 124.835938 131.390625 L 124.835938 126.941406 L 97.753906 126.941406 C 98.359375 124.984375 100.246094 124.492188 102.601562 125.097656 C 104.941406 125.796875 107.367188 126.167969 109.808594 126.199219 C 115.605469 125.894531 114.753906 124.351562 115.316406 124.394531 C 121.265625 124.738281 123.582031 126.199219 128.761719 126.144531 C 131.128906 126.175781 133.476562 125.707031 135.648438 124.765625 C 141.445312 124.765625 143.648438 127.371094 149.421875 127.863281 C 149.519531 127.96875 149.652344 128.03125 149.792969 128.042969 Z M 149.792969 128.042969 "/>
<path style=" stroke:none;fill-rule:nonzero;fill:rgb(83.137255%,63.137255%,11.764706%);fill-opacity:1;" d="M 176.5 71.28125 C 176.5 71.28125 155.839844 66.886719 124.808594 66.886719 L 124.808594 69.902344 C 154.105469 69.902344 173.511719 74.035156 173.511719 74.035156 C 177.148438 91.46875 178.578125 109.289062 177.769531 127.078125 L 152.203125 127.078125 C 150.769531 125.695312 150.679688 123.425781 151.996094 121.929688 C 155 119.171875 155 117.425781 155 117.425781 C 148.996094 118.703125 142.886719 119.4375 136.75 119.628906 C 136.003906 119.628906 132.851562 121.074219 132.050781 121.128906 C 130.496094 121.128906 128.25 121.226562 126.542969 121.226562 C 111.75 121.226562 104.503906 120.921875 91.695312 118.183594 L 92.300781 118.925781 C 92.300781 119.023438 97.90625 120.480469 98.003906 120.578125 C 98.882812 121.707031 100.015625 122.613281 101.308594 123.222656 C 103.6875 124.457031 106.285156 125.203125 108.953125 125.425781 C 114.753906 125.769531 113.648438 123.621094 114.199219 123.621094 C 120.152344 123.527344 123.953125 125.675781 129.144531 125.578125 C 133.898438 125.480469 134.050781 124.023438 134.492188 123.980469 C 139.1875 123.734375 143.9375 125.785156 148.042969 127.078125 L 124.628906 127.078125 L 124.628906 131.527344 L 177.339844 131.527344 C 177.09375 134.722656 176.789062 138.03125 176.335938 141.324219 C 174.378906 156.226562 163.140625 182.21875 124.683594 195.125 L 124.683594 200.125 C 165.539062 186.417969 178.636719 156.816406 180.632812 141.019531 C 183.476562 117.675781 182.078125 94.015625 176.5 71.171875 Z M 176.5 71.28125 "/>
<path style=" stroke:none;fill-rule:nonzero;fill:rgb(0%,15.686275%,36.470588%);fill-opacity:1;" d="M 29.394531 84.945312 L 31.542969 80.894531 L 41.183594 80.191406 L 36.28125 71.847656 L 38.429688 67.796875 L 55.605469 76.789062 L 53.648438 80.539062 L 42.453125 74.640625 L 47.246094 83.292969 L 47.246094 83.386719 L 37.453125 84.394531 L 48.59375 90.246094 L 46.640625 93.953125 Z M 49.050781 54.492188 L 51.804688 51.640625 L 71.707031 58.996094 L 68.664062 62.246094 L 64.269531 60.550781 L 58.664062 66.5 L 60.621094 70.757812 L 57.507812 73.898438 Z M 60.453125 59.035156 L 54.105469 56.585938 L 56.859375 62.78125 Z M 64.394531 40.34375 L 67.796875 38.347656 L 81.75 43.855469 L 75.550781 33.648438 L 79.144531 31.5 L 89.199219 48.03125 L 86.101562 49.929688 L 71.707031 44.230469 L 78.058594 54.78125 L 74.503906 56.984375 Z M 90.441406 36.996094 C 89.65625 34.4375 89.945312 31.671875 91.246094 29.332031 C 92.542969 26.992188 94.742188 25.285156 97.328125 24.601562 C 100.027344 23.675781 102.996094 23.945312 105.480469 25.34375 L 103.734375 29.089844 C 102.113281 28.164062 100.199219 27.898438 98.386719 28.347656 C 96.933594 28.816406 95.726562 29.847656 95.035156 31.210938 C 94.339844 32.570312 94.21875 34.152344 94.695312 35.605469 C 95.042969 37.128906 95.996094 38.449219 97.332031 39.257812 C 98.671875 40.066406 100.277344 40.300781 101.789062 39.902344 C 103.65625 39.367188 105.207031 38.058594 106.046875 36.308594 L 109.394531 38.210938 C 108.121094 40.972656 105.65625 43.003906 102.699219 43.71875 C 100.183594 44.496094 97.460938 44.21875 95.152344 42.953125 C 92.847656 41.683594 91.152344 39.535156 90.453125 36.996094 Z M 113.691406 21.445312 L 117.949219 21.351562 L 118.152344 28.996094 L 126.003906 28.789062 L 125.855469 21.144531 L 130.109375 20.992188 L 130.605469 40.386719 L 126.308594 40.480469 L 126.101562 32.714844 L 118.25 32.921875 L 118.457031 40.675781 L 114.199219 40.769531 Z M 155.191406 43.042969 L 158.746094 41.351562 C 159.546875 43.34375 161.066406 44.964844 163.003906 45.894531 C 164.601562 46.640625 165.855469 46.445312 166.308594 45.398438 C 166.761719 44.394531 166.40625 43.648438 163.800781 41.5 C 160.703125 38.953125 158.855469 36.902344 160.453125 33.402344 C 161.957031 30.207031 165.453125 29.269531 169.050781 30.949219 C 171.4375 32.007812 173.386719 33.863281 174.558594 36.199219 L 171.210938 38.195312 C 170.367188 36.554688 169.039062 35.207031 167.410156 34.339844 C 165.964844 33.636719 164.863281 33.996094 164.460938 34.835938 C 163.910156 35.976562 164.460938 36.734375 167.21875 38.882812 C 170.371094 41.488281 171.761719 43.675781 170.371094 46.734375 C 168.773438 50.234375 165.164062 50.992188 161.378906 49.1875 C 158.621094 48 156.421875 45.800781 155.234375 43.042969 Z M 183.5 44.144531 L 178.800781 40.59375 L 181.15625 37.4375 L 193.953125 47.191406 L 191.554688 50.34375 L 186.859375 46.75 L 177.507812 59.050781 L 174.105469 56.445312 Z M 214.144531 71.695312 L 218.140625 79.601562 C 219.179688 81.402344 219.46875 83.539062 218.9375 85.550781 C 218.363281 87.085938 217.21875 88.335938 215.742188 89.050781 C 213.375 90.378906 210.414062 89.96875 208.5 88.042969 L 204.449219 95.398438 L 202.136719 90.949219 L 205.839844 84.449219 L 204.339844 81.445312 L 198.828125 84.199219 L 196.929688 80.398438 Z M 209.601562 83.59375 C 210.550781 85.441406 212.050781 85.992188 213.5 85.289062 C 215.152344 84.492188 215.398438 82.890625 214.449219 81.03125 L 212.546875 77.230469 L 207.644531 79.753906 L 209.601562 83.609375 Z M 142.246094 34.449219 L 149.394531 36.003906 L 151.390625 32.5625 L 143.042969 30.757812 L 143.898438 26.902344 L 154.050781 29.105469 L 154.847656 25.359375 L 140.550781 22.257812 L 136.417969 41.253906 L 150.8125 44.351562 L 151.667969 40.648438 L 141.363281 38.402344 Z M 199.792969 52.949219 L 184.890625 65.34375 L 194.394531 76.695312 L 197.300781 74.242188 L 190.550781 66.199219 L 193.707031 63.554688 L 198.457031 69.257812 L 202.3125 67.960938 L 196.625 61.199219 L 199.628906 58.648438 L 206.265625 66.597656 L 209.171875 64.144531 Z M 92.09375 218.238281 C 92.046875 215.5 93.121094 212.863281 95.066406 210.933594 C 97.011719 209.007812 99.660156 207.957031 102.398438 208.03125 C 105.308594 207.894531 108.140625 209.003906 110.191406 211.074219 L 107.4375 214.269531 C 106.121094 212.875 104.300781 212.066406 102.382812 212.023438 C 100.796875 212.050781 99.292969 212.722656 98.210938 213.878906 C 97.128906 215.039062 96.5625 216.585938 96.640625 218.167969 C 96.546875 219.761719 97.105469 221.320312 98.1875 222.492188 C 99.273438 223.664062 100.789062 224.339844 102.382812 224.367188 C 104.359375 224.347656 106.246094 223.515625 107.589844 222.066406 L 110.34375 224.820312 C 108.324219 227.171875 105.34375 228.480469 102.246094 228.375 C 99.546875 228.410156 96.945312 227.359375 95.035156 225.453125 C 93.125 223.546875 92.0625 220.949219 92.09375 218.25 Z M 114.546875 208.332031 L 118.898438 208.332031 L 118.898438 228.085938 L 114.546875 228.085938 Z M 128.996094 212.328125 L 122.988281 212.328125 L 122.988281 208.332031 L 139.339844 208.332031 L 139.339844 212.328125 L 133.332031 212.328125 L 133.332031 228.070312 L 128.996094 228.070312 Z M 148.746094 220.277344 L 141.144531 208.320312 L 146.199219 208.320312 L 150.894531 216.226562 L 155.6875 208.320312 L 160.632812 208.320312 L 153.03125 220.164062 L 153.03125 228.015625 L 148.675781 228.015625 L 148.675781 220.261719 Z M 148.746094 220.277344 "/>
</g>
</svg>
