<?xml version="1.0" encoding="UTF-8"?>
<svg xmlns="http://www.w3.org/2000/svg" xmlns:xlink="http://www.w3.org/1999/xlink" width="420px" height="420px" viewBox="0 0 420 420" version="1.1">
<g id="surface1">
<rect x="0" y="0" width="420" height="420" style="fill:rgb(100%,100%,100%);fill-opacity:1;stroke:none;"/>
<path style=" stroke:none;fill-rule:evenodd;fill:rgb(0%,0%,0%);fill-opacity:1;" d="M 228.867188 387.183594 C 227.355469 391.710938 222.4375 402.800781 210.5625 402.800781 C 197.078125 402.800781 192.371094 388.191406 192.144531 387.59375 L 191.757812 386.191406 C 191.757812 386.191406 203.378906 387.15625 209.78125 387.15625 C 216.179688 387.15625 227.109375 386.535156 228.902344 386.191406 Z M 228.867188 387.183594 "/>
<path style=" stroke:none;fill-rule:evenodd;fill:rgb(0%,0%,0%);fill-opacity:1;" d="M 264.265625 379.980469 L 267.054688 380.351562 C 263.746094 388.96875 257.808594 398.628906 246.148438 398.628906 C 234.863281 398.628906 229.265625 392.089844 226.878906 387.6875 L 224.929688 386.492188 C 224.929688 386.492188 244.449219 385.847656 264.265625 379.980469 Z M 157.261719 379.980469 L 154.480469 380.351562 C 157.78125 388.96875 163.722656 398.628906 175.386719 398.628906 C 186.671875 398.628906 192.769531 391.722656 195.269531 387.6875 L 196.601562 386.492188 C 196.601562 386.492188 177.082031 385.847656 157.261719 379.980469 Z M 157.261719 379.980469 "/>
<path style=" stroke:none;fill-rule:evenodd;fill:rgb(100%,94.901961%,17.647059%);fill-opacity:1;" d="M 220.023438 388.082031 C 218.199219 390.726562 216.980469 390.605469 214.773438 390.605469 C 213.671875 390.605469 212.015625 391.519531 212.066406 393.175781 C 212.101562 394.472656 213.160156 395.558594 214.960938 395.558594 C 218.945312 395.558594 221.980469 389.992188 222.832031 387.640625 C 222.832031 387.640625 225.191406 387.535156 225.878906 387.46875 C 225.878906 387.46875 221.65625 400.042969 210.707031 400.042969 C 199.738281 400.042969 195.269531 387.605469 195.269531 387.605469 C 195.269531 387.605469 204.5 388.175781 209.789062 388.175781 C 215.082031 388.175781 218.441406 388.152344 220.023438 388.082031 Z M 262.804688 382.546875 C 255.648438 384.476562 250.566406 386.035156 238.550781 387.496094 C 238.550781 387.496094 238.925781 388.738281 241.539062 388.597656 C 242.542969 388.550781 242.671875 388.300781 243.046875 388.234375 C 243.785156 388.097656 244.925781 388.875 244.789062 390.183594 C 244.691406 391.09375 243.910156 392.246094 241.25 392.246094 C 238.589844 392.246094 235.480469 390.066406 233.917969 388.050781 C 233.917969 388.050781 232.320312 388.417969 230.667969 388.511719 C 230.667969 388.511719 235.777344 395.671875 245.863281 395.671875 C 256.964844 395.675781 261.0625 385.757812 262.804688 382.546875 Z M 262.804688 382.546875 "/>
<path style=" stroke:none;fill-rule:evenodd;fill:rgb(98.039216%,87.058824%,18.431373%);fill-opacity:1;" d="M 255.363281 389.550781 C 255.363281 387.8125 254.828125 386.203125 253.917969 384.875 C 250.03125 385.789062 245.589844 386.628906 239.078125 387.4375 C 239.035156 387.628906 238.992188 387.824219 238.953125 388.019531 C 239.34375 388.339844 240.105469 388.679688 241.539062 388.605469 C 242.542969 388.554688 242.671875 388.304688 243.046875 388.238281 C 243.785156 388.101562 244.925781 388.878906 244.789062 390.1875 C 244.691406 391.097656 243.910156 392.25 241.25 392.25 C 240.566406 392.25 239.84375 392.109375 239.132812 391.855469 C 239.484375 393.0625 240.097656 394.15625 240.917969 395.070312 C 242.535156 395.476562 244.195312 395.679688 245.863281 395.675781 C 249.421875 395.675781 252.253906 394.660156 254.527344 393.167969 C 255.078125 392.039062 255.363281 390.804688 255.363281 389.550781 Z M 255.363281 389.550781 "/>
<path style=" stroke:none;fill-rule:evenodd;fill:rgb(98.431373%,87.843137%,18.431373%);fill-opacity:1;" d="M 255.25 389.550781 C 255.253906 387.886719 254.746094 386.265625 253.796875 384.902344 C 249.964844 385.796875 245.582031 386.621094 239.207031 387.417969 C 239.144531 387.640625 239.097656 387.867188 239.058594 388.09375 C 239.472656 388.386719 240.222656 388.671875 241.542969 388.597656 C 242.546875 388.550781 242.675781 388.300781 243.050781 388.234375 C 243.789062 388.097656 244.929688 388.875 244.796875 390.183594 C 244.695312 391.09375 243.914062 392.246094 241.253906 392.246094 C 240.613281 392.246094 239.9375 392.117188 239.273438 391.898438 C 239.636719 393.117188 240.277344 394.210938 241.125 395.117188 C 242.558594 395.464844 244.140625 395.675781 245.871094 395.675781 C 249.328125 395.675781 252.109375 394.714844 254.347656 393.285156 C 254.941406 392.128906 255.25 390.847656 255.25 389.550781 Z M 255.25 389.550781 "/>
<path style=" stroke:none;fill-rule:evenodd;fill:rgb(98.823529%,88.627451%,18.431373%);fill-opacity:1;" d="M 255.132812 389.550781 C 255.132812 387.832031 254.597656 386.234375 253.679688 384.929688 C 249.902344 385.808594 245.566406 386.621094 239.328125 387.40625 C 239.261719 387.652344 239.199219 387.90625 239.160156 388.164062 C 239.59375 388.433594 240.324219 388.664062 241.542969 388.601562 C 242.546875 388.550781 242.675781 388.304688 243.046875 388.234375 C 243.789062 388.101562 244.929688 388.878906 244.792969 390.1875 C 244.695312 391.097656 243.914062 392.25 241.253906 392.25 C 240.621094 392.242188 240 392.136719 239.398438 391.941406 C 239.78125 393.164062 240.445312 394.265625 241.320312 395.164062 C 242.703125 395.484375 244.21875 395.675781 245.863281 395.675781 C 249.226562 395.675781 251.945312 394.765625 254.152344 393.40625 C 254.800781 392.222656 255.136719 390.898438 255.132812 389.550781 Z M 255.132812 389.550781 "/>
<path style=" stroke:none;fill-rule:evenodd;fill:rgb(100%,94.901961%,17.647059%);fill-opacity:1;" d="M 158.730469 382.546875 C 165.882812 384.476562 170.96875 386.035156 182.980469 387.496094 C 182.980469 387.496094 182.605469 388.738281 179.992188 388.597656 C 178.988281 388.550781 178.859375 388.300781 178.484375 388.234375 C 177.746094 388.097656 176.605469 388.875 176.746094 390.183594 C 176.839844 391.09375 177.621094 392.246094 180.28125 392.246094 C 182.941406 392.246094 186.050781 390.066406 187.613281 388.050781 C 187.613281 388.050781 189.21875 388.417969 190.867188 388.511719 C 190.867188 388.511719 185.753906 395.671875 175.667969 395.671875 C 164.570312 395.675781 160.472656 385.757812 158.730469 382.546875 Z M 209.648438 323.550781 C 247.890625 323.550781 290.265625 300.078125 319.972656 266.234375 C 323.1875 262.578125 328.644531 255.644531 341.578125 255.644531 C 354.507812 255.644531 371.699219 267.425781 369.671875 288.886719 C 368.199219 304.53125 345.839844 339.789062 307.597656 361.523438 C 269.355469 383.257812 234.136719 387.933594 209.652344 387.933594 C 185.164062 387.933594 149.949219 383.257812 111.703125 361.523438 C 73.460938 339.789062 51.101562 304.53125 49.625 288.886719 C 47.601562 267.425781 64.792969 255.644531 77.722656 255.644531 C 90.65625 255.644531 96.113281 262.582031 99.324219 266.234375 C 129.035156 300.078125 171.40625 323.550781 209.648438 323.550781 Z M 209.648438 323.550781 "/>
<path style=" stroke:none;fill-rule:nonzero;fill:rgb(0%,0%,0%);fill-opacity:1;" d="M 209.648438 322.175781 C 228.179688 322.175781 247.710938 316.585938 266.285156 306.9375 C 285.632812 296.886719 303.921875 282.445312 318.945312 265.332031 C 320.601562 263.453125 322.824219 260.726562 326.382812 258.421875 C 329.960938 256.105469 334.800781 254.269531 341.578125 254.269531 C 342.277344 254.269531 343.027344 254.308594 343.8125 254.378906 C 350.046875 254.972656 356.902344 257.984375 362.1875 263.230469 C 367.476562 268.480469 371.214844 275.960938 371.214844 285.460938 C 371.214844 286.582031 371.160156 287.765625 371.039062 289.015625 C 370.191406 298 362.730469 313.175781 349.539062 328.613281 C 339.191406 340.71875 325.292969 353.042969 308.277344 362.710938 C 289.023438 373.652344 270.53125 380.304688 253.777344 384.214844 C 224.75 391 194.550781 391 165.523438 384.214844 C 148.769531 380.304688 130.28125 373.652344 111.027344 362.710938 C 94.011719 353.042969 80.113281 340.71875 69.761719 328.613281 C 56.574219 313.175781 49.109375 298 48.261719 289.015625 C 48.148438 287.835938 48.089844 286.648438 48.085938 285.460938 C 48.085938 275.960938 51.824219 268.480469 57.117188 263.230469 C 62.398438 257.984375 69.25 254.972656 75.480469 254.378906 C 76.273438 254.308594 77.023438 254.269531 77.722656 254.269531 C 84.496094 254.269531 89.339844 256.105469 92.914062 258.421875 C 96.476562 260.726562 98.703125 263.453125 100.355469 265.332031 C 115.378906 282.445312 133.671875 296.882812 153.015625 306.9375 C 171.585938 316.585938 191.117188 322.175781 209.648438 322.175781 Z M 209.648438 324.925781 C 190.667969 324.925781 170.699219 319.226562 151.746094 309.378906 C 132.113281 299.179688 113.546875 284.515625 98.292969 267.140625 C 96.734375 265.367188 94.625 262.796875 91.421875 260.722656 C 88.234375 258.65625 83.882812 257.023438 77.722656 257.023438 C 77.058594 257.023438 76.398438 257.050781 75.738281 257.113281 C 70.089844 257.644531 63.867188 260.394531 59.046875 265.175781 C 54.234375 269.957031 50.835938 276.773438 50.835938 285.464844 C 50.835938 286.566406 50.886719 287.664062 50.988281 288.757812 C 51.789062 297.261719 59.027344 311.835938 71.84375 326.832031 C 82.011719 338.726562 95.667969 350.835938 112.378906 360.332031 C 131.371094 371.125 149.613281 377.683594 166.148438 381.542969 C 180.40625 384.875 195.003906 386.558594 209.648438 386.558594 C 224.292969 386.558594 238.890625 384.875 253.152344 381.542969 C 269.6875 377.683594 287.929688 371.125 306.917969 360.332031 C 323.628906 350.835938 337.289062 338.726562 347.453125 326.828125 C 360.273438 311.828125 367.511719 297.261719 368.3125 288.757812 C 368.414062 287.667969 368.464844 286.566406 368.464844 285.464844 C 368.464844 276.773438 365.0625 269.957031 360.25 265.175781 C 355.433594 260.394531 349.207031 257.644531 343.558594 257.113281 C 342.898438 257.050781 342.238281 257.023438 341.578125 257.023438 C 335.417969 257.023438 331.066406 258.65625 327.878906 260.722656 C 324.671875 262.796875 322.5625 265.367188 321.007812 267.140625 C 305.753906 284.515625 287.191406 299.179688 267.554688 309.375 C 248.601562 319.226562 228.632812 324.925781 209.648438 324.925781 Z M 209.648438 324.925781 "/>
<path style=" stroke:none;fill-rule:evenodd;fill:rgb(76.078431%,19.607843%,15.294118%);fill-opacity:1;" d="M 95.027344 269.597656 L 94.582031 269.09375 C 91.539062 265.597656 87.367188 260.804688 77.410156 260.804688 C 71.597656 260.804688 65.019531 263.914062 60.648438 268.71875 C 57.382812 272.304688 53.675781 278.613281 54.585938 288.257812 C 55.828125 301.433594 76.75 335.605469 114.007812 356.78125 C 144.039062 373.847656 176.109375 382.503906 209.335938 382.503906 C 242.5625 382.503906 274.632812 373.847656 304.664062 356.78125 C 341.917969 335.605469 362.84375 301.433594 364.085938 288.257812 C 364.992188 278.613281 361.289062 272.304688 358.015625 268.71875 C 353.648438 263.914062 347.066406 260.804688 341.261719 260.804688 C 331.304688 260.804688 327.132812 265.597656 324.085938 269.09375 L 323.644531 269.597656 C 291.625 306.0625 247.824219 328.714844 209.335938 328.714844 C 170.847656 328.714844 127.046875 306.066406 95.027344 269.597656 Z M 95.027344 269.597656 "/>
<path style=" stroke:none;fill-rule:evenodd;fill:rgb(100%,94.901961%,17.647059%);fill-opacity:1;" d="M 332.503906 226.585938 C 332.503906 208.238281 347.371094 193.363281 365.722656 193.363281 C 384.074219 193.363281 398.949219 208.238281 398.949219 226.585938 C 398.949219 244.933594 384.074219 259.804688 365.722656 259.804688 C 347.371094 259.804688 332.503906 244.933594 332.503906 226.585938 Z M 332.503906 226.585938 "/>
<path style=" stroke:none;fill-rule:nonzero;fill:rgb(0%,0%,0%);fill-opacity:1;" d="M 331.125 226.585938 C 331.125 217.03125 334.996094 208.382812 341.261719 202.117188 C 347.515625 195.855469 356.167969 191.984375 365.722656 191.984375 C 375.277344 191.984375 383.929688 195.855469 390.191406 202.117188 C 396.453125 208.382812 400.320312 217.03125 400.320312 226.585938 C 400.320312 236.140625 396.449219 244.789062 390.191406 251.046875 C 383.929688 257.308594 375.277344 261.179688 365.722656 261.179688 C 356.167969 261.179688 347.519531 257.308594 341.261719 251.046875 C 334.757812 244.570312 331.109375 235.765625 331.125 226.585938 Z M 333.875 226.585938 C 333.875 235.378906 337.441406 243.339844 343.203125 249.101562 C 348.964844 254.867188 356.929688 258.429688 365.722656 258.429688 C 374.511719 258.429688 382.476562 254.863281 388.242188 249.101562 C 394.222656 243.136719 397.582031 235.035156 397.570312 226.585938 C 397.582031 218.136719 394.222656 210.03125 388.242188 204.066406 C 382.476562 198.304688 374.511719 194.738281 365.722656 194.738281 C 356.929688 194.738281 348.96875 198.304688 343.203125 204.066406 C 337.21875 210.03125 333.863281 218.136719 333.875 226.585938 Z M 333.875 226.585938 "/>
<path style=" stroke:none;fill-rule:evenodd;fill:rgb(100%,94.901961%,17.647059%);fill-opacity:1;" d="M 21.050781 226.636719 C 21.050781 208.292969 35.929688 193.417969 54.277344 193.417969 C 72.625 193.417969 87.5 208.292969 87.5 226.636719 C 87.5 244.988281 72.625 259.863281 54.277344 259.863281 C 35.929688 259.863281 21.050781 244.988281 21.050781 226.636719 Z M 21.050781 226.636719 "/>
<path style=" stroke:none;fill-rule:nonzero;fill:rgb(0%,0%,0%);fill-opacity:1;" d="M 19.679688 226.636719 C 19.679688 217.089844 23.550781 208.4375 29.8125 202.175781 C 36.292969 195.679688 45.097656 192.03125 54.277344 192.042969 C 63.828125 192.042969 72.480469 195.917969 78.738281 202.175781 C 85.238281 208.65625 88.882812 217.460938 88.871094 226.636719 C 88.871094 236.191406 85 244.84375 78.738281 251.105469 C 72.257812 257.605469 63.453125 261.253906 54.277344 261.242188 C 44.722656 261.242188 36.074219 257.367188 29.8125 251.105469 C 23.550781 244.84375 19.679688 236.191406 19.679688 226.636719 Z M 22.425781 226.636719 C 22.417969 235.085938 25.773438 243.191406 31.753906 249.160156 C 37.722656 255.140625 45.828125 258.5 54.273438 258.488281 C 63.070312 258.488281 71.027344 254.921875 76.792969 249.160156 C 82.773438 243.191406 86.132812 235.085938 86.121094 226.636719 C 86.121094 217.847656 82.554688 209.882812 76.792969 204.121094 C 71.027344 198.359375 63.070312 194.792969 54.273438 194.792969 C 45.828125 194.78125 37.722656 198.140625 31.753906 204.121094 C 25.773438 210.085938 22.417969 218.191406 22.425781 226.636719 Z M 22.425781 226.636719 "/>
<path style=" stroke:none;fill-rule:evenodd;fill:rgb(0%,0%,0%);fill-opacity:1;" d="M 374.816406 137.226562 L 375 128.332031 C 377.714844 130.382812 382.886719 130.460938 385.914062 127.230469 C 387.304688 125.753906 388.082031 123.496094 387.957031 121.140625 C 387.789062 118.382812 386.613281 115.78125 384.65625 113.832031 C 373.46875 102.929688 363.578125 92.03125 363.578125 92.03125 C 362.578125 90.417969 360.929688 89.226562 360.03125 88.824219 C 358.628906 88.203125 353.792969 85.988281 350.101562 91.601562 C 346.757812 96.691406 347.253906 103.890625 347.855469 106.503906 L 358.355469 120.765625 C 361.933594 125.304688 372.023438 134.980469 374.816406 137.226562 Z M 151.125 44.714844 C 164.316406 40.292969 176.351562 36.644531 192.582031 35.199219 Z M 151.125 44.714844 "/>
<path style=" stroke:none;fill-rule:evenodd;fill:rgb(0%,0%,0%);fill-opacity:1;" d="M 151.125 44.75 C 164.316406 40.324219 176.351562 36.679688 192.582031 35.234375 L 195.058594 33.839844 C 185.980469 26.703125 176.976562 21.851562 168.015625 21.851562 C 162.386719 21.851562 150.949219 25.667969 148.378906 45.847656 Z M 268.210938 44.75 C 255.019531 40.324219 242.984375 36.679688 226.753906 35.234375 L 224.28125 33.839844 C 233.355469 26.703125 242.355469 21.851562 251.316406 21.851562 C 256.945312 21.851562 268.390625 25.667969 270.957031 45.847656 Z M 198.839844 33.207031 C 201.523438 33.070312 207.714844 32.933594 210.191406 32.933594 C 212.664062 32.933594 219.503906 33.257812 221 33.371094 Z M 198.839844 33.207031 "/>
<path style=" stroke:none;fill-rule:evenodd;fill:rgb(0%,0%,0%);fill-opacity:1;" d="M 194.753906 34.550781 C 201.390625 21.832031 207.46875 17.199219 210.832031 17.199219 C 215.035156 17.199219 219.960938 23.890625 223.820312 32.503906 L 224.636719 34.445312 L 221.277344 34.167969 C 218.992188 33.757812 212.664062 33.6875 210.191406 33.6875 C 207.714844 33.6875 202.351562 33.6875 199.117188 33.960938 Z M 194.753906 34.550781 "/>
<path style=" stroke:none;fill-rule:evenodd;fill:rgb(100%,94.901961%,17.647059%);fill-opacity:1;" d="M 181.773438 335.703125 L 175.832031 357.863281 L 164.757812 331.144531 L 157.867188 329.296875 L 149.46875 360.632812 L 156.945312 362.636719 L 162.929688 340.300781 L 174.179688 367.253906 L 180.894531 369.054688 L 189.292969 337.714844 Z M 207.582031 339.660156 L 199.066406 339.214844 L 197.371094 371.609375 L 205.886719 372.054688 Z M 215.230469 339.382812 L 215.828125 343.652344 L 224.914062 342.371094 L 228.832031 370.230469 L 237.277344 369.042969 L 233.359375 341.1875 L 242.308594 339.929688 L 241.710938 335.664062 Z M 303.113281 326.179688 C 307.238281 333.40625 306.40625 338.667969 300.042969 342.339844 L 297.027344 344.082031 L 285.097656 323.429688 L 288.355469 321.542969 C 295.972656 317.148438 300.265625 321.058594 303.113281 326.179688 Z M 286.519531 317.613281 L 275.527344 323.957031 L 291.800781 352.148438 L 302.714844 345.847656 C 314.066406 339.289062 315.117188 329.394531 310.667969 321.492188 C 305.289062 312.089844 296.464844 311.871094 286.519531 317.613281 Z M 265.925781 357.527344 L 262.6875 347.5625 L 272.300781 344.4375 L 270.953125 340.296875 L 261.34375 343.417969 L 258.578125 334.910156 L 268.453125 331.707031 L 267.121094 327.605469 L 249.09375 333.464844 L 259.117188 364.3125 L 279 357.855469 L 277.652344 353.710938 Z M 142.507812 321.78125 L 132.902344 339.113281 C 130.003906 344.335938 127.015625 347.644531 122.128906 344.824219 C 117.277344 342.136719 118.398438 338.128906 121.367188 332.769531 L 130.996094 315.398438 L 123.238281 311.101562 L 113.070312 329.441406 C 107.460938 339.5625 114.53125 345.796875 120.015625 348.835938 C 125.917969 352.105469 134.488281 354.539062 140.050781 344.507812 L 150.261719 326.078125 Z M 137.011719 131.234375 L 137.011719 283.125 L 209.648438 329.816406 L 282.277344 283.125 L 282.371094 131.472656 C 280.070312 129.414062 275.234375 124.898438 271.421875 122.570312 L 147.535156 122.570312 C 144.371094 124.785156 138.085938 130.066406 137.011719 131.234375 Z M 137.011719 131.234375 "/>
<path style=" stroke:none;fill-rule:nonzero;fill:rgb(0%,0%,0%);fill-opacity:1;" d="M 138.386719 131.234375 L 138.386719 282.378906 L 209.648438 328.1875 L 280.90625 282.378906 L 280.996094 131.472656 L 283.75 131.472656 L 283.65625 283.125 L 283.65625 283.871094 L 283.023438 284.28125 L 210.386719 330.972656 L 209.648438 331.449219 L 208.902344 330.972656 L 136.273438 284.28125 L 135.636719 283.871094 L 135.636719 131.234375 Z M 138.386719 131.234375 "/>
<path style=" stroke:none;fill-rule:nonzero;fill:rgb(0%,0%,0%);fill-opacity:1;" d="M 281.457031 132.503906 C 280.800781 131.914062 281.292969 132.351562 280.597656 131.722656 L 280.589844 131.722656 C 278.113281 129.484375 273.960938 125.734375 270.703125 123.742188 L 272.136719 121.398438 C 275.652344 123.554688 279.902344 127.394531 282.441406 129.683594 L 282.433594 129.683594 L 283.292969 130.449219 Z M 281.457031 132.503906 "/>
<path style=" stroke:none;fill-rule:nonzero;fill:rgb(0%,0%,0%);fill-opacity:1;" d="M 271.421875 123.945312 L 147.535156 123.945312 L 147.535156 121.195312 L 271.421875 121.195312 Z M 271.421875 123.945312 "/>
<path style=" stroke:none;fill-rule:nonzero;fill:rgb(0%,0%,0%);fill-opacity:1;" d="M 148.324219 123.699219 C 146.84375 124.738281 144.746094 126.386719 142.832031 127.960938 C 140.589844 129.808594 138.566406 131.570312 138.023438 132.164062 L 136 130.304688 C 136.605469 129.640625 138.746094 127.773438 141.089844 125.84375 C 143.128906 124.164062 145.300781 122.449219 146.742188 121.441406 Z M 148.324219 123.699219 "/>
<path style=" stroke:none;fill-rule:evenodd;fill:rgb(76.078431%,19.607843%,15.294118%);fill-opacity:1;" d="M 214.78125 196.203125 C 214.273438 195.980469 212.464844 197.4375 211.640625 198.746094 C 210.816406 200.054688 210.574219 201.738281 211.742188 202.355469 C 212.914062 202.976562 214.386719 202.171875 214.738281 200.121094 C 214.941406 198.917969 215.335938 196.441406 214.78125 196.203125 Z M 200.875 200.121094 C 201.179688 202.183594 202.699219 202.976562 203.867188 202.355469 C 205.039062 201.734375 204.800781 200.050781 203.972656 198.742188 C 203.144531 197.4375 201.445312 195.980469 200.9375 196.199219 C 200.382812 196.441406 200.703125 198.953125 200.875 200.121094 Z M 208.167969 220.324219 C 210.609375 216.320312 211.625 212.160156 211.625 212.160156 L 204.640625 212.160156 C 204.640625 212.160156 205.761719 216.421875 208.167969 220.324219 Z M 209.371094 190.238281 L 215.007812 180.425781 L 219.410156 190.238281 L 226.707031 190.238281 C 222.300781 194.367188 220.511719 200.601562 220.511719 204.730469 L 220.511719 209.269531 C 220.511719 211.199219 219.550781 214.359375 219.550781 214.359375 C 219.550781 214.359375 225.867188 219.1875 226.84375 220 C 227.253906 220.34375 227.691406 220.542969 227.390625 221.378906 C 226.890625 222.800781 222.621094 224.703125 222.167969 225.089844 C 221.207031 225.914062 220.945312 226.457031 221.226562 227.292969 C 221.503906 228.117188 222.300781 228.253906 223.953125 227.703125 C 225.605469 227.15625 229.042969 225.367188 231.9375 224.128906 C 234.820312 222.890625 238.675781 223.164062 238.675781 223.164062 L 238.675781 217.664062 L 227.808594 217.664062 L 227.808594 200.054688 L 225.882812 196.980469 L 230.699219 188.449219 L 235.507812 197.027344 L 233.585938 200.054688 L 233.585938 209.269531 L 239.15625 209.269531 L 239.15625 200.054688 L 237.230469 197.027344 L 242.046875 188.496094 L 246.859375 197.027344 L 244.933594 200.054688 L 244.933594 209.269531 L 250.507812 209.269531 L 250.507812 200.054688 L 248.582031 197.027344 L 253.394531 188.496094 L 258.207031 197.027344 L 256.28125 200.054688 L 256.339844 217.648438 L 245.414062 217.65625 L 245.414062 225.742188 C 247.890625 228.078125 250.230469 233.34375 250.230469 236.507812 C 250.230469 239.671875 248.167969 241.046875 248.167969 241.046875 C 248.851562 243.523438 248.71875 244.554688 248.441406 246.824219 C 248.160156 249.144531 245.273438 252.738281 245.273438 252.738281 L 245.273438 294.679688 C 245.273438 297.539062 238.675781 297.265625 238.675781 294.820312 L 238.675781 253.703125 C 234.960938 249.578125 224.78125 246.410156 224.78125 246.410156 C 221.066406 250.121094 218.730469 256.59375 218.730469 256.59375 C 220.378906 257.695312 222.859375 256.59375 223.820312 255.488281 C 224.78125 254.390625 226.707031 254.113281 227.808594 254.800781 C 228.910156 255.488281 229.183594 255.765625 228.769531 257.417969 C 228.359375 259.066406 227.667969 261.804688 227.667969 263.726562 C 227.667969 265.65625 229.875 265.238281 231.519531 265.378906 C 234.824219 265.65625 235.375 269.367188 235.101562 271.429688 C 234.824219 273.492188 233.863281 277.898438 233.863281 280.648438 C 233.863281 283.394531 234 286.148438 234.273438 287.664062 C 234.546875 289.175781 235.101562 290.828125 234.960938 292.753906 C 234.773438 295.363281 233.171875 295.78125 231.519531 294.128906 C 229.875 292.480469 206.898438 267.992188 206.898438 267.992188 C 205.386719 272.941406 211.710938 281.476562 213.777344 284.085938 C 215.839844 286.703125 215.699219 288.628906 213.914062 290.414062 C 212.125 292.203125 208.6875 293.164062 208 294.820312 C 207.3125 296.46875 209.652344 301.417969 214.464844 307.605469 C 219.277344 313.800781 208.960938 317.925781 202.769531 319.167969 C 196.578125 320.402344 196.578125 316.136719 196.992188 313.800781 C 197.402344 311.460938 197.402344 310.085938 197.269531 308.019531 C 197.132812 305.960938 195.207031 303.074219 192.589844 299.628906 C 189.976562 296.195312 189.976562 293.027344 191.078125 285.046875 C 192.179688 277.074219 191.902344 271.980469 191.902344 271.980469 C 191.902344 271.980469 189.152344 272.117188 185.164062 271.980469 C 181.171875 271.84375 177.871094 269.519531 177.597656 259.886719 C 177.324219 250.257812 177.09375 227.289062 176.449219 224.902344 C 175.8125 222.519531 173.242188 222.058594 172.140625 221.785156 C 171.039062 221.507812 170.960938 219.859375 172.0625 219.308594 C 174.925781 217.875 178.378906 214.355469 177.09375 212.15625 C 175.8125 209.953125 170.765625 210.410156 167.375 212.0625 C 163.980469 213.710938 160.402344 217.285156 159.484375 218.300781 C 158.570312 219.308594 157.835938 219.308594 157.925781 218.207031 C 158.015625 217.101562 157.285156 211.878906 156.828125 210.042969 C 156.371094 208.207031 154.714844 204.726562 154.167969 203.808594 C 153.617188 202.890625 154.167969 202.527344 155.085938 202.890625 C 156.003906 203.261719 158.019531 204.085938 159.945312 204.636719 C 161.871094 205.183594 163.703125 204.269531 164.621094 202.433594 C 165.539062 200.601562 167.28125 196.660156 168.199219 194.914062 C 169.113281 193.171875 170.582031 193.539062 171.773438 193.816406 C 172.96875 194.089844 174.070312 194.824219 175.167969 195.28125 C 176.269531 195.742188 177.183594 195.648438 177.550781 195.097656 C 177.917969 194.550781 178.378906 194.363281 179.019531 192.988281 C 179.660156 191.613281 180.488281 192.253906 180.578125 192.804688 C 183.867188 212.535156 192.410156 213.441406 192.410156 213.441406 C 191.125 216.738281 188.101562 221.96875 187.367188 223.253906 C 186.632812 224.535156 186.359375 226.277344 186.175781 227.65625 C 185.992188 229.03125 186.632812 242.046875 187.550781 246.824219 C 188.46875 251.589844 191.40625 249.761719 192.320312 248.292969 C 193.234375 246.824219 196.082031 240.773438 196.082031 240.773438 C 196.082031 240.773438 196.816406 239.121094 196.816406 237.742188 C 196.816406 236.367188 194.429688 233.339844 193.878906 232.421875 C 193.328125 231.507812 191.3125 229.671875 191.3125 225.085938 C 191.3125 220.503906 195.4375 217.289062 196.90625 216.097656 C 198.375 214.90625 198.375 213.257812 198.191406 212.25 C 197.546875 208.703125 193.785156 201.242188 191.953125 198.398438 C 190.121094 195.558594 186.542969 190.144531 186.542969 190.144531 L 193.972656 190.144531 L 198.742188 180.242188 L 203.96875 190.191406 Z M 238.671875 240.222656 L 238.671875 234.582031 C 238.671875 234.582031 237.15625 232.242188 233.441406 232.242188 C 229.730469 232.242188 227.53125 233.34375 227.53125 234.304688 C 227.53125 235.824219 230.832031 240.222656 238.671875 240.222656 Z M 142.703125 169.121094 L 276.707031 169.121094 L 276.707031 178.261719 L 142.703125 178.261719 Z M 142.703125 164.421875 L 142.703125 128.019531 L 276.707031 128.019531 L 276.707031 164.421875 Z M 142.703125 164.421875 "/>
<path style=" stroke:none;fill-rule:evenodd;fill:rgb(100%,94.901961%,17.647059%);fill-opacity:1;" d="M 250.328125 165.507812 L 250.328125 159.292969 L 240.597656 159.292969 L 240.597656 155.285156 L 248.539062 155.285156 L 248.539062 137.675781 L 241.246094 137.675781 L 238.769531 132.863281 L 236.292969 137.675781 L 229.003906 137.675781 L 229.003906 155.285156 L 236.945312 155.285156 L 236.945312 159.292969 L 217.878906 159.292969 L 217.878906 155.285156 L 225.820312 155.285156 L 225.820312 137.675781 L 218.53125 137.675781 L 216.054688 132.863281 L 213.578125 137.675781 L 206.289062 137.675781 L 206.289062 155.285156 L 214.226562 155.285156 L 214.226562 159.292969 L 194.789062 159.292969 L 194.789062 155.285156 L 202.730469 155.285156 L 202.730469 137.675781 L 195.4375 137.675781 L 192.964844 132.863281 L 190.488281 137.675781 L 183.195312 137.675781 L 183.195312 155.285156 L 191.136719 155.285156 L 191.136719 159.292969 L 175.765625 159.332031 L 160.453125 155.753906 L 163.542969 165.507812 Z M 250.328125 165.507812 "/>
<path style=" stroke:none;fill-rule:evenodd;fill:rgb(100%,94.901961%,17.647059%);fill-opacity:1;" d="M 165.742188 154.964844 L 176.011719 157.488281 L 181.519531 142.027344 L 181.523438 138.128906 Z M 190.523438 34.21875 C 174.613281 35.632812 164.824219 39.011719 151.894531 43.347656 C 152.855469 37.785156 154.148438 34.488281 156.394531 31.214844 C 156.214844 34.089844 158.5625 37.152344 163.238281 37.152344 C 167.910156 37.152344 170.511719 34.457031 170.511719 32.839844 C 170.511719 31.222656 169.53125 28.882812 167.015625 28.882812 C 164.496094 28.882812 163.960938 30.679688 164.136719 31.402344 C 164.320312 32.121094 163.777344 32.300781 163.0625 32.480469 C 162.339844 32.660156 160.363281 31.578125 161.082031 29.066406 C 161.871094 26.300781 165.214844 24.796875 169.167969 24.796875 C 169.167969 24.792969 178.574219 24.417969 190.523438 34.21875 Z M 267.554688 43.457031 C 254.625 39.121094 244.394531 35.742188 228.488281 34.324219 C 235.8125 29.222656 242.652344 24.886719 250.167969 24.886719 C 254.117188 24.886719 257.464844 26.390625 258.253906 29.15625 C 258.972656 31.671875 256.992188 32.75 256.273438 32.566406 C 255.558594 32.386719 255.019531 32.207031 255.199219 31.488281 C 255.375 30.773438 254.835938 28.972656 252.320312 28.972656 C 249.808594 28.972656 248.824219 31.308594 248.824219 32.929688 C 248.824219 34.546875 251.421875 37.242188 256.097656 37.242188 C 260.769531 37.242188 263.121094 34.175781 262.941406 31.300781 C 265.183594 34.578125 266.59375 37.894531 267.554688 43.457031 Z M 200.324219 31.261719 C 199.898438 31.941406 199.523438 32.449219 199.066406 33.210938 C 202.769531 33.054688 206.480469 32.964844 210.1875 32.9375 C 212.617188 32.9375 219.316406 33.261719 220.785156 33.371094 C 218.414062 27.882812 213.941406 20.304688 210.816406 20.304688 C 210.199219 20.304688 208.835938 19.984375 206.265625 22.9375 C 206.265625 22.9375 205.867188 24.242188 207.5 23.992188 C 209.5625 23.675781 210.347656 25.808594 210.195312 26.871094 C 209.832031 29.339844 206.957031 31.722656 204.078125 31.722656 C 201.207031 31.722656 200.324219 31.261719 200.324219 31.261719 Z M 200.324219 31.261719 "/>
<path style=" stroke:none;fill-rule:evenodd;fill:rgb(0%,0%,0%);fill-opacity:1;" d="M 61.761719 120.765625 L 72.257812 106.503906 C 72.863281 103.890625 73.359375 96.691406 70.011719 91.601562 C 66.320312 85.988281 61.480469 88.203125 60.078125 88.824219 C 59.183594 89.226562 57.539062 90.417969 56.535156 92.03125 C 56.535156 92.03125 46.464844 103.160156 35.320312 114.113281 C 33.769531 115.636719 32.023438 118.515625 31.882812 121.136719 C 31.75 123.496094 32.675781 125.847656 34.0625 127.324219 C 37.09375 130.550781 42.402344 130.382812 45.113281 128.332031 L 45.296875 137.226562 C 48.097656 134.980469 58.183594 125.304688 61.761719 120.765625 Z M 61.761719 120.765625 "/>
<path style=" stroke:none;fill-rule:evenodd;fill:rgb(100%,94.901961%,17.647059%);fill-opacity:1;" d="M 209.648438 99.980469 C 269.445312 99.980469 303.496094 156.132812 310.898438 165.996094 C 324.105469 183.605469 340.234375 197.882812 358.953125 193.140625 C 386.460938 186.171875 384.996094 145.410156 384.996094 145.410156 C 378.398438 140.636719 367.070312 134.632812 346.480469 105.421875 C 326.300781 76.8125 280.628906 34.359375 209.648438 34.359375 C 138.664062 34.359375 92.992188 76.8125 72.816406 105.421875 C 52.222656 134.628906 40.902344 140.636719 34.300781 145.410156 C 34.300781 145.410156 32.835938 186.171875 60.347656 193.140625 C 79.0625 197.882812 95.195312 183.605469 108.402344 165.996094 C 115.800781 156.132812 149.855469 99.980469 209.648438 99.980469 Z M 209.648438 99.980469 "/>
<path style=" stroke:none;fill-rule:nonzero;fill:rgb(0%,0%,0%);fill-opacity:1;" d="M 209.648438 98.605469 C 265.25 98.605469 298.757812 146.359375 309.65625 161.898438 C 310.644531 163.304688 311.449219 164.449219 311.992188 165.171875 C 318.503906 173.859375 325.726562 181.714844 333.597656 186.792969 C 341.316406 191.777344 349.675781 194.074219 358.617188 191.808594 C 383.046875 185.621094 383.675781 151.355469 383.628906 146.121094 C 383.105469 145.746094 382.527344 145.347656 381.917969 144.929688 C 375 140.15625 363.875 132.480469 345.355469 106.210938 C 333.777344 89.785156 313.714844 68.761719 285.226562 53.964844 C 264.5 43.203125 239.304688 35.734375 209.648438 35.734375 C 179.988281 35.734375 154.789062 43.203125 134.066406 53.964844 C 105.574219 68.761719 85.519531 89.785156 73.941406 106.210938 C 55.414062 132.484375 44.292969 140.15625 37.367188 144.933594 C 36.761719 145.351562 36.1875 145.746094 35.664062 146.117188 C 35.617188 151.351562 36.246094 185.617188 60.675781 191.808594 C 69.617188 194.074219 77.976562 191.773438 85.695312 186.792969 C 93.566406 181.714844 100.789062 173.855469 107.304688 165.171875 C 107.84375 164.449219 108.648438 163.304688 109.636719 161.898438 C 120.542969 146.363281 154.050781 98.605469 209.648438 98.605469 Z M 209.648438 101.359375 C 155.476562 101.359375 122.582031 148.230469 111.886719 163.480469 C 111.105469 164.605469 110.308594 165.714844 109.5 166.816406 C 102.808594 175.742188 95.359375 183.828125 87.183594 189.105469 C 78.851562 194.480469 69.785156 196.953125 60.015625 194.476562 C 31.414062 187.230469 32.921875 145.492188 32.925781 145.371094 L 32.945312 144.699219 L 33.5 144.292969 C 34.253906 143.753906 35.003906 143.234375 35.816406 142.675781 C 42.582031 138.007812 53.449219 130.511719 71.699219 104.632812 C 83.46875 87.9375 103.855469 66.566406 132.8125 51.527344 C 153.894531 40.578125 179.515625 32.984375 209.652344 32.984375 C 239.785156 32.984375 265.40625 40.578125 286.488281 51.527344 C 315.445312 66.566406 335.832031 87.933594 347.605469 104.632812 C 365.847656 130.503906 376.71875 138.007812 383.480469 142.671875 C 384.292969 143.230469 385.046875 143.753906 385.800781 144.292969 L 386.359375 144.699219 L 386.375 145.371094 C 386.378906 145.492188 387.886719 187.230469 359.285156 194.476562 C 349.515625 196.949219 340.449219 194.480469 332.121094 189.105469 C 323.941406 183.828125 316.496094 175.742188 309.800781 166.816406 C 309.128906 165.921875 308.363281 164.824219 307.414062 163.480469 C 296.710938 148.230469 263.824219 101.359375 209.648438 101.359375 Z M 209.648438 101.359375 "/>
<path style=" stroke:none;fill-rule:evenodd;fill:rgb(76.078431%,19.607843%,15.294118%);fill-opacity:1;" d="M 209.648438 94.683594 C 267.292969 94.683594 301.597656 143.582031 312.878906 159.648438 C 313.617188 160.714844 314.367188 161.773438 315.128906 162.816406 C 330.382812 183.152344 344.296875 191.390625 357.648438 188.007812 C 376.964844 183.113281 379.339844 156.53125 379.609375 148.5 L 379.617188 148.195312 L 379.371094 148.027344 C 372.582031 143.339844 361.199219 135.5 342.152344 108.476562 C 330.765625 92.332031 287.566406 39.660156 209.648438 39.660156 C 131.730469 39.660156 88.535156 92.332031 77.148438 108.476562 C 58.226562 135.304688 46.355469 143.503906 39.972656 147.910156 L 39.726562 148.078125 L 39.734375 148.382812 C 40.011719 156.445312 42.410156 183.132812 61.644531 188.007812 C 75.003906 191.394531 88.914062 183.152344 104.160156 162.816406 C 104.71875 162.078125 105.503906 160.953125 106.417969 159.652344 C 117.695312 143.582031 152 94.683594 209.648438 94.683594 Z M 209.648438 94.683594 "/>
<path style=" stroke:none;fill-rule:evenodd;fill:rgb(100%,94.901961%,17.647059%);fill-opacity:1;" d="M 85.625 117.207031 L 79.605469 124.378906 L 90.890625 147.703125 L 66.675781 139.789062 L 61.492188 145.964844 L 86.347656 166.816406 L 90.101562 162.34375 L 72.554688 147.566406 L 96.089844 155.210938 L 98.5625 152.265625 L 87.347656 129.789062 L 104.996094 144.59375 L 110.476562 138.0625 Z M 117.042969 112.324219 L 111.414062 118.359375 L 105.648438 107.214844 Z M 103.933594 97.601562 L 98.398438 103.53125 L 113.941406 134.4375 L 117.734375 130.371094 L 113.511719 122.191406 L 121.035156 114.125 L 129.523438 117.726562 L 135.78125 111.015625 Z M 141.878906 68.238281 L 154.035156 87.691406 L 126.945312 77.570312 L 120.890625 81.351562 L 138.082031 108.863281 L 144.644531 104.765625 L 132.390625 85.148438 L 159.777344 95.308594 L 165.671875 91.621094 L 148.484375 64.113281 Z M 244.550781 84.167969 L 247.957031 74.265625 L 257.511719 77.554688 L 258.933594 73.433594 L 249.378906 70.144531 L 252.285156 61.6875 L 262.105469 65.070312 L 263.511719 60.992188 L 245.582031 54.824219 L 235.023438 85.496094 L 254.789062 92.300781 L 256.207031 88.179688 Z M 300.039062 82.117188 L 297.117188 85.289062 L 303.9375 91.425781 L 285.117188 112.335938 L 291.453125 118.039062 L 310.273438 97.136719 L 316.992188 103.179688 L 319.875 99.980469 Z M 309.351562 130.828125 L 317.371094 124.101562 L 323.867188 131.835938 L 327.203125 129.035156 L 320.714844 121.296875 L 327.5625 115.546875 L 334.238281 123.503906 L 337.535156 120.730469 L 325.355469 106.210938 L 300.503906 127.0625 L 313.9375 143.074219 L 317.273438 140.273438 Z M 346.941406 139.089844 C 349.203125 141.601562 349.210938 144.589844 346.628906 146.914062 C 344.042969 149.242188 340.792969 148.742188 338.3125 145.984375 L 336.851562 144.367188 L 345.050781 136.988281 Z M 342.621094 155.074219 C 342.683594 155.144531 347.644531 157.601562 353.121094 152.667969 C 357.699219 148.542969 356.160156 142.886719 351.382812 137.578125 L 342.542969 127.765625 L 318.4375 149.472656 L 324.144531 155.808594 L 333.714844 147.1875 L 336.539062 150.320312 L 330.4375 163.980469 L 337.683594 169.808594 Z M 220.613281 52.105469 L 220.378906 65.355469 L 207.632812 65.132812 L 207.867188 51.878906 L 199.339844 51.734375 L 198.777344 84.167969 L 207.300781 84.316406 L 207.558594 69.488281 L 220.300781 69.710938 L 220.039062 84.539062 L 228.574219 84.6875 L 229.136719 52.25 Z M 266.789062 100.316406 C 272.835938 103.949219 279.445312 103.367188 282.523438 98.246094 C 284.785156 94.667969 284.804688 91.710938 282.113281 86.421875 C 281.386719 84.886719 280.5 83.804688 279.890625 82.449219 C 278.710938 80.203125 277.609375 78.390625 278.652344 76.65625 C 279.765625 74.800781 282.371094 74.667969 284.75 76.097656 C 287.246094 77.597656 288.277344 80.085938 288.78125 81.8125 L 292.710938 80.113281 C 291.503906 76.914062 289.722656 74.03125 285.691406 71.613281 C 278.753906 67.445312 273.097656 68.542969 270.75 72.457031 C 268.375 76.410156 269.046875 79.671875 270.8125 83.035156 C 270.8125 83.035156 271.949219 84.980469 272.609375 86.253906 C 274.160156 88.886719 275.972656 92.171875 274.710938 94.265625 C 273.164062 96.847656 270.460938 97.417969 267.859375 95.804688 C 264.523438 93.683594 263.742188 91.242188 263.042969 88.847656 L 258.738281 90.707031 C 259.6875 93.960938 261.914062 97.382812 266.789062 100.316406 Z M 178.351562 53.804688 C 167.730469 56.066406 160.773438 63.859375 163.066406 74.425781 C 164.375 80.128906 169.488281 90.671875 185.605469 87.242188 C 190.0625 86.390625 192.503906 84.582031 194.855469 82.359375 L 191.886719 78.972656 C 190.808594 80.207031 189.128906 82 185.425781 82.785156 C 177.640625 84.441406 172.992188 78.109375 171.835938 72.660156 C 170.121094 64.601562 174.816406 59.007812 180.175781 57.871094 C 183.929688 57.074219 186.246094 58.066406 187.710938 58.660156 L 187.757812 58.652344 L 188.746094 54.515625 C 186.179688 53.480469 183.117188 52.796875 178.351562 53.804688 Z M 350.328125 107.753906 C 349.882812 105.828125 349.253906 97.609375 352.371094 93.273438 C 355.253906 89.277344 357.878906 90.632812 359.289062 91.257812 C 359.921875 91.539062 361.824219 92.773438 362.199219 95.203125 C 362.398438 96.507812 361.992188 98.4375 360.980469 99.855469 C 359.007812 102.421875 354.515625 104.121094 354.515625 104.121094 C 354.515625 104.121094 360.269531 115.394531 372.46875 126.589844 L 372.421875 134.199219 C 355.726562 118.097656 350.328125 107.753906 350.328125 107.753906 Z M 350.328125 107.753906 "/>
<path style=" stroke:none;fill-rule:evenodd;fill:rgb(100%,94.901961%,17.647059%);fill-opacity:1;" d="M 358.703125 105.425781 C 360.355469 108.269531 364.546875 115.230469 375.042969 125.066406 C 376.785156 126.699219 381.125 128.058594 383.574219 125.304688 C 384.515625 124.246094 385.117188 122.738281 385.023438 120.980469 C 384.910156 118.960938 383.667969 116.605469 382.472656 115.582031 C 380.378906 113.785156 371.355469 104.671875 364.886719 97.515625 C 364.75 98.820312 363.605469 101 363.605469 101 C 362.738281 102.226562 361.65625 103.984375 358.703125 105.425781 Z M 47.683594 133.742188 L 47.640625 126.554688 C 59.839844 115.359375 65.601562 104.121094 65.601562 104.121094 C 65.601562 104.121094 61.109375 102.421875 59.136719 99.855469 C 58.125 98.4375 57.714844 96.507812 57.914062 95.203125 C 58.292969 92.773438 60.191406 91.539062 60.824219 91.257812 C 62.234375 90.632812 64.859375 89.277344 67.734375 93.273438 C 70.859375 97.609375 70.042969 105.769531 69.597656 107.695312 C 69.601562 107.695312 63.914062 117.601562 47.683594 133.742188 Z M 47.683594 133.742188 "/>
<path style=" stroke:none;fill-rule:evenodd;fill:rgb(100%,94.901961%,17.647059%);fill-opacity:1;" d="M 61.203125 105.425781 C 59.554688 108.269531 55.363281 115.230469 44.867188 125.066406 C 43.128906 126.699219 38.785156 128.058594 36.339844 125.304688 C 35.398438 124.246094 34.796875 122.738281 34.890625 120.980469 C 34.996094 118.960938 36.242188 116.605469 37.4375 115.582031 C 39.53125 113.785156 48.554688 104.671875 55.019531 97.515625 C 55.160156 98.820312 56.300781 101 56.300781 101 C 57.171875 102.226562 58.257812 103.984375 61.203125 105.425781 Z M 61.203125 105.425781 "/>
<path style=" stroke:none;fill-rule:evenodd;fill:rgb(76.078431%,19.607843%,15.294118%);fill-opacity:1;" d="M 27.304688 226.914062 C 27.304688 211.988281 39.40625 199.890625 54.328125 199.890625 C 69.257812 199.890625 81.355469 211.988281 81.355469 226.914062 C 81.355469 241.84375 69.253906 253.9375 54.328125 253.9375 C 39.40625 253.9375 27.304688 241.84375 27.304688 226.914062 Z M 27.304688 226.914062 "/>
<path style=" stroke:none;fill-rule:evenodd;fill:rgb(100%,94.901961%,17.647059%);fill-opacity:1;" d="M 68.867188 207.34375 C 69.332031 207.714844 70.503906 208.675781 70.503906 208.675781 C 72.84375 210.773438 74.953125 213.226562 76.175781 216.15625 C 77.722656 219.847656 72.957031 225.390625 71.566406 226.695312 C 65.261719 232.574219 61.34375 232.476562 59.09375 232.800781 C 56.839844 233.121094 55.421875 231.730469 55.46875 230.042969 C 55.613281 225.082031 59.128906 216.625 60.121094 215.0625 C 60.769531 214.042969 61.886719 213.390625 61.886719 213.390625 C 64.210938 212.738281 66.46875 211.738281 67.636719 210.414062 C 68.8125 209.089844 68.867188 207.34375 68.867188 207.34375 Z M 46.253906 203.777344 C 48.816406 202.914062 51.5 202.46875 54.203125 202.457031 C 58.429688 202.457031 62.449219 203.246094 65.871094 205.410156 C 66.738281 205.957031 67 206.652344 67 207.632812 C 67 210.8125 61.984375 211.894531 58.648438 211.894531 C 55.3125 211.894531 51.21875 210.570312 48.320312 209.667969 C 45.421875 208.757812 44.777344 207.066406 44.777344 206.316406 C 44.773438 205.574219 45.332031 204.085938 46.253906 203.777344 Z M 35.5625 242.714844 C 32.160156 239.355469 29.734375 233.3125 29.734375 226.933594 C 29.734375 224.460938 30.097656 222.074219 30.777344 219.824219 C 30.777344 219.824219 31.351562 218.796875 31.90625 219.675781 C 32.304688 220.296875 32.84375 220.9375 33.328125 221.789062 C 33.816406 222.640625 36.457031 224.648438 36.210938 226.230469 C 35.28125 232.207031 36.121094 240.179688 36.398438 241.488281 C 36.679688 242.789062 36.269531 243.414062 35.5625 242.714844 Z M 36.214844 222.222656 C 35.007812 221.558594 33.574219 218.492188 33.105469 217.574219 C 32.769531 216.921875 32.789062 215.089844 33.246094 214.285156 C 35.234375 210.765625 38.070312 207.5625 41.742188 205.859375 C 42.164062 205.667969 42.816406 205.648438 42.816406 206.6875 C 42.816406 207.269531 43.101562 208.183594 43.113281 208.746094 C 43.128906 209.300781 43.378906 210.5 42.628906 211.433594 C 41.886719 212.363281 38.59375 218.128906 37.792969 221.386719 C 37.613281 222.128906 37.417969 222.894531 36.214844 222.222656 Z M 54.726562 251.398438 C 54.554688 251.386719 54.378906 251.402344 54.203125 251.402344 C 49.703125 251.402344 44.773438 249.695312 41.851562 248.0625 C 38.832031 246.371094 37.703125 238.648438 37.703125 234.699219 C 37.703125 221.953125 42.957031 214.289062 43.792969 212.796875 C 44.628906 211.3125 46.488281 211.125 47.886719 211.496094 C 49.28125 211.871094 49.820312 212.152344 51.421875 212.632812 C 52.289062 212.898438 54.027344 213.257812 55.328125 213.539062 C 56.632812 213.820312 58.023438 214.097656 57.191406 216.519531 C 56.351562 218.9375 53.546875 224.792969 53.238281 231.71875 C 52.960938 237.96875 53.796875 244.203125 55.214844 248.023438 C 56.136719 250.503906 56.121094 251.441406 54.726562 251.398438 Z M 61.144531 250.40625 C 59.746094 250.855469 59.101562 249.859375 58.449219 249.113281 C 55.9375 246.246094 55.289062 238.523438 55.289062 237.503906 C 55.289062 236.472656 55.660156 235.359375 56.371094 235.339844 C 62.480469 235.1875 66.824219 233.402344 70.804688 230.132812 C 74.785156 226.859375 76.507812 223.160156 76.871094 222.4375 C 77.234375 221.714844 78.019531 221.84375 78.207031 222.886719 C 78.363281 223.742188 78.679688 225.285156 78.679688 226.929688 C 78.675781 238.035156 71.195312 247.144531 61.144531 250.40625 Z M 61.144531 250.40625 "/>
<path style=" stroke:none;fill-rule:evenodd;fill:rgb(76.078431%,19.607843%,15.294118%);fill-opacity:1;" d="M 393.050781 226.914062 C 393.050781 211.988281 380.949219 199.890625 366.027344 199.890625 C 351.097656 199.890625 339.003906 211.988281 339.003906 226.914062 C 339.003906 241.84375 351.097656 253.9375 366.027344 253.9375 C 380.949219 253.9375 393.050781 241.84375 393.050781 226.914062 Z M 393.050781 226.914062 "/>
<path style=" stroke:none;fill-rule:evenodd;fill:rgb(100%,94.901961%,17.647059%);fill-opacity:1;" d="M 352.710938 210.410156 C 353.882812 211.738281 356.136719 212.738281 358.464844 213.386719 C 358.464844 213.386719 359.582031 214.039062 360.230469 215.0625 C 361.222656 216.625 364.734375 225.082031 364.886719 230.042969 C 364.933594 231.726562 363.515625 233.117188 361.261719 232.800781 C 359.011719 232.476562 355.089844 232.574219 348.789062 226.691406 C 347.394531 225.390625 342.628906 219.84375 344.179688 216.15625 C 345.394531 213.222656 347.507812 210.769531 349.855469 208.675781 C 349.855469 208.675781 351.019531 207.710938 351.488281 207.339844 C 351.484375 207.34375 351.542969 209.089844 352.710938 210.410156 Z M 375.582031 206.316406 C 375.582031 207.066406 374.9375 208.757812 372.039062 209.667969 C 369.136719 210.570312 365.046875 211.894531 361.710938 211.894531 C 358.371094 211.894531 353.355469 210.816406 353.355469 207.632812 C 353.355469 206.652344 353.621094 205.957031 354.484375 205.410156 C 357.90625 203.246094 361.925781 202.457031 366.148438 202.457031 C 368.9375 202.457031 371.601562 202.949219 374.101562 203.777344 C 375.019531 204.085938 375.582031 205.574219 375.582031 206.316406 Z M 383.953125 241.484375 C 384.230469 240.179688 385.070312 232.203125 384.140625 226.230469 C 383.894531 224.644531 386.539062 222.636719 387.027344 221.785156 C 387.511719 220.933594 388.046875 220.296875 388.441406 219.675781 C 389 218.796875 389.574219 219.824219 389.574219 219.824219 C 390.269531 222.128906 390.625 224.523438 390.621094 226.929688 C 390.621094 233.308594 388.191406 239.351562 384.785156 242.714844 C 384.085938 243.414062 383.671875 242.789062 383.953125 241.484375 Z M 382.558594 221.390625 C 381.757812 218.128906 378.464844 212.363281 377.71875 211.4375 C 376.972656 210.503906 377.222656 209.304688 377.230469 208.75 C 377.25 208.183594 377.535156 207.269531 377.535156 206.691406 C 377.535156 205.648438 378.1875 205.667969 378.601562 205.863281 C 382.28125 207.5625 385.117188 210.765625 387.105469 214.289062 C 387.558594 215.09375 387.582031 216.921875 387.246094 217.578125 C 386.78125 218.492188 385.34375 221.5625 384.136719 222.226562 C 382.9375 222.894531 382.742188 222.128906 382.558594 221.390625 Z M 365.140625 248.027344 C 366.554688 244.203125 367.394531 237.972656 367.113281 231.71875 C 366.804688 224.792969 364 218.941406 363.164062 216.523438 C 362.324219 214.101562 363.722656 213.824219 365.027344 213.542969 C 366.328125 213.261719 368.066406 212.898438 368.9375 212.636719 C 370.53125 212.152344 371.070312 211.871094 372.46875 211.496094 C 373.863281 211.125 375.722656 211.3125 376.5625 212.800781 C 377.402344 214.289062 382.652344 221.953125 382.652344 234.699219 C 382.652344 238.648438 381.523438 246.371094 378.503906 248.0625 C 375.585938 249.699219 370.65625 251.402344 366.148438 251.402344 C 365.976562 251.402344 365.800781 251.390625 365.632812 251.398438 C 364.234375 251.441406 364.214844 250.503906 365.140625 248.027344 Z M 341.679688 226.929688 C 341.679688 225.28125 341.996094 223.738281 342.152344 222.886719 C 342.339844 221.84375 343.121094 221.714844 343.484375 222.4375 C 343.847656 223.160156 345.574219 226.859375 349.550781 230.132812 C 353.535156 233.402344 357.875 235.1875 363.980469 235.339844 C 364.691406 235.359375 365.066406 236.472656 365.066406 237.503906 C 365.066406 238.523438 364.421875 246.246094 361.90625 249.113281 C 361.253906 249.859375 360.613281 250.855469 359.207031 250.40625 C 349.15625 247.144531 341.679688 238.035156 341.679688 226.929688 Z M 341.679688 226.929688 "/>
<path style=" stroke:none;fill-rule:nonzero;fill:rgb(99.215686%,90.196078%,18.431373%);fill-opacity:1;" d="M 339.117188 226.773438 C 339.109375 219.566406 341.972656 212.65625 347.074219 207.566406 C 351.988281 202.652344 358.78125 199.609375 366.277344 199.609375 C 373.777344 199.609375 380.570312 202.652344 385.484375 207.566406 C 390.398438 212.480469 393.4375 219.269531 393.4375 226.773438 C 393.4375 234.273438 390.398438 241.066406 385.484375 245.976562 C 380.570312 250.890625 373.78125 253.929688 366.277344 253.929688 C 359.074219 253.941406 352.160156 251.078125 347.070312 245.976562 C 341.96875 240.890625 339.109375 233.976562 339.117188 226.773438 Z M 339.394531 226.773438 C 339.394531 234.199219 342.402344 240.917969 347.265625 245.785156 C 352.132812 250.652344 358.851562 253.660156 366.28125 253.660156 C 373.707031 253.660156 380.425781 250.652344 385.296875 245.789062 C 390.160156 240.921875 393.167969 234.203125 393.167969 226.773438 C 393.167969 219.34375 390.160156 212.628906 385.292969 207.761719 C 380.253906 202.710938 373.414062 199.875 366.28125 199.886719 C 359.148438 199.878906 352.304688 202.710938 347.269531 207.761719 C 342.21875 212.796875 339.382812 219.640625 339.394531 226.773438 Z M 339.394531 226.773438 "/>
</g>
</svg>
