<?xml version="1.0" encoding="UTF-8"?>
<svg xmlns="http://www.w3.org/2000/svg" xmlns:xlink="http://www.w3.org/1999/xlink" width="250px" height="250px" viewBox="0 0 250 249" version="1.1">
<g id="surface1">
<path style=" stroke:none;fill-rule:nonzero;fill:rgb(0%,25.490196%,43.921569%);fill-opacity:1;" d="M 125 0 C 56.070312 0 0.00390625 55.851562 0.00390625 124.496094 C 0.00390625 193.140625 56.070312 249.007812 125 249.007812 C 193.929688 249.007812 249.996094 193.148438 249.996094 124.503906 C 249.996094 55.859375 193.921875 0 125 0 "/>
<path style=" stroke:none;fill-rule:nonzero;fill:rgb(100%,100%,100%);fill-opacity:1;" d="M 124.828125 13.523438 C 186.394531 13.523438 236.300781 63.234375 236.292969 124.550781 C 236.285156 185.871094 186.367188 235.570312 124.804688 235.558594 C 63.238281 235.546875 13.34375 185.824219 13.363281 124.503906 C 13.382812 63.203125 63.28125 13.523438 124.828125 13.523438 M 124.828125 8.941406 C 69.464844 8.953125 21.816406 47.917969 11.027344 102 C 0.234375 156.085938 29.304688 210.234375 80.457031 231.328125 C 131.609375 252.425781 190.601562 234.597656 221.359375 188.746094 C 252.113281 142.890625 246.070312 81.785156 206.921875 42.796875 C 185.195312 21.042969 155.632812 8.851562 124.828125 8.941406 "/>
<path style=" stroke:none;fill-rule:nonzero;fill:rgb(100%,100%,100%);fill-opacity:1;" d="M 156.230469 56.480469 L 167.261719 30.054688 C 165.460938 29.246094 163.625 28.492188 161.761719 27.789062 L 150.738281 54.195312 C 152.605469 54.886719 154.4375 55.648438 156.230469 56.480469 "/>
<path style=" stroke:none;fill-rule:nonzero;fill:rgb(100%,100%,100%);fill-opacity:1;" d="M 124.449219 49.5 L 124.449219 40.84375 L 131.71875 40.84375 L 138.035156 50.730469 C 140.5 51.171875 142.941406 51.738281 145.351562 52.425781 L 137.835938 40.484375 C 142.140625 39.335938 145.65625 35.554688 145.65625 31.0625 C 145.65625 25.671875 140.535156 21.277344 135.121094 21.277344 L 118.683594 21.277344 L 118.683594 49.730469 C 120.597656 49.578125 122.527344 49.488281 124.484375 49.488281 Z M 124.449219 26.34375 L 135.121094 26.34375 C 137.738281 26.34375 139.863281 28.457031 139.863281 31.066406 C 139.863281 33.671875 137.738281 35.785156 135.121094 35.785156 L 124.449219 35.785156 Z M 124.449219 26.34375 "/>
<path style=" stroke:none;fill-rule:nonzero;fill:rgb(100%,100%,100%);fill-opacity:1;" d="M 72.535156 70.027344 L 66.03125 64.125 L 74.085938 55.285156 C 77.695312 51.304688 77.695312 44.890625 73.734375 41.257812 C 69.554688 37.6875 63.285156 38.066406 59.570312 42.113281 L 47.609375 55.230469 L 68.445312 74.097656 C 69.753906 72.671875 71.152344 71.3125 72.535156 69.984375 M 55.277344 54.3125 L 63.097656 45.769531 C 64.863281 43.839844 67.859375 43.703125 69.796875 45.460938 C 71.730469 47.214844 71.871094 50.203125 70.105469 52.128906 L 62.277344 60.710938 Z M 55.277344 54.3125 "/>
<path style=" stroke:none;fill-rule:nonzero;fill:rgb(100%,100%,100%);fill-opacity:1;" d="M 181.363281 46.058594 C 185.667969 45.050781 193.558594 52.867188 195.074219 58.160156 C 196.328125 57.207031 199.125 55.160156 199.125 55.160156 C 195.789062 45.699219 182.492188 36.226562 176.175781 42.148438 C 172.433594 45.671875 174.550781 51.132812 177.828125 54.53125 L 181.003906 57.855469 C 184.242188 61.25 187.074219 64.636719 184.464844 66.765625 C 181.695312 69.050781 173.9375 63.335938 169.273438 53.503906 L 165.097656 56.640625 C 166.59375 60.160156 168.714844 63.378906 171.367188 66.136719 C 174.785156 69.730469 178.523438 72.066406 181.859375 72.722656 C 184.484375 73.238281 187.101562 72.851562 188.824219 71.25 C 193.125 67.28125 191.53125 61.476562 184.800781 54.386719 L 181.996094 51.449219 C 178.882812 48.175781 180.191406 46.316406 181.363281 46.058594 "/>
<path style=" stroke:none;fill-rule:nonzero;fill:rgb(100%,100%,100%);fill-opacity:1;" d="M 93.128906 26.03125 C 91.089844 26.683594 89.074219 27.394531 87.085938 28.167969 L 84.9375 60.585938 C 86.867188 59.386719 88.851562 58.296875 90.882812 57.316406 L 91.1875 49.757812 C 95.148438 48.019531 99.238281 46.59375 103.421875 45.5 L 108.417969 51.214844 C 110.621094 50.738281 112.847656 50.316406 115.113281 50.082031 Z M 91.40625 44.539062 L 91.894531 32.308594 L 100.011719 41.546875 C 97.101562 42.390625 94.238281 43.390625 91.433594 44.539062 "/>
<path style=" stroke:none;fill-rule:nonzero;fill:rgb(0%,25.490196%,43.921569%);fill-opacity:1;" d="M 124.910156 145.167969 C 109.988281 145.167969 97.9375 156.632812 97.9375 170.75 C 97.941406 175.5625 99.367188 180.269531 102.042969 184.28125 C 116.785156 189.933594 133.113281 189.933594 147.859375 184.28125 C 150.535156 180.269531 151.960938 175.5625 151.964844 170.75 C 151.964844 156.644531 139.867188 145.195312 124.953125 145.195312 "/>
<path style=" stroke:none;fill-rule:nonzero;fill:rgb(89.019608%,2.352941%,7.45098%);fill-opacity:1;" d="M 148.507812 126.195312 L 101.273438 126.195312 C 93.40625 139.042969 83.332031 150.417969 71.503906 159.789062 C 76.621094 167.539062 83.367188 174.09375 91.28125 178.988281 C 90.980469 177.285156 90.828125 175.5625 90.828125 173.832031 C 90.828125 156.3125 106.082031 142.097656 124.902344 142.097656 C 143.71875 142.097656 158.972656 156.300781 158.972656 173.832031 C 158.972656 175.5625 158.820312 177.285156 158.523438 178.988281 C 166.425781 174.101562 173.167969 167.558594 178.277344 159.816406 C 166.453125 150.4375 156.375 139.058594 148.507812 126.203125 "/>
<path style=" stroke:none;fill-rule:nonzero;fill:rgb(89.019608%,2.352941%,7.45098%);fill-opacity:1;" d="M 147.039062 123.714844 C 137.050781 106.273438 131.152344 85.679688 130.710938 61.59375 C 128.796875 61.421875 126.867188 61.3125 124.910156 61.3125 C 122.953125 61.3125 120.996094 61.421875 119.0625 61.59375 C 118.621094 85.671875 112.75 106.265625 102.734375 123.703125 Z M 147.039062 123.714844 "/>
<path style=" stroke:none;fill-rule:nonzero;fill:rgb(100%,100%,100%);fill-opacity:1;" d="M 124.910156 56.75 C 87.113281 56.753906 56.472656 87.273438 56.476562 124.921875 C 56.476562 162.566406 87.117188 193.085938 124.914062 193.085938 C 162.714844 193.089844 193.355469 162.574219 193.363281 124.925781 C 193.300781 87.296875 162.691406 56.808594 124.910156 56.75 M 124.910156 61.332031 C 126.875 61.332031 128.796875 61.429688 130.71875 61.609375 C 131.152344 85.691406 137.035156 106.28125 147.046875 123.722656 L 102.734375 123.722656 C 112.722656 106.28125 118.632812 85.691406 119.0625 61.609375 C 120.984375 61.4375 122.941406 61.332031 124.910156 61.332031 M 61.058594 124.925781 C 61.0625 93.269531 84.441406 66.4375 115.90625 61.96875 C 113.101562 102.832031 96.007812 132.464844 67.859375 153.488281 C 63.375 144.632812 61.042969 134.847656 61.050781 124.925781 M 147.8125 184.28125 C 133.066406 189.929688 116.742188 189.929688 101.996094 184.28125 C 99.339844 180.265625 97.925781 175.558594 97.9375 170.75 C 97.9375 156.644531 110.035156 145.195312 124.945312 145.195312 C 139.859375 145.195312 151.964844 156.632812 151.964844 170.75 C 151.960938 175.5625 150.53125 180.269531 147.859375 184.28125 M 158.566406 178.988281 C 158.867188 177.285156 159.015625 175.5625 159.019531 173.832031 C 159.019531 156.3125 143.765625 142.097656 124.945312 142.097656 C 106.128906 142.097656 90.875 156.300781 90.875 173.832031 C 90.875 175.5625 91.027344 177.285156 91.332031 178.988281 C 83.421875 174.09375 76.671875 167.542969 71.558594 159.789062 C 83.382812 150.414062 93.460938 139.042969 101.328125 126.195312 L 148.5625 126.195312 C 156.429688 139.050781 166.503906 150.429688 178.332031 159.804688 C 173.222656 167.550781 166.480469 174.09375 158.578125 178.980469 M 133.921875 61.96875 C 154.265625 64.859375 171.96875 77.324219 181.488281 95.460938 C 191.007812 113.601562 191.179688 135.195312 181.949219 153.480469 C 153.867188 132.464844 136.726562 102.832031 133.921875 61.96875 "/>
<path style=" stroke:none;fill-rule:nonzero;fill:rgb(80.784314%,67.058824%,36.470588%);fill-opacity:1;" d="M 127.175781 178.332031 C 126.414062 177.878906 125.867188 177.140625 125.660156 176.285156 C 125.5625 175.953125 125.253906 175.722656 124.90625 175.722656 C 124.558594 175.722656 124.25 175.953125 124.152344 176.285156 C 123.941406 177.140625 123.394531 177.878906 122.636719 178.332031 C 122.5 178.414062 122.492188 178.476562 122.546875 178.585938 C 123.070312 179.640625 123.804688 180.578125 124.703125 181.34375 C 124.835938 181.449219 124.882812 181.449219 124.910156 181.449219 C 124.9375 181.449219 124.992188 181.449219 125.117188 181.34375 C 126.015625 180.578125 126.75 179.640625 127.273438 178.585938 C 127.328125 178.476562 127.273438 178.421875 127.183594 178.332031 "/>
<path style=" stroke:none;fill-rule:nonzero;fill:rgb(80.784314%,67.058824%,36.470588%);fill-opacity:1;" d="M 129.355469 164.039062 C 129.355469 161.441406 125.945312 153.335938 124.910156 153.335938 C 124.816406 153.347656 124.726562 153.386719 124.65625 153.453125 C 123.414062 154.453125 120.460938 161.628906 120.460938 164.046875 C 120.460938 165.988281 124.394531 171.089844 124.394531 173.867188 C 124.394531 174.152344 124.628906 174.382812 124.914062 174.382812 C 125.199219 174.382812 125.433594 174.152344 125.433594 173.867188 C 125.433594 171.089844 129.367188 165.996094 129.367188 164.066406 "/>
<path style=" stroke:none;fill-rule:nonzero;fill:rgb(80.784314%,67.058824%,36.470588%);fill-opacity:1;" d="M 122.691406 173.632812 C 120.886719 168.792969 117.664062 166.140625 114.363281 166.140625 C 111.875 166.140625 109.855469 168.152344 109.855469 170.632812 C 109.855469 173.113281 111.875 175.125 114.363281 175.125 C 115.078125 175.125 115.761719 174.84375 116.269531 174.34375 C 116.695312 173.925781 116.871094 173.316406 116.726562 172.734375 C 116.707031 172.675781 116.660156 172.628906 116.601562 172.605469 C 116.546875 172.578125 116.480469 172.578125 116.421875 172.601562 L 116.148438 172.601562 C 115.582031 172.644531 115.039062 172.367188 114.742188 171.882812 C 114.445312 171.398438 114.445312 170.792969 114.742188 170.308594 C 115.039062 169.824219 115.582031 169.546875 116.148438 169.589844 C 117.628906 169.589844 120.265625 171.011719 121.671875 174.082031 C 121.765625 174.273438 121.960938 174.394531 122.175781 174.390625 C 122.328125 174.390625 122.46875 174.328125 122.574219 174.222656 C 122.679688 174.117188 122.738281 173.972656 122.734375 173.824219 C 122.734375 173.742188 122.714844 173.664062 122.679688 173.589844 "/>
<path style=" stroke:none;fill-rule:nonzero;fill:rgb(80.784314%,67.058824%,36.470588%);fill-opacity:1;" d="M 135.3125 166.148438 C 132 166.148438 128.824219 168.84375 126.984375 173.644531 C 126.949219 173.714844 126.929688 173.796875 126.929688 173.875 C 126.925781 174.183594 127.171875 174.4375 127.480469 174.441406 C 127.691406 174.441406 127.886719 174.324219 127.984375 174.136719 C 129.394531 171.101562 132.019531 169.644531 133.507812 169.644531 C 134.34375 169.644531 135.023438 170.320312 135.023438 171.15625 C 135.023438 171.988281 134.34375 172.664062 133.507812 172.664062 L 133.234375 172.664062 C 133.113281 172.621094 132.980469 172.679688 132.929688 172.796875 C 132.789062 173.378906 132.964844 173.992188 133.390625 174.414062 C 133.894531 174.917969 134.578125 175.195312 135.292969 175.199219 C 137.785156 175.199219 139.804688 173.1875 139.804688 170.707031 C 139.804688 168.222656 137.785156 166.210938 135.292969 166.210938 "/>
<path style=" stroke:none;fill-rule:nonzero;fill:rgb(100%,100%,100%);fill-opacity:1;" d="M 67.878906 200.695312 L 66.507812 199.671875 L 67.671875 195.863281 L 64.0625 192.78125 L 60.453125 194.496094 L 59.144531 193.375 L 69.835938 188.34375 L 71.144531 189.449219 Z M 69.257812 190.328125 L 65.570312 192.070312 L 68.132812 194.238281 Z M 69.257812 190.328125 "/>
<path style=" stroke:none;fill-rule:nonzero;fill:rgb(100%,100%,100%);fill-opacity:1;" d="M 78.453125 194.820312 L 72.453125 203.878906 L 71.164062 203.042969 L 77.160156 193.984375 Z M 78.453125 194.820312 "/>
<path style=" stroke:none;fill-rule:nonzero;fill:rgb(100%,100%,100%);fill-opacity:1;" d="M 83.152344 197.804688 L 85 207.921875 L 85.027344 207.929688 L 88.816406 200.761719 L 90.179688 201.46875 L 85.199219 210.921875 L 83.855469 210.3125 L 81.988281 200.078125 L 81.960938 200.058594 L 78.117188 207.347656 L 76.792969 206.574219 L 81.789062 197.085938 Z M 83.152344 197.804688 "/>
<path style=" stroke:none;fill-rule:nonzero;fill:rgb(100%,100%,100%);fill-opacity:1;" d="M 101.664062 205.683594 L 101.15625 207.128906 L 97.613281 205.90625 L 94.5625 214.605469 L 93.109375 214.101562 L 96.152344 205.394531 L 92.605469 204.175781 L 93.109375 202.71875 Z M 101.664062 205.683594 "/>
<path style=" stroke:none;fill-rule:nonzero;fill:rgb(100%,100%,100%);fill-opacity:1;" d="M 125.1875 213.652344 L 130.097656 213.734375 L 130.097656 216.5625 C 130.097656 218.476562 127.933594 219.726562 125.242188 219.683594 C 123.203125 219.714844 121.304688 218.632812 120.296875 216.863281 C 119.289062 215.097656 119.332031 212.921875 120.410156 211.191406 C 121.484375 209.464844 123.421875 208.457031 125.460938 208.566406 C 127.179688 208.566406 128.820312 209.296875 129.96875 210.570312 L 128.886719 211.648438 C 128.09375 210.664062 126.890625 210.097656 125.621094 210.105469 C 122.78125 210.058594 121.113281 211.902344 121.113281 214.101562 C 121.113281 215.21875 121.574219 216.28125 122.386719 217.046875 C 123.203125 217.8125 124.296875 218.210938 125.414062 218.144531 C 127.273438 218.144531 128.609375 217.335938 128.625 216.429688 L 128.625 215.234375 L 125.261719 215.179688 Z M 125.1875 213.652344 "/>
<path style=" stroke:none;fill-rule:nonzero;fill:rgb(100%,100%,100%);fill-opacity:1;" d="M 141.871094 207.203125 L 142.085938 208.71875 L 134.933594 209.746094 L 135.339844 212.511719 L 138.9375 212 L 139.164062 213.519531 L 135.554688 214.039062 L 136.023438 217.257812 L 143.4375 216.195312 L 143.65625 217.714844 L 134.714844 218.992188 L 133.191406 208.433594 Z M 141.871094 207.203125 "/>
<path style=" stroke:none;fill-rule:nonzero;fill:rgb(100%,100%,100%);fill-opacity:1;" d="M 151.59375 204.515625 C 153.226562 204.019531 155.058594 204.378906 155.679688 206.464844 C 156.355469 208.683594 155.074219 209.824219 154.226562 210.15625 L 157.574219 213.753906 L 155.953125 214.328125 L 152.632812 210.734375 L 148.824219 211.875 L 150.105469 216.160156 L 148.636719 216.574219 L 145.550781 206.367188 Z M 147.472656 207.355469 L 148.375 210.363281 L 152.964844 208.964844 C 153.433594 208.894531 153.847656 208.621094 154.09375 208.21875 C 154.335938 207.816406 154.386719 207.324219 154.226562 206.878906 C 153.886719 205.71875 152.902344 205.703125 152.054688 205.980469 Z M 147.472656 207.355469 "/>
<path style=" stroke:none;fill-rule:nonzero;fill:rgb(100%,100%,100%);fill-opacity:1;" d="M 184.792969 198.378906 L 183.449219 199.449219 L 180.136719 197.425781 L 176.238281 200.183594 L 176.996094 204.046875 L 175.625 204.945312 L 173.363281 193.472656 L 174.761719 192.492188 Z M 175.140625 194.523438 L 175.921875 198.523438 L 178.628906 196.582031 Z M 175.140625 194.523438 "/>
<path style=" stroke:none;fill-rule:nonzero;fill:rgb(100%,100%,100%);fill-opacity:1;" d="M 181.445312 187.148438 L 188.761719 194.984375 L 187.605469 195.996094 L 180.316406 188.191406 Z M 181.445312 187.148438 "/>
<path style=" stroke:none;fill-rule:nonzero;fill:rgb(100%,100%,100%);fill-opacity:1;" d="M 185.695312 182.96875 L 196.003906 183.679688 L 196.011719 183.660156 L 189.96875 178.234375 L 190.996094 177.09375 L 198.964844 184.226562 L 198.035156 185.367188 L 187.625 184.660156 L 187.597656 184.6875 L 193.722656 190.175781 L 192.640625 191.273438 L 184.664062 184.109375 Z M 185.695312 182.96875 "/>
<path style=" stroke:none;fill-rule:nonzero;fill:rgb(100%,100%,100%);fill-opacity:1;" d="M 167.5625 197.300781 L 166.191406 198 L 165.957031 205.558594 L 159.675781 201.300781 L 158.304688 202.007812 L 162.980469 211.59375 L 164.375 210.976562 L 161.128906 204.15625 L 161.15625 204.136719 L 167.378906 208.34375 L 167.625 200.867188 L 167.652344 200.851562 L 171.296875 207.480469 L 172.621094 206.726562 Z M 167.5625 197.300781 "/>
<path style=" stroke:none;fill-rule:nonzero;fill:rgb(100%,100%,100%);fill-opacity:1;" d="M 63.835938 183.5625 C 62.933594 180.308594 59.652344 177.121094 57.144531 177.121094 C 56.609375 177.109375 56.085938 177.277344 55.65625 177.597656 C 55.164062 177.941406 54.835938 178.476562 54.753906 179.070312 C 54.667969 180.234375 55.039062 181.382812 55.789062 182.277344 L 56.925781 183.796875 C 57.828125 184.972656 58.660156 186.203125 58.480469 187.175781 C 58.398438 187.554688 58.15625 187.878906 57.820312 188.074219 C 57.617188 188.203125 57.378906 188.269531 57.132812 188.261719 C 55.582031 188.261719 52.96875 185.511719 51.722656 181.578125 L 51.722656 181.503906 L 50.59375 182.554688 C 51.023438 184.03125 51.71875 185.417969 52.652344 186.644531 C 53.585938 188.027344 54.917969 189.097656 56.46875 189.726562 C 56.855469 189.855469 57.257812 189.921875 57.667969 189.925781 C 58.171875 189.9375 58.671875 189.792969 59.09375 189.511719 C 59.671875 189.113281 60.066406 188.496094 60.175781 187.804688 C 60.363281 186.546875 59.695312 184.882812 58.179688 182.871094 L 57.171875 181.523438 C 56.367188 180.453125 56.394531 179.726562 56.566406 179.359375 C 56.714844 179.015625 57.035156 178.777344 57.40625 178.730469 L 57.585938 178.730469 C 59.390625 178.730469 62.023438 181.765625 62.699219 184.121094 L 62.699219 184.171875 L 62.753906 184.171875 L 63.855469 183.542969 Z M 63.835938 183.5625 "/>
<path style=" stroke:none;fill-rule:nonzero;fill:rgb(100%,100%,100%);fill-opacity:1;" d="M 110.890625 214.09375 L 107.074219 213.257812 L 107.425781 211.722656 L 111.234375 212.585938 Z M 110.890625 214.09375 "/>
</g>
</svg>
