<?xml version="1.0" encoding="UTF-8"?>
<svg xmlns="http://www.w3.org/2000/svg" xmlns:xlink="http://www.w3.org/1999/xlink" width="250px" height="250px" viewBox="0 0 250 250" version="1.1">
<g id="surface1">
<rect x="0" y="0" width="250" height="250" style="fill:rgb(100%,100%,100%);fill-opacity:1;stroke:none;"/>
<path style=" stroke:none;fill-rule:evenodd;fill:rgb(0%,0%,0%);fill-opacity:1;" d="M 6.375 246.324219 L 61.398438 21.007812 C 61.398438 21.007812 66.652344 3.675781 87.65625 3.675781 L 243.625 3.675781 L 190.058594 230.015625 C 190.058594 230.015625 185.859375 246.292969 172.207031 246.292969 C 158.550781 246.292969 6.375 246.324219 6.375 246.324219 Z M 6.375 246.324219 "/>
<path style=" stroke:none;fill-rule:evenodd;fill:rgb(45.882353%,47.843137%,50.980392%);fill-opacity:1;" d="M 11.28125 243.449219 L 65.140625 20.914062 C 65.140625 20.914062 70.28125 3.945312 90.84375 3.945312 L 243.539062 3.945312 L 191.109375 227.484375 C 191.109375 227.484375 187 243.421875 173.628906 243.421875 C 160.261719 243.421875 11.28125 243.449219 11.28125 243.449219 Z M 11.28125 243.449219 "/>
<path style=" stroke:none;fill-rule:evenodd;fill:rgb(33.72549%,21.568627%,49.411765%);fill-opacity:1;" d="M 37.5625 165.585938 L 72.839844 26.160156 C 72.839844 26.160156 79 10.203125 89.359375 10.203125 L 233.824219 10.203125 L 199.667969 152.429688 C 199.667969 152.429688 194.625 165.308594 184.546875 165.308594 C 174.46875 165.308594 37.5625 165.585938 37.5625 165.585938 Z M 37.5625 165.585938 "/>
<path style=" stroke:none;fill-rule:evenodd;fill:rgb(0%,0%,0%);fill-opacity:1;" d="M 52.347656 122.90625 L 108.757812 74.867188 L 99.65625 70.863281 L 114.214844 64.675781 L 101.476562 49.757812 L 125.496094 50.484375 L 124.222656 24.101562 L 151.519531 39.386719 L 164.253906 19.730469 L 175.539062 43.386719 L 201.558594 33.742188 L 189.367188 59.035156 L 219.980469 68.707031 L 195.835938 86.121094 L 205.925781 108.484375 L 183.546875 104.164062 L 172.445312 139.285156 L 157.886719 118.359375 L 86.191406 161.847656 L 137.324219 117.8125 L 68.542969 161.484375 L 116.035156 117.265625 L 42.476562 160.132812 L 107.183594 103.140625 L 47.796875 139.464844 L 110.941406 84.511719 Z M 52.347656 122.90625 "/>
<path style=" stroke:none;fill-rule:evenodd;fill:rgb(88.235294%,70.980392%,23.529412%);fill-opacity:1;" d="M 48.214844 124.117188 L 109.558594 71.875 L 99.664062 67.523438 L 115.496094 60.792969 L 101.644531 44.566406 L 127.765625 45.359375 L 126.378906 16.664062 L 156.0625 33.289062 L 169.914062 11.917969 L 182.183594 37.640625 L 210.480469 27.152344 L 197.222656 54.660156 L 220.769531 64.554688 L 201.179688 79.789062 L 212.855469 103.140625 L 190.890625 103.734375 L 178.816406 141.925781 L 162.988281 119.167969 L 85.023438 166.464844 L 140.628906 118.574219 L 65.828125 166.070312 L 117.476562 117.980469 L 39.3125 166.070312 L 107.777344 103.734375 L 43.269531 142.121094 L 111.933594 82.363281 Z M 48.214844 124.117188 "/>
<path style=" stroke:none;fill-rule:evenodd;fill:rgb(76.078431%,47.843137%,25.490196%);fill-opacity:1;" d="M 119.515625 72.734375 C 119.515625 96.660156 138.914062 116.058594 162.839844 116.058594 C 186.765625 116.058594 206.164062 96.660156 206.164062 72.734375 C 206.164062 48.804688 186.765625 29.410156 162.839844 29.410156 C 138.914062 29.410156 119.515625 48.804688 119.515625 72.734375 Z M 119.515625 72.734375 "/>
<path style=" stroke:none;fill-rule:evenodd;fill:rgb(61.960784%,26.666667%,29.803922%);fill-opacity:1;" d="M 170.367188 105.730469 C 149.339844 105.730469 132.292969 88.683594 132.292969 67.65625 C 132.292969 47.027344 148.707031 30.238281 169.1875 29.613281 C 167.085938 29.304688 164.960938 29.148438 162.839844 29.144531 C 138.914062 29.144531 119.515625 48.542969 119.515625 72.46875 C 119.515625 96.398438 138.914062 115.792969 162.839844 115.792969 C 182.503906 115.792969 199.097656 102.6875 204.390625 84.738281 C 198.128906 97.1875 185.25 105.730469 170.367188 105.730469 Z M 170.367188 105.730469 "/>
<path style=" stroke:none;fill-rule:evenodd;fill:rgb(87.843137%,69.803922%,23.137255%);fill-opacity:1;" d="M 158.46875 32.148438 C 158.46875 32.148438 179.066406 27.386719 195.375 47.03125 C 211.6875 66.671875 199.78125 90.125 199.78125 90.125 C 199.78125 90.125 202.875 61.671875 190.851562 49.171875 C 178.828125 36.671875 172.160156 33.933594 158.46875 32.148438 Z M 158.46875 32.148438 "/>
<path style=" stroke:none;fill-rule:evenodd;fill:rgb(87.843137%,69.803922%,23.921569%);fill-opacity:1;" d="M 144.980469 33.433594 C 144.980469 33.433594 165.605469 32.496094 180.011719 47.851562 C 194.417969 63.210938 192.242188 81.664062 192.15625 85.832031 C 191.917969 97.5 192.15625 112.144531 178.703125 114.402344 C 178.703125 114.402344 186.558594 105.832031 187.15625 86.308594 C 187.75 66.78125 185.25 57.734375 178.582031 50.589844 C 171.914062 43.449219 164.984375 35.929688 143.671875 34.027344 Z M 144.980469 33.433594 "/>
<path style=" stroke:none;fill-rule:evenodd;fill:rgb(87.843137%,69.803922%,23.921569%);fill-opacity:1;" d="M 125.796875 50.1875 C 125.796875 50.1875 130.773438 41.1875 143.390625 41.785156 C 156.007812 42.378906 165.34375 43.25 168.917969 33.246094 L 169.988281 33.246094 C 169.988281 33.246094 172.617188 36.375 167.261719 40.542969 C 161.902344 44.710938 151.511719 43.589844 150.675781 43.589844 C 149.84375 43.589844 130.199219 45.78125 125.796875 50.1875 Z M 130.246094 100.238281 C 130.246094 100.238281 125.128906 94.644531 125.007812 92.855469 C 124.890625 91.070312 137.628906 70.710938 145.007812 64.761719 C 152.390625 58.808594 170.042969 40.578125 194.570312 43.796875 C 194.570312 43.796875 195.640625 45.582031 194.328125 46.175781 C 193.019531 46.773438 175.777344 42.652344 153.0625 62.832031 C 134.964844 78.902344 130.246094 100.238281 130.246094 100.238281 Z M 130.246094 100.238281 "/>
<path style=" stroke:none;fill-rule:evenodd;fill:rgb(87.843137%,69.803922%,23.921569%);fill-opacity:1;" d="M 148.105469 113.761719 L 147.75 112.332031 C 147.75 112.332031 158.480469 109.835938 161.554688 90.425781 C 165.367188 66.375 183.34375 46.972656 206.324219 66.851562 C 206.324219 66.851562 206.914062 69.472656 206.203125 71.257812 C 205.488281 73.042969 204.179688 69.828125 204.179688 69.828125 C 204.179688 69.828125 195.941406 60.582031 186.742188 62.457031 C 176.75 64.492188 172.988281 65.898438 167.628906 87.6875 C 162.269531 109.472656 161.320312 108.402344 158.222656 115.78125 C 157.933594 116.480469 148.105469 113.761719 148.105469 113.761719 Z M 148.105469 113.761719 "/>
<path style=" stroke:none;fill-rule:evenodd;fill:rgb(0%,0%,0%);fill-opacity:1;" d="M 146.15625 32.394531 C 146.15625 32.394531 164.300781 30.957031 178.710938 46.3125 C 193.113281 61.671875 190.9375 80.125 190.851562 84.292969 C 190.613281 95.960938 190.648438 111.484375 177.195312 113.746094 C 177.195312 113.746094 185.257812 104.292969 185.851562 84.769531 C 186.449219 65.242188 183.949219 56.195312 177.28125 49.050781 C 170.613281 41.90625 165.097656 35.484375 143.785156 33.578125 Z M 146.15625 32.394531 "/>
<path style=" stroke:none;fill-rule:evenodd;fill:rgb(0%,0%,0%);fill-opacity:1;" d="M 126.046875 49.503906 C 126.046875 49.503906 131.921875 39.050781 144.539062 39.648438 C 157.160156 40.242188 166.523438 39.921875 170.097656 29.921875 L 171.164062 29.921875 C 171.164062 29.921875 173.234375 35.242188 167.875 39.410156 C 162.519531 43.574219 152.160156 42.265625 151.324219 42.265625 C 150.492188 42.265625 130.449219 45.101562 126.046875 49.503906 Z M 128.660156 99.414062 C 128.660156 99.414062 123.613281 93.652344 123.707031 91.316406 C 123.777344 89.527344 136.324219 69.171875 143.707031 63.21875 C 151.085938 57.269531 171.15625 40.25 195.679688 43.464844 C 195.679688 43.464844 197.683594 45.046875 196.371094 45.640625 C 195.0625 46.234375 174.757812 42.089844 152.039062 62.269531 C 133.941406 78.339844 128.660156 99.414062 128.660156 99.414062 Z M 128.660156 99.414062 "/>
<path style=" stroke:none;fill-rule:evenodd;fill:rgb(0%,0%,0%);fill-opacity:1;" d="M 146.949219 113.351562 L 146.160156 112.066406 C 146.160156 112.066406 157.179688 108.820312 160.253906 89.414062 C 164.066406 65.363281 183.28125 46.515625 206.257812 66.398438 C 206.257812 66.398438 206.851562 69.015625 206.140625 70.804688 C 205.425781 72.589844 204.113281 69.375 204.113281 69.375 C 204.113281 69.375 194.78125 60.007812 185.613281 62.027344 C 176.445312 64.054688 171.683594 64.886719 166.328125 86.671875 C 160.96875 108.460938 159.433594 108.046875 156.339844 115.425781 C 156.046875 116.121094 146.949219 113.351562 146.949219 113.351562 Z M 46.832031 237.308594 L 16.273438 237.308594 L 20.078125 226.851562 L 39.039062 226.851562 C 39.039062 226.851562 41.296875 226.027344 41.910156 223.566406 C 42.527344 221.109375 41.707031 220.289062 39.246094 220.289062 L 25.914062 220.289062 C 25.914062 220.289062 20.171875 219.878906 22.632812 213.3125 C 25.09375 206.75 26.9375 200.1875 26.9375 200.1875 C 26.9375 200.1875 27.964844 196.289062 32.066406 196.289062 L 63.039062 196.289062 L 60.167969 206.542969 L 40.359375 206.542969 C 40.359375 206.542969 39.65625 206.542969 38.628906 208.597656 C 37.605469 210.644531 38.449219 212.289062 41.320312 212.289062 L 54.015625 212.289062 C 54.015625 212.289062 58.730469 212.902344 57.910156 217.824219 C 57.089844 222.746094 53.808594 232.59375 53.808594 232.59375 C 53.808594 232.59375 50.320312 237.308594 46.832031 237.308594 Z M 170.105469 237.308594 L 139.542969 237.308594 L 143.351562 226.851562 L 162.3125 226.851562 C 162.3125 226.851562 164.566406 226.027344 165.183594 223.566406 C 165.800781 221.109375 164.976562 220.289062 162.519531 220.289062 L 149.183594 220.289062 C 149.183594 220.289062 143.441406 219.878906 145.902344 213.3125 C 148.363281 206.75 150.210938 200.1875 150.210938 200.1875 C 150.210938 200.1875 151.234375 196.289062 155.339844 196.289062 L 186.308594 196.289062 L 183.4375 206.542969 L 163.632812 206.542969 C 163.632812 206.542969 162.929688 206.542969 161.902344 208.597656 C 160.878906 210.644531 161.722656 212.289062 164.59375 212.289062 L 177.285156 212.289062 C 177.285156 212.289062 182.003906 212.902344 181.183594 217.824219 C 180.363281 222.746094 177.082031 232.59375 177.082031 232.59375 C 177.082031 232.59375 173.59375 237.308594 170.105469 237.308594 Z M 82.730469 196.285156 L 68.960938 196.285156 L 60.78125 225.003906 C 60.78125 225.003906 59.347656 229.105469 60.574219 232.796875 C 61.804688 236.488281 65.5 237.308594 65.5 237.308594 L 90.933594 237.308594 L 104.175781 196.289062 L 90.410156 196.289062 L 81.792969 223.773438 C 81.792969 223.773438 80.679688 225.621094 79.449219 225.621094 L 75.550781 225.621094 C 75.550781 225.621094 73.910156 225.414062 74.523438 223.15625 C 75.140625 220.902344 82.730469 196.285156 82.730469 196.285156 Z M 119.648438 237.308594 L 133.417969 237.308594 L 141.597656 208.59375 C 141.597656 208.59375 143.03125 204.492188 141.800781 200.800781 C 140.570312 197.105469 136.875 196.285156 136.875 196.285156 L 111.445312 196.285156 L 98.203125 237.308594 L 111.96875 237.308594 L 120.585938 209.824219 C 120.585938 209.824219 121.699219 207.976562 122.929688 207.976562 L 126.828125 207.976562 C 126.828125 207.976562 128.472656 208.183594 127.855469 210.441406 C 127.238281 212.695312 119.648438 237.308594 119.648438 237.308594 Z M 119.648438 237.308594 "/>
<path style=" stroke:none;fill-rule:evenodd;fill:rgb(100%,100%,100%);fill-opacity:1;" d="M 50.9375 233.414062 L 20.375 233.414062 L 24.179688 222.953125 L 43.140625 222.953125 C 43.140625 222.953125 45.398438 222.128906 46.011719 219.671875 C 46.628906 217.210938 45.808594 216.390625 43.347656 216.390625 L 30.015625 216.390625 C 30.015625 216.390625 24.273438 215.980469 26.734375 209.414062 C 29.195312 202.851562 31.039062 196.289062 31.039062 196.289062 C 31.039062 196.289062 32.066406 192.390625 36.167969 192.390625 L 67.140625 192.390625 L 64.269531 202.644531 L 44.464844 202.644531 C 44.464844 202.644531 43.757812 202.644531 42.734375 204.699219 C 41.707031 206.75 42.550781 208.390625 45.425781 208.390625 L 58.117188 208.390625 C 58.117188 208.390625 62.835938 209.007812 62.011719 213.929688 C 61.191406 218.851562 57.910156 228.695312 57.910156 228.695312 C 57.910156 228.695312 54.421875 233.414062 50.9375 233.414062 Z M 174.207031 233.414062 L 143.644531 233.414062 L 147.453125 222.953125 L 166.414062 222.953125 C 166.414062 222.953125 168.671875 222.128906 169.285156 219.671875 C 169.902344 217.210938 169.082031 216.390625 166.617188 216.390625 L 153.285156 216.390625 C 153.285156 216.390625 147.542969 215.980469 150.007812 209.414062 C 152.464844 202.851562 154.3125 196.289062 154.3125 196.289062 C 154.3125 196.289062 155.339844 192.390625 159.441406 192.390625 L 190.414062 192.390625 L 187.539062 202.644531 L 167.734375 202.644531 C 167.734375 202.644531 167.027344 202.644531 166.003906 204.699219 C 164.976562 206.75 165.824219 208.390625 168.695312 208.390625 L 181.386719 208.390625 C 181.386719 208.390625 186.101562 209.007812 185.28125 213.929688 C 184.464844 218.851562 181.179688 228.699219 181.179688 228.699219 C 181.179688 228.699219 177.695312 233.414062 174.207031 233.414062 Z M 86.832031 192.390625 L 73.0625 192.390625 L 64.882812 221.105469 C 64.882812 221.105469 63.445312 225.207031 64.675781 228.902344 C 65.910156 232.59375 69.601562 233.414062 69.601562 233.414062 L 95.035156 233.414062 L 108.277344 192.390625 L 94.511719 192.390625 L 85.894531 219.875 C 85.894531 219.875 84.78125 221.722656 83.546875 221.722656 L 79.652344 221.722656 C 79.652344 221.722656 78.007812 221.515625 78.625 219.261719 C 79.242188 217.003906 86.832031 192.390625 86.832031 192.390625 Z M 123.75 233.414062 L 137.519531 233.414062 L 145.699219 204.695312 C 145.699219 204.695312 147.132812 200.59375 145.902344 196.902344 C 144.671875 193.210938 140.980469 192.390625 140.980469 192.390625 L 115.546875 192.390625 L 102.304688 233.410156 L 116.074219 233.410156 L 124.6875 205.925781 C 124.6875 205.925781 125.804688 204.082031 127.035156 204.082031 L 130.929688 204.082031 C 130.929688 204.082031 132.574219 204.285156 131.957031 206.542969 C 131.339844 208.796875 123.75 233.414062 123.75 233.414062 Z M 123.75 233.414062 "/>
<path style=" stroke:none;fill-rule:evenodd;fill:rgb(0%,0%,0%);fill-opacity:1;" d="M 162.027344 189.570312 L 155.984375 189.570312 L 161.183594 175.972656 L 166.808594 175.972656 Z M 182.550781 179.382812 L 186.203125 175.972656 L 192.109375 175.972656 L 191.546875 178.21875 L 185.539062 182.71875 L 188.171875 186.933594 L 187.609375 189.570312 L 182.832031 189.570312 L 181.003906 185.808594 L 177.492188 189.570312 L 171.726562 189.570312 L 172.148438 187.777344 L 177.914062 182.4375 L 174.539062 177.238281 L 174.820312 175.972656 L 180.863281 175.972656 Z M 147.128906 175.972656 L 134.898438 175.972656 L 130.121094 189.570312 L 135.742188 189.570312 L 139.820312 178.960938 L 144.035156 178.960938 L 140.519531 189.570312 L 146.285156 189.570312 L 149.375 179.625 C 149.378906 179.625 150.640625 175.972656 147.128906 175.972656 Z M 123.707031 184.316406 L 124.742188 180.824219 L 116.289062 180.679688 L 116.765625 179.117188 L 125.25 179.117188 L 126.183594 175.972656 L 111.886719 175.972656 L 107.488281 189.570312 L 122.144531 189.570312 L 123.210938 185.988281 L 114.660156 185.988281 L 115.191406 184.253906 Z M 69.445312 184.359375 L 67.992188 189.570312 L 73.050781 189.570312 L 76.886719 175.972656 L 71.785156 175.972656 L 70.449219 180.769531 L 65.476562 180.613281 L 66.867188 175.972656 L 61.386719 175.972656 L 57.308594 189.570312 L 62.792969 189.570312 L 64.378906 184.277344 Z M 48.875 175.972656 L 34.820312 175.972656 L 31.023438 189.570312 L 36.644531 189.570312 L 37.910156 185.953125 L 45.5 185.953125 C 48.59375 185.953125 49.296875 184.546875 49.296875 184.546875 C 49.296875 184.546875 50.84375 179.90625 51.125 177.800781 C 51.40625 175.691406 48.875 175.972656 48.875 175.972656 Z M 45.5 182.296875 L 38.753906 182.296875 L 38.894531 182.15625 L 39.597656 179.347656 L 46.449219 179.347656 Z M 99.621094 175.972656 L 89.078125 175.972656 C 86.828125 176.113281 85.84375 178.082031 85.84375 178.082031 C 85.84375 178.082031 83.875 183.140625 82.890625 185.953125 C 81.910156 188.761719 84.578125 189.570312 84.578125 189.570312 L 96.246094 189.570312 C 98.070312 189.671875 99.335938 187.214844 99.335938 187.214844 C 99.335938 187.214844 101.304688 181.453125 102.007812 179.066406 C 102.710938 176.675781 99.621094 175.972656 99.621094 175.972656 Z M 93.996094 185.808594 L 88.234375 185.808594 L 90.765625 179.347656 L 96.667969 179.347656 Z M 93.996094 185.808594 "/>
<path style=" stroke:none;fill-rule:evenodd;fill:rgb(100%,100%,100%);fill-opacity:1;" d="M 164.128906 186.941406 L 158.085938 186.941406 L 163.285156 173.347656 L 168.90625 173.347656 Z M 184.652344 176.753906 L 188.308594 173.347656 L 194.210938 173.347656 L 193.648438 175.597656 L 187.640625 180.089844 L 190.277344 184.308594 L 189.710938 186.941406 L 184.933594 186.941406 L 183.105469 183.183594 L 179.589844 186.941406 L 173.828125 186.941406 L 174.25 185.152344 L 180.015625 179.8125 L 176.640625 174.609375 L 176.921875 173.347656 L 182.964844 173.347656 Z M 149.230469 173.347656 L 137 173.347656 L 132.21875 186.941406 L 137.84375 186.941406 L 141.921875 176.335938 L 146.136719 176.335938 L 142.625 186.941406 L 148.386719 186.941406 L 151.476562 177 C 151.476562 177 152.746094 173.347656 149.230469 173.347656 Z M 125.808594 181.695312 L 126.84375 178.199219 L 118.390625 178.050781 L 118.867188 176.496094 L 127.347656 176.496094 L 128.285156 173.347656 L 113.984375 173.347656 L 109.589844 186.941406 L 124.246094 186.941406 L 125.308594 183.359375 L 116.757812 183.359375 L 117.292969 181.628906 Z M 71.546875 181.730469 L 70.09375 186.941406 L 75.152344 186.941406 L 78.984375 173.347656 L 73.886719 173.347656 L 72.550781 178.144531 L 67.578125 177.988281 L 68.96875 173.347656 L 63.484375 173.347656 L 59.410156 186.941406 L 64.890625 186.941406 L 66.476562 181.652344 Z M 50.976562 173.347656 L 36.917969 173.347656 L 33.125 186.941406 L 38.746094 186.941406 L 40.011719 183.324219 L 47.605469 183.324219 C 50.695312 183.324219 51.398438 181.921875 51.398438 181.921875 C 51.398438 181.921875 52.945312 177.28125 53.226562 175.171875 C 53.507812 173.066406 50.976562 173.347656 50.976562 173.347656 Z M 47.601562 179.671875 L 40.855469 179.671875 L 40.996094 179.53125 L 41.699219 176.71875 L 48.546875 176.71875 Z M 101.71875 173.347656 L 91.175781 173.347656 C 88.925781 173.484375 87.941406 175.453125 87.941406 175.453125 C 87.941406 175.453125 85.976562 180.515625 84.992188 183.324219 C 84.007812 186.136719 86.679688 186.941406 86.679688 186.941406 L 98.34375 186.941406 C 100.171875 187.042969 101.4375 184.589844 101.4375 184.589844 C 101.4375 184.589844 103.40625 178.828125 104.109375 176.4375 C 104.8125 174.046875 101.71875 173.347656 101.71875 173.347656 Z M 96.097656 183.183594 L 90.335938 183.183594 L 92.863281 176.71875 L 98.769531 176.71875 Z M 96.097656 183.183594 "/>
</g>
</svg>
