<?xml version="1.0" encoding="UTF-8"?>
<svg xmlns="http://www.w3.org/2000/svg" xmlns:xlink="http://www.w3.org/1999/xlink" width="420px" height="420px" viewBox="0 0 420 420" version="1.1">
<g id="surface1">
<rect x="0" y="0" width="420" height="420" style="fill:rgb(100%,100%,100%);fill-opacity:1;stroke:none;"/>
<path style=" stroke:none;fill-rule:evenodd;fill:rgb(0%,0%,0%);fill-opacity:1;" d="M 211.265625 18.679688 L 215.292969 18.757812 C 215.53125 20.257812 215.292969 21.761719 215.375 23.34375 L 211.421875 23.421875 C 210.949219 24.847656 211.265625 26.503906 211.265625 28.007812 C 213.238281 28.640625 215.214844 29.429688 216.714844 31.167969 C 219.324219 30.773438 221.695312 32.117188 222.960938 34.488281 C 224.144531 32.75 226.121094 31.5625 228.332031 31.5625 C 230.3125 31.722656 232.210938 32.589844 233.316406 34.40625 C 233.714844 35.277344 234.027344 36.144531 234.265625 37.175781 C 235.777344 35.84375 237.875 35.394531 239.800781 35.988281 C 241.300781 36.542969 243.117188 37.808594 243.671875 39.546875 C 243.988281 40.417969 243.828125 41.285156 244.0625 42.234375 C 245.960938 41.523438 248.414062 41.441406 250.308594 42.789062 C 252.207031 44.371094 253.078125 47.054688 252.363281 49.585938 L 252.523438 49.746094 C 254.816406 49.347656 256.945312 50.457031 258.371094 52.351562 L 258.53125 52.429688 C 259.714844 50.0625 262.246094 48.796875 264.933594 49.191406 C 266.511719 49.585938 268.410156 50.375 269.203125 52.117188 L 269.910156 53.855469 C 271.808594 52.511719 274.972656 52.511719 277.027344 54.011719 C 278.6875 55.4375 279.554688 57.414062 279.316406 59.703125 C 281.140625 58.914062 283.351562 58.597656 285.328125 59.785156 C 287.105469 60.933594 288.203125 62.886719 288.25 65 L 288.015625 67.6875 C 289.753906 67.054688 291.808594 67.53125 293.394531 68.796875 C 294.734375 70.21875 295.609375 72.113281 295.367188 74.25 C 295.210938 75.195312 294.65625 75.988281 294.417969 76.855469 C 296.316406 76.933594 298.050781 78.121094 299.160156 79.9375 C 299.949219 81.4375 300.03125 83.730469 299.082031 85.390625 L 297.582031 87.367188 C 298.054688 87.6875 298.84375 87.839844 299.554688 88.234375 C 301.214844 89.421875 302.246094 91.238281 302.480469 93.292969 C 302.558594 94.480469 301.851562 95.429688 301.769531 96.535156 C 303.355469 97.484375 304.535156 99.378906 304.695312 101.277344 C 304.617188 102.464844 304.140625 103.492188 303.667969 104.519531 C 305.011719 106.96875 305.167969 110.839844 303.351562 113.132812 C 300.894531 115.773438 297.109375 116.703125 293.707031 115.503906 C 290.703125 118.507812 286.515625 119.933594 282.5625 119.296875 C 282.164062 120.328125 281.769531 121.511719 280.746094 122.144531 C 279.796875 122.539062 278.769531 122.695312 277.898438 122.460938 C 271.96875 119.855469 266.117188 117.242188 260.113281 115.507812 C 242.960938 109.183594 224.148438 105.785156 205.574219 106.257812 C 204.78125 106.335938 203.832031 106.335938 202.964844 106.496094 C 181.859375 107.761719 162.492188 113.371094 143.839844 121.277344 C 141.308594 121.828125 138.386719 124.757812 136.015625 121.988281 C 135.566406 121.300781 135.296875 120.515625 135.226562 119.695312 C 131.429688 120.011719 128.035156 119.222656 125.1875 116.773438 C 122.027344 117.40625 118.234375 116.613281 116.097656 113.769531 C 114.515625 111.714844 114.753906 108.394531 115.625 106.101562 C 113.964844 104.601562 113.09375 102.464844 113.886719 100.332031 C 114.367188 98.988281 115.320312 97.863281 116.570312 97.171875 C 115.941406 95.75 115.542969 94.089844 116.019531 92.507812 C 116.652344 90.292969 118.546875 88.554688 120.839844 88.238281 L 120.917969 88.003906 C 119.417969 86.261719 117.835938 84.285156 118.707031 81.835938 C 119.257812 79.542969 121.46875 77.726562 123.761719 77.488281 L 123.761719 77.09375 C 122.578125 75.433594 122.578125 72.824219 123.605469 71.164062 C 124.632812 68.953125 126.765625 67.925781 129.136719 68.082031 L 130.5625 68.238281 C 129.929688 66.5 129.691406 64.367188 130.71875 62.707031 C 131.902344 60.652344 133.957031 59.46875 136.253906 59.625 C 137.042969 59.546875 137.992188 59.863281 138.703125 60.335938 C 138.621094 58.753906 138.863281 57.253906 139.652344 56.066406 C 140.996094 53.933594 143.683594 52.984375 146.132812 53.460938 C 146.84375 53.617188 147.554688 53.933594 148.1875 54.40625 C 148.824219 53.222656 149.21875 51.878906 150.402344 51.007812 C 151.984375 49.585938 154.355469 49.191406 156.488281 49.980469 C 157.671875 50.457031 158.859375 51.484375 159.570312 52.75 C 161.074219 51.25 162.8125 50.21875 165.101562 50.695312 C 165.183594 49.902344 164.789062 49.035156 164.867188 48.242188 C 164.945312 46.109375 166.289062 44.132812 168.34375 43.1875 C 170.003906 42.316406 172.296875 42.554688 174.035156 43.34375 C 173.5625 41.210938 174.117188 39.074219 175.695312 37.652344 C 177.148438 36.210938 179.222656 35.589844 181.226562 35.992188 C 182.097656 36.230469 182.886719 36.78125 183.675781 37.335938 C 184.152344 36.785156 184.230469 35.835938 184.785156 35.203125 C 185.734375 33.464844 187.472656 32.433594 189.371094 32.199219 C 191.1875 31.960938 192.769531 33.148438 194.035156 34.414062 C 194.824219 32.675781 196.722656 31.171875 198.699219 30.9375 C 199.726562 30.699219 200.4375 31.09375 201.46875 30.9375 C 202.652344 29.433594 204.46875 28.804688 206.207031 28.167969 L 206.445312 27.773438 L 206.445312 23.421875 L 202.019531 23.34375 C 201.941406 22 201.785156 20.339844 202.019531 18.835938 L 206.207031 18.757812 C 206.679688 17.414062 206.046875 15.753906 206.601562 14.570312 L 211.105469 14.648438 Z M 211.265625 18.679688 "/>
<path style=" stroke:none;fill-rule:evenodd;fill:rgb(93.72549%,76.862745%,37.647059%);fill-opacity:1;" d="M 210.238281 19.628906 C 211.34375 19.785156 212.925781 19.707031 214.269531 19.707031 C 214.425781 20.578125 214.425781 21.683594 214.269531 22.394531 L 210.394531 22.394531 L 210.15625 22.871094 L 210.238281 28.796875 C 211.65625 29.429688 213.398438 29.589844 214.742188 30.695312 L 216.402344 32.277344 C 218.035156 31.867188 219.761719 32.316406 220.988281 33.464844 C 221.699219 34.253906 222.175781 35.203125 222.410156 36.308594 C 222.644531 36.390625 223.125 36.546875 223.519531 36.230469 C 223.914062 34.332031 225.734375 32.832031 227.707031 32.59375 C 229.210938 32.4375 230.632812 33.070312 231.820312 34.015625 C 233.082031 35.203125 233.242188 37.019531 233.160156 38.761719 C 234.347656 39.867188 234.347656 37.652344 235.53125 37.496094 C 236.640625 36.785156 238.144531 36.707031 239.566406 36.941406 C 240.59375 37.417969 241.9375 38.285156 242.488281 39.472656 C 243.28125 40.972656 242.96875 43.027344 242.488281 44.609375 C 243.125 44.609375 243.519531 43.738281 244.308594 43.421875 C 245.730469 42.316406 248.023438 42.554688 249.605469 43.582031 C 251.109375 44.609375 251.738281 46.347656 251.660156 48.246094 C 251.582031 49.429688 250.792969 50.222656 250.472656 51.25 L 250.710938 51.410156 C 251.976562 50.695312 253.320312 50.382812 254.898438 50.855469 C 256.796875 51.566406 257.984375 53.464844 258.613281 55.441406 C 258.769531 55.597656 258.851562 55.285156 259.011719 55.125 C 259.089844 53.148438 260.117188 51.09375 262.171875 50.460938 C 263.832031 49.75 265.886719 50.144531 267.390625 51.410156 C 268.574219 52.519531 268.890625 54.175781 268.96875 55.914062 L 269.128906 56.074219 C 270.316406 54.492188 272.054688 53.464844 274.265625 53.941406 C 275.769531 54.257812 277.585938 55.441406 278.058594 57.179688 C 278.457031 58.367188 278.296875 59.949219 277.742188 61.054688 C 277.660156 61.449219 278.058594 61.527344 278.371094 61.765625 C 279.402344 60.894531 280.585938 60.027344 282.167969 60.027344 C 283.839844 59.964844 285.421875 60.773438 286.355469 62.160156 C 287.542969 64.136719 287.386719 67.140625 286.039062 68.957031 C 285.960938 69.273438 286.277344 69.667969 286.59375 69.828125 C 287.9375 68.640625 290.152344 67.929688 291.96875 69.035156 C 293.46875 69.984375 294.261719 71.722656 294.339844 73.542969 C 294.023438 75.125 293.472656 76.703125 292.207031 77.652344 C 292.050781 77.808594 292.207031 77.886719 292.441406 77.886719 C 294.179688 77.492188 296.316406 78.042969 297.738281 79.625 C 298.367188 80.65625 298.925781 81.917969 298.6875 83.339844 C 298.371094 85.082031 296.632812 86.34375 295.921875 87.925781 C 296.15625 88.875 297.421875 88.242188 298.210938 88.796875 C 299.796875 89.191406 300.980469 91.007812 301.371094 92.585938 C 301.296875 94.007812 301.140625 95.511719 300.265625 96.621094 L 300.265625 96.855469 C 301.851562 97.804688 303.667969 99.226562 303.585938 101.441406 C 303.429688 102.546875 302.953125 103.574219 302.402344 104.445312 C 303.429688 106.183594 303.980469 108.476562 303.429688 110.691406 C 302.476562 113.144531 300.109375 114.800781 297.664062 115.039062 C 295.996094 115.117188 294.65625 114.882812 293.46875 114.328125 C 290.464844 117.566406 285.722656 119.464844 281.375 118.042969 C 280.976562 118.359375 281.375 118.992188 281.375 119.625 C 281.21875 120.496094 280.347656 121.046875 279.714844 121.519531 L 278.449219 121.601562 C 273.867188 119.625 269.359375 117.804688 264.933594 115.988281 C 253.628906 112.039062 242.171875 108.558594 230.234375 106.820312 C 210.15625 103.421875 188.578125 105.792969 169.054688 111.324219 C 158.621094 114.246094 148.582031 117.804688 138.863281 122.308594 C 137.914062 122.308594 137.042969 121.597656 136.488281 120.886719 C 136.015625 120.09375 136.410156 119.148438 136.488281 118.515625 C 132.695312 119.226562 128.429688 118.515625 125.503906 115.589844 C 123.289062 116.382812 120.445312 115.984375 118.628906 114.800781 C 116.730469 113.535156 115.941406 111.640625 115.941406 109.503906 C 116.019531 108.160156 116.414062 107.050781 116.96875 105.949219 C 115.859375 104.996094 114.835938 103.894531 114.675781 102.46875 C 114.4375 100.492188 115.625 98.910156 117.203125 97.964844 C 117.441406 97.726562 117.996094 97.804688 118.152344 97.332031 C 116.96875 95.984375 116.570312 94.167969 117.125 92.507812 C 117.757812 90.925781 119.101562 89.425781 120.839844 89.191406 C 121.3125 88.953125 122.105469 89.269531 122.421875 88.714844 C 121.949219 87.371094 120.605469 86.34375 120.050781 85.160156 C 119.183594 83.65625 119.578125 81.601562 120.601562 80.335938 C 121.871094 78.675781 123.925781 78.121094 125.898438 78.519531 C 126.058594 78.597656 126.136719 78.28125 126.058594 78.203125 C 124.554688 77.09375 123.527344 75.273438 123.925781 73.300781 C 124.160156 71.640625 125.1875 69.980469 126.847656 69.347656 C 128.746094 68.558594 130.878906 69.109375 132.460938 70.378906 C 134.359375 69.429688 131.671875 68.953125 131.671875 67.925781 C 130.722656 66.265625 130.957031 63.972656 132.066406 62.472656 C 133.332031 60.96875 135.148438 60.179688 137.125 60.734375 C 137.914062 60.96875 138.941406 61.523438 139.496094 62.3125 C 139.8125 62.234375 140.125 61.996094 140.363281 61.761719 C 139.496094 60.417969 139.496094 58.601562 140.125 57.175781 C 141.15625 55.277344 143.210938 54.332031 145.265625 54.410156 C 146.765625 54.410156 148.03125 55.4375 149.058594 56.546875 C 149.613281 55.910156 149.136719 54.886719 149.53125 54.171875 C 150.085938 52.433594 151.585938 50.855469 153.484375 50.617188 C 155.308594 50.367188 157.121094 51.121094 158.226562 52.59375 C 158.78125 53.226562 158.859375 54.09375 159.414062 54.726562 C 160.046875 53.621094 160.996094 52.515625 162.261719 52.039062 C 163.679688 51.171875 165.578125 51.644531 167.078125 52.355469 C 167.398438 52.121094 167.078125 51.726562 166.921875 51.488281 C 165.816406 50.222656 165.660156 48.007812 166.371094 46.507812 C 167.160156 44.769531 168.976562 43.660156 170.953125 43.660156 C 172.769531 43.742188 174.351562 44.6875 175.378906 46.273438 C 175.777344 46.351562 176.171875 45.875 176.484375 45.558594 C 175.300781 44.214844 174.589844 42.554688 175.140625 40.738281 C 175.457031 38.917969 177.039062 37.496094 178.699219 37.101562 C 180.28125 36.550781 182.015625 37.179688 183.28125 38.289062 L 184.625 39.945312 C 185.257812 39.394531 184.546875 38.128906 185.019531 37.339844 C 185.414062 35.597656 186.601562 34.019531 188.421875 33.386719 C 189.765625 32.835938 191.503906 33.46875 192.6875 34.574219 C 193.398438 35.046875 193.636719 35.992188 194.269531 36.628906 C 194.820312 35.675781 194.980469 34.332031 195.929688 33.464844 C 197.273438 32.121094 199.484375 31.410156 201.542969 32.199219 C 203.125 30.539062 205.179688 29.351562 207.46875 28.960938 C 207.46875 26.828125 207.628906 24.691406 207.46875 22.558594 L 207.074219 22.398438 L 203.28125 22.398438 L 203.039062 22.164062 L 203.199219 19.792969 L 207.390625 19.632812 C 207.546875 18.371094 207.390625 16.949219 207.546875 15.683594 C 208.257812 15.445312 209.210938 15.523438 210.15625 15.601562 Z M 210.238281 19.628906 "/>
<path style=" stroke:none;fill-rule:evenodd;fill:rgb(0%,0%,0%);fill-opacity:1;" d="M 202.332031 33.855469 C 203.597656 34.804688 203.992188 36.625 203.519531 38.203125 C 202.804688 39.546875 201.464844 40.734375 200.039062 40.890625 C 198.222656 40.8125 196.558594 40.023438 195.929688 38.441406 C 195.535156 37.492188 195.375 36.386719 195.847656 35.4375 C 196.324219 34.011719 197.667969 33.066406 199.167969 32.90625 C 200.355469 32.828125 201.304688 33.144531 202.332031 33.855469 Z M 221.300781 35.59375 C 221.695312 37.019531 221.460938 38.679688 220.511719 39.863281 C 219.644531 40.574219 218.617188 41.046875 217.433594 41.046875 C 216.246094 41.046875 215.378906 40.414062 214.664062 39.625 C 213.691406 38.550781 213.414062 37.019531 213.953125 35.671875 C 214.507812 34.171875 216.089844 32.988281 217.75 33.066406 C 219.167969 33.144531 220.828125 34.09375 221.300781 35.59375 Z M 231.972656 35.910156 C 232.289062 36.9375 232.371094 38.203125 231.894531 39.230469 C 231.265625 40.339844 230.234375 41.207031 229.125 41.441406 C 227.546875 41.757812 225.964844 41.128906 225.09375 39.941406 C 224.144531 38.992188 224.144531 37.648438 224.386719 36.386719 C 224.859375 34.804688 226.441406 33.617188 228.101562 33.539062 C 229.523438 33.539062 231.183594 34.328125 231.972656 35.910156 Z M 231.972656 35.910156 "/>
<path style=" stroke:none;fill-rule:evenodd;fill:rgb(100%,100%,100%);fill-opacity:1;" d="M 201.9375 34.882812 C 202.648438 35.515625 202.648438 36.625 202.488281 37.570312 C 202.21875 38.402344 201.65625 39.105469 200.90625 39.546875 C 200.039062 39.941406 199.011719 39.785156 198.300781 39.46875 C 197.59375 39.144531 197.050781 38.546875 196.800781 37.808594 C 196.484375 36.859375 196.5625 35.832031 197.273438 35.042969 C 198.300781 33.539062 200.59375 33.539062 201.9375 34.882812 Z M 219.960938 35.199219 C 220.511719 35.835938 220.671875 36.78125 220.511719 37.730469 C 220.277344 38.597656 219.5625 39.390625 218.851562 39.785156 C 217.902344 39.941406 217.035156 40.257812 216.320312 39.703125 C 215.292969 39.308594 214.820312 38.359375 214.820312 37.410156 C 214.660156 36.304688 214.898438 35.355469 215.847656 34.722656 C 217.035156 33.617188 218.851562 34.015625 219.960938 35.199219 Z M 230.472656 35.515625 C 230.945312 36.148438 231.261719 37.019531 231.179688 37.964844 C 230.929688 38.867188 230.371094 39.648438 229.601562 40.179688 C 228.8125 40.65625 227.859375 40.496094 227.148438 40.339844 C 226.28125 39.941406 225.648438 39.230469 225.410156 38.441406 C 225.09375 37.253906 225.332031 35.910156 226.515625 35.199219 C 227.550781 34.25 229.445312 34.410156 230.472656 35.515625 Z M 230.472656 35.515625 "/>
<path style=" stroke:none;fill-rule:evenodd;fill:rgb(0%,0%,0%);fill-opacity:1;" d="M 192.769531 36.148438 C 193.636719 37.332031 193.875 39.152344 193.164062 40.574219 C 192.292969 41.601562 191.265625 42.46875 190 42.550781 C 188.5 42.628906 187.078125 41.914062 186.367188 40.652344 C 185.734375 39.785156 185.65625 38.519531 185.890625 37.492188 C 186.367188 35.910156 187.945312 34.722656 189.609375 34.566406 C 190.792969 34.570312 191.898438 35.199219 192.769531 36.148438 Z M 192.769531 36.148438 "/>
<path style=" stroke:none;fill-rule:evenodd;fill:rgb(100%,100%,100%);fill-opacity:1;" d="M 191.582031 36.386719 C 192.371094 37.097656 192.609375 38.125 192.449219 39.230469 C 192.292969 40.097656 191.503906 40.96875 190.789062 41.363281 C 190 41.679688 188.8125 41.601562 188.183594 41.046875 C 187.390625 40.496094 186.757812 39.625 186.839844 38.597656 C 186.839844 37.492188 187.390625 36.460938 188.5 35.910156 C 189.371094 35.4375 190.792969 35.515625 191.582031 36.386719 Z M 191.582031 36.386719 "/>
<path style=" stroke:none;fill-rule:evenodd;fill:rgb(0%,0%,0%);fill-opacity:1;" d="M 241.773438 40.101562 C 242.171875 41.128906 242.171875 42.472656 241.699219 43.421875 C 240.90625 44.925781 239.167969 45.792969 237.585938 45.636719 C 236.320312 45.476562 235.136719 44.683594 234.582031 43.582031 C 233.871094 42.316406 233.949219 40.417969 234.980469 39.230469 C 235.929688 37.890625 237.746094 37.417969 239.398438 37.96875 C 240.273438 38.363281 241.300781 39.152344 241.773438 40.101562 Z M 182.808594 39.230469 C 183.363281 40.097656 183.917969 40.96875 183.757812 42.15625 C 183.597656 43.339844 182.964844 44.449219 182.019531 45.15625 C 180.71875 45.988281 179.054688 45.988281 177.753906 45.15625 C 176.449219 44.332031 175.761719 42.808594 176.011719 41.285156 C 176.089844 40.101562 176.800781 39.074219 177.910156 38.441406 C 179.410156 37.570312 181.621094 37.730469 182.808594 39.230469 Z M 182.808594 39.230469 "/>
<path style=" stroke:none;fill-rule:evenodd;fill:rgb(100%,100%,100%);fill-opacity:1;" d="M 240.191406 39.628906 C 240.824219 40.417969 241.222656 41.605469 240.90625 42.710938 C 240.351562 43.898438 239.164062 44.683594 237.976562 44.683594 C 236.875 44.605469 235.84375 44.132812 235.527344 43.1875 C 234.976562 42.316406 234.976562 41.132812 235.527344 40.339844 C 235.769531 39.472656 236.636719 38.917969 237.585938 38.757812 C 238.53125 38.757812 239.398438 38.914062 240.191406 39.628906 Z M 181.78125 39.628906 C 182.492188 40.261719 182.648438 41.128906 182.730469 42.078125 C 182.570312 43.105469 181.863281 43.976562 181.070312 44.609375 C 180.042969 44.925781 178.9375 44.847656 178.066406 44.136719 C 177.4375 43.503906 176.960938 42.792969 177.039062 41.921875 C 176.882812 40.972656 177.515625 40.261719 178.066406 39.628906 C 179.09375 38.757812 180.753906 38.519531 181.78125 39.628906 Z M 181.78125 39.628906 "/>
<path style=" stroke:none;fill-rule:evenodd;fill:rgb(0%,0%,0%);fill-opacity:1;" d="M 212.765625 44.527344 C 213.238281 45.394531 213.398438 46.582031 213.082031 47.609375 C 212.605469 49.109375 210.949219 50.21875 209.445312 50.375 C 207.945312 50.296875 206.285156 49.667969 205.65625 48.242188 C 205.097656 47.214844 204.941406 45.714844 205.574219 44.683594 C 206.128906 43.503906 207.3125 42.710938 208.578125 42.472656 C 210.265625 42.21875 211.933594 43.035156 212.765625 44.527344 Z M 212.765625 44.527344 "/>
<path style=" stroke:none;fill-rule:evenodd;fill:rgb(100%,100%,100%);fill-opacity:1;" d="M 211.65625 44.765625 C 212.136719 45.472656 212.210938 46.660156 211.976562 47.609375 C 211.65625 48.242188 211.027344 48.636719 210.554688 49.109375 C 209.644531 49.414062 208.652344 49.359375 207.785156 48.953125 C 206.835938 48.398438 206.28125 47.453125 206.28125 46.503906 C 206.203125 45.394531 206.835938 44.371094 207.863281 43.816406 C 209.128906 43.183594 210.789062 43.421875 211.65625 44.765625 Z M 211.65625 44.765625 "/>
<path style=" stroke:none;fill-rule:evenodd;fill:rgb(0%,0%,0%);fill-opacity:1;" d="M 250.46875 45.949219 C 251.023438 47.292969 250.789062 49.109375 249.914062 50.21875 C 248.570312 51.402344 246.992188 51.957031 245.332031 51.402344 C 244.222656 51.007812 243.355469 49.980469 243.035156 49.03125 C 242.5625 47.605469 242.800781 46.027344 243.910156 45 C 244.890625 43.824219 246.480469 43.359375 247.9375 43.8125 C 248.890625 44.289062 249.914062 44.84375 250.46875 45.949219 Z M 174.589844 46.898438 C 174.902344 47.6875 175.0625 48.875 174.746094 49.824219 C 174.347656 50.851562 173.402344 51.800781 172.453125 52.273438 C 170.953125 52.75 169.210938 52.511719 168.261719 51.484375 C 167.078125 50.375 166.523438 48.558594 167.15625 47.054688 C 167.710938 45.636719 168.972656 44.84375 170.398438 44.605469 C 172.058594 44.449219 173.800781 45.316406 174.589844 46.898438 Z M 174.589844 46.898438 "/>
<path style=" stroke:none;fill-rule:evenodd;fill:rgb(100%,100%,100%);fill-opacity:1;" d="M 249.679688 46.738281 C 249.835938 47.453125 249.679688 48.320312 249.441406 49.03125 C 248.734375 49.980469 247.78125 50.535156 246.757812 50.613281 C 245.730469 50.613281 244.9375 50.140625 244.464844 49.507812 C 243.816406 48.808594 243.605469 47.804688 243.914062 46.902344 C 244.066406 46.03125 244.78125 45.160156 245.730469 44.925781 C 247.308594 44.210938 248.96875 45.238281 249.679688 46.738281 Z M 249.679688 46.738281 "/>
<path style=" stroke:none;fill-rule:evenodd;fill:rgb(0%,0%,0%);fill-opacity:1;" d="M 242.484375 55.433594 C 249.519531 61.757812 252.523438 70.453125 252.210938 80.253906 L 249.519531 82.703125 C 247.625 82.546875 245.964844 82.941406 244.699219 84.285156 C 243.121094 86.5 242.328125 89.265625 242.800781 92.035156 C 243.277344 94.167969 245.332031 95.589844 247.464844 95.90625 C 247.390625 97.089844 246.285156 98.199219 245.492188 99.144531 C 243.796875 100.28125 241.691406 100.625 239.722656 100.09375 C 237.589844 99.621094 235.851562 97.484375 235.453125 95.507812 C 234.824219 93.925781 235.929688 92.742188 236.007812 91.320312 C 236.082031 89.472656 235.257812 87.707031 233.792969 86.578125 C 232.449219 85.390625 230.476562 85.390625 228.972656 85.945312 C 227.15625 86.65625 225.496094 88.476562 225.496094 90.449219 C 225.179688 91.554688 225.96875 92.664062 225.335938 93.6875 C 224.148438 95.742188 221.9375 97.402344 219.648438 97.246094 C 217.59375 97.402344 215.851562 96.296875 214.664062 94.875 C 213.796875 93.769531 213.320312 92.5 213.480469 91.160156 C 215.535156 91.238281 217.984375 91.003906 219.488281 88.945312 C 220.910156 87.128906 220.359375 84.359375 220.4375 82.226562 C 220.199219 80.488281 218.539062 78.828125 217.039062 78.195312 L 215.300781 77.878906 C 215.140625 76.21875 213.878906 74.796875 212.453125 74.007812 L 210.316406 73.21875 L 210.316406 73.058594 C 211.976562 72.585938 213.640625 71.082031 214.035156 69.34375 C 214.664062 67.367188 213.640625 65.628906 212.773438 64.285156 L 212.847656 60.964844 C 214.035156 59.382812 214.664062 57.171875 213.796875 55.351562 L 212.773438 53.457031 L 212.847656 50.054688 C 213.878906 48.710938 214.273438 46.972656 214.191406 45.394531 C 224.859375 44.210938 234.503906 48.320312 242.484375 55.433594 Z M 204.152344 45.554688 C 204.152344 46.976562 204.546875 48.242188 205.019531 49.507812 L 204.941406 54.800781 C 203.832031 56.382812 204.230469 58.753906 205.019531 60.414062 L 204.941406 65.632812 C 204.070312 66.898438 203.992188 69.03125 204.863281 70.453125 C 205.414062 71.796875 206.914062 72.507812 208.179688 73.0625 C 207.546875 73.457031 206.597656 73.535156 205.96875 73.851562 C 204.148438 74.402344 203.121094 76.222656 202.726562 77.800781 C 200.59375 79.066406 198.0625 80.332031 197.273438 82.785156 C 197.351562 84.839844 196.558594 87.445312 198.222656 89.027344 C 199.5625 91.003906 202.09375 91.320312 204.304688 91.242188 C 204.226562 93.457031 202.722656 95.667969 200.667969 96.535156 C 198.535156 97.488281 196.085938 97.089844 194.269531 96.0625 C 192.925781 95.117188 192.136719 93.773438 191.738281 92.425781 C 191.898438 90.609375 191.660156 88.710938 190.472656 87.371094 C 189.128906 85.964844 187.136719 85.394531 185.253906 85.867188 C 183.515625 86.34375 181.621094 87.921875 181.382812 89.820312 C 180.988281 91.640625 181.542969 93.378906 182.648438 94.800781 C 182.410156 97.09375 180.988281 99.464844 178.617188 100.175781 C 176.007812 100.886719 173.476562 100.332031 171.742188 98.433594 C 171.027344 97.644531 170.394531 96.777344 170.316406 95.828125 C 172.132812 95.355469 173.949219 93.613281 174.347656 91.71875 C 174.425781 89.03125 173.796875 86.34375 172.132812 84.289062 C 170.867188 83.179688 169.285156 82.546875 167.625 82.785156 L 164.78125 79.703125 C 164.699219 68.003906 171.261719 58.28125 180.667969 50.929688 C 186.597656 46.425781 194.183594 45.242188 202.011719 45.320312 Z M 204.152344 45.554688 "/>
<path style=" stroke:none;fill-rule:evenodd;fill:rgb(100%,100%,100%);fill-opacity:1;" d="M 173.085938 46.582031 C 173.800781 47.214844 173.878906 48.320312 173.800781 49.191406 C 173.640625 49.980469 172.929688 50.691406 172.21875 51.246094 C 171.347656 51.640625 170.320312 51.484375 169.53125 51.246094 C 168.394531 50.628906 167.789062 49.351562 168.03125 48.085938 C 168.109375 47.214844 168.664062 46.34375 169.449219 45.953125 C 170.636719 45.316406 172.136719 45.636719 173.085938 46.582031 Z M 236.164062 51.878906 C 242.410156 55.671875 248.019531 61.996094 249.914062 69.03125 C 239.398438 62.867188 226.203125 61.050781 213.875 63.261719 L 213.875 61.207031 C 215.136719 59.703125 215.535156 57.570312 214.980469 55.671875 C 214.664062 54.882812 214.347656 54.171875 213.875 53.535156 L 213.875 50.140625 C 214.824219 49.03125 215.136719 47.6875 215.292969 46.265625 C 222.804688 45.710938 230 47.769531 236.164062 51.878906 Z M 203.203125 46.425781 C 203.28125 47.609375 203.675781 48.714844 203.992188 49.902344 C 203.753906 51.957031 204.308594 54.484375 203.359375 56.460938 C 203.125 57.808594 203.4375 59.230469 203.992188 60.570312 L 203.910156 63.257812 C 192.609375 61.359375 180.359375 62.546875 170.476562 67.609375 C 169.527344 67.84375 168.660156 68.476562 167.867188 68.953125 C 169.6875 62.628906 174.746094 57.566406 179.800781 52.90625 C 186.128906 47.371094 194.742188 46.03125 203.203125 46.425781 Z M 203.203125 46.425781 "/>
<path style=" stroke:none;fill-rule:evenodd;fill:rgb(0%,0%,0%);fill-opacity:1;" d="M 266.988281 52.351562 C 268.175781 53.460938 268.175781 55.355469 267.699219 56.855469 C 266.75 58.121094 265.410156 58.988281 263.90625 58.988281 C 262.324219 58.910156 260.824219 57.964844 260.351562 56.621094 C 259.875 55.59375 259.796875 54.25 260.351562 53.296875 C 261.0625 52.035156 262.25 51.164062 263.667969 51.085938 C 264.855469 50.929688 266.042969 51.40625 266.988281 52.351562 Z M 157.042969 52.667969 C 157.832031 53.460938 158.308594 54.566406 158.222656 55.753906 C 158.144531 56.855469 157.671875 57.726562 156.960938 58.519531 C 156.011719 59.308594 154.667969 59.546875 153.484375 59.386719 C 152.296875 59.230469 151.269531 58.4375 150.792969 57.492188 C 150.320312 56.542969 150.003906 55.277344 150.476562 54.328125 C 150.875 52.828125 152.375 51.722656 153.878906 51.5625 C 154.988281 51.5625 156.171875 51.878906 157.042969 52.667969 Z M 256.871094 53.855469 C 257.347656 54.644531 257.265625 55.910156 257.109375 56.855469 C 256.632812 57.902344 255.828125 58.761719 254.816406 59.308594 C 253.789062 59.464844 252.605469 59.703125 251.734375 59.148438 C 250.3125 58.359375 249.4375 56.855469 249.601562 55.433594 C 249.519531 53.855469 250.625 52.511719 252.050781 51.878906 C 253.871094 51.167969 255.925781 52.035156 256.871094 53.855469 Z M 256.871094 53.855469 "/>
<path style=" stroke:none;fill-rule:evenodd;fill:rgb(100%,100%,100%);fill-opacity:1;" d="M 266.117188 52.984375 C 266.675781 53.695312 267.074219 54.644531 266.832031 55.671875 C 266.59375 56.382812 266.117188 57.171875 265.570312 57.566406 C 264.460938 58.199219 263.117188 58.121094 262.25 57.410156 C 261.378906 56.699219 260.980469 55.828125 261.0625 54.800781 C 261.0625 53.933594 261.617188 53.140625 262.40625 52.667969 C 263.429688 51.878906 265.25 51.878906 266.117188 52.984375 Z M 266.117188 52.984375 "/>
<path style=" stroke:none;fill-rule:evenodd;fill:rgb(0%,0%,0%);fill-opacity:1;" d="M 167.15625 53.855469 C 167.945312 54.722656 168.261719 55.988281 168.109375 57.253906 C 167.789062 58.675781 166.605469 59.941406 165.261719 60.335938 C 164.15625 60.570312 162.8125 60.414062 161.941406 59.78125 C 161.074219 58.992188 160.28125 58.042969 160.203125 56.9375 C 160.03125 55.285156 160.917969 53.703125 162.417969 52.984375 C 163.996094 52.195312 165.816406 52.589844 167.15625 53.855469 Z M 167.15625 53.855469 "/>
<path style=" stroke:none;fill-rule:evenodd;fill:rgb(100%,100%,100%);fill-opacity:1;" d="M 156.488281 53.617188 C 157.199219 54.328125 157.277344 55.59375 157.042969 56.621094 C 156.726562 57.410156 156.011719 57.886719 155.222656 58.359375 C 153.878906 58.753906 152.613281 58.359375 151.824219 57.328125 C 151.113281 56.222656 151.035156 54.5625 151.980469 53.613281 C 152.457031 53.0625 153.089844 52.746094 153.800781 52.667969 C 154.828125 52.511719 155.777344 52.824219 156.488281 53.617188 Z M 255.769531 53.855469 C 256.242188 54.40625 256.242188 55.355469 256.242188 56.226562 C 256.003906 57.015625 255.371094 57.726562 254.738281 58.199219 C 254.03125 58.4375 253.238281 58.675781 252.605469 58.4375 C 251.816406 58.199219 251.105469 57.566406 250.867188 56.855469 C 250.46875 56.066406 250.550781 54.957031 250.941406 54.246094 C 251.417969 53.296875 252.285156 52.507812 253.472656 52.664062 C 254.34375 52.667969 255.132812 53.144531 255.769531 53.855469 Z M 255.769531 53.855469 "/>
<path style=" stroke:none;fill-rule:evenodd;fill:rgb(0%,0%,0%);fill-opacity:1;" d="M 212.84375 55.59375 C 213.242188 56.542969 213.398438 57.964844 212.925781 58.992188 C 212.371094 59.941406 211.5 60.8125 210.554688 61.125 C 209.054688 61.523438 207.390625 61.207031 206.367188 60.175781 C 205.496094 59.386719 205.257812 58.359375 205.183594 57.328125 C 205.183594 55.589844 206.367188 54.089844 208.027344 53.613281 C 209.839844 52.984375 211.894531 53.855469 212.84375 55.59375 Z M 212.84375 55.59375 "/>
<path style=" stroke:none;fill-rule:evenodd;fill:rgb(100%,100%,100%);fill-opacity:1;" d="M 166.527344 54.722656 C 166.921875 55.355469 167.15625 56.226562 167.078125 57.015625 C 166.839844 57.882812 166.285156 58.753906 165.496094 59.230469 C 164.546875 59.546875 163.441406 59.625 162.648438 58.992188 C 161.738281 58.453125 161.214844 57.4375 161.308594 56.382812 C 161.386719 55.515625 161.625 54.644531 162.492188 54.171875 C 163.601562 53.296875 165.578125 53.382812 166.527344 54.722656 Z M 211.582031 55.515625 C 212.058594 56.226562 212.371094 57.332031 212.058594 58.28125 C 211.65625 59.152344 210.949219 60.019531 210.082031 60.257812 C 209.128906 60.496094 208.261719 60.257812 207.550781 59.863281 C 206.679688 59.230469 206.128906 58.203125 206.285156 57.175781 C 206.207031 56.226562 206.835938 55.4375 207.628906 54.886719 C 208.8125 54.171875 210.554688 54.25 211.582031 55.515625 Z M 211.582031 55.515625 "/>
<path style=" stroke:none;fill-rule:evenodd;fill:rgb(0%,0%,0%);fill-opacity:1;" d="M 277.105469 57.332031 C 277.503906 58.359375 277.34375 59.625 276.875 60.648438 C 275.921875 61.996094 274.265625 62.941406 272.605469 62.628906 C 271.496094 62.390625 270.46875 61.757812 270.074219 60.8125 C 269.285156 59.863281 269.207031 58.4375 269.679688 57.410156 C 270.152344 55.910156 271.574219 54.800781 273.15625 54.800781 C 274.734375 54.644531 276.238281 55.832031 277.105469 57.332031 Z M 148.347656 57.410156 C 148.742188 58.359375 148.898438 59.625 148.582031 60.648438 C 147.949219 62.230469 146.292969 63.179688 144.632812 63.257812 C 143.367188 63.101562 142.101562 62.46875 141.390625 61.441406 C 140.757812 60.414062 140.523438 59.148438 140.917969 58.042969 C 141.390625 56.621094 142.816406 55.59375 144.316406 55.355469 C 145.894531 55.117188 147.398438 55.988281 148.347656 57.410156 Z M 148.347656 57.410156 "/>
<path style=" stroke:none;fill-rule:evenodd;fill:rgb(100%,100%,100%);fill-opacity:1;" d="M 275.527344 56.855469 C 276.082031 57.566406 276.316406 58.59375 276.082031 59.625 C 275.71875 60.472656 275.078125 61.171875 274.261719 61.601562 C 272.917969 61.835938 271.730469 61.441406 270.945312 60.414062 C 270.390625 59.625 270.230469 58.4375 270.707031 57.566406 C 270.945312 56.621094 271.96875 56.144531 272.921875 55.828125 C 273.785156 55.671875 274.734375 56.144531 275.527344 56.855469 Z M 147.082031 57.410156 C 147.636719 58.042969 147.792969 58.992188 147.714844 59.941406 C 147.394531 60.886719 146.527344 61.835938 145.660156 62.152344 C 144.707031 62.390625 143.761719 62.074219 143.046875 61.601562 C 142.257812 60.886719 141.546875 60.097656 141.863281 58.992188 C 141.863281 58.203125 142.414062 57.492188 143.046875 57.019531 C 144.15625 55.988281 146.132812 56.226562 147.082031 57.410156 Z M 147.082031 57.410156 "/>
<path style=" stroke:none;fill-rule:evenodd;fill:rgb(0%,0%,0%);fill-opacity:1;" d="M 285.957031 63.339844 C 286.355469 64.367188 286.355469 65.789062 285.800781 66.820312 C 284.933594 68.082031 283.511719 69.03125 282.007812 68.875 C 280.902344 68.714844 279.953125 68.398438 279.402344 67.609375 C 278.648438 66.796875 278.273438 65.707031 278.371094 64.605469 C 278.429688 63.296875 279.183594 62.121094 280.347656 61.523438 C 281.214844 60.96875 282.398438 60.8125 283.511719 61.125 C 284.550781 61.570312 285.414062 62.347656 285.957031 63.339844 Z M 262.085938 63.339844 C 262.40625 64.367188 262.484375 65.789062 261.929688 66.820312 C 261.375 67.925781 260.351562 68.480469 259.402344 68.875 C 258.371094 68.953125 257.03125 69.03125 256.320312 68.398438 C 254.820312 67.449219 254.109375 65.867188 254.425781 64.289062 C 254.65625 63.105469 255.292969 62.074219 256.398438 61.523438 C 258.476562 60.515625 260.976562 61.316406 262.085938 63.339844 Z M 138.703125 62.785156 C 139.8125 64.050781 139.8125 66.105469 139.179688 67.609375 C 138.464844 68.875 137.046875 69.503906 135.699219 69.425781 C 134.039062 69.34375 132.539062 68.082031 132.144531 66.578125 C 131.75 64.917969 132.300781 63.257812 133.726562 62.3125 C 135.066406 61.050781 137.4375 61.285156 138.703125 62.785156 Z M 162.496094 63.734375 C 163.363281 64.917969 163.445312 66.734375 162.652344 68.082031 C 161.863281 69.265625 160.597656 69.820312 159.253906 69.898438 C 158.066406 69.914062 156.933594 69.390625 156.171875 68.476562 C 155.300781 67.527344 155.144531 66.261719 155.382812 65.078125 C 155.539062 63.972656 156.410156 62.863281 157.4375 62.390625 C 159.253906 61.601562 161.308594 61.996094 162.496094 63.734375 Z M 162.496094 63.734375 "/>
<path style=" stroke:none;fill-rule:evenodd;fill:rgb(100%,100%,100%);fill-opacity:1;" d="M 285.089844 63.894531 C 285.246094 64.761719 285.089844 65.554688 284.855469 66.34375 C 284.140625 67.527344 282.957031 68.003906 281.929688 67.925781 C 280.976562 67.765625 280.109375 67.054688 279.796875 66.34375 C 279.160156 65.472656 279.316406 64.445312 279.796875 63.578125 C 280.03125 62.546875 281.140625 62.152344 282.085938 61.996094 C 283.273438 61.917969 284.460938 62.707031 285.089844 63.894531 Z M 260.589844 63.023438 C 261.144531 63.65625 261.375 64.605469 261.300781 65.554688 C 261.0625 66.34375 260.507812 67.054688 259.875 67.609375 C 258.769531 68.082031 257.265625 68.082031 256.398438 67.289062 C 255.449219 66.339844 255.132812 65.234375 255.613281 63.972656 C 255.84375 62.941406 256.871094 62.152344 257.980469 62.074219 C 259.007812 61.917969 259.875 62.3125 260.589844 63.023438 Z M 260.589844 63.023438 "/>
<path style=" stroke:none;fill-rule:evenodd;fill:rgb(0%,0%,0%);fill-opacity:1;" d="M 272.917969 67.609375 C 277.660156 70.691406 282.085938 75.195312 284.460938 80.570312 C 286.988281 86.183594 288.332031 92.347656 289.4375 98.671875 C 289.042969 99.222656 288.175781 99.066406 287.699219 99.621094 C 285.328125 101.121094 284.855469 103.730469 284.0625 106.101562 C 283.746094 108.316406 285.015625 110.289062 286.988281 111.320312 L 288.960938 112.1875 L 288.960938 112.585938 C 287.070312 114.007812 284.695312 114.5625 282.480469 113.925781 C 280.503906 113.296875 278.6875 111.636719 278.054688 109.738281 C 277.738281 108.554688 277.5 107.210938 277.976562 106.183594 C 279.160156 104.683594 279.636719 102.785156 279.160156 100.886719 C 278.609375 99.226562 277.027344 97.804688 275.527344 97.410156 C 273.628906 96.777344 271.574219 97.332031 270.390625 98.753906 C 269.046875 99.859375 268.730469 101.441406 268.648438 103.019531 C 266.910156 104.917969 264.226562 105.550781 261.929688 105.152344 C 259.796875 104.757812 257.898438 103.097656 257.109375 101.203125 C 256.710938 100.332031 256.480469 99.382812 256.632812 98.433594 C 258.609375 98.984375 261.457031 99.621094 263.351562 97.960938 C 265.328125 96.222656 265.25 93.609375 265.960938 91.320312 C 265.960938 89.265625 264.933594 87.445312 263.351562 86.65625 C 262.167969 86.339844 263.199219 85.074219 262.878906 84.285156 C 262.554688 82.804688 261.679688 81.503906 260.425781 80.652344 L 260.425781 80.492188 C 262.480469 80.570312 264.617188 79.542969 265.644531 77.566406 C 266.4375 75.910156 266.117188 73.535156 265.015625 72.195312 C 263.828125 70.851562 262.25 70.296875 260.589844 70.378906 C 259.480469 69.109375 261.457031 69.347656 261.855469 68.558594 C 263.351562 67.214844 263.671875 64.84375 263.117188 63.027344 C 262.960938 62.789062 262.800781 62.632812 263.035156 62.472656 C 266.199219 64.050781 269.757812 65.316406 272.917969 67.609375 Z M 272.917969 67.609375 "/>
<path style=" stroke:none;fill-rule:evenodd;fill:rgb(100%,100%,100%);fill-opacity:1;" d="M 138.386719 64.050781 C 138.78125 64.84375 138.78125 66.109375 138.386719 66.976562 C 137.875 67.972656 136.816406 68.5625 135.699219 68.476562 C 134.75 68.394531 133.800781 67.6875 133.40625 66.976562 C 133.027344 66.179688 132.996094 65.261719 133.324219 64.445312 C 133.5625 63.5 134.511719 62.707031 135.539062 62.550781 C 136.726562 62.390625 137.753906 63.023438 138.386719 64.050781 Z M 161.464844 63.972656 C 161.859375 64.523438 162.257812 65.15625 162.257812 66.027344 C 162.101562 66.875 161.71875 67.667969 161.152344 68.316406 C 160.4375 68.792969 159.492188 68.953125 158.699219 68.871094 C 157.671875 68.710938 156.726562 67.84375 156.484375 66.972656 C 156.167969 66.183594 156.167969 65.15625 156.644531 64.523438 C 157.082031 63.609375 158.003906 63.027344 159.015625 63.019531 C 159.804688 62.945312 160.757812 63.261719 161.464844 63.972656 Z M 161.464844 63.972656 "/>
<path style=" stroke:none;fill-rule:evenodd;fill:rgb(80.784314%,21.960784%,16.078431%);fill-opacity:1;" d="M 250.386719 70.691406 C 250.941406 73.695312 251.339844 76.855469 251.179688 80.019531 L 249.046875 81.679688 C 246.519531 81.441406 244.382812 82.625 243.195312 84.601562 C 242.167969 87.371094 240.351562 91.085938 242.5625 93.929688 C 243.195312 95.273438 244.617188 96.144531 246.121094 96.535156 C 245.726562 97.722656 244.460938 98.753906 243.355469 99.148438 C 241.457031 99.78125 239.398438 99.226562 238.136719 98.039062 C 236.792969 96.933594 236.15625 95.355469 236.394531 93.773438 C 237.105469 92.113281 237.261719 90.054688 236.550781 88.398438 C 235.601562 86.34375 233.3125 84.523438 231.097656 84.601562 C 228.648438 84.523438 226.59375 85.628906 225.332031 87.6875 C 224.300781 89.105469 224.300781 91.085938 224.460938 92.824219 C 223.75 94.324219 222.324219 95.90625 220.585938 96.222656 C 218.613281 96.378906 216.640625 95.984375 215.53125 94.324219 C 214.980469 93.691406 214.5 92.902344 214.582031 92.113281 C 216.554688 92.191406 218.695312 91.558594 220.035156 89.898438 C 221.933594 87.6875 221.222656 84.679688 221.296875 81.914062 C 220.980469 79.78125 219.164062 77.964844 217.347656 77.25 L 216.242188 77.015625 C 215.6875 75.355469 214.34375 73.699219 212.765625 72.984375 C 214.289062 71.804688 215.214844 70.007812 215.292969 68.082031 C 215.210938 66.660156 214.660156 65.394531 214.027344 64.367188 C 226.285156 62.152344 240.035156 63.65625 250.386719 70.691406 Z M 203.910156 64.367188 C 204.070312 65.472656 203.199219 66.421875 203.28125 67.609375 C 203.199219 69.664062 203.832031 71.558594 205.570312 72.824219 C 205.175781 73.0625 204.621094 73.300781 204.226562 73.613281 C 202.882812 74.722656 202.09375 75.910156 201.621094 77.328125 C 199.40625 78.515625 197.035156 79.863281 196.167969 82.390625 C 196.167969 84.996094 195.613281 88.316406 197.90625 90.214844 C 199.25 91.578125 201.132812 92.273438 203.039062 92.113281 C 202.882812 93.457031 201.777344 94.5625 200.667969 95.433594 C 198.773438 96.300781 196.324219 96.300781 194.664062 95.117188 C 193.875 94.246094 192.765625 93.300781 192.765625 92.113281 C 193 89.820312 192.371094 87.609375 190.550781 86.105469 C 188.890625 84.761719 186.597656 84.289062 184.621094 84.996094 C 182.40625 85.550781 180.667969 87.84375 180.433594 89.980469 C 180.039062 91.953125 180.828125 93.613281 181.617188 95.277344 C 181.222656 96.855469 180.195312 98.671875 178.457031 99.226562 C 176.875 99.699219 174.820312 99.621094 173.476562 98.671875 C 172.609375 97.960938 171.894531 97.332031 171.65625 96.378906 C 173.476562 95.75 174.820312 93.851562 175.371094 92.113281 C 175.691406 89.109375 174.742188 86.34375 173.316406 84.050781 C 171.972656 82.46875 170.078125 81.679688 168.023438 81.757812 L 165.816406 79.304688 C 165.894531 76.300781 166.210938 73.378906 167.238281 70.6875 C 169.6875 68.871094 172.535156 67.683594 175.378906 66.578125 L 175.617188 66.578125 C 184.546875 63.183594 194.269531 62.867188 203.910156 64.367188 Z M 203.910156 64.367188 "/>
<path style=" stroke:none;fill-rule:evenodd;fill:rgb(0%,0%,0%);fill-opacity:1;" d="M 154.195312 65.949219 C 154.195312 67.292969 154.75 68.480469 155.699219 69.503906 C 156.015625 70.53125 158.542969 70.214844 157.4375 71.71875 C 155.304688 71.402344 153.40625 72.351562 152.378906 74.085938 C 151.429688 75.589844 151.585938 78.039062 152.613281 79.542969 C 153.40625 80.488281 154.515625 81.203125 155.699219 81.515625 C 154.75 82.859375 153.957031 84.359375 154.277344 86.257812 C 152.617188 87.046875 150.957031 88.707031 150.957031 90.761719 C 150.878906 92.738281 151.507812 94.558594 152.144531 96.375 C 152.851562 97.71875 154.355469 98.984375 156.015625 99.144531 C 157.835938 99.378906 159.492188 98.589844 161.234375 98.273438 C 161.707031 100.804688 160.285156 103.175781 158.152344 104.519531 C 156.175781 105.703125 153.644531 105.785156 151.511719 104.914062 C 150.324219 104.125 148.980469 103.175781 148.507812 101.832031 C 148.113281 100.015625 146.375 98.667969 144.792969 98.117188 C 143.085938 97.71875 141.292969 98.097656 139.890625 99.144531 C 138.46875 100.253906 137.835938 102.148438 138.074219 104.046875 C 138.074219 105.46875 138.941406 106.574219 139.96875 107.601562 C 140.050781 109.734375 139.179688 111.632812 137.597656 113.136719 C 135.386719 114.875 132.222656 114.796875 129.929688 113.53125 L 129.929688 113.292969 C 131.828125 112.1875 133.566406 110.289062 133.726562 108.074219 C 133.410156 105.859375 132.378906 103.886719 131.511719 101.910156 C 130.878906 100.960938 129.929688 100.566406 128.902344 100.328125 C 129.453125 93.214844 131.429688 86.496094 134.355469 80.25 C 136.332031 75.984375 139.417969 71.792969 143.605469 69.34375 C 146.921875 66.65625 150.640625 64.917969 154.515625 63.492188 C 154.59375 64.289062 154.117188 65.078125 154.195312 65.949219 Z M 212.058594 65.238281 C 213.160156 66.265625 213.554688 68.082031 213.003906 69.582031 C 212.605469 70.691406 211.421875 71.480469 210.394531 71.875 C 208.734375 72.273438 206.914062 71.796875 205.96875 70.375 C 205.257812 69.453125 205.023438 68.253906 205.335938 67.132812 C 205.414062 66.027344 206.363281 65.15625 207.3125 64.605469 C 208.65625 63.894531 210.789062 63.972656 212.058594 65.238281 Z M 212.058594 65.238281 "/>
<path style=" stroke:none;fill-rule:evenodd;fill:rgb(100%,100%,100%);fill-opacity:1;" d="M 284.617188 83.652344 C 279.242188 80.019531 273.230469 78.121094 267.230469 76.777344 C 267.46875 74.484375 266.59375 72.351562 265.09375 70.769531 C 264.226562 70.214844 263.351562 69.742188 262.484375 69.503906 C 263.90625 68.160156 264.539062 66.34375 264.539062 64.367188 C 272.917969 67.527344 281.929688 74.640625 284.617188 83.652344 Z M 153.167969 65.238281 C 152.847656 67.449219 154.035156 69.347656 155.460938 70.769531 C 153.5625 71.164062 151.664062 72.585938 151.035156 74.5625 L 150.636719 76.699219 C 144.871094 77.964844 139.097656 79.464844 134.277344 83.019531 C 135.699219 78.675781 138.542969 74.25 142.65625 71.402344 C 145.746094 68.710938 149.308594 66.617188 153.167969 65.238281 Z M 211.265625 65.867188 C 211.894531 66.582031 212.289062 67.609375 212.132812 68.714844 C 211.886719 69.597656 211.285156 70.34375 210.472656 70.769531 C 209.523438 71.164062 208.339844 71.007812 207.546875 70.53125 C 206.679688 69.898438 206.203125 68.953125 206.28125 67.921875 C 206.359375 66.894531 206.914062 65.867188 207.941406 65.472656 C 209.023438 64.882812 210.355469 65.042969 211.265625 65.867188 Z M 211.265625 65.867188 "/>
<path style=" stroke:none;fill-rule:evenodd;fill:rgb(0%,0%,0%);fill-opacity:1;" d="M 292.917969 71.324219 C 293.550781 72.429688 293.46875 74.089844 292.996094 75.355469 C 292.207031 76.539062 290.703125 77.410156 289.28125 77.25 C 288.015625 77.25 286.988281 76.621094 286.355469 75.75 C 285.644531 74.800781 285.246094 73.773438 285.644531 72.589844 C 285.800781 71.484375 286.433594 70.378906 287.542969 69.902344 C 289.203125 68.875 291.808594 69.347656 292.917969 71.324219 Z M 132.144531 71.71875 C 132.851562 72.667969 132.851562 74.007812 132.617188 75.273438 C 132.222656 76.222656 131.351562 77.089844 130.324219 77.566406 C 129.296875 77.882812 127.875 77.960938 126.925781 77.488281 C 125.421875 76.773438 124.632812 75.195312 124.792969 73.613281 C 124.792969 72.425781 125.421875 71.398438 126.453125 70.6875 C 128.109375 69.425781 130.875 69.820312 132.144531 71.71875 Z M 132.144531 71.71875 "/>
<path style=" stroke:none;fill-rule:evenodd;fill:rgb(100%,100%,100%);fill-opacity:1;" d="M 291.734375 71.402344 C 292.363281 72.113281 292.519531 73.300781 292.28125 74.328125 C 292.015625 74.984375 291.546875 75.539062 290.941406 75.910156 C 289.992188 76.460938 288.886719 76.304688 288.09375 75.988281 C 286.832031 75.273438 286.277344 73.933594 286.675781 72.667969 C 286.75 71.878906 287.304688 71.167969 288.09375 70.769531 C 289.203125 69.976562 290.703125 70.375 291.734375 71.402344 Z M 131.191406 72.269531 C 131.824219 72.902344 131.746094 74.007812 131.589844 74.957031 C 131.351562 75.667969 130.722656 76.300781 130.007812 76.695312 C 128.820312 77.089844 127.320312 76.851562 126.453125 75.90625 C 125.660156 74.957031 125.5 73.457031 126.214844 72.347656 C 126.6875 71.480469 127.632812 71.082031 128.507812 70.929688 C 129.535156 70.851562 130.5625 71.402344 131.191406 72.269531 Z M 131.191406 72.269531 "/>
<path style=" stroke:none;fill-rule:evenodd;fill:rgb(0%,0%,0%);fill-opacity:1;" d="M 264.695312 73.457031 C 265.171875 74.40625 265.328125 75.589844 265.011719 76.699219 C 264.378906 78.121094 263.035156 79.148438 261.691406 79.382812 L 259.640625 79.148438 C 258.054688 78.277344 256.792969 76.855469 257.109375 75.039062 C 257.109375 74.007812 257.660156 73.0625 258.535156 72.429688 C 259.480469 71.402344 261.0625 71.246094 262.5625 71.71875 C 263.429688 71.875 264.144531 72.667969 264.695312 73.457031 Z M 264.695312 73.457031 "/>
<path style=" stroke:none;fill-rule:evenodd;fill:rgb(100%,100%,100%);fill-opacity:1;" d="M 263.515625 73.457031 C 263.832031 74.007812 264.144531 74.640625 264.226562 75.433594 C 263.988281 76.382812 263.671875 77.328125 262.878906 77.882812 C 262.011719 78.203125 260.980469 78.597656 260.273438 78.203125 C 259.246094 77.964844 258.691406 77.175781 258.375 76.460938 C 257.980469 75.59375 258.058594 74.488281 258.691406 73.777344 C 259.089844 73.144531 259.800781 72.671875 260.589844 72.511719 C 261.691406 72.351562 262.5625 72.746094 263.515625 73.457031 Z M 263.515625 73.457031 "/>
<path style=" stroke:none;fill-rule:evenodd;fill:rgb(0%,0%,0%);fill-opacity:1;" d="M 160.4375 74.957031 C 160.914062 76.0625 160.757812 77.566406 160.203125 78.675781 C 159.410156 79.9375 157.988281 80.570312 156.566406 80.570312 C 155.222656 80.414062 153.878906 79.859375 153.246094 78.597656 C 152.457031 77.328125 152.457031 75.511719 153.40625 74.40625 C 154.195312 73.222656 155.382812 72.746094 156.726562 72.667969 C 158.222656 72.667969 159.804688 73.457031 160.4375 74.957031 Z M 160.4375 74.957031 "/>
<path style=" stroke:none;fill-rule:evenodd;fill:rgb(100%,100%,100%);fill-opacity:1;" d="M 159.253906 74.957031 C 159.726562 75.746094 159.804688 76.933594 159.492188 77.882812 C 158.859375 78.75 158.066406 79.464844 157.039062 79.621094 C 155.773438 79.699219 154.667969 78.90625 154.035156 77.882812 C 153.71875 77.171875 153.5625 76.222656 154.035156 75.511719 C 154.433594 74.328125 155.535156 73.613281 156.882812 73.613281 C 157.75 73.773438 158.621094 74.085938 159.253906 74.957031 Z M 159.253906 74.957031 "/>
<path style=" stroke:none;fill-rule:evenodd;fill:rgb(0%,0%,0%);fill-opacity:1;" d="M 214.664062 80.492188 C 215.695312 82.152344 215.695312 84.839844 214.742188 86.65625 C 213.636719 88.316406 211.894531 89.582031 209.921875 89.820312 C 207.945312 89.898438 206.046875 89.425781 204.703125 88.082031 C 203.125 86.265625 202.25 83.8125 203.203125 81.519531 C 203.835938 79.230469 206.125 77.488281 208.5 77.253906 C 211.027344 77.015625 213.398438 78.121094 214.664062 80.492188 Z M 214.664062 80.492188 "/>
<path style=" stroke:none;fill-rule:evenodd;fill:rgb(80.784314%,21.960784%,16.078431%);fill-opacity:1;" d="M 285.328125 85.628906 C 286.515625 89.582031 287.542969 93.613281 288.175781 97.960938 L 288.09375 98.355469 C 285.089844 99.226562 284.304688 102.386719 283.351562 104.835938 C 282.71875 106.417969 282.957031 108.472656 283.984375 109.972656 C 284.535156 111.082031 285.882812 111.871094 287.070312 112.503906 C 286.589844 112.902344 285.722656 112.980469 285.171875 113.136719 C 283.351562 113.375 281.21875 112.503906 280.109375 111.160156 C 279.003906 109.894531 278.449219 108.316406 278.929688 106.65625 C 280.1875 104.917969 280.746094 102.546875 280.109375 100.492188 C 279.480469 98.832031 277.976562 97.171875 276.394531 96.621094 C 274.480469 95.792969 272.273438 96.003906 270.546875 97.171875 C 268.761719 98.414062 267.699219 100.453125 267.699219 102.625 C 265.726562 104.207031 263.035156 104.917969 260.898438 103.730469 C 259.320312 103.019531 257.980469 101.441406 257.742188 99.859375 C 258.929688 100.015625 260.425781 100.09375 261.855469 99.78125 C 265.726562 98.910156 266.199219 94.5625 266.988281 91.402344 C 266.910156 89.109375 265.800781 86.972656 263.984375 85.710938 C 264.140625 83.972656 263.511719 82.46875 262.644531 81.285156 C 264.300781 80.890625 265.960938 79.308594 266.753906 77.730469 C 273.316406 79.226562 279.953125 81.203125 285.328125 85.628906 Z M 153.5625 81.753906 C 153.800781 81.832031 154.195312 82.074219 153.957031 82.46875 C 153.328125 83.414062 153.089844 84.679688 153.089844 85.867188 C 151.363281 86.722656 150.175781 88.382812 149.929688 90.292969 C 149.613281 92.664062 150.640625 94.640625 151.273438 96.855469 C 152.414062 99.039062 154.742188 100.339844 157.199219 100.175781 L 160.125 99.621094 C 160.125 101.046875 159.253906 102.546875 157.992188 103.496094 C 156.332031 104.679688 153.957031 104.761719 152.140625 104.046875 C 149.058594 103.179688 149.691406 99.621094 147.242188 98.277344 C 145.582031 96.855469 143.289062 96.617188 141.3125 97.25 C 138.863281 98.039062 137.203125 100.332031 137.046875 102.863281 C 136.96875 104.839844 137.597656 106.578125 139.023438 108 C 138.785156 109.582031 138.46875 111.160156 137.046875 112.265625 C 135.542969 113.375 133.726562 113.769531 131.984375 113.214844 C 133.726562 111.476562 135.386719 109.105469 134.4375 106.496094 C 133.171875 104.046875 133.171875 100.570312 130.089844 99.699219 C 130.167969 95.511719 131.433594 91.71875 132.460938 87.921875 L 133.488281 84.921875 C 138.386719 80.652344 144.554688 79.308594 150.640625 77.808594 C 151.191406 79.226562 152.0625 80.808594 153.5625 81.753906 Z M 153.5625 81.753906 "/>
<path style=" stroke:none;fill-rule:evenodd;fill:rgb(100%,100%,100%);fill-opacity:1;" d="M 213.949219 81.28125 C 214.820312 83.179688 214.425781 85.707031 213 87.367188 C 211.265625 88.871094 208.8125 89.265625 206.757812 88.316406 C 205.019531 87.367188 203.753906 85.789062 203.910156 83.734375 C 203.832031 81.996094 204.386719 80.335938 205.96875 79.304688 C 207.230469 78.359375 208.96875 78.039062 210.710938 78.4375 C 211.976562 78.832031 213.316406 79.9375 213.949219 81.28125 Z M 213.949219 81.28125 "/>
<path style=" stroke:none;fill-rule:evenodd;fill:rgb(0%,0%,0%);fill-opacity:1;" d="M 297.660156 81.4375 C 298.050781 82.941406 297.660156 84.601562 296.550781 85.785156 C 295.601562 86.339844 294.65625 86.734375 293.707031 86.734375 C 292.519531 86.496094 291.410156 86.023438 290.699219 85.074219 C 289.75 83.890625 289.59375 82.074219 290.382812 80.886719 C 291.175781 79.699219 292.359375 78.753906 293.863281 78.832031 C 295.367188 78.753906 296.945312 79.859375 297.660156 81.4375 Z M 128.191406 82.152344 C 128.664062 83.417969 128.113281 84.839844 127.402344 85.949219 C 126.292969 86.972656 124.792969 87.609375 123.292969 87.210938 C 122.105469 86.894531 121.234375 85.710938 120.761719 84.761719 C 120.128906 83.179688 120.683594 81.597656 121.710938 80.570312 C 122.65625 79.542969 124.238281 79.226562 125.582031 79.621094 C 126.53125 79.9375 127.796875 80.964844 128.191406 82.152344 Z M 128.191406 82.152344 "/>
<path style=" stroke:none;fill-rule:evenodd;fill:rgb(100%,100%,100%);fill-opacity:1;" d="M 296.078125 80.808594 C 296.707031 81.4375 296.789062 82.46875 296.789062 83.492188 C 296.472656 84.359375 295.683594 85.234375 294.894531 85.546875 C 293.863281 85.863281 293.074219 85.628906 292.28125 85.234375 C 291.492188 84.679688 291.097656 83.96875 291.097656 83.179688 C 290.941406 81.992188 291.257812 80.964844 292.28125 80.410156 C 293.3125 79.464844 295.050781 79.78125 296.078125 80.808594 Z M 126.292969 81.203125 C 126.925781 81.835938 127.320312 82.703125 127.242188 83.730469 C 127.082031 84.679688 126.371094 85.785156 125.425781 86.105469 C 124.5 86.40625 123.488281 86.292969 122.65625 85.785156 C 121.632812 84.835938 121.234375 83.335938 121.789062 82.148438 C 122.105469 81.203125 123.132812 80.648438 124 80.410156 C 124.792969 80.335938 125.582031 80.652344 126.292969 81.203125 Z M 126.292969 81.203125 "/>
<path style=" stroke:none;fill-rule:evenodd;fill:rgb(0%,0%,0%);fill-opacity:1;" d="M 167.710938 85.789062 C 169.449219 87.6875 169.527344 91.007812 168.34375 93.296875 C 166.921875 95.113281 164.867188 96.144531 162.734375 96.144531 C 160.664062 96.066406 158.753906 95.011719 157.59375 93.296875 C 156.566406 91.714844 156.171875 89.503906 156.964844 87.765625 C 157.59375 85.3125 159.964844 83.8125 162.339844 83.574219 C 164.472656 83.414062 166.289062 84.207031 167.710938 85.789062 Z M 259.640625 85.945312 C 260.980469 87.523438 261.691406 89.820312 261.0625 91.949219 C 260.351562 93.847656 258.691406 95.667969 256.792969 96.21875 C 254.894531 96.695312 252.679688 96.457031 251.335938 95.269531 C 249.601562 93.769531 248.414062 91.871094 248.734375 89.5 C 248.890625 87.289062 250.550781 85.3125 252.523438 84.363281 C 254.894531 83.414062 257.820312 83.96875 259.640625 85.945312 Z M 259.640625 85.945312 "/>
<path style=" stroke:none;fill-rule:evenodd;fill:rgb(100%,100%,100%);fill-opacity:1;" d="M 167.394531 87.050781 C 168.34375 88.316406 168.34375 90.453125 167.789062 92.035156 C 166.921875 93.613281 165.261719 94.957031 163.601562 95.117188 C 161.941406 95.277344 160.28125 94.71875 159.175781 93.613281 C 157.988281 92.351562 157.277344 90.769531 157.671875 89.03125 C 157.910156 87.136719 159.410156 85.316406 161.308594 84.761719 C 163.601562 83.96875 166.132812 84.996094 167.394531 87.050781 Z M 259.007812 86.734375 C 260.269531 88.160156 260.425781 90.292969 259.875 92.113281 C 259.320312 93.695312 257.738281 94.957031 256.238281 95.355469 C 254.339844 95.75 252.367188 95.195312 251.179688 93.773438 C 249.996094 92.425781 249.4375 90.6875 249.996094 88.871094 C 250.46875 86.816406 252.128906 85.078125 254.339844 84.917969 C 256.160156 84.601562 257.660156 85.550781 259.007812 86.734375 Z M 259.007812 86.734375 "/>
<path style=" stroke:none;fill-rule:evenodd;fill:rgb(0%,0%,0%);fill-opacity:1;" d="M 299.160156 90.371094 C 299.710938 90.847656 299.949219 91.796875 300.503906 92.269531 C 300.347656 92.980469 300.503906 94.007812 300.265625 94.878906 C 299.554688 96.222656 298.132812 97.332031 296.707031 97.410156 C 295.449219 97.25 294.261719 97.015625 293.628906 96.0625 C 292.78125 95.214844 292.421875 93.996094 292.675781 92.824219 C 292.675781 91.71875 293.3125 90.765625 294.335938 90.136719 C 295.523438 89.105469 297.816406 89.265625 299.160156 90.371094 Z M 125.105469 92.109375 C 125.894531 93.375 125.738281 95.351562 124.792969 96.535156 C 123.761719 97.800781 122.023438 98.195312 120.523438 97.800781 C 119.382812 97.347656 118.488281 96.429688 118.074219 95.273438 C 117.675781 94.246094 117.835938 92.980469 118.386719 92.035156 C 119.019531 91.003906 120.125 90.214844 121.390625 90.136719 C 122.894531 89.976562 124.476562 90.6875 125.105469 92.109375 Z M 125.105469 92.109375 "/>
<path style=" stroke:none;fill-rule:evenodd;fill:rgb(100%,100%,100%);fill-opacity:1;" d="M 299.003906 91.714844 C 299.480469 92.664062 299.554688 94.167969 298.925781 95.195312 C 298.210938 95.90625 297.425781 96.300781 296.632812 96.378906 C 295.605469 96.300781 294.734375 95.980469 294.179688 95.273438 C 293.46875 94.480469 293.46875 93.140625 293.863281 92.269531 C 294.179688 91.160156 295.285156 90.53125 296.390625 90.453125 C 297.34375 90.371094 298.210938 90.925781 299.003906 91.714844 Z M 124.160156 92.347656 C 124.710938 93.0625 124.710938 94.246094 124.476562 95.117188 C 124.082031 95.984375 123.210938 96.855469 122.261719 96.933594 C 121.234375 97.011719 120.367188 96.773438 119.730469 96.144531 C 119.089844 95.5 118.796875 94.589844 118.941406 93.691406 C 119.019531 92.425781 119.96875 91.480469 121.234375 91.160156 C 122.261719 90.847656 123.367188 91.480469 124.160156 92.347656 Z M 124.160156 92.347656 "/>
<path style=" stroke:none;fill-rule:evenodd;fill:rgb(0%,0%,0%);fill-opacity:1;" d="M 209.445312 91.160156 C 209.605469 94.71875 211.425781 98.117188 214.664062 99.9375 L 214.585938 100.726562 C 210.710938 100.726562 206.601562 100.726562 202.808594 100.882812 C 202.492188 100.566406 202.414062 99.9375 203.042969 99.855469 C 205.96875 98.039062 208.261719 94.796875 208.496094 91.320312 C 208.734375 91.082031 209.050781 91.082031 209.445312 91.160156 Z M 209.445312 91.160156 "/>
<path style=" stroke:none;fill-rule:evenodd;fill:rgb(80.784314%,21.960784%,16.078431%);fill-opacity:1;" d="M 212.605469 99.777344 L 212.449219 99.855469 C 209.839844 99.699219 207.390625 99.777344 205.019531 99.855469 C 206.757812 98.273438 208.179688 96.535156 208.96875 94.402344 C 209.839844 96.300781 210.710938 98.355469 212.605469 99.777344 Z M 212.605469 99.777344 "/>
<path style=" stroke:none;fill-rule:evenodd;fill:rgb(0%,0%,0%);fill-opacity:1;" d="M 190.792969 98.117188 C 191.898438 99.304688 193.402344 100.09375 194.980469 100.648438 L 194.980469 101.519531 C 190.949219 101.992188 186.757812 102.621094 182.964844 103.335938 C 181.621094 102.148438 183.835938 101.753906 184.230469 100.964844 C 185.339844 99.621094 185.890625 97.960938 186.523438 96.460938 C 187.394531 96.460938 188.261719 95.984375 189.132812 95.984375 Z M 231.738281 96.222656 C 232.609375 98.199219 233.15625 100.570312 235.21875 102.070312 C 235.371094 102.386719 234.980469 102.621094 234.980469 102.9375 C 231.1875 102.386719 227.3125 101.671875 223.597656 101.4375 C 222.730469 99.9375 224.941406 100.332031 225.570312 99.460938 C 226.839844 98.511719 227.863281 97.167969 228.738281 95.980469 C 229.679688 96.222656 230.628906 96.460938 231.738281 96.222656 Z M 166.605469 96.773438 C 167.871094 100.015625 170.636719 103.335938 174.273438 104.125 C 174.429688 104.285156 174.351562 104.679688 174.351562 104.996094 L 161.625 108.3125 C 160.519531 107.207031 162.652344 106.972656 162.890625 106.101562 C 164.867188 103.570312 165.894531 100.488281 165.5 97.167969 C 165.734375 96.933594 166.132812 96.773438 166.605469 96.773438 Z M 252.441406 97.246094 C 252.210938 100.804688 253.15625 104.28125 255.925781 106.730469 C 256.160156 107.050781 257.03125 107.445312 256.554688 108 L 256.238281 108.15625 C 252.207031 106.972656 248.414062 105.785156 244.464844 104.835938 C 244.0625 103.496094 245.804688 103.808594 246.519531 103.257812 C 248.808594 101.914062 251.019531 99.542969 251.734375 97.011719 Z M 252.441406 97.246094 "/>
<path style=" stroke:none;fill-rule:evenodd;fill:rgb(80.784314%,21.960784%,16.078431%);fill-opacity:1;" d="M 190.476562 99.226562 L 192.609375 100.804688 L 184.703125 101.992188 C 185.730469 100.570312 186.679688 99.066406 187.234375 97.40625 C 187.707031 97.246094 188.261719 97.089844 188.734375 97.171875 Z M 231.023438 97.40625 C 231.496094 98.828125 232.367188 100.253906 233.320312 101.59375 C 230.945312 101.277344 228.257812 100.882812 225.648438 100.648438 C 226.914062 99.855469 228.175781 98.433594 229.289062 97.089844 Z M 231.023438 97.40625 "/>
<path style=" stroke:none;fill-rule:evenodd;fill:rgb(0%,0%,0%);fill-opacity:1;" d="M 301.058594 97.566406 L 301.058594 97.644531 L 300.898438 97.644531 C 300.742188 97.488281 300.980469 97.40625 301.058594 97.566406 Z M 301.058594 97.566406 "/>
<path style=" stroke:none;fill-rule:evenodd;fill:rgb(80.784314%,21.960784%,16.078431%);fill-opacity:1;" d="M 172.21875 104.441406 C 169.449219 105.152344 166.449219 105.945312 163.761719 106.730469 C 165.46875 104.585938 166.464844 101.960938 166.605469 99.222656 C 167.949219 101.359375 169.847656 103.496094 172.21875 104.441406 Z M 254.265625 106.496094 C 251.574219 105.863281 249.046875 104.835938 246.519531 104.363281 C 248.335938 103.335938 250.386719 101.914062 251.496094 99.859375 C 251.65625 102.386719 252.683594 104.519531 254.265625 106.496094 Z M 254.265625 106.496094 "/>
<path style=" stroke:none;fill-rule:evenodd;fill:rgb(0%,0%,0%);fill-opacity:1;" d="M 300.980469 103.335938 C 302.320312 104.996094 302.640625 107.289062 301.925781 109.417969 C 301.058594 111.398438 299.082031 112.976562 297.105469 113.214844 C 294.972656 113.449219 293.074219 112.738281 291.734375 111.316406 C 290.335938 109.777344 289.824219 107.628906 290.390625 105.628906 C 290.941406 103.257812 293.074219 101.4375 295.449219 101.121094 C 297.421875 100.882812 299.636719 101.4375 300.980469 103.335938 Z M 300.980469 103.335938 "/>
<path style=" stroke:none;fill-rule:evenodd;fill:rgb(100%,100%,100%);fill-opacity:1;" d="M 300.820312 104.835938 C 301.058594 105.550781 301.136719 106.496094 301.371094 107.445312 C 301.058594 109.265625 299.871094 111.242188 298.136719 111.953125 C 296.316406 112.585938 294.421875 112.269531 293.074219 111.242188 C 291.734375 110.054688 291.257812 108.710938 291.257812 107.132812 C 291.257812 104.996094 292.601562 103.019531 294.734375 102.386719 C 297.027344 101.4375 299.636719 102.621094 300.820312 104.835938 Z M 300.820312 104.835938 "/>
<path style=" stroke:none;fill-rule:evenodd;fill:rgb(0%,0%,0%);fill-opacity:1;" d="M 127.953125 105.152344 C 129.058594 106.574219 129.296875 108.867188 128.664062 110.6875 C 127.796875 112.503906 125.820312 114.242188 123.761719 114.558594 C 121.945312 114.558594 120.285156 114.164062 118.863281 112.976562 C 117.28125 111.316406 116.335938 109.105469 117.046875 106.730469 C 117.757812 104.441406 120.046875 102.464844 122.5 102.386719 C 124.632812 102.148438 126.6875 103.257812 127.953125 105.152344 Z M 127.953125 105.152344 "/>
<path style=" stroke:none;fill-rule:evenodd;fill:rgb(100%,100%,100%);fill-opacity:1;" d="M 126.847656 105.234375 C 127.953125 106.65625 128.269531 108.789062 127.554688 110.527344 C 126.859375 111.886719 125.671875 112.933594 124.238281 113.453125 C 122.894531 113.769531 121.550781 113.375 120.367188 112.742188 C 118.785156 111.714844 117.835938 109.972656 117.914062 108.15625 C 117.914062 106.339844 119.101562 104.761719 120.601562 103.890625 C 122.65625 102.859375 125.265625 103.257812 126.847656 105.234375 Z M 126.847656 105.234375 "/>
<path style=" stroke:none;fill-rule:evenodd;fill:rgb(0%,0%,0%);fill-opacity:1;" d="M 270.46875 120.25 L 276.949219 123.015625 C 277.503906 123.492188 277.980469 124.285156 277.660156 125.152344 C 277.34375 125.785156 276.554688 125.941406 276.160156 126.417969 L 277.109375 130.605469 C 275.527344 131.472656 273.945312 132.421875 272.605469 133.527344 C 272.765625 134.164062 272.839844 134.953125 272.527344 135.660156 C 271.898438 136.214844 271.105469 136.613281 270.394531 136.292969 C 269.683594 135.980469 269.285156 135.582031 268.734375 135.425781 C 252.609375 128.074219 235.136719 122.703125 216.71875 122.703125 C 204.941406 122.386719 193.957031 122.703125 182.734375 124.992188 C 170.085938 127.363281 158.226562 132.109375 146.847656 137.640625 C 146.007812 137.863281 145.117188 137.585938 144.554688 136.925781 C 144 136.136719 144.234375 135.03125 144.472656 134.320312 L 140.523438 131.550781 C 140.679688 130.128906 140.996094 128.628906 141.234375 127.207031 C 140.523438 126.886719 139.574219 126.730469 139.335938 125.859375 C 139.257812 125.308594 139.257812 124.519531 139.730469 124.042969 C 141.15625 123.09375 142.894531 122.621094 144.554688 121.988281 C 165.027344 113.53125 186.761719 106.730469 210.003906 106.730469 C 231.265625 106.574219 251.417969 112.503906 270.46875 120.25 Z M 273.390625 107.917969 C 273.550781 110.449219 274.339844 112.902344 276.238281 114.957031 C 275.765625 116.457031 274.738281 114.796875 274.027344 114.957031 C 270.546875 113.296875 266.988281 111.875 263.589844 110.609375 C 263.199219 110.375 263.433594 109.976562 263.589844 109.738281 C 265.960938 109.421875 268.730469 108.792969 270.78125 106.972656 C 271.574219 107.207031 272.363281 107.683594 273.390625 107.917969 Z M 154.117188 109.894531 C 154.195312 110.054688 154.351562 110.371094 154.273438 110.765625 C 150.242188 112.265625 146.210938 113.453125 142.417969 115.351562 L 141.390625 115.585938 C 141.546875 114.875 142.339844 114.402344 142.730469 113.769531 C 143.761719 112.269531 144.234375 110.449219 144.394531 108.632812 C 145.261719 108.15625 146.132812 107.84375 146.921875 107.210938 C 149.058594 108.628906 151.429688 109.816406 154.117188 109.894531 Z M 154.117188 109.894531 "/>
<path style=" stroke:none;fill-rule:evenodd;fill:rgb(93.72549%,76.862745%,37.647059%);fill-opacity:1;" d="M 263.828125 118.667969 C 267.859375 120.089844 271.96875 121.910156 276.082031 123.648438 C 276.394531 123.804688 276.710938 124.363281 276.554688 124.832031 L 275.6875 125.386719 L 269.203125 127.441406 C 269.832031 129.734375 270.863281 131.945312 271.8125 134.316406 C 271.8125 134.871094 271.335938 135.265625 270.945312 135.425781 C 255.371094 128.230469 238.769531 122.460938 221.300781 121.828125 C 204.785156 120.878906 187.789062 121.828125 172.457031 126.496094 C 163.445312 129.101562 154.828125 132.660156 146.449219 136.691406 C 145.816406 136.847656 145.5 136.453125 145.265625 136.136719 C 145.421875 133.765625 146.765625 131.789062 147.398438 129.65625 L 148.109375 127.914062 C 145.726562 127.136719 143.296875 126.503906 140.839844 126.019531 C 140.363281 125.78125 140.125 125.152344 140.445312 124.757812 L 141.707031 124.121094 C 164.867188 114.558594 189.84375 106.417969 216.167969 107.917969 C 232.445312 108.550781 248.570312 112.980469 263.828125 118.667969 Z M 263.828125 118.667969 "/>
<path style=" stroke:none;fill-rule:evenodd;fill:rgb(80.784314%,21.960784%,16.078431%);fill-opacity:1;" d="M 272.441406 108.628906 C 272.757812 110.371094 273.074219 112.1875 274.101562 113.769531 C 271.417969 112.660156 268.648438 111.476562 266.117188 110.449219 C 267.847656 109.964844 269.476562 109.1875 270.945312 108.15625 Z M 151.664062 110.527344 L 144.234375 113.453125 C 144.554688 112.265625 145.027344 110.6875 145.34375 109.34375 L 147.003906 108.472656 C 148.425781 109.34375 150.003906 110.210938 151.664062 110.527344 Z M 151.664062 110.527344 "/>
<path style=" stroke:none;fill-rule:evenodd;fill:rgb(0%,0%,0%);fill-opacity:1;" d="M 221.222656 115.03125 C 221.378906 115.351562 220.828125 115.351562 220.671875 115.507812 L 209.050781 119.144531 L 196.71875 115.351562 L 196.71875 115.113281 C 200.90625 113.53125 205.019531 111.792969 209.289062 110.210938 C 213.238281 111.636719 217.195312 113.453125 221.222656 115.03125 Z M 290.148438 110.527344 L 289.910156 110.371094 L 290.148438 110.449219 Z M 290.148438 110.527344 "/>
<path style=" stroke:none;fill-rule:evenodd;fill:rgb(80.784314%,21.960784%,16.078431%);fill-opacity:1;" d="M 218.457031 115.03125 L 208.972656 118.113281 L 199.722656 115.191406 L 199.722656 115.03125 L 209.289062 111.316406 C 212.371094 112.347656 215.378906 113.769531 218.457031 115.03125 Z M 218.457031 115.03125 "/>
<path style=" stroke:none;fill-rule:evenodd;fill:rgb(0%,0%,0%);fill-opacity:1;" d="M 231.894531 113.925781 C 232.324219 115.007812 232.433594 116.1875 232.210938 117.324219 C 231.660156 118.90625 229.917969 120.011719 228.417969 120.328125 C 226.675781 120.410156 225.253906 119.695312 224.386719 118.511719 C 223.675781 117.640625 223.433594 116.695312 223.519531 115.585938 C 223.59375 113.925781 224.9375 112.347656 226.519531 111.871094 C 228.417969 111.160156 230.710938 112.03125 231.894531 113.925781 Z M 193.875 114.398438 C 194.347656 115.824219 194.269531 117.878906 193.085938 119.144531 C 192.054688 120.011719 190.792969 120.488281 189.527344 120.328125 C 188.027344 120.089844 186.527344 118.984375 186.207031 117.640625 C 185.578125 116.0625 185.953125 114.257812 187.160156 113.058594 C 188.1875 112.03125 189.84375 111.554688 191.347656 112.109375 C 192.292969 112.503906 193.402344 113.296875 193.875 114.398438 Z M 193.875 114.398438 "/>
<path style=" stroke:none;fill-rule:evenodd;fill:rgb(100%,100%,100%);fill-opacity:1;" d="M 230.554688 113.925781 C 231.027344 114.5625 231.339844 115.507812 231.265625 116.457031 C 230.945312 117.640625 230.078125 118.828125 228.96875 119.222656 C 227.738281 119.519531 226.441406 119.195312 225.492188 118.355469 C 224.542969 117.246094 224.226562 115.507812 225.09375 114.242188 C 225.648438 113.296875 226.597656 112.742188 227.703125 112.664062 C 228.738281 112.664062 229.835938 112.980469 230.554688 113.925781 Z M 192.136719 113.691406 C 192.847656 114.480469 193.242188 115.507812 193.164062 116.695312 C 192.847656 117.640625 192.292969 118.75 191.347656 119.144531 C 190.394531 119.539062 189.449219 119.382812 188.660156 119.066406 C 187.394531 118.277344 186.683594 116.933594 187 115.429688 C 187.234375 114.246094 188.183594 113.136719 189.449219 112.902344 C 190.394531 112.664062 191.347656 112.980469 192.136719 113.691406 Z M 192.136719 113.691406 "/>
<path style=" stroke:none;fill-rule:evenodd;fill:rgb(0%,0%,0%);fill-opacity:1;" d="M 247.941406 115.269531 C 251.417969 117.5625 254.65625 120.40625 258.214844 122.777344 L 258.214844 122.9375 C 254.027344 123.171875 249.441406 123.253906 245.175781 123.492188 C 241.539062 121.121094 237.902344 119.144531 234.503906 116.691406 L 234.660156 116.53125 C 238.933594 116.058594 242.964844 115.742188 247.308594 115.1875 Z M 183.125 116.851562 C 179.570312 119.382812 175.851562 121.832031 172.140625 123.886719 L 159.808594 123.253906 L 159.730469 123.097656 L 170.085938 115.273438 L 183.046875 116.773438 Z M 183.125 116.851562 "/>
<path style=" stroke:none;fill-rule:evenodd;fill:rgb(11.764706%,49.411765%,38.431373%);fill-opacity:1;" d="M 255.449219 122.066406 C 251.96875 122.148438 248.734375 122.460938 245.25 122.460938 C 242.640625 120.484375 239.875 119.222656 237.347656 117.324219 C 240.667969 117.007812 243.828125 116.375 247.304688 116.21875 C 250.15625 117.800781 252.605469 120.011719 255.449219 122.066406 Z M 180.515625 117.480469 C 177.753906 119.382812 174.824219 121.117188 171.980469 122.859375 L 162.496094 122.460938 L 162.496094 122.304688 L 170.398438 116.21875 C 173.800781 116.535156 177.117188 117.011719 180.515625 117.480469 Z M 180.515625 117.480469 "/>
<path style=" stroke:none;fill-rule:evenodd;fill:rgb(0%,0%,0%);fill-opacity:1;" d="M 268.570312 123.804688 C 269.285156 125.152344 268.964844 127.285156 268.097656 128.628906 C 266.910156 129.8125 265.171875 130.445312 263.589844 130.050781 C 262.089844 129.65625 260.824219 128.3125 260.429688 127.046875 C 259.957031 125.386719 260.429688 123.648438 261.773438 122.703125 C 262.804688 121.59375 264.382812 121.277344 265.886719 121.59375 C 266.832031 121.988281 268.015625 122.621094 268.570312 123.804688 Z M 156.171875 123.253906 C 156.964844 124.125 157.355469 125.308594 157.277344 126.574219 C 157.042969 127.679688 156.488281 128.789062 155.617188 129.496094 C 154.273438 130.367188 152.613281 130.605469 151.191406 130.050781 C 149.769531 129.261719 148.824219 127.835938 148.742188 126.335938 C 148.582031 124.519531 149.609375 123.175781 151.035156 122.304688 C 152.613281 121.4375 154.828125 121.832031 156.171875 123.253906 Z M 156.171875 123.253906 "/>
<path style=" stroke:none;fill-rule:evenodd;fill:rgb(100%,100%,100%);fill-opacity:1;" d="M 267.859375 124.675781 C 268.097656 125.625 267.941406 126.808594 267.46875 127.757812 C 266.753906 128.390625 266.042969 128.945312 265.09375 129.183594 C 263.90625 129.261719 262.957031 128.789062 262.25 128.152344 C 261.457031 127.285156 261.21875 126.253906 261.457031 125.382812 C 261.457031 124.277344 262.167969 123.328125 263.117188 122.933594 C 263.90625 122.460938 265.015625 122.222656 265.960938 122.777344 C 266.675781 123.097656 267.46875 123.730469 267.859375 124.675781 Z M 155.460938 123.964844 C 156.089844 124.675781 156.410156 125.703125 156.171875 126.652344 C 155.988281 127.6875 155.351562 128.585938 154.433594 129.101562 C 153.484375 129.417969 152.296875 129.496094 151.507812 129.101562 C 150.242188 128.3125 149.609375 126.890625 149.847656 125.625 C 149.925781 124.519531 150.636719 123.730469 151.507812 123.175781 C 152.773438 122.542969 154.433594 122.859375 155.460938 123.964844 Z M 155.460938 123.964844 "/>
<path style=" stroke:none;fill-rule:evenodd;fill:rgb(0%,0%,0%);fill-opacity:1;" d="M 273.316406 138.507812 C 289.992188 146.96875 305.324219 159.457031 317.816406 174.632812 C 325.640625 185.070312 333.070312 195.972656 338.128906 207.910156 C 345.402344 225.773438 349.589844 245.21875 349.515625 266.246094 C 348.722656 288.773438 343.582031 309.792969 333.945312 329.007812 C 329.121094 338.171875 322.875 346.867188 316.472656 355.484375 C 305.167969 368.445312 291.890625 379.59375 277.503906 387.8125 C 252.445312 401.722656 223.28125 407.734375 193.796875 404.648438 C 175.222656 402.199219 157.671875 396.746094 141.707031 387.8125 C 136.171875 384.730469 131.035156 380.859375 125.898438 377.457031 C 115.226562 369.238281 105.898438 359.355469 97.679688 348.683594 C 96.25 346.328125 94.722656 344.03125 93.097656 341.808594 C 85.507812 330.347656 80.210938 318.019531 76.179688 305.371094 C 70.25 284.421875 68.511719 260 73.019531 238.183594 C 75.074219 224.585938 79.894531 212.335938 85.664062 200.480469 C 88.667969 194.789062 91.910156 189.175781 95.625 184.039062 C 98.3125 179.296875 102.027344 175.34375 105.503906 171.15625 C 115.542969 159.378906 127.636719 149.816406 140.445312 142.148438 C 165.417969 127.761719 193.953125 121.042969 224.230469 124.046875 C 241.699219 125.703125 257.980469 130.761719 273.316406 138.507812 Z M 273.316406 138.507812 "/>
<path style=" stroke:none;fill-rule:evenodd;fill:rgb(93.72549%,76.862745%,37.647059%);fill-opacity:1;" d="M 283.667969 145.625 C 298.605469 155.109375 311.964844 167.519531 322.476562 182.535156 C 337.816406 203.71875 346.113281 227.988281 348.089844 254.9375 C 349.589844 281.738281 343.902344 307.265625 332.441406 329.714844 C 326.117188 340.621094 319 351.6875 309.832031 361.25 C 279.640625 392.789062 237.664062 408.128906 194.589844 403.777344 C 168.902344 400.773438 145.1875 391.128906 124.714844 375.324219 C 115.148438 367.738281 106.535156 358.488281 99.339844 349.234375 C 96.8125 345.917969 95.074219 342.363281 92.625 339.277344 C 87.328125 330.976562 83.535156 322.203125 79.976562 313.433594 C 73.023438 294.777344 70.253906 273.671875 72.070312 252.566406 C 73.574219 233.519531 78.792969 216.128906 87.089844 200.082031 C 87.167969 200.003906 87.488281 200.082031 87.488281 199.925781 L 87.332031 199.6875 C 89.542969 195.5 91.757812 191.46875 94.363281 187.597656 C 95.945312 185.542969 96.894531 183.25 98.550781 181.273438 C 105.824219 171.945312 113.648438 162.855469 122.976562 155.582031 C 127.5625 151.550781 132.542969 148.46875 137.441406 145.230469 C 139.816406 143.097656 142.816406 142.304688 145.347656 140.566406 C 176.648438 123.492188 216.644531 119.382812 251.34375 130.605469 C 262.644531 134.082031 273.472656 139.300781 283.667969 145.625 Z M 283.667969 145.625 "/>
<path style=" stroke:none;fill-rule:evenodd;fill:rgb(80.784314%,21.960784%,16.078431%);fill-opacity:1;" d="M 275.921875 130.128906 C 274.65625 130.921875 273.390625 131.710938 272.285156 132.421875 C 271.574219 131 270.863281 129.574219 270.546875 128.074219 C 271.96875 127.601562 273.390625 127.207031 274.972656 126.730469 C 275.445312 127.601562 275.601562 128.945312 275.921875 130.128906 Z M 146.609375 128.46875 C 146.132812 130.050781 145.34375 131.628906 144.792969 133.292969 L 141.789062 131.238281 C 141.789062 129.96875 142.027344 128.550781 142.578125 127.519531 Z M 146.609375 128.46875 "/>
<path style=" stroke:none;fill-rule:evenodd;fill:rgb(0%,0%,0%);fill-opacity:1;" d="M 287.855469 169.414062 C 302.085938 181.585938 314.652344 197.710938 321.683594 214.785156 C 328.167969 230.117188 331.804688 246.796875 331.882812 264.898438 C 331.722656 286.320312 325.71875 305.527344 316.945312 323.546875 C 306.433594 342.4375 290.148438 359.59375 271.496094 370.734375 C 261.375 376.585938 250.707031 380.933594 239.402344 384.015625 C 212.929688 390.894531 182.097656 387.730469 157.992188 376.191406 C 151.429688 373.027344 145.265625 369.238281 139.179688 365.203125 C 133.488281 360.460938 127.480469 356.113281 122.5 350.582031 C 114.675781 342.519531 108.589844 333.742188 103.527344 324.734375 C 98.707031 316.828125 95.941406 308.214844 93.097656 299.757812 C 87.957031 282.683594 86.613281 261.894531 89.933594 243.714844 C 91.515625 233.675781 94.753906 224.429688 98.152344 215.339844 C 103.921875 202.691406 111.117188 190.675781 121.3125 180.164062 C 127.003906 173.367188 133.878906 168.226562 140.757812 163.011719 C 143.046875 161.746094 145.023438 159.929688 147.394531 158.746094 C 171.976562 143.488281 203.59375 137.640625 233.15625 143.332031 C 253.234375 147.203125 271.496094 156.054688 287.855469 169.414062 Z M 287.855469 169.414062 "/>
<path style=" stroke:none;fill-rule:evenodd;fill:rgb(100%,100%,100%);fill-opacity:1;" d="M 273.550781 160.324219 C 274.183594 160.800781 273.628906 160.324219 274.261719 160.800781 C 295.449219 174.082031 312.988281 195.183594 321.921875 218.105469 C 327.222656 231.777344 330.539062 246.640625 330.777344 262.609375 C 331.011719 281.894531 326.585938 299.519531 319.394531 315.960938 C 314.488281 310.824219 309.433594 305.925781 304.6875 301.257812 C 305.167969 298.8125 306.113281 296.515625 306.902344 294.304688 C 312.515625 276.675781 312.914062 255.019531 307.851562 237.078125 C 305.085938 226.878906 300.742188 217.394531 295.207031 208.464844 C 285.957031 194.316406 273 181.984375 258.535156 174.394531 C 254.976562 177.796875 251.734375 181.667969 248.253906 185.226562 C 243.277344 190.363281 238.058594 195.421875 233.394531 200.640625 C 223.277344 196.765625 211.738281 195.578125 200.988281 197.003906 L 199.644531 195.820312 L 193.875 190.128906 L 176.484375 172.660156 L 160.121094 156.375 L 158.066406 154.242188 L 158.542969 153.925781 C 183.757812 141.597656 215.375 138.671875 243.195312 146.734375 C 253.789062 149.972656 264.144531 154.082031 273.550781 160.324219 Z M 273.550781 160.324219 "/>
<path style=" stroke:none;fill-rule:evenodd;fill:rgb(16.862745%,24.313725%,54.117647%);fill-opacity:1;" d="M 174.746094 172.335938 L 182.019531 179.6875 L 197.828125 195.5 L 199.488281 197.15625 C 194.191406 197.789062 189.367188 199.449219 184.625 201.265625 L 179.011719 195.734375 C 172.136719 189.171875 165.417969 182.296875 158.621094 175.894531 C 149.132812 181.347656 140.441406 188.144531 133.089844 196.917969 C 125.34375 205.058594 120.367188 214.625 115.859375 224.265625 L 115.621094 224.1875 L 101.789062 210.199219 C 105.582031 202.609375 110.007812 195.257812 115.382812 188.460938 C 119.253906 183.71875 123.289062 178.972656 127.632812 174.941406 C 133.246094 170.203125 138.621094 165.140625 144.867188 161.507812 C 148.660156 158.976562 152.769531 156.765625 156.878906 154.710938 L 157.039062 154.789062 Z M 174.746094 172.335938 "/>
<path style=" stroke:none;fill-rule:evenodd;fill:rgb(93.72549%,76.862745%,37.647059%);fill-opacity:1;" d="M 289.753906 202.535156 C 303.347656 220.953125 310.617188 242.371094 310.386719 266.71875 C 309.671875 284.027344 305.007812 300.152344 296.945312 314.78125 C 296.789062 314.460938 296.628906 314.699219 296.550781 314.78125 L 296.628906 315.328125 C 288.570312 329.71875 275.765625 342.285156 262.085938 351.375 L 260.976562 351.929688 L 260.898438 351.613281 L 260.976562 331.773438 C 273.785156 321.734375 283.664062 307.824219 288.882812 293.121094 C 293.070312 281.738281 294.414062 268.695312 293.546875 256.046875 C 292.046875 239.921875 286.195312 225.613281 276.871094 213.128906 C 272.363281 207.199219 266.910156 201.667969 261.300781 197.320312 L 261.0625 197.320312 C 256.980469 201.167969 253.050781 205.175781 249.285156 209.335938 C 244.621094 205.9375 239.402344 203.167969 234.503906 201.035156 C 240.257812 194.78125 246.136719 188.640625 252.132812 182.617188 L 258.851562 175.742188 C 270.625 182.0625 281.140625 191.546875 289.753906 202.535156 Z M 198.300781 216.367188 C 201.867188 219.703125 205.371094 223.105469 208.8125 226.566406 C 208.894531 226.722656 208.734375 227.117188 209.128906 227.351562 C 212.53125 224.035156 215.929688 220.003906 219.484375 216.683594 C 220.589844 216.367188 221.617188 217 222.800781 217.238281 C 227.230469 218.582031 231.574219 220.164062 235.527344 223.007812 L 235.292969 223.480469 L 230.472656 228.382812 L 210.15625 249.011719 L 209.210938 250.042969 C 205.730469 247.351562 203.203125 243.957031 200.117188 241.191406 C 189.289062 230.597656 178.933594 219.609375 168.109375 209.179688 L 156.964844 197.953125 L 156.328125 198.269531 C 156.25 198.113281 156.171875 197.953125 156.089844 198.113281 C 151.664062 201.589844 147.320312 205.859375 143.917969 210.445312 C 136.964844 218.109375 132.773438 227.28125 129.296875 236.683594 C 122.578125 255.105469 123.132812 278.972656 131.195312 296.835938 C 133.566406 302.605469 136.648438 308.21875 140.125 313.75 C 142.816406 316.757812 145.265625 320.234375 148.191406 323.316406 C 151.113281 326.242188 154.121094 329.085938 157.519531 331.777344 L 157.4375 351.851562 C 150.957031 347.976562 144.871094 343.078125 139.257812 338.097656 C 133.960938 332.246094 128.746094 326.320312 124.710938 320.152344 C 118.707031 309.800781 113.566406 299.289062 111.195312 287.667969 C 105.664062 263.636719 109.378906 236.84375 120.839844 216.609375 C 125.34375 206.96875 132.777344 198.667969 140.125 190.761719 C 144.316406 186.96875 148.824219 183.332031 153.566406 180.171875 L 158.542969 177.167969 C 171.902344 190.125 185.023438 203.167969 198.300781 216.367188 Z M 198.300781 216.367188 "/>
<path style=" stroke:none;fill-rule:evenodd;fill:rgb(93.72549%,76.862745%,37.647059%);fill-opacity:1;" d="M 244.699219 207.433594 C 248.738281 210.015625 252.503906 213.011719 255.925781 216.367188 L 255.925781 216.761719 C 251.972656 220.632812 247.941406 224.429688 244.144531 228.382812 C 243.121094 227.511719 242.011719 226.566406 241.144531 225.773438 C 234.742188 220.558594 227.707031 217 219.960938 215.421875 C 213.082031 214.078125 205.652344 213.917969 198.933594 215.496094 C 194.03125 210.992188 190.082031 206.566406 185.574219 202.140625 C 204.308594 194.234375 227.785156 196.367188 244.699219 207.433594 Z M 244.699219 207.433594 "/>
<path style=" stroke:none;fill-rule:evenodd;fill:rgb(100%,100%,100%);fill-opacity:1;" d="M 265.800781 202.375 C 279.871094 215.496094 288.644531 232.179688 291.808594 250.667969 C 293.394531 261.421875 292.917969 273.4375 290.621094 283.792969 L 289.753906 286.242188 C 281.613281 277.78125 273.078125 269.796875 265.332031 261.65625 C 260.667969 256.917969 255.6875 252.335938 251.417969 247.746094 L 235.453125 231.703125 L 232.214844 228.222656 C 233.476562 226.484375 234.898438 225.140625 236.402344 223.71875 C 239.152344 225.390625 241.675781 227.410156 243.914062 229.722656 L 244.304688 229.722656 C 248.640625 225.339844 253.015625 220.992188 257.429688 216.683594 L 257.347656 216.367188 C 255.054688 213.917969 252.367188 211.945312 250.234375 209.804688 C 253.632812 205.933594 257.429688 202.136719 261.21875 198.660156 C 262.722656 199.609375 264.226562 201.035156 265.800781 202.375 Z M 265.800781 202.375 "/>
<path style=" stroke:none;fill-rule:evenodd;fill:rgb(16.862745%,24.313725%,54.117647%);fill-opacity:1;" d="M 168.261719 210.675781 L 168.109375 211.070312 C 155.089844 221.128906 146.269531 235.664062 143.367188 251.859375 C 141.234375 250.199219 139.101562 247.988281 137.441406 246.089844 C 137.203125 245.851562 137.203125 245.296875 136.808594 245.617188 L 129.929688 238.582031 C 132.300781 230.835938 135.78125 223.5625 140.125 216.761719 C 142.660156 213.597656 145.027344 210.046875 147.875 207.277344 C 150.484375 204.273438 153.410156 201.429688 156.488281 199.136719 L 156.804688 199.136719 Z M 168.261719 210.675781 "/>
<path style=" stroke:none;fill-rule:evenodd;fill:rgb(0%,0%,0%);fill-opacity:1;" d="M 103.6875 203.640625 L 103.6875 203.71875 L 103.605469 203.480469 C 103.609375 203.484375 103.6875 203.484375 103.6875 203.640625 Z M 103.6875 203.640625 "/>
<path style=" stroke:none;fill-rule:evenodd;fill:rgb(100%,100%,100%);fill-opacity:1;" d="M 115.304688 225.378906 C 105.664062 247.90625 105.03125 278.574219 114.28125 301.8125 C 118.628906 312.007812 123.84375 321.96875 131.589844 330.980469 C 134.199219 333.984375 137.355469 337.304688 140.285156 340.382812 C 145.816406 345.128906 151.902344 349.953125 158.382812 353.585938 L 158.542969 353.113281 L 158.621094 331.535156 L 158.304688 331.054688 C 153.71875 327.503906 149.453125 323.152344 145.578125 318.886719 C 141.546875 313.90625 137.992188 308.925781 135.382812 303.550781 C 126.453125 286.476562 123.128906 265.136719 127.875 245.296875 L 129.453125 239.765625 L 130.167969 240.242188 C 134.671875 244.347656 138.464844 249.09375 143.050781 253.203125 C 141.863281 259.761719 141.785156 267.589844 142.894531 274.621094 C 143.921875 281.578125 145.816406 288.21875 148.980469 294.460938 C 154.988281 306.558594 165.578125 318.175781 177.988281 324.417969 C 182.175781 326.792969 186.757812 328.527344 191.582031 330.03125 L 191.582031 360.148438 C 197.984375 360.148438 203.597656 360.066406 209.683594 360.148438 L 209.761719 359.671875 L 209.839844 332.480469 C 213.710938 332.164062 217.269531 331.925781 221.144531 331.371094 L 231.421875 341.644531 C 239.957031 350.582031 248.96875 359.117188 257.660156 368.289062 C 259.640625 370.105469 261.457031 371.765625 263.515625 373.976562 C 236.640625 387.648438 203.203125 390.417969 174.273438 381.40625 C 162.890625 377.691406 152.21875 372.789062 142.339844 366.074219 C 138.386719 363.621094 134.832031 360.304688 131.273438 357.535156 C 122.894531 350.183594 115.226562 341.570312 109.457031 332.636719 C 104.160156 324.335938 99.5 315.878906 96.492188 306.867188 C 94.597656 301.019531 92.699219 295.25 91.59375 289.242188 C 87.640625 270.585938 88.667969 249.164062 93.726562 231.460938 C 96.019531 224.582031 97.679688 217.472656 101.234375 211.304688 C 106.136719 215.734375 110.484375 220.476562 115.304688 225.378906 Z M 115.304688 225.378906 "/>
<path style=" stroke:none;fill-rule:evenodd;fill:rgb(93.72549%,76.862745%,37.647059%);fill-opacity:1;" d="M 180.910156 223.398438 L 180.910156 223.558594 C 164.152344 235.175781 156.40625 255.488281 161.074219 275.648438 C 163.679688 287.582031 171.425781 298.726562 182.414062 306 C 195.140625 314.375 212.605469 316.117188 227.234375 310.585938 C 233.082031 308.453125 238.296875 304.5 243.277344 300.546875 C 247.066406 304.5 251.179688 308.21875 255.132812 312.722656 C 250.941406 317.464844 245.25 320.703125 239.875 323.945312 C 222.171875 333.589844 198.140625 333.664062 180.199219 324.496094 C 172.613281 320.625 165.65625 315.40625 159.964844 308.925781 C 150.242188 297.9375 144.550781 285.058594 143.523438 270.433594 C 142.496094 256.367188 145.183594 242.847656 151.746094 231.546875 C 156.011719 224.113281 162.097656 216.761719 168.976562 211.625 C 172.929688 215.496094 177.039062 219.132812 180.910156 223.398438 Z M 180.910156 223.398438 "/>
<path style=" stroke:none;fill-rule:evenodd;fill:rgb(16.862745%,24.313725%,54.117647%);fill-opacity:1;" d="M 218.300781 216.207031 C 217.433594 217.238281 216.246094 218.265625 215.378906 219.449219 C 213.398438 221.347656 211.425781 223.480469 209.445312 225.535156 C 206.128906 222.769531 203.203125 219.375 200.039062 216.367188 C 205.886719 215.023438 212.132812 215.023438 218.300781 216.207031 Z M 203.992188 246.636719 C 205.652344 248.222656 207.15625 249.878906 209.050781 251.460938 L 209.445312 251.222656 C 216.71875 243.558594 223.753906 236.285156 231.339844 229.011719 C 233.554688 231.066406 235.769531 233.597656 238.21875 235.96875 C 242.566406 240 246.679688 244.742188 251.261719 248.933594 C 255.683594 253.597656 260.195312 258.101562 265.09375 262.84375 L 280.582031 278.496094 L 289.4375 287.429688 C 286.90625 296.203125 283.191406 304.503906 277.976562 312.328125 C 272.757812 319.28125 266.988281 325.921875 259.953125 331.214844 L 259.796875 331.847656 L 259.796875 353.589844 L 260.03125 353.746094 C 277.339844 343.390625 292.4375 327.109375 301.054688 309.167969 L 304.136719 302.210938 C 308.960938 306.957031 314.015625 311.773438 318.917969 317.070312 C 315.363281 324.738281 310.773438 331.929688 305.5625 339.042969 C 294.414062 353.347656 280.183594 365.289062 264.535156 373.503906 C 259.003906 367.816406 253.550781 362.757812 248.253906 357.222656 L 232.996094 341.808594 C 229.523438 338.246094 225.992188 334.742188 222.40625 331.296875 L 222.640625 331.058594 C 235.289062 328.453125 246.75 322.367188 256.394531 313.121094 C 256.710938 312.726562 256.316406 312.332031 256.15625 312.25 C 251.886719 307.585938 247.460938 303.398438 243.355469 299.046875 C 236.710938 304.976562 229.125 309.40625 220.824219 311.539062 C 217.191406 312.328125 213.632812 312.644531 209.996094 312.882812 L 209.835938 312.5625 L 209.917969 299.683594 L 222.402344 299.601562 L 222.640625 299.046875 L 222.5625 281.972656 L 222.167969 281.816406 L 209.28125 281.816406 C 209.046875 279.050781 209.121094 276.128906 209.203125 273.519531 L 226.75 273.359375 L 226.90625 272.964844 L 226.828125 256.046875 L 194.742188 256.046875 L 191.820312 256.128906 L 191.664062 257.390625 L 191.582031 300.390625 C 184.152344 292.804688 176.40625 284.820312 168.660156 277.386719 L 161.308594 269.957031 C 159.804688 259.839844 162.019531 249.488281 166.601562 241.109375 C 169.84375 234.46875 175.613281 228.539062 181.621094 224.273438 C 189.292969 231.464844 196.324219 239.367188 203.992188 246.636719 Z M 203.992188 246.636719 "/>
<path style=" stroke:none;fill-rule:evenodd;fill:rgb(0%,0%,0%);fill-opacity:1;" d="M 74.519531 228.777344 L 74.441406 228.621094 L 74.519531 228.699219 Z M 349.75 255.175781 C 349.671875 255.175781 349.515625 255.332031 349.589844 255.332031 L 349.589844 255.015625 C 349.589844 254.9375 349.671875 255.019531 349.75 255.175781 Z M 349.75 255.175781 "/>
<path style=" stroke:none;fill-rule:evenodd;fill:rgb(93.72549%,76.862745%,37.647059%);fill-opacity:1;" d="M 225.808594 257.3125 C 225.808594 262.449219 225.652344 267.113281 225.730469 272.332031 C 220.039062 272.410156 214.269531 272.25 208.261719 272.410156 C 207.867188 275.726562 208.027344 279.128906 208.101562 282.605469 L 208.339844 282.84375 L 221.539062 282.84375 L 221.539062 298.574219 L 221.222656 298.652344 L 208.96875 298.652344 L 208.8125 298.886719 L 208.734375 312.800781 C 203.199219 312.640625 197.746094 311.691406 192.765625 309.953125 L 192.765625 257.152344 C 203.675781 256.835938 214.503906 256.996094 225.648438 256.996094 Z M 225.808594 257.3125 "/>
<path style=" stroke:none;fill-rule:evenodd;fill:rgb(0%,0%,0%);fill-opacity:1;" d="M 70.332031 271.382812 L 70.25 271.222656 C 70.332031 271.0625 70.332031 271.222656 70.332031 271.382812 Z M 70.332031 271.382812 "/>
<path style=" stroke:none;fill-rule:evenodd;fill:rgb(100%,100%,100%);fill-opacity:1;" d="M 184.152344 294.382812 L 191.582031 301.8125 L 191.582031 309.5625 C 179.253906 304.660156 167.792969 293.4375 163.679688 281.027344 C 162.652344 277.863281 161.625 274.703125 161.46875 271.617188 C 168.820312 279.367188 176.878906 286.558594 184.152344 294.382812 Z M 184.152344 294.382812 "/>
<path style=" stroke:none;fill-rule:evenodd;fill:rgb(0%,0%,0%);fill-opacity:1;" d="M 289.117188 285.132812 L 289.042969 285.054688 L 289.117188 285.054688 Z M 343.660156 308.058594 L 343.660156 308.214844 Z M 343.660156 308.058594 "/>
<path style=" stroke:none;fill-rule:evenodd;fill:rgb(93.72549%,76.862745%,37.647059%);fill-opacity:1;" d="M 208.65625 332.402344 L 208.734375 334.457031 L 208.65625 359.277344 L 192.6875 359.199219 L 192.765625 330.347656 C 197.746094 331.449219 203.203125 332.324219 208.65625 332.402344 Z M 208.65625 332.402344 "/>
<path style=" stroke:none;fill-rule:evenodd;fill:rgb(0%,0%,0%);fill-opacity:1;" d="M 306.984375 363.386719 L 306.90625 363.460938 L 306.90625 363.226562 C 306.90625 363.070312 306.90625 363.226562 306.984375 363.386719 Z M 225.253906 387.179688 L 225.019531 387.179688 L 225.097656 386.941406 C 225.179688 386.785156 225.179688 386.941406 225.253906 387.179688 Z M 245.09375 399.269531 L 245.09375 399.429688 Z M 245.09375 399.269531 "/>
</g>
</svg>
