<?xml version="1.0" encoding="UTF-8"?>
<svg xmlns="http://www.w3.org/2000/svg" xmlns:xlink="http://www.w3.org/1999/xlink" width="250px" height="250px" viewBox="0 0 250 250" version="1.1">
<g id="surface1">
<rect x="0" y="0" width="250" height="250" style="fill:rgb(100%,100%,100%);fill-opacity:1;stroke:none;"/>
<path style=" stroke:none;fill-rule:evenodd;fill:rgb(0%,0%,0%);fill-opacity:1;" d="M 125.753906 11.117188 L 128.152344 11.164062 C 128.292969 12.058594 128.152344 12.953125 128.199219 13.894531 L 125.847656 13.941406 C 125.5625 14.789062 125.753906 15.777344 125.753906 16.671875 C 126.929688 17.046875 128.105469 17.515625 128.996094 18.554688 C 130.550781 18.316406 131.960938 19.117188 132.714844 20.527344 C 133.421875 19.492188 134.59375 18.785156 135.914062 18.785156 C 137.089844 18.882812 138.21875 19.398438 138.878906 20.480469 C 139.113281 21 139.300781 21.515625 139.445312 22.128906 C 140.34375 21.335938 141.59375 21.066406 142.738281 21.421875 C 143.632812 21.75 144.710938 22.503906 145.042969 23.539062 C 145.230469 24.058594 145.136719 24.574219 145.277344 25.140625 C 146.40625 24.714844 147.863281 24.667969 148.992188 25.46875 C 150.125 26.410156 150.640625 28.007812 150.21875 29.515625 L 150.308594 29.609375 C 151.675781 29.375 152.945312 30.035156 153.792969 31.164062 L 153.886719 31.210938 C 154.59375 29.796875 156.097656 29.046875 157.699219 29.28125 C 158.636719 29.515625 159.769531 29.984375 160.238281 31.019531 L 160.660156 32.058594 C 161.792969 31.257812 163.671875 31.257812 164.898438 32.152344 C 165.886719 32.996094 166.402344 34.175781 166.261719 35.539062 C 167.34375 35.066406 168.664062 34.878906 169.835938 35.585938 C 170.898438 36.269531 171.546875 37.433594 171.578125 38.691406 L 171.4375 40.289062 C 172.472656 39.914062 173.695312 40.195312 174.640625 40.949219 C 175.4375 41.796875 175.957031 42.925781 175.8125 44.195312 C 175.722656 44.761719 175.390625 45.230469 175.25 45.746094 C 176.378906 45.796875 177.414062 46.5 178.070312 47.582031 C 178.542969 48.476562 178.589844 49.839844 178.027344 50.828125 L 177.132812 52.003906 C 177.414062 52.195312 177.882812 52.285156 178.308594 52.519531 C 179.296875 53.226562 179.90625 54.308594 180.046875 55.53125 C 180.09375 56.238281 179.671875 56.800781 179.625 57.460938 C 180.566406 58.027344 181.273438 59.15625 181.367188 60.285156 C 181.320312 60.992188 181.035156 61.601562 180.753906 62.214844 C 181.554688 63.671875 181.648438 65.976562 180.566406 67.339844 C 179.105469 68.910156 176.851562 69.464844 174.824219 68.753906 C 173.039062 70.542969 170.542969 71.386719 168.191406 71.011719 C 167.957031 71.621094 167.722656 72.328125 167.109375 72.707031 C 166.542969 72.941406 165.933594 73.035156 165.414062 72.894531 C 161.886719 71.339844 158.402344 69.789062 154.828125 68.753906 C 144.621094 64.988281 133.421875 62.96875 122.363281 63.25 C 121.894531 63.296875 121.328125 63.296875 120.8125 63.390625 C 108.25 64.144531 96.722656 67.484375 85.621094 72.1875 C 84.113281 72.519531 82.371094 74.257812 80.960938 72.613281 C 80.695312 72.203125 80.535156 71.734375 80.492188 71.25 C 78.230469 71.4375 76.210938 70.964844 74.515625 69.507812 C 72.632812 69.886719 70.375 69.414062 69.105469 67.71875 C 68.164062 66.496094 68.304688 64.519531 68.824219 63.15625 C 67.835938 62.261719 67.316406 60.992188 67.789062 59.722656 C 68.074219 58.921875 68.644531 58.25 69.386719 57.839844 C 69.011719 56.992188 68.777344 56.003906 69.058594 55.0625 C 69.433594 53.746094 70.5625 52.710938 71.929688 52.523438 L 71.976562 52.382812 C 71.082031 51.347656 70.140625 50.167969 70.65625 48.710938 C 70.984375 47.347656 72.304688 46.265625 73.667969 46.125 L 73.667969 45.886719 C 72.964844 44.902344 72.964844 43.347656 73.574219 42.359375 C 74.1875 41.042969 75.457031 40.433594 76.867188 40.523438 L 77.714844 40.617188 C 77.339844 39.582031 77.199219 38.3125 77.808594 37.324219 C 78.515625 36.101562 79.738281 35.398438 81.101562 35.492188 C 81.574219 35.445312 82.136719 35.632812 82.5625 35.914062 C 82.511719 34.972656 82.65625 34.078125 83.125 33.375 C 83.925781 32.105469 85.523438 31.539062 86.984375 31.820312 C 87.40625 31.914062 87.832031 32.105469 88.207031 32.386719 C 88.585938 31.679688 88.820312 30.882812 89.523438 30.363281 C 90.464844 29.515625 91.878906 29.28125 93.148438 29.75 C 93.851562 30.035156 94.558594 30.644531 94.984375 31.398438 C 95.875 30.503906 96.910156 29.894531 98.277344 30.175781 C 98.324219 29.703125 98.085938 29.1875 98.132812 28.714844 C 98.183594 27.445312 98.980469 26.269531 100.207031 25.707031 C 101.191406 25.1875 102.558594 25.328125 103.59375 25.800781 C 103.3125 24.53125 103.640625 23.257812 104.582031 22.410156 C 105.445312 21.554688 106.679688 21.183594 107.875 21.421875 C 108.390625 21.566406 108.863281 21.894531 109.332031 22.222656 C 109.613281 21.894531 109.660156 21.332031 109.992188 20.953125 C 110.554688 19.917969 111.589844 19.308594 112.71875 19.167969 C 113.800781 19.023438 114.742188 19.730469 115.496094 20.484375 C 115.964844 19.449219 117.097656 18.554688 118.273438 18.414062 C 118.882812 18.273438 119.308594 18.507812 119.921875 18.414062 C 120.625 17.519531 121.707031 17.144531 122.742188 16.765625 L 122.882812 16.53125 L 122.882812 13.941406 L 120.25 13.894531 C 120.203125 13.09375 120.109375 12.105469 120.25 11.210938 L 122.742188 11.164062 C 123.023438 10.367188 122.648438 9.378906 122.976562 8.671875 L 125.660156 8.71875 Z M 125.753906 11.117188 "/>
<path style=" stroke:none;fill-rule:evenodd;fill:rgb(93.72549%,76.862745%,37.647059%);fill-opacity:1;" d="M 125.140625 11.683594 C 125.800781 11.777344 126.742188 11.730469 127.542969 11.730469 C 127.636719 12.25 127.636719 12.90625 127.542969 13.332031 L 125.234375 13.332031 L 125.09375 13.613281 L 125.140625 17.140625 C 125.988281 17.519531 127.023438 17.613281 127.824219 18.273438 L 128.8125 19.210938 C 129.78125 18.96875 130.808594 19.234375 131.539062 19.917969 C 131.964844 20.386719 132.246094 20.953125 132.386719 21.613281 C 132.527344 21.660156 132.8125 21.753906 133.046875 21.566406 C 133.28125 20.4375 134.367188 19.542969 135.539062 19.402344 C 136.433594 19.308594 137.28125 19.683594 137.988281 20.25 C 138.738281 20.953125 138.832031 22.035156 138.785156 23.070312 C 139.492188 23.730469 139.492188 22.414062 140.195312 22.320312 C 140.859375 21.894531 141.75 21.847656 142.597656 21.988281 C 143.210938 22.273438 144.011719 22.789062 144.339844 23.496094 C 144.808594 24.386719 144.625 25.613281 144.339844 26.554688 C 144.714844 26.554688 144.953125 26.035156 145.421875 25.847656 C 146.269531 25.1875 147.632812 25.328125 148.574219 25.941406 C 149.46875 26.554688 149.84375 27.589844 149.796875 28.71875 C 149.75 29.421875 149.28125 29.894531 149.089844 30.507812 L 149.234375 30.601562 C 149.984375 30.175781 150.785156 29.988281 151.726562 30.269531 C 152.855469 30.695312 153.5625 31.824219 153.9375 33 C 154.03125 33.09375 154.078125 32.90625 154.171875 32.8125 C 154.222656 31.636719 154.832031 30.414062 156.054688 30.035156 C 157.042969 29.613281 158.265625 29.847656 159.160156 30.601562 C 159.867188 31.261719 160.054688 32.246094 160.101562 33.28125 L 160.195312 33.378906 C 160.902344 32.4375 161.9375 31.824219 163.253906 32.109375 C 164.148438 32.296875 165.230469 33 165.511719 34.035156 C 165.746094 34.742188 165.652344 35.683594 165.324219 36.34375 C 165.273438 36.578125 165.511719 36.625 165.699219 36.765625 C 166.3125 36.246094 167.015625 35.730469 167.957031 35.730469 C 168.953125 35.695312 169.894531 36.175781 170.449219 37 C 171.15625 38.175781 171.0625 39.964844 170.261719 41.046875 C 170.214844 41.234375 170.402344 41.46875 170.589844 41.5625 C 171.390625 40.859375 172.710938 40.433594 173.789062 41.09375 C 174.683594 41.65625 175.15625 42.691406 175.203125 43.777344 C 175.015625 44.71875 174.6875 45.65625 173.933594 46.222656 C 173.839844 46.316406 173.933594 46.363281 174.070312 46.363281 C 175.105469 46.128906 176.378906 46.457031 177.226562 47.398438 C 177.601562 48.007812 177.933594 48.761719 177.789062 49.609375 C 177.601562 50.644531 176.566406 51.394531 176.144531 52.335938 C 176.28125 52.902344 177.039062 52.523438 177.507812 52.855469 C 178.449219 53.089844 179.15625 54.171875 179.390625 55.109375 C 179.34375 55.957031 179.25 56.851562 178.730469 57.511719 L 178.730469 57.652344 C 179.671875 58.21875 180.753906 59.0625 180.707031 60.382812 C 180.613281 61.039062 180.332031 61.652344 180 62.171875 C 180.613281 63.207031 180.941406 64.570312 180.613281 65.886719 C 180.046875 67.347656 178.636719 68.332031 177.179688 68.476562 C 176.1875 68.523438 175.390625 68.382812 174.683594 68.050781 C 172.894531 69.980469 170.074219 71.109375 167.484375 70.265625 C 167.25 70.453125 167.484375 70.828125 167.484375 71.207031 C 167.390625 71.722656 166.875 72.050781 166.496094 72.332031 L 165.746094 72.382812 C 163.015625 71.207031 160.332031 70.121094 157.699219 69.039062 C 150.96875 66.6875 144.148438 64.617188 137.042969 63.582031 C 125.09375 61.558594 112.25 62.972656 100.628906 66.265625 C 94.417969 68.003906 88.441406 70.121094 82.65625 72.804688 C 82.089844 72.804688 81.574219 72.378906 81.242188 71.957031 C 80.960938 71.484375 81.195312 70.921875 81.242188 70.546875 C 78.984375 70.96875 76.445312 70.546875 74.703125 68.804688 C 73.386719 69.277344 71.691406 69.039062 70.609375 68.332031 C 69.480469 67.582031 69.011719 66.453125 69.011719 65.179688 C 69.058594 64.378906 69.292969 63.722656 69.625 63.0625 C 68.964844 62.5 68.355469 61.839844 68.257812 60.992188 C 68.117188 59.816406 68.824219 58.875 69.765625 58.3125 C 69.90625 58.171875 70.234375 58.21875 70.328125 57.933594 C 69.625 57.132812 69.386719 56.050781 69.71875 55.0625 C 70.09375 54.121094 70.894531 53.230469 71.929688 53.089844 C 72.210938 52.949219 72.683594 53.136719 72.871094 52.804688 C 72.585938 52.007812 71.789062 51.394531 71.457031 50.691406 C 70.941406 49.792969 71.175781 48.570312 71.789062 47.820312 C 72.542969 46.832031 73.765625 46.5 74.9375 46.738281 C 75.035156 46.785156 75.082031 46.597656 75.035156 46.546875 C 74.140625 45.890625 73.527344 44.808594 73.765625 43.628906 C 73.90625 42.644531 74.515625 41.65625 75.503906 41.277344 C 76.632812 40.808594 77.902344 41.136719 78.847656 41.890625 C 79.976562 41.328125 78.375 41.042969 78.375 40.433594 C 77.8125 39.445312 77.949219 38.078125 78.609375 37.1875 C 79.363281 36.292969 80.445312 35.820312 81.621094 36.152344 C 82.09375 36.292969 82.703125 36.621094 83.03125 37.089844 C 83.222656 37.042969 83.410156 36.902344 83.550781 36.761719 C 83.03125 35.960938 83.03125 34.882812 83.410156 34.035156 C 84.023438 32.902344 85.242188 32.339844 86.46875 32.386719 C 87.359375 32.386719 88.113281 33 88.726562 33.65625 C 89.054688 33.28125 88.773438 32.667969 89.007812 32.246094 C 89.335938 31.210938 90.230469 30.269531 91.359375 30.128906 C 92.445312 29.980469 93.523438 30.429688 94.183594 31.304688 C 94.511719 31.683594 94.558594 32.199219 94.890625 32.574219 C 95.265625 31.917969 95.832031 31.257812 96.582031 30.976562 C 97.429688 30.460938 98.558594 30.742188 99.453125 31.164062 C 99.640625 31.023438 99.453125 30.789062 99.359375 30.648438 C 98.699219 29.894531 98.605469 28.578125 99.03125 27.683594 C 99.5 26.648438 100.582031 25.988281 101.757812 25.988281 C 102.839844 26.035156 103.78125 26.601562 104.390625 27.542969 C 104.628906 27.589844 104.863281 27.304688 105.050781 27.117188 C 104.34375 26.316406 103.921875 25.332031 104.25 24.25 C 104.4375 23.167969 105.378906 22.320312 106.367188 22.085938 C 107.308594 21.753906 108.34375 22.132812 109.097656 22.789062 L 109.898438 23.777344 C 110.273438 23.449219 109.847656 22.695312 110.132812 22.226562 C 110.367188 21.191406 111.074219 20.25 112.15625 19.875 C 112.953125 19.546875 113.992188 19.921875 114.695312 20.578125 C 115.117188 20.863281 115.257812 21.425781 115.636719 21.800781 C 115.964844 21.238281 116.058594 20.4375 116.625 19.921875 C 117.425781 19.121094 118.742188 18.695312 119.964844 19.167969 C 120.90625 18.179688 122.128906 17.472656 123.492188 17.238281 C 123.492188 15.96875 123.585938 14.699219 123.492188 13.425781 L 123.257812 13.332031 L 121 13.332031 L 120.859375 13.191406 L 120.953125 11.78125 L 123.445312 11.6875 C 123.539062 10.933594 123.445312 10.085938 123.539062 9.335938 C 123.964844 9.191406 124.527344 9.242188 125.09375 9.289062 Z M 125.140625 11.683594 "/>
<path style=" stroke:none;fill-rule:evenodd;fill:rgb(0%,0%,0%);fill-opacity:1;" d="M 120.4375 20.152344 C 121.1875 20.71875 121.425781 21.800781 121.140625 22.738281 C 120.71875 23.539062 119.917969 24.246094 119.070312 24.339844 C 117.988281 24.292969 117 23.824219 116.625 22.882812 C 116.390625 22.316406 116.292969 21.660156 116.574219 21.09375 C 116.859375 20.246094 117.660156 19.679688 118.550781 19.585938 C 119.257812 19.542969 119.824219 19.726562 120.4375 20.152344 Z M 131.726562 21.1875 C 131.960938 22.035156 131.820312 23.023438 131.257812 23.726562 C 130.742188 24.152344 130.128906 24.433594 129.425781 24.433594 C 128.71875 24.433594 128.199219 24.054688 127.777344 23.585938 C 127.195312 22.949219 127.03125 22.035156 127.351562 21.234375 C 127.683594 20.339844 128.625 19.636719 129.613281 19.679688 C 130.457031 19.726562 131.445312 20.292969 131.726562 21.1875 Z M 138.078125 21.375 C 138.269531 21.988281 138.316406 22.738281 138.03125 23.351562 C 137.65625 24.011719 137.042969 24.527344 136.386719 24.667969 C 135.445312 24.855469 134.503906 24.480469 133.984375 23.773438 C 133.421875 23.210938 133.421875 22.410156 133.5625 21.660156 C 133.84375 20.714844 134.785156 20.007812 135.773438 19.964844 C 136.621094 19.964844 137.609375 20.433594 138.078125 21.375 Z M 138.078125 21.375 "/>
<path style=" stroke:none;fill-rule:evenodd;fill:rgb(100%,100%,100%);fill-opacity:1;" d="M 120.203125 20.761719 C 120.625 21.140625 120.625 21.800781 120.53125 22.363281 C 120.371094 22.859375 120.035156 23.277344 119.585938 23.539062 C 119.070312 23.773438 118.460938 23.679688 118.035156 23.492188 C 117.613281 23.300781 117.292969 22.945312 117.144531 22.503906 C 116.953125 21.941406 117 21.328125 117.425781 20.859375 C 118.035156 19.964844 119.402344 19.964844 120.203125 20.761719 Z M 130.929688 20.953125 C 131.257812 21.328125 131.351562 21.894531 131.257812 22.457031 C 131.117188 22.976562 130.691406 23.445312 130.269531 23.679688 C 129.703125 23.773438 129.1875 23.964844 128.761719 23.632812 C 128.152344 23.398438 127.871094 22.832031 127.871094 22.269531 C 127.773438 21.609375 127.914062 21.046875 128.480469 20.667969 C 129.1875 20.011719 130.269531 20.246094 130.929688 20.953125 Z M 137.183594 21.140625 C 137.464844 21.515625 137.65625 22.035156 137.609375 22.597656 C 137.457031 23.132812 137.125 23.601562 136.667969 23.917969 C 136.195312 24.199219 135.632812 24.105469 135.207031 24.011719 C 134.691406 23.773438 134.316406 23.351562 134.171875 22.882812 C 133.984375 22.175781 134.125 21.375 134.832031 20.953125 C 135.445312 20.386719 136.574219 20.480469 137.183594 21.140625 Z M 137.183594 21.140625 "/>
<path style=" stroke:none;fill-rule:evenodd;fill:rgb(0%,0%,0%);fill-opacity:1;" d="M 114.742188 21.515625 C 115.261719 22.222656 115.402344 23.304688 114.976562 24.152344 C 114.460938 24.761719 113.847656 25.28125 113.097656 25.328125 C 112.203125 25.375 111.355469 24.949219 110.933594 24.199219 C 110.554688 23.679688 110.507812 22.929688 110.648438 22.316406 C 110.933594 21.375 111.875 20.667969 112.863281 20.574219 C 113.566406 20.578125 114.226562 20.953125 114.742188 21.515625 Z M 114.742188 21.515625 "/>
<path style=" stroke:none;fill-rule:evenodd;fill:rgb(100%,100%,100%);fill-opacity:1;" d="M 114.035156 21.660156 C 114.507812 22.082031 114.648438 22.691406 114.554688 23.351562 C 114.460938 23.867188 113.988281 24.386719 113.566406 24.621094 C 113.09375 24.808594 112.390625 24.761719 112.011719 24.433594 C 111.542969 24.105469 111.167969 23.585938 111.214844 22.976562 C 111.214844 22.316406 111.542969 21.703125 112.203125 21.375 C 112.71875 21.09375 113.566406 21.140625 114.035156 21.660156 Z M 114.035156 21.660156 "/>
<path style=" stroke:none;fill-rule:evenodd;fill:rgb(0%,0%,0%);fill-opacity:1;" d="M 143.914062 23.871094 C 144.148438 24.480469 144.148438 25.28125 143.867188 25.847656 C 143.398438 26.742188 142.359375 27.257812 141.421875 27.164062 C 140.667969 27.070312 139.960938 26.597656 139.632812 25.941406 C 139.210938 25.1875 139.253906 24.058594 139.867188 23.351562 C 140.433594 22.554688 141.515625 22.273438 142.5 22.601562 C 143.019531 22.835938 143.632812 23.304688 143.914062 23.871094 Z M 108.816406 23.351562 C 109.144531 23.867188 109.472656 24.386719 109.378906 25.09375 C 109.285156 25.796875 108.910156 26.457031 108.34375 26.878906 C 107.570312 27.375 106.578125 27.375 105.804688 26.878906 C 105.027344 26.390625 104.621094 25.480469 104.769531 24.574219 C 104.816406 23.871094 105.238281 23.257812 105.898438 22.882812 C 106.792969 22.363281 108.109375 22.457031 108.816406 23.351562 Z M 108.816406 23.351562 "/>
<path style=" stroke:none;fill-rule:evenodd;fill:rgb(100%,100%,100%);fill-opacity:1;" d="M 142.972656 23.589844 C 143.347656 24.058594 143.585938 24.765625 143.394531 25.421875 C 143.066406 26.128906 142.359375 26.597656 141.652344 26.597656 C 140.996094 26.550781 140.382812 26.269531 140.195312 25.707031 C 139.867188 25.1875 139.867188 24.484375 140.195312 24.011719 C 140.339844 23.496094 140.855469 23.164062 141.417969 23.070312 C 141.984375 23.070312 142.5 23.164062 142.972656 23.589844 Z M 108.203125 23.589844 C 108.628906 23.964844 108.71875 24.480469 108.769531 25.046875 C 108.671875 25.65625 108.25 26.175781 107.78125 26.554688 C 107.167969 26.742188 106.511719 26.695312 105.992188 26.273438 C 105.617188 25.894531 105.332031 25.472656 105.378906 24.953125 C 105.289062 24.390625 105.664062 23.964844 105.992188 23.589844 C 106.605469 23.070312 107.59375 22.929688 108.203125 23.589844 Z M 108.203125 23.589844 "/>
<path style=" stroke:none;fill-rule:evenodd;fill:rgb(0%,0%,0%);fill-opacity:1;" d="M 126.648438 26.503906 C 126.929688 27.019531 127.023438 27.726562 126.835938 28.339844 C 126.550781 29.234375 125.5625 29.890625 124.671875 29.984375 C 123.777344 29.9375 122.789062 29.5625 122.414062 28.714844 C 122.082031 28.105469 121.988281 27.210938 122.367188 26.597656 C 122.695312 25.894531 123.402344 25.421875 124.15625 25.28125 C 125.160156 25.128906 126.152344 25.617188 126.648438 26.503906 Z M 126.648438 26.503906 "/>
<path style=" stroke:none;fill-rule:evenodd;fill:rgb(100%,100%,100%);fill-opacity:1;" d="M 125.988281 26.644531 C 126.269531 27.066406 126.316406 27.773438 126.175781 28.339844 C 125.988281 28.714844 125.609375 28.949219 125.328125 29.234375 C 124.789062 29.414062 124.199219 29.378906 123.679688 29.140625 C 123.117188 28.808594 122.789062 28.246094 122.789062 27.679688 C 122.742188 27.019531 123.117188 26.410156 123.730469 26.082031 C 124.480469 25.703125 125.472656 25.847656 125.988281 26.644531 Z M 125.988281 26.644531 "/>
<path style=" stroke:none;fill-rule:evenodd;fill:rgb(0%,0%,0%);fill-opacity:1;" d="M 149.089844 27.351562 C 149.417969 28.152344 149.277344 29.234375 148.757812 29.890625 C 147.960938 30.597656 147.019531 30.925781 146.03125 30.597656 C 145.371094 30.359375 144.855469 29.75 144.664062 29.183594 C 144.382812 28.335938 144.523438 27.398438 145.183594 26.785156 C 145.765625 26.085938 146.714844 25.808594 147.582031 26.078125 C 148.148438 26.363281 148.757812 26.691406 149.089844 27.351562 Z M 103.921875 27.917969 C 104.109375 28.386719 104.203125 29.09375 104.015625 29.65625 C 103.777344 30.269531 103.214844 30.832031 102.652344 31.117188 C 101.757812 31.398438 100.722656 31.257812 100.15625 30.644531 C 99.449219 29.984375 99.121094 28.902344 99.496094 28.007812 C 99.828125 27.164062 100.578125 26.691406 101.425781 26.550781 C 102.414062 26.457031 103.453125 26.972656 103.921875 27.917969 Z M 103.921875 27.917969 "/>
<path style=" stroke:none;fill-rule:evenodd;fill:rgb(100%,100%,100%);fill-opacity:1;" d="M 148.617188 27.820312 C 148.710938 28.246094 148.617188 28.761719 148.476562 29.1875 C 148.054688 29.75 147.488281 30.078125 146.878906 30.128906 C 146.269531 30.128906 145.796875 29.847656 145.515625 29.46875 C 145.128906 29.050781 145.003906 28.457031 145.1875 27.917969 C 145.277344 27.398438 145.703125 26.882812 146.269531 26.742188 C 147.207031 26.316406 148.195312 26.929688 148.617188 27.820312 Z M 148.617188 27.820312 "/>
<path style=" stroke:none;fill-rule:evenodd;fill:rgb(0%,0%,0%);fill-opacity:1;" d="M 144.335938 32.996094 C 148.523438 36.761719 150.3125 41.9375 150.125 47.769531 L 148.523438 49.226562 C 147.394531 49.132812 146.40625 49.371094 145.65625 50.167969 C 144.714844 51.488281 144.242188 53.132812 144.523438 54.78125 C 144.808594 56.050781 146.03125 56.898438 147.300781 57.085938 C 147.257812 57.792969 146.597656 58.449219 146.125 59.015625 C 145.117188 59.691406 143.863281 59.894531 142.691406 59.578125 C 141.421875 59.296875 140.386719 58.027344 140.152344 56.851562 C 139.777344 55.910156 140.433594 55.203125 140.480469 54.359375 C 140.523438 53.257812 140.035156 52.207031 139.164062 51.535156 C 138.363281 50.828125 137.1875 50.828125 136.292969 51.15625 C 135.210938 51.582031 134.222656 52.664062 134.222656 53.839844 C 134.035156 54.496094 134.503906 55.15625 134.128906 55.765625 C 133.421875 56.992188 132.105469 57.980469 130.742188 57.882812 C 129.519531 57.980469 128.484375 57.320312 127.777344 56.472656 C 127.261719 55.8125 126.976562 55.058594 127.074219 54.261719 C 128.296875 54.308594 129.753906 54.167969 130.648438 52.945312 C 131.496094 51.863281 131.164062 50.214844 131.210938 48.945312 C 131.070312 47.910156 130.082031 46.921875 129.191406 46.546875 L 128.152344 46.355469 C 128.0625 45.367188 127.308594 44.519531 126.460938 44.050781 L 125.1875 43.582031 L 125.1875 43.488281 C 126.175781 43.203125 127.164062 42.3125 127.402344 41.277344 C 127.777344 40.101562 127.164062 39.066406 126.648438 38.265625 L 126.695312 36.289062 C 127.402344 35.347656 127.777344 34.03125 127.261719 32.949219 L 126.648438 31.820312 L 126.695312 29.796875 C 127.308594 28.996094 127.542969 27.960938 127.496094 27.019531 C 133.84375 26.316406 139.585938 28.761719 144.335938 32.996094 Z M 121.519531 27.117188 C 121.519531 27.960938 121.753906 28.714844 122.035156 29.46875 L 121.988281 32.621094 C 121.328125 33.5625 121.566406 34.972656 122.035156 35.960938 L 121.988281 39.066406 C 121.472656 39.820312 121.425781 41.089844 121.941406 41.9375 C 122.269531 42.738281 123.164062 43.160156 123.917969 43.488281 C 123.539062 43.726562 122.976562 43.773438 122.597656 43.960938 C 121.519531 44.289062 120.90625 45.371094 120.671875 46.3125 C 119.402344 47.0625 117.894531 47.816406 117.425781 49.277344 C 117.472656 50.5 117 52.050781 117.988281 52.992188 C 118.789062 54.167969 120.292969 54.359375 121.609375 54.3125 C 121.5625 55.628906 120.667969 56.945312 119.445312 57.460938 C 118.175781 58.027344 116.71875 57.792969 115.636719 57.179688 C 114.835938 56.617188 114.367188 55.816406 114.128906 55.015625 C 114.226562 53.933594 114.082031 52.804688 113.375 52.007812 C 112.578125 51.171875 111.390625 50.828125 110.269531 51.113281 C 109.234375 51.394531 108.105469 52.335938 107.964844 53.464844 C 107.730469 54.546875 108.058594 55.582031 108.71875 56.429688 C 108.578125 57.792969 107.730469 59.207031 106.320312 59.628906 C 104.765625 60.050781 103.261719 59.722656 102.226562 58.59375 C 101.800781 58.121094 101.425781 57.605469 101.378906 57.042969 C 102.460938 56.757812 103.542969 55.722656 103.777344 54.59375 C 103.824219 52.996094 103.449219 51.394531 102.460938 50.171875 C 101.707031 49.511719 100.765625 49.136719 99.777344 49.277344 L 98.082031 47.441406 C 98.035156 40.480469 101.941406 34.691406 107.542969 30.316406 C 111.070312 27.632812 115.585938 26.929688 120.246094 26.976562 Z M 121.519531 27.117188 "/>
<path style=" stroke:none;fill-rule:evenodd;fill:rgb(100%,100%,100%);fill-opacity:1;" d="M 103.027344 27.726562 C 103.453125 28.105469 103.5 28.761719 103.453125 29.28125 C 103.355469 29.75 102.933594 30.175781 102.511719 30.503906 C 101.992188 30.738281 101.378906 30.644531 100.910156 30.503906 C 100.234375 30.136719 99.875 29.375 100.019531 28.621094 C 100.066406 28.105469 100.394531 27.585938 100.863281 27.351562 C 101.570312 26.972656 102.460938 27.164062 103.027344 27.726562 Z M 140.574219 30.882812 C 144.292969 33.140625 147.628906 36.902344 148.757812 41.089844 C 142.5 37.421875 134.644531 36.339844 127.304688 37.65625 L 127.304688 36.433594 C 128.058594 35.539062 128.292969 34.265625 127.964844 33.136719 C 127.777344 32.667969 127.585938 32.242188 127.304688 31.867188 L 127.304688 29.84375 C 127.871094 29.1875 128.058594 28.386719 128.152344 27.539062 C 132.621094 27.210938 136.90625 28.433594 140.574219 30.882812 Z M 120.953125 27.632812 C 121 28.339844 121.234375 28.996094 121.425781 29.703125 C 121.28125 30.925781 121.613281 32.433594 121.046875 33.609375 C 120.90625 34.410156 121.09375 35.253906 121.425781 36.054688 L 121.375 37.652344 C 114.648438 36.523438 107.355469 37.230469 101.472656 40.242188 C 100.910156 40.382812 100.390625 40.761719 99.921875 41.042969 C 101.003906 37.277344 104.015625 34.265625 107.023438 31.492188 C 110.789062 28.199219 115.917969 27.398438 120.953125 27.632812 Z M 120.953125 27.632812 "/>
<path style=" stroke:none;fill-rule:evenodd;fill:rgb(0%,0%,0%);fill-opacity:1;" d="M 158.921875 31.164062 C 159.628906 31.820312 159.628906 32.949219 159.34375 33.84375 C 158.78125 34.597656 157.980469 35.113281 157.085938 35.113281 C 156.144531 35.066406 155.253906 34.503906 154.96875 33.703125 C 154.6875 33.089844 154.640625 32.289062 154.96875 31.726562 C 155.394531 30.972656 156.101562 30.457031 156.945312 30.410156 C 157.652344 30.316406 158.359375 30.597656 158.921875 31.164062 Z M 93.476562 31.351562 C 93.949219 31.820312 94.230469 32.480469 94.179688 33.1875 C 94.132812 33.84375 93.851562 34.363281 93.429688 34.832031 C 92.863281 35.304688 92.066406 35.445312 91.359375 35.351562 C 90.652344 35.257812 90.042969 34.785156 89.757812 34.222656 C 89.476562 33.65625 89.289062 32.902344 89.570312 32.339844 C 89.804688 31.445312 90.699219 30.785156 91.59375 30.691406 C 92.253906 30.691406 92.960938 30.882812 93.476562 31.351562 Z M 152.898438 32.054688 C 153.183594 32.527344 153.136719 33.277344 153.039062 33.84375 C 152.757812 34.464844 152.277344 34.976562 151.675781 35.300781 C 151.0625 35.394531 150.359375 35.539062 149.839844 35.207031 C 148.996094 34.738281 148.476562 33.84375 148.570312 32.996094 C 148.523438 32.054688 149.183594 31.253906 150.03125 30.878906 C 151.113281 30.457031 152.335938 30.972656 152.898438 32.054688 Z M 152.898438 32.054688 "/>
<path style=" stroke:none;fill-rule:evenodd;fill:rgb(100%,100%,100%);fill-opacity:1;" d="M 158.402344 31.539062 C 158.734375 31.960938 158.972656 32.527344 158.828125 33.136719 C 158.6875 33.5625 158.402344 34.03125 158.078125 34.265625 C 157.417969 34.644531 156.617188 34.597656 156.101562 34.171875 C 155.582031 33.75 155.347656 33.230469 155.394531 32.621094 C 155.394531 32.101562 155.722656 31.632812 156.195312 31.351562 C 156.804688 30.882812 157.886719 30.882812 158.402344 31.539062 Z M 158.402344 31.539062 "/>
<path style=" stroke:none;fill-rule:evenodd;fill:rgb(0%,0%,0%);fill-opacity:1;" d="M 99.5 32.054688 C 99.96875 32.574219 100.15625 33.324219 100.0625 34.078125 C 99.875 34.925781 99.171875 35.679688 98.371094 35.914062 C 97.710938 36.054688 96.910156 35.960938 96.394531 35.585938 C 95.875 35.113281 95.40625 34.550781 95.359375 33.890625 C 95.257812 32.90625 95.785156 31.964844 96.675781 31.539062 C 97.617188 31.070312 98.699219 31.300781 99.5 32.054688 Z M 99.5 32.054688 "/>
<path style=" stroke:none;fill-rule:evenodd;fill:rgb(100%,100%,100%);fill-opacity:1;" d="M 93.148438 31.914062 C 93.570312 32.339844 93.617188 33.089844 93.476562 33.703125 C 93.289062 34.171875 92.863281 34.457031 92.394531 34.738281 C 91.59375 34.972656 90.839844 34.738281 90.371094 34.125 C 89.949219 33.464844 89.902344 32.476562 90.464844 31.914062 C 90.75 31.582031 91.125 31.398438 91.546875 31.347656 C 92.160156 31.257812 92.726562 31.445312 93.148438 31.914062 Z M 152.242188 32.054688 C 152.523438 32.382812 152.523438 32.949219 152.523438 33.46875 C 152.382812 33.9375 152.003906 34.359375 151.628906 34.644531 C 151.207031 34.785156 150.738281 34.925781 150.359375 34.785156 C 149.890625 34.644531 149.46875 34.265625 149.324219 33.84375 C 149.089844 33.371094 149.136719 32.710938 149.371094 32.289062 C 149.652344 31.722656 150.171875 31.253906 150.878906 31.347656 C 151.394531 31.351562 151.867188 31.632812 152.242188 32.054688 Z M 152.242188 32.054688 "/>
<path style=" stroke:none;fill-rule:evenodd;fill:rgb(0%,0%,0%);fill-opacity:1;" d="M 126.695312 33.089844 C 126.929688 33.65625 127.023438 34.503906 126.742188 35.113281 C 126.414062 35.679688 125.894531 36.199219 125.332031 36.382812 C 124.4375 36.621094 123.449219 36.433594 122.835938 35.820312 C 122.320312 35.347656 122.179688 34.738281 122.132812 34.125 C 122.132812 33.089844 122.835938 32.195312 123.828125 31.914062 C 124.90625 31.539062 126.128906 32.054688 126.695312 33.089844 Z M 126.695312 33.089844 "/>
<path style=" stroke:none;fill-rule:evenodd;fill:rgb(100%,100%,100%);fill-opacity:1;" d="M 99.121094 32.574219 C 99.359375 32.949219 99.5 33.46875 99.449219 33.9375 C 99.308594 34.453125 98.980469 34.972656 98.507812 35.253906 C 97.945312 35.445312 97.285156 35.492188 96.816406 35.113281 C 96.273438 34.792969 95.960938 34.191406 96.015625 33.5625 C 96.0625 33.042969 96.203125 32.527344 96.722656 32.242188 C 97.382812 31.726562 98.558594 31.773438 99.121094 32.574219 Z M 125.941406 33.042969 C 126.226562 33.46875 126.414062 34.125 126.226562 34.691406 C 125.988281 35.210938 125.566406 35.726562 125.046875 35.867188 C 124.480469 36.007812 123.964844 35.867188 123.542969 35.632812 C 123.023438 35.257812 122.695312 34.644531 122.789062 34.035156 C 122.742188 33.46875 123.117188 33 123.589844 32.667969 C 124.292969 32.242188 125.328125 32.289062 125.941406 33.042969 Z M 125.941406 33.042969 "/>
<path style=" stroke:none;fill-rule:evenodd;fill:rgb(0%,0%,0%);fill-opacity:1;" d="M 164.945312 34.125 C 165.179688 34.738281 165.085938 35.492188 164.804688 36.101562 C 164.238281 36.902344 163.253906 37.464844 162.265625 37.277344 C 161.605469 37.136719 160.992188 36.761719 160.757812 36.199219 C 160.289062 35.632812 160.242188 34.785156 160.523438 34.171875 C 160.804688 33.277344 161.652344 32.621094 162.59375 32.621094 C 163.53125 32.527344 164.425781 33.234375 164.945312 34.125 Z M 88.300781 34.171875 C 88.535156 34.738281 88.628906 35.492188 88.441406 36.101562 C 88.066406 37.042969 87.078125 37.605469 86.089844 37.652344 C 85.335938 37.558594 84.585938 37.183594 84.160156 36.570312 C 83.785156 35.960938 83.644531 35.207031 83.878906 34.550781 C 84.160156 33.703125 85.007812 33.089844 85.902344 32.949219 C 86.84375 32.808594 87.738281 33.324219 88.300781 34.171875 Z M 88.300781 34.171875 "/>
<path style=" stroke:none;fill-rule:evenodd;fill:rgb(100%,100%,100%);fill-opacity:1;" d="M 164.003906 33.84375 C 164.332031 34.265625 164.476562 34.878906 164.332031 35.492188 C 164.117188 35.996094 163.738281 36.410156 163.25 36.667969 C 162.453125 36.808594 161.746094 36.570312 161.277344 35.960938 C 160.945312 35.492188 160.851562 34.785156 161.136719 34.265625 C 161.277344 33.703125 161.886719 33.421875 162.453125 33.230469 C 162.96875 33.136719 163.53125 33.421875 164.003906 33.84375 Z M 87.546875 34.171875 C 87.878906 34.550781 87.972656 35.113281 87.925781 35.679688 C 87.734375 36.242188 87.21875 36.808594 86.703125 36.996094 C 86.136719 37.136719 85.570312 36.949219 85.148438 36.667969 C 84.675781 36.242188 84.253906 35.773438 84.441406 35.113281 C 84.441406 34.644531 84.769531 34.222656 85.148438 33.9375 C 85.808594 33.324219 86.984375 33.46875 87.546875 34.171875 Z M 87.546875 34.171875 "/>
<path style=" stroke:none;fill-rule:evenodd;fill:rgb(0%,0%,0%);fill-opacity:1;" d="M 170.210938 37.703125 C 170.449219 38.3125 170.449219 39.160156 170.121094 39.773438 C 169.601562 40.523438 168.757812 41.089844 167.863281 40.996094 C 167.203125 40.902344 166.640625 40.714844 166.308594 40.242188 C 165.863281 39.761719 165.640625 39.109375 165.695312 38.457031 C 165.730469 37.675781 166.179688 36.976562 166.875 36.621094 C 167.390625 36.289062 168.09375 36.199219 168.757812 36.382812 C 169.375 36.648438 169.886719 37.113281 170.210938 37.703125 Z M 156.003906 37.703125 C 156.195312 38.3125 156.242188 39.160156 155.910156 39.773438 C 155.582031 40.433594 154.96875 40.761719 154.40625 40.996094 C 153.792969 41.042969 152.996094 41.089844 152.574219 40.714844 C 151.679688 40.148438 151.253906 39.207031 151.441406 38.265625 C 151.582031 37.5625 151.957031 36.949219 152.617188 36.621094 C 153.855469 36.023438 155.34375 36.496094 156.003906 37.703125 Z M 82.5625 37.371094 C 83.222656 38.125 83.222656 39.347656 82.84375 40.242188 C 82.421875 40.996094 81.574219 41.371094 80.773438 41.324219 C 79.785156 41.277344 78.890625 40.523438 78.65625 39.628906 C 78.421875 38.640625 78.75 37.652344 79.597656 37.089844 C 80.398438 36.339844 81.808594 36.480469 82.5625 37.371094 Z M 96.722656 37.9375 C 97.242188 38.640625 97.289062 39.722656 96.816406 40.523438 C 96.347656 41.230469 95.59375 41.558594 94.792969 41.605469 C 94.085938 41.617188 93.410156 41.304688 92.960938 40.761719 C 92.441406 40.195312 92.347656 39.441406 92.488281 38.738281 C 92.582031 38.078125 93.101562 37.417969 93.710938 37.136719 C 94.792969 36.667969 96.019531 36.902344 96.722656 37.9375 Z M 96.722656 37.9375 "/>
<path style=" stroke:none;fill-rule:evenodd;fill:rgb(100%,100%,100%);fill-opacity:1;" d="M 169.695312 38.03125 C 169.789062 38.546875 169.695312 39.019531 169.558594 39.492188 C 169.132812 40.195312 168.429688 40.480469 167.816406 40.433594 C 167.25 40.335938 166.734375 39.914062 166.542969 39.492188 C 166.167969 38.972656 166.261719 38.359375 166.542969 37.84375 C 166.6875 37.230469 167.34375 36.996094 167.90625 36.902344 C 168.613281 36.855469 169.320312 37.324219 169.695312 38.03125 Z M 155.113281 37.515625 C 155.441406 37.890625 155.582031 38.457031 155.535156 39.019531 C 155.394531 39.492188 155.066406 39.914062 154.6875 40.242188 C 154.027344 40.523438 153.136719 40.523438 152.617188 40.054688 C 152.050781 39.488281 151.867188 38.832031 152.148438 38.078125 C 152.289062 37.464844 152.898438 36.996094 153.5625 36.949219 C 154.171875 36.855469 154.6875 37.089844 155.113281 37.515625 Z M 155.113281 37.515625 "/>
<path style=" stroke:none;fill-rule:evenodd;fill:rgb(0%,0%,0%);fill-opacity:1;" d="M 162.453125 40.242188 C 165.273438 42.078125 167.90625 44.757812 169.320312 47.957031 C 170.824219 51.300781 171.625 54.96875 172.285156 58.730469 C 172.050781 59.0625 171.53125 58.96875 171.25 59.296875 C 169.835938 60.191406 169.554688 61.742188 169.085938 63.15625 C 168.894531 64.472656 169.652344 65.648438 170.824219 66.261719 L 172 66.777344 L 172 67.015625 C 170.875 67.863281 169.460938 68.191406 168.144531 67.8125 C 166.96875 67.4375 165.886719 66.449219 165.507812 65.320312 C 165.320312 64.617188 165.179688 63.816406 165.464844 63.203125 C 166.167969 62.3125 166.453125 61.179688 166.167969 60.050781 C 165.839844 59.0625 164.898438 58.214844 164.003906 57.980469 C 162.875 57.605469 161.652344 57.933594 160.945312 58.78125 C 160.148438 59.4375 159.957031 60.378906 159.910156 61.320312 C 158.875 62.449219 157.277344 62.828125 155.910156 62.589844 C 154.640625 62.355469 153.511719 61.367188 153.039062 60.238281 C 152.804688 59.722656 152.664062 59.15625 152.757812 58.589844 C 153.933594 58.921875 155.628906 59.296875 156.757812 58.308594 C 157.933594 57.273438 157.886719 55.722656 158.308594 54.359375 C 158.308594 53.132812 157.699219 52.050781 156.757812 51.582031 C 156.050781 51.394531 156.664062 50.640625 156.476562 50.167969 C 156.285156 49.289062 155.761719 48.515625 155.015625 48.007812 L 155.015625 47.910156 C 156.238281 47.957031 157.511719 47.347656 158.121094 46.171875 C 158.59375 45.183594 158.402344 43.773438 157.746094 42.972656 C 157.039062 42.171875 156.101562 41.84375 155.113281 41.890625 C 154.453125 41.136719 155.628906 41.277344 155.867188 40.808594 C 156.757812 40.007812 156.945312 38.597656 156.617188 37.515625 C 156.523438 37.375 156.429688 37.28125 156.570312 37.1875 C 158.453125 38.125 160.570312 38.878906 162.453125 40.242188 Z M 162.453125 40.242188 "/>
<path style=" stroke:none;fill-rule:evenodd;fill:rgb(100%,100%,100%);fill-opacity:1;" d="M 82.371094 38.125 C 82.609375 38.597656 82.609375 39.351562 82.371094 39.867188 C 82.066406 40.460938 81.4375 40.8125 80.773438 40.761719 C 80.207031 40.710938 79.644531 40.289062 79.410156 39.867188 C 79.183594 39.394531 79.164062 38.847656 79.359375 38.359375 C 79.503906 37.796875 80.066406 37.324219 80.679688 37.230469 C 81.386719 37.136719 81.996094 37.515625 82.371094 38.125 Z M 96.109375 38.078125 C 96.347656 38.40625 96.582031 38.785156 96.582031 39.300781 C 96.488281 39.808594 96.261719 40.277344 95.921875 40.664062 C 95.5 40.949219 94.933594 41.042969 94.464844 40.996094 C 93.851562 40.898438 93.289062 40.382812 93.144531 39.863281 C 92.957031 39.394531 92.957031 38.785156 93.242188 38.40625 C 93.5 37.863281 94.050781 37.515625 94.652344 37.511719 C 95.121094 37.46875 95.6875 37.65625 96.109375 38.078125 Z M 96.109375 38.078125 "/>
<path style=" stroke:none;fill-rule:evenodd;fill:rgb(80.784314%,21.960784%,16.078431%);fill-opacity:1;" d="M 149.039062 42.078125 C 149.371094 43.867188 149.605469 45.746094 149.511719 47.628906 L 148.242188 48.617188 C 146.738281 48.476562 145.464844 49.183594 144.757812 50.359375 C 144.148438 52.007812 143.066406 54.21875 144.382812 55.910156 C 144.757812 56.710938 145.605469 57.226562 146.5 57.460938 C 146.265625 58.167969 145.511719 58.78125 144.855469 59.015625 C 143.722656 59.390625 142.5 59.0625 141.746094 58.359375 C 140.949219 57.699219 140.570312 56.757812 140.710938 55.816406 C 141.132812 54.828125 141.226562 53.605469 140.804688 52.617188 C 140.238281 51.394531 138.878906 50.3125 137.558594 50.359375 C 136.101562 50.3125 134.878906 50.96875 134.125 52.195312 C 133.511719 53.039062 133.511719 54.21875 133.605469 55.253906 C 133.183594 56.144531 132.335938 57.085938 131.300781 57.277344 C 130.125 57.371094 128.953125 57.132812 128.292969 56.144531 C 127.964844 55.769531 127.679688 55.300781 127.726562 54.828125 C 128.902344 54.875 130.175781 54.5 130.972656 53.511719 C 132.101562 52.195312 131.679688 50.40625 131.726562 48.757812 C 131.535156 47.488281 130.457031 46.40625 129.375 45.984375 L 128.714844 45.84375 C 128.386719 44.851562 127.585938 43.867188 126.644531 43.445312 C 127.554688 42.738281 128.101562 41.671875 128.148438 40.523438 C 128.101562 39.679688 127.773438 38.925781 127.398438 38.3125 C 134.695312 36.996094 142.878906 37.890625 149.039062 42.078125 Z M 121.375 38.3125 C 121.46875 38.972656 120.953125 39.535156 121 40.242188 C 120.953125 41.46875 121.328125 42.59375 122.363281 43.347656 C 122.128906 43.488281 121.800781 43.628906 121.5625 43.816406 C 120.765625 44.476562 120.292969 45.183594 120.011719 46.03125 C 118.695312 46.738281 117.28125 47.535156 116.765625 49.042969 C 116.765625 50.59375 116.4375 52.570312 117.800781 53.699219 C 118.601562 54.511719 119.722656 54.925781 120.859375 54.828125 C 120.765625 55.628906 120.105469 56.289062 119.445312 56.804688 C 118.316406 57.324219 116.859375 57.324219 115.871094 56.617188 C 115.402344 56.097656 114.742188 55.535156 114.742188 54.828125 C 114.882812 53.464844 114.507812 52.148438 113.421875 51.253906 C 112.433594 50.453125 111.070312 50.171875 109.894531 50.59375 C 108.574219 50.921875 107.542969 52.289062 107.402344 53.558594 C 107.164062 54.734375 107.636719 55.722656 108.105469 56.710938 C 107.871094 57.652344 107.257812 58.734375 106.222656 59.0625 C 105.28125 59.347656 104.058594 59.300781 103.257812 58.734375 C 102.742188 58.3125 102.320312 57.933594 102.175781 57.371094 C 103.257812 56.992188 104.058594 55.863281 104.386719 54.828125 C 104.578125 53.042969 104.011719 51.394531 103.164062 50.03125 C 102.363281 49.089844 101.238281 48.617188 100.015625 48.664062 L 98.699219 47.203125 C 98.746094 45.417969 98.933594 43.675781 99.546875 42.078125 C 101.003906 40.996094 102.699219 40.289062 104.390625 39.628906 L 104.535156 39.628906 C 109.851562 37.609375 115.636719 37.421875 121.375 38.3125 Z M 121.375 38.3125 "/>
<path style=" stroke:none;fill-rule:evenodd;fill:rgb(0%,0%,0%);fill-opacity:1;" d="M 91.78125 39.253906 C 91.78125 40.054688 92.113281 40.761719 92.679688 41.371094 C 92.867188 41.984375 94.371094 41.796875 93.714844 42.6875 C 92.441406 42.5 91.3125 43.066406 90.703125 44.101562 C 90.136719 44.992188 90.230469 46.453125 90.839844 47.347656 C 91.3125 47.910156 91.972656 48.335938 92.679688 48.519531 C 92.113281 49.320312 91.640625 50.214844 91.832031 51.34375 C 90.84375 51.8125 89.855469 52.800781 89.855469 54.027344 C 89.808594 55.203125 90.183594 56.285156 90.5625 57.367188 C 90.984375 58.167969 91.878906 58.917969 92.867188 59.015625 C 93.949219 59.152344 94.9375 58.683594 95.972656 58.496094 C 96.253906 60.003906 95.40625 61.414062 94.136719 62.214844 C 92.960938 62.917969 91.453125 62.96875 90.183594 62.449219 C 89.480469 61.980469 88.679688 61.414062 88.398438 60.613281 C 88.160156 59.53125 87.128906 58.730469 86.1875 58.402344 C 85.171875 58.167969 84.101562 58.390625 83.269531 59.015625 C 82.421875 59.675781 82.046875 60.800781 82.1875 61.933594 C 82.1875 62.777344 82.703125 63.4375 83.316406 64.046875 C 83.363281 65.316406 82.84375 66.449219 81.902344 67.34375 C 80.585938 68.378906 78.703125 68.332031 77.339844 67.578125 L 77.339844 67.4375 C 78.46875 66.777344 79.503906 65.648438 79.597656 64.328125 C 79.410156 63.011719 78.796875 61.835938 78.28125 60.660156 C 77.902344 60.09375 77.339844 59.863281 76.726562 59.71875 C 77.054688 55.484375 78.230469 51.484375 79.972656 47.769531 C 81.152344 45.226562 82.984375 42.734375 85.480469 41.277344 C 87.453125 39.675781 89.667969 38.640625 91.972656 37.792969 C 92.019531 38.265625 91.738281 38.738281 91.78125 39.253906 Z M 126.222656 38.832031 C 126.878906 39.445312 127.117188 40.523438 126.789062 41.417969 C 126.550781 42.078125 125.847656 42.546875 125.234375 42.785156 C 124.246094 43.019531 123.164062 42.738281 122.601562 41.890625 C 122.175781 41.34375 122.039062 40.625 122.222656 39.960938 C 122.269531 39.300781 122.835938 38.785156 123.402344 38.457031 C 124.199219 38.03125 125.472656 38.078125 126.222656 38.832031 Z M 126.222656 38.832031 "/>
<path style=" stroke:none;fill-rule:evenodd;fill:rgb(100%,100%,100%);fill-opacity:1;" d="M 169.414062 49.792969 C 166.214844 47.628906 162.636719 46.5 159.066406 45.699219 C 159.207031 44.335938 158.6875 43.066406 157.792969 42.125 C 157.277344 41.796875 156.757812 41.511719 156.242188 41.371094 C 157.085938 40.570312 157.464844 39.492188 157.464844 38.3125 C 162.453125 40.195312 167.816406 44.429688 169.414062 49.792969 Z M 91.171875 38.832031 C 90.980469 40.148438 91.6875 41.277344 92.535156 42.125 C 91.40625 42.359375 90.277344 43.207031 89.902344 44.382812 L 89.664062 45.652344 C 86.230469 46.40625 82.796875 47.300781 79.925781 49.417969 C 80.773438 46.828125 82.464844 44.195312 84.914062 42.5 C 86.753906 40.898438 88.875 39.652344 91.171875 38.832031 Z M 125.753906 39.207031 C 126.128906 39.632812 126.363281 40.242188 126.269531 40.902344 C 126.125 41.429688 125.765625 41.871094 125.28125 42.125 C 124.71875 42.359375 124.011719 42.265625 123.539062 41.984375 C 123.023438 41.605469 122.742188 41.042969 122.789062 40.429688 C 122.835938 39.820312 123.164062 39.207031 123.777344 38.972656 C 124.417969 38.621094 125.210938 38.714844 125.753906 39.207031 Z M 125.753906 39.207031 "/>
<path style=" stroke:none;fill-rule:evenodd;fill:rgb(0%,0%,0%);fill-opacity:1;" d="M 174.355469 42.453125 C 174.734375 43.113281 174.683594 44.101562 174.402344 44.851562 C 173.933594 45.558594 173.039062 46.078125 172.191406 45.984375 C 171.4375 45.984375 170.824219 45.605469 170.449219 45.089844 C 170.027344 44.523438 169.789062 43.914062 170.027344 43.207031 C 170.121094 42.550781 170.496094 41.890625 171.15625 41.609375 C 172.144531 40.996094 173.695312 41.277344 174.355469 42.453125 Z M 78.65625 42.6875 C 79.078125 43.253906 79.078125 44.054688 78.9375 44.804688 C 78.703125 45.371094 78.1875 45.886719 77.574219 46.167969 C 76.960938 46.359375 76.117188 46.40625 75.550781 46.125 C 74.65625 45.699219 74.1875 44.757812 74.28125 43.816406 C 74.28125 43.113281 74.65625 42.5 75.269531 42.078125 C 76.253906 41.324219 77.902344 41.558594 78.65625 42.6875 Z M 78.65625 42.6875 "/>
<path style=" stroke:none;fill-rule:evenodd;fill:rgb(100%,100%,100%);fill-opacity:1;" d="M 173.652344 42.5 C 174.027344 42.921875 174.117188 43.628906 173.976562 44.242188 C 173.820312 44.632812 173.539062 44.964844 173.179688 45.183594 C 172.613281 45.511719 171.957031 45.417969 171.484375 45.230469 C 170.734375 44.808594 170.402344 44.007812 170.640625 43.253906 C 170.683594 42.785156 171.015625 42.363281 171.484375 42.125 C 172.144531 41.652344 173.039062 41.890625 173.652344 42.5 Z M 78.089844 43.019531 C 78.46875 43.394531 78.421875 44.054688 78.328125 44.617188 C 78.1875 45.042969 77.8125 45.417969 77.386719 45.652344 C 76.679688 45.886719 75.785156 45.746094 75.269531 45.183594 C 74.796875 44.617188 74.703125 43.722656 75.128906 43.066406 C 75.410156 42.546875 75.972656 42.3125 76.492188 42.21875 C 77.105469 42.171875 77.714844 42.5 78.089844 43.019531 Z M 78.089844 43.019531 "/>
<path style=" stroke:none;fill-rule:evenodd;fill:rgb(0%,0%,0%);fill-opacity:1;" d="M 157.558594 43.726562 C 157.839844 44.289062 157.933594 44.996094 157.746094 45.652344 C 157.367188 46.5 156.570312 47.113281 155.769531 47.253906 L 154.546875 47.113281 C 153.605469 46.59375 152.851562 45.746094 153.039062 44.664062 C 153.039062 44.054688 153.371094 43.488281 153.890625 43.113281 C 154.453125 42.5 155.394531 42.40625 156.289062 42.6875 C 156.804688 42.785156 157.230469 43.253906 157.558594 43.726562 Z M 157.558594 43.726562 "/>
<path style=" stroke:none;fill-rule:evenodd;fill:rgb(100%,100%,100%);fill-opacity:1;" d="M 156.855469 43.726562 C 157.042969 44.054688 157.230469 44.429688 157.277344 44.902344 C 157.136719 45.46875 156.945312 46.03125 156.476562 46.359375 C 155.960938 46.546875 155.347656 46.785156 154.925781 46.546875 C 154.3125 46.410156 153.984375 45.9375 153.792969 45.511719 C 153.5625 44.996094 153.605469 44.335938 153.984375 43.914062 C 154.21875 43.539062 154.640625 43.257812 155.113281 43.160156 C 155.769531 43.066406 156.289062 43.300781 156.855469 43.726562 Z M 156.855469 43.726562 "/>
<path style=" stroke:none;fill-rule:evenodd;fill:rgb(0%,0%,0%);fill-opacity:1;" d="M 95.5 44.617188 C 95.78125 45.277344 95.6875 46.167969 95.359375 46.828125 C 94.886719 47.582031 94.042969 47.957031 93.195312 47.957031 C 92.394531 47.863281 91.59375 47.535156 91.21875 46.785156 C 90.75 46.03125 90.75 44.945312 91.3125 44.289062 C 91.78125 43.585938 92.488281 43.300781 93.289062 43.253906 C 94.179688 43.253906 95.121094 43.726562 95.5 44.617188 Z M 95.5 44.617188 "/>
<path style=" stroke:none;fill-rule:evenodd;fill:rgb(100%,100%,100%);fill-opacity:1;" d="M 94.792969 44.617188 C 95.074219 45.089844 95.121094 45.796875 94.933594 46.359375 C 94.558594 46.875 94.085938 47.300781 93.476562 47.394531 C 92.722656 47.441406 92.066406 46.96875 91.6875 46.359375 C 91.5 45.933594 91.40625 45.371094 91.6875 44.945312 C 91.925781 44.242188 92.582031 43.816406 93.382812 43.816406 C 93.898438 43.910156 94.417969 44.101562 94.792969 44.617188 Z M 94.792969 44.617188 "/>
<path style=" stroke:none;fill-rule:evenodd;fill:rgb(0%,0%,0%);fill-opacity:1;" d="M 127.777344 47.910156 C 128.390625 48.898438 128.390625 50.5 127.824219 51.582031 C 127.164062 52.570312 126.128906 53.324219 124.953125 53.464844 C 123.777344 53.511719 122.648438 53.230469 121.847656 52.429688 C 120.90625 51.347656 120.386719 49.890625 120.953125 48.523438 C 121.332031 47.160156 122.695312 46.125 124.105469 45.984375 C 125.609375 45.839844 127.023438 46.5 127.777344 47.910156 Z M 127.777344 47.910156 "/>
<path style=" stroke:none;fill-rule:evenodd;fill:rgb(80.784314%,21.960784%,16.078431%);fill-opacity:1;" d="M 169.835938 50.96875 C 170.542969 53.324219 171.15625 55.722656 171.53125 58.3125 L 171.484375 58.546875 C 169.695312 59.0625 169.226562 60.945312 168.664062 62.402344 C 168.285156 63.34375 168.425781 64.566406 169.039062 65.460938 C 169.367188 66.121094 170.167969 66.589844 170.875 66.964844 C 170.589844 67.203125 170.074219 67.25 169.746094 67.34375 C 168.664062 67.484375 167.390625 66.964844 166.734375 66.167969 C 166.074219 65.414062 165.746094 64.472656 166.027344 63.488281 C 166.777344 62.453125 167.109375 61.039062 166.734375 59.816406 C 166.359375 58.828125 165.464844 57.839844 164.519531 57.511719 C 163.382812 57.019531 162.070312 57.144531 161.039062 57.839844 C 159.976562 58.582031 159.34375 59.792969 159.34375 61.085938 C 158.171875 62.027344 156.570312 62.453125 155.296875 61.746094 C 154.355469 61.320312 153.558594 60.378906 153.417969 59.4375 C 154.125 59.535156 155.015625 59.582031 155.867188 59.390625 C 158.171875 58.875 158.453125 56.289062 158.921875 54.40625 C 158.875 53.042969 158.214844 51.769531 157.132812 51.019531 C 157.226562 49.984375 156.851562 49.089844 156.335938 48.382812 C 157.320312 48.148438 158.308594 47.207031 158.78125 46.265625 C 162.6875 47.160156 166.636719 48.335938 169.835938 50.96875 Z M 91.40625 48.664062 C 91.546875 48.710938 91.78125 48.851562 91.640625 49.089844 C 91.265625 49.652344 91.125 50.40625 91.125 51.109375 C 90.097656 51.621094 89.390625 52.609375 89.242188 53.746094 C 89.054688 55.15625 89.667969 56.335938 90.042969 57.652344 C 90.722656 58.953125 92.109375 59.726562 93.570312 59.628906 L 95.3125 59.300781 C 95.3125 60.144531 94.792969 61.039062 94.042969 61.605469 C 93.054688 62.308594 91.640625 62.355469 90.558594 61.933594 C 88.726562 61.414062 89.101562 59.300781 87.644531 58.5 C 86.65625 57.652344 85.292969 57.511719 84.113281 57.886719 C 82.65625 58.359375 81.667969 59.722656 81.574219 61.226562 C 81.527344 62.402344 81.902344 63.4375 82.75 64.285156 C 82.609375 65.226562 82.421875 66.167969 81.574219 66.824219 C 80.679688 67.484375 79.597656 67.71875 78.5625 67.390625 C 79.597656 66.355469 80.585938 64.945312 80.023438 63.390625 C 79.269531 61.933594 79.269531 59.863281 77.433594 59.347656 C 77.480469 56.851562 78.234375 54.59375 78.847656 52.335938 L 79.457031 50.546875 C 82.375 48.007812 86.042969 47.207031 89.667969 46.3125 C 89.996094 47.160156 90.511719 48.101562 91.40625 48.664062 Z M 91.40625 48.664062 "/>
<path style=" stroke:none;fill-rule:evenodd;fill:rgb(100%,100%,100%);fill-opacity:1;" d="M 127.351562 48.382812 C 127.871094 49.511719 127.636719 51.015625 126.785156 52.003906 C 125.753906 52.898438 124.292969 53.132812 123.070312 52.570312 C 122.035156 52.003906 121.28125 51.066406 121.375 49.839844 C 121.328125 48.804688 121.660156 47.816406 122.597656 47.207031 C 123.351562 46.640625 124.386719 46.453125 125.421875 46.6875 C 126.175781 46.921875 126.972656 47.582031 127.351562 48.382812 Z M 127.351562 48.382812 "/>
<path style=" stroke:none;fill-rule:evenodd;fill:rgb(0%,0%,0%);fill-opacity:1;" d="M 177.179688 48.476562 C 177.414062 49.371094 177.179688 50.359375 176.515625 51.0625 C 175.953125 51.394531 175.390625 51.628906 174.824219 51.628906 C 174.117188 51.484375 173.457031 51.203125 173.035156 50.640625 C 172.46875 49.933594 172.378906 48.851562 172.847656 48.144531 C 173.320312 47.441406 174.023438 46.875 174.917969 46.921875 C 175.8125 46.875 176.753906 47.535156 177.179688 48.476562 Z M 76.304688 48.898438 C 76.585938 49.652344 76.257812 50.5 75.835938 51.160156 C 75.175781 51.769531 74.28125 52.148438 73.386719 51.910156 C 72.683594 51.722656 72.164062 51.019531 71.882812 50.453125 C 71.503906 49.511719 71.835938 48.570312 72.445312 47.957031 C 73.011719 47.347656 73.953125 47.160156 74.75 47.394531 C 75.316406 47.582031 76.070312 48.195312 76.304688 48.898438 Z M 76.304688 48.898438 "/>
<path style=" stroke:none;fill-rule:evenodd;fill:rgb(100%,100%,100%);fill-opacity:1;" d="M 176.238281 48.101562 C 176.613281 48.476562 176.660156 49.089844 176.660156 49.699219 C 176.472656 50.214844 176 50.734375 175.53125 50.921875 C 174.917969 51.109375 174.449219 50.96875 173.976562 50.734375 C 173.507812 50.40625 173.273438 49.980469 173.273438 49.511719 C 173.179688 48.804688 173.367188 48.191406 173.976562 47.863281 C 174.589844 47.300781 175.625 47.488281 176.238281 48.101562 Z M 75.175781 48.335938 C 75.550781 48.710938 75.785156 49.226562 75.738281 49.839844 C 75.644531 50.40625 75.222656 51.0625 74.65625 51.253906 C 74.109375 51.433594 73.503906 51.363281 73.011719 51.0625 C 72.398438 50.496094 72.164062 49.605469 72.492188 48.898438 C 72.683594 48.335938 73.292969 48.003906 73.808594 47.863281 C 74.28125 47.816406 74.75 48.007812 75.175781 48.335938 Z M 75.175781 48.335938 "/>
<path style=" stroke:none;fill-rule:evenodd;fill:rgb(0%,0%,0%);fill-opacity:1;" d="M 99.828125 51.066406 C 100.863281 52.195312 100.910156 54.171875 100.207031 55.535156 C 99.359375 56.617188 98.132812 57.226562 96.863281 57.226562 C 95.632812 57.183594 94.496094 56.554688 93.804688 55.535156 C 93.195312 54.59375 92.960938 53.277344 93.429688 52.242188 C 93.804688 50.78125 95.21875 49.886719 96.628906 49.746094 C 97.898438 49.652344 98.980469 50.121094 99.828125 51.066406 Z M 154.546875 51.15625 C 155.34375 52.097656 155.769531 53.464844 155.394531 54.730469 C 154.96875 55.863281 153.980469 56.945312 152.851562 57.273438 C 151.722656 57.554688 150.40625 57.414062 149.605469 56.710938 C 148.570312 55.816406 147.863281 54.6875 148.054688 53.273438 C 148.148438 51.957031 149.136719 50.78125 150.3125 50.214844 C 151.722656 49.652344 153.464844 49.980469 154.546875 51.15625 Z M 154.546875 51.15625 "/>
<path style=" stroke:none;fill-rule:evenodd;fill:rgb(100%,100%,100%);fill-opacity:1;" d="M 99.640625 51.816406 C 100.207031 52.570312 100.207031 53.839844 99.875 54.78125 C 99.359375 55.722656 98.371094 56.523438 97.382812 56.617188 C 96.394531 56.710938 95.40625 56.382812 94.746094 55.722656 C 94.042969 54.972656 93.617188 54.03125 93.851562 52.996094 C 93.996094 51.867188 94.886719 50.78125 96.019531 50.453125 C 97.382812 49.980469 98.886719 50.59375 99.640625 51.816406 Z M 154.171875 51.628906 C 154.921875 52.476562 155.015625 53.746094 154.6875 54.828125 C 154.355469 55.769531 153.417969 56.523438 152.523438 56.757812 C 151.394531 56.992188 150.21875 56.664062 149.511719 55.816406 C 148.808594 55.015625 148.476562 53.980469 148.808594 52.898438 C 149.089844 51.675781 150.078125 50.640625 151.394531 50.546875 C 152.476562 50.359375 153.371094 50.921875 154.171875 51.628906 Z M 154.171875 51.628906 "/>
<path style=" stroke:none;fill-rule:evenodd;fill:rgb(0%,0%,0%);fill-opacity:1;" d="M 178.070312 53.792969 C 178.402344 54.074219 178.542969 54.640625 178.871094 54.921875 C 178.777344 55.347656 178.871094 55.957031 178.730469 56.476562 C 178.308594 57.277344 177.460938 57.933594 176.613281 57.980469 C 175.863281 57.886719 175.15625 57.746094 174.777344 57.179688 C 174.273438 56.675781 174.058594 55.949219 174.210938 55.253906 C 174.210938 54.59375 174.589844 54.027344 175.199219 53.652344 C 175.90625 53.039062 177.269531 53.132812 178.070312 53.792969 Z M 74.46875 54.828125 C 74.9375 55.582031 74.84375 56.757812 74.28125 57.460938 C 73.667969 58.214844 72.632812 58.449219 71.738281 58.214844 C 71.0625 57.945312 70.53125 57.398438 70.28125 56.710938 C 70.042969 56.097656 70.140625 55.34375 70.46875 54.78125 C 70.847656 54.167969 71.503906 53.699219 72.257812 53.652344 C 73.152344 53.558594 74.09375 53.980469 74.46875 54.828125 Z M 74.46875 54.828125 "/>
<path style=" stroke:none;fill-rule:evenodd;fill:rgb(100%,100%,100%);fill-opacity:1;" d="M 177.976562 54.59375 C 178.261719 55.15625 178.308594 56.050781 177.933594 56.664062 C 177.507812 57.085938 177.039062 57.324219 176.566406 57.367188 C 175.957031 57.320312 175.4375 57.132812 175.105469 56.710938 C 174.683594 56.238281 174.683594 55.441406 174.917969 54.921875 C 175.105469 54.261719 175.765625 53.886719 176.421875 53.839844 C 176.988281 53.792969 177.503906 54.121094 177.976562 54.59375 Z M 73.90625 54.96875 C 74.234375 55.394531 74.234375 56.097656 74.09375 56.617188 C 73.859375 57.132812 73.339844 57.652344 72.773438 57.699219 C 72.164062 57.746094 71.644531 57.605469 71.269531 57.226562 C 70.886719 56.84375 70.710938 56.300781 70.796875 55.769531 C 70.847656 55.015625 71.410156 54.453125 72.164062 54.261719 C 72.773438 54.074219 73.433594 54.453125 73.90625 54.96875 Z M 73.90625 54.96875 "/>
<path style=" stroke:none;fill-rule:evenodd;fill:rgb(0%,0%,0%);fill-opacity:1;" d="M 124.671875 54.261719 C 124.765625 56.378906 125.847656 58.402344 127.777344 59.484375 L 127.730469 59.957031 C 125.425781 59.957031 122.976562 59.957031 120.71875 60.050781 C 120.53125 59.863281 120.484375 59.484375 120.859375 59.4375 C 122.601562 58.355469 123.964844 56.425781 124.105469 54.359375 C 124.246094 54.214844 124.4375 54.214844 124.671875 54.261719 Z M 124.671875 54.261719 "/>
<path style=" stroke:none;fill-rule:evenodd;fill:rgb(80.784314%,21.960784%,16.078431%);fill-opacity:1;" d="M 126.550781 59.390625 L 126.457031 59.4375 C 124.90625 59.34375 123.449219 59.390625 122.035156 59.4375 C 123.070312 58.496094 123.917969 57.460938 124.386719 56.191406 C 124.90625 57.324219 125.425781 58.546875 126.550781 59.390625 Z M 126.550781 59.390625 "/>
<path style=" stroke:none;fill-rule:evenodd;fill:rgb(0%,0%,0%);fill-opacity:1;" d="M 113.566406 58.402344 C 114.226562 59.109375 115.121094 59.582031 116.058594 59.910156 L 116.058594 60.425781 C 113.660156 60.707031 111.167969 61.085938 108.910156 61.507812 C 108.109375 60.804688 109.425781 60.570312 109.660156 60.097656 C 110.320312 59.300781 110.648438 58.3125 111.027344 57.417969 C 111.542969 57.417969 112.0625 57.132812 112.578125 57.132812 Z M 137.9375 57.273438 C 138.457031 58.449219 138.785156 59.863281 140.011719 60.753906 C 140.101562 60.945312 139.871094 61.085938 139.871094 61.273438 C 137.609375 60.945312 135.304688 60.519531 133.09375 60.378906 C 132.578125 59.484375 133.894531 59.71875 134.269531 59.203125 C 135.023438 58.636719 135.632812 57.839844 136.152344 57.132812 C 136.714844 57.273438 137.28125 57.417969 137.9375 57.273438 Z M 99.167969 57.605469 C 99.921875 59.53125 101.570312 61.507812 103.734375 61.980469 C 103.828125 62.074219 103.78125 62.308594 103.78125 62.496094 L 96.207031 64.472656 C 95.546875 63.8125 96.816406 63.671875 96.960938 63.15625 C 98.136719 61.648438 98.746094 59.8125 98.511719 57.839844 C 98.652344 57.699219 98.886719 57.605469 99.167969 57.605469 Z M 150.265625 57.886719 C 150.125 60.003906 150.6875 62.074219 152.335938 63.53125 C 152.476562 63.71875 152.996094 63.957031 152.710938 64.285156 L 152.523438 64.378906 C 150.125 63.671875 147.863281 62.96875 145.515625 62.402344 C 145.277344 61.605469 146.3125 61.789062 146.738281 61.460938 C 148.101562 60.664062 149.417969 59.25 149.839844 57.746094 Z M 150.265625 57.886719 "/>
<path style=" stroke:none;fill-rule:evenodd;fill:rgb(80.784314%,21.960784%,16.078431%);fill-opacity:1;" d="M 113.378906 59.0625 L 114.648438 60.003906 L 109.941406 60.707031 C 110.554688 59.863281 111.117188 58.96875 111.449219 57.980469 C 111.730469 57.886719 112.058594 57.792969 112.339844 57.839844 Z M 137.515625 57.980469 C 137.796875 58.828125 138.316406 59.675781 138.878906 60.472656 C 137.464844 60.285156 135.867188 60.050781 134.316406 59.910156 C 135.066406 59.4375 135.820312 58.589844 136.480469 57.792969 Z M 137.515625 57.980469 "/>
<path style=" stroke:none;fill-rule:evenodd;fill:rgb(0%,0%,0%);fill-opacity:1;" d="M 179.199219 58.074219 L 179.199219 58.121094 L 179.105469 58.121094 C 179.011719 58.027344 179.15625 57.980469 179.199219 58.074219 Z M 179.199219 58.074219 "/>
<path style=" stroke:none;fill-rule:evenodd;fill:rgb(80.784314%,21.960784%,16.078431%);fill-opacity:1;" d="M 102.511719 62.167969 C 100.863281 62.589844 99.074219 63.0625 97.476562 63.53125 C 98.492188 62.253906 99.085938 60.691406 99.171875 59.0625 C 99.96875 60.332031 101.097656 61.605469 102.511719 62.167969 Z M 151.347656 63.390625 C 149.746094 63.011719 148.242188 62.402344 146.738281 62.121094 C 147.820312 61.507812 149.039062 60.664062 149.699219 59.4375 C 149.796875 60.945312 150.40625 62.214844 151.347656 63.390625 Z M 151.347656 63.390625 "/>
<path style=" stroke:none;fill-rule:evenodd;fill:rgb(0%,0%,0%);fill-opacity:1;" d="M 179.15625 61.507812 C 179.953125 62.496094 180.144531 63.863281 179.71875 65.128906 C 179.203125 66.308594 178.027344 67.25 176.847656 67.390625 C 175.578125 67.53125 174.449219 67.105469 173.652344 66.261719 C 172.816406 65.34375 172.515625 64.066406 172.851562 62.875 C 173.179688 61.460938 174.449219 60.378906 175.863281 60.191406 C 177.039062 60.050781 178.355469 60.378906 179.15625 61.507812 Z M 179.15625 61.507812 "/>
<path style=" stroke:none;fill-rule:evenodd;fill:rgb(100%,100%,100%);fill-opacity:1;" d="M 179.058594 62.402344 C 179.199219 62.828125 179.25 63.390625 179.390625 63.957031 C 179.199219 65.039062 178.496094 66.214844 177.460938 66.636719 C 176.378906 67.015625 175.25 66.828125 174.449219 66.214844 C 173.652344 65.507812 173.367188 64.707031 173.367188 63.769531 C 173.367188 62.5 174.167969 61.320312 175.4375 60.945312 C 176.800781 60.378906 178.355469 61.085938 179.058594 62.402344 Z M 179.058594 62.402344 "/>
<path style=" stroke:none;fill-rule:evenodd;fill:rgb(0%,0%,0%);fill-opacity:1;" d="M 76.164062 62.589844 C 76.820312 63.4375 76.960938 64.800781 76.585938 65.886719 C 76.070312 66.964844 74.894531 68 73.667969 68.191406 C 72.585938 68.191406 71.597656 67.957031 70.75 67.25 C 69.8125 66.261719 69.246094 64.945312 69.667969 63.53125 C 70.09375 62.167969 71.457031 60.992188 72.917969 60.945312 C 74.1875 60.800781 75.410156 61.460938 76.164062 62.589844 Z M 76.164062 62.589844 "/>
<path style=" stroke:none;fill-rule:evenodd;fill:rgb(100%,100%,100%);fill-opacity:1;" d="M 75.503906 62.640625 C 76.164062 63.484375 76.351562 64.753906 75.925781 65.789062 C 75.511719 66.597656 74.804688 67.222656 73.949219 67.53125 C 73.152344 67.71875 72.351562 67.484375 71.644531 67.109375 C 70.703125 66.496094 70.140625 65.460938 70.1875 64.378906 C 70.1875 63.296875 70.894531 62.355469 71.789062 61.839844 C 73.007812 61.226562 74.5625 61.460938 75.503906 62.640625 Z M 75.503906 62.640625 "/>
<path style=" stroke:none;fill-rule:evenodd;fill:rgb(0%,0%,0%);fill-opacity:1;" d="M 160.992188 71.578125 L 164.851562 73.226562 C 165.179688 73.507812 165.464844 73.976562 165.273438 74.496094 C 165.085938 74.871094 164.613281 74.964844 164.378906 75.246094 L 164.945312 77.742188 C 164.003906 78.257812 163.0625 78.824219 162.265625 79.480469 C 162.359375 79.859375 162.40625 80.328125 162.21875 80.75 C 161.84375 81.082031 161.371094 81.316406 160.949219 81.128906 C 160.527344 80.941406 160.289062 80.703125 159.960938 80.609375 C 150.363281 76.234375 139.964844 73.035156 129 73.035156 C 121.988281 72.847656 115.449219 73.035156 108.769531 74.402344 C 101.242188 75.8125 94.183594 78.636719 87.410156 81.929688 C 86.910156 82.0625 86.378906 81.898438 86.042969 81.503906 C 85.714844 81.035156 85.855469 80.375 85.996094 79.953125 L 83.644531 78.304688 C 83.738281 77.457031 83.925781 76.5625 84.066406 75.71875 C 83.644531 75.527344 83.078125 75.433594 82.9375 74.917969 C 82.890625 74.585938 82.890625 74.117188 83.171875 73.835938 C 84.019531 73.269531 85.054688 72.988281 86.042969 72.613281 C 98.230469 67.578125 111.167969 63.53125 125 63.53125 C 137.65625 63.4375 149.652344 66.964844 160.992188 71.578125 Z M 162.734375 64.238281 C 162.828125 65.742188 163.296875 67.203125 164.429688 68.425781 C 164.148438 69.320312 163.535156 68.332031 163.109375 68.425781 C 161.039062 67.4375 158.921875 66.59375 156.898438 65.839844 C 156.664062 65.699219 156.804688 65.460938 156.898438 65.320312 C 158.308594 65.132812 159.957031 64.757812 161.179688 63.675781 C 161.652344 63.8125 162.121094 64.097656 162.734375 64.238281 Z M 91.738281 65.414062 C 91.78125 65.507812 91.875 65.695312 91.828125 65.933594 C 89.429688 66.824219 87.03125 67.53125 84.773438 68.660156 L 84.160156 68.800781 C 84.253906 68.378906 84.726562 68.097656 84.960938 67.71875 C 85.570312 66.828125 85.851562 65.742188 85.949219 64.660156 C 86.464844 64.378906 86.984375 64.191406 87.453125 63.816406 C 88.726562 64.660156 90.136719 65.367188 91.738281 65.414062 Z M 91.738281 65.414062 "/>
<path style=" stroke:none;fill-rule:evenodd;fill:rgb(93.72549%,76.862745%,37.647059%);fill-opacity:1;" d="M 157.039062 70.636719 C 159.441406 71.484375 161.886719 72.566406 164.332031 73.601562 C 164.519531 73.695312 164.707031 74.023438 164.613281 74.304688 L 164.097656 74.632812 L 160.238281 75.859375 C 160.613281 77.222656 161.226562 78.539062 161.792969 79.949219 C 161.792969 80.28125 161.507812 80.515625 161.277344 80.609375 C 152.003906 76.328125 142.125 72.894531 131.726562 72.519531 C 121.894531 71.953125 111.78125 72.519531 102.652344 75.292969 C 97.289062 76.847656 92.160156 78.964844 87.171875 81.363281 C 86.796875 81.457031 86.609375 81.222656 86.46875 81.035156 C 86.5625 79.621094 87.359375 78.445312 87.738281 77.175781 L 88.160156 76.140625 C 86.742188 75.675781 85.296875 75.300781 83.832031 75.011719 C 83.550781 74.871094 83.410156 74.496094 83.597656 74.257812 L 84.351562 73.882812 C 98.136719 68.1875 113.003906 63.34375 128.671875 64.238281 C 138.363281 64.613281 147.960938 67.25 157.039062 70.636719 Z M 157.039062 70.636719 "/>
<path style=" stroke:none;fill-rule:evenodd;fill:rgb(80.784314%,21.960784%,16.078431%);fill-opacity:1;" d="M 162.167969 64.660156 C 162.355469 65.695312 162.542969 66.777344 163.15625 67.71875 C 161.558594 67.058594 159.910156 66.355469 158.402344 65.742188 C 159.433594 65.453125 160.402344 64.992188 161.277344 64.378906 Z M 90.277344 65.789062 L 85.855469 67.53125 C 86.042969 66.824219 86.324219 65.886719 86.511719 65.085938 L 87.5 64.566406 C 88.347656 65.085938 89.289062 65.601562 90.277344 65.789062 Z M 90.277344 65.789062 "/>
<path style=" stroke:none;fill-rule:evenodd;fill:rgb(0%,0%,0%);fill-opacity:1;" d="M 131.679688 68.472656 C 131.773438 68.660156 131.445312 68.660156 131.351562 68.753906 L 124.433594 70.917969 L 117.09375 68.660156 L 117.09375 68.519531 C 119.585938 67.578125 122.035156 66.542969 124.574219 65.601562 C 126.929688 66.449219 129.28125 67.53125 131.679688 68.472656 Z M 172.707031 65.789062 L 172.566406 65.695312 L 172.707031 65.742188 Z M 172.707031 65.789062 "/>
<path style=" stroke:none;fill-rule:evenodd;fill:rgb(80.784314%,21.960784%,16.078431%);fill-opacity:1;" d="M 130.035156 68.472656 L 124.386719 70.304688 L 118.882812 68.566406 L 118.882812 68.472656 L 124.578125 66.261719 C 126.414062 66.875 128.199219 67.71875 130.035156 68.472656 Z M 130.035156 68.472656 "/>
<path style=" stroke:none;fill-rule:evenodd;fill:rgb(0%,0%,0%);fill-opacity:1;" d="M 138.03125 67.8125 C 138.285156 68.457031 138.351562 69.160156 138.222656 69.835938 C 137.890625 70.777344 136.855469 71.4375 135.960938 71.625 C 134.925781 71.671875 134.082031 71.25 133.5625 70.542969 C 133.140625 70.023438 132.996094 69.460938 133.046875 68.800781 C 133.09375 67.8125 133.890625 66.875 134.832031 66.589844 C 135.960938 66.167969 137.328125 66.683594 138.03125 67.8125 Z M 115.402344 68.09375 C 115.683594 68.941406 115.636719 70.167969 114.929688 70.917969 C 114.320312 71.4375 113.566406 71.71875 112.816406 71.625 C 111.921875 71.484375 111.027344 70.824219 110.839844 70.023438 C 110.464844 69.085938 110.6875 68.011719 111.402344 67.296875 C 112.015625 66.683594 113.003906 66.402344 113.898438 66.730469 C 114.460938 66.964844 115.121094 67.4375 115.402344 68.09375 Z M 115.402344 68.09375 "/>
<path style=" stroke:none;fill-rule:evenodd;fill:rgb(100%,100%,100%);fill-opacity:1;" d="M 137.234375 67.8125 C 137.515625 68.191406 137.703125 68.753906 137.65625 69.320312 C 137.46875 70.023438 136.949219 70.730469 136.292969 70.964844 C 135.558594 71.140625 134.785156 70.949219 134.222656 70.449219 C 133.65625 69.789062 133.46875 68.753906 133.984375 68 C 134.316406 67.4375 134.878906 67.109375 135.539062 67.0625 C 136.152344 67.0625 136.808594 67.25 137.234375 67.8125 Z M 114.367188 67.671875 C 114.789062 68.144531 115.023438 68.753906 114.976562 69.460938 C 114.789062 70.023438 114.460938 70.683594 113.898438 70.921875 C 113.332031 71.15625 112.765625 71.0625 112.296875 70.875 C 111.542969 70.402344 111.121094 69.605469 111.308594 68.707031 C 111.449219 68.003906 112.015625 67.34375 112.765625 67.203125 C 113.332031 67.0625 113.898438 67.25 114.367188 67.671875 Z M 114.367188 67.671875 "/>
<path style=" stroke:none;fill-rule:evenodd;fill:rgb(0%,0%,0%);fill-opacity:1;" d="M 147.585938 68.613281 C 149.652344 69.976562 151.582031 71.671875 153.699219 73.082031 L 153.699219 73.175781 C 151.207031 73.316406 148.476562 73.367188 145.9375 73.507812 C 143.773438 72.09375 141.609375 70.917969 139.585938 69.460938 L 139.679688 69.363281 C 142.222656 69.082031 144.621094 68.894531 147.207031 68.566406 Z M 109.003906 69.554688 C 106.886719 71.058594 104.671875 72.519531 102.464844 73.742188 L 95.125 73.367188 L 95.078125 73.269531 L 101.242188 68.617188 L 108.957031 69.507812 Z M 109.003906 69.554688 "/>
<path style=" stroke:none;fill-rule:evenodd;fill:rgb(11.764706%,49.411765%,38.431373%);fill-opacity:1;" d="M 152.050781 72.660156 C 149.980469 72.707031 148.054688 72.894531 145.984375 72.894531 C 144.429688 71.71875 142.78125 70.964844 141.277344 69.835938 C 143.253906 69.648438 145.136719 69.273438 147.207031 69.175781 C 148.902344 70.117188 150.359375 71.4375 152.050781 72.660156 Z M 107.449219 69.929688 C 105.804688 71.058594 104.0625 72.09375 102.367188 73.128906 L 96.722656 72.894531 L 96.722656 72.800781 L 101.429688 69.175781 C 103.453125 69.367188 105.425781 69.648438 107.449219 69.929688 Z M 107.449219 69.929688 "/>
<path style=" stroke:none;fill-rule:evenodd;fill:rgb(0%,0%,0%);fill-opacity:1;" d="M 159.863281 73.695312 C 160.289062 74.496094 160.097656 75.765625 159.582031 76.5625 C 158.875 77.269531 157.839844 77.644531 156.898438 77.410156 C 156.003906 77.175781 155.253906 76.375 155.015625 75.625 C 154.734375 74.636719 155.015625 73.601562 155.816406 73.035156 C 156.429688 72.378906 157.371094 72.191406 158.265625 72.378906 C 158.828125 72.613281 159.535156 72.988281 159.863281 73.695312 Z M 92.960938 73.367188 C 93.429688 73.882812 93.664062 74.585938 93.617188 75.339844 C 93.476562 76 93.148438 76.660156 92.628906 77.082031 C 91.828125 77.597656 90.839844 77.742188 89.996094 77.410156 C 89.148438 76.941406 88.585938 76.09375 88.535156 75.199219 C 88.441406 74.117188 89.054688 73.316406 89.902344 72.800781 C 90.839844 72.28125 92.160156 72.519531 92.960938 73.367188 Z M 92.960938 73.367188 "/>
<path style=" stroke:none;fill-rule:evenodd;fill:rgb(100%,100%,100%);fill-opacity:1;" d="M 159.441406 74.210938 C 159.582031 74.777344 159.488281 75.480469 159.207031 76.046875 C 158.78125 76.421875 158.359375 76.753906 157.792969 76.894531 C 157.085938 76.941406 156.523438 76.660156 156.101562 76.28125 C 155.628906 75.765625 155.488281 75.152344 155.628906 74.632812 C 155.628906 73.976562 156.050781 73.410156 156.617188 73.175781 C 157.085938 72.894531 157.746094 72.753906 158.308594 73.082031 C 158.734375 73.269531 159.207031 73.648438 159.441406 74.210938 Z M 92.535156 73.789062 C 92.910156 74.210938 93.101562 74.824219 92.960938 75.386719 C 92.851562 76.003906 92.46875 76.539062 91.925781 76.847656 C 91.359375 77.035156 90.652344 77.082031 90.183594 76.847656 C 89.429688 76.375 89.054688 75.53125 89.195312 74.777344 C 89.242188 74.117188 89.664062 73.648438 90.183594 73.316406 C 90.9375 72.941406 91.925781 73.128906 92.535156 73.789062 Z M 92.535156 73.789062 "/>
<path style=" stroke:none;fill-rule:evenodd;fill:rgb(0%,0%,0%);fill-opacity:1;" d="M 162.6875 82.445312 C 172.613281 87.480469 181.742188 94.914062 189.175781 103.949219 C 193.832031 110.160156 198.253906 116.652344 201.265625 123.757812 C 205.597656 134.390625 208.089844 145.964844 208.042969 158.480469 C 207.574219 171.886719 204.511719 184.402344 198.777344 195.835938 C 195.90625 201.292969 192.1875 206.46875 188.375 211.597656 C 181.648438 219.3125 173.746094 225.949219 165.179688 230.839844 C 150.265625 239.121094 132.90625 242.699219 115.355469 240.863281 C 104.300781 239.40625 93.851562 236.15625 84.347656 230.839844 C 81.054688 229.003906 77.996094 226.699219 74.9375 224.675781 C 68.589844 219.785156 63.035156 213.902344 58.140625 207.550781 C 57.292969 206.148438 56.382812 204.78125 55.414062 203.457031 C 50.898438 196.632812 47.746094 189.296875 45.34375 181.765625 C 41.816406 169.300781 40.78125 154.761719 43.464844 141.777344 C 44.6875 133.683594 47.554688 126.390625 50.992188 119.332031 C 52.777344 115.945312 54.707031 112.605469 56.917969 109.546875 C 58.519531 106.722656 60.730469 104.371094 62.800781 101.878906 C 68.777344 94.867188 75.972656 89.175781 83.597656 84.613281 C 98.464844 76.050781 115.449219 72.050781 133.46875 73.839844 C 143.867188 74.824219 153.558594 77.835938 162.6875 82.445312 Z M 162.6875 82.445312 "/>
<path style=" stroke:none;fill-rule:evenodd;fill:rgb(93.72549%,76.862745%,37.647059%);fill-opacity:1;" d="M 168.851562 86.679688 C 177.742188 92.328125 185.691406 99.710938 191.953125 108.652344 C 201.082031 121.261719 206.019531 135.707031 207.195312 151.75 C 208.089844 167.699219 204.703125 182.898438 197.882812 196.257812 C 194.117188 202.75 189.882812 209.335938 184.425781 215.03125 C 166.453125 233.804688 141.46875 242.933594 115.828125 240.34375 C 100.535156 238.554688 86.421875 232.816406 74.234375 223.40625 C 68.542969 218.890625 63.414062 213.386719 59.132812 207.878906 C 57.625 205.902344 56.589844 203.789062 55.132812 201.949219 C 51.980469 197.011719 49.722656 191.789062 47.605469 186.566406 C 43.464844 175.460938 41.820312 162.898438 42.898438 150.335938 C 43.792969 139 46.898438 128.648438 51.839844 119.097656 C 51.886719 119.050781 52.078125 119.097656 52.078125 119.003906 L 51.984375 118.863281 C 53.300781 116.371094 54.617188 113.96875 56.167969 111.664062 C 57.109375 110.441406 57.675781 109.078125 58.664062 107.902344 C 62.992188 102.347656 67.648438 96.9375 73.203125 92.609375 C 75.929688 90.210938 78.894531 88.375 81.8125 86.445312 C 83.222656 85.175781 85.011719 84.703125 86.515625 83.671875 C 105.148438 73.507812 128.957031 71.0625 149.609375 77.742188 C 156.335938 79.8125 162.78125 82.917969 168.851562 86.679688 Z M 168.851562 86.679688 "/>
<path style=" stroke:none;fill-rule:evenodd;fill:rgb(80.784314%,21.960784%,16.078431%);fill-opacity:1;" d="M 164.238281 77.457031 C 163.484375 77.929688 162.734375 78.398438 162.074219 78.824219 C 161.652344 77.976562 161.226562 77.128906 161.039062 76.234375 C 161.886719 75.953125 162.734375 75.71875 163.675781 75.433594 C 163.957031 75.953125 164.050781 76.753906 164.238281 77.457031 Z M 87.265625 76.46875 C 86.984375 77.410156 86.511719 78.351562 86.183594 79.339844 L 84.398438 78.117188 C 84.398438 77.363281 84.539062 76.519531 84.867188 75.90625 Z M 87.265625 76.46875 "/>
<path style=" stroke:none;fill-rule:evenodd;fill:rgb(0%,0%,0%);fill-opacity:1;" d="M 171.34375 100.839844 C 179.8125 108.085938 187.292969 117.683594 191.476562 127.847656 C 195.339844 136.976562 197.503906 146.902344 197.550781 157.679688 C 197.453125 170.429688 193.878906 181.859375 188.65625 192.589844 C 182.398438 203.832031 172.707031 214.042969 161.605469 220.675781 C 155.582031 224.160156 149.230469 226.746094 142.5 228.582031 C 126.742188 232.675781 108.390625 230.792969 94.042969 223.921875 C 90.136719 222.042969 86.46875 219.785156 82.84375 217.382812 C 79.457031 214.558594 75.882812 211.972656 72.917969 208.679688 C 68.257812 203.878906 64.636719 198.65625 61.625 193.292969 C 58.753906 188.589844 57.109375 183.460938 55.414062 178.425781 C 52.355469 168.265625 51.554688 155.890625 53.53125 145.066406 C 54.472656 139.09375 56.402344 133.589844 58.425781 128.175781 C 61.859375 120.648438 66.140625 113.5 72.210938 107.242188 C 75.597656 103.195312 79.691406 100.136719 83.785156 97.03125 C 85.148438 96.277344 86.324219 95.195312 87.734375 94.492188 C 102.367188 85.410156 121.1875 81.929688 138.78125 85.316406 C 150.734375 87.621094 161.605469 92.890625 171.34375 100.839844 Z M 171.34375 100.839844 "/>
<path style=" stroke:none;fill-rule:evenodd;fill:rgb(100%,100%,100%);fill-opacity:1;" d="M 162.828125 95.429688 C 163.203125 95.714844 162.875 95.429688 163.25 95.714844 C 175.863281 103.621094 186.304688 116.179688 191.621094 129.824219 C 194.773438 137.964844 196.75 146.808594 196.890625 156.3125 C 197.03125 167.796875 194.394531 178.285156 190.113281 188.070312 C 187.195312 185.015625 184.1875 182.097656 181.363281 179.320312 C 181.648438 177.863281 182.210938 176.496094 182.679688 175.179688 C 186.019531 164.6875 186.257812 151.796875 183.246094 141.117188 C 181.597656 135.046875 179.011719 129.402344 175.71875 124.085938 C 170.210938 115.664062 162.5 108.324219 153.890625 103.808594 C 151.769531 105.832031 149.839844 108.136719 147.769531 110.253906 C 144.808594 113.3125 141.699219 116.324219 138.925781 119.429688 C 132.902344 117.125 126.035156 116.417969 119.636719 117.265625 L 118.835938 116.558594 L 115.402344 113.171875 L 105.050781 102.773438 L 95.3125 93.082031 L 94.085938 91.8125 L 94.371094 91.625 C 109.378906 84.285156 128.199219 82.542969 144.757812 87.34375 C 151.066406 89.269531 157.230469 91.714844 162.828125 95.429688 Z M 162.828125 95.429688 "/>
<path style=" stroke:none;fill-rule:evenodd;fill:rgb(16.862745%,24.313725%,54.117647%);fill-opacity:1;" d="M 104.015625 102.582031 L 108.34375 106.957031 L 118.742188 117.355469 C 115.589844 117.730469 112.71875 118.71875 109.898438 119.800781 L 106.554688 116.507812 C 102.460938 112.601562 98.460938 108.507812 94.417969 104.699219 C 88.769531 107.945312 83.597656 111.992188 79.21875 117.214844 C 74.609375 122.058594 71.644531 127.753906 68.960938 133.492188 L 68.824219 133.445312 L 60.589844 125.117188 C 62.847656 120.601562 65.480469 116.226562 68.679688 112.179688 C 70.984375 109.355469 73.386719 106.53125 75.972656 104.132812 C 79.3125 101.3125 82.511719 98.300781 86.230469 96.132812 C 88.488281 94.628906 90.933594 93.3125 93.382812 92.089844 L 93.476562 92.136719 Z M 104.015625 102.582031 "/>
<path style=" stroke:none;fill-rule:evenodd;fill:rgb(93.72549%,76.862745%,37.647059%);fill-opacity:1;" d="M 172.472656 120.554688 C 180.566406 131.519531 184.890625 144.269531 184.753906 158.761719 C 184.328125 169.0625 181.554688 178.664062 176.753906 187.367188 C 176.660156 187.179688 176.566406 187.320312 176.515625 187.367188 L 176.566406 187.695312 C 171.769531 196.261719 164.144531 203.742188 156.003906 209.152344 L 155.34375 209.480469 L 155.296875 209.292969 L 155.34375 197.484375 C 162.964844 191.507812 168.847656 183.226562 171.953125 174.476562 C 174.445312 167.703125 175.246094 159.9375 174.730469 152.410156 C 173.835938 142.8125 170.355469 134.292969 164.804688 126.863281 C 162.121094 123.332031 158.875 120.039062 155.535156 117.453125 L 155.394531 117.453125 C 152.964844 119.742188 150.625 122.128906 148.382812 124.605469 C 145.609375 122.582031 142.5 120.933594 139.585938 119.664062 C 143.011719 115.941406 146.507812 112.285156 150.078125 108.699219 L 154.078125 104.609375 C 161.085938 108.371094 167.34375 114.015625 172.472656 120.554688 Z M 118.035156 128.792969 C 120.160156 130.777344 122.246094 132.800781 124.292969 134.859375 C 124.339844 134.953125 124.246094 135.1875 124.480469 135.328125 C 126.503906 133.355469 128.53125 130.953125 130.644531 128.980469 C 131.304688 128.792969 131.914062 129.167969 132.621094 129.308594 C 135.257812 130.109375 137.84375 131.050781 140.195312 132.742188 L 140.054688 133.023438 L 137.183594 135.941406 L 125.09375 148.222656 L 124.527344 148.835938 C 122.460938 147.234375 120.953125 145.210938 119.117188 143.566406 C 112.671875 137.261719 106.507812 130.722656 100.0625 124.511719 L 93.429688 117.828125 L 93.054688 118.019531 C 93.007812 117.921875 92.960938 117.828125 92.910156 117.921875 C 90.277344 119.996094 87.691406 122.535156 85.667969 125.265625 C 81.527344 129.828125 79.03125 135.285156 76.960938 140.882812 C 72.964844 151.847656 73.292969 166.054688 78.09375 176.6875 C 79.503906 180.121094 81.339844 183.464844 83.410156 186.757812 C 85.007812 188.546875 86.46875 190.617188 88.207031 192.449219 C 89.949219 194.191406 91.738281 195.882812 93.761719 197.484375 L 93.714844 209.433594 C 89.855469 207.128906 86.230469 204.214844 82.890625 201.25 C 79.738281 197.765625 76.632812 194.238281 74.234375 190.566406 C 70.65625 184.402344 67.601562 178.148438 66.1875 171.230469 C 62.894531 156.925781 65.105469 140.980469 71.929688 128.933594 C 74.609375 123.195312 79.035156 118.253906 83.410156 113.550781 C 85.902344 111.289062 88.585938 109.125 91.410156 107.246094 L 94.371094 105.457031 C 102.324219 113.167969 110.132812 120.933594 118.035156 128.792969 Z M 118.035156 128.792969 "/>
<path style=" stroke:none;fill-rule:evenodd;fill:rgb(93.72549%,76.862745%,37.647059%);fill-opacity:1;" d="M 145.65625 123.472656 C 148.058594 125.011719 150.300781 126.792969 152.335938 128.792969 L 152.335938 129.023438 C 149.984375 131.328125 147.585938 133.589844 145.324219 135.941406 C 144.714844 135.421875 144.054688 134.859375 143.539062 134.390625 C 139.726562 131.285156 135.539062 129.167969 130.929688 128.226562 C 126.835938 127.425781 122.414062 127.332031 118.414062 128.273438 C 115.496094 125.589844 113.144531 122.957031 110.460938 120.320312 C 121.613281 115.617188 135.585938 116.886719 145.65625 123.472656 Z M 145.65625 123.472656 "/>
<path style=" stroke:none;fill-rule:evenodd;fill:rgb(100%,100%,100%);fill-opacity:1;" d="M 158.214844 120.460938 C 166.589844 128.269531 171.8125 138.203125 173.695312 149.207031 C 174.640625 155.605469 174.355469 162.761719 172.988281 168.921875 L 172.472656 170.382812 C 167.628906 165.347656 162.546875 160.59375 157.933594 155.75 C 155.160156 152.925781 152.195312 150.199219 149.652344 147.46875 L 140.148438 137.917969 L 138.222656 135.847656 C 138.976562 134.8125 139.820312 134.011719 140.714844 133.164062 C 142.351562 134.160156 143.855469 135.363281 145.1875 136.738281 L 145.417969 136.738281 C 148 134.128906 150.605469 131.542969 153.230469 128.980469 L 153.183594 128.792969 C 151.816406 127.332031 150.21875 126.15625 148.949219 124.882812 C 150.972656 122.578125 153.230469 120.320312 155.488281 118.25 C 156.382812 118.816406 157.277344 119.664062 158.214844 120.460938 Z M 158.214844 120.460938 "/>
<path style=" stroke:none;fill-rule:evenodd;fill:rgb(16.862745%,24.313725%,54.117647%);fill-opacity:1;" d="M 100.15625 125.402344 L 100.0625 125.636719 C 92.3125 131.625 87.066406 140.277344 85.339844 149.917969 C 84.066406 148.929688 82.796875 147.613281 81.808594 146.480469 C 81.667969 146.339844 81.667969 146.011719 81.433594 146.199219 L 77.339844 142.011719 C 78.75 137.402344 80.820312 133.074219 83.410156 129.023438 C 84.914062 127.144531 86.328125 125.027344 88.019531 123.378906 C 89.574219 121.589844 91.316406 119.898438 93.148438 118.535156 L 93.335938 118.535156 Z M 100.15625 125.402344 "/>
<path style=" stroke:none;fill-rule:evenodd;fill:rgb(0%,0%,0%);fill-opacity:1;" d="M 61.71875 121.214844 L 61.71875 121.261719 L 61.671875 121.121094 C 61.671875 121.121094 61.71875 121.121094 61.71875 121.214844 Z M 61.71875 121.214844 "/>
<path style=" stroke:none;fill-rule:evenodd;fill:rgb(100%,100%,100%);fill-opacity:1;" d="M 68.632812 134.152344 C 62.894531 147.5625 62.519531 165.820312 68.023438 179.648438 C 70.609375 185.71875 73.71875 191.648438 78.328125 197.011719 C 79.878906 198.800781 81.761719 200.777344 83.5 202.609375 C 86.796875 205.433594 90.417969 208.304688 94.277344 210.46875 L 94.371094 210.1875 L 94.417969 197.339844 L 94.230469 197.058594 C 91.5 194.941406 88.960938 192.351562 86.652344 189.8125 C 84.253906 186.847656 82.136719 183.886719 80.585938 180.6875 C 75.269531 170.523438 73.292969 157.820312 76.117188 146.007812 L 77.054688 142.714844 L 77.480469 143 C 80.164062 145.445312 82.421875 148.269531 85.148438 150.714844 C 84.445312 154.621094 84.398438 159.277344 85.054688 163.464844 C 85.667969 167.605469 86.796875 171.558594 88.679688 175.273438 C 92.253906 182.472656 98.558594 189.390625 105.945312 193.105469 C 108.4375 194.519531 111.167969 195.554688 114.035156 196.445312 L 114.035156 214.375 C 117.847656 214.375 121.1875 214.324219 124.8125 214.375 L 124.859375 214.089844 L 124.90625 197.90625 C 127.210938 197.714844 129.328125 197.574219 131.632812 197.246094 L 137.75 203.359375 C 142.832031 208.679688 148.195312 213.761719 153.371094 219.21875 C 154.546875 220.300781 155.628906 221.289062 156.855469 222.605469 C 140.855469 230.742188 120.953125 232.390625 103.734375 227.027344 C 96.957031 224.816406 90.605469 221.898438 84.726562 217.902344 C 82.375 216.441406 80.257812 214.464844 78.140625 212.820312 C 73.152344 208.441406 68.589844 203.316406 65.152344 197.996094 C 62 193.058594 59.226562 188.023438 57.4375 182.660156 C 56.308594 179.179688 55.179688 175.746094 54.519531 172.167969 C 52.167969 161.0625 52.777344 148.3125 55.789062 137.773438 C 57.152344 133.679688 58.140625 129.449219 60.257812 125.777344 C 63.175781 128.414062 65.765625 131.234375 68.632812 134.152344 Z M 68.632812 134.152344 "/>
<path style=" stroke:none;fill-rule:evenodd;fill:rgb(93.72549%,76.862745%,37.647059%);fill-opacity:1;" d="M 107.683594 132.976562 L 107.683594 133.070312 C 97.710938 139.988281 93.097656 152.078125 95.875 164.078125 C 97.429688 171.179688 102.039062 177.8125 108.578125 182.144531 C 116.15625 187.128906 126.550781 188.164062 135.257812 184.871094 C 138.738281 183.601562 141.84375 181.25 144.808594 178.898438 C 147.0625 181.25 149.511719 183.460938 151.863281 186.144531 C 149.367188 188.96875 145.984375 190.894531 142.78125 192.824219 C 132.246094 198.566406 117.941406 198.609375 107.261719 193.152344 C 102.746094 190.847656 98.605469 187.742188 95.214844 183.886719 C 89.429688 177.34375 86.042969 169.675781 85.429688 160.972656 C 84.820312 152.597656 86.417969 144.554688 90.324219 137.824219 C 92.863281 133.402344 96.488281 129.023438 100.582031 125.964844 C 102.933594 128.269531 105.378906 130.4375 107.683594 132.976562 Z M 107.683594 132.976562 "/>
<path style=" stroke:none;fill-rule:evenodd;fill:rgb(16.862745%,24.313725%,54.117647%);fill-opacity:1;" d="M 129.941406 128.695312 C 129.425781 129.308594 128.71875 129.921875 128.199219 130.625 C 127.023438 131.753906 125.847656 133.023438 124.671875 134.246094 C 122.695312 132.601562 120.953125 130.578125 119.070312 128.792969 C 122.550781 127.992188 126.269531 127.992188 129.941406 128.695312 Z M 121.425781 146.808594 C 122.414062 147.75 123.304688 148.738281 124.4375 149.679688 L 124.671875 149.539062 C 129 144.976562 133.1875 140.648438 137.703125 136.316406 C 139.019531 137.539062 140.339844 139.046875 141.796875 140.457031 C 144.382812 142.859375 146.832031 145.679688 149.558594 148.175781 C 152.195312 150.953125 154.878906 153.628906 157.792969 156.457031 L 167.011719 165.769531 L 172.285156 171.089844 C 170.777344 176.3125 168.566406 181.25 165.460938 185.910156 C 162.355469 190.046875 158.921875 194 154.734375 197.152344 L 154.640625 197.53125 L 154.640625 210.46875 L 154.78125 210.5625 C 165.085938 204.398438 174.070312 194.707031 179.199219 184.027344 L 181.035156 179.886719 C 183.90625 182.710938 186.914062 185.578125 189.832031 188.730469 C 187.714844 193.296875 184.984375 197.578125 181.882812 201.8125 C 175.246094 210.328125 166.777344 217.433594 157.460938 222.324219 C 154.167969 218.9375 150.925781 215.925781 147.769531 212.632812 L 138.6875 203.457031 C 136.621094 201.335938 134.519531 199.25 132.382812 197.199219 L 132.523438 197.058594 C 140.054688 195.507812 146.875 191.886719 152.613281 186.382812 C 152.804688 186.144531 152.570312 185.910156 152.472656 185.863281 C 149.933594 183.085938 147.300781 180.59375 144.855469 178.003906 C 140.898438 181.535156 136.382812 184.171875 131.445312 185.4375 C 129.28125 185.910156 127.160156 186.097656 124.996094 186.238281 L 124.902344 186.050781 L 124.949219 178.382812 L 132.382812 178.335938 L 132.523438 178.003906 L 132.476562 167.839844 L 132.242188 167.75 L 124.570312 167.75 C 124.433594 166.101562 124.476562 164.363281 124.523438 162.808594 L 134.96875 162.714844 L 135.0625 162.480469 L 135.019531 152.410156 L 115.917969 152.410156 L 114.179688 152.457031 L 114.085938 153.210938 L 114.035156 178.804688 C 109.613281 174.289062 105.003906 169.535156 100.390625 165.113281 L 96.015625 160.6875 C 95.121094 154.667969 96.4375 148.503906 99.167969 143.515625 C 101.097656 139.566406 104.53125 136.035156 108.105469 133.496094 C 112.671875 137.777344 116.859375 142.480469 121.425781 146.808594 Z M 121.425781 146.808594 "/>
<path style=" stroke:none;fill-rule:evenodd;fill:rgb(0%,0%,0%);fill-opacity:1;" d="M 44.359375 136.175781 L 44.3125 136.082031 L 44.359375 136.128906 Z M 208.183594 151.890625 C 208.136719 151.890625 208.042969 151.984375 208.089844 151.984375 L 208.089844 151.796875 C 208.089844 151.75 208.136719 151.796875 208.183594 151.890625 Z M 208.183594 151.890625 "/>
<path style=" stroke:none;fill-rule:evenodd;fill:rgb(93.72549%,76.862745%,37.647059%);fill-opacity:1;" d="M 134.410156 153.164062 C 134.410156 156.21875 134.316406 158.996094 134.363281 162.101562 C 130.976562 162.148438 127.542969 162.054688 123.964844 162.148438 C 123.730469 164.125 123.824219 166.148438 123.871094 168.21875 L 124.011719 168.359375 L 131.867188 168.359375 L 131.867188 177.722656 L 131.679688 177.769531 L 124.386719 177.769531 L 124.292969 177.910156 L 124.246094 186.191406 C 120.953125 186.097656 117.707031 185.53125 114.742188 184.496094 L 114.742188 153.066406 C 121.234375 152.878906 127.679688 152.972656 134.316406 152.972656 Z M 134.410156 153.164062 "/>
<path style=" stroke:none;fill-rule:evenodd;fill:rgb(0%,0%,0%);fill-opacity:1;" d="M 41.863281 161.539062 L 41.816406 161.441406 C 41.863281 161.347656 41.863281 161.441406 41.863281 161.539062 Z M 41.863281 161.539062 "/>
<path style=" stroke:none;fill-rule:evenodd;fill:rgb(100%,100%,100%);fill-opacity:1;" d="M 109.617188 175.226562 L 114.039062 179.648438 L 114.039062 184.261719 C 106.699219 181.34375 99.875 174.664062 97.429688 167.277344 C 96.816406 165.394531 96.207031 163.515625 96.113281 161.675781 C 100.488281 166.289062 105.285156 170.570312 109.617188 175.226562 Z M 109.617188 175.226562 "/>
<path style=" stroke:none;fill-rule:evenodd;fill:rgb(0%,0%,0%);fill-opacity:1;" d="M 172.09375 169.722656 L 172.050781 169.675781 L 172.09375 169.675781 Z M 204.558594 183.367188 L 204.558594 183.460938 Z M 204.558594 183.367188 "/>
<path style=" stroke:none;fill-rule:evenodd;fill:rgb(93.72549%,76.862745%,37.647059%);fill-opacity:1;" d="M 124.199219 197.859375 L 124.246094 199.082031 L 124.199219 213.855469 L 114.695312 213.808594 L 114.742188 196.632812 C 117.707031 197.292969 120.953125 197.8125 124.199219 197.859375 Z M 124.199219 197.859375 "/>
<path style=" stroke:none;fill-rule:evenodd;fill:rgb(0%,0%,0%);fill-opacity:1;" d="M 182.730469 216.300781 L 182.683594 216.347656 L 182.683594 216.207031 C 182.683594 216.113281 182.683594 216.207031 182.730469 216.300781 Z M 134.082031 230.464844 L 133.941406 230.464844 L 133.988281 230.324219 C 134.035156 230.230469 134.035156 230.324219 134.082031 230.464844 Z M 145.890625 237.660156 L 145.890625 237.757812 Z M 145.890625 237.660156 "/>
</g>
</svg>
