<?xml version="1.0" encoding="UTF-8"?>
<svg xmlns="http://www.w3.org/2000/svg" xmlns:xlink="http://www.w3.org/1999/xlink" viewBox="0 0 250 419" version="1.1">
<g id="surface1">
<path style=" stroke:none;fill-rule:nonzero;fill:rgb(100%,100%,100%);fill-opacity:1;" d="M 224.632812 122.097656 C 215.074219 100.796875 201.46875 82.066406 184.558594 65.175781 C 155.515625 36.53125 127.574219 25.144531 126.101562 24.777344 L 125.367188 24.410156 L 124.632812 24.777344 C 123.53125 25.144531 94.851562 36.898438 66.175781 65.175781 C 48.898438 82.066406 35.292969 101.164062 26.101562 122.097656 C 13.601562 148.539062 7.351562 177.917969 7.351562 209.5 C 7.351562 241.082031 13.601562 270.09375 25.734375 296.902344 C 35.292969 318.203125 48.898438 336.933594 65.808594 353.824219 C 94.851562 382.46875 122.792969 393.855469 124.265625 394.222656 L 125.367188 394.589844 L 126.46875 394.222656 C 127.574219 393.855469 156.25 382.101562 184.925781 353.824219 C 201.839844 336.933594 215.441406 317.835938 225 296.902344 C 237.132812 270.460938 243.382812 241.449219 243.382812 209.5 C 242.648438 178.285156 236.765625 148.539062 224.632812 122.097656 Z M 224.632812 122.097656 "/>
<path style=" stroke:none;fill-rule:nonzero;fill:rgb(100%,100%,100%);fill-opacity:1;" d="M 125 398.996094 L 122.792969 397.894531 C 121.691406 397.527344 92.28125 385.410156 63.234375 356.394531 C 45.957031 339.136719 31.984375 320.039062 22.425781 298.371094 C 9.925781 271.195312 3.675781 241.449219 3.675781 209.5 C 3.675781 177.550781 9.925781 147.804688 22.425781 120.628906 C 32.351562 98.960938 46.324219 79.863281 63.234375 62.605469 C 92.648438 33.222656 121.691406 21.839844 122.792969 21.105469 L 125 20.371094 L 127.207031 21.105469 C 128.308594 21.472656 157.71875 33.589844 186.765625 62.605469 C 204.042969 79.863281 218.015625 99.328125 227.574219 120.628906 C 240.074219 147.4375 246.324219 177.183594 246.324219 209.5 C 246.324219 241.816406 240.074219 271.195312 227.574219 298.371094 C 217.648438 320.039062 203.675781 339.136719 186.765625 356.394531 C 157.351562 385.777344 128.308594 397.160156 127.207031 397.894531 Z M 125 28.082031 C 120.957031 29.917969 95.21875 41.304688 68.382812 67.746094 C 51.839844 84.269531 38.234375 103 29.042969 123.566406 C 16.910156 149.640625 11.03125 178.285156 11.03125 209.5 C 11.03125 240.714844 16.910156 269.359375 29.042969 295.066406 C 38.601562 316 51.839844 334.363281 68.382812 350.886719 C 95.21875 377.695312 121.324219 388.714844 125 390.550781 C 129.042969 389.082031 155.148438 377.328125 181.617188 350.886719 C 198.160156 334.363281 211.765625 315.632812 220.957031 295.066406 C 232.71875 268.992188 238.96875 240.347656 238.96875 209.5 C 238.96875 178.285156 233.089844 149.640625 220.957031 123.933594 C 211.398438 103 198.160156 84.636719 181.617188 68.113281 C 155.148438 41.304688 128.675781 29.917969 125 28.082031 Z M 125 28.082031 "/>
<path style=" stroke:none;fill-rule:nonzero;fill:rgb(100%,100%,100%);fill-opacity:1;" d="M 125 398.996094 L 122.792969 397.894531 C 121.691406 397.527344 92.28125 385.410156 63.234375 356.394531 C 45.957031 339.136719 31.984375 320.039062 22.425781 298.371094 C 9.925781 271.195312 3.675781 241.449219 3.675781 209.5 C 3.675781 177.550781 9.925781 147.804688 22.425781 120.628906 C 32.351562 98.960938 46.324219 79.863281 63.234375 62.605469 C 92.648438 33.222656 121.691406 21.839844 122.792969 21.105469 L 125 20.371094 L 127.207031 21.105469 C 128.308594 21.472656 157.71875 33.589844 186.765625 62.605469 C 204.042969 79.863281 218.015625 99.328125 227.574219 120.628906 C 240.074219 147.4375 246.324219 177.183594 246.324219 209.5 C 246.324219 241.816406 240.074219 271.195312 227.574219 298.371094 C 217.648438 320.039062 203.675781 339.136719 186.765625 356.394531 C 157.351562 385.777344 128.308594 397.160156 127.207031 397.894531 Z M 125 28.082031 C 120.957031 29.917969 95.21875 41.304688 68.382812 67.746094 C 51.839844 84.269531 38.234375 103 29.042969 123.566406 C 16.910156 149.640625 11.03125 178.285156 11.03125 209.5 C 11.03125 240.714844 16.910156 269.359375 29.042969 295.066406 C 38.601562 316 51.839844 334.363281 68.382812 350.886719 C 95.21875 377.695312 121.324219 388.714844 125 390.550781 C 129.042969 389.082031 155.148438 377.328125 181.617188 350.886719 C 198.160156 334.363281 211.765625 315.632812 220.957031 295.066406 C 232.71875 268.992188 238.96875 240.347656 238.96875 209.5 C 238.96875 178.285156 233.089844 149.640625 220.957031 123.933594 C 211.398438 103 198.160156 84.636719 181.617188 68.113281 C 155.148438 41.304688 128.675781 29.917969 125 28.082031 Z M 125 28.082031 "/>
<path style=" stroke:none;fill-rule:nonzero;fill:rgb(100%,100%,100%);fill-opacity:1;" d="M 125 402.667969 L 121.324219 401.199219 C 120.21875 400.832031 90.441406 388.714844 60.660156 358.96875 C 42.648438 341.339844 28.675781 321.875 19.117188 299.839844 C 6.25 272.296875 0 242.183594 0 209.5 C 0 176.816406 6.25 146.703125 19.117188 119.527344 C 29.042969 97.492188 43.382812 78.027344 60.660156 60.398438 C 90.441406 30.285156 119.851562 18.167969 121.324219 17.800781 L 125 16.332031 L 128.675781 17.800781 C 129.78125 18.167969 159.925781 30.652344 189.339844 60.03125 C 206.984375 77.660156 220.957031 97.125 230.882812 119.160156 C 243.382812 146.703125 250 176.816406 250 209.5 C 250 242.183594 243.75 272.296875 230.882812 299.839844 C 220.957031 321.875 206.617188 341.339844 189.339844 358.96875 C 159.191406 388.714844 129.78125 400.464844 128.675781 401.199219 Z M 127.207031 394.222656 C 126.839844 394.222656 126.46875 394.589844 126.46875 394.589844 L 126.101562 394.957031 C 126.101562 394.589844 126.46875 394.222656 127.207031 394.222656 Z M 125 32.121094 C 118.382812 35.058594 94.484375 46.8125 70.957031 70.316406 C 54.410156 86.472656 41.542969 105.203125 32.351562 125.402344 C 20.589844 150.742188 14.707031 178.652344 14.707031 209.5 C 14.707031 239.980469 20.589844 268.257812 32.351562 293.597656 C 41.542969 314.164062 54.78125 332.160156 70.957031 348.683594 C 95.21875 372.554688 118.75 383.941406 125 386.878906 C 131.617188 383.941406 155.148438 372.1875 179.042969 348.683594 C 195.589844 332.527344 208.457031 313.796875 217.648438 293.597656 C 229.410156 268.257812 235.292969 239.980469 235.292969 209.5 C 235.292969 179.019531 229.410156 150.742188 217.648438 125.402344 C 208.089844 104.835938 194.851562 86.472656 179.042969 70.316406 C 155.148438 46.8125 131.25 35.058594 125 32.121094 Z M 236.398438 263.117188 C 233.457031 274.867188 229.410156 285.886719 224.632812 296.535156 C 216.175781 315.265625 204.410156 332.160156 190.441406 347.582031 C 204.78125 332.160156 216.175781 314.898438 224.632812 296.535156 C 229.410156 285.886719 233.457031 274.867188 236.398438 263.117188 Z M 7.351562 209.5 C 7.351562 241.082031 13.601562 270.09375 25.734375 296.902344 C 32.351562 311.59375 41.175781 325.546875 51.46875 337.667969 C 41.175781 324.8125 32.71875 311.226562 25.734375 296.902344 C 13.601562 270.09375 7.351562 241.082031 7.351562 209.5 Z M 53.308594 78.394531 C 41.910156 91.984375 32.71875 106.671875 25.367188 122.097656 C 13.601562 148.539062 7.351562 177.917969 7.351562 209.5 C 7.351562 177.917969 13.601562 148.539062 25.734375 122.097656 C 33.089844 106.671875 42.28125 91.984375 53.308594 78.394531 Z M 214.707031 104.101562 C 218.382812 109.976562 221.324219 116.222656 224.265625 122.464844 C 228.675781 131.644531 231.984375 141.558594 234.925781 151.476562 C 231.984375 141.558594 228.675781 131.644531 224.265625 122.464844 C 221.691406 116.222656 218.382812 109.976562 214.707031 104.101562 Z M 214.707031 104.101562 "/>
<path style=" stroke:none;fill-rule:nonzero;fill:rgb(0.392157%,0.392157%,0.392157%);fill-opacity:1;" d="M 125 26.246094 C 125 26.246094 9.925781 72.519531 9.925781 208.765625 C 9.925781 345.011719 124.632812 391.285156 125 391.285156 C 125 391.285156 240.074219 345.011719 240.074219 208.765625 C 240.074219 72.519531 125 26.246094 125 26.246094 Z M 125 26.246094 "/>
<path style=" stroke:none;fill-rule:nonzero;fill:rgb(100%,100%,100%);fill-opacity:1;" d="M 125 46.8125 C 125 46.8125 13.601562 86.105469 13.601562 209.132812 C 13.601562 332.160156 125 371.820312 125 371.820312 C 125 371.820312 236.765625 332.160156 236.765625 209.132812 C 236.765625 85.738281 125 46.8125 125 46.8125 Z M 125 46.8125 "/>
<path style=" stroke:none;fill-rule:nonzero;fill:rgb(94.901961%,43.921569%,13.333333%);fill-opacity:1;" d="M 116.542969 205.460938 C 94.484375 193.707031 79.78125 170.574219 77.207031 143.765625 C 74.265625 117.324219 83.089844 94.1875 103.308594 72.886719 C 39.339844 109.242188 55.882812 156.25 64.339844 171.308594 C 75.367188 191.871094 95.21875 204.726562 116.542969 205.460938 Z M 116.542969 205.460938 "/>
<path style=" stroke:none;fill-rule:nonzero;fill:rgb(0.392157%,0.392157%,0.392157%);fill-opacity:1;" d="M 125 277.441406 C 91.175781 277.441406 59.925781 272.664062 33.824219 264.21875 C 58.457031 333.261719 125 351.253906 125 351.253906 C 125 351.253906 191.542969 333.261719 216.175781 263.851562 C 190.074219 272.296875 158.824219 277.441406 125 277.441406 Z M 125 277.441406 "/>
<path style=" stroke:none;fill-rule:nonzero;fill:rgb(94.901961%,43.921569%,13.333333%);fill-opacity:1;" d="M 206.617188 133.847656 C 205.515625 177.917969 169.484375 213.539062 125 213.539062 C 80.515625 213.539062 44.484375 178.285156 43.382812 133.847656 C 33.457031 153.3125 24.632812 177.550781 24.632812 208.03125 L 24.632812 213.171875 C 52.207031 223.457031 87.132812 229.699219 125 229.699219 C 162.867188 229.699219 197.792969 223.457031 225.367188 213.171875 L 225.367188 208.03125 C 225.367188 177.550781 216.542969 153.3125 206.617188 133.847656 Z M 206.617188 133.847656 "/>
<path style=" stroke:none;fill-rule:nonzero;fill:rgb(94.901961%,43.921569%,13.333333%);fill-opacity:1;" d="M 136.398438 123.199219 C 133.457031 116.222656 129.410156 109.609375 124.632812 103.734375 C 119.851562 109.609375 115.808594 115.851562 112.867188 123.199219 C 107.71875 136.785156 105.882812 151.476562 108.089844 165.796875 C 110.292969 180.121094 115.808594 193.339844 124.632812 203.625 C 133.457031 192.972656 139.339844 180.121094 141.175781 165.796875 C 143.75 151.476562 141.910156 136.785156 136.398438 123.199219 Z M 136.398438 123.199219 "/>
<path style=" stroke:none;fill-rule:nonzero;fill:rgb(94.901961%,43.921569%,13.333333%);fill-opacity:1;" d="M 133.457031 205.460938 C 155.515625 193.707031 170.21875 170.574219 172.792969 143.765625 C 175.734375 117.324219 166.910156 94.1875 146.691406 72.886719 C 210.660156 108.875 193.75 156.25 185.292969 171.308594 C 174.632812 191.871094 154.78125 204.726562 133.457031 205.460938 Z M 133.457031 205.460938 "/>
<path style=" stroke:none;fill-rule:nonzero;fill:rgb(0.392157%,0.392157%,0.392157%);fill-opacity:1;" d="M 125 68.113281 C 95.21875 84.269531 83.089844 114.015625 83.089844 136.785156 C 83.089844 162.859375 95.21875 186.363281 114.707031 199.21875 C 100.367188 176.082031 97.792969 146.335938 108.457031 120.261719 C 111.765625 112.546875 115.808594 105.203125 121.324219 98.960938 L 125.367188 94.554688 L 129.410156 98.960938 C 134.558594 105.203125 138.96875 112.179688 142.28125 120.261719 C 152.941406 146.335938 150.367188 176.082031 136.03125 199.21875 C 155.515625 186.363281 167.648438 162.859375 167.648438 136.785156 C 167.28125 114.382812 154.78125 84.269531 125 68.113281 Z M 107.351562 268.257812 C 107.351562 268.257812 106.25 265.6875 105.515625 264.585938 L 93.015625 234.839844 C 92.648438 234.105469 90.808594 233.738281 90.074219 233.738281 C 88.601562 233.738281 87.867188 233.738281 87.867188 234.472656 L 77.574219 265.320312 L 77.574219 266.421875 C 77.574219 266.421875 77.941406 266.789062 78.308594 266.789062 C 79.410156 266.789062 80.882812 267.15625 81.984375 267.15625 C 82.71875 267.15625 83.089844 267.15625 83.089844 266.421875 L 85.292969 257.976562 L 85.660156 257.976562 L 95.589844 259.078125 L 95.957031 259.078125 C 96.691406 260.546875 97.058594 262.382812 97.792969 263.851562 L 99.265625 267.890625 C 99.632812 268.625 100 268.992188 100.734375 268.992188 C 102.574219 268.992188 104.410156 269.359375 106.25 269.359375 C 106.617188 269.359375 106.984375 269.359375 106.984375 268.992188 C 107.351562 269.359375 107.71875 268.992188 107.351562 268.257812 Z M 86.398438 255.40625 C 87.5 251.734375 88.601562 247.691406 89.707031 244.019531 C 90.441406 246.222656 94.117188 255.40625 94.484375 256.140625 C 91.910156 256.140625 89.339844 255.773438 86.398438 255.40625 Z M 193.015625 262.015625 C 193.015625 262.015625 191.910156 259.8125 191.542969 258.710938 L 182.71875 232.269531 C 182.351562 231.535156 180.515625 231.902344 179.78125 231.902344 C 178.308594 232.269531 177.574219 232.636719 177.574219 233.003906 L 163.601562 267.15625 L 163.601562 268.257812 C 163.601562 268.257812 163.96875 268.625 164.339844 268.625 C 165.441406 268.625 166.910156 268.257812 168.015625 268.257812 C 168.75 268.257812 169.117188 267.890625 169.484375 267.15625 L 172.792969 258.34375 L 173.160156 258.34375 C 176.46875 257.976562 179.78125 257.242188 183.089844 256.875 L 183.457031 256.875 C 183.824219 258.34375 184.191406 259.8125 184.925781 261.28125 L 186.03125 264.953125 C 186.03125 265.6875 186.765625 265.6875 187.5 265.6875 C 189.339844 265.320312 191.175781 264.953125 193.382812 264.585938 C 193.75 264.585938 194.117188 264.21875 194.117188 263.851562 C 193.015625 263.117188 193.382812 262.75 193.015625 262.015625 Z M 173.898438 254.304688 C 175.367188 250.265625 177.207031 245.855469 178.675781 241.816406 C 179.410156 243.652344 181.984375 252.101562 182.351562 252.835938 C 179.410156 253.570312 176.839844 253.9375 173.898438 254.304688 Z M 126.46875 252.835938 C 130.148438 247.691406 133.457031 242.550781 137.132812 237.410156 C 137.5 237.042969 137.5 236.675781 137.132812 236.308594 C 137.132812 235.941406 136.765625 235.941406 136.398438 235.941406 L 132.351562 235.941406 C 131.617188 235.941406 131.25 235.941406 130.882812 236.675781 C 130.882812 236.675781 124.265625 246.589844 123.160156 248.425781 C 120.957031 244.753906 118.382812 240.714844 115.808594 237.042969 C 115.441406 236.308594 115.074219 235.941406 114.339844 235.941406 C 112.5 235.941406 110.292969 235.941406 108.457031 235.574219 C 108.089844 235.574219 107.71875 235.574219 107.71875 235.941406 L 107.71875 237.042969 C 107.71875 237.042969 117.648438 252.46875 118.75 253.9375 C 115.441406 258.710938 112.132812 263.851562 108.824219 268.625 C 108.457031 268.992188 108.457031 269.359375 108.824219 269.726562 C 108.824219 270.09375 109.191406 270.09375 109.558594 270.09375 L 113.234375 270.09375 C 113.96875 270.09375 114.339844 270.09375 114.707031 269.359375 C 114.707031 269.359375 120.957031 259.8125 122.058594 257.976562 C 124.632812 261.648438 126.839844 265.6875 129.410156 269.359375 C 129.78125 270.09375 130.148438 270.460938 130.882812 270.460938 L 136.03125 270.460938 C 136.398438 270.460938 136.765625 270.460938 136.765625 270.09375 L 136.765625 268.992188 C 133.457031 263.484375 129.78125 258.34375 126.46875 252.835938 Z M 168.382812 234.839844 L 168.382812 234.105469 C 168.015625 233.738281 167.648438 233.738281 167.28125 233.738281 C 158.824219 234.839844 150.734375 235.207031 142.28125 235.574219 C 141.910156 235.574219 141.175781 235.574219 141.175781 235.941406 C 141.175781 236.308594 140.808594 236.308594 140.808594 236.675781 L 140.808594 239.246094 C 140.808594 239.613281 140.808594 239.980469 141.175781 239.980469 C 141.542969 240.347656 141.910156 239.980469 141.910156 239.980469 C 141.910156 239.980469 147.425781 238.878906 150.367188 238.878906 C 150.367188 238.878906 150.734375 238.878906 150.734375 239.246094 L 150.367188 252.101562 L 149.632812 267.890625 C 149.632812 268.625 150 268.992188 150.734375 268.992188 C 152.207031 268.992188 153.675781 268.625 155.515625 268.625 C 156.25 268.625 156.617188 268.257812 156.617188 267.523438 L 157.351562 251.367188 L 158.089844 238.511719 C 158.089844 238.144531 158.457031 238.144531 158.457031 238.144531 C 161.03125 237.777344 166.910156 238.144531 166.910156 237.777344 C 167.28125 237.777344 167.648438 237.777344 167.648438 237.410156 C 168.015625 237.042969 168.015625 237.042969 168.015625 236.675781 C 168.015625 237.042969 168.382812 234.839844 168.382812 234.839844 Z M 212.132812 226.027344 C 208.089844 227.128906 204.042969 227.863281 200 228.597656 C 199.265625 228.597656 198.898438 229.332031 198.53125 230.066406 L 197.058594 246.222656 L 195.589844 262.382812 C 195.589844 263.117188 195.957031 263.484375 196.691406 263.117188 C 198.160156 262.75 200 262.382812 201.46875 262.015625 C 202.207031 262.015625 202.574219 261.28125 202.574219 260.546875 L 203.675781 247.691406 C 203.675781 247.324219 204.042969 247.324219 204.410156 246.957031 C 205.515625 246.589844 206.25 246.589844 207.351562 246.222656 C 215.808594 244.386719 221.691406 238.878906 222.792969 232.269531 C 223.898438 225.660156 218.015625 224.558594 212.132812 226.027344 Z M 205.515625 244.019531 L 204.78125 244.019531 C 204.410156 244.019531 204.410156 244.019531 204.410156 243.652344 C 204.78125 239.613281 205.148438 235.207031 205.515625 231.167969 C 205.515625 230.800781 205.882812 230.433594 206.617188 230.066406 C 206.984375 230.066406 207.351562 230.066406 207.351562 229.699219 C 213.234375 228.230469 215.441406 229.699219 215.074219 234.105469 C 214.707031 239.613281 211.765625 242.917969 205.515625 244.019531 Z M 71.691406 233.371094 C 71.691406 232.636719 71.324219 232.269531 70.21875 231.902344 C 68.75 231.535156 66.910156 231.535156 65.441406 231.167969 C 64.707031 231.167969 64.339844 231.535156 64.339844 232.269531 L 66.542969 260.914062 C 66.542969 261.28125 66.175781 261.648438 65.808594 261.648438 C 64.707031 261.28125 63.234375 261.28125 62.132812 260.914062 C 60.660156 260.546875 58.089844 259.8125 56.25 259.078125 C 55.515625 249.527344 54.410156 239.980469 53.675781 230.066406 C 53.675781 229.699219 53.675781 229.332031 53.308594 228.964844 C 52.941406 228.597656 52.941406 228.597656 52.574219 228.597656 C 51.101562 228.230469 49.265625 227.863281 47.792969 227.496094 L 47.058594 227.496094 C 46.691406 227.496094 46.691406 227.863281 46.691406 228.230469 C 47.792969 237.777344 48.53125 247.691406 49.632812 257.242188 C 47.792969 257.242188 45.21875 256.875 43.75 256.507812 C 42.648438 256.140625 41.175781 255.773438 40.074219 255.40625 C 39.707031 255.40625 39.339844 254.671875 38.96875 254.304688 L 36.03125 225.660156 C 36.03125 224.925781 35.292969 224.558594 34.558594 224.191406 C 32.71875 223.824219 31.25 223.457031 29.410156 223.089844 C 28.675781 222.71875 28.308594 223.089844 28.308594 223.824219 L 32.351562 256.140625 C 32.351562 256.875 33.089844 257.242188 33.824219 257.609375 C 47.058594 261.28125 60.292969 264.21875 73.160156 266.054688 C 73.898438 266.054688 74.265625 265.6875 74.265625 264.953125 C 73.898438 264.953125 71.691406 233.371094 71.691406 233.371094 Z M 71.691406 233.371094 "/>
<path style=" stroke:none;fill-rule:nonzero;fill:rgb(100%,100%,100%);fill-opacity:1;" d="M 109.925781 300.941406 L 109.925781 289.925781 C 109.925781 289.558594 109.558594 289.558594 109.558594 289.558594 L 107.71875 289.558594 C 107.351562 289.558594 107.351562 289.925781 107.351562 289.925781 L 107.351562 300.941406 C 107.351562 301.308594 107.71875 301.308594 107.71875 301.308594 L 109.925781 300.941406 C 109.558594 301.675781 109.925781 301.308594 109.925781 300.941406 Z M 116.542969 289.191406 C 113.601562 289.191406 111.765625 290.660156 111.765625 292.863281 C 111.765625 294.699219 113.234375 296.902344 116.175781 296.902344 C 117.648438 296.902344 118.015625 296.535156 118.75 296.167969 C 118.75 298.371094 116.910156 300.207031 114.339844 300.574219 C 113.96875 300.574219 113.96875 300.941406 113.96875 300.941406 L 113.96875 301.308594 C 113.96875 301.675781 114.339844 301.675781 114.339844 301.675781 L 114.707031 301.675781 C 119.117188 301.675781 121.691406 298.738281 121.691406 294.699219 C 121.324219 293.230469 120.957031 289.191406 116.542969 289.191406 Z M 116.542969 295.433594 C 115.074219 295.433594 114.339844 293.964844 114.339844 292.863281 C 114.339844 291.027344 115.074219 290.660156 115.808594 290.660156 C 118.015625 290.660156 118.382812 292.863281 118.382812 293.964844 C 118.382812 295.066406 117.648438 295.433594 116.542969 295.433594 Z M 129.410156 294.699219 C 130.148438 293.964844 130.882812 292.863281 130.882812 292.128906 C 130.882812 290.292969 129.410156 289.558594 126.839844 289.558594 C 125.367188 289.558594 124.265625 289.925781 123.53125 290.292969 C 122.792969 290.660156 123.160156 290.660156 123.53125 290.660156 L 124.265625 291.394531 L 124.632812 291.394531 C 125 291.027344 125.734375 291.027344 126.839844 291.027344 C 127.574219 291.027344 128.675781 291.027344 128.675781 292.496094 C 128.675781 293.964844 127.574219 294.699219 126.101562 295.066406 C 125.734375 295.066406 125.734375 295.433594 125.734375 295.433594 C 125.734375 295.433594 125.734375 295.800781 126.101562 295.800781 L 127.207031 295.800781 C 127.941406 295.800781 128.675781 296.167969 129.042969 296.535156 C 129.410156 296.902344 129.78125 297.636719 129.78125 298.003906 C 129.78125 299.839844 128.675781 300.941406 126.46875 300.941406 L 124.632812 300.941406 L 124.632812 301.675781 C 124.632812 302.042969 125 302.042969 125 302.042969 C 125.734375 302.410156 127.941406 302.410156 128.308594 302.410156 C 130.515625 302.410156 133.089844 301.308594 133.089844 298.371094 C 131.617188 296.167969 130.882812 295.066406 129.410156 294.699219 Z M 138.96875 294.332031 C 137.5 294.332031 137.132812 294.699219 136.398438 295.066406 C 136.398438 292.863281 137.867188 291.027344 140.074219 291.027344 L 141.175781 291.027344 C 141.542969 291.027344 141.542969 290.660156 141.542969 290.660156 L 141.542969 290.292969 C 141.542969 289.925781 141.175781 289.925781 141.175781 289.925781 L 139.339844 289.925781 C 135.292969 289.925781 133.457031 293.230469 133.457031 296.902344 C 133.457031 298.738281 133.824219 302.410156 138.601562 302.410156 C 141.542969 302.410156 143.382812 300.941406 143.382812 298.738281 C 143.382812 295.800781 141.542969 294.332031 138.96875 294.332031 Z M 138.96875 300.574219 C 136.765625 300.574219 136.398438 298.003906 136.398438 297.269531 C 136.398438 296.535156 137.132812 295.800781 138.234375 295.800781 C 140.074219 295.800781 140.441406 297.269531 140.441406 298.371094 C 140.441406 300.207031 139.707031 300.574219 138.96875 300.574219 Z M 136.765625 316.734375 L 137.867188 315.632812 C 138.234375 315.265625 138.234375 314.898438 137.867188 314.53125 L 136.03125 312.695312 C 135.660156 312.328125 135.292969 312.328125 134.925781 312.695312 L 133.824219 313.796875 L 130.148438 310.125 C 129.78125 309.757812 129.78125 309.757812 129.410156 309.757812 C 129.410156 309.757812 129.042969 309.757812 129.042969 310.125 L 126.46875 313.0625 L 126.46875 313.429688 C 126.46875 313.796875 126.46875 313.796875 126.839844 313.796875 C 126.839844 313.796875 129.410156 316 130.515625 317.101562 L 130.515625 317.46875 L 125 322.976562 L 119.484375 317.46875 L 119.484375 317.101562 C 120.589844 316 123.160156 313.796875 123.160156 313.796875 L 123.53125 313.429688 L 123.53125 313.0625 L 120.957031 310.125 L 120.589844 309.757812 C 120.21875 309.757812 120.21875 309.757812 119.851562 310.125 L 116.175781 313.796875 L 115.074219 312.695312 C 114.707031 312.328125 114.339844 312.328125 113.96875 312.695312 L 112.132812 314.53125 C 111.765625 314.898438 111.765625 315.265625 112.132812 315.632812 L 113.234375 316.734375 L 109.558594 320.40625 C 109.191406 320.773438 109.191406 320.773438 109.191406 321.140625 C 109.191406 321.140625 109.191406 321.507812 109.558594 321.507812 L 112.5 324.078125 L 112.867188 324.078125 C 113.234375 324.078125 113.234375 324.078125 113.234375 323.710938 C 113.234375 323.710938 115.441406 321.140625 116.542969 320.039062 L 116.910156 320.039062 L 122.425781 325.546875 C 118.382812 329.585938 113.234375 334.363281 113.234375 334.363281 C 112.867188 334.730469 112.867188 335.097656 113.234375 335.464844 L 115.074219 337.300781 C 115.441406 337.667969 115.808594 337.667969 116.175781 337.300781 C 116.175781 337.300781 121.324219 332.160156 125 328.117188 C 129.042969 332.160156 133.824219 337.300781 133.824219 337.300781 C 134.191406 337.667969 134.558594 337.667969 134.925781 337.300781 L 136.765625 335.464844 C 137.132812 335.097656 137.132812 334.730469 136.765625 334.363281 C 136.765625 334.363281 131.617188 329.21875 127.574219 325.546875 L 133.089844 320.039062 L 133.457031 320.039062 C 134.558594 321.140625 139.707031 324.445312 140.441406 323.710938 C 141.542969 323.34375 136.765625 316.734375 136.765625 316.734375 Z M 136.765625 316.734375 "/>
</g>
</svg>
